<?xml version="1.0" encoding="utf-8"?>
<!-- Generator: Adobe Illustrator 15.0.2, SVG Export Plug-In . SVG Version: 6.00 Build 0)  -->
<!DOCTYPE svg PUBLIC "-//W3C//DTD SVG 1.1//EN" "http://www.w3.org/Graphics/SVG/1.1/DTD/svg11.dtd">
<svg version="1.1" id="レイヤー1" xmlns="http://www.w3.org/2000/svg" xmlns:xlink="http://www.w3.org/1999/xlink" x="0px"
	 y="0px" width="841.8896484px" height="595.2753906px" viewBox="0 0 841.8896484 595.2753906"
	 enable-background="new 0 0 841.8896484 595.2753906" xml:space="preserve">
<g>
	<rect x="71.5" y="-226.5" fill="none" stroke="#000000" stroke-width="0.25" width="100" height="150"/>
	<rect x="171.5" y="-226.5" fill="none" stroke="#000000" stroke-width="0.25" width="100" height="150"/>
	<rect x="271.5" y="-226.5" fill="none" stroke="#000000" stroke-width="0.25" width="100" height="150"/>
	<rect x="371.5" y="-226.5" fill="none" stroke="#000000" stroke-width="0.25" width="125" height="150"/>
	<rect x="496.5" y="-226.5" fill="none" stroke="#000000" stroke-width="0.25" width="125" height="150"/>
	<rect x="621.5" y="-226.5" fill="none" stroke="#000000" stroke-width="0.25" width="100" height="150"/>
	<rect x="721.5" y="-226.5" fill="none" stroke="#000000" stroke-width="0.25" width="100" height="150"/>
	<rect x="71.5" y="-76.5" fill="none" stroke="#000000" stroke-width="0.25" width="100" height="150"/>
	<rect x="171.5" y="-76.5" fill="none" stroke="#000000" stroke-width="0.25" width="100" height="150"/>
	<rect x="271.5" y="-76.5" fill="none" stroke="#000000" stroke-width="0.25" width="100" height="150"/>
	<rect x="371.5" y="-76.5" fill="none" stroke="#000000" stroke-width="0.25" width="125" height="150"/>
	<rect x="496.5" y="-76.5" fill="none" stroke="#000000" stroke-width="0.25" width="125" height="150"/>
	<rect x="621.5" y="-76.5" fill="none" stroke="#000000" stroke-width="0.25" width="100" height="150"/>
	<rect x="721.5" y="-76.5" fill="none" stroke="#000000" stroke-width="0.25" width="100" height="150"/>
	<rect x="71.5" y="73.5" fill="none" stroke="#000000" stroke-width="0.25" width="100" height="150"/>
	<rect x="171.5" y="73.5" fill="none" stroke="#000000" stroke-width="0.25" width="100" height="150"/>
	<rect x="271.5" y="73.5" fill="none" stroke="#000000" stroke-width="0.25" width="100" height="150"/>
	<rect x="371.5" y="73.5" fill="none" stroke="#000000" stroke-width="0.25" width="125" height="150"/>
	<rect x="496.5" y="73.5" fill="none" stroke="#000000" stroke-width="0.25" width="125" height="150"/>
	<rect x="621.5" y="73.5" fill="none" stroke="#000000" stroke-width="0.25" width="100" height="150"/>
	<rect x="721.5" y="73.5" fill="none" stroke="#000000" stroke-width="0.25" width="100" height="150"/>
	<rect x="71.5" y="223.5" fill="none" stroke="#000000" stroke-width="0.25" width="100" height="150"/>
	<rect x="171.5" y="223.5" fill="none" stroke="#000000" stroke-width="0.25" width="100" height="150"/>
	<rect x="271.5" y="223.5" fill="none" stroke="#000000" stroke-width="0.25" width="100" height="150"/>
	<rect x="371.5" y="223.5" fill="none" stroke="#000000" stroke-width="0.25" width="125" height="150"/>
	<rect x="496.5" y="223.5" fill="none" stroke="#000000" stroke-width="0.25" width="125" height="150"/>
	<rect x="621.5" y="223.5" fill="none" stroke="#000000" stroke-width="0.25" width="100" height="150"/>
	<rect x="721.5" y="223.5" fill="none" stroke="#000000" stroke-width="0.25" width="100" height="150"/>
	<rect x="71.5" y="373.5" fill="none" stroke="#000000" stroke-width="0.25" width="100" height="150"/>
	<rect x="171.5" y="373.5" fill="none" stroke="#000000" stroke-width="0.25" width="100" height="150"/>
	<rect x="271.5" y="373.5" fill="none" stroke="#000000" stroke-width="0.25" width="100" height="150"/>
	<rect x="371.5" y="373.5" fill="none" stroke="#000000" stroke-width="0.25" width="125" height="150"/>
	<rect x="496.5" y="373.5" fill="none" stroke="#000000" stroke-width="0.25" width="125" height="150"/>
	<rect x="621.5" y="373.5" fill="none" stroke="#000000" stroke-width="0.25" width="100" height="150"/>
	<rect x="721.5" y="373.5" fill="none" stroke="#000000" stroke-width="0.25" width="100" height="150"/>
	<rect x="71.5" y="523.5" fill="none" stroke="#000000" stroke-width="0.25" width="100" height="150"/>
	<rect x="171.5" y="523.5" fill="none" stroke="#000000" stroke-width="0.25" width="100" height="150"/>
	<rect x="271.5" y="523.5" fill="none" stroke="#000000" stroke-width="0.25" width="100" height="150"/>
	<rect x="371.5" y="523.5" fill="none" stroke="#000000" stroke-width="0.25" width="125" height="150"/>
	<rect x="496.5" y="523.5" fill="none" stroke="#000000" stroke-width="0.25" width="125" height="150"/>
	<rect x="621.5" y="523.5" fill="none" stroke="#000000" stroke-width="0.25" width="100" height="150"/>
	<rect x="721.5" y="523.5" fill="none" stroke="#000000" stroke-width="0.25" width="100" height="150"/>
	<rect x="71.5" y="673.5" fill="none" stroke="#000000" stroke-width="0.25" width="100" height="150"/>
	<rect x="171.5" y="673.5" fill="none" stroke="#000000" stroke-width="0.25" width="100" height="150"/>
	<rect x="271.5" y="673.5" fill="none" stroke="#000000" stroke-width="0.25" width="100" height="150"/>
	<rect x="371.5" y="673.5" fill="none" stroke="#000000" stroke-width="0.25" width="125" height="150"/>
	<rect x="496.5" y="673.5" fill="none" stroke="#000000" stroke-width="0.25" width="125" height="150"/>
	<rect x="621.5" y="673.5" fill="none" stroke="#000000" stroke-width="0.25" width="100" height="150"/>
	<rect x="721.5" y="673.5" fill="none" stroke="#000000" stroke-width="0.25" width="100" height="150"/>
	<rect x="821.5" y="-226.5" fill="none" stroke="#000000" stroke-width="0.25" width="100" height="150"/>
	<rect x="821.5" y="-76.5" fill="none" stroke="#000000" stroke-width="0.25" width="100" height="150"/>
	<rect x="821.5" y="73.5" fill="none" stroke="#000000" stroke-width="0.25" width="100" height="150"/>
	<rect x="821.5" y="223.5" fill="none" stroke="#000000" stroke-width="0.25" width="100" height="150"/>
	<rect x="821.5" y="373.5" fill="none" stroke="#000000" stroke-width="0.25" width="100" height="150"/>
	<rect x="821.5" y="523.5" fill="none" stroke="#000000" stroke-width="0.25" width="100" height="150"/>
	<rect x="821.5" y="673.5" fill="none" stroke="#000000" stroke-width="0.25" width="100" height="150"/>
</g>
<g>
	<path d="M108,289.5v42H97v-42H87v-8h10v-4c0-14.0185547,5.859375-20,17.5-20c3.3754883,0,6.2050781,0.4355469,9.5,1.5v8
		c-2.5039062-1.0263672-4.8544922-1.5-7.5-1.5c-6.0273438,0-8.5,2.6357422-8.5,11.5v4.5h20v-4c0-14.0185547,5.859375-20,17.5-20
		c3.3754883,0,6.2050781,0.4355469,9.5,1.5v8c-2.5039062-1.0263672-4.8544922-1.5-7.5-1.5c-6.0273438,0-8.5,2.6357422-8.5,11.5v4.5
		h16v8h-16v42h-11v-42H108z"/>
	<path d="M128.1665039,431.5v-3.3339844c0-14.3994141,6.1821289-20.6660156,18.6665039-20.6660156
		c3.8149414,0,6.90625,0.4267578,10.6669922,1.5v9.8330078c-2.4804688-0.9794922-5.1816406-1.5-7.6669922-1.5
		c-5.7841797,0-7.8330078,2.1972656-7.8330078,10.5V431.5h15.5v9.6660156H142V481.5h-13.8334961v-40.3339844h-19.5004883V481.5
		H94.8330078v-40.3339844h-9.8334961V431.5h9.8334961v-3.3339844C94.8330078,413.7675781,100.8071289,407.5,113.625,407.5
		c3.8144531,0,6.78125,0.4267578,10.5415039,1.5v9.8330078c-2.4799805-0.9794922-5.1811523-1.5-7.6665039-1.5
		c-5.7851562,0-7.8339844,2.1972656-7.8339844,10.5V431.5H128.1665039z"/>
	<path d="M128.3334961,581.5v-2.6669922c0-14.7802734,6.5048828-21.3330078,19.8334961-21.3330078
		c4.2539062,0,7.6074219,0.4189453,11.8330078,1.5v11.6669922c-2.4560547-0.9326172-5.5078125-1.5-7.8334961-1.5
		c-5.5415039,0-7.1665039,1.7587891-7.1665039,9.5V581.5h15v11.3330078h-15V631.5h-16.6665039v-38.6669922h-19.0004883V631.5
		H92.6669922v-38.6669922H83V581.5h9.6669922v-2.6669922C92.6669922,564.0546875,98.7548828,557.5,112.75,557.5
		c4.2539062,0,7.3574219,0.4189453,11.5830078,1.5v11.6669922c-2.4560547-0.9326172-5.5078125-1.5-7.8330078-1.5
		c-5.5419922,0-7.1669922,1.7587891-7.1669922,9.5V581.5H128.3334961z"/>
	<path d="M128.5,731.5v-2c0-15.1611328,6.828125-22,21-22c4.6933594,0,8.3085938,0.4111328,13,1.5v13.5
		c-2.4326172-0.8857422-5.8344727-1.5-8-1.5c-5.2988281,0-6.5,1.3203125-6.5,8.5v2h14.5v13H148v37h-19.5v-37H110v37H90.5v-37H81v-13
		h9.5v-2c0-15.1591797,6.203125-22,21.375-22c4.6933594,0,7.9335938,0.4111328,12.625,1.5v13.5
		c-2.4326172-0.8857422-5.8344727-1.5-8-1.5c-5.2988281,0-6.5,1.3203125-6.5,8.5v2H128.5z"/>
</g>
<g>
	<path d="M313.5,277v4.5h16v8h-16v42h-11v-42h-10v-8h10v-4c0-14.0185547,5.859375-20,21.5-20
		c7.1611328,0,13.7114258,0.9609375,20.5,3v71h-11v-64.75c-2.2954102-0.7529297-5.2685547-1.25-7.5-1.25
		C315.9726562,265.5,313.5,268.1357422,313.5,277z"/>
	<path d="M313.8330078,427.8330078V431.5h15.5v9.6660156h-15.5V481.5H300v-40.3339844h-9.8339844V431.5H300v-3.3339844
		C300,413.7675781,306.1821289,407.5,323.9995117,407.5c8.7338867,0,16.3540039,1.1308594,23.3334961,3.3330078V481.5h-14v-63
		c-2.9213867-0.7724609-5.5605469-1.1669922-8-1.1669922C315.8818359,417.3330078,313.8330078,419.5292969,313.8330078,427.8330078z
		"/>
	<path d="M314.1669922,578.6669922V581.5h15v11.3330078h-15V631.5H297.5v-38.6669922h-9.6669922V581.5H297.5v-2.6669922
		C297.5,564.0546875,304.0048828,557.5,324,557.5c10.3066406,0,18.9960938,1.3007812,26.1669922,3.6669922V631.5h-17.0004883v-61.25
		c-3.5473633-0.7919922-5.8530273-1.0830078-8.5-1.0830078
		C315.7919922,569.1669922,314.1669922,570.9238281,314.1669922,578.6669922z"/>
	<path d="M353,711.5v70h-20V722c-4.1738281-0.8115234-6.1455078-1-9-1c-8.2988281,0-9.5,1.3173828-9.5,8.5v2H329v13h-14.5v37H295
		v-37h-9.5v-13h9.5v-2c0-15.1591797,6.828125-22,29-22C335.8789062,707.5,345.6386719,708.9707031,353,711.5z"/>
</g>
<g>
	<path d="M535.5,289.5v42h-11v-42h-10v-8h10v-4c0-14.0185547,5.859375-20,17.5-20c3.375,0,6.2050781,0.4355469,9.5,1.5v8
		c-2.5039062-1.0263672-4.8544922-1.5-7.5-1.5c-6.0273438,0-8.5,2.6357422-8.5,11.5v4.5h20v-4c0-14.0185547,5.859375-20,21.5-20
		c7.1611328,0,13.7109375,0.9609375,20.5,3v71h-11v-64.75c-2.2949219-0.7529297-5.2685547-1.25-7.5-1.25
		c-10.0273438,0-12.5,2.6357422-12.5,11.5v4.5h16v8h-16v42h-11v-42H535.5z"/>
	<path d="M554.1660156,431.5v-3.3339844c0-14.3984375,6.1826172-20.6660156,23-20.6660156
		c8.734375,0,16.3535156,1.1308594,23.3339844,3.3330078V481.5h-13.6669922v-63
		c-2.9208984-0.7724609-5.5605469-1.1669922-8-1.1669922c-8.9511719,0-11,2.1962891-11,10.5V431.5h15v9.6660156h-15V481.5
		h-13.6669922v-40.3339844h-19V481.5H521.5v-40.3339844h-9.3339844V431.5H521.5v-3.3339844
		C521.5,413.7675781,527.4736328,407.5,539.7910156,407.5c3.8144531,0,6.78125,0.4267578,10.5419922,1.5v9.8330078
		c-2.4794922-0.9794922-5.1806641-1.5-7.6669922-1.5c-5.4511719,0-7.5,2.1972656-7.5,10.5V431.5H554.1660156z"/>
	<path d="M552.8339844,581.5v-2.6669922c0-14.7783203,6.5039062-21.3330078,24.4990234-21.3330078
		c10.3066406,0,18.9960938,1.3007812,26.1669922,3.6669922V631.5h-16.3330078v-61.25
		c-3.5478516-0.7919922-5.8535156-1.0830078-8.5-1.0830078c-7.875,0-9.5,1.7568359-9.5,9.5V581.5h13.9990234v11.3330078h-13.9990234
		V631.5h-16.3330078v-38.6669922h-18.0009766V631.5H518.5v-38.6669922h-8.6669922V581.5H518.5v-2.6669922
		C518.5,564.0546875,524.5888672,557.5,537.5839844,557.5c4.2539062,0,7.3574219,0.4189453,11.5830078,1.5v11.6669922
		c-2.4560547-0.9326172-5.5078125-1.5-7.8339844-1.5c-4.875,0-6.5,1.7587891-6.5,9.5V581.5H552.8339844z"/>
	<path d="M551.5,731.5v-2c0-15.1591797,6.828125-22,26-22c11.8789062,0,21.6386719,1.4707031,29,4v70h-19V722
		c-4.1738281-0.8115234-6.1455078-1-9-1c-6.7988281,0-8,1.3173828-8,8.5v2h13v13h-13v37h-19v-37h-17v37h-19v-37h-8v-13h8v-2
		c0-15.1591797,6.203125-22,19.875-22c4.6933594,0,7.9335938,0.4111328,12.625,1.5v13.5c-2.4326172-0.8857422-5.8339844-1.5-8-1.5
		c-4.2988281,0-5.5,1.3203125-5.5,8.5v2H551.5z"/>
</g>
<g>
	<g>
		<path d="M214.5,781.5H195v-52c0-15.1591797,6.828125-22,21-22c4.6933594,0,8.3085938,0.4111328,13,1.5v13.5
			c-2.4335938-0.8857422-5.8339844-1.5-8-1.5c-5.2988281,0-6.5,1.3173828-6.5,8.5V781.5z"/>
		<path d="M185.5,744.5c17.828125,0,33.6699219-0.3935547,47.5-1v38h20v-52c-17.1347656,1.2197266-39.828125,2-67.5,2V744.5z"/>
		<rect x="233" y="706.5" width="20" height="14"/>
	</g>
	<g>
		<path d="M214.1660156,631.5h-16.6665039v-52.6669922c0-14.7783203,6.5053711-21.3330078,19.8334961-21.3330078
			c4.2539062,0,7.6074219,0.4189453,11.8334961,1.5v11.6660156c-2.4570312-0.9326172-5.5078125-1.5-7.8334961-1.5
			c-5.5419922,0-7.1669922,1.7568359-7.1669922,9.5V631.5z"/>
		<path d="M187.8330078,592.8330078c17.1220703,0,32.265625-0.4169922,45.3334961-1.0830078v39.75h17v-52
			c-15.8222656,1.234375-36.7836914,2-62.3334961,2V592.8330078z"/>
		<rect x="233.1665039" y="556.5" width="17" height="13"/>
	</g>
	<g>
		<path d="M213.8330078,481.5H200v-53.3339844C200,413.7675781,206.1821289,407.5,218.6669922,407.5
			c3.8144531,0,6.90625,0.4277344,10.6660156,1.5v9.8330078c-2.4799805-0.9794922-5.1806641-1.5-7.6665039-1.5
			c-5.784668,0-7.8334961,2.1962891-7.8334961,10.5009766V481.5z"/>
		<path d="M190.1669922,441.1660156c16.4155273,0,30.8613281-0.4394531,43.1665039-1.1660156v41.5h13.9995117v-52
			c-14.5092773,1.25-33.7387695,2-57.1660156,2V441.1660156z"/>
		<rect x="233.3334961" y="406.5" width="13.9995117" height="12"/>
	</g>
	<g>
		<path d="M213.5,331.5h-11v-54c0-14.0185547,5.859375-20,17.5-20c3.375,0,6.2050781,0.4355469,9.5,1.5v8
			c-2.5039062-1.0263672-4.8544922-1.5-7.5-1.5c-6.0273438,0-8.5,2.6357422-8.5,11.5V331.5z"/>
		<path d="M192.5,281.5v8c15.7099609,0,29.4580078-0.4638672,41-1.25v43.25h11v-52
			C231.3027344,280.7646484,213.8056641,281.5,192.5,281.5z"/>
		<rect x="233.5" y="256.5" width="11" height="11"/>
	</g>
</g>
<g>
	<g>
		<path d="M409.5,781.5h-19v-52c0-15.1591797,6.203125-22,19.875-22c4.6933594,0,7.9335938,0.4111328,12.625,1.5v13.5
			c-2.4335938-0.8857422-5.8339844-1.5-8-1.5c-4.2988281,0-5.5,1.3203125-5.5,8.5V781.5z"/>
		<path d="M445.5,781.5h-19v-52c0-15.1611328,6.828125-22,19.5-22c4.6933594,0,8.3085938,0.4111328,13,1.5v13.5
			c-2.4335938-0.8857422-5.8339844-1.5-8-1.5c-4.2988281,0-5.5,1.3203125-5.5,8.5V781.5z"/>
		<path d="M382.5,744.5c30.0253906,0,56.7070312-0.3935547,80-1v38h19v-52c-25.1308594,1.2197266-58.4140625,2-99,2V744.5z"/>
		<rect x="462.5" y="706.5" width="19" height="14"/>
	</g>
	<g>
		<path d="M409.8330078,631.5H393.5v-52.6669922C393.5,564.0546875,399.5878906,557.5,412.5830078,557.5
			c4.2539062,0,7.3574219,0.4189453,11.5830078,1.5v11.6660156c-2.456543-0.9326172-5.5068359-1.5-7.8330078-1.5
			c-4.875,0-6.5,1.7587891-6.5,9.5V631.5z"/>
		<path d="M444.1660156,631.5h-16.3330078v-52.6669922c0-14.7802734,6.5048828-21.3330078,18.8330078-21.3330078
			c4.2539062,0,7.6074219,0.4189453,11.8339844,1.5v11.6660156c-2.4570312-0.9326172-5.5078125-1.5-7.8339844-1.5
			c-4.875,0-6.5,1.7587891-6.5,9.5V631.5z"/>
		<path d="M462.1660156,591.75v39.75H478.5v-52c-23.7763672,1.234375-55.2734375,2-93.6669922,2v11.3330078
			C414.1469727,592.8330078,439.9853516,592.4121094,462.1660156,591.75z"/>
		<rect x="462.1660156" y="556.5" width="16.3339844" height="13"/>
	</g>
	<g>
		<path d="M410.1669922,481.5H396.5v-53.3339844C396.5,413.7675781,402.4736328,407.5,414.7915039,407.5
			c3.8144531,0,6.78125,0.4277344,10.5415039,1.5v9.8330078c-2.4804688-0.9794922-5.1806641-1.5-7.6660156-1.5
			c-5.4511719,0-7.5,2.1972656-7.5,10.5009766V481.5z"/>
		<path d="M442.8330078,481.5h-13.6669922v-53.3339844c0-14.3984375,6.1826172-20.6660156,18.1679688-20.6660156
			c3.8144531,0,6.90625,0.4277344,10.6660156,1.5v9.8330078c-2.4804688-0.9794922-5.1816406-1.5-7.6669922-1.5
			c-5.4511719,0-7.5,2.1972656-7.5,10.5009766V481.5z"/>
		<path d="M461.8339844,440v41.5H475.5v-52c-22.4208984,1.25-52.1328125,2-88.3330078,2v9.6660156
			C415.769043,441.1660156,440.7646484,440.7167969,461.8339844,440z"/>
		<rect x="461.8339844" y="406.5" width="13.6660156" height="12"/>
	</g>
	<g>
		<path d="M410.5,331.5h-11v-54c0-14.0185547,5.859375-20,17.5-20c3.375,0,6.2050781,0.4355469,9.5,1.5v8
			c-2.5039062-1.0263672-4.8544922-1.5-7.5-1.5c-6.0273438,0-8.5,2.6357422-8.5,11.5V331.5z"/>
		<path d="M441.5,331.5h-11v-54c0-14.0185547,5.859375-20,17.5-20c3.375,0,6.2050781,0.4355469,9.5,1.5v8
			c-2.5039062-1.0263672-4.8544922-1.5-7.5-1.5c-6.0273438,0-8.5,2.6357422-8.5,11.5V331.5z"/>
		<path d="M461.5,288.25v43.25h11v-52c-21.0654297,1.2646484-48.9921875,2-82.9990234,2v8
			C417.390625,289.5,441.5429688,289.0224609,461.5,288.25z"/>
		<rect x="461.5" y="256.5" width="11" height="11"/>
	</g>
</g>
<path d="M101-166.5H90v-2h11v-9c0-10.7939453,3.9257812-15,14-15c2.7636719,0,5.6005859,0.5263672,8,1.5v2.1552734
	C120.6210938-189.9033203,117.78125-190.5,115-190.5c-8.9716797,0-12,3.2802734-12,13v9h27.5v-9c0-10.7939453,3.9257812-15,14-15
	c2.7636719,0,5.6005859,0.5263672,8,1.5v2.1552734c-2.3789062-1.0585938-5.21875-1.6552734-8-1.6552734
	c-8.9716797,0-12,3.2802734-12,13v9h20v2h-20v48h-2v-48H103v48h-2V-166.5z"/>
<path d="M99.6665039-14.5004883H88.9995117V-18.5h10.6669922v-7.3334961c0-11.8691406,4.5703125-16.6665039,15.1665039-16.6665039
	c2.9677734,0,5.8017578,0.4956055,8.5,1.5v4.1030273c-2.4208984-1.0478516-5.097168-1.6035156-7.8330078-1.6035156
	c-7.9907227,0-10.8334961,3.0654297-10.8334961,12.5004883v7.5h24.9995117v-7.3334961
	c0-11.8691406,4.5703125-16.6665039,15.1669922-16.6665039c2.9672852,0,5.8022461,0.4956055,8.5,1.5v4.1030273
	c-2.4204102-1.0478516-5.0976562-1.6035156-7.8334961-1.6035156c-7.9897461,0-10.8330078,3.0654297-10.8330078,12.5004883v7.5
	h18.6665039v3.9995117h-18.6665039v46h-5.0004883v-46h-24.9995117v46h-5V-14.5004883z"/>
<path d="M145.1665039,107.5c3.171875,0,6.0039062,0.4658203,9.0004883,1.5v6.0517578
	C151.7045898,114.0146484,149.190918,113.5,146.5,113.5c-7.0087891,0-9.6665039,2.8505859-9.6665039,12v6h17.3334961v6h-17.3334961
	v44h-8v-44h-22.5v44h-8v-44H88v-6h10.3334961v-5.6665039c0-12.9438477,5.2148438-18.3334961,16.3334961-18.3334961
	c3.1713867,0,6.003418,0.4658203,8.9995117,1.5v6.0517578C121.2045898,114.0146484,118.690918,113.5,116,113.5
	c-7.0087891,0-9.6665039,2.8505859-9.6665039,12v6h22.5v-5.6665039C128.8334961,112.8896484,134.0483398,107.5,145.1665039,107.5z"
	/>
<path d="M307.5-166.5h-11v-2h11v-9c0-10.375,4.3173828-15,14-15c5.0830078,0,11.6425781,0.7021484,17.5,2v72h-2v-70.3710938
	C331.8652344-189.8935547,326.1875-190.5,321.5-190.5c-8.5234375,0-12,3.765625-12,13v9H328v2h-18.5v48h-2V-166.5z"/>
<path d="M305.8330078-14.5004883h-10.6665039V-18.5h10.6665039v-7.3334961c0-11.5898438,4.831543-16.6665039,16.5-16.6665039
	c5.7758789,0,12.3320312,0.7880859,18.5,2.3330078v71.6665039h-5v-68.4975586
	c-4.1884766-0.9326172-8.9643555-1.5024414-12.8334961-1.5024414c-9.0244141,0-12.1665039,3.3891602-12.1665039,12.5004883v7.5
	H328.5v3.9995117h-17.6669922v46h-5V-14.5004883z"/>
<path d="M323.1665039,107.5c6.46875,0,13.0219727,0.8745117,19.5,2.6665039V181.5h-7.9995117v-66.6235352
	C331.4248047,114.0336914,327.550293,113.5,324.5,113.5c-9.5258789,0-12.3334961,3.0126953-12.3334961,12v6H329v6h-16.8334961v44h-8
	v-44h-10.3330078v-6h10.3330078v-5.6665039C304.1665039,113.0292969,309.512207,107.5,323.1665039,107.5z"/>
<path d="M530.5-166.5h-11v-2h11v-9c0-10.7939453,3.9257812-15,14-15c2.7636719,0,5.6005859,0.5263672,8,1.5v2.1552734
	c-2.3789062-1.0585938-5.21875-1.6552734-8-1.6552734c-8.9716797,0-12,3.2802734-12,13v9H559v-9c0-10.375,4.3173828-15,14-15
	c5.3125,0,10.8417969,0.6728516,16.5,2v72h-2v-70.3935547C582.53125-189.9560547,577.6591797-190.5,573-190.5
	c-8.5234375,0-12,3.765625-12,13v9h17.5v2H561v48h-2v-48h-26.5v48h-2V-166.5z"/>
<path d="M528.5-14.5004883h-10.6669922V-18.5H528.5v-7.3334961C528.5-37.7026367,533.0703125-42.5,543.6660156-42.5
	c2.9677734,0,5.8027344,0.4956055,8.5,1.5v4.1030273c-2.4199219-1.0478516-5.0966797-1.6035156-7.8330078-1.6035156
	C536.3427734-38.5004883,533.5-35.4350586,533.5-26v7.5h24.3330078v-7.3334961c0-11.5898438,4.8310547-16.6665039,16.5-16.6665039
	c5.9287109,0,11.7978516,0.7685547,17.8330078,2.3330078v71.6665039h-4.9990234v-68.512207
	c-4.078125-0.9594727-8.3173828-1.487793-12.1669922-1.487793c-9.0253906,0-12.1669922,3.3891602-12.1669922,12.5004883v7.5h17
	v3.9995117h-17v46h-5v-46H533.5v46h-5V-14.5004883z"/>
<path d="M594.8330078,110.1665039V181.5h-8v-66.6308594C583.6474609,114.0126953,580.0410156,113.5,577,113.5
	c-9.5263672,0-12.3330078,3.0126953-12.3330078,12v6h16.5v6h-16.5v44h-8v-44H534.5v44h-8v-44h-10.3330078v-6H526.5v-5.6665039
	C526.5,112.8896484,531.7148438,107.5,542.8330078,107.5c3.171875,0,6.0039062,0.4658203,9,1.5v6.0517578
	C549.3710938,114.0146484,546.8574219,113.5,544.1669922,113.5c-7.0087891,0-9.6669922,2.8505859-9.6669922,12v6h22.1669922
	v-5.6665039c0-12.8041992,5.3447266-18.3334961,19-18.3334961C582.2119141,107.5,588.4208984,108.3647461,594.8330078,110.1665039z"
	/>
<path d="M212.1665039,131.2714844c11.9091797-0.3100586,22.1298828-0.9238281,30.4995117-1.7714844v51.9995117h-7.9995117
	v-45.4233398c-6.7041016,0.534668-14.2583008,0.9282227-22.5,1.1650391v44.2583008h-8.0004883v-44.081543
	c-3.3510742,0.0517578-6.7890625,0.081543-10.3330078,0.081543V131.5c3.5600586,0,7.0014648-0.0244141,10.3330078-0.0703125
	v-5.5966797C204.1660156,112.8891602,209.3808594,107.5,220.5,107.5c3.1708984,0,6.003418,0.465332,8.9995117,1.5v6.0512695
	c-2.4619141-1.0366211-4.9760742-1.5517578-7.6665039-1.5517578c-7.0087891,0-9.6665039,2.8510742-9.6665039,12.0004883V131.2714844
	z"/>
<rect x="234.6665039" y="106.4995117" width="7.9995117" height="11.0004883"/>
<path d="M205.8330078-14.59375C202.3754883-14.5322266,198.8188477-14.5,195.1665039-14.5v-4
	c3.6875,0,7.2407227-0.0302734,10.6665039-0.0869141v-7.2460938C205.8330078-37.7021484,210.4033203-42.5,221-42.5
	c2.9677734,0,5.8017578,0.4960938,8.5,1.5v4.1035156C227.0791016-37.9443359,224.4023438-38.5,221.6669922-38.5
	c-7.9907227,0-10.8334961,3.0654297-10.8334961,12.5v7.3081055c11.769043-0.2973633,21.8291016-0.9296875,29.9995117-1.8081055v52
	h-5v-47.5976562c-7.3227539,0.671875-15.7460938,1.1435547-24.9995117,1.3925781V31.5h-5.0004883V-14.59375z"/>
<rect x="235.8330078" y="-43.5" width="5" height="11"/>
<path d="M207.5-166.6088867c-3.565918,0.0717773-7.237793,0.1088867-11,0.1088867v-2c3.8193359,0,7.4814453-0.0390625,11-0.109375
	V-177.5c0-10.7939453,3.9257812-15,14-15c2.7636719,0,5.6005859,0.5263672,8,1.5v2.1552734
	c-2.3789062-1.0585938-5.21875-1.6552734-8-1.6552734c-8.9716797,0-12,3.2802734-12,13v8.8476562
	c11.6333008-0.2802734,21.5317383-0.934082,29.5-1.8476562v52h-2v-49.7714844
	c-7.9125977,0.8232422-17.2382812,1.3691406-27.5,1.6171875V-118.5h-2V-166.6088867z"/>
<rect x="237" y="-193.5" width="2" height="11"/>
<path d="M439.6660156,130.8427734c11.2773438-0.3349609,21.3574219-0.7890625,30.1669922-1.3427734v51.9995117h-8v-45.4536133
	c-6.8515625,0.3237305-14.2636719,0.5986328-22.1669922,0.8198242v44.6337891h-8v-44.4321289
	c-7.0429688,0.1582031-14.4399414,0.2753906-22.1660156,0.347168v44.0849609h-8v-44.0263672
	c-3.3881836,0.0170898-6.8320312,0.0263672-10.3330078,0.0263672V131.5c3.5175781,0,6.9536133-0.0102539,10.3330078-0.027832
	v-5.6391602C401.5,112.8891602,406.7148438,107.5,417.8330078,107.5c3.1708984,0,6.0029297,0.465332,9,1.5v6.0512695
	c-2.4619141-1.0366211-4.9755859-1.5517578-7.6665039-1.5517578c-7.0087891,0-9.6665039,2.8510742-9.6665039,12.0004883v5.9140625
	c7.7949219-0.0737305,15.1835938-0.1958008,22.1660156-0.3603516v-5.2207031C431.6660156,112.8891602,436.8808594,107.5,448,107.5
	c3.1708984,0,6.0039062,0.465332,9,1.5v6.0512695c-2.4628906-1.0366211-4.9765625-1.5517578-7.6669922-1.5517578
	c-7.0087891,0-9.6669922,2.8510742-9.6669922,12.0004883V130.8427734z"/>
<rect x="461.8330078" y="106.4995117" width="8" height="11.0004883"/>
<path d="M403.5-14.5332031C400.0004883-14.5117188,396.4467773-14.5,392.8334961-14.5v-4
	c3.6347656,0,7.1870117-0.0117188,10.6665039-0.0327148v-7.300293C403.5-37.7021484,408.0703125-42.5,418.6669922-42.5
	c2.9667969,0,5.8017578,0.4960938,8.4990234,1.5v4.1035156C424.7460938-37.9443359,422.0693359-38.5,419.3334961-38.5
	C411.3427734-38.5,408.5-35.4345703,408.5-26v7.4291992c8.6274414-0.0786133,16.7412109-0.222168,24.3330078-0.4233398v-6.8388672
	C432.8330078-37.7021484,437.4033203-42.5,448-42.5c2.9677734,0,5.8017578,0.4960938,8.5,1.5v4.1035156
	C454.0791016-37.9443359,451.4023438-38.5,448.6669922-38.5c-7.9912109,0-10.8330078,3.0654297-10.8330078,12.5v6.8632812
	c10.9873047-0.3378906,20.796875-0.7998047,29.3330078-1.3632812v52h-5v-47.6582031
	c-7.4267578,0.4179688-15.578125,0.7612305-24.3330078,1.0263672V31.5h-5.0009766v-46.4916992
	c-7.6972656,0.2006836-15.8261719,0.3427734-24.3330078,0.4204102V31.5h-5V-14.5332031z"/>
<rect x="462.1669922" y="-43.5" width="5" height="11"/>
<path d="M405.5-166.5410156c-3.6113281,0.0263672-7.2753906,0.0410156-11,0.0410156v-2
	c3.7558594,0,7.4199219-0.0136719,11-0.0395508V-177.5c0-10.7939453,3.9257812-15,14-15c2.7636719,0,5.6005859,0.5263672,8,1.5
	v2.1552734c-2.3789062-1.0585938-5.21875-1.6552734-8-1.6552734c-8.9716797,0-12,3.2802734-12,13v8.9433594
	c9.4765625-0.0805664,18.3271484-0.2480469,26.5-0.4926758V-177.5c0-10.7939453,3.9257812-15,14-15
	c2.7636719,0,5.6005859,0.5263672,8,1.5v2.1552734C453.6210938-189.9033203,450.78125-190.5,448-190.5
	c-8.9716797,0-12,3.2802734-12,13v8.387207c10.7011719-0.3408203,20.2363281-0.8120117,28.5-1.387207v52h-2v-49.8623047
	c-7.9804688,0.5249023-16.8779297,0.9423828-26.5,1.2485352V-118.5h-2v-48.5532227
	c-8.3466797,0.2495117-17.2163086,0.4165039-26.5,0.496582V-118.5h-2V-166.5410156z"/>
<rect x="462.5" y="-193.5" width="2" height="11"/>
<path d="M982.5-168.5h20v2h-20v48h-2v-48H953v48h-2v-48h-11v-2h11v-9c0-10.7939453,3.9257812-15,14-15
	c2.7636719,0,5.6005859,0.5263672,8,1.5v2.1552734C970.6210938-189.9033203,967.78125-190.5,965-190.5
	c-8.9716797,0-12,3.2802734-12,13v9h27.5v-9c0-10.7939453,3.9257812-15,14-15c2.7636719,0,5.6005859,0.5263672,8,1.5v2.1552734
	c-2.3789062-1.0585938-5.21875-1.6552734-8-1.6552734c-8.9716797,0-12,3.2802734-12,13V-168.5z"/>
<path d="M954.6660156-14.5004883v46h-5v-46H939V-18.5h10.6660156v-7.3334961
	c0-11.8691406,4.5703125-16.6665039,15.1669922-16.6665039c2.9677734,0,5.8017578,0.4956055,8.5,1.5v4.1030273
	c-2.4208984-1.0473633-5.0976562-1.6035156-7.8330078-1.6035156c-7.9902344,0-10.8339844,3.065918-10.8339844,12.5004883v7.5h25
	v-7.3334961c0-11.8691406,4.5703125-16.6665039,15.1669922-16.6665039c2.9677734,0,5.8017578,0.4956055,8.5,1.5v4.1030273
	c-2.4208984-1.0473633-5.0966797-1.6035156-7.8330078-1.6035156c-7.9902344,0-10.8339844,3.065918-10.8339844,12.5004883v7.5
	h18.6669922v3.9995117h-18.6669922v46h-5v-46H954.6660156z"/>
<path d="M956.3339844,137.5v44h-8.0009766v-44H938v-6h10.3330078v-5.6669922
	c0-12.9433594,5.2148438-18.3330078,16.3330078-18.3330078c3.171875,0,6.0039062,0.4658203,9.0009766,1.5v6.0517578
	C971.2041016,114.0146484,968.6904297,113.5,966,113.5c-7.0087891,0-9.6660156,2.8505859-9.6660156,12v6h22.4990234v-5.6669922
	c0-12.9433594,5.2148438-18.3330078,16.3339844-18.3330078c3.1708984,0,6.0029297,0.4658203,8.9990234,1.5v6.0517578
	C1001.7050781,114.0146484,999.1904297,113.5,996.5,113.5c-7.0087891,0-9.6669922,2.8505859-9.6669922,12v6h17.3330078v6
	h-17.3330078v44h-8v-44H956.3339844z"/>
<path d="M958,289.5v42h-11v-42h-10v-8h10v-4c0-14.0185547,5.859375-20,17.5-20c3.375,0,6.2050781,0.4355469,9.5,1.5v8
	c-2.5039062-1.0263672-4.8544922-1.5-7.5-1.5c-6.0273438,0-8.5,2.6357422-8.5,11.5v4.5h20v-4c0-14.0185547,5.859375-20,17.5-20
	c3.375,0,6.2050781,0.4355469,9.5,1.5v8c-2.5039062-1.0263672-4.8544922-1.5-7.5-1.5c-6.0273438,0-8.5,2.6357422-8.5,11.5v4.5h16v8
	h-16v42h-11v-42H958z"/>
<path d="M1189-190.5v72h-2v-70.3710938c-5.1347656-1.0224609-10.8125-1.6289062-15.5-1.6289062c-8.5234375,0-12,3.765625-12,13v9
	h18.5v2h-18.5v48h-2v-48h-11v-2h11v-9c0-10.375,4.3173828-15,14-15C1176.5830078-192.5,1183.1425781-191.7978516,1189-190.5z"/>
<path d="M1160.8330078-26v7.5H1178.5v3.9995117h-17.6669922v46h-5v-46h-10.6669922V-18.5h10.6669922v-7.3334961
	c0-11.5898438,4.8310547-16.6665039,16.5-16.6665039c5.7753906,0,12.3320312,0.7880859,18.5,2.3330078v71.6665039h-5v-68.4975586
	c-4.1884766-0.9326172-8.9648438-1.5024414-12.8330078-1.5024414C1163.9746094-38.5004883,1160.8330078-35.1113281,1160.8330078-26z
	"/>
<path d="M1162.1669922,125.5v6H1179v6h-16.8330078v44h-8v-44h-10.3330078v-6h10.3330078v-5.6669922
	c0-12.8037109,5.3447266-18.3330078,19-18.3330078c6.4677734,0,13.0214844,0.875,19.5,2.6669922V181.5h-8.0009766v-66.6240234
	C1181.4248047,114.0332031,1177.5498047,113.5,1174.5,113.5C1164.9746094,113.5,1162.1669922,116.5126953,1162.1669922,125.5z"/>
<path d="M1163.5,277v4.5h16v8h-16v42h-11v-42h-10v-8h10v-4c0-14.0185547,5.859375-20,21.5-20
	c7.1611328,0,13.7109375,0.9609375,20.5,3v71h-11v-64.75c-2.2949219-0.7529297-5.2685547-1.25-7.5-1.25
	C1165.9726562,265.5,1163.5,268.1357422,1163.5,277z"/>
<path d="M1394.5-192.5c2.7636719,0,5.6005859,0.5263672,8,1.5v2.1552734c-2.3789062-1.0585938-5.21875-1.6552734-8-1.6552734
	c-8.9716797,0-12,3.2802734-12,13v9h26.5v-9c0-10.375,4.3173828-15,14-15c5.3125,0,10.8417969,0.6728516,16.5,2v72h-2v-70.3935547
	c-4.96875-1.0625-9.8408203-1.6064453-14.5-1.6064453c-8.5234375,0-12,3.765625-12,13v9h17.5v2H1411v48h-2v-48h-26.5v48h-2v-48h-11
	v-2h11v-9C1380.5-188.2939453,1384.4257812-192.5,1394.5-192.5z"/>
<path d="M1393.6660156-42.5c2.9677734,0,5.8027344,0.4956055,8.5,1.5v4.1030273
	c-2.4199219-1.0473633-5.0966797-1.6035156-7.8330078-1.6035156C1386.3427734-38.5004883,1383.5-35.4345703,1383.5-26v7.5
	h24.3330078v-7.3334961c0-11.5898438,4.8310547-16.6665039,16.5-16.6665039c5.9287109,0,11.7978516,0.7685547,17.8330078,2.3330078
	v71.6665039h-5v-68.512207c-4.0771484-0.9589844-8.3164062-1.487793-12.1660156-1.487793
	c-9.0253906,0-12.1669922,3.3891602-12.1669922,12.5004883v7.5h17v3.9995117h-17v46h-5v-46H1383.5v46h-5v-46h-10.6669922V-18.5
	H1378.5v-7.3334961C1378.5-37.7026367,1383.0703125-42.5,1393.6660156-42.5z"/>
<path d="M1392.8330078,107.5c3.1708984,0,6.0039062,0.4658203,9,1.5v6.0517578
	c-2.4619141-1.0371094-4.9755859-1.5517578-7.6660156-1.5517578c-7.0087891,0-9.6669922,2.8505859-9.6669922,12v6h22.1660156
	v-5.6669922c0-12.8037109,5.3457031-18.3330078,19.0009766-18.3330078c6.5439453,0,12.7539062,0.8652344,19.1660156,2.6669922V181.5
	h-7.9990234v-66.6308594C1433.6464844,114.0126953,1430.0410156,113.5,1427,113.5c-9.5263672,0-12.3330078,3.0126953-12.3330078,12
	v6h16.4990234v6h-16.4990234v44h-8.0009766v-44H1384.5v44h-8v-44h-10.3330078v-6H1376.5v-5.6669922
	C1376.5,112.8896484,1381.7148438,107.5,1392.8330078,107.5z"/>
<path d="M1385.5,289.5v42h-11v-42h-10v-8h10v-4c0-14.0185547,5.859375-20,17.5-20c3.375,0,6.2050781,0.4355469,9.5,1.5v8
	c-2.5039062-1.0263672-4.8544922-1.5-7.5-1.5c-6.0273438,0-8.5,2.6357422-8.5,11.5v4.5h20v-4c0-14.0185547,5.859375-20,21.5-20
	c7.1611328,0,13.7109375,0.9609375,20.5,3v71h-11v-64.75c-2.2949219-0.7529297-5.2685547-1.25-7.5-1.25
	c-10.0273438,0-12.5,2.6357422-12.5,11.5v4.5h16v8h-16v42h-11v-42H1385.5z"/>
<g>
	<path d="M1063.5,331.5h-11v-54c0-14.0185547,5.859375-20,17.5-20c3.375,0,6.2050781,0.4355469,9.5,1.5v8
		c-2.5039062-1.0263672-4.8544922-1.5-7.5-1.5c-6.0273438,0-8.5,2.6357422-8.5,11.5V331.5z"/>
	<path d="M1042.5,281.5v8c15.7099609,0,29.4580078-0.4638672,41-1.25v43.25h11v-52
		C1081.3027344,280.7646484,1063.8056641,281.5,1042.5,281.5z"/>
	<rect x="1083.5" y="256.5" width="11" height="11"/>
</g>
<g>
	<path d="M1062.1660156,181.4995117h-8v-55.6665039c0-12.9438477,5.2148438-18.3330078,16.3339844-18.3330078
		c3.1708984,0,6.0039062,0.465332,9,1.5v6.0512695c-2.4628906-1.0366211-4.9765625-1.5517578-7.6669922-1.5517578
		c-7.0087891,0-9.6669922,2.8510742-9.6669922,12.0004883V181.4995117z"/>
	<path d="M1043.8330078,131.5v5.9995117c15.6142578,0,29.4248047-0.5131836,40.8330078-1.4233398v45.4233398h8V129.5
		C1080.2714844,130.7553711,1063.8339844,131.5,1043.8330078,131.5z"/>
	<rect x="1084.6660156" y="106.4995117" width="8" height="11.0004883"/>
</g>
<g>
	<path d="M1060.8330078,31.5h-5v-57.3330078C1055.8330078-37.7021484,1060.4033203-42.5,1071-42.5
		c2.9667969,0,5.8027344,0.4960938,8.5,1.5v4.1035156C1077.0800781-37.9443359,1074.4023438-38.5,1071.6669922-38.5
		c-7.9902344,0-10.8339844,3.0654297-10.8339844,12.5V31.5z"/>
	<path d="M1045.1669922-18.5v4c15.5185547,0,29.390625-0.5629883,40.6669922-1.5976562V31.5h4.9990234v-52
		C1079.2402344-19.2539062,1063.8623047-18.5,1045.1669922-18.5z"/>
	<rect x="1085.8339844" y="-43.5" width="4.9990234" height="11"/>
</g>
<g>
	<path d="M1059.5-118.5h-2v-59c0-10.7939453,3.9257812-15,14-15c2.7636719,0,5.6005859,0.5263672,8,1.5v2.1552734
		c-2.3789062-1.0585938-5.21875-1.6552734-8-1.6552734c-8.9716797,0-12,3.2802734-12,13V-118.5z"/>
	<path d="M1046.5-168.5v2c15.4228516,0,29.3574219-0.6123047,40.5-1.7714844V-118.5h2v-52
		C1078.2099609-169.2626953,1063.890625-168.5,1046.5-168.5z"/>
	<rect x="1087" y="-193.5" width="2" height="11"/>
</g>
<g>
	<path d="M1260.5,331.5h-11v-54c0-14.0185547,5.859375-20,17.5-20c3.375,0,6.2050781,0.4355469,9.5,1.5v8
		c-2.5039062-1.0263672-4.8544922-1.5-7.5-1.5c-6.0273438,0-8.5,2.6357422-8.5,11.5V331.5z"/>
	<path d="M1291.5,331.5h-11v-54c0-14.0185547,5.859375-20,17.5-20c3.375,0,6.2050781,0.4355469,9.5,1.5v8
		c-2.5039062-1.0263672-4.8544922-1.5-7.5-1.5c-6.0273438,0-8.5,2.6357422-8.5,11.5V331.5z"/>
	<path d="M1311.5,288.25v43.25h11v-52c-21.0654297,1.2646484-48.9921875,2-82.9990234,2v8
		C1267.390625,289.5,1291.5429688,289.0224609,1311.5,288.25z"/>
	<rect x="1311.5" y="256.5" width="11" height="11"/>
</g>
<g>
	<path d="M1259.5,181.4995117h-8v-55.6665039c0-12.9438477,5.2148438-18.3330078,16.3330078-18.3330078
		c3.1708984,0,6.0039062,0.465332,9,1.5v6.0512695c-2.4619141-1.0366211-4.9755859-1.5517578-7.6669922-1.5517578
		c-7.0078125,0-9.6660156,2.8510742-9.6660156,12.0004883V181.4995117z"/>
	<path d="M1289.6660156,181.4995117h-8v-55.6665039C1281.6660156,112.8891602,1286.8808594,107.5,1298,107.5
		c3.1708984,0,6.0039062,0.465332,9,1.5v6.0512695c-2.4628906-1.0366211-4.9765625-1.5517578-7.6669922-1.5517578
		c-7.0087891,0-9.6669922,2.8510742-9.6669922,12.0004883V181.4995117z"/>
	<path d="M1311.8330078,136.0458984v45.4536133h8V129.5c-19.9677734,1.2553711-46.4462891,2-78.6660156,2v5.9995117
		C1268.4404297,137.4995117,1292.3554688,136.9663086,1311.8330078,136.0458984z"/>
	<rect x="1311.8330078" y="106.4995117" width="8" height="11.0004883"/>
</g>
<g>
	<path d="M1258.5,31.5h-5v-57.3330078C1253.5-37.7021484,1258.0703125-42.5,1268.6669922-42.5
		c2.9667969,0,5.8017578,0.4960938,8.5,1.5v4.1035156C1274.7460938-37.9443359,1272.0693359-38.5,1269.3330078-38.5
		C1261.34375-38.5,1258.5-35.4345703,1258.5-26V31.5z"/>
	<path d="M1287.8330078,31.5h-5v-57.3330078C1282.8330078-37.7021484,1287.4033203-42.5,1298-42.5
		c2.9667969,0,5.8027344,0.4960938,8.5,1.5v4.1035156C1304.0800781-37.9443359,1301.4023438-38.5,1298.6669922-38.5
		c-7.9902344,0-10.8339844,3.0654297-10.8339844,12.5V31.5z"/>
	<path d="M1312.1660156-16.1582031V31.5h5.0009766v-52c-18.8701172,1.2460938-43.9013672,2-74.3330078,2v4
		C1269.4902344-14.5,1293.1679688-15.0888672,1312.1660156-16.1582031z"/>
	<rect x="1312.1660156" y="-43.5" width="5.0009766" height="11"/>
</g>
<g>
	<path d="M1257.5-118.5h-2v-59c0-10.7939453,3.9257812-15,14-15c2.7636719,0,5.6005859,0.5263672,8,1.5v2.1552734
		c-2.3789062-1.0585938-5.21875-1.6552734-8-1.6552734c-8.9716797,0-12,3.2802734-12,13V-118.5z"/>
	<path d="M1286-118.5h-2v-59c0-10.7939453,3.9257812-15,14-15c2.7636719,0,5.6005859,0.5263672,8,1.5v2.1552734
		c-2.3789062-1.0585938-5.21875-1.6552734-8-1.6552734c-8.9716797,0-12,3.2802734-12,13V-118.5z"/>
	<path d="M1244.5-168.5v2c26.0410156,0,49.4804688-0.6445312,68-1.8623047V-118.5h2v-52
		C1296.7285156-169.2626953,1273.1445312-168.5,1244.5-168.5z"/>
	<rect x="1312.5" y="-193.5" width="2" height="11"/>
</g>
</svg>
