<?xml version="1.0" encoding="utf-8"?>
<!-- Generator: Adobe Illustrator 15.0.2, SVG Export Plug-In . SVG Version: 6.00 Build 0)  -->
<!DOCTYPE svg PUBLIC "-//W3C//DTD SVG 1.1//EN" "http://www.w3.org/Graphics/SVG/1.1/DTD/svg11.dtd">
<svg version="1.1" id="レイヤー1" xmlns="http://www.w3.org/2000/svg" xmlns:xlink="http://www.w3.org/1999/xlink" x="0px"
	 y="0px" width="841.8896484px" height="595.2753906px" viewBox="0 0 841.8896484 595.2753906"
	 enable-background="new 0 0 841.8896484 595.2753906" xml:space="preserve">
<g>
	<rect x="71.5" y="-226.5" fill="none" stroke="#000000" stroke-width="0.25" width="100" height="150"/>
	<rect x="171.5" y="-226.5" fill="none" stroke="#000000" stroke-width="0.25" width="100" height="150"/>
	<rect x="271.5" y="-226.5" fill="none" stroke="#000000" stroke-width="0.25" width="100" height="150"/>
	<rect x="371.5" y="-226.5" fill="none" stroke="#000000" stroke-width="0.25" width="125" height="150"/>
	<rect x="496.5" y="-226.5" fill="none" stroke="#000000" stroke-width="0.25" width="125" height="150"/>
	<rect x="621.5" y="-226.5" fill="none" stroke="#000000" stroke-width="0.25" width="100" height="150"/>
	<rect x="721.5" y="-226.5" fill="none" stroke="#000000" stroke-width="0.25" width="100" height="150"/>
	<rect x="71.5" y="-76.5" fill="none" stroke="#000000" stroke-width="0.25" width="100" height="150"/>
	<rect x="171.5" y="-76.5" fill="none" stroke="#000000" stroke-width="0.25" width="100" height="150"/>
	<rect x="271.5" y="-76.5" fill="none" stroke="#000000" stroke-width="0.25" width="100" height="150"/>
	<rect x="371.5" y="-76.5" fill="none" stroke="#000000" stroke-width="0.25" width="125" height="150"/>
	<rect x="496.5" y="-76.5" fill="none" stroke="#000000" stroke-width="0.25" width="125" height="150"/>
	<rect x="621.5" y="-76.5" fill="none" stroke="#000000" stroke-width="0.25" width="100" height="150"/>
	<rect x="721.5" y="-76.5" fill="none" stroke="#000000" stroke-width="0.25" width="100" height="150"/>
	<rect x="71.5" y="73.5" fill="none" stroke="#000000" stroke-width="0.25" width="100" height="150"/>
	<rect x="171.5" y="73.5" fill="none" stroke="#000000" stroke-width="0.25" width="100" height="150"/>
	<rect x="271.5" y="73.5" fill="none" stroke="#000000" stroke-width="0.25" width="100" height="150"/>
	<rect x="371.5" y="73.5" fill="none" stroke="#000000" stroke-width="0.25" width="125" height="150"/>
	<rect x="496.5" y="73.5" fill="none" stroke="#000000" stroke-width="0.25" width="125" height="150"/>
	<rect x="621.5" y="73.5" fill="none" stroke="#000000" stroke-width="0.25" width="100" height="150"/>
	<rect x="721.5" y="73.5" fill="none" stroke="#000000" stroke-width="0.25" width="100" height="150"/>
	<rect x="71.5" y="223.5" fill="none" stroke="#000000" stroke-width="0.25" width="100" height="150"/>
	<rect x="171.5" y="223.5" fill="none" stroke="#000000" stroke-width="0.25" width="100" height="150"/>
	<rect x="271.5" y="223.5" fill="none" stroke="#000000" stroke-width="0.25" width="100" height="150"/>
	<rect x="371.5" y="223.5" fill="none" stroke="#000000" stroke-width="0.25" width="125" height="150"/>
	<rect x="496.5" y="223.5" fill="none" stroke="#000000" stroke-width="0.25" width="125" height="150"/>
	<rect x="621.5" y="223.5" fill="none" stroke="#000000" stroke-width="0.25" width="100" height="150"/>
	<rect x="721.5" y="223.5" fill="none" stroke="#000000" stroke-width="0.25" width="100" height="150"/>
	<rect x="71.5" y="373.5" fill="none" stroke="#000000" stroke-width="0.25" width="100" height="150"/>
	<rect x="171.5" y="373.5" fill="none" stroke="#000000" stroke-width="0.25" width="100" height="150"/>
	<rect x="271.5" y="373.5" fill="none" stroke="#000000" stroke-width="0.25" width="100" height="150"/>
	<rect x="371.5" y="373.5" fill="none" stroke="#000000" stroke-width="0.25" width="125" height="150"/>
	<rect x="496.5" y="373.5" fill="none" stroke="#000000" stroke-width="0.25" width="125" height="150"/>
	<rect x="621.5" y="373.5" fill="none" stroke="#000000" stroke-width="0.25" width="100" height="150"/>
	<rect x="721.5" y="373.5" fill="none" stroke="#000000" stroke-width="0.25" width="100" height="150"/>
	<rect x="71.5" y="523.5" fill="none" stroke="#000000" stroke-width="0.25" width="100" height="150"/>
	<rect x="171.5" y="523.5" fill="none" stroke="#000000" stroke-width="0.25" width="100" height="150"/>
	<rect x="271.5" y="523.5" fill="none" stroke="#000000" stroke-width="0.25" width="100" height="150"/>
	<rect x="371.5" y="523.5" fill="none" stroke="#000000" stroke-width="0.25" width="125" height="150"/>
	<rect x="496.5" y="523.5" fill="none" stroke="#000000" stroke-width="0.25" width="125" height="150"/>
	<rect x="621.5" y="523.5" fill="none" stroke="#000000" stroke-width="0.25" width="100" height="150"/>
	<rect x="721.5" y="523.5" fill="none" stroke="#000000" stroke-width="0.25" width="100" height="150"/>
	<rect x="71.5" y="673.5" fill="none" stroke="#000000" stroke-width="0.25" width="100" height="150"/>
	<rect x="171.5" y="673.5" fill="none" stroke="#000000" stroke-width="0.25" width="100" height="150"/>
	<rect x="271.5" y="673.5" fill="none" stroke="#000000" stroke-width="0.25" width="100" height="150"/>
	<rect x="371.5" y="673.5" fill="none" stroke="#000000" stroke-width="0.25" width="125" height="150"/>
	<rect x="496.5" y="673.5" fill="none" stroke="#000000" stroke-width="0.25" width="125" height="150"/>
	<rect x="621.5" y="673.5" fill="none" stroke="#000000" stroke-width="0.25" width="100" height="150"/>
	<rect x="721.5" y="673.5" fill="none" stroke="#000000" stroke-width="0.25" width="100" height="150"/>
	<rect x="821.5" y="-226.5" fill="none" stroke="#000000" stroke-width="0.25" width="100" height="150"/>
	<rect x="821.5" y="-76.5" fill="none" stroke="#000000" stroke-width="0.25" width="100" height="150"/>
	<rect x="821.5" y="73.5" fill="none" stroke="#000000" stroke-width="0.25" width="100" height="150"/>
	<rect x="821.5" y="223.5" fill="none" stroke="#000000" stroke-width="0.25" width="100" height="150"/>
	<rect x="821.5" y="373.5" fill="none" stroke="#000000" stroke-width="0.25" width="100" height="150"/>
	<rect x="821.5" y="523.5" fill="none" stroke="#000000" stroke-width="0.25" width="100" height="150"/>
	<rect x="821.5" y="673.5" fill="none" stroke="#000000" stroke-width="0.25" width="100" height="150"/>
</g>
<g>
	<path d="M132.5-168.5h20v2h-20v48h-2v-48H103v48h-2v-48H90v-2h11v-9c0-10.7939453,3.9257812-15,14-15
		c2.7636719,0,5.6005859,0.5263672,8,1.5v2.1552734C120.6210938-189.9033203,117.78125-190.5,115-190.5
		c-8.9716797,0-12,3.2802734-12,13v9h27.5v-9c0-10.7939453,3.9257812-15,14-15c2.7636719,0,5.6005859,0.5263672,8,1.5v2.1552734
		c-2.3789062-1.0585938-5.21875-1.6552734-8-1.6552734c-8.9716797,0-12,3.2802734-12,13V-168.5z"/>
	<path d="M104.6665039-14.5004883v46h-5v-46H88.9995117V-18.5h10.6669922v-7.3334961
		c0-11.8691406,4.5703125-16.6665039,15.1665039-16.6665039c2.9677734,0,5.8017578,0.4956055,8.5,1.5v4.1030273
		c-2.4208984-1.0478516-5.097168-1.6035156-7.8330078-1.6035156c-7.9907227,0-10.8334961,3.0654297-10.8334961,12.5004883v7.5
		h24.9995117v-7.3334961c0-11.8691406,4.5703125-16.6665039,15.1669922-16.6665039c2.9672852,0,5.8022461,0.4956055,8.5,1.5
		v4.1030273c-2.4204102-1.0478516-5.0976562-1.6035156-7.8334961-1.6035156
		c-7.9897461,0-10.8330078,3.0654297-10.8330078,12.5004883v7.5h18.6665039v3.9995117h-18.6665039v46h-5.0004883v-46H104.6665039z"
		/>
	<path d="M106.3334961,137.5v44h-8v-44H88v-6h10.3334961v-5.6665039c0-12.9438477,5.2148438-18.3334961,16.3334961-18.3334961
		c3.1713867,0,6.003418,0.4658203,8.9995117,1.5v6.0517578C121.2045898,114.0146484,118.690918,113.5,116,113.5
		c-7.0087891,0-9.6665039,2.8505859-9.6665039,12v6h22.5v-5.6665039c0-12.9438477,5.2148438-18.3334961,16.3330078-18.3334961
		c3.171875,0,6.0039062,0.4658203,9.0004883,1.5v6.0517578C151.7045898,114.0146484,149.190918,113.5,146.5,113.5
		c-7.0087891,0-9.6665039,2.8505859-9.6665039,12v6h17.3334961v6h-17.3334961v44h-8v-44H106.3334961z"/>
	<path d="M108,289.5v42H97v-42H87v-8h10v-4c0-14.0185547,5.859375-20,17.5-20c3.3754883,0,6.2050781,0.4355469,9.5,1.5v8
		c-2.5039062-1.0263672-4.8544922-1.5-7.5-1.5c-6.0273438,0-8.5,2.6357422-8.5,11.5v4.5h20v-4c0-14.0185547,5.859375-20,17.5-20
		c3.3754883,0,6.2050781,0.4355469,9.5,1.5v8c-2.5039062-1.0263672-4.8544922-1.5-7.5-1.5c-6.0273438,0-8.5,2.6357422-8.5,11.5v4.5
		h16v8h-16v42h-11v-42H108z"/>
	<path d="M128.1665039,431.5v-3.3339844c0-14.3994141,6.1821289-20.6660156,18.6665039-20.6660156
		c3.8149414,0,6.90625,0.4267578,10.6665039,1.5v9.8330078c-2.4799805-0.9794922-5.1811523-1.5-7.6665039-1.5
		c-5.7841797,0-7.8330078,2.1972656-7.8330078,10.5V431.5h15.4995117v9.6660156H142V481.5h-13.8334961v-40.3339844h-19.5004883
		V481.5H94.8330078v-40.3339844h-9.8334961V431.5h9.8334961v-3.3339844c0-14.3984375,5.9741211-20.6660156,18.7915039-20.6660156
		c3.8149414,0,6.78125,0.4267578,10.5419922,1.5v9.8330078c-2.4804688-0.9794922-5.1811523-1.5-7.6665039-1.5
		c-5.7851562,0-7.8339844,2.1972656-7.8339844,10.5V431.5H128.1665039z"/>
	<path d="M128.3334961,581.5v-2.6669922c0-14.7802734,6.5048828-21.3330078,19.8330078-21.3330078
		c4.2543945,0,7.6074219,0.4189453,11.8334961,1.5v11.6669922c-2.456543-0.9326172-5.5078125-1.5-7.8334961-1.5
		c-5.5415039,0-7.1665039,1.7587891-7.1665039,9.5V581.5h15v11.3330078h-15V631.5h-16.6665039v-38.6669922h-19V631.5H92.6669922
		v-38.6669922H83V581.5h9.6669922v-2.6669922C92.6669922,564.0546875,98.7553711,557.5,112.75,557.5
		c4.2543945,0,7.3574219,0.4189453,11.5834961,1.5v11.6669922c-2.456543-0.9326172-5.5078125-1.5-7.8334961-1.5
		c-5.5415039,0-7.1665039,1.7587891-7.1665039,9.5V581.5H128.3334961z"/>
	<path d="M128.5,731.5v-2c0-15.1611328,6.828125-22,21-22c4.6933594,0,8.3085938,0.4111328,13,1.5v13.5
		c-2.4326172-0.8857422-5.8344727-1.5-8-1.5c-5.2988281,0-6.5,1.3203125-6.5,8.5v2h14.5v13H148v37h-19.5v-37H110v37H90.5v-37H81v-13
		h9.5v-2c0-15.1591797,6.203125-22,21.375-22c4.6933594,0,7.9335938,0.4111328,12.625,1.5v13.5
		c-2.4326172-0.8857422-5.8344727-1.5-8-1.5c-5.2988281,0-6.5,1.3203125-6.5,8.5v2H128.5z"/>
</g>
<g>
	<path d="M339-190.5v72h-2v-70.3710938C331.8652344-189.8935547,326.1875-190.5,321.5-190.5c-8.5234375,0-12,3.765625-12,13v9H328v2
		h-18.5v48h-2v-48h-11v-2h11v-9c0-10.375,4.3173828-15,14-15C326.5830078-192.5,333.1425781-191.7978516,339-190.5z"/>
	<path d="M310.8330078-26v7.5H328.5v3.9995117h-17.6669922v46h-5v-46h-10.6665039V-18.5h10.6665039v-7.3334961
		c0-11.5898438,4.831543-16.6665039,16.5-16.6665039c5.7758789,0,12.3320312,0.7880859,18.5,2.3330078v71.6665039h-5v-68.4975586
		c-4.1884766-0.9326172-8.9643555-1.5024414-12.8334961-1.5024414C313.9750977-38.5004883,310.8330078-35.1113281,310.8330078-26z"
		/>
	<path d="M312.1665039,125.5v6H329v6h-16.8334961v44h-8v-44h-10.3330078v-6h10.3330078v-5.6665039
		c0-12.8041992,5.3457031-18.3334961,19-18.3334961c6.46875,0,13.0219727,0.8745117,19.5,2.6665039V181.5h-7.9995117v-66.6235352
		C331.4248047,114.0336914,327.550293,113.5,324.5,113.5C314.9741211,113.5,312.1665039,116.5126953,312.1665039,125.5z"/>
	<path d="M313.5,277v4.5h16v8h-16v42h-11v-42h-10v-8h10v-4c0-14.0185547,5.859375-20,21.5-20
		c7.1611328,0,13.7114258,0.9609375,20.5,3v71h-11v-64.75c-2.2954102-0.7529297-5.2685547-1.25-7.5-1.25
		C315.9726562,265.5,313.5,268.1357422,313.5,277z"/>
	<path d="M313.8330078,427.8330078V431.5h15.5v9.6660156h-15.5V481.5H300v-40.3339844h-9.8339844V431.5H300v-3.3339844
		C300,413.7675781,306.1821289,407.5,323.9995117,407.5c8.7338867,0,16.3540039,1.1308594,23.3334961,3.3330078V481.5h-14v-63
		c-2.9213867-0.7724609-5.5605469-1.1669922-8-1.1669922C315.8818359,417.3330078,313.8330078,419.5292969,313.8330078,427.8330078z
		"/>
	<path d="M314.1665039,578.6669922V581.5h15.0004883v11.3330078h-15.0004883V631.5H297.5v-38.6669922h-9.6665039V581.5H297.5
		v-2.6669922C297.5,564.0546875,304.0053711,557.5,324,557.5c10.3066406,0,18.9960938,1.3007812,26.1669922,3.6669922V631.5
		h-17.0004883v-61.25c-3.5473633-0.7919922-5.8530273-1.0830078-8.5-1.0830078
		C315.7915039,569.1669922,314.1665039,570.9238281,314.1665039,578.6669922z"/>
	<path d="M353,711.5v70h-20V722c-4.1738281-0.8115234-6.1455078-1-9-1c-8.2988281,0-9.5,1.3173828-9.5,8.5v2H329v13h-14.5v37H295
		v-37h-9.5v-13h9.5v-2c0-15.1591797,6.828125-22,29-22C335.8789062,707.5,345.6386719,708.9707031,353,711.5z"/>
</g>
<g>
	<path d="M544.5-192.5c2.7636719,0,5.6005859,0.5263672,8,1.5v2.1552734c-2.3789062-1.0585938-5.21875-1.6552734-8-1.6552734
		c-8.9716797,0-12,3.2802734-12,13v9H559v-9c0-10.375,4.3173828-15,14-15c5.3125,0,10.8417969,0.6728516,16.5,2v72h-2v-70.3935547
		C582.53125-189.9560547,577.6591797-190.5,573-190.5c-8.5234375,0-12,3.765625-12,13v9h17.5v2H561v48h-2v-48h-26.5v48h-2v-48h-11
		v-2h11v-9C530.5-188.2939453,534.4257812-192.5,544.5-192.5z"/>
	<path d="M543.6660156-42.5c2.9677734,0,5.8027344,0.4956055,8.5,1.5v4.1030273
		c-2.4199219-1.0478516-5.0966797-1.6035156-7.8330078-1.6035156C536.3427734-38.5004883,533.5-35.4350586,533.5-26v7.5h24.3330078
		v-7.3334961c0-11.5898438,4.8310547-16.6665039,16.5-16.6665039c5.9287109,0,11.7978516,0.7685547,17.8330078,2.3330078v71.6665039
		h-4.9990234v-68.512207c-4.078125-0.9594727-8.3173828-1.487793-12.1669922-1.487793
		c-9.0253906,0-12.1669922,3.3891602-12.1669922,12.5004883v7.5h17v3.9995117h-17v46h-5v-46H533.5v46h-5v-46h-10.6669922V-18.5
		H528.5v-7.3334961C528.5-37.7026367,533.0703125-42.5,543.6660156-42.5z"/>
	<path d="M542.8330078,107.5c3.171875,0,6.0039062,0.4658203,9,1.5v6.0517578
		C549.3710938,114.0146484,546.8574219,113.5,544.1669922,113.5c-7.0087891,0-9.6669922,2.8505859-9.6669922,12v6h22.1669922
		v-5.6665039c0-12.8041992,5.3447266-18.3334961,19-18.3334961c6.5449219,0,12.7539062,0.8647461,19.1660156,2.6665039V181.5h-8
		v-66.6308594C583.6474609,114.0126953,580.0410156,113.5,577,113.5c-9.5263672,0-12.3330078,3.0126953-12.3330078,12v6h16.5v6
		h-16.5v44h-8v-44H534.5v44h-8v-44h-10.3330078v-6H526.5v-5.6665039C526.5,112.8896484,531.7148438,107.5,542.8330078,107.5z"/>
	<path d="M535.5,289.5v42h-11v-42h-10v-8h10v-4c0-14.0185547,5.859375-20,17.5-20c3.375,0,6.2050781,0.4355469,9.5,1.5v8
		c-2.5039062-1.0263672-4.8544922-1.5-7.5-1.5c-6.0273438,0-8.5,2.6357422-8.5,11.5v4.5h20v-4c0-14.0185547,5.859375-20,21.5-20
		c7.1611328,0,13.7109375,0.9609375,20.5,3v71h-11v-64.75c-2.2949219-0.7529297-5.2685547-1.25-7.5-1.25
		c-10.0273438,0-12.5,2.6357422-12.5,11.5v4.5h16v8h-16v42h-11v-42H535.5z"/>
	<path d="M554.1660156,431.5v-3.3339844c0-14.3984375,6.1826172-20.6660156,23.0009766-20.6660156
		c8.7333984,0,16.3535156,1.1308594,23.3330078,3.3330078V481.5h-13.6669922v-63
		c-2.9208984-0.7724609-5.5605469-1.1669922-8-1.1669922c-8.9511719,0-11,2.1962891-11,10.5V431.5h15v9.6660156h-15V481.5
		h-13.6669922v-40.3339844h-19V481.5H521.5v-40.3339844h-9.3339844V431.5H521.5v-3.3339844
		C521.5,413.7675781,527.4736328,407.5,539.7910156,407.5c3.8144531,0,6.78125,0.4267578,10.5419922,1.5v9.8330078
		c-2.4804688-0.9794922-5.1806641-1.5-7.6660156-1.5c-5.4521484,0-7.5009766,2.1972656-7.5009766,10.5V431.5H554.1660156z"/>
	<path d="M552.8330078,581.5v-2.6669922c0-14.7783203,6.5058594-21.3330078,24.5-21.3330078
		c10.3066406,0,18.9960938,1.3007812,26.1669922,3.6669922V631.5h-16.3330078v-61.25
		c-3.5478516-0.7919922-5.8535156-1.0830078-8.5-1.0830078c-7.875,0-9.5,1.7568359-9.5,9.5V581.5h14v11.3330078h-14V631.5
		h-16.3339844v-38.6669922h-18V631.5H518.5v-38.6669922h-8.6669922V581.5H518.5v-2.6669922
		C518.5,564.0546875,524.5888672,557.5,537.5830078,557.5c4.2539062,0,7.3574219,0.4189453,11.5839844,1.5v11.6669922
		c-2.4570312-0.9326172-5.5078125-1.5-7.8339844-1.5c-4.875,0-6.5,1.7587891-6.5,9.5V581.5H552.8330078z"/>
	<path d="M551.5,731.5v-2c0-15.1591797,6.828125-22,26-22c11.8789062,0,21.6386719,1.4707031,29,4v70h-19V722
		c-4.1738281-0.8115234-6.1455078-1-9-1c-6.7988281,0-8,1.3173828-8,8.5v2h13v13h-13v37h-19v-37h-17v37h-19v-37h-8v-13h8v-2
		c0-15.1591797,6.203125-22,19.875-22c4.6933594,0,7.9335938,0.4111328,12.625,1.5v13.5c-2.4326172-0.8857422-5.8339844-1.5-8-1.5
		c-4.2988281,0-5.5,1.3203125-5.5,8.5v2H551.5z"/>
</g>
<g>
	<g>
		<path d="M214.5,781.5H195v-52c0-15.1591797,6.828125-22,21-22c4.6933594,0,8.3085938,0.4111328,13,1.5v13.5
			c-2.4335938-0.8857422-5.8339844-1.5-8-1.5c-5.2988281,0-6.5,1.3173828-6.5,8.5V781.5z"/>
		<path d="M185.5,744.5c17.828125,0,33.6699219-0.3935547,47.5-1v38h20v-52c-17.1347656,1.2197266-39.828125,2-67.5,2V744.5z"/>
		<rect x="233" y="706.5" width="20" height="14"/>
	</g>
	<g>
		<path d="M214.1660156,631.5h-16.6665039v-52.6669922c0-14.7783203,6.5053711-21.3330078,19.8334961-21.3330078
			c4.2539062,0,7.6074219,0.4189453,11.8334961,1.5v11.6660156c-2.4570312-0.9326172-5.5078125-1.5-7.8334961-1.5
			c-5.5419922,0-7.1669922,1.7568359-7.1669922,9.5V631.5z"/>
		<path d="M187.8330078,592.8330078c17.1220703,0,32.265625-0.4169922,45.3334961-1.0830078v39.75h17v-52
			c-15.8222656,1.234375-36.7836914,2-62.3334961,2V592.8330078z"/>
		<rect x="233.1665039" y="556.5" width="17" height="13"/>
	</g>
	<g>
		<path d="M213.8330078,481.5H200v-53.3339844C200,413.7675781,206.1821289,407.5,218.6669922,407.5
			c3.8144531,0,6.90625,0.4277344,10.6660156,1.5v9.8330078c-2.4799805-0.9794922-5.1806641-1.5-7.6665039-1.5
			c-5.784668,0-7.8334961,2.1962891-7.8334961,10.5009766V481.5z"/>
		<path d="M190.1669922,441.1660156c16.4155273,0,30.8613281-0.4394531,43.1665039-1.1660156v41.5h13.9995117v-52
			c-14.5092773,1.25-33.7387695,2-57.1660156,2V441.1660156z"/>
		<rect x="233.3334961" y="406.5" width="13.9995117" height="12"/>
	</g>
	<g>
		<path d="M213.5,331.5h-11v-54c0-14.0185547,5.859375-20,17.5-20c3.375,0,6.2050781,0.4355469,9.5,1.5v8
			c-2.5039062-1.0263672-4.8544922-1.5-7.5-1.5c-6.0273438,0-8.5,2.6357422-8.5,11.5V331.5z"/>
		<path d="M192.5,281.5v8c15.7099609,0,29.4580078-0.4638672,41-1.25v43.25h11v-52
			C231.3027344,280.7646484,213.8056641,281.5,192.5,281.5z"/>
		<rect x="233.5" y="256.5" width="11" height="11"/>
	</g>
	<g>
		<path d="M212.1665039,181.4995117h-8.0004883v-55.6665039C204.1660156,112.8891602,209.3808594,107.5,220.5,107.5
			c3.1708984,0,6.003418,0.465332,8.9995117,1.5v6.0512695c-2.4619141-1.0366211-4.9760742-1.5517578-7.6665039-1.5517578
			c-7.0087891,0-9.6665039,2.8510742-9.6665039,12.0004883V181.4995117z"/>
		<path d="M193.8330078,131.5v5.9995117c15.6142578,0,29.4248047-0.5131836,40.8334961-1.4233398v45.4233398h7.9995117V129.5
			C230.2714844,130.7553711,213.8334961,131.5,193.8330078,131.5z"/>
		<rect x="234.6665039" y="106.4995117" width="7.9995117" height="11.0004883"/>
	</g>
	<g>
		<path d="M210.8334961,31.5h-5.0004883v-57.3330078C205.8330078-37.7021484,210.4033203-42.5,221-42.5
			c2.9677734,0,5.8017578,0.4960938,8.5,1.5v4.1035156C227.0791016-37.9443359,224.4023438-38.5,221.6669922-38.5
			c-7.9907227,0-10.8334961,3.0654297-10.8334961,12.5V31.5z"/>
		<path d="M195.1665039-18.5v4c15.519043,0,29.3911133-0.5629883,40.6665039-1.5976562V31.5h5v-52
			C229.2412109-19.2539062,213.8623047-18.5,195.1665039-18.5z"/>
		<rect x="235.8330078" y="-43.5" width="5" height="11"/>
	</g>
	<g>
		<path d="M209.5-118.5h-2v-59c0-10.7939453,3.9257812-15,14-15c2.7636719,0,5.6005859,0.5263672,8,1.5v2.1552734
			c-2.3789062-1.0585938-5.21875-1.6552734-8-1.6552734c-8.9716797,0-12,3.2802734-12,13V-118.5z"/>
		<path d="M196.5-168.5v2c15.4228516,0,29.3574219-0.6123047,40.5-1.7714844V-118.5h2v-52
			C228.2099609-169.2626953,213.890625-168.5,196.5-168.5z"/>
		<rect x="237" y="-193.5" width="2" height="11"/>
	</g>
</g>
<g>
	<g>
		<path d="M409.5,781.5h-19v-52c0-15.1591797,6.203125-22,19.875-22c4.6933594,0,7.9335938,0.4111328,12.625,1.5v13.5
			c-2.4335938-0.8857422-5.8339844-1.5-8-1.5c-4.2988281,0-5.5,1.3203125-5.5,8.5V781.5z"/>
		<path d="M445.5,781.5h-19v-52c0-15.1611328,6.828125-22,19.5-22c4.6933594,0,8.3085938,0.4111328,13,1.5v13.5
			c-2.4335938-0.8857422-5.8339844-1.5-8-1.5c-4.2988281,0-5.5,1.3203125-5.5,8.5V781.5z"/>
		<path d="M382.5,744.5c30.0253906,0,56.7070312-0.3935547,80-1v38h19v-52c-25.1308594,1.2197266-58.4140625,2-99,2V744.5z"/>
		<rect x="462.5" y="706.5" width="19" height="14"/>
	</g>
	<g>
		<path d="M409.8330078,631.5H393.5v-52.6669922C393.5,564.0546875,399.5878906,557.5,412.5830078,557.5
			c4.2539062,0,7.3574219,0.4189453,11.5830078,1.5v11.6660156c-2.456543-0.9326172-5.5068359-1.5-7.8330078-1.5
			c-4.875,0-6.5,1.7587891-6.5,9.5V631.5z"/>
		<path d="M444.1660156,631.5h-16.3330078v-52.6669922c0-14.7802734,6.5048828-21.3330078,18.8330078-21.3330078
			c4.2539062,0,7.6074219,0.4189453,11.8339844,1.5v11.6660156c-2.4570312-0.9326172-5.5078125-1.5-7.8339844-1.5
			c-4.875,0-6.5,1.7587891-6.5,9.5V631.5z"/>
		<path d="M462.1660156,591.75v39.75H478.5v-52c-23.7763672,1.234375-55.2734375,2-93.6669922,2v11.3330078
			C414.1469727,592.8330078,439.9853516,592.4121094,462.1660156,591.75z"/>
		<rect x="462.1660156" y="556.5" width="16.3339844" height="13"/>
	</g>
	<g>
		<path d="M410.1669922,481.5H396.5v-53.3339844C396.5,413.7675781,402.4736328,407.5,414.7915039,407.5
			c3.8144531,0,6.78125,0.4277344,10.5415039,1.5v9.8330078c-2.4804688-0.9794922-5.1806641-1.5-7.6660156-1.5
			c-5.4511719,0-7.5,2.1972656-7.5,10.5009766V481.5z"/>
		<path d="M442.8330078,481.5h-13.6669922v-53.3339844c0-14.3984375,6.1826172-20.6660156,18.1679688-20.6660156
			c3.8144531,0,6.90625,0.4277344,10.6660156,1.5v9.8330078c-2.4804688-0.9794922-5.1816406-1.5-7.6669922-1.5
			c-5.4511719,0-7.5,2.1972656-7.5,10.5009766V481.5z"/>
		<path d="M461.8339844,440v41.5H475.5v-52c-22.4208984,1.25-52.1328125,2-88.3330078,2v9.6660156
			C415.769043,441.1660156,440.7646484,440.7167969,461.8339844,440z"/>
		<rect x="461.8339844" y="406.5" width="13.6660156" height="12"/>
	</g>
	<g>
		<path d="M410.5,331.5h-11v-54c0-14.0185547,5.859375-20,17.5-20c3.375,0,6.2050781,0.4355469,9.5,1.5v8
			c-2.5039062-1.0263672-4.8544922-1.5-7.5-1.5c-6.0273438,0-8.5,2.6357422-8.5,11.5V331.5z"/>
		<path d="M441.5,331.5h-11v-54c0-14.0185547,5.859375-20,17.5-20c3.375,0,6.2050781,0.4355469,9.5,1.5v8
			c-2.5039062-1.0263672-4.8544922-1.5-7.5-1.5c-6.0273438,0-8.5,2.6357422-8.5,11.5V331.5z"/>
		<path d="M461.5,288.25v43.25h11v-52c-21.0654297,1.2646484-48.9921875,2-82.9990234,2v8
			C417.390625,289.5,441.5429688,289.0224609,461.5,288.25z"/>
		<rect x="461.5" y="256.5" width="11" height="11"/>
	</g>
	<g>
		<path d="M409.5,181.4995117h-8v-55.6665039C401.5,112.8891602,406.7148438,107.5,417.8330078,107.5
			c3.1708984,0,6.0029297,0.465332,9,1.5v6.0512695c-2.4619141-1.0366211-4.9755859-1.5517578-7.6665039-1.5517578
			c-7.0087891,0-9.6665039,2.8510742-9.6665039,12.0004883V181.4995117z"/>
		<path d="M439.6660156,181.4995117h-8v-55.6665039C431.6660156,112.8891602,436.8808594,107.5,448,107.5
			c3.1708984,0,6.0039062,0.465332,9,1.5v6.0512695c-2.4628906-1.0366211-4.9765625-1.5517578-7.6669922-1.5517578
			c-7.0087891,0-9.6669922,2.8510742-9.6669922,12.0004883V181.4995117z"/>
		<path d="M461.8330078,136.0458984v45.4536133h8V129.5c-19.9677734,1.2553711-46.4462891,2-78.6660156,2v5.9995117
			C418.4404297,137.4995117,442.3554688,136.9663086,461.8330078,136.0458984z"/>
		<rect x="461.8330078" y="106.4995117" width="8" height="11.0004883"/>
	</g>
	<g>
		<path d="M408.5,31.5h-5v-57.3330078C403.5-37.7021484,408.0703125-42.5,418.6669922-42.5
			c2.9667969,0,5.8017578,0.4960938,8.4990234,1.5v4.1035156C424.7460938-37.9443359,422.0693359-38.5,419.3334961-38.5
			C411.3427734-38.5,408.5-35.4345703,408.5-26V31.5z"/>
		<path d="M437.8339844,31.5h-5.0009766v-57.3330078C432.8330078-37.7021484,437.4033203-42.5,448-42.5
			c2.9677734,0,5.8017578,0.4960938,8.5,1.5v4.1035156C454.0791016-37.9443359,451.4023438-38.5,448.6669922-38.5
			c-7.9912109,0-10.8330078,3.0654297-10.8330078,12.5V31.5z"/>
		<path d="M462.1669922-16.1582031V31.5h5v-52c-18.8701172,1.2460938-43.9013672,2-74.3334961,2v4
			C419.4912109-14.5,443.1679688-15.0888672,462.1669922-16.1582031z"/>
		<rect x="462.1669922" y="-43.5" width="5" height="11"/>
	</g>
	<g>
		<path d="M407.5-118.5h-2v-59c0-10.7939453,3.9257812-15,14-15c2.7636719,0,5.6005859,0.5263672,8,1.5v2.1552734
			c-2.3789062-1.0585938-5.21875-1.6552734-8-1.6552734c-8.9716797,0-12,3.2802734-12,13V-118.5z"/>
		<path d="M436-118.5h-2v-59c0-10.7939453,3.9257812-15,14-15c2.7636719,0,5.6005859,0.5263672,8,1.5v2.1552734
			C453.6210938-189.9033203,450.78125-190.5,448-190.5c-8.9716797,0-12,3.2802734-12,13V-118.5z"/>
		<path d="M394.5-168.5v2c26.0410156,0,49.4804688-0.6445312,68-1.8623047V-118.5h2v-52
			C446.7285156-169.2626953,423.1445312-168.5,394.5-168.5z"/>
		<rect x="462.5" y="-193.5" width="2" height="11"/>
	</g>
</g>
</svg>
