<?xml version="1.0" encoding="utf-8"?>
<!-- Generator: Adobe Illustrator 11.0, SVG Export Plug-In . SVG Version: 6.0.0 Build 78)  -->
<!DOCTYPE svg PUBLIC "-//W3C//DTD SVG 1.0//EN"    "http://www.w3.org/TR/2001/REC-SVG-20010904/DTD/svg10.dtd" [
	<!ENTITY ns_flows "http://ns.adobe.com/Flows/1.0/">
	<!ENTITY ns_svg "http://www.w3.org/2000/svg">
	<!ENTITY ns_xlink "http://www.w3.org/1999/xlink">
]>
<svg  xmlns="&ns_svg;" xmlns:xlink="&ns_xlink;" xmlns:a="http://ns.adobe.com/AdobeSVGViewerExtensions/3.0/"
	 width="700" height="1050" viewBox="0 0 700 1050" overflow="visible" enable-background="new 0 0 700 1050" xml:space="preserve">
	<metadata>
<?xpacket begin='﻿' id='W5M0MpCehiHzreSzNTczkc9d'?><x:xmpmeta xmlns:x='adobe:ns:meta/' x:xmptk='XMP toolkit 3.0-29, framework 1.6'>
<rdf:RDF xmlns:rdf='http://www.w3.org/1999/02/22-rdf-syntax-ns#' xmlns:iX='http://ns.adobe.com/iX/1.0/'>

 <rdf:Description rdf:about=''
  xmlns:pdf='http://ns.adobe.com/pdf/1.3/'>
 </rdf:Description>

 <rdf:Description rdf:about=''
  xmlns:tiff='http://ns.adobe.com/tiff/1.0/'>
 </rdf:Description>

 <rdf:Description rdf:about=''
  xmlns:xap='http://ns.adobe.com/xap/1.0/'
  xmlns:xapGImg='http://ns.adobe.com/xap/1.0/g/img/'>
  <xap:CreateDate>2005-10-18T08:31:30Z</xap:CreateDate>
  <xap:ModifyDate>2005-10-18T08:31:30Z</xap:ModifyDate>
  <xap:CreatorTool>Illustrator</xap:CreatorTool>
  <xap:Thumbnails>
   <rdf:Alt>
    <rdf:li rdf:parseType='Resource'>
     <xapGImg:format>JPEG</xapGImg:format>
     <xapGImg:width>172</xapGImg:width>
     <xapGImg:height>256</xapGImg:height>
     <xapGImg:image>/9j/4AAQSkZJRgABAgEASABIAAD/7QAsUGhvdG9zaG9wIDMuMAA4QklNA+0AAAAAABAASAAAAAEA&#xA;AQBIAAAAAQAB/+4ADkFkb2JlAGTAAAAAAf/bAIQABgQEBAUEBgUFBgkGBQYJCwgGBggLDAoKCwoK&#xA;DBAMDAwMDAwQDA4PEA8ODBMTFBQTExwbGxscHx8fHx8fHx8fHwEHBwcNDA0YEBAYGhURFRofHx8f&#xA;Hx8fHx8fHx8fHx8fHx8fHx8fHx8fHx8fHx8fHx8fHx8fHx8fHx8fHx8fHx8f/8AAEQgBAACsAwER&#xA;AAIRAQMRAf/EAaIAAAAHAQEBAQEAAAAAAAAAAAQFAwIGAQAHCAkKCwEAAgIDAQEBAQEAAAAAAAAA&#xA;AQACAwQFBgcICQoLEAACAQMDAgQCBgcDBAIGAnMBAgMRBAAFIRIxQVEGE2EicYEUMpGhBxWxQiPB&#xA;UtHhMxZi8CRygvElQzRTkqKyY3PCNUQnk6OzNhdUZHTD0uIIJoMJChgZhJRFRqS0VtNVKBry4/PE&#xA;1OT0ZXWFlaW1xdXl9WZ2hpamtsbW5vY3R1dnd4eXp7fH1+f3OEhYaHiImKi4yNjo+Ck5SVlpeYmZ&#xA;qbnJ2en5KjpKWmp6ipqqusra6voRAAICAQIDBQUEBQYECAMDbQEAAhEDBCESMUEFURNhIgZxgZEy&#xA;obHwFMHR4SNCFVJicvEzJDRDghaSUyWiY7LCB3PSNeJEgxdUkwgJChgZJjZFGidkdFU38qOzwygp&#xA;0+PzhJSktMTU5PRldYWVpbXF1eX1RlZmdoaWprbG1ub2R1dnd4eXp7fH1+f3OEhYaHiImKi4yNjo&#xA;+DlJWWl5iZmpucnZ6fkqOkpaanqKmqq6ytrq+v/aAAwDAQACEQMRAD8A9U4q7FXYq7FXYq7FXYq7&#xA;FXYqhtT1Kx0vTbvU7+UQWNjDJc3c5BISKFC8jkKCfhVSdhiqJxV2KuxV2KuxV2KuxV2KuxV2KuxV&#xA;2KsW/Kx3f8uvLruxZmsYSWJqSePjirKcVdirzfyzp2tRXXlUz21yiwXmvtdGRJAESW4mMBkqNg6k&#xA;FK9R0xV6RirsVedfmP5ovob/AEXTItC1SZf0zaFbiBbb0rj0Fa6KRFp1ev7mvxKv2T2xVS0PzfqF&#xA;z+Y+tyny3q6RtZ6VYlGW0pAUlu5mkkpcmgZbpfs1NF6Yq9KxV4n5/i0vWNG/MyPX72WTW9L0+/fS&#xA;NGeeSGKGzSwLw3MNurIk3qPyLSsGofg2pTFXp2ieStJ0PUGu9KmvLeB42jk01rqaazLFgwlEMzSC&#xA;NxxpWMrWp5V2oqn2KvPrfyx5b81ec/Nb+ZbGDWJNLubax020vY1mit7V7C3ufUhjkDKryTzSgyqO&#xA;R4ha/DiqWadrmpxeU18r6HdSSalf6pqOkaBfuxleHT7S5dJrss1eS2UdYkLV5OIwftYq9J0jS7LS&#xA;dLtNLskKWdlCkECkliEjUKOTHdjtuTuTirEvzIt7CbUfLia/H63lGW5kg1SJ/wDeY3MyBbH62vRo&#xA;DJySjVT1GTl2xVBeWtN8s2v5jPD5KtIbLSbGxuIPMSaeixaebxpYTaxCOICE3MapMXKjkqkBvtCi&#xA;r0XFWN6Tb3qefPMU8kUi2ctnpi28rKwjZ0N16gRj8JK8l5U8RXFWSYq7FXYqxr8tLS6s/IGgWt3D&#xA;Jb3MNlEk0EqlJEYLurKwBB+eKslxV2KuxV2KuxV5r5x8weY285+V7WPyvdyrZajeXVs63NiouFis&#xA;Lm15JymBUcbrlR6H6dsVXeR9c8wXXnHzTLN5buoIp9St7ae4e4s3W3EGn254twmZm+KQmkYYb+NQ&#xA;FXpGKsG/OfRtE1T8sfNM1/ZW95NYaRqM1nLNGkjwTR2sjB42YEowKjcYqutbW68q+bdH0mz1C4vN&#xA;D1tbmJdOvZXupLSW2i9YSw3Epeb0So9NkdmAJTjx3BVZvirHvMnk3ynqkzarq0TwzwQlJ763urix&#xA;c26VcpNLbSQGSJak8XJXrtirzvStPubufRLrTuegWnmeU2Oki2VYpbLy9Y28lzFDCGBEU17IgkkI&#xA;HII1PtICFWY6XBf+XvPNroiald6hpGr6fdXkUN9K1zLbXFjLbxsUmespjlW7FQ7EKyjjTliqjqum&#xA;nzr5k1fQNTmkj8r6OsEN3pcLGJr+e4jE5NxIhEn1dI2VRGpAduXOqjjiqVfpf/lVWlS6NexmTy3F&#xA;DO3le/RSWWRVaRNMuAo+KVj8Nu/WX7J+MVdVn3lu31G38vaXb6nK0+pQ2kEd9MxqzzrEolYkdSzg&#xA;nFUxxV2KuxV2KoXStP8A0dpttY/WZ7z6tGI/rV2/qzycf2pHoOTHuaYqisVdirsVdirsVS+60S1u&#xA;dasNXkeQXOnR3EUEYI9Mi69PmWBBPIeiONCOpxV2k6JaaXJqEkDyO+pXb3twZCD+8dEjovELRQkS&#xA;gfrxVMMVYL57/K601zR/MK6Ncz6TrGtWVzBKYbiSKzuJpoDEpuoKSxEGoDusfqce9aYqnmh+S9L0&#xA;q/bVGnutS1d4zAdR1Cdp5ViJDNHEvwxRKzKCwjReRpXoMVT7FUs8yeX7PzBpMmk3skqWVw0Zuo4S&#xA;q+tEjh2gclW/dyheEgFCVJFcVWeYvLVlrlnBBLLNZ3FnMtzp9/aMqT206KyCSIusifYdkKurKykg&#xA;gg4qhdA8oDTdTm1i/wBTuta1maEWwvbwQp6VuG5mKGK3jhjRWajMeJZiBU7CirWteTo77VBrGn6l&#xA;eaJq/pLBNd2JhYTxRlmjjnhuI54ZAhduLcQ4qaMMVS+4/LHTtVP/ADtepXvmZFVhFa3xhitY2deP&#xA;Nbe0itkLqCeDycmU7qQcVZLo2nNpml2untd3F/8AVYxELu8ZXuJAuwMjosYZqbcqVPU1O+KozFXY&#xA;q7FXYq7FXYq7FXYq7FXYq7FXYq7FXYq7FXYq7FXYq7FXYq7FXYq7FXYq7FXYqkPkXzhY+cPK9p5h&#xA;sYZbe1u3nRIZ+PqA21xJbtXiWG7REjfpiqfYq7FWIaT+ZelanJpKRWs6HV9U1DR4OfD4ZdNS4eR2&#xA;ox+BhaNxpvuK4qy/FXYqkvmnzVZ+XYdNkuopJv0nqVppUCxcaiW9lEaseRHwr9pqb0xV0Pmqzm85&#xA;XflVIZDd2dhBqM1xQeiFuJZIkjrWvP8AclunTFU6xV5t+ZP5y6d5bttd03RrS81jzJpWnzXc6Wds&#xA;09tYt6LSQyX0paJEj25MA3Lj26YqmHkX807HzHJZ6Ze6bqWj63cWouUg1C0aCKdVVTJJbyqZYnSr&#xA;VHx1p2xVnOKsK1/8yLm08xXHl7y95evfMup6fDHcasLSS3gitUmBMSPLcSRqZXUcljXfjviqZaL5&#xA;+8uap5Qk81iV7TS7ZJ31AXS+nLatalluIp034vEyEECvtUUxVMPLOtNrmgWGsGzmsBfwrOlpc8RM&#xA;iPunMKWAJWhpXbFUr87+frHyr+jrb6ldarrOszNBpOkWKq087xrzkasjIiRxru7s2wxVAaB+ZU91&#xA;5kt/LXmLy/e+WtZvYZLjTY7l7e4guUgoZVintZJU5orBmVqbYqzbFUqs/MVrdeZdU0BInW50q2s7&#xA;qaU04Mt806oFoa1X6q1ajuMVTXFXYq7FXmv/ADjj/wCSd0X/AIz6l/3U7nFXpWKuxVhGi/ljBpcm&#xA;jOuoNL+h9X1LWVBjC+o2ppcoYj8R4iP659rvx6CuKs3xV2KvH/ze8r3955o8nxJ5k1WFNU8wQtHZ&#xA;xmyEFqLW0nm9W35WzSeoGjFPUZ13O3Siqh5O8n6lL+bnnB2826zI2jx6PbtKzWBe4VopLow3FLQL&#xA;wHqCgjCNRjU7iir2fFXhX5laB548paV+Y99pNhBrnlfzZZXdzfkTLb3unytYtBLKQ44TwhV5cVIc&#xA;dKeKrOPyt/Mjyx5g02z0O3eaz17T7G3N1pF/C9tciMRqvqorikkZ7MhI3HjirPcVeaTS+ZPJ3n7z&#xA;Nqi+Xr3XtG8zfVLq3m0sQvNBc2lqlq8E8cskJ4usSsrgkCtDirz71VhS70Xzg66Vo/6Ul82efIEb&#xA;6wkbX1wG0zRf3QYyySlUllVF+ILt9rFXtHlf8w/LPmS9uNPsJLiDU7WNZ5tOv7aeyufRc0WZYrlI&#xA;2aMnbktRX5jFWGfnlf2+mXnljW9KuBL560q6kfQNDRHml1CG4QR3lt6cQZ0Vo1B9UjihUVxVD/l5&#xA;qF75+19fzI1uWLT7Py8t5YaZ5ajLPcWUrEJdy6gzLGwnZI6CPjRVodzuVXqWia1put6RZ6xpc31j&#xA;Tr+JLi0n4unOOQVVuLhXFR2IriqDsfLiWnmvV/MInLvqtrY2jW/GgjFi1wwYNXfn9a6U2piqc4q7&#xA;FXYqwz8nbLRrH8vNNttG+uDTklvTD+ko1iuqtezNJzRdgPULcPFaHFWZ4q7FXYq7FXYq8e87fl89&#xA;5+anlDhq2uehdSave3Ekd7KEtStuqqsDdIAxuOAUdV26A4q3+WXkF083+b9Wm1TWh9V1xILcT3kt&#xA;LqO1s7ejXAP9+tWKgn9kU7Yq9gxV5J+b3n++sPK3nPQtW8t6lDbXGl30Ol63axG8splls2VTO8NW&#xA;tmDsQfUWlBy5UxVL/Kj3/nLzj5C1jT9CvLDSfKWnzi91rUbdrT6011ZC3jt7VXpJKgYmQuV47be6&#xA;r2vFUl85+Y/8OeWr7V0tZb64gQLaWMCs8k9xIQkMSqtT8UjAE9hv2xV5hrfkrUfLHlfyxrWoQNrO&#xA;oWPmGLzF50e2iMrySzRSxyXEcagu62byp6aqPsJWm2KprYa/pvnf82NB1fyys1xpPl/T79dU1gwS&#xA;QQyPfeiILRGlVGkZTE0jACi7b1JGKofVNVg8k/nFrPmXzPa3B0PW9Os7XSddigluYrI2xf6xay+i&#xA;sjxCZ2WSvHiaexoqw38xtU/xNf3Wp/k1DqF55j1K0msvMc1vaywadPZmB1DTyXIgQ3cdR6DIS37J&#xA;22xV7V+W91os/kbRU0ZZotPtLSG0iguo2huIvq6CIxzRtusi8fi8eoJG+KskxV2KuxV2KuxV2Kux&#xA;V2KuxV2KuxV2KuxVD6jp9lqOn3On30K3FleRPb3UD/ZkilUo6N7MpIxVUt7eG2t4reBBHBCixxRj&#xA;oqKKKB8gMVVMVdirsVdirsVdirsVdirsVdirsVdirsVdirsVdirsVdirsVdiqncXFvbW8tzcypBb&#xA;wI0k00jBEREHJmZmoAoAqScVdb3Fvc28VzbSpPbzoskM0bB0dHHJWVlqCpBqCMVVMVdirsVdirsV&#xA;dirsVdirsVdirsVeS/8AOM/mLXde8h6hea1fz6jdR6xdwJPcOZHESLHxQFv2RU0GKvWsVdirwGy8&#xA;3+aH0by9K2q3JkuPzIl0udzK1XsRJdAWzb7xfAvw9NsVe/Yq7FXhH57fnh5Z0i80zy5p3mCWx1ux&#xA;12w/xBHCl3GYtPoZLgtIkfGROLJVY2LGuw2xVBaT/wA5F+R7z86LmX/E0x8qTaVBY6ZAYbwQyajJ&#xA;chmYQ+jVW4njzdR86Yq+hMVfOH5leaPPfnTUvzM0HTdaTy/5b8laVM17YpBHLc6lztZXdWdzyjjP&#xA;plSU7EbEnZVln5I+XPzP03RPKV7N5og1byde6RbSy6TdWqxXNoJLRWgjtp46l1QlVPqH7I6VNcVe&#xA;x4q8bvrXzF5//NrzX5ebzNqfl7Q/KFvp6W9voswtZri41CA3Bmml4uzKlOPDp0/yuSqA8v8A5ueY&#xA;dJ/LDXP0lMNb82aTr135U0OQKofUryNlW2fiKA7SVbxCnvir1byNomraJ5V07TtZ1KbVtXjj5ahq&#xA;E7mRpJ3JeTiT0RWPFB/KBirz/wDPfzL5hs9Z8k+WtO1p/Lem+Zr2e31TXIVHqxCJYzFCkjCkbTNI&#xA;QG67eFcVSRG8xfl/+cflLyppnmvVfNOn+YI7k6tpeszre3FrHEnKO5WYKjIpPLt0Ujwoq94xVgGm&#xA;6vqkn5463pL3UraZBoNlcQ2ZY+ksz3MqtIF6BmVQCcVZ/irsVdirxj/nFGCeH8utSWaNo2Ot3pCu&#xA;CpoVi33xV7PirsVU/qtsAAIkor+oo4jZ/wCYf5XviqpirsVfOf5x/m15bn8/eTtONrqXHy5r0txq&#xA;I+pyfvGs1aMG32rN8VT8O1N8Vd+XP5teW7v88PON/wDVtTCeYJNG07SlNnIPTKQmKQ3Ip+6HqsCC&#xA;x+zvir6MxV5B+fH5ReTda8t+YvOBjmsPMenaTeTG/sZTC06wWzMIblaMsiMq8G25Fdq0xViX5V+b&#xA;vzB8mXv5d+XPMF7DrflXzppcLaHKIxFdWDx2scv1c8f7yNBKiVbcjeooVKr6MxVgfm38odM13zGf&#xA;MthrOqeW9cmtxZ3t5pE6wm4gX7Kyq6SAsv7LChH0CirwuN00Z7TW/JlqlxpOnasnlT8vpL9jLHd6&#xA;xqLML/WLhl4mT+7McbD4fADjTFXrGleYPzJ8qfmN5f8AK3m/V7XzHpvmqG6+pahFaJYSW11ZRes8&#xA;bIjOro6bKTuT4U3VSj83J7/8yPNz/k7pMVtbwW1vFqnmDW7qP1Xtk5KYls46r+9PMVavRiPHFWK+&#xA;WtQtvyS1PzLYecbcSa7f211eaB55l9SY6ksUfNbSV5GkMcqsi/ADRjT/ACSyr3D8rdY1/Wvy90HW&#xA;Nf4fpbUbRLq49NPTWkxLx0Xt+7ZcVZOIohIZQiiQjiXoORA7VxVdirsVdirHvI/l7zBoOkzWeua/&#xA;J5ju5LmSeO+mhEDJE4XjDxDy1CUO9e+KshxV2KuxV2KuxVifmDyIdZ8/eVPNjX3op5WW/Edh6XL1&#xA;21CAQFjLzHDgFrTia+2Ku8meQv8ADeu+atXa9F5L5mvxfFBD6XoKqcEi5c5PUp/Nt8sVZZiryH8z&#xA;PyV1XUrfzNqnlHzDqWnajrdpcfX9CWVJbG/la2MQj4TlVhaUKsZfl8I6UxVr8p/yNfQ30DzJ5r1O&#xA;81bzLpemw2tjY3Lp9W0wGARvBAsZdWMYrHz5UPXrvir1/FUk866Fqmv+V9R0XTNT/Q11qERg/SIi&#xA;9do43NJOCc4viZKqG5fDWuKsf8y/lFoWq/l9YeTdPnk0iLR2t59Fv4AGktrm1NY56HiHYkty3Fan&#xA;cHfFUD5c/LDzQfOdh5u87eZF17UdGt5bfRbe2tFs4ITcrwnmYBn5ySJ8PYfhRV3nX8pNS1LzhF52&#xA;8o+YZPLPmgW31O8m9BLu3uoAQVSWF2UbUG+/QbVFcVSbW/yM80edikH5jecpNU0m3YyW2k6ZZxWE&#xA;YmKFFleQmZ3K8jQH+JGKs/8AIHlzXvLflu30bWdb/T8ln+6tb9rf6tL6CgBEl/ezCRlG3Pao6iu5&#xA;VZHirsVdirsVdirsVdirsVdirsVdirsVdirsVdirsVdirsVdirsVdirsVdirsVdirsVY75N/MPyf&#xA;5zivJfLWofX49Pl+r3bejPDwkIrx/fJHXp1FRirIsVdirD3/ADc/L1NNn1JtWpZW2qnQJpfq9z8O&#xA;pChMHH0uR6j4wOH+VirMMVdiqR+bvO3ljyhYW9/5ivfqVpd3KWVvJ6Usxe4lVmRAsKSNuI23pTFW&#xA;/wDGnlr/ABd/hD65/wA7ELX6+bH05f8Aeblw5+rw9L7X7PKvtiqd4qw38x/zW8oeQ9KubjVb+3Gq&#xA;LbS3Gn6Q0vCe5dFYxxqFWRkWR14cytBiqD/Lf86vI3nmysls9StrfXbiFZLjQ2mrPFIV5PGnNYjL&#xA;w7si4qz7FWE+evzl/LzyPfQ6f5h1P0b+eMzJaQxS3EgiFf3jrEr8F+E/a8MVT7y75v8ALXmPQI/M&#xA;GjahFdaPKrOLsEoqhPt+oHCtGVp8QYCmKu8p+bvL/m3Rk1ry/cteaZK7xxXJimhDtGeLcRMkbMA2&#xA;3ICmKqHnPz55S8l6WNT8y6jHp9qzcIuQZ5JH68Y40DO58aDbvirHPJv5+flX5v1dNH0XWQ+pygmC&#xA;2nhmtzLQVIjMqqrNQfZrXFXoWKpOnm7y8/myTykt3XzBFZ/pJ7L05drUyCL1PU4+l9tgOPLl7Yqn&#xA;GKuxV2KvnX/nDb/jlecv+2qv/EGxV9FYq7FXhE35D+b38p6jo4vNP+s3fnVvNEbmSb0xZEKPTY+j&#xA;X1vh+zTj/lYq93xV2KvmX/nJaz/Mq680eV9KfU9OOiatr1qvlyz4OJorlQsSyXLBfiRXnP2a7HFU&#xA;t8t6X+dV5/zkJ5h9PV9I/wAT6Tpttb6nfNA/1VrWcQTKkKcOQk4kfER44q+rMVfHX5z6Vc+V/wAy&#xA;/O+u+bvLs2taT5i0y4tfLmshBNDaXM1sIrdjy+BGiYcd6Mv2kr3Venf84/W35Ma9ofla+0yLT288&#xA;6BZILoxJ9XvBKYTBM8qUjM4o5HMhgDShrir3fFXz1rfmGy/Lj/nIPzJ5n816fctovmHTrWLRtVgg&#xA;e4VHhiijkt/h+yZHiO3+rXY1xV5/5cutdPlK58hWkbeXG8/6vd6xcLcARDTPLYCCSaQNxEYlETIl&#xA;aBlX/KU4q+mfIPmL8t59Nt/L3k3V7C9g0m3SKOzs7iOV0hjAQOyqeRqerdyfHFXl/wDzlTotxajy&#xA;p5/Vba8tPKd6HvNJu3VFuEmliYBA+zEmHiygE0NaGhxVjUGqy/nZ+Z/lrzboel/oXyh5ImS51LXL&#xA;z045ZZImjuTA3FiOKekAN6KrMxpUDFX0zYajp+o2kd5p9zFeWctfSubd1ljbixVuLoSpowIPvirD&#xA;LfyHq8f53XPntprc6RNoA0hYAz/WfXF0k/Irw4cOKdeda9sVZ3irsVdirxP/AJxi0nynp2neZ18u&#xA;+YH1+OXUA9272Ulj6MnE/uwJHk5/6wpir2zFXYq7FXYq7FXyv+cHlP8AMm4/OXyjpjecPVk1TUL6&#xA;+8u1tYwNLRGEiDr++4ooX4v5ffFVP8pPJ35lah+b3nS7h85cLzRb+yttevjZof0kiM4aIA0EXFbf&#xA;iePiDir6sxV4T+cP566Fpll528j69pt9pl1cabd2uh37xM9te/WLMopVgAV/fOVrQrtUkdMVeP8A&#xA;5XQaZ5j/ADK/LiTyNpU9teaDZ25846nGhhgdo1pKWptVkqhY7yFqb9Sq+1sVSvzT5k0vyx5d1DX9&#xA;Vk9Ow02Fp5jtU8fsoterOxCqO5OKvlrzz5W8y3n5N63+ZWtwyfprzdf2d3qNvGSWttBV/wDR7dR2&#xA;WvpOfbjy3BxVPmu/y11D87Py1P5UxWwkt47l9bfS4vSRbIxKIxc0UDnx9QNz+LcA7lcVU/zfv9Jt&#xA;P+cjtGm/MqN5PIUdoDpAmR5LL1uHxNJGgYPSc/GKHbhy+HFWG/mpr/lHRfMN7e/k1rf1mTzTaXNp&#xA;5i8uWMEslv6ckL8riKihFKhmai7oakfCSMVfQX/ONl75al/KDQbLQ79b36hEU1BRUPDdzO1xNG6n&#xA;cUeU8T0I3GKvT8VdirsVdiqC0zRNF0pZV0uwtrBZ25zLbQxwh2/mbgFqfc4qjcVdirsVdirsVQs+&#xA;k6VPfwahPZQS39qCLW7eJGmiDAhhHIRyWtd6HFXWmlaXZT3M9nZwW094/qXcsMaRvM+/xSMoBdtz&#xA;ucVRWKpf5g0LTdf0S+0bUo/VsdQgltp1GzcJkMbFTvxajGh7Yqt8t+XdL8uaFZaJpcZjsbCJIIFY&#xA;8m4oAoLN+01BucVTLFUNqOmabqVq1pqNpDe2jkF7e4jWWMlTUEo4ZTQ4qrvDE8TQuitEylGjIBUq&#xA;RQqQdqUxVL9H8seWtFaVtG0mz0xp95zZ28UBc9fj9NV5fTiqI1HStL1O2NrqVnBfWxIJguY0lSo6&#xA;Hi4YYqhdF8q+V9C5foTR7HS+Y4v9StobeorWh9JV774qq6Z5e0DSXmk0vTbWwe4p9Ye1gjhMnGpH&#xA;MxqvKnI9cVR+KuxV2KuxV2KuxV2KuxV2KuxV2KuxV2KuxV2KuxV2KuxV2KuxV2KuxV2KuxV2KuxV&#xA;4l/zjf8Amx5v8/X3m6HzDJBImjy2iWXoRCKgma5D8qE8v7lcVe24q7FXzNq35+fmFa+SPPOsRTWw&#xA;vdA8xLpWnkwKVFsZHWjrX4moo3xV9JWEzz2NtNJ9uWJHamwqygnFVfFXiH/OQv56P5Os7PT/ACpq&#xA;1j/iT68kOpWsvGZ4IDEzVkjr8HxMhqcVQR/5yL05vztGip5h01PIMdl6kl+SnBrn0q8BcFqfaYfd&#xA;TFXvmKvnj82Pz585yecNU/L38vtGivb2ytpf0rf3BPwKsXOZogJIlQRK1Obtu2wXpVVjv/OM/n/8&#xA;2Y7bR9Jm0JtX8o6nezR/4gZ5XmgcAtJ6snKUBV4fCrotenLfFX1Tirwvzt+YX5r67+bt7+XP5dzW&#xA;OlyaLZJe6jqN+nqczIkbhRVJQF/0iNQAla1NaYqv8hf85CzS/lZ5h8x+cYIodY8rTvY3UcB4pdTk&#xA;AQKg+LizueDUqBTlsNgqz38oNQ886r5HstY86NENW1Ot1FawxeiILaQAwxstSSxX4zXcVp1GKsN/&#xA;5yD/ADj8yeSrjQvLvlW2hk1/zC5WK7uhWKJeaxIFBKqXZ36seKgbg12VYXqn5tfnl+WPm/QrD8xZ&#xA;tM1rSNbahaxULIiBlSQoVSA84zIpoyEN0B7hV9NYq8vufzB8xx/85CWvkZXi/QMujm/dPTHq+sC4&#xA;r6nWnwjbFXqGKuxV2KvmD/nC3/jqfmF/xnsP+J3uKvp/FXYqxWb8rPy9msNQ0+XQrZ7LVbkX2oQE&#xA;NxmuQSfVff7VWOKsojjSONY4xxRAFVR0AAoBiq7FXxp/zkZq35N6j+ZGjfo9ka/j1aWDz5c+neKU&#xA;S2lhgZWDJR6KkorBX7PeoxVLfJsf5Aal+emsW93FE3ke9hitfLVrwvwr3shto1oAPWWrerUy0Xf5&#xA;Yq+3cVfM/wDzkX+T1xo82s/mx5W1qXTL5I1/S1kKgSCbhbOY3U7c1Yc0cENuajpirGfyI/NHzX+X&#xA;N55b8j+Z9HRPL/mgwXmj36keqqamV9KXkrNG8ZZl5KeLJvXwxV9fYq8f8/fkl5mvvPz+fPInmb/D&#xA;mv3lsLPU/UhE0cyKqoGFeQHwRoKFTuoYEHFXz1qWm6T5Zvr7TZZZPMflnyTeLqPmac0jj1TXpyIY&#xA;bSv7zjFFxYNy5GgmP7SjFXtXlr8+vzDtPNXlfSvP3la30nTfOIRdEvLSRiweUqIxIheXvLGGU8Sv&#xA;IH2xVJf+csNV8u+Yb3R/IOm6XNq/n95Fl057dgn1VJ6ckdmBD+qqVK7BQA5YU3VeaaLqC6B+YWqX&#xA;n51ve33mzy3YGfyzaX0nOyuZrWNngjaRQ9RIygxsPhZq8qtsVX1Z+UHn698++R7XzPd6cNLN3LMk&#xA;NushlVkhkMfMMVTqysOnbFU+byp5cbzInmZrCI69HB9VTUaH1RDueFa0p8RxVNsVdirsVefflVpP&#xA;5q6fca23nu406eGZ4TpA0+OOMqqmX1fV4RQ12aOla98Veg4q7FXYq7FXYq8U/MP8hovMX5qeWfMF&#xA;jpOlRaBaStc+Y4jFEkl5K8pkYyxiJhPyp8XqHepxVZ+Wv5BQaF+Y3mzzBrej6TLpV5dCbyxbRxxy&#xA;/VEWd3VkjaJVgYLwpw6dMVe3Yq+bP+cgvye8/GLzT5p8ueYbq603WBA+reVxHI5l9P0oU9JY+auV&#xA;EakVQMAPtHFVP8p/+cdvNN9qXlXzn581s3Uek2dlLo2iBZA8EcKLJbQTeosfp+iackVTVq1Piq+l&#xA;8VSTzsnmqTyrqUPlQwr5gmhMVhLcsUijdyFMpIV941JZRTcgV2xV5ev/ADjpbf8AKjJfIS3SRa7d&#xA;smoXeqHkyPqIYOSx+0Y6D0gaVp8VK4qkuh/lB+cPmHzb5PvvzCu9Ng0nyKyPpy6eWaa5kiaNkZ6i&#xA;g5G3j5H4dhstSTiqYfm5+R3nTU/zCs/zH/L/AFW3svMVsiLNb3dQpaNDEHjbjKp5RHgyOtKd96Yq&#xA;xfzL+R356/mheWZ8/ajo+l2mnq6wSWkIlnJYD+QKSrEbgygDqFxV6l+Rnlr8yPKflpfLHm1NPmst&#xA;OHHSb2xkYuYyxJiljMcfStQ/U999yq9LxV2KuxV2KuxV2KuxV2KuxV2KuxV2KuxV2KuxV2KuxV2K&#xA;uxV2KuxV2KuxV2KuxV2KpPo3nLyhrd1LZ6Lrmn6ndwKXnt7O6huJEUEKWdI2ZlHI03xVOMVdiqRH&#xA;z75GWG+mPmLTBDpciw6nKb23420kjFESdudImZ0ZQGpUgjFU4tLu1vLWG8s5o7m0uY1mt7iFg8ck&#xA;bgMjo6kqyspqCOuKquKpdrfmTy7oNvHc65qlnpVvK/pxTX08VsjPQnirSsgJoCaYqpnzZ5WGrw6K&#xA;dZsRrNwokt9N+sw/WZEKlwyQ8vUYFAWqB03xVNcVQeraxpmkWMl9qVzFa20SlmkmdIwaAmgLlRXb&#xA;xxVin5W/m95X/MnTru+0KO5thZTehLb3qwpMfhVuapFLN8HxUqT1xVm+KpP5h84+U/LcccnmDWLP&#xA;SlmqIfrc8cJenXgHILU70xVH6dqem6nZRX2m3cN9ZTjlDdW0iyxOK0qroWVvoOKobRvMvlzXBOdE&#xA;1Wz1QWzBLk2VxFcCNzWiv6TNxO3Q4qiNT1bS9Ks3vtUvILCyi/vLq6kSGJf9Z3KqPvxVJ9C/MXyF&#xA;r939S0XzFp2o3m5Ftb3MUkpA3JCBuRA8QMVZFiqXv5h0CPWY9DfU7Rdalj9WLS2njF00YBPNYC3q&#xA;FaKd6dsVTDFXYq7FXx//AM4d/wDk0/NP/MBL/wBRkeKvsDFXYq+Sbn8nPzLfy1+bVouhym48w6tY&#xA;3OjR+pDW4ihvrmWR1+Og4pIp+KnXFX0r+XWm32l/l95Y0y/iMF9Y6TY213ASCUlhtkSRCVJHwspG&#xA;xxVkOKvjb/nLrzH59vfMVv5d1TS4rby5DdNJ5evUR1lu2EMay8mMjI3BpqbIuKsZtvNf5wT/AJ7R&#xA;63B5cgk896ZB6Q0MRzGGONbP0N4zPz/uZeX971P0Yq+67V5ntonmXhMyKZUHQMR8Q798VfD358ag&#xA;dV/Py+07z1fXdl5csnEVr6C8zDbG3DxNCh5D97JQuwBO52NOOKph/wA4uflZpnmbUrbzSuuGz1Xy&#xA;7qkcsmlIVLT20apIp+FlkVWkqpJBVgCMVfauKvkP80/8ID/nKC9P5oer/hH6hEdP5+sY+H1NePH0&#xA;P3nD6z6v2f2+u2KsQ/Ln8xde8ufldr3lzQTPLqXmvVI9P8tQA/GnqJwupU8HKvDGN/tGo+ycVfWf&#xA;5O+RNI8ieSbPy5aSxT38Y9fV5o2DGS7kA9VjTfitOC1H2QO+KvFf+c19M8xyx+XNRVJpfLFsZUvB&#xA;EfgjuZGXi0goQC6VVGNabjvuq8h842PkPV/OPlu0/JKy1Aai8cTyqzSl1vOSshUysxVoqEyOD6Y6&#xA;g0BOKvv23EwgjE5DTBVErL0LU+Ijp3xV49qnknzTN/zk7pHm6OwdvLtvpL202ock4LKY5wE48ufW&#xA;Rf2cVeyYq7FXYq+af+cZvJelaH+YPmC8s/NOl65LPaSI9nYNMZYgblG5P6kca0BHHY9cVfS2KuxV&#xA;2KuxV2Kvib/nIA/m5f8A5taTpGsNDJI2pS/4IgU24/cXN4I7Yycehb04wTLvtviqG/Ln/ldWofnr&#xA;rF7p7QTebrSRovMshNrwWBJ44LhU5fu6jgF+DfbFX3Fir5P/AOcpPzO8i6suv+TLjSCPNOiy2q6Z&#xA;rJjR+SN6cs8Yk2kjoJGHHdWpWvTFXjXkwQw/mR5L/wACz3j6nI1h9d5DiVvWb/S44+NOUHD7XLty&#xA;rVd8VforirH/ADnoHkbUNLlvvN2m2N7YaZHJcPPfwxyiGNF5yMGcEqKLvTrir5B1mz1TzD5V83/m&#xA;7ZWn6H0iwMWj+TbK2jWFLa0e4WKaSJY+KpRJWUlducj03XFUq0+Dy35V1P8AK3WvIetyXXmfVWT/&#xA;ABFaxzCQxzPNCvoPEgDKJDJIhRvtBQe9Sqzj/nKLzfq99+amneSdb1CfR/Iw+pyXbwgkSxzPWa5Z&#xA;QP3npbqq7gFa0rirzzz2dH/LjXr1Py082RatoXmLT5rO7hjkEs0UUq8XjmdFVK1PKNlow3BFPtKv&#xA;pL/nERrE/lOPS1Fb6/mvp7jUYeZeS3duMUcbhviHKOFWHY12xV7ZirsVdirsVYr5U/K3yD5S1K51&#xA;Py7pEen314hiuZ0eVy6M4cikjuPtKDsMVZVirsVdirsVdirHta/L7ydrfmHTvMeqaZHda1pPA6de&#xA;M0gaIxuZEoqsENHNdxirtC/L3yboOu6lr+kaZHa6xrDO+pXitIzStLIZXJDsyjk55fCBirIcVYJ+&#xA;bP5Q+XvzF0J7G7WGz1Osf1fWhbxzXMSI4dkRiUbi4FCOWKon8uvyp8oeRtKtLfTLC2OqQwLBdayI&#xA;ES5uCAAzM/xMORFSvKmKsyxVLvMXl3RvMej3Gjazb/W9MugouLYu6BwrBwCY2RqclHfFVOy8q+XL&#xA;Hy4nlq20+FNBSE2w04ryhMLV5IytXlyqeVevfFWM+WPyL/KjyxrS63onl6K21OMsYrhpbif0y1am&#xA;NJpJEQ79VAxVOfOH5d+SfOVvHB5m0iDUlhqIZJAyyxg9Qk0ZSRQe4DYqx7Q/+ce/ya0S6+tWPle2&#xA;aahWt0894oBFDRLqSZR160xVNvKn5T/l95S1KXUvLekLpl5MhjmeGWfi6E14tG0jIRXcfDt2xVlu&#xA;KuxV2KuxV2KuxV2KuxV2KuxV2KuxV2KuxV2KuxV2KuxV2KuxV2KuxV2KuxV2KuxV4F+UP/OSWt+e&#xA;vzEbyrd6NbWduI7mT6zFJIz1g6Cjbb4q99xV2KvnaT/nKDXkt/zAl/QlqT5OkjS2HqSfvw+orZfv&#xA;PD4X5bd8Vev/AJW+cbnzn5B0jzNc26Wk+pRu728RLIpSV49i2/7FcVZViryL8+fz1b8trbTRplva&#xA;6pf3k0kdzaySkNCsaKwLBCWBPMUriqRRf85KXb/mnpHk36np/wCj72G0e+1T6yeMTz2i3MoBNE+A&#xA;txFTX6cVe9AhgCDUHcEdCMVeL/m9/wA5PeWvy/1l9AtdOk1vW4AjXcKyi3gh9RQyq0pWUl+LBuIT&#xA;6cVeV/kx/wA5ReY5fOkmnebmu9XttduYbXSYYFgrayzTFFWnGIup9RVJ5V26HFX15irw382v+cid&#xA;Y8ted18jeT/L51/zAkaSXKn1Hozxev6UcMI5uRDRy3LYYqmf5Yf85F6B5t8j655k1e3/AEPL5aRZ&#xA;NWhD+ohSRWMTRMQpJlaNlVOvLbeoxVNvyP8AzJ80fmHoN35g1XSIdJ0tpjDpQjd5JJglfVdiwUcV&#xA;NFBHUhulMVQX55fn3pv5YxWdpHYnVNc1BGlgtS/pRRxKePqSvRm3bZVA3odxiry+w/5zE806Zqlt&#xA;H5z8nmx067pLHJD60Ewt2PwyxpcDjMPkVBxV9P2F7a39jb31pIJbW7iSe3lHRo5FDIwr4qcVeZ+Y&#xA;Pzh1LS/zx0T8uY9PhkstVt1nkv2dxKhZJmoFHw/7pH34q9TxV2KuxV8Qf84sf+T5f/jBf4q+38Vd&#xA;iryR/wDnGXyG0XmqI3+qcfN7q+pH1besZS7W9Hof6P8AD+8Wnxcvh998VZ/5J8oab5O8rWHlrTJZ&#xA;prHTkZIJLlkaUh5GkPMosandz0UYqnmKvhH/AJyhsvKJ/Mu5v9E1pdQ1C/nlj1u1pRbKe29O3EZN&#xA;PFGr8sVYxpfk38vrz805fLkvmUw+Ug8iQeYCq1k4xVSi9Pjl+HFX6I2sAt7aKAHkIkVAx6kKKVxV&#xA;8Z/85Lfl75o8l/mEfzKsZYpNM1DUIZbSZwkjwXyx+oI5IZAVdT6DMpoRTY+6rGPyN/Mfy35b8+TX&#xA;XnHRkvV1i6t7iLUCi+pYXHqNIlzGjDlxPrVPFgePTl0xV974q+dfzX/Jv80Y/wA3E/Mz8upbefUZ&#xA;kUSwTtGjQyLa/UyQJv3bo8I8ag9sVfPWreXtW8qTXvkbVL9Y3uJLfUPOL2pEwgitgzQwepVVkkHr&#xA;livLi0jRrXkMVe9+Qf8AnK3yJZHR/LX+G7rQfLahbLT9QeRZUREPBXkUIvf+8ZWYg+OKpb/zmrZ+&#xA;TZE0e8k1H0vN8KGOHTUXn6tkzkl5CP7rg/LgT9rcUNKqq8L1Hzhq/n3UbFPPmum3stAsTFB+5rO6&#xA;QgVhiVQqtcTUHxSso23PQFV9sfkf+YXlvzn5NVvLmn3WnaVobR6TBDd8C3G3gj4gFGcGiMoxVF6r&#xA;+UXlvU/zL038w57m8XWtLiEFvbxvELVlVZFq6GJpCf3x6SDtirN8VdirsVeBflDpX5m2/wCYjTa/&#xA;+X+h+X9J9O5A1fT7G0t7nkfsL6sUjvR/2tt8Ve+4q7FXYq7FXYq+UPzh/wCccdV1L827K78t6Nc3&#xA;GgaxOl55jv8A6xFRJ7u9ka64CQqyhIiGFAeuKoT8vf8AnF+8m/NPWE8yaNd2Xku1e6k0Sczx85PT&#xA;ulForGN3aphJY1HbFX11ir40/wCcs/JHnvTdbvvNN5qKz+UtavrZLexjlkAiuYrRo4vUt2+DkIop&#xA;KOpPU9K4qhfy/wD+cd/zO893/l/XPNsiW3lhLSy+qzyyxSyyaZFEpt4YIYS/ENHQfvOJFSSCdiq+&#xA;1cVSfzjqWuab5Y1G80HT21XWo4T+j7BSq+pO3wpyLsg4KTybfoDTfFXz35Z/5xx8zXn5SebH134P&#xA;zD81OLhjcOrFBb3K3KxO6ErW4kQs5rTdf5cVefwfk5+eHm208qeSNX8vDSNH8tPdxrqsnBQsV5OJ&#xA;Z3dldllKlaJ6Y3792xVnH/OSX5E+f9c88jzp5Vtl1WKSGAXFmGjE0UtuOIKxykLIjKqmgqa12pir&#xA;B/NX5X/n9+aHmKK/1fylbaXfpCIp78KlmkqoPgM3KRy7CnEFVrTboBRV7B/zjRYfmZ5P05/KHmfy&#xA;jJY6Y0slxbaxE8DUlfd1uVWVmYHiAjqNtgRTcKvfMVdirsVdirsVdirsVdirsVdirsVdirsVU57e&#xA;3nQJPEkqA1CuoYV6VocVXoiIioihUUAKoFAANgABireKuxV2KuxV2KuxV2KuxV2KuxV2Kv8A/9k=</xapGImg:image>
    </rdf:li>
   </rdf:Alt>
  </xap:Thumbnails>
 </rdf:Description>

 <rdf:Description rdf:about=''
  xmlns:dc='http://purl.org/dc/elements/1.1/'>
  <dc:format>image/svg+xml</dc:format>
 </rdf:Description>

</rdf:RDF>
</x:xmpmeta>
                                                                                                                                                                                                                                                                                                                                                                                                                                                                                                                                                                                                                                                                                                                                                                                                                                                                                                                                                                                                                                                                                                                                                                                                                                                                                                                                                                                                                                                                                                                                                                                                                                                                                                                                                                                                                                                                                                                                                                                                                                                                                                                                <?xpacket end='w'?>
			</metadata>
		<g id="レイヤー1">
			<rect fill="none" width="100" height="150"/> 
			<rect x="100" fill="none" width="100" height="150"/> 
			<rect x="200" fill="none" width="100" height="150"/> 
			<rect x="300" fill="none" width="100" height="150"/> 
			<rect x="400" fill="none" width="100" height="150"/> 
			<rect x="500" fill="none" width="100" height="150"/> 
			<rect x="600" fill="none" width="100" height="150"/> 
			<rect y="150" fill="none" width="100" height="150"/> 
			<rect x="100" y="150" fill="none" width="100" height="150"/> 
			<rect x="200" y="150" fill="none" width="100" height="150"/> 
			<rect x="300" y="150" fill="none" width="100" height="150"/> 
			<rect x="400" y="150" fill="none" width="100" height="150"/> 
			<rect x="500" y="150" fill="none" width="100" height="150"/> 
			<rect x="600" y="150" fill="none" width="100" height="150"/> 
			<rect y="300" fill="none" width="100" height="150"/> 
			<rect x="100" y="300" fill="none" width="100" height="150"/> 
			<rect x="200" y="300" fill="none" width="100" height="150"/> 
			<rect x="300" y="300" fill="none" width="100" height="150"/> 
			<rect x="400" y="300" fill="none" width="100" height="150"/> 
			<rect x="500" y="300" fill="none" width="100" height="150"/> 
			<rect x="600" y="300" fill="none" width="100" height="150"/> 
			<rect y="450" fill="none" width="100" height="150"/> 
			<rect x="100" y="450" fill="none" width="100" height="150"/> 
			<rect x="200" y="450" fill="none" width="100" height="150"/> 
			<rect x="300" y="450" fill="none" width="100" height="150"/> 
			<rect x="400" y="450" fill="none" width="100" height="150"/> 
			<rect x="500" y="450" fill="none" width="100" height="150"/> 
			<rect x="600" y="450" fill="none" width="100" height="150"/> 
			<rect y="600" fill="none" width="100" height="150"/> 
			<rect x="100" y="600" fill="none" width="100" height="150"/> 
			<rect x="200" y="600" fill="none" width="100" height="150"/> 
			<rect x="300" y="600" fill="none" width="100" height="150"/> 
			<rect x="400" y="600" fill="none" width="100" height="150"/> 
			<rect x="500" y="600" fill="none" width="100" height="150"/> 
			<rect x="600" y="600" fill="none" width="100" height="150"/> 
			<rect y="750" fill="none" width="100" height="150"/> 
			<rect x="100" y="750" fill="none" width="100" height="150"/> 
			<rect x="200" y="750" fill="none" width="100" height="150"/> 
			<rect x="300" y="750" fill="none" width="100" height="150"/> 
			<rect x="400" y="750" fill="none" width="100" height="150"/> 
			<rect x="500" y="750" fill="none" width="100" height="150"/> 
			<rect x="600" y="750" fill="none" width="100" height="150"/> 
			<rect y="900" fill="none" width="100" height="150"/> 
			<rect x="100" y="900" fill="none" width="100" height="150"/> 
			<rect x="200" y="900" fill="none" width="100" height="150"/> 
			<rect x="300" y="900" fill="none" width="100" height="150"/> 
			<rect x="400" y="900" fill="none" width="100" height="150"/> 
			<rect x="500" y="900" fill="none" width="100" height="150"/> 
			<rect x="600" y="900" fill="none" width="100" height="150"/> 
			<rect x="202" y="86" width="54" height="3"/> 
			<rect x="204.6000977" y="55" width="54" height="3"/> 
			<rect x="102" y="34" width="3" height="27"/> 
			<rect x="117" y="34" width="3" height="27"/> 
			<rect x="602" y="34" width="3" height="27"/> 
			<polygon points="417.0400391,110 420.5097656,110 464.9599609,34 461.4902344,34 "/>
			<rect x="2" y="34" width="3" height="60"/> 
			<rect x="2" y="103" width="3" height="7"/> 
			<rect x="217.824707" y="33.8548584" width="3" height="76.290329"/> 
			<rect x="239.824707" y="33.8548584" width="3" height="76.290329"/> 
			<rect x="325" y="26" width="3" height="92"/> 
			<path d="M303,97.3999023L302,100.5c4.8535156,5.0993652,13.5595703,8.5,23,8.5c18.0268555,0,26-6.5686035,26-19
				c0-10.3366699-5.2324219-16.2978516-24.6000977-21.8999023C309.1704102,63.1164551,305,59.2028809,305,52
				c0-8.6811523,6.8237305-14,21-14c9.8447266,0,15.6069336,1.8344727,22,6.6000977l1-3C342.875,37.0341797,336.2441406,35,326,35
				c-15.8349609,0-24,6.6542969-24,17c0,8.7910156,4.862793,13.5803223,23.6000977,19C343.5952148,76.2050781,348,81.1132813,348,90
				c0,10.6159668-6.4477539,16-23,16C315.9707031,106,308.2368164,102.9013672,303,97.3999023z"/>
			<path d="M419,36c8.3022461,0,14,6.1806641,14,17s-5.6977539,17-14,17v3c10.121582,0,17-7.5070801,17-20s-6.878418-20-17-20
				s-17,7.5070801-17,20s6.878418,20,17,20v-3c-8.3022461,0-14-6.1806641-14-17S410.6977539,36,419,36z"/>
			<path d="M463,74c8.3022461,0,14,6.1806641,14,17s-5.6977539,17-14,17v3c10.121582,0,17-7.5070801,17-20s-6.878418-20-17-20
				s-17,7.5070801-17,20s6.878418,20,17,20v-3c-8.3022461,0-14-6.1806641-14-17S454.6977539,74,463,74z"/>
			<path d="M505,91c0-7.0913086,4.9926758-13.4277344,19-20.1999512C540.0869141,63.0219727,546,55.7155762,546,47
				c0-8.5427246-6.2539063-14-18-14c-11.2661133,0-18,6.527832-18,15c0,4.6132813,2.8325195,10.4558105,9.4091797,17.5087891
				L560.8999023,110H565l-43.3964844-46.5373535C515.5429688,56.9638672,513,51.8322754,513,48c0-6.8994141,5.5297852-12,15-12
				c10.1333008,0,15,4.1665039,15,11c0,7.4902344-5.1953125,13.793457-20.3056641,21.0991211
				C507.4091797,75.4892578,502,82.8046875,502,91c0,12.7700195,8.168457,20,24,20c21.3632813,0,35-13.2231445,35-39h-3
				c0,23.7148438-11.8642578,36-32,36C511.7319336,108,505,101.9470215,505,91z"/>
			<rect x="202" y="234.8378906" width="54.8334961" height="5"/> 
			<rect x="202" y="383.6757813" width="55.6665039" height="7"/> 
			<rect x="202" y="532.5" width="56.5" height="9"/> 
			<rect x="202" y="681.3378906" width="57.3334961" height="11"/> 
			<rect x="202" y="830.1621094" width="58.1665039" height="13"/> 
			<rect x="202" y="979" width="59" height="15"/> 
			<rect x="204.5834961" y="204.1711426" width="54.8330078" height="5.0002441"/> 
			<rect x="204.5668945" y="353.3422852" width="55.6665039" height="7.0004883"/> 
			<rect x="204.5498047" y="502.5" width="56.5" height="9"/> 
			<rect x="204.5332031" y="651.6713867" width="57.3334961" height="11"/> 
			<rect x="204.5166016" y="800.8286133" width="58.1665039" height="13"/> 
			<rect x="204.5" y="950" width="59" height="15"/> 
			<rect x="102" y="184.0046387" width="4.8334961" height="27.333252"/> 
			<rect x="102" y="334.0092773" width="6.666748" height="27.6665039"/> 
			<rect x="102" y="484" width="8.5" height="28"/> 
			<rect x="102" y="634.0043945" width="10.3334961" height="28.3334961"/> 
			<rect x="102" y="783.9956055" width="12.1665039" height="28.6665039"/> 
			<rect x="102" y="934" width="14" height="29"/> 
			<rect x="118.166748" y="184.0046387" width="4.833252" height="27.333252"/> 
			<rect x="119.3334961" y="334.0092773" width="6.666748" height="27.6665039"/> 
			<rect x="120.5" y="484" width="8.5" height="28"/> 
			<rect x="121.666748" y="634.0043945" width="10.333252" height="28.3334961"/> 
			<rect x="122.833252" y="783.9956055" width="12.166748" height="28.6665039"/> 
			<rect x="124" y="934" width="14" height="29"/> 
			<rect x="602" y="184.0046387" width="4.8334961" height="27.333252"/> 
			<rect x="602" y="334.0092773" width="6.6669922" height="27.6665039"/> 
			<rect x="602" y="484" width="8.5" height="28"/> 
			<rect x="602" y="634.0043945" width="10.3334961" height="28.3334961"/> 
			<rect x="602" y="783.9956055" width="12.1665039" height="28.6665039"/> 
			<rect x="602" y="934" width="14" height="29"/> 
			<polygon points="417.1625977,260.0046387 422.3876953,260.0046387 466.8374023,184.0046387 461.6123047,184.0046387 "/>
			<polygon points="417.2851563,410.0092773 424.2651367,410.0092773 468.7148438,334.0092773 461.7348633,334.0092773 "/>
			<polygon points="417.4077148,560 426.1425781,560 470.5922852,484 461.8574219,484 "/>
			<polygon points="417.5297852,710.0043945 428.0200195,710.0043945 472.4702148,634.0043945 461.9799805,634.0043945 "/>
			<polygon points="417.6523438,859.9956055 429.8974609,859.9956055 474.347168,783.9956055 462.1025391,783.9956055 "/>
			<polygon points="417.7749023,1010 431.7749023,1010 476.2250977,934 462.2250977,934 "/>
			<rect x="2" y="184.0046387" width="5.8334961" height="59"/> 
			<rect x="2" y="334.0092773" width="8.666748" height="58"/> 
			<rect x="2" y="484" width="11.5" height="57"/> 
			<rect x="2" y="634.0043945" width="14.3334961" height="56"/> 
			<rect x="2" y="783.9956055" width="17.1665039" height="55"/> 
			<rect x="2" y="934" width="20" height="54"/> 
			<rect x="2" y="251.8378906" width="5.8334961" height="8.166748"/> 
			<rect x="2" y="400.6757813" width="8.666748" height="9.3334961"/> 
			<rect x="2" y="549.5" width="11.5" height="10.5"/> 
			<rect x="2" y="698.3378906" width="14.3334961" height="11.6665039"/> 
			<rect x="2" y="847.1621094" width="17.1665039" height="12.8334961"/> 
			<rect x="2" y="996" width="20" height="14"/> 
			<rect x="216.9746094" y="183.8594971" width="5.1669922" height="76.290329"/> 
			<polygon points="226.7827148,334.0092773 219.4492188,334.0092773 212.7998047,410.0092773 220.1333008,410.0092773 "/>
			<polygon points="228.0996094,484 218.5996094,484 211.9501953,560 221.4501953,560 "/>
			<polygon points="229.4160156,634.0043945 217.7495117,634.0043945 211.1000977,710.0043945 222.7666016,710.0043945 "/>
			<polygon points="230.7329102,783.9956055 216.8994141,783.9956055 210.25,859.9956055 224.0834961,859.9956055 "/>
			<polygon points="232.0493164,934 216.0493164,934 209.3999023,1010 225.3999023,1010 "/>
			<rect x="239.3081055" y="183.8594971" width="5.1665039" height="76.290329"/> 
			<polygon points="249.449707,334.0092773 242.1162109,334.0092773 235.4667969,410.0092773 242.800293,410.0092773 "/>
			<polygon points="251.0996094,484 241.5996094,484 234.9501953,560 244.4501953,560 "/>
			<polygon points="252.7495117,634.0043945 241.0830078,634.0043945 234.4331055,710.0043945 246.1000977,710.0043945 "/>
			<polygon points="254.3994141,783.9956055 240.5664063,783.9956055 233.9165039,859.9956055 247.75,859.9956055 "/>
			<polygon points="256.0493164,934 240.0493164,934 233.3999023,1010 249.3999023,1010 "/>
			<rect x="330.5" y="926" width="15" height="46"/> 
			<rect x="316.5" y="972" width="15" height="46"/> 
			<path d="M354.3999023,957.3999023l3.7001953-15.7998047C351.8227539,937.5678711,342.1411133,935,331.8999023,935
				C312.0585938,935,302,944.8510742,302,957.2001953c0,11.6035156,5.824707,17.6767578,28.1000977,23.699707
				C337.5454102,982.9130859,340,984.9897461,340,986.7998047C340,990.6186523,336.4091797,993,327.2998047,993
				c-6.2963867,0-16.3217773-3.3959961-21.5996094-8.2998047L302,1000.5c5.605957,4.6513672,17.1206055,8.5,26.2001953,8.5
				C349.6977539,1009,360,1000.6455078,360,985.7998047c0-11.4189453-5.3569336-16.9462891-29.8999023-23.199707
				C324.1938477,961.0952148,322,958.9863281,322,956.2998047C322,953.4970703,325.5058594,951,332.8999023,951
				C339.0849609,951,348.9345703,953.4248047,354.3999023,957.3999023z"/>
			<path d="M419.5834961,187.6044922c7.4453125,0,12.5332031,5.5922852,12.5332031,15.5668945
				c0,9.9743652-5.0878906,15.5664063-12.5332031,15.5664063v4.6000977c10.546875,0,17.5830078-7.612793,17.5830078-20.1665039
				c0-12.5541992-7.0361328-20.166748-17.5830078-20.166748c-10.5473633,0-17.5834961,7.6125488-17.5834961,20.166748
				c0,12.5537109,7.0361328,20.1665039,17.5834961,20.1665039v-4.6000977c-7.4453125,0-12.5332031-5.592041-12.5332031-15.5664063
				C407.050293,193.1967773,412.1381836,187.6044922,419.5834961,187.6044922z"/>
			<path d="M420.1665039,339.2089844c6.5883789,0,11.0668945,5.0039063,11.0668945,14.1337891
				s-4.4785156,14.1328125-11.0668945,14.1328125v6.2001953c10.9731445,0,18.1669922-7.7182617,18.1669922-20.3330078
				c0-12.6152344-7.1938477-20.3334961-18.1669922-20.3334961C409.1938477,333.0092773,402,340.7275391,402,353.3427734
				c0,12.6147461,7.1938477,20.3330078,18.1665039,20.3330078v-6.2001953c-6.5883789,0-11.0664063-5.0029297-11.0664063-14.1328125
				S413.578125,339.2089844,420.1665039,339.2089844z"/>
			<path d="M420.75,490.7998047c5.7314453,0,9.6000977,4.4150391,9.6000977,12.7001953s-3.8686523,12.7001953-9.6000977,12.7001953
				V524c11.3984375,0,18.75-7.8237305,18.75-20.5c0-12.6757813-7.3515625-20.5-18.75-20.5S402,490.8242188,402,503.5
				c0,12.6762695,7.3515625,20.5,18.75,20.5v-7.7998047c-5.7314453,0-9.6000977-4.4150391-9.6000977-12.7001953
				S415.0185547,490.7998047,420.75,490.7998047z"/>
			<path d="M421.3334961,642.4047852c4.8745117,0,8.1333008,3.8256836,8.1333008,11.2666016
				c0,7.4404297-3.2587891,11.2666016-8.1333008,11.2666016v9.3999023c11.8242188,0,19.3330078-7.9296875,19.3330078-20.6665039
				c0-12.7373047-7.5087891-20.6669922-19.3330078-20.6669922S402,640.934082,402,653.6713867
				c0,12.7368164,7.5092773,20.6665039,19.3334961,20.6665039v-9.3999023c-4.875,0-8.1333008-3.8261719-8.1333008-11.2666016
				C413.2001953,646.2304688,416.4584961,642.4047852,421.3334961,642.4047852z"/>
			<path d="M421.9165039,793.9956055c4.0180664,0,6.6669922,3.2373047,6.6669922,9.8330078
				c0,6.5961914-2.6489258,9.8334961-6.6669922,9.8334961v11c12.25,0,19.9169922-8.0351563,19.9169922-20.8334961
				c0-12.7978516-7.6669922-20.8330078-19.9169922-20.8330078C409.6669922,782.9956055,402,791.0307617,402,803.8286133
				c0,12.7983398,7.6669922,20.8334961,19.9165039,20.8334961v-11c-4.0175781,0-6.6665039-3.2373047-6.6665039-9.8334961
				C415.25,797.2329102,417.8989258,793.9956055,421.9165039,793.9956055z"/>
			<path d="M422.5,945.6000977c3.1611328,0,5.2001953,2.6489258,5.2001953,8.3999023s-2.0390625,8.3999023-5.2001953,8.3999023V975
				c12.675293,0,20.5-8.140625,20.5-21s-7.824707-21-20.5-21s-20.5,8.140625-20.5,21s7.824707,21,20.5,21v-12.6000977
				c-3.1611328,0-5.2001953-2.6489258-5.2001953-8.3999023S419.3388672,945.6000977,422.5,945.6000977z"/>
			<path d="M464.4165039,225.2712402c7.4453125,0,12.5336914,5.592041,12.5336914,15.5666504
				s-5.0883789,15.5666504-12.5336914,15.5666504v4.6000977c10.5473633,0,17.5834961-7.612793,17.5834961-20.166748
				s-7.0361328-20.166748-17.5834961-20.166748s-17.5830078,7.612793-17.5830078,20.166748
				s7.0356445,20.166748,17.5830078,20.166748v-4.6000977c-7.4453125,0-12.5332031-5.592041-12.5332031-15.5666504
				S456.9711914,225.2712402,464.4165039,225.2712402z"/>
			<path d="M465.8334961,376.5424805c6.5883789,0,11.0664063,5.003418,11.0664063,14.1333008
				s-4.4780273,14.1333008-11.0664063,14.1333008v6.2001953c10.9726563,0,18.1665039-7.7182617,18.1665039-20.3334961
				s-7.1938477-20.3330078-18.1665039-20.3330078c-10.9731445,0-18.1669922,7.7177734-18.1669922,20.3330078
				s7.1938477,20.3334961,18.1669922,20.3334961v-6.2001953c-6.5883789,0-11.0668945-5.003418-11.0668945-14.1333008
				S459.2451172,376.5424805,465.8334961,376.5424805z"/>
			<path d="M467.25,527.7998047c5.7314453,0,9.6000977,4.4150391,9.6000977,12.7001953s-3.8686523,12.7001953-9.6000977,12.7001953
				V561c11.3984375,0,18.75-7.8237305,18.75-20.5c0-12.6757813-7.3515625-20.5-18.75-20.5s-18.75,7.8242188-18.75,20.5
				c0,12.6762695,7.3515625,20.5,18.75,20.5v-7.7998047c-5.7314453,0-9.6000977-4.4150391-9.6000977-12.7001953
				S461.5185547,527.7998047,467.25,527.7998047z"/>
			<path d="M468.6665039,679.0712891c4.875,0,8.1333008,3.8261719,8.1333008,11.2666016s-3.2583008,11.2666016-8.1333008,11.2666016
				v9.3999023c11.8242188,0,19.3334961-7.9291992,19.3334961-20.6665039s-7.5092773-20.6665039-19.3334961-20.6665039
				s-19.3330078,7.9291992-19.3330078,20.6665039s7.5087891,20.6665039,19.3330078,20.6665039v-9.3999023
				c-4.8745117,0-8.1333008-3.8261719-8.1333008-11.2666016S463.7919922,679.0712891,468.6665039,679.0712891z"/>
			<path d="M470.0834961,830.3286133c4.0175781,0,6.6665039,3.237793,6.6665039,9.8334961s-2.6489258,9.8334961-6.6665039,9.8334961
				v11c12.2495117,0,19.9165039-8.0356445,19.9165039-20.8334961c0-12.7983398-7.6669922-20.8334961-19.9165039-20.8334961
				c-12.25,0-19.9169922,8.0351563-19.9169922,20.8334961c0,12.7978516,7.6669922,20.8334961,19.9169922,20.8334961v-11
				c-4.0180664,0-6.6669922-3.237793-6.6669922-9.8334961S466.0654297,830.3286133,470.0834961,830.3286133z"/>
			<path d="M471.5,981.6000977c3.1611328,0,5.2001953,2.6489258,5.2001953,8.3999023s-2.0390625,8.3999023-5.2001953,8.3999023V1011
				c12.675293,0,20.5-8.140625,20.5-21s-7.824707-21-20.5-21s-20.5,8.140625-20.5,21s7.824707,21,20.5,21v-12.6000977
				c-3.1611328,0-5.2001953-2.6489258-5.2001953-8.3999023S468.3388672,981.6000977,471.5,981.6000977z"/>
			<path d="M528.8334961,187.904541c9.3046875,0,13.8330078,3.8371582,13.8330078,10.2333984
				c0,6.8608398-4.8505859,12.6889648-19.4882813,19.8991699C507.2460938,225.9487305,502,232.9741211,502,241.0046387
				c0,12.7246094,8.4746094,20,25.1665039,20c21.2587891,0,35.5-13.5566406,35.5-39h-5.5
				c0,22.3996582-11.3056641,34.0998535-30,34.0998535c-12.9912109,0-19.2602539-5.3928223-19.2602539-15.3999023
				c0-6.4211426,4.5087891-12.1201172,18.1269531-18.7666016C542.7280273,213.7612305,548.5,206.7043457,548.5,198.1713867
				c0-9.2114258-6.8427734-15.166748-19.6665039-15.166748c-12.2573242,0-19.5,6.8474121-19.5,15.666748
				c0,5.0356445,2.6098633,10.4001465,9.8671875,17.8769531l41.671875,43.4562988h7.2944336l-43.6318359-45.4958496
				C517.2329102,207.0651855,515,202.5810547,515,198.8046875C515,192.5366211,520.1083984,187.904541,528.8334961,187.904541z"/>
			<path d="M529.6665039,339.8095703c8.4770508,0,12.6669922,3.5068359,12.6669922,9.4663086
				c0,6.2314453-4.5058594,11.5844727-18.6708984,18.6992188C507.0830078,376.4082031,502,383.1435547,502,391.0092773
				c0,12.6796875,8.7802734,20,26.3334961,20c21.1533203,0,36-13.8901367,36-39h-8c0,21.0844727-10.7475586,32.199707-28,32.199707
				c-11.7148438,0-17.5209961-4.7324219-17.5209961-13.7998047c0-5.7514648,4.0249023-10.8129883,17.2543945-17.3330078
				C545.3691406,364.5004883,551,357.6933594,551,349.3427734c0-9.8803711-7.4316406-16.3334961-21.3334961-16.3334961
				c-13.2480469,0-21,7.1665039-21,16.3334961c0,5.4580078,2.3876953,10.3442383,10.3251953,18.2451172l41.8535156,42.4213867
				h10.4882813l-43.8662109-44.4541016C518.9228516,357.1665039,517,353.3300781,517,349.609375
				C517,343.9726563,521.6870117,339.8095703,529.6665039,339.8095703z"/>
			<path d="M530.5,491.7001953c7.6484375,0,11.5,3.1777344,11.5,8.699707c0,5.6020508-4.1611328,10.4799805-17.8530273,17.4995117
				C506.9199219,526.8535156,502,533.2993164,502,541c0,12.6347656,9.0864258,20,27.5,20c21.0483398,0,36.5-14.2236328,36.5-39
				h-10.5c0,19.7695313-10.1884766,30.2998047-26,30.2998047c-10.4384766,0-15.78125-4.0722656-15.78125-12.199707
				c0-5.081543,3.5410156-9.5058594,16.3813477-15.8999023C548.0097656,515.2260742,553.5,508.6679688,553.5,500.5
				c0-10.5488281-8.0209961-17.5-23-17.5c-14.2392578,0-22.5,7.4863281-22.5,17
				c0,5.8803711,2.1655273,10.2890625,10.7832031,18.6137695L560.8173828,560H574.5l-44.1010742-43.4125977
				C520.6123047,507.2543945,519,504.0649414,519,500.3999023C519,495.3945313,523.265625,491.7001953,530.5,491.7001953z"/>
			<path d="M531.3334961,643.6044922c6.8198242,0,10.3330078,2.8481445,10.3330078,7.9335938
				c0,4.972168-3.815918,9.375-17.0351563,16.2993164C506.7568359,677.3129883,502,683.4692383,502,691.0043945
				c0,12.5893555,9.3925781,20,28.6665039,20c20.9438477,0,37-14.5566406,37-39h-13
				c0,18.4545898-9.6293945,28.3999023-24,28.3999023c-9.1616211,0-14.0415039-3.4125977-14.0415039-10.5996094
				c0-4.4111328,3.0571289-8.1982422,15.5083008-14.4667969C550.6508789,665.965332,556,659.6567383,556,651.6713867
				c0-11.2177734-8.6098633-18.6669922-24.6665039-18.6669922c-15.2304688,0-24,7.8056641-24,17.6669922
				c0,6.3027344,1.9428711,10.2333984,11.2407227,18.9824219l42.2158203,40.3505859h16.8769531l-44.3359375-42.3710938
				C522.3022461,657.3554688,521,654.8139648,521,651.2045898C521,646.8305664,524.8447266,643.6044922,531.3334961,643.6044922z"/>
			<path d="M532.1665039,795.4956055c5.9921875,0,9.1669922,2.5180664,9.1669922,7.1665039
				c0,4.3427734-3.4716797,8.2705078-16.2177734,15.1000977C506.5932617,827.7583008,502,833.625,502,840.9956055
				c0,12.5439453,9.6982422,20,29.8334961,20c20.8383789,0,37.5-14.890625,37.5-39h-15.5c0,17.1391602-9.0712891,26.5-22,26.5
				c-7.8857422,0-12.3022461-2.7529297-12.3022461-9c0-3.7416992,2.5732422-6.8911133,14.6352539-13.0336914
				C553.2919922,816.6904297,558.5,810.6318359,558.5,802.8286133c0-11.8867188-9.1992188-19.8330078-26.3334961-19.8330078
				c-16.2211914,0-25.5,8.125-25.5,18.3330078c0,6.7250977,1.7211914,10.1782227,11.6992188,19.3510742l42.3969727,39.315918
				h20.0703125l-44.5703125-41.3295898C523.9916992,807.4433594,523,805.5488281,523,801.9956055
				C523,798.2529297,526.4233398,795.4956055,532.1665039,795.4956055z"/>
			<path d="M533,947.3999023c5.1635742,0,8,2.1889648,8,6.3999023c0,3.7133789-3.1264648,7.1660156-15.3999023,13.9003906
				C506.4301758,978.2177734,502,983.7944336,502,991c0,12.4990234,10.0043945,20,31,20c20.7333984,0,38-15.2236328,38-39h-18
				c0,15.8242188-8.512207,24.6000977-20,24.6000977c-6.6088867,0-10.5625-2.0927734-10.5625-7.3999023
				c0-3.0717773,2.0893555-5.5839844,13.7626953-11.6000977C555.9326172,967.4296875,561,961.6206055,561,954
				c0-12.5556641-9.7880859-21-28-21c-17.2124023,0-27,8.4443359-27,19c0,7.1474609,1.4985352,10.1225586,12.1567383,19.7192383
				L560.7348633,1010H584l-44.8056641-40.2880859C525.6816406,957.5449219,525,956.2978516,525,952.7998047
				C525,949.6884766,528.0019531,947.3999023,533,947.3999023z"/>
			<path d="M349.0668945,196.7380371l1.449707-5.1335449c-6.1503906-4.4765625-13.2895508-6.5998535-23.5332031-6.5998535
				C310.4804688,185.0046387,302,192.1918945,302,202.8713379c0,9.2597656,5.0234375,14.2629395,24.3500977,19.7834473
				c16.2368164,4.6730957,20.3164063,9.109375,20.3164063,16.8164063c0,9.4831543-5.9716797,14.3666992-21.2832031,14.3666992
				c-8.5737305,0-16.6899414-3.1479492-21.9331055-8.5500488L302,250.5046387c4.9790039,5.0246582,14.152832,8.5,23.5332031,8.5
				c18.6054688,0,26.9667969-6.8662109,26.9667969-19.6999512c0-10.5170898-5.253418-16.4060059-25.4833984-22.1166992
				c-15.3422852-4.4038086-19.1831055-8.0166016-19.1831055-14.4667969c0-7.7011719,6.2705078-12.5498047,19.3164063-12.5498047
				C336.3847656,190.1713867,342.828125,192.104248,349.0668945,196.7380371z"/>
			<path d="M350.1333008,348.8759766l1.8999023-7.2666016c-6.175293-4.3876953-13.8232422-6.6000977-24.0664063-6.6000977
				C310.7963867,335.0092773,302,342.7294922,302,353.7426758c0,9.7285156,5.1835938,14.9458008,25.1000977,20.5668945
				c14.4785156,4.1411133,18.2333984,8.1049805,18.2333984,14.6328125c0,8.3500977-5.4956055,12.7333984-19.5668945,12.7333984
				c-8.1181641,0-16.6162109-3.1977539-21.8666992-8.5L302,400.5092773c5.1044922,4.949707,14.746582,8.5,24.0668945,8.5
				C345.2504883,409.0092773,354,401.8452148,354,388.609375c0-10.6977539-5.2739258-16.5146484-26.3666992-22.3334961
				c-13.4545898-3.8237305-16.9663086-7.1362305-16.9663086-12.8334961c0-6.7216797,5.7177734-11.0996094,17.6333008-11.0996094
				C336.9248047,342.3427734,344.0498047,344.3740234,350.1333008,348.8759766z"/>
			<path d="M351.2001953,501l2.3496094-9.3999023C347.3486328,487.3012695,339.1928711,485,328.9501953,485
				C311.1118164,485,302,493.2529297,302,504.6000977c0,10.1972656,5.34375,15.628418,25.8500977,21.3500977
				C340.5703125,529.559082,344,533.0517578,344,538.3999023C344,545.6171875,338.9804688,549.5,326.1499023,549.5
				c-7.6630859,0-16.5424805-3.2470703-21.7998047-8.4501953L302,550.5c5.2299805,4.8754883,15.3398438,8.5,24.6000977,8.5
				C346.3623047,559,355.5,551.5385742,355.5,537.8999023c0-10.8774414-5.2949219-16.6220703-27.25-22.5498047
				c-11.5678711-3.2441406-14.75-6.2553711-14.75-11.2001953c0-5.7421875,5.1650391-9.6499023,15.9501953-9.6499023
				C337.4648438,494.5,345.2709961,496.6298828,351.2001953,501z"/>
			<path d="M352.2666016,653.1376953l2.800293-11.5332031c-6.2270508-4.2099609-14.8911133-6.6000977-25.1337891-6.6000977
				C311.4272461,635.0043945,302,643.7900391,302,655.4711914c0,10.6660156,5.5043945,16.3115234,26.6000977,22.1333008
				c10.9619141,3.0771484,14.0664063,6.0976563,14.0664063,10.2666016c0,6.0844727-4.5429688,9.4667969-16.1333008,9.4667969
				c-7.2075195,0-16.4692383-3.296875-21.7333984-8.3999023L302,700.5043945c5.3549805,4.8007813,15.9335938,8.5,25.1333008,8.5
				c20.3408203,0,29.8666992-7.7592773,29.8666992-21.7998047c0-11.0581055-5.3154297-16.7304688-28.1333008-22.7666016
				c-9.6806641-2.6645508-12.5332031-5.375-12.5332031-9.5668945c0-4.762207,4.6118164-8.199707,14.2666016-8.199707
				C338.0048828,646.6713867,346.4921875,648.8994141,352.2666016,653.1376953z"/>
			<rect x="324.75" y="176.0046387" width="5" height="92"/> 
			<rect x="324.5" y="326.0092773" width="7" height="92"/> 
			<rect x="324.25" y="476" width="9" height="92"/> 
			<rect x="327" y="626.0043945" width="11" height="46"/> 
			<rect x="321" y="672.0043945" width="11" height="46"/> 
			<path d="M353.3330078,805.2617188l3.25-13.6665039c-6.2519531-4.1206055-15.4248047-6.6000977-25.6665039-6.6000977
				C311.7426758,784.9951172,302,794.3134766,302,806.3286133c0,11.1347656,5.6645508,16.9941406,27.3500977,22.9165039
				c9.2036133,2.5454102,11.9833984,5.09375,11.9833984,8.0834961c0,4.9516602-4.0668945,7.8334961-14.4169922,7.8334961
				c-6.7519531,0-16.3955078-3.3461914-21.6665039-8.3500977L302,850.4956055
				c5.4804688,4.7255859,16.5268555,8.4995117,25.6665039,8.4995117c20.9194336,0,30.8334961-8.0566406,30.8334961-22.4995117
				c0-11.2387695-5.3364258-16.8388672-29.0166016-22.9833984c-7.793457-2.0849609-10.3168945-4.4946289-10.3168945-7.9335938
				c0-3.7827148,4.059082-6.75,12.5834961-6.75C338.5449219,798.8286133,347.7133789,801.1547852,353.3330078,805.2617188z"/>
			<rect x="327.75" y="775.9951172" width="13" height="46"/> 
			<rect x="319.75" y="821.9951172" width="13" height="46"/> 
		</g>
	</svg>
