<?xml version="1.0" encoding="utf-8"?>
<!-- Generator: Adobe Illustrator 11.0, SVG Export Plug-In . SVG Version: 6.0.0 Build 78)  -->
<!DOCTYPE svg PUBLIC "-//W3C//DTD SVG 1.0//EN"    "http://www.w3.org/TR/2001/REC-SVG-20010904/DTD/svg10.dtd" [
	<!ENTITY ns_flows "http://ns.adobe.com/Flows/1.0/">
	<!ENTITY ns_svg "http://www.w3.org/2000/svg">
	<!ENTITY ns_xlink "http://www.w3.org/1999/xlink">
]>
<svg  xmlns="&ns_svg;" xmlns:xlink="&ns_xlink;" xmlns:a="http://ns.adobe.com/AdobeSVGViewerExtensions/3.0/"
	 width="800" height="1050" viewBox="0 0 800 1050" overflow="visible" enable-background="new 0 0 800 1050" xml:space="preserve">
	<metadata>
<?xpacket begin='﻿' id='W5M0MpCehiHzreSzNTczkc9d'?><x:xmpmeta xmlns:x='adobe:ns:meta/' x:xmptk='XMP toolkit 3.0-29, framework 1.6'>
<rdf:RDF xmlns:rdf='http://www.w3.org/1999/02/22-rdf-syntax-ns#' xmlns:iX='http://ns.adobe.com/iX/1.0/'>

 <rdf:Description rdf:about=''
  xmlns:pdf='http://ns.adobe.com/pdf/1.3/'>
 </rdf:Description>

 <rdf:Description rdf:about=''
  xmlns:tiff='http://ns.adobe.com/tiff/1.0/'>
 </rdf:Description>

 <rdf:Description rdf:about=''
  xmlns:xap='http://ns.adobe.com/xap/1.0/'
  xmlns:xapGImg='http://ns.adobe.com/xap/1.0/g/img/'>
  <xap:CreateDate>2005-10-18T07:01:07Z</xap:CreateDate>
  <xap:ModifyDate>2005-10-18T07:01:07Z</xap:ModifyDate>
  <xap:CreatorTool>Illustrator</xap:CreatorTool>
  <xap:Thumbnails>
   <rdf:Alt>
    <rdf:li rdf:parseType='Resource'>
     <xapGImg:format>JPEG</xapGImg:format>
     <xapGImg:width>196</xapGImg:width>
     <xapGImg:height>256</xapGImg:height>
     <xapGImg:image>/9j/4AAQSkZJRgABAgEASABIAAD/7QAsUGhvdG9zaG9wIDMuMAA4QklNA+0AAAAAABAASAAAAAEA&#xA;AQBIAAAAAQAB/+4ADkFkb2JlAGTAAAAAAf/bAIQABgQEBAUEBgUFBgkGBQYJCwgGBggLDAoKCwoK&#xA;DBAMDAwMDAwQDA4PEA8ODBMTFBQTExwbGxscHx8fHx8fHx8fHwEHBwcNDA0YEBAYGhURFRofHx8f&#xA;Hx8fHx8fHx8fHx8fHx8fHx8fHx8fHx8fHx8fHx8fHx8fHx8fHx8fHx8fHx8f/8AAEQgBAADEAwER&#xA;AAIRAQMRAf/EAaIAAAAHAQEBAQEAAAAAAAAAAAQFAwIGAQAHCAkKCwEAAgIDAQEBAQEAAAAAAAAA&#xA;AQACAwQFBgcICQoLEAACAQMDAgQCBgcDBAIGAnMBAgMRBAAFIRIxQVEGE2EicYEUMpGhBxWxQiPB&#xA;UtHhMxZi8CRygvElQzRTkqKyY3PCNUQnk6OzNhdUZHTD0uIIJoMJChgZhJRFRqS0VtNVKBry4/PE&#xA;1OT0ZXWFlaW1xdXl9WZ2hpamtsbW5vY3R1dnd4eXp7fH1+f3OEhYaHiImKi4yNjo+Ck5SVlpeYmZ&#xA;qbnJ2en5KjpKWmp6ipqqusra6voRAAICAQIDBQUEBQYECAMDbQEAAhEDBCESMUEFURNhIgZxgZEy&#xA;obHwFMHR4SNCFVJicvEzJDRDghaSUyWiY7LCB3PSNeJEgxdUkwgJChgZJjZFGidkdFU38qOzwygp&#xA;0+PzhJSktMTU5PRldYWVpbXF1eX1RlZmdoaWprbG1ub2R1dnd4eXp7fH1+f3OEhYaHiImKi4yNjo&#xA;+DlJWWl5iZmpucnZ6fkqOkpaanqKmqq6ytrq+v/aAAwDAQACEQMRAD8A9U4q7FXYq7FXYq7FXYq7&#xA;FXYq7FXYq7FXYq7FXYq7FXYq7FXYq7FXYq7FXYq7FXYqkvlry/Pobalbpc+tpdxdvd6dbMDythPR&#xA;5oQ1Tyj9Yu6bDiG49AMVTrFXYqxu/wDPEMF/PY2Wjarqs9q3C4e0tSsKtSvET3LW8UhAI/u2bFUf&#xA;5f8AM2ma7DcNaCWKezl9C9s7mJ4LiCXiHCyRuAfiRgysKqwNQTiqa4q818meebK0sb/S7a0vta1S&#xA;31nXXubawi9X0EbWrz0xNNK0UMZZR8KGTkV3ApirMvLvmrSteFylqJoL2yZUvtPu4nt7mBnFU9SJ&#xA;wDxcCqOtVbsTQ4qnGKpDrnnPStJ1CPShFcajrM0frppdhEZ5xDUr6sn2Y4oyw4hpXUE7DFVXQfM8&#xA;OrzTWzafqGm3duoeSC/tniHFiQCky87eTcdEkJHfFU5xVIdd856XpF/DpghudS1ieMzR6Zp8RnmE&#xA;IPH1ZDVY4oy3whpXUE7CtDirGLzzhY6r558pacIbrTdThu7qW40y+iMMpiOnXAEi0LRyx8hTlG7A&#xA;HY74q9FxVJfMPm3S9Elt7WVJ7zUrwMbPTLKJp7mRY6c34LsiLyHJ3KqKgVqRiqnofnPTtV1CTS5L&#xA;a60vV4o/XOm6hF6MrQhgpliZS8UqBiAxjduJI5UqMVT7FXnf5v8AmC0h0u30O4s9Qnt7++06K+Nr&#xA;aXEsUtrJeR+tb+rEpUmVFKMgNWBp3xVP/I6+V4bS5t/LuhSaDarIJJbZtPfTUeR148kjZIg2yCpU&#xA;YqyXFUo8w+atJ0FbZbv1pru9Zo7GwtInuLmdkFX9OKME8UG7MaKvciuKpO/5n6Ha3NtZ6xZ32i31&#xA;7PBbWNtfwhTcPc3EdsohkieWFyrzqXUPyC1alAcVZfirsVdirsVdirCbK985ea5Lm703UIdB8vw3&#xA;M9raSJAtzfXJtZWgklJmJhhQyRsFUxuxG5K1piqn5K0660/z55rt7nVbnV5fqulO11eLapKC31oc&#xA;aWkNrHsFH7FffpirOsVYH+UEenrpfmRrUL68nmfXTfkUqZhqMoXl7+iI8VR90Ih+bOlmGnqtoOof&#xA;X+PUqt5ZfVOfyLXHD/ZYqy3FWI+RlhOtecZZKfpM6xwuq/bEKWkBtV3/AGPRYMoG1S3cnFWXYq7F&#xA;WJeUhCfOHnhn/wB7f0jZqOX2vqg0u1MIH+R6zT0/yuWKqPm6OxP5geRJHCfXxc6isBP2/ROnyGWn&#xA;+TyEdfoxVmeKvPrOPzFJ+ZXmqSxlskuI4NNjiF5HLI4szFIyenwdKIbgz19xiqaT+XfNV/r2h6nf&#xA;3Vgg0e4lm/0aGZZJI5reSB4eTyMArGRXO3VFxVluKsV/MX/jnaP/ANt3SP8AqOixVlWKuxViMIhP&#xA;5t3huKesNAtf0ZWleP1y5+vcP+nXlT2r2xVD/myunHRtDN1x9dfMmgmw5dfX/SkAbj7+iZPoxVm2&#xA;KuxV2KuxV2KsUfyHPb3F02h+YdR0SzvZpLm4sLZbOWFZpmLzSQ/Wre4eIyOS7BW48iTxBJOKonyv&#xA;5F0fy3f6hf2Mt1Nd6qkA1Ca7mM7yy25lImZ3HPmwm4kV4BVUKqgbqsixVhdt+WFrplxeXfl7WdQ0&#xA;W81C6ub3UJITbzR3Et3cSXDGWG4hljqnqlEdAr8FVWZuOKpz5c8p2eiy3d2bm41LVr/h9e1S9ZGn&#xA;lEdfTSkaRRRxpybikaKoqTSpOKp3irHtb8m29/qQ1iwv7rRNa9IQSahYmKs0Skskc8U8c0MqqSeJ&#xA;ZOS1PFhU4qiNC8vXmmzzXN7rl/rFxMoQm7MCRRgEmkcNtFBGOv2iC3viqc4qx/XPJ8WoammsWOoX&#xA;Wi6ykQt2vrIxH1YVYssU8M8c0MqqzMVqnJaniwqcVQNj+XFjH5gsPMeo6nfavr2nmT0L26aFQI5Y&#xA;nieFYYYooo4/3nL4FDEheTNTFWXYqkPmHyha6veW+pQXt1pOs2iNFBqdg6LL6TkM0UkcqTQzRlgG&#xA;4yRtQ7ihxVvRfLWoWN+b6/8AMGoavN6ZiSG4+rQ2yBiCSsNrDAC3w/afkRvQgHFU9xVL9a0S11eC&#xA;2huXkRbW7tr2MxkAmS1lWZAeQb4SyfF7dxiqYYq7FWMedbLyjdSab+mtUXRtTieR9G1BLpLS6VuI&#xA;Eyws5o6stPUQqykUqNhirB9Y0nQtY8w6Lp1rr115w8w2+o2N89xNLbyxaba2dzHeSTNHYxW1rE8w&#xA;txCrMnqNzIHw8sVev4q7FXYq7FXYq7FXYq7FXYq7FXYq7FXYq7FXYq7FXYq7FXYq7FXYq7FXYqo3&#xA;ljZXsJgvLeO5gJBMUyLIlR0PFgRirVnYWNjF6NlbRWsNa+nCixrU96KAMVV8VdirH/KPnKy8yHVY&#xA;Y7eWyv8ARb2TT9QsbjiJEkjoyOOJIMcqMHRu4xVkGKuxV2KuxV2KpD5R84WPmdNXe0hlhGj6pd6P&#xA;P6vH45bJwjunEn4GJ2rviqfYq7FXYq7FXYq7FUh8wecLHRNb8v6RcQyyT+YrmW1tZI+PCNoYWmJk&#xA;qQaFUptXFU+xV2KuxV2KpJ50826d5S8u3OuX8c08UDRxx21soeaaaeRYooo1JUFndwOuKrfKmva7&#xA;q9vO+seXrny9PEyhILma2n9RWFeSPbSSDbuGpiqe4q7FXYq7FXYqhLfR9LttSu9TgtYotQv1jW9u&#xA;kUCSYQgrEJGG7cAxC16Yqi8Vdirzjzq2rWF/Pea5+ZMHlPRpW/3HWUMFjDIVQL9ue+Fw0jcuoRVG&#xA;KqH5Oef7zzFqfmXRZtag8y22htZvY+YYIkgNzDepIeEkcdI+cTwMvJAAwptir07FXgf5Z6X5+1zU&#xA;fPtnpOt/4a0S182axW8t7eG5u7q4knq6g3AZIo4kC7hSWLdRTFWb+VNd846N56fyR5t1CPWhe2T6&#xA;loWurBHayyLDIsc9tPDF+75p6isrKACPwVei4q83vdb86ebvOer+X/LGpp5f0Ty4YoNV1kQR3V1c&#xA;Xk0YlNvbLMGhRIo2HqOyk8jQDvirI/K2gecNJvJxq3mdvMGmvGFto7mzgguYpFPUzW3ppIpXsY61&#xA;3rirJcVeaa1q/nnzT581Typ5Y1RfLmk+XYbc6zrAt47m6muryP1ore3SYGJFWEhncgmpAHjirFfM&#xA;dh560r82Py30/XdWXzBpMl/eTWOqPbx213HKtlIrwTrAFhdSrBkdVU/aB7HFXuuKvOPM/mnzDqvn&#xA;mTyZ5d1WHQIdMtYr3XtckjinmVrlmFva20U9Yg7JGzu7q1BSgriqH07X/MnlXzno2h6v5hTzRoXm&#xA;NpbWyvZY7eG8s7yGIzIkhtgiSxzIjAHgGDUxV6firyb8/NN8zTaNZXFnrSWunHVdIjFgbRZWE51C&#xA;ILN6xdTRWKnhx3pSu+Ks/wDLemeaLH6z+ndbj1n1OH1b07NLP0uPLnXjJJz5VXwpT3xVOsVefeeP&#xA;MPm29846b5E8o3kOlX9xZyatrGsywrcta2SSiCMQQv8Au3lllqPj2ABNDirGPO9z+bfkWLRpofNH&#xA;6e0rUtWsLC9murO1iurYT3KBmRokEbxSryjIZOSlgVbFXtGKuxV2KuxV2KvCvLOv+SfLPmrzJdfm&#xA;HbSw+dJtUuTaajd2dxd+rp3P/QxYSRxShYliovBKNy674qyL8stXvdY/M3zvq0+k3mlWeoWejnTB&#xA;fRNDJNBb/W4zKyHePkxqEb4uNCQK4q9TxV4P+XHn2Hybqvnq1812V5p2jXfmnVbrS9a+qzzWzl5+&#xA;LxOYUdkPwqyMw4sG2O2Ksk8sX0nnr80ofOFlZXEHlXQdNmsdL1C6iktmvbq9kRpZIY5QrmGOKLjy&#xA;ZRVjt0xV6piryiPWJPy288eZJNctbk+UPM1ymq2et28ElxHbXZhSC4t7oQh3Tl6KtG3HjTavgqzH&#xA;yr+YnlrzXdzwaE11dQ28YeS/a0uIbUkkD01mmSNXfetFrirJsVeU3+u/8q8/MvzBq2vQXH+FfNq2&#xA;c8OsW8ElxFaXlpALV4LgQq7oJERGRiKdfeiqT675vbzj+Z/5f3Ogafdz+WdMv7j6xrktvLBFJcTW&#xA;UoVIRKqOyIqHm/HjUqAcVe3Yq8T89+VPKmk/mde+afOPlxNb8ra9Z20Uupm0a9Om3lnyT95EiyOs&#xA;M8TLWRV+0oB8cVTXyPb/AJD6j5jtz5P8uwPf2qtcJqtvpc0EMDJsAbmSKNVdq/CAa4q9XxVgf5z2&#xA;9xceU7JIInlca3o7lUUsQq6jCzNQdgBU4qzzFXYq8y88fpPyr+ZGnefotOutU0SfS30TXY7GNp57&#xA;VUn+s290IUq8iBndX4j4RvirFvzU/MmDzNp2iWflqxvZ9KTXdJk1XWLq0nsrdFW9iEcMX1pIXkla&#xA;UqSEU0UGuKvdsVdirsVdirsVdirsVdirsVdirsVdirsVdirsVdirsVdirsVdirsVdirsVSPzS3nh&#xA;EtW8qR6ZM4c/XYdUe4hDR0+H0pIEl4tXryQ4qxaTyb5980a7pl351uNNtNE0W6TULTRdIaef6xdw&#xA;7wSXNzcRwHhE3xCNI6E9Ttir0XFXYq7FXYq7FXYq7FXYq7FXYq7FXYq7FXYq7FXYq7FXYq7FXYq7&#xA;FXYq7FXYq7FXYq7FWB/l/pvn3R/NHmvTtcefUPLc10t75a1S4uEmdY5l/e2hUuZlEJoE5LTrvirP&#xA;MVdirFfMX5qflx5cuzZa35jsLK9XZ7V5laZO/wAcacmX/ZDFU28u+aPLnmTTxqGgalb6nZ14ma2k&#xA;WQKw34tTdW9jviqaYq8W/Lj8z9P0yfz/AHHnTzElvaWfmzULHS/r8/2IYmHGGBWPLigP2VG2KvUf&#xA;LPnDyt5otHvPL2qW2qW8TcJXtpFfgxFQrqPiUkeIxVOMVSfzL5w8reV7RLvzDqttpdvISsTXMixl&#xA;2HURqficiu4UYqhvK/5h+R/NTyReXdcs9TmhXnLBBKplVKgczGaPxqQOVKYqyHFUl80edfKflW2j&#xA;ufMWrW2lxTNxhNxIFaQjqEX7TUrvQbYq8y84/mZZat52/LX/AAh5hW60rUNUubfVEsZ6pIFijZY5&#xA;0U12rUBhir2fFUs8w+aPLvluwOoa9qVvplmDxE1zIsYZqV4ryNWbbou+KoTyt598mea1mPlzWbXV&#xA;Db09eO3kDOgPQshowB7GlMVT7FXk3/ORP5mJ5V8kXdlo+t2th5qu3t4oIvWiF3FBPLxknWFjzpwV&#xA;hzpt1rUYqnX5T2Xl+0h1GPSPP1z55/uDcNdajBqJtW/efZMO8YlNdmJ+zt0xVn+Kpfr3mLQvL+nP&#xA;qWuX8Gm2EZCtc3MixpyPRQWO7HsBucVSHTvzc/LLUbO4vLPzNp8tvalFuX9dVKeqwROStRgGdgoN&#xA;KV2xVl2KuxV2KuxV2KvGT5oudd846/bflt5K0y9u7K6Npr3m3VStvbNeRgK0Q9OOS4n4BaEg7eFC&#xA;CVUF+SWm61pX5wfmLZ6tDp9reSw6Xc3FroyypYh5I5CGjWX4uRDVc0FWJOKvc8VfPP5FeTvLOqfm&#xA;T+aWsanZQ399aeYry3tVuUWVYUkuZmdkRgQGkoAWpWi08cVTc6JpPlX/AJya0aHy5bx6fb+Y9Gum&#xA;1qxtgEhZoCzRzekvwqzNGBWnj3LVVe34q8Q8m6Npfm/89/PuqeZII7+58sNZafodlcqJI7eCSN3a&#xA;VY3qOTsvINTapp1xV69aeW/L1nqcmq2mmWttqUsZhlvIYY45njLB+DOoDMOSg74qmOKvEdJ0DRfN&#xA;X/OSPnSbzFDFqJ8sWWmQaHZXKCSKNLqATyyiNgVLLIxoT05eOKpf+Z/k3yxo354/ljq+k2cFhfal&#xA;fTxXsduqxLKLdEMchRaDkvqFS1N9vAYq9+xV86ecrvXNU/5yOuoV8qnzjH5b0qF9K0mS7trSGFrg&#xA;o0l5xuqJI3J+G1abHqBRVMpNE/MnUvzT8qearT8vf8LGxme216+j1HTphcWE4CMsscLqz+luy7E/&#xA;cMVe84q8T/5yq0bR5Py/j1J7G3fUf0jYQ/XWiQz+kZTWP1COfHfpWmKvXNJ8veX9H9X9EaZaad6/&#xA;H1/qkEcHPhXjz9NV5ceRpXxxVMMVeJ+fNM0/zP8A85GeVfLuvxrdaHp+iz6ta6fMOUE960zxkOh2&#xA;fgkatQ+HhWqqTf8AOVPkjynaeU9I12ysLbT9Ug1W1tlltokhM0MvItC/ADmAYw68ulDTrir6FxV2&#xA;KuxV2KuxV5LD+UPnvQNd1y58j+ck0jR9fvJNRudNu9PjvPQup6erJC5dOtNgRSlAa0riqZ/l3+UE&#xA;/k/zbrPmW48xXOuXmuW8Ud+13GqyNPGxJl5I3HjQ8UjCfAu1Tir0fFXjNt+QnmXRPMXmDzN5U86y&#xA;aVrWvajc31wrWUc1q1vcSGVLeWGSRubRM7FZRTqfhxVkP5fflPe6F5kv/OHmjXJPMvm6/iFqL5ol&#xA;t4be1BDejBCpZVqRufw3bkq9FxV5x5y/Ka/v/Nq+dPKGvyeWPNDQra30wgS6tbyFPsrPA5WrAAAN&#xA;XoBttXFU18m+WPzCsNXuNR81+bV1uKSEw2+mW9lHZ28RLq3q1Vnd2otPi8cVZlirzbz3+Umpar5t&#xA;tvOvlDzA/ljzTFCLS6nEK3Nvd24NQk0LFQSPE16DaoBCqUWv5F+YLvzjofnPzR5xl1jXtHuBKFFo&#xA;kFr9XVWAghijkURks3JpDyJ8MVewYqwLz5+V8+u6/YebPL2syeXPN+nQtaxaikS3EM9sxLfV7mBy&#xA;odORJG+1a70FFVbyv5Y/M221xNR8z+cYtTsYkdE0iz0+O0hZnFBJJIXkkJXsOmKs3xVh/wCan5ff&#xA;498rroX1/wDRvG7t7v6z6Pr/AO878uHDnF9rx5YqzDFXYq88/Nb8v9D8zXGj3514+V/NemSSNoOs&#xA;xOglBYD1YzE7J6yEdVr+BIKrxX84fKmqXV15d0TWPPk3nbzjf6lbxaPplvbwWcFtAWrPdTW9sZAS&#xA;FUAOxG3LqASFX1birsVdirsVdirsVdirsVdirsVdirsVdirsVdirsVdirsVdirsVdirsVdiqR+bP&#xA;I/lLzdZx2fmTS4NTghYtCswPJGYUYo6kMtR4HFUH5T/LD8v/ACjK03l3QrXT7lwVa5RS8/E7lfVk&#xA;LycT4csVZRirsVY95W/MDyj5pvdVsdDvvrV5okwt9Vt2hngeCUs68WWdIyfijYVFRtirIcVdirsV&#xA;dirsVY/5b8++U/Muq61pWi331u/8vT/VdYh9KaP0Zi8kfHlKiK/xQOKoSNvlirIMVdirsVdirsVd&#xA;iqReY/PHlby5qGj6frV79VvNfuRZaTF6U0nrTsyIE5Ro6p8Ui7uQN8VT3FXYq7FXYql3mLzFovlz&#xA;RrrWtbu0stLs1D3Ny9SFBIUbKGZiWIAAFSemKsd8gfm/5C8/T3cHli+ku57FVe5R7eeHirminlIi&#xA;qakHatcVZnirsVdirsVdirFtH/Lfy7o/njV/OOnmeHUtciWLUbcOPqzsnGkoj41EnwdeXc7b4qyn&#xA;FXYq8y816/8An0devrXyr5e0a20WzI9LV9ZuncXK8AzMkVu0bxhSSDz8OuKqH5R/m5rnmfzFrvlD&#xA;zTpttp/mfQQskr2EhltZonIHKOrOVpzU/aNQ3YimKvVMVfI35d+bPPulfm3+aekeR9Bi1jWdV1ue&#xA;Uz3chjtLWG1vLsM81Chbk1woUBwevXFXq/5b/nL5vu/Pkv5ffmJocGieZmga60+W0ZjbXMagsQgZ&#xA;5v2FZgwcj4WBoRir2LFXkfn384/M8Xnn/lX/AOXeiRa35nhhFxqVxeOUs7RGCsvqcWQt8LqT8YpU&#xA;AciaBVO/IWsfnVLrsun+etC0u304W7SwaxpU7mMyq6qITDK8klWVi1TQbYq9BxV47+ZP5zebrLz3&#xA;D+X35eaHBrfmf0Vub6W8Zlt7eNgGAYB4f2GVixkAFQBUnFXl/wCYXm/z7qX5m/lhoXnrQYdI1vT9&#xA;ftLiO5spPUs7qCa6t0DRVaRlKtGQVLH6MVfWWKvLvzL/ADa13SPNmneRPJWkxa15w1GI3LC5cpa2&#xA;sG9JJipVj9kmnJdqdSQMVS7QPzY/MHR/P2meTPzN0ewspdfV/wBC6xpLym1klQVMLLM0j8qkLWoo&#xA;Su1Grir2LFXzr/zl/qPnVfKEthHpcB8ovJavNq/rgTi55t+69CtSuw3pir0v8qL78w7i0aLzV5bs&#xA;tCs7e1t49Lks7hJzKgBHFlUngFFCB74qz/FXl35x/nBqPk6+0fy35Z0oa55x19iLCyckRIgPH1JK&#xA;FSeTVAHJRQMSwA3Vef8Anb8/fzv/AC/0yI+cPKOmx3d8R+j7+1kke0qu8kMqCWRhIFNQeY9gR0Vf&#xA;SOKuxV2KuxV2Kvks6x5H81/mZ5xh/OrXLi0ttGvWt9E8uSyz21n9XR3CuPQoWfgqGoILV5bjoqmf&#xA;/OOkvlOb8+POE3lGzax8syaXGdLhcSLyiD26mUCb95xldWccuxxV9Q4q+Tfyt/M7y15F/Of8zh5l&#xA;ZrPTdX1m6ji1b0pJI457e8uWELGNWI9RZSen7OKsg0rzHp/5of8AOTeja95VEtx5e8p6dIl7qvB4&#xA;kkeRJ1VV5gGjPcBQGALBXI23xV9JYq+cE8xWX5V/85EeZ77zcj2ugecIYpdN1wxs8augUmNigYgc&#xA;uStTcUUkcTXFXrvlj84Py680+YG0Dy9rMepaklu126wpJ6YiRlQ/vGVULVkHwg1xVmWKvnDXfM9j&#xA;+WX/ADk9q3mHzSj2/l7zZpkMNpqaxu6RvDHbxty4BiaPbUYKKjkp6Yqx380vzP8ALHnr85vywXy0&#xA;7XunaRrNqk2qCKSOKSa5vLY+kpkVCfTWEHp+1ir6xxV8t/nLoGn6P+ftt5h8132p6T5S1+yS2TXN&#xA;LmeBre5iQJ6Uskau3A+mGIp+1X9k4qnvl3yp+Q2q+ffL8Gn+eNW8xeYbG4F/pNvLqD3sSva0uGqx&#xA;iKKCIviXkCcVfQ+KvFf+cvf/ACTdz/zHWn/Ejir2DSf+OVZf8YIv+IDFUVir56/PG8m8k/nb5K/M&#xA;2+tZLjy5b2smlX8sSczAzeuOfsSt3Vf5uJGKsJ/5yd/OvyV548nWOi+VJJtTjt76O9vtQ+rzQwwc&#xA;YpYo4yZkjbnJ6hptSgOKvrvFXYq7FXYq7FUp1Pyh5T1W8S91TRbC/vYhSK5urWGaVQOyu6sw6+OK&#xA;oqHRdHg1B9RgsLeLUJIxA94kSLM0S0pGZAORUcF+GtNhiqMxVK38q+WJI7uKTR7J49Qk9a/RraIr&#xA;PJUnnMCv7xqsTVq9cVRGk6Lo2j2gs9IsLfTrQGot7SJII60ArwjCr0GKozFULqWlaXqlqbTU7OC+&#xA;tWILW9zGk0ZI6Eo4ZcVUNG8t+XdDjaLRdLs9LienNLOCK3U06VEaqDiqY4qg9V0XR9YtDZ6tYW+o&#xA;2jGrW13Ek8ZPSpSQMvfFUOnlXyxHHaRR6PZJHp8nrWCLbRBYJKg84QF/dtVQarTpiqaYqoX2n2Go&#xA;Wr2l/bRXdrJ/eW86LLG1N90cFTiqC0byr5X0MsdF0ex0wuKP9TtobeorWh9NV74qmmKoXUtK0vVL&#xA;U2mp2cF9akhjBcxpNGWXoeLhhUYqiVVVUKoCqooqjYADsMVbxVh35l6r530/TbZvK/liDzUksjLq&#xA;enzzxwUhp8JUynixLduJxV5FqvkH8zfzOutK0PV/KVn+X/kLT7tb2+tIJoJp7l0UqFUQBB9lioqi&#xA;gVr8VAMVfR2KuxV2KuxV2KuxV2KuxV2KuxV2KuxV2KuxV2KuxV2KuxV2KuxV2KuxV2KuxV2KuxV2&#xA;KvIfIHnv8xX/ADh8y+SfNkIk021jefRNRitjFG6B0aNWkHwszQygnwKkYq9exV2KqF5qFhYxere3&#xA;MVrETQSTOsa18KsQMVVYpopo1lidZI23V0IZSPYjFV2KvF/ym/NbzT5k/NPz95d1maD9EeXbm5is&#xA;OMaxsqRXjwrzevxfAoxV7FaXlneQie0njuIG2EsTq6Ej/KUkYqrYqtlmihjaWV1jjXdnchVA9ycV&#xA;UrO/sb2H1rK4iuYa09SF1kWo7VUkYqr4qpXN1a2sLT3UyQQr9qWVgij5sxAxV5H+dn5peZPKnmb8&#xA;vrLy/Pbmw8y30kF+zIsvOJZrVF9Nq7fDO24xV7DirTukaF5GCIoqzMaADxJOKqNnf2N7D61lcRXM&#xA;NaepC6yLUdqqSMVV8Vef/np+Y15+X/5eXeu2EUcupPLFaWKzAtGJZifjYAivFFYgeOKpV+S0n533&#xA;qxaz571LTrvQ9T0+O60+3tUVLiOWYo6epwijX+6JrRm3pir1XFWndI0LyMERRVmY0AHiScVQ0Oq6&#xA;XNbC6hvIJLUtxE6SI0fIduQNK4qigQwBBqDuCOhGKuxV2KuxV2Kvlj82IfyWvvzO1WKbS9f89+b5&#xA;mVZ9G02R/q1oYY0jaNWjAkB2q1OQBO9MVQ//ADitfX9h+b/mvyzDa3ej6N9SluxoF7IZJLaaK4gR&#xA;AxIT4gk7CvGpFK1pir6vxV8V+T/y2tvzC/5yA8/6HqOoXNnosOo6neX8Fo/B7j09QZIkNQy0DS8q&#xA;lT0261CrJfL/AJck/J3/AJyV0byvoOoXFx5e8y2yPPazsCeE3rRoJOIRWaKaDkrca8TTxqq+r8Vf&#xA;LPmXTrz84v8AnIrU/JOs6jcWvlPyzA0w0+B+HqGH0kc78l5vLcfaK1CCgp1xV655E/5x/wDIfkbz&#xA;SfMPl5ryGZrZ7VrSWf1IDzZTzoV58hxpuxG/TFXpWKvlj8x9EvPzU/5yXfyDq2oTWvlvQrWOb0IH&#xA;AJDWsdw7IrBk9V3uAvLiaKMVYp+Z35V2X5dfmr5C03SNQurnQby/t7m0s7uQSNBP9bhScqFCLSQL&#xA;Hvxqab9Bir7SxV8m/wDORHmyPWvzo0/yZrz6ifJmlRRz3+naUpknuZZIjPy9MEctiiVP2ByK7nFU&#xA;j8v6hpHlj83vLeo/lhpev6fod/NDZeYbDULeX02illWNiCzPyHF+Y5n4WFQaYq+zsVfNP/OZPkfS&#xA;f8Ow+dPWuf0r9YttO9D1B9W9LjM/L0+P269+WKvRPyL/ACr8veU9Bsde065vZrzW9MtHu47qYSxK&#xA;XjWU+kgVePxN49MVepYq+Z/+cmJ9W80/ml5M/K+K9ex0nU0iur1kJo5nnkiqy1AcxJbsUB2q2KsD&#xA;/wCcjPyO0T8tvL2m3vlzUr5tO1G5+rX9hdyrIrypG0kMo9NIlqoDjcHrtTfFX1/5T/5RXRv+YG2/&#xA;5Mriqa4q7FXYq7FXzfD+T354eTPzE8xa55BvNKnsPMs0sry39ecKyytKA68SeUbOaFCwbqR2Cqdf&#xA;lF+S/wCYXlL82dX83+ZNStNXj1ewkiub2JmSVrqeSCZ6Q8FUIrxMq0I2psOgVe7Yq+Yf+hf/AM6N&#xA;L/MjzP548ra1YaXe3t9eXOmozNIJ7e7uHkMU6tEyL8JU0IYcu4oDirIPyx/JH8wpPzJ/5WN+Z2pw&#xA;3mr2ysthZ27BwGKGJWbiqRokaMeKp+18R36qvfsVeH/mX+SfnNvzBX8yPy21WDTvMToE1Cyu6iGf&#xA;igjqCFdTzRVDIy0qOXIHFU//AC5sv+cgX8ynUPPt9pUWhi3kiXSbFauZmZSkvLgegU/7sPX7OKvU&#xA;cVeFfm7+Snne98/2n5j/AJcajDY+ZI0WO8guDxEhjT0ldSyyI3KKiMjilBirFNR/IX88/MXm/wAt&#xA;ebvNetWGoX9hdwPdWqsYktra3mjlVYgkSozv8ZYADt8Rrsq+oMVeO/m9+TPmTWvN2l/mB5E1KHTP&#xA;OGlKIil0D6E8a8gNwr0bhIyEFaMpp8NN1UV5It/+cj7nzRZXfnG50ay8u23q/XNPsQWmuC0bLGQx&#xA;WTjwchvtjp0OKvWMVeZf85Cfl15g8/8AkOPQtCaBb1L6G6JuXaNOEaSK3xKrmtXHbFWceU9MudK8&#xA;raNpd0VNzYWNtazlDVecMKo3EkCoqu2Kprirx38/PyduvOt1omt6Bq0Ojeb9Kk4adLcOY1mAb1VV&#xA;XQM6yRsCylVPeviFXz9/zkBon5o2ul6QfzG82Wur6205j0vQLJV5JAyn1LmT04rcci6oi/Axap+L&#xA;YjFX2p5etZrTQNNtJxxmt7WCKVfBkjVWH3jFUfirsVdirsVdirsVdirsVdirsVdirsVdirsVdirs&#xA;VdirsVdirsVdirsVYh+ZP5WeVfzE0y207zCLj0bSUz2720vpOrleJO4ZTt4jFWMeTP8AnGX8qfKm&#xA;sQ6xa2c9/f2zCS0kv5vVWKRd1dY1WNCyncFgaHcb4q9WxV2KpPpPnLyhrF9Np+ka5p+o39urPPaW&#xA;l1DPNGqMEZnjjZmUBmANR1xVOMVdirsVdirsVSmx83+U9Q1afR7DW7C71e1Li506C6hkuYzE3CQP&#xA;CjF14Ns1RscVTbFXYq7FXYq7FXYqlWtebPKuhywQ63rNjpct1X6tHe3MNu0vEgH0xKylqFh0xVNc&#xA;VdirsVdiqndXVtaW8tzdTJBbQqXmnlYIiIoqWZmoAAO5xVI9B/MLyJ5gvXsdD8wafqV6il2trW5i&#xA;lk4qaFgqsSVHiNsVZBirsVdirsVdirx/y9+Rd/5f/PG//MDTNRgj0bU/XN3pfB/VrcxhpKMPh3uV&#xA;D/LbFXsGKuxV4557/wCcix5d83X3lbSfKGq+YNR0z0/rzW68Y19WNZUKems7EFXG7KuKph+Un5/6&#xA;B+YeqXuh/o650XX7FGll0+6IbkiOI5OLgKeSMwDKyg/Peir1PFXw5oP5k6Z+Xn/OQ3nrzBqFrNeq&#xA;b7WLWC2t+IZ5pb+qgsxAVaIanf5Yq98/Kr/nJ7yx578xjy5cabNoeqzBvqSTSLNHM0Y5NHzCxlXo&#xA;CQCu9OtdsVez4q8s/Nr/AJyF8p/l3ew6TJbzavr8yiQadalV9NW+wZZGrxL/ALKhSe9AKVVQX5af&#xA;85Dp5y82p5Xu/Kuo6HqEsMlxE85DxiOJaln5LC6g1oCFO5GKvYMVeTfnD/zkV5Y/LbULfSZLOXV9&#xA;ZmjE8lpC6xJDExIUySMH+JqfCoU7bmm1VXzd+d35xaT+ZereU7i0sLjTLzTJJor6zuOLcTJLCUKO&#xA;tOQPE9VBHhir7qxV5t+bn56+V/y3NrZ3cE2p65fLztNKtqBylSoeRzXgrMCq0BJPQbYqkHkX/nJr&#xA;Rtf82weVNf0G98raveFVsUvTVZHf7EbckidGfonw0Y7VrSqr2jFXzT/zmD+ZUdvojeQoba6jubo2&#xA;15cXoCi2eDlIfRLV5cucatSnbFVL/nE7/lW099GdI0C/s/NdppJGp6xcuzW1x6ksfqeknqMo+KnG&#xA;iD4R44q+m8Vee/m/+dXlv8stOtZdRhkvtRvy/wBR06AqrMI6c3d2+wg5AVoanoOuKvMof+c1/Kos&#xA;XkvPLd/b3wZTFaiSN0eJhXmJSEofbhv44q+gdC1WPV9D07Vo4zFHqFtDdpExBZVnjEgUkdxyxVHY&#xA;q7FXYq7FXyB5j/NPzT52/NTXPLl353H5deWtJmuYkljLQySm1lEBDSI0TvLJSvEyAADYGm6qD/5x&#xA;hayH/OQOri01KTVrU2d8tvqlxyWW6UTRUmYOS1XA5b74q+y8VfD3lPzX5V8rf85SeYdX8zlY9Oj1&#xA;nWI0u2QyLbzPcSiOUqoZv8moG1a4qnGta9ofnn/nK7y5qHkpvXto7mya7vIoignNoTLcyUYKxHor&#xA;w5Edtu2KvsnFXx/rOpaV5M/5y7udZ86Jx0yeT17O9lUvHGJrUR281KGqxsPTr+yRX9nFX0lon5q/&#xA;lvr/AJgi0TRddtNS1Z4ZJ4orYmUemnHn+9UFAdx8PKv3Yqy7FXx9+Y+qaX5U/wCcvYfMPmqFv0Dy&#xA;tbiORkMihP0etsk6ruSIbpC3w7/Cab4qxr/nI3zv5J83/mjpN95WlS7SCGCC/wBQjRo1mlWYlR8S&#xA;qX4IQOf0dBir7mxV8af85HW2s6X/AM5Dabqz6h+hoLqOzk0vWpY/WitvSHps/Gj19KUFiKVFa+GK&#xA;o6TyJf8Am38wfLU+p/mzovmLX4ZkbTY7RVllKWzG6Kc7YcUoEYj1CN+nXFX17irwr/nMn/yUcP8A&#xA;21bb/k1Nir0D8lP/ACUflD/tlWv/ACaGKs1xV8lf85bxjTvzZ8m6/q1q155cSCBZ7elVl+q3jS3M&#xA;W+1XilQb4qkf/OU35pflx53tfL0XlWYX15Zeq9xdiCSH0oZFXjBWVYyfiFaAUH04q+sfy8/5QDyz&#xA;/wBsqx/6hkxVkGKuxV2KuxVgXmP8h/yl8x63JrmseXYrjU5mDTzrLcQiRh+08cMkcbE9yV374qmW&#xA;iflT+Xeha/8A4g0bQrbT9W9L0BPb8o1EfAR8RErekKqorRd+vXFWV4qwW7/Iz8pry/1PULvy3bXF&#xA;5rBlbUJ5TK7O88gmkdaufTcuK8koR22xVGeSvyk/LryTPNc+WNEisLqdeElyXlnm4dSiyTvK6qab&#xA;hSAcVZdirHvOP5e+S/Odolr5m0mDUo4q+i8nJJY+VOXpyxlJErTfiwxVKvJ/5K/lf5O1Eal5d0GG&#xA;z1BQwS7eSe4lQMpVuD3EkpSqkg8aYqzbFWM+dfy08jed4IIfNGkRaiLYk28jNJFKldyFlhaOQKab&#xA;ryocVSNf+cffybW3tIF8r2ypYktbsHmEnJiCS8nqc5D8I+2Tir0LFUk82eSvKnm7Thp3mTTIdTtF&#xA;bnGswPJG6co5FKuh7VVhirHvK35E/lP5W1SLVdD8vRW+owEmC5kluLloyRTkn1iSUKaHqMVZ5iqT&#xA;ebPJvlnzdpY0rzHYrqGnrKs4gdnQeogIVqxsh2DHviqO0fSNO0fS7XStNhFtp9lEsFrApJCRoKKo&#xA;LEnYeJxVF4q8v/5yA1b6j5Ws4pvJL+eLG6uuF5YIkhMChG4zLJFHM0TcjxDU70rir5s1PyrrX5kz&#xA;6f5f8iflo3lHSEn9a81K4WVuTEcOU13MiUSMFqRqWJ7Dtir7W0PS4tJ0XT9KicyRafbQ2sbnYssM&#xA;YjBPzC4qjcVdirsVdirsVdirsVdirsVdirsVdirsVdirsVdirsVdirsVdirsVdirsVdirsVdirwv&#xA;yn/zkF5iv/zpl/LfXNGtbEx3F3bJeRyScmNvG8sTBX2pKiVHzGKvdMVdirsVdirsVeHeTv8AnITW&#xA;de/Oy/8Ay8m0m3hsrS81G0W+SRzKy2BkCsVPw1b0t8Ve44q7FXYq7FXYq7FXin5+/n7rH5ZaxpVh&#xA;YaVb6gmoW7zu87uhUo/Cg4Yq9rxV2KuxV2KsP/Nf8x7D8vPJl15ju7drt0dILOzVuBmnlJ4qXo3E&#xA;UBZjToO52xV5v+TX59fmD578zWlpqXlIWPl6+S4kg1mJbgQ/uFPwrLIDFIea8TxI/DFXvGKuxV2K&#xA;uxV2KpHL5F8mzeYl8yy6NZv5gUqy6oYU+sAogjU+pTlsg4/LFU8xV2KvlH8/77U7Xz9qSaj+aUmh&#xA;aZ+5fTdB083c9zGDCnP1orb0Yo6vyZechYqcVS7/AJxe/NPzjP8AmYfKl9rd1rmhXsVz9Xa+d5HV&#xA;oFMkcqeqzvHyVCCnKm/jvir6/wAVfAFzZ+c7/wD5yK8xab5Mu2sfMF/rmr29tdK/pGNGnnMzeoAz&#xA;IFiDElRyp03xVmHlHzX+a/5V/nXp3lTzTrU+q2l9cW1vewvczXdvJFeEIk8Rm+NWRmr9kE8aHbFX&#xA;2fir5Q/Of8zPzI81fm+v5YeS9Sk0i3jmSzaWCRrd5p2jEk0ksyfvFjiUkcV60J3qAFWd/ld+Tn5w&#xA;eUvOtnfax52l1jy2scxvLBri5fnK0ZWMelPzSgYhuQau1OmKvdMVfJX/ADkL5+/MXXfzhg/LXyrq&#xA;Fxp0cLWtukdtM1v69zdRpP6k0kZDcEWVdugoTSuKvJPzq8v/AJk+WtesdA886odXntbX1dMu/We4&#xA;U28rsKLLKqy7PGRxbp22pir9EMVfKf8AzlF+cfmmz86weRtE1eTQdOhjhfVdQhMiSF7n4vieINL6&#xA;UcTAlY92qeuwxVgflX83de8jfmHpcem+ebjzl5ZupIV1MTLeLHwlfhKohvRzSVFoyvH12BPVcVfd&#xA;GKvln/nNDRfNy2dhrL6qreUnuLe1i0arclvvSuX+sU48aemCv2voxVkn/OKXlr8wrXQNP1zUteS6&#xA;8nXenzx6XoYL8oJvrQ+MgoF/3XJ0Y/axV9BYq+Zv+cuPzV82aHqWk+TfLl7Npz3tt9dvrm1Zo55F&#xA;klaGGJJFoyLWJy3E1O3bqq8u/Mm0/wCcg/yw07TbPWvN16LLVyZ4HstRuHaOaFaPC0jenItBNUqp&#xA;KN13I2VfXn5Q317f/lf5Wvb64ku7y40y2kuLmd2klkdowWZ3YlmJ7knFWXYq7FXYq7FXxb5l/KL8&#xA;49F/ODVfMFh5Wh8zw3N/c3VnJeRRXVnKl07FGkjd14tHzH2iOJHhirIfyU/J/wDNby/+d9v5j8za&#xA;OIbWT63NeX0D2/oCW6t3YqqRMKD1H40VeIPTbFX1jir4v1j8nPz3tfze1/zf5X0h7eWPVtQ1HSr1&#xA;pbYCWOS4kZQqu9D6kb/ZcCo2OKpp5H/KP84/O35vWXnH8wrKSyt7C4gu7macRxc/qpDQW8MKH7PJ&#xA;By2pSpJ5HdV9eYq+Yfzp/JP8xrD8zF/Mv8uU+t3TyJdTWsZjE0FwiCNmVJCBLHKo+JRU7namKsr/&#xA;ACy82f8AOSeteeLM+cPL8OleVljlS+EUccPxmMmJx6ssszH1FAohpua9sVe54q+XP+cg/wAmvzGP&#xA;5mQfmJ5EgkvLmU28sot2T17e6tEWJHEbmjoyRp0r35CnVV5/58/KX/nJLzxqNv5k8xaK95fTxehF&#xA;BG9rG0EER5IpjDqEDNIxAryrWtMVfceKvmv/AJyU/IfzV5g8z23nfyhax6ldLHFHqWlv6fJmt/7u&#xA;VUlpHKpQBHQ77CgNTRVKfI3lDz/q/nPRo9b/ACl0LRtAgl5atcR2UUTsvAjkGmmkPwvRgsY5bdaY&#xA;q+qsVeOf85T+SfNPnD8vtP0zy1YPqN9Dq0NzJAjIhES21whesjINmkUde+Ksp/I7y/rHl78qvL+j&#xA;azbNZ6nZxSrc2zFWKFp5HAJQsv2WB2OKs6xV89/85Sfkp5j853Wk+ZPK8a3Or2cRsp7IyJFJLErN&#xA;NE0LOUUtGWkJXlWh26Yq8D/OkfnW9posn5nThWjEkWk2Uj2vrFQF9WZo7avUhQXfcnpir7O/JmGW&#xA;H8pvKCSqUf8ARNm3E9aNCrD8DirMsVdirsVdirsVdirsVdirsVdirsVdirsVdirsVdirsVdirsVd&#xA;irsVdirz/wDOX8pY/wAy9DstMfVpdIawufrcM0USzAyBCi8lLRn4eRpRhirzLy5/zhh5dttUivfM&#xA;3mK516KJgxtVh+qLIF6JI5luHK+PEr88VfRUMMUEMcMKLHDEoSONQAqqooFAHQAYqvxV/9k=</xapGImg:image>
    </rdf:li>
   </rdf:Alt>
  </xap:Thumbnails>
 </rdf:Description>

 <rdf:Description rdf:about=''
  xmlns:dc='http://purl.org/dc/elements/1.1/'>
  <dc:format>image/svg+xml</dc:format>
 </rdf:Description>

</rdf:RDF>
</x:xmpmeta>
                                                                                                                                                                                                                                                                                                                                                                                                                                                                                                                                                                                                                                                                                                                                                                                                                                                                                                                                                                                                                                                                                                                                                                                                                                                                                                                                                                                                                                                                                                                                                                                                                                                                                                                                                                                                                                                                                                                                                                                                                                                                                                                                <?xpacket end='w'?>
			</metadata>
		<g id="レイヤー1">
			<g>
				<rect fill="none" width="100" height="150"/> 
				<rect x="100" fill="none" width="100" height="150"/> 
				<rect x="200" fill="none" width="100" height="150"/> 
				<rect x="300" fill="none" width="100" height="150"/> 
				<rect x="400" fill="none" width="100" height="150"/> 
				<rect x="500" fill="none" width="100" height="150"/> 
				<rect x="600" fill="none" width="100" height="150"/> 
				<rect x="700" fill="none" width="100" height="150"/> 
				<rect y="150" fill="none" width="100" height="150"/> 
				<rect x="100" y="150" fill="none" width="100" height="150"/> 
				<rect x="200" y="150" fill="none" width="100" height="150"/> 
				<rect x="300" y="150" fill="none" width="100" height="150"/> 
				<rect x="400" y="150" fill="none" width="100" height="150"/> 
				<rect x="500" y="150" fill="none" width="100" height="150"/> 
				<rect x="600" y="150" fill="none" width="100" height="150"/> 
				<rect x="700" y="150" fill="none" width="100" height="150"/> 
				<rect y="300" fill="none" width="100" height="150"/> 
				<rect x="100" y="300" fill="none" width="100" height="150"/> 
				<rect x="200" y="300" fill="none" width="100" height="150"/> 
				<rect x="300" y="300" fill="none" width="100" height="150"/> 
				<rect x="400" y="300" fill="none" width="100" height="150"/> 
				<rect x="500" y="300" fill="none" width="100" height="150"/> 
				<rect x="600" y="300" fill="none" width="100" height="150"/> 
				<rect x="700" y="300" fill="none" width="100" height="150"/> 
				<rect y="450" fill="none" width="100" height="150"/> 
				<rect x="100" y="450" fill="none" width="100" height="150"/> 
				<rect x="200" y="450" fill="none" width="100" height="150"/> 
				<rect x="300" y="450" fill="none" width="100" height="150"/> 
				<rect x="400" y="450" fill="none" width="100" height="150"/> 
				<rect x="500" y="450" fill="none" width="100" height="150"/> 
				<rect x="600" y="450" fill="none" width="100" height="150"/> 
				<rect x="700" y="450" fill="none" width="100" height="150"/> 
				<rect y="600" fill="none" width="100" height="150"/> 
				<rect x="100" y="600" fill="none" width="100" height="150"/> 
				<rect x="200" y="600" fill="none" width="100" height="150"/> 
				<rect x="300" y="600" fill="none" width="100" height="150"/> 
				<rect x="400" y="600" fill="none" width="100" height="150"/> 
				<rect x="500" y="600" fill="none" width="100" height="150"/> 
				<rect x="600" y="600" fill="none" width="100" height="150"/> 
				<rect x="700" y="600" fill="none" width="100" height="150"/> 
				<rect y="750" fill="none" width="100" height="150"/> 
				<rect x="100" y="750" fill="none" width="100" height="150"/> 
				<rect x="200" y="750" fill="none" width="100" height="150"/> 
				<rect x="300" y="750" fill="none" width="100" height="150"/> 
				<rect x="400" y="750" fill="none" width="100" height="150"/> 
				<rect x="500" y="750" fill="none" width="100" height="150"/> 
				<rect x="600" y="750" fill="none" width="100" height="150"/> 
				<rect x="700" y="750" fill="none" width="100" height="150"/> 
				<rect y="900" fill="none" width="100" height="150"/> 
				<rect x="100" y="900" fill="none" width="100" height="150"/> 
				<rect x="200" y="900" fill="none" width="100" height="150"/> 
				<rect x="300" y="900" fill="none" width="100" height="150"/> 
				<rect x="400" y="900" fill="none" width="100" height="150"/> 
				<rect x="500" y="900" fill="none" width="100" height="150"/> 
				<rect x="600" y="900" fill="none" width="100" height="150"/> 
				<rect x="700" y="900" fill="none" width="100" height="150"/> 
			</g>
			<path d="M302,83c0,16.923584,10.9316406,28,27,28c5.5463867,0,12.1875-1.8125,17-4.6000977L345,103.5
				c-4.9765625,2.8823242-11.0786133,4.5-16,4.5c-14.5795898,0-24-9.8129883-24-25s9.4204102-25,24-25
				c4.9213867,0,11.0234375,1.6176758,16,4.5l1-2.8999023C341.1875,56.8125,334.5463867,55,329,55
				C312.9316406,55,302,66.0766602,302,83z"/>
			<polygon points="14.737793,50 5.5,34 2,34 11.237793,50 "/>
			<path d="M143,94c0,6.625-10.0996094,14-22,14v3c10.0073242,0,18.6875-4.5,22-10h0.1999512
				c0.1721191,3.0585938,0.4304199,6.2858887,0.8000488,9h3c-0.5786133-4.0720215-1-9.7897949-1-14V74
				c0-13.3398438-5.9365234-19-21-19c-6.3356934,0-14.746582,2.145752-20,5l1,2.8999023
				C111.1716309,60.090332,118.9724121,58,125,58c13.2897949,0,18,4.1870117,18,16c-29.4899902,1.0297852-41,9.4255371-41,21
				c0,9.9941406,7.0461426,16,19,16v-3c-10.4753418,0-16-4.6889648-16-13c0-9.9499512,10.9501953-17.0554199,38-18V94z"/>
			<path d="M546,106.3999023L545,103.5c-4.9760742,2.8823242-11.0786133,4.5-18,4.5c-12.7866211,0-22-9.9470215-22-25
				c0-15.0527344,9.2133789-25,22-25c11.2011719,0,18.9140625,8.0214844,19.8808594,22H504v3h46c0-17.4233398-9.265625-28-23-28
				c-14.4018555,0-25,11.4099121-25,28c0,16.590332,10.5981445,28,25,28C534.5458984,111,541.1875,109.1875,546,106.3999023z"/>
			<path d="M618,48c0-9.104248,2.8349609-12,10.550293-12c2.2485352,0,4.2426758,0.501709,6.449707,1.6000977l1-2.9001465
				C633.6660156,33.5385742,631.3964844,33,628.550293,33C618.7983398,33,615,37.1601563,615,48v9h-13v3h13v50h3V60h20v-3h-20V48z"
				/>
			<path d="M225,58c13.8144531,0,22,8.5810547,22,24c0,16.7802734-8.184082,26-21,26v3c14.3115234,0,24-10.3034668,24-29
				c0-17.1967773-9.4550781-27-25-27c-9.1323242,0-16.5126953,4.729248-19.7998047,12H205V34h-3v76h3V99h0.2001953
				c3.4375,7.6040039,11.0170898,12,20.7998047,12v-3c-13.4458008,0-21-7.848877-21-25C205,66.5148926,212.0541992,58,225,58z"/>
			<path d="M447,83c0,17.151123-7.5541992,25-21,25v3c9.7827148,0,17.3623047-4.3959961,20.7998047-12H447v11h3V34h-3v33h-0.2001953
				C443.5126953,59.729248,436.1318359,55,427,55c-15.5449219,0-25,9.8032227-25,27c0,18.6965332,9.6884766,29,24,29v-3
				c-12.815918,0-21-9.2197266-21-26c0-15.4189453,8.1855469-24,22-24C439.9458008,58,447,66.5148926,447,83z"/>
			<path d="M747,106c0,15.4765625-8.5234375,24-24,24c-5.9379883,0-10.2836914-0.8894043-15.3999023-3L707,130
				c5,2.0625,9.8310547,3,16,3c16.6738281,0,27-9.4946289,27-27V56h-3v11h-0.2001953C743.5126953,59.729248,736.1318359,55,727,55
				c-15.5449219,0-25,9.8032227-25,27c0,17.6962891,9.6884766,28,24,28v-3c-12.6494141,0-21-9.0532227-21-25
				c0-15.4189453,8.1855469-24,22-24c12.9462891,0,20,8.5148926,20,25c0,16.151123-7.5541992,24-21,24v3
				c9.7827148,0,17.3623047-4.3959961,20.7998047-12H747V106z"/>
			<path d="M302,233.0046387c0,16.8679199,11.0556641,28,27.6665039,28c5.7143555,0,12.5419922-1.8125,17.5-4.6000977l-1.5-4.666748
				c-5.0854492,2.8623047-11.0917969,4.4333496-16,4.4333496c-13.3920898,0-22.1665039-9.1633301-22.1665039-23.1665039
				s8.7744141-23.166748,22.1665039-23.166748c4.9082031,0,10.9145508,1.5712891,16,4.4333496l1.5-4.666748
				c-4.9580078-2.7873535-11.7856445-4.5998535-17.5-4.5998535C313.0556641,205.0046387,302,216.1367188,302,233.0046387z"/>
			<path d="M302,383.0092773c0,16.8125,11.1796875,28,28.3334961,28c5.8823242,0,12.8955078-1.8125,18-4.6000977l-2-6.4335938
				c-5.1953125,2.8417969-11.1049805,4.3666992-16,4.3666992C318.1279297,404.3422852,310,395.8286133,310,383.0092773
				c0-12.8198242,8.1279297-21.3334961,20.3334961-21.3334961c4.8950195,0,10.8046875,1.5249023,16,4.3666992l2-6.4331055
				c-5.1044922-2.7875977-12.1176758-4.6000977-18-4.6000977C313.1796875,355.0092773,302,366.1967773,302,383.0092773z"/>
			<path d="M302,533c0,16.7568359,11.3041992,28,29,28c6.050293,0,13.25-1.8125,18.5-4.6000977l-2.5-8.199707
				C341.6953125,551.0214844,335.8818359,552.5,331,552.5c-11.0185547,0-18.5-7.8642578-18.5-19.5s7.4814453-19.5,18.5-19.5
				c4.8818359,0,10.6953125,1.4785156,16,4.2998047l2.5-8.199707C344.25,506.8125,337.050293,505,331,505
				C313.3041992,505,302,516.2431641,302,533z"/>
			<path d="M302,683.0043945c0,16.7016602,11.4282227,28,29.6665039,28c6.21875,0,13.6044922-1.8125,19-4.5996094l-3-9.9667969
				c-5.4140625,2.8012695-11.1313477,4.2333984-16,4.2333984c-9.8310547,0-16.6665039-7.2143555-16.6665039-17.6669922
				c0-10.4521484,6.8354492-17.6665039,16.6665039-17.6665039c4.8686523,0,10.5859375,1.4321289,16,4.2333984l3-9.9667969
				c-5.3955078-2.7875977-12.78125-4.6000977-19-4.6000977C313.4282227,655.0043945,302,666.3032227,302,683.0043945z"/>
			<path d="M302,832.9956055c0,16.6455078,11.5527344,28,30.3334961,28c6.3862305,0,13.9580078-1.8125,19.5-4.6000977
				l-3.5-11.7333984c-5.5239258,2.7807617-11.1450195,4.1665039-16,4.1665039
				c-8.6445313,0-14.8334961-6.5644531-14.8334961-15.8330078c0-9.269043,6.1889648-15.8334961,14.8334961-15.8334961
				c4.8549805,0,10.4760742,1.3857422,16,4.1665039l3.5-11.7333984c-5.5419922-2.7871094-13.1137695-4.5996094-19.5-4.5996094
				C313.5527344,804.9956055,302,816.3496094,302,832.9956055z"/>
			<path d="M302,983c0,16.590332,11.6767578,28,31,28c6.5546875,0,14.3125-1.8125,20-4.6000977l-4-13.5
				C343.3671875,995.6606445,337.8417969,997,333,997c-7.4570313,0-13-5.9150391-13-14s5.5429688-14,13-14
				c4.8417969,0,10.3671875,1.3393555,16,4.1000977l4-13.5C347.3125,956.8125,339.5546875,955,333,955
				C313.6767578,955,302,966.409668,302,983z"/>
			<polygon points="16.6149902,201.0046387 8.25,184.0046387 2,184.0046387 11.0314941,201.0046387 "/>
			<polygon points="18.4919434,352.0092773 11.0002441,334.0092773 2,334.0092773 10.8251953,352.0092773 "/>
			<polygon points="20.3688965,503 13.75,484 2,484 10.6188965,503 "/>
			<polygon points="22.2460938,654.0043945 16.5,634.0043945 2,634.0043945 10.4125977,654.0043945 "/>
			<polygon points="24.1228027,804.9956055 19.25,783.9956055 2,783.9956055 10.2062988,804.9956055 "/>
			<polygon points="26,956 22,934 2,934 10,956 "/>
			<path d="M547,256.404541l-1.3334961-4.5500488c-5.1469727,2.9375-10.9970703,4.4833984-17.8330078,4.4833984
				c-12.0058594,0-20.3334961-8.9692383-20.3334961-23.333252c0-14.4194336,8.1884766-23.333252,20-23.333252
				c10.2514648,0,17.1323242,7.1914063,18.0009766,19.833252h-39.3344727v4.5H551c0.3256836-18.2414551-9.0537109-29-23.5-29
				c-14.8686523,0-25.5,11.298584-25.5,28c0,16.673584,10.7700195,28,25.6665039,28
				C535.284668,261.0046387,541.8862305,259.2753906,547,256.404541z"/>
			<path d="M548,406.4091797l-1.6665039-6.2001953c-5.3178711,2.9921875-10.9160156,4.4667969-17.6669922,4.4667969
				C517.4414063,404.6757813,510,396.684082,510,383.0092773c0-13.7861328,7.1635742-21.6665039,18-21.6665039
				c9.3017578,0,15.3505859,6.3613281,16.1206055,17.6665039h-35.7871094v6H552c0.6513672-19.0595703-8.8427734-30-24-30
				c-15.3354492,0-26,11.1875-26,28c0,16.7568359,10.9423828,28,26.3334961,28
				C536.0234375,411.0092773,542.5844727,409.3632813,548,406.4091797z"/>
			<path d="M549,556.3999023l-2-7.8500977C541.5117188,551.5976563,536.1650391,553,529.5,553c-10.4448242,0-17-7.0141602-17-20
				c0-13.1523438,6.1386719-20,16-20c8.3520508,0,13.5693359,5.5317383,14.2402344,15.5H510.5v7.5H553
				c0.9770508-19.8774414-8.6313477-31-24.5-31c-15.8022461,0-26.5,11.0766602-26.5,28c0,16.840332,11.1142578,28,27,28
				C536.7617188,561,543.2832031,559.4375,549,556.3999023z"/>
			<path d="M550,706.4047852l-2.3334961-9.5004883c-5.6586914,3.1025391-10.753418,4.4335938-17.3330078,4.4335938
				c-9.6640625,0-15.3334961-6.0361328-15.3334961-18.3334961c0-12.519043,5.1142578-18.3330078,14-18.3330078
				c7.4023438,0,11.7875977,4.7016602,12.3603516,13.3330078h-28.6938477v9H554c1.3027344-20.6953125-8.4199219-32-25-32
				c-16.269043,0-27,10.9658203-27,28c0,16.9238281,11.2866211,28,27.6665039,28
				C537.5004883,711.0043945,543.9814453,709.5253906,550,706.4047852z"/>
			<path d="M551,856.3955078l-2.6665039-11.1499023c-5.8295898,3.1572266-10.6723633,4.4165039-17.1669922,4.4165039
				c-8.8833008,0-13.6665039-5.0585938-13.6665039-16.6665039c0-11.8857422,4.0888672-16.6669922,12-16.6669922
				c6.453125,0,10.0058594,3.871582,10.4799805,11.1669922h-25.1464844v10.5H555c1.628418-21.5136719-8.2084961-33-25.5-33
				c-16.7358398,0-27.5,10.8540039-27.5,28c0,17.0068359,11.4589844,28,28.3334961,28
				C538.2387695,860.9956055,544.6796875,859.5996094,551,856.3955078z"/>
			<path d="M517,989h39c1.9541016-22.331543-7.9970703-34-26-34c-17.2021484,0-28,10.7431641-28,28c0,17.090332,11.6308594,28,29,28
				c7.9775391,0,14.378418-1.3125,21-4.6000977l-3-12.7998047C543,996.8125,538.4091797,998,532,998
				c-8.1025391,0-12-4.0810547-12-15c0-11.2524414,3.0644531-15,10-15c5.5029297,0,8.2246094,3.0415039,8.6000977,9H517V989z"/>
			<path d="M141.833252,243.1711426c0,6.2966309-9.0932617,13-20.1665039,13l-1,4.8334961
				c9.6018066,0,17.9372559-4.15625,21.5388184-9.5h0.1999512c0.154541,2.8093262,0.401123,5.9880371,0.7443848,8.5h5.1835938
				c-0.5864258-4.0705566-1-9.7897949-1-14v-22c0-13.2565918-6.1560059-19-22-19c-6.128418,0-14.6796875,2.145752-20.166748,5
				l1.166748,4.5334473c5.3962402-2.8076172,13.1989746-4.8666992,19-4.8666992
				c12.3798828,0,16.4997559,3.6982422,16.4997559,14.333252c-28.3974609,1.0021973-39.833252,9.4250488-39.833252,21
				c0,10.0495605,6.918457,16,18.666748,16l1-4.8334961c-9.2507324,0-14.166748-4.1647949-14.166748-11.5
				c0-8.8383789,9.9326172-15.3093262,34.333252-16.1665039V243.1711426z"/>
			<path d="M140.6665039,392.3422852c0,5.9682617-8.0871582,12-18.3330078,12l-2.0002441,6.6669922
				c9.1967773,0,17.1875-3.8125,21.0778809-9h0.1999512c0.1369629,2.5600586,0.3718262,5.6904297,0.6887207,8h7.3669434
				c-0.5942383-4.0688477-1-9.7900391-1-14v-22c0-13.1733398-6.3752441-19-23-19c-5.9211426,0-14.6130371,2.1455078-20.3334961,5
				l1.3334961,6.1665039c5.6213379-2.8051758,13.4255371-4.8330078,19-4.8330078
				c11.4707031,0,14.9997559,3.2094727,14.9997559,12.6665039C113.3618164,374.984375,102,383.4335938,102,395.0092773
				c0,10.1049805,6.7907715,16,18.333252,16l2.0002441-6.6669922c-8.0258789,0-12.3334961-3.640625-12.3334961-9.9995117
				c0-7.7275391,8.9150391-13.5634766,30.6665039-14.3334961V392.3422852z"/>
			<path d="M139.5,541.5c0,5.6396484-7.0810547,11-16.5,11l-3,8.5c8.7915039,0,16.4375-3.46875,20.6166992-8.5h0.2001953
				c0.1191406,2.3105469,0.342041,5.3930664,0.6330566,7.5H151c-0.6018066-4.0673828-1-9.7900391-1-14v-22
				c0-13.0898438-6.5947266-19-24-19c-5.7138672,0-14.5461426,2.1459961-20.5,5l1.5,7.7998047
				C112.8461914,514.9970703,120.6523438,513,126,513c10.5615234,0,13.5,2.7211914,13.5,11
				c-26.2124023,0.9477539-37.5,9.4238281-37.5,21c0,10.1606445,6.6630859,16,18,16l3-8.5c-6.8010254,0-10.5-3.1166992-10.5-8.5
				c0-6.6157227,7.8972168-11.8168945,27-12.5V541.5z"/>
			<path d="M138.333252,690.6713867c0,5.3105469-6.074707,10-14.6665039,10l-4,10.3330078
				c8.3859863,0,15.6872559-3.125,20.1557617-8h0.1999512c0.1015625,2.0615234,0.3127441,5.0957031,0.5776367,7h11.7333984
				c-0.6096191-4.0654297-1-9.7895508-1-14v-22c0-13.0063477-6.814209-19-25-19c-5.5065918,0-14.4794922,2.1459961-20.666748,5
				l1.666748,9.4335938c6.0708008-2.8012695,13.8789063-4.7666016,19-4.7666016
				c9.6516113,0,11.9997559,2.2324219,11.9997559,9.3330078C113.213623,674.925293,102,683.4282227,102,695.0043945
				c0,10.2163086,6.5354004,16,17.666748,16l4-10.3330078c-5.576416,0-8.666748-2.5927734-8.666748-7
				c0-5.5043945,6.8796387-10.0712891,23.333252-10.6669922V690.6713867z"/>
			<path d="M137.166748,839.8286133c0,4.9824219-5.0688477,9-12.8334961,9l-4.9997559,12.1669922
				c7.9807129,0,14.9375-2.78125,19.6945801-7.5h0.1999512c0.0839844,1.8115234,0.2832031,4.7973633,0.5219727,6.5h13.9165039
				c-0.6171875-4.0639648-1-9.7900391-1-14v-22c0-12.9238281-7.0334473-19-25.9997559-19
				c-5.2993164,0-14.4125977,2.1455078-20.8334961,5l1.8334961,11.0664063c6.2956543-2.7988281,14.1054688-4.7333984,19-4.7333984
				c8.7424316,0,10.5,1.7441406,10.5,7.6669922c-24.0273438,0.8930664-35.166748,9.4228516-35.166748,21
				c0,10.2714844,6.4077148,16,17.3334961,16l4.9997559-12.1669922c-4.3515625,0-6.833252-2.0683594-6.833252-5.5
				c0-4.3930664,5.8618164-8.324707,19.666748-8.8330078V839.8286133z"/>
			<path d="M136,989c0,4.6538086-4.0625,8-11,8l-6,14c7.5754395,0,14.1875-2.4375,19.2336426-7h0.1999512
				c0.0664063,1.5625,0.2539063,4.5,0.4663086,6H155c-0.625-4.0625-1-9.7900391-1-14v-22c0-12.840332-7.2531738-19-27-19
				c-5.092041,0-14.3457031,2.1459961-21,5l2,12.7001953C114.5205078,969.9033203,122.3322754,968,127,968
				c7.8330078,0,9,1.2553711,9,6c-22.9345703,0.8662109-34,9.4223633-34,21c0,10.3271484,6.2800293,16,17,16l6-14
				c-3.126709,0-5-1.5444336-5-4c0-3.2817383,4.8442383-6.5786133,16-7V989z"/>
			<path d="M226.0449219,210.1713867c12.4716797,0,19.9550781,7.9187012,19.9550781,22
				c0,15.2653809-7.6542969,23.6665039-19.1220703,23.6665039l0.925293,5.166748
				c13.9921875,0,23.6967773-10.3591309,23.6967773-28.833252c0-17.3134766-9.4213867-27.166748-24.5302734-27.166748
				c-8.5742188,0-15.7202148,4.3161621-19.2695313,11H207.5v-32H202v76h5.3334961v-10.166748h0.199707
				c3.6025391,7.013916,11.1650391,11.166748,20.2700195,11.166748l-0.925293-5.166748
				c-12.1210938,0-19.2109375-7.28125-19.2109375-22.833252
				C207.6669922,218.0632324,214.2563477,210.1713867,226.0449219,210.1713867z"/>
			<path d="M227.0893555,362.3427734c11.1298828,0,17.9106445,7.2563477,17.9106445,20
				c0,13.7504883-7.1245117,21.3330078-17.2441406,21.3330078l1.8505859,7.3334961
				C243.2792969,411.0092773,253,400.5947266,253,382.3427734c0-17.4301758-9.387207-27.3334961-24.0605469-27.3334961
				c-8.0166016,0-14.9272461,3.902832-18.7392578,10H210v-31h-8v76h7.6669922v-9.3334961h0.199707
				c3.7670898,6.4233398,11.3125,10.3334961,19.7397461,10.3334961l-1.8505859-7.3334961
				c-10.796875,0-17.4223633-6.7138672-17.4223633-20.6665039
				C210.3334961,369.6113281,216.4589844,362.3427734,227.0893555,362.3427734z"/>
			<path d="M228.1342773,514.5C237.9213867,514.5,244,521.0942383,244,532.5c0,12.2363281-6.5947266,19-15.3657227,19l2.7749023,9.5
				C244.7631836,561,254.5,550.5297852,254.5,532.5c0-17.546875-9.3535156-27.5-23.5908203-27.5
				c-7.4594727,0-14.1342773,3.4897461-18.2089844,9H212.5v-30H202v76h10v-8.5h0.2001953
				c3.9311523,5.8334961,11.4594727,9.5,19.2089844,9.5l-2.7749023-9.5C219.1616211,551.5,213,545.3540039,213,533
				C213,521.1455078,218.6611328,514.5,228.1342773,514.5z"/>
			<path d="M229.1787109,666.6713867c8.4448242,0,13.8212891,5.9321289,13.8212891,16
				c0,10.7211914-6.0649414,16.6665039-13.487793,16.6665039l3.7001953,11.6665039
				c13.034668,0,22.7875977-10.5253906,22.7875977-28.3330078c0-17.6635742-9.3193359-27.6669922-23.1210938-27.6669922
				c-6.9018555,0-13.3413086,3.0766602-17.6787109,8H215v-29h-13v76h12.3334961v-7.6665039h0.199707
				c4.0961914,5.2431641,11.6074219,8.6665039,18.6791992,8.6665039l-3.7001953-11.6665039
				c-8.1484375,0-13.8452148-5.5786133-13.8452148-16.3334961
				C215.6669922,672.6938477,220.8637695,666.6713867,229.1787109,666.6713867z"/>
			<path d="M230.2236328,818.8286133c7.1020508,0,11.7763672,5.2700195,11.7763672,14
				c0,9.2070313-5.5351563,14.3334961-11.6098633,14.3334961l4.625,13.8334961
				c12.7158203,0,22.4848633-10.581543,22.4848633-28.1669922c0-17.7797852-9.2856445-27.8330078-22.6513672-27.8330078
				c-6.3442383,0-12.5488281,2.6630859-17.1489258,7H217.5v-28H202v76h14.6665039v-6.8334961h0.2001953
				c4.2602539,4.652832,11.7548828,7.8334961,18.1484375,7.8334961l-4.625-13.8334961
				c-6.8237305,0-12.0566406-5.0107422-12.0566406-14.1665039
				C218.3334961,824.2280273,223.0664063,818.8286133,230.2236328,818.8286133z"/>
			<path d="M220,934h-18v76h17v-6h0.2001953c4.4248047,4.0625,11.9023438,7,17.6181641,7l-5.550293-16
				C225.7685547,995,221,990.5566406,221,983c0-7.2236328,4.2685547-12,10.2680664-12C237.0283203,971,241,975.6074219,241,983
				c0,7.6923828-5.0053711,12-9.7319336,12l5.550293,16C249.2148438,1011,259,1000.3632813,259,983
				c0-17.8964844-9.2514648-28-22.1816406-28c-5.7866211,0-11.7558594,2.25-16.6181641,6H220V934z"/>
			<path d="M446,216.0046387h-0.2001953c-3.5493164-6.6838379-10.6953125-11-19.2695313-11
				c-15.1088867,0-24.5302734,9.8532715-24.5302734,27.166748c0,18.4741211,9.7045898,28.833252,23.6972656,28.833252
				l0.9248047-5.166748c-11.4677734,0-19.1220703-8.401123-19.1220703-23.6665039c0-14.0812988,7.4833984-22,19.9550781-22
				c11.7885742,0,18.378418,7.8918457,18.378418,22.833252c0,15.552002-7.090332,22.833252-19.2114258,22.833252
				l-0.9248047,5.166748c9.1044922,0,16.6669922-4.152832,20.2695313-11.166748h0.199707v10.166748H451.5v-76H446V216.0046387z"/>
			<path d="M445,365.0092773h-0.2001953c-3.8120117-6.097168-10.7226563-10-18.7392578-10
				C411.387207,355.0092773,402,364.9125977,402,382.3427734c0,18.2519531,9.7207031,28.6665039,23.394043,28.6665039
				l1.8500977-7.3334961C417.1245117,403.6757813,410,396.0932617,410,382.3427734c0-12.7436523,6.78125-20,17.9106445-20
				c10.6303711,0,16.7558594,7.2685547,16.7558594,20.6665039c0,13.9526367-6.6254883,20.6665039-17.4223633,20.6665039
				l-1.8500977,7.3334961c8.4267578,0,15.9726563-3.9101563,19.7392578-10.3334961h0.2001953v9.3334961H453v-76h-8V365.0092773z"/>
			<path d="M444,514h-0.2001953c-4.074707-5.5102539-10.7495117-9-18.2089844-9C411.3535156,505,402,514.953125,402,532.5
				c0,18.0297852,9.7368164,28.5,23.0908203,28.5l2.7749023-9.5c-8.7709961,0-15.3657227-6.7636719-15.3657227-19
				c0-11.4057617,6.0786133-18,15.8657227-18C437.8383789,514.5,443.5,521.1455078,443.5,533
				c0,12.3540039-6.1616211,18.5-15.6342773,18.5l-2.7749023,9.5c7.7490234,0,15.277832-3.6665039,19.2089844-9.5H444.5v8.5h10v-76
				H444V514z"/>
			<path d="M443,663.0043945h-0.2001953c-4.3374023-4.9233398-10.7768555-8-17.6787109-8
				C411.3193359,655.0043945,402,665.0078125,402,682.6713867c0,17.8076172,9.7529297,28.3330078,22.7880859,28.3330078
				l3.699707-11.6665039c-7.4228516,0-13.487793-5.9453125-13.487793-16.6665039c0-10.0678711,5.3764648-16,13.8212891-16
				c8.3149414,0,13.512207,6.0224609,13.512207,16.3330078c0,10.7548828-5.6972656,16.3334961-13.8457031,16.3334961
				l-3.699707,11.6665039c7.0712891,0,14.5825195-3.4233398,18.6787109-8.6665039h0.199707v7.6665039H456v-76h-13V663.0043945z"/>
			<path d="M442,811.9956055h-0.2001953c-4.5996094-4.3369141-10.8041992-7-17.1484375-7
				C411.2851563,804.9956055,402,815.0488281,402,832.8286133c0,17.5854492,9.769043,28.1669922,22.4848633,28.1669922
				l4.625-13.8334961c-6.0751953,0-11.6098633-5.1264648-11.6098633-14.3334961c0-8.7299805,4.6743164-14,11.7763672-14
				c7.1572266,0,11.8901367,5.3994141,11.8901367,14.1669922c0,9.1557617-5.2329102,14.1665039-12.0566406,14.1665039
				l-4.625,13.8334961c6.3935547,0,13.8881836-3.1806641,18.1484375-7.8334961h0.2001953v6.8334961H457.5v-76H442V811.9956055z"/>
			<path d="M441,961h-0.2001953c-4.8623047-3.75-10.831543-6-16.6181641-6C411.2514648,955,402,965.1035156,402,983
				c0,17.3632813,9.7851563,28,22.1816406,28l5.5498047-16C425.0053711,995,420,990.6923828,420,983
				c0-7.3925781,3.9716797-12,9.7314453-12c6,0,10.2685547,4.7763672,10.2685547,12c0,7.5566406-4.7685547,12-10.2685547,12
				l-5.5498047,16c5.7158203,0,13.1933594-2.9375,17.6181641-7H442v6h17v-76h-18V961z"/>
			<path d="M629.2919922,183.0046387c-10.4580078,0-14.7919922,4.720459-14.7919922,16.333252v7.8334961H602v4.6665039h12.5
				v48.166748h5.5v-48.166748h18.8334961v-4.6665039H620v-7.8334961c0-8.793457,2.5859375-11.5,9.9584961-11.5
				c2.2900391,0,4.4799805,0.5292969,6.7080078,1.6000977l1.1669922-4.6833496
				C635.1279297,183.5576172,632.5175781,183.0046387,629.2919922,183.0046387z"/>
			<path d="M630.0332031,333.0092773C618.8701172,333.0092773,614,338.2900391,614,350.6757813v6.6669922h-12v6.3330078h12
				v46.3334961h8v-46.3334961h17.6665039v-6.3330078H622v-6.6669922c0-8.4824219,2.3369141-11,9.3666992-11
				c2.3320313,0,4.7172852,0.5566406,6.9667969,1.6000977l1.3334961-6.4667969
				C636.5898438,333.5766602,633.6386719,333.0092773,630.0332031,333.0092773z"/>
			<path d="M630.7749023,483C618.9057617,483,613.5,488.8408203,613.5,502v5.5H602v8h11.5V560H624v-44.5h16.5v-8H624V502
				c0-8.171875,2.0878906-10.5,8.7749023-10.5c2.3735352,0,4.9550781,0.5839844,7.2250977,1.6000977l1.5-8.25
				C638.0517578,483.5820313,634.7597656,483,630.7749023,483z"/>
			<path d="M631.5166016,633.0043945C618.9414063,633.0043945,613,639.4057617,613,653.3378906v4.3334961h-11v9.6665039h11
				v42.6665039h13v-42.6665039h15.3334961v-9.6665039H626v-4.3334961c0-7.8613281,1.8383789-10,8.1835938-10
				c2.4150391,0,5.1918945,0.6118164,7.4829102,1.6000977l1.6669922-10.0332031
				C639.5136719,633.6005859,635.8813477,633.0043945,631.5166016,633.0043945z"/>
			<path d="M632.2583008,782.9956055c-13.2807617,0-19.7583008,6.9614258-19.7583008,21.6665039v3.1665039H602v11.3334961h10.5
				v40.8334961H628v-40.8334961h14.1665039v-11.3334961H628v-3.1665039c0-7.5507813,1.5893555-9.5,7.5917969-9.5
				c2.456543,0,5.4291992,0.6391602,7.7416992,1.6000977l1.8330078-11.8168945
				C640.9755859,783.605957,637.0024414,782.9956055,632.2583008,782.9956055z"/>
			<path d="M633,933c-13.9868164,0-21,7.5214844-21,23v2h-10v13h10v39h18v-39h13v-13h-13v-2c0-7.2402344,1.340332-9,7-9
				c2.4985352,0,5.6665039,0.6665039,8,1.6000977L647,935C642.4375,933.625,638.1235352,933,633,933z"/>
			<path d="M746,255.8378906c0,13.5354004-7.1030273,22.333252-22.3374023,22.333252
				c-6.0756836,0-10.5390625-0.8903809-15.6625977-3l-0.8334961,4.8334961c5.1552734,2.0625,10.1401367,3,16.5,3
				c17.2744141,0,27.8334961-9.578125,27.8334961-27v-50h-5.1669922v10.1665039h-0.199707
				c-3.3310547-6.6940918-10.796875-11.1665039-19.4360352-11.1665039c-15.2758789,0-24.6972656,9.8532715-24.6972656,27.166748
				c0,17.640625,9.7045898,27.833252,23.6972656,27.833252l0.9248047-5.166748
				c-11.3286133,0-19.1220703-8.0957031-19.1220703-22.6665039c0-14.0812988,7.4833984-22,19.9550781-22
				c11.7885742,0,18.3779297,7.8918457,18.3779297,22.833252c0,14.7185059-7.0898438,21.833252-19.2109375,21.833252
				l-0.9248047,5.166748c9.1044922,0,16.5400391-4.0661621,20.1025391-11H746V255.8378906z"/>
			<path d="M745,405.6757813c0,11.5942383-5.6821289,20.6665039-20.6743164,20.6665039
				c-6.2143555,0-10.7949219-0.8911133-15.9257813-3l-1.0668945,6.6669922c5.3105469,2.0625,10.4487305,3,17.0004883,3
				c17.8745117,0,28.6665039-9.6616211,28.6665039-27v-50h-7.3334961v9.3330078h-0.199707
				c-3.375-6.1176758-10.9262695-10.3330078-19.0727539-10.3330078c-15.0068359,0-24.394043,9.9033203-24.394043,27.3334961
				c0,17.5849609,9.7207031,27.6665039,23.394043,27.6665039l1.8500977-7.3334961
				C717.2358398,402.6757813,710,395.5375977,710,382.3427734c0-12.7436523,6.78125-20,17.9106445-20
				c10.6303711,0,16.7558594,7.2685547,16.7558594,20.6665039c0,13.2861328-6.6254883,19.6665039-17.4223633,19.6665039
				l-1.8500977,7.3334961c8.4267578,0,15.7177734-3.7363281,19.4057617-10H745V405.6757813z"/>
			<path d="M744,555.5c0,9.652832-4.2617188,19-19.0117188,19c-6.3520508,0-11.0507813-0.8925781-16.1884766-3L707.5,580
				c5.4648438,2.0625,10.7573242,3,17.5,3c18.4750977,0,29.5-9.7446289,29.5-27v-50H745v8.5h-0.2001953
				c-3.418457-5.5415039-11.0546875-9.5-18.7089844-9.5C711.3535156,505,702,514.953125,702,532.5
				c0,17.5297852,9.7368164,27.5,23.0908203,27.5l2.7749023-9.5c-8.6875,0-15.3657227-6.1806641-15.3657227-18
				c0-11.4057617,6.0786133-18,15.8657227-18C737.8383789,514.5,743.5,521.1455078,743.5,533
				c0,11.8540039-6.1616211,17.5-15.6342773,17.5l-2.7749023,9.5c7.7490234,0,14.8959961-3.40625,18.7089844-9H744V555.5z"/>
			<path d="M743,705.3378906c0,7.7114258-2.8413086,17.3334961-17.3486328,17.3334961
				c-6.4902344,0-11.3066406-0.894043-16.4511719-3l-1.5336914,10.3330078c5.6201172,2.0625,11.065918,3,18,3
				c19.0756836,0,30.3334961-9.8276367,30.3334961-27v-50h-11.6669922v7.6669922h-0.199707
				c-3.4624023-4.965332-11.184082-8.6669922-18.3452148-8.6669922c-14.46875,0-23.7880859,10.003418-23.7880859,27.6669922
				c0,17.4741211,9.7529297,27.3330078,22.7880859,27.3330078l3.699707-11.6665039
				c-7.3676758,0-13.487793-5.2231445-13.487793-15.6665039c0-10.0678711,5.3764648-16,13.8212891-16
				c8.3149414,0,13.5117188,6.0224609,13.5117188,16.3330078c0,10.4213867-5.6967773,15.3334961-13.8452148,15.3334961
				l-3.699707,11.6665039c7.0712891,0,14.0737305-3.0761719,18.0117188-8H743V705.3378906z"/>
			<path d="M742,855.1621094c0,5.7705078-1.4204102,15.6665039-15.6860352,15.6665039c-6.628418,0-11.5625-0.8945313-16.7138672-3
				l-1.7670898,12.1669922c5.7753906,2.0625,11.375,3,18.5,3c19.6762695,0,31.1669922-9.9116211,31.1669922-27v-50h-13.8334961
				v6.8330078h-0.199707c-3.5063477-4.3886719-11.3134766-7.8330078-17.9819336-7.8330078
				C711.2856445,804.9956055,702,815.0488281,702,832.8286133c0,17.4189453,9.769043,27.1669922,22.4848633,27.1669922
				l4.625-13.8334961c-6.0473633,0-11.6098633-4.265625-11.6098633-13.3334961c0-8.7299805,4.6738281-14,11.7763672-14
				c7.1572266,0,11.8901367,5.3994141,11.8901367,14.1669922c0,8.9887695-5.2329102,13.1665039-12.0566406,13.1665039
				l-4.625,13.8334961c6.3935547,0,13.2519531-2.746582,17.3149414-7H742V855.1621094z"/>
			<path d="M759,956h-16v6h-0.2001953c-3.5498047-3.8125-11.4423828-7-17.6181641-7C711.2514648,955,702,965.1035156,702,983
				c0,17.3632813,9.7851563,27,22.1816406,27l5.5498047-16C725.0053711,994,720,990.6923828,720,983
				c0-7.3925781,3.9716797-12,9.7314453-12c6,0,10.2685547,4.7763672,10.2685547,12c0,7.5566406-4.7685547,11-10.2685547,11
				l-5.5498047,16c5.7158203,0,12.4296875-2.4165039,16.6181641-6H741v1c0,3.8291016,0,14-14.0234375,14
				c-6.7661133,0-11.8178711-0.8959961-16.9765625-3l-2,14c5.9301758,2.0625,11.6831055,3,19,3c20.2763672,0,32-9.9946289,32-27V956
				z"/>
		</g>
	</svg>
