<?xml version="1.0" encoding="utf-8"?>
<!-- Generator: Adobe Illustrator 11.0, SVG Export Plug-In . SVG Version: 6.0.0 Build 78)  -->
<!DOCTYPE svg PUBLIC "-//W3C//DTD SVG 1.0//EN"    "http://www.w3.org/TR/2001/REC-SVG-20010904/DTD/svg10.dtd" [
	<!ENTITY ns_flows "http://ns.adobe.com/Flows/1.0/">
	<!ENTITY ns_svg "http://www.w3.org/2000/svg">
	<!ENTITY ns_xlink "http://www.w3.org/1999/xlink">
]>
<svg  xmlns="&ns_svg;" xmlns:xlink="&ns_xlink;" xmlns:a="http://ns.adobe.com/AdobeSVGViewerExtensions/3.0/"
	 width="800" height="1050" viewBox="0 0 800 1050" overflow="visible" enable-background="new 0 0 800 1050" xml:space="preserve">
	<metadata>
<?xpacket begin='﻿' id='W5M0MpCehiHzreSzNTczkc9d'?><x:xmpmeta xmlns:x='adobe:ns:meta/' x:xmptk='XMP toolkit 3.0-29, framework 1.6'>
<rdf:RDF xmlns:rdf='http://www.w3.org/1999/02/22-rdf-syntax-ns#' xmlns:iX='http://ns.adobe.com/iX/1.0/'>

 <rdf:Description rdf:about=''
  xmlns:pdf='http://ns.adobe.com/pdf/1.3/'>
 </rdf:Description>

 <rdf:Description rdf:about=''
  xmlns:tiff='http://ns.adobe.com/tiff/1.0/'>
 </rdf:Description>

 <rdf:Description rdf:about=''
  xmlns:xap='http://ns.adobe.com/xap/1.0/'
  xmlns:xapGImg='http://ns.adobe.com/xap/1.0/g/img/'>
  <xap:CreateDate>2005-10-18T07:00:52Z</xap:CreateDate>
  <xap:ModifyDate>2005-10-18T07:00:52Z</xap:ModifyDate>
  <xap:CreatorTool>Illustrator</xap:CreatorTool>
  <xap:Thumbnails>
   <rdf:Alt>
    <rdf:li rdf:parseType='Resource'>
     <xapGImg:format>JPEG</xapGImg:format>
     <xapGImg:width>196</xapGImg:width>
     <xapGImg:height>256</xapGImg:height>
     <xapGImg:image>/9j/4AAQSkZJRgABAgEASABIAAD/7QAsUGhvdG9zaG9wIDMuMAA4QklNA+0AAAAAABAASAAAAAEA&#xA;AQBIAAAAAQAB/+4ADkFkb2JlAGTAAAAAAf/bAIQABgQEBAUEBgUFBgkGBQYJCwgGBggLDAoKCwoK&#xA;DBAMDAwMDAwQDA4PEA8ODBMTFBQTExwbGxscHx8fHx8fHx8fHwEHBwcNDA0YEBAYGhURFRofHx8f&#xA;Hx8fHx8fHx8fHx8fHx8fHx8fHx8fHx8fHx8fHx8fHx8fHx8fHx8fHx8fHx8f/8AAEQgBAADEAwER&#xA;AAIRAQMRAf/EAaIAAAAHAQEBAQEAAAAAAAAAAAQFAwIGAQAHCAkKCwEAAgIDAQEBAQEAAAAAAAAA&#xA;AQACAwQFBgcICQoLEAACAQMDAgQCBgcDBAIGAnMBAgMRBAAFIRIxQVEGE2EicYEUMpGhBxWxQiPB&#xA;UtHhMxZi8CRygvElQzRTkqKyY3PCNUQnk6OzNhdUZHTD0uIIJoMJChgZhJRFRqS0VtNVKBry4/PE&#xA;1OT0ZXWFlaW1xdXl9WZ2hpamtsbW5vY3R1dnd4eXp7fH1+f3OEhYaHiImKi4yNjo+Ck5SVlpeYmZ&#xA;qbnJ2en5KjpKWmp6ipqqusra6voRAAICAQIDBQUEBQYECAMDbQEAAhEDBCESMUEFURNhIgZxgZEy&#xA;obHwFMHR4SNCFVJicvEzJDRDghaSUyWiY7LCB3PSNeJEgxdUkwgJChgZJjZFGidkdFU38qOzwygp&#xA;0+PzhJSktMTU5PRldYWVpbXF1eX1RlZmdoaWprbG1ub2R1dnd4eXp7fH1+f3OEhYaHiImKi4yNjo&#xA;+DlJWWl5iZmpucnZ6fkqOkpaanqKmqq6ytrq+v/aAAwDAQACEQMRAD8A9U4q7FXYq7FXYq7FXYq7&#xA;FXYq7FXYq7FXYq7FXYq7FXYq7FXYq7FXYq7FXYq7FXYq8w/Lz8wdPj8l6Lp9lZ3+u6ha2UI1BdOh&#xA;9VYGKBuEs8jRQiShB9PmXpQ8d8VZ75f8xaZr1gbywaQLHI0FxBPG8M8M0f24popAro61GxHShGxB&#xA;xVMsVSnyrNo02jK+jq6WH1i6ULIXLeqt1Is+7lmoZg9N+nTbFU2xV2Kpd5kk0yLy9qkuqqzaXHaT&#xA;tfqhYMYBExlClCrV4VpxIOKoyzMLWkDQAiExqYga148RxrXfpiqrirFPI0wVPMkk0lEj1q9q7nZV&#xA;Xgep6AYqmvl3zPpfmGGe60oyTWEUnpRX5jZILgj7TW7tT1YwdvUUcSfsk4qm2KpB5aZjrPmsEkhd&#xA;ViCg9h+i7E0H0nFU/wAVdirFdR/MfRLXW7nQLa2vNU120K+tptjCJJFjaNJfVZnaOJI6SqOTuKts&#xA;tSDiqiPzR8vyrFDZW19e6vI8kcmhw25F9CYeJkNxHIY1hVfUSju4VuQ4lqjFU68u+ZtO163nktUm&#xA;t7izlNvfWV1G0NxBKFDhZEb+ZHVlYEqwNQTiqXaz+YvlzSdZk0OU3FzrYjilh0u0hee4mWbnRo0T&#xA;9lfTPN2oq7VO4xVEaJ5ysdU1F9Kms7zStVWI3C2OoQ+m8kKsEaSJ0aSGQKzKG4OStRyAqMVT/FUo&#xA;8xeadJ0CKBr5pZLi8cxWNjaxPcXM8gHIrFDGGY8RuzfZUbsQMVQFl5+06XUbfTtSsL/RLq9b07H9&#xA;IwCOKeSlfTSeJpofUI6Izhj2GKsmxV2KsM/JvT7Sx/LPQI7WNY0lthcSBQByknYySMadyzHFUR5b&#xA;ATzx5wRdleTT5mA6GRrQRlj7lIkH0DFWV4qxX8sP+UQj/wCY7VP+6lcYqyrFXYqx/wDMP/lAPM3/&#xA;AGyr7/qGfFU20n/jlWX/ABgi/wCIDFUVirw0/wDKR63/AIw9X/lXX6Yua+hX6p9c5rX9L8fj+r/Y&#xA;4f7prX1f2cVe3weh6EfocfQ4j0uFOHCnw8abUp0piq/FWP8Aln/jtebf+2rF/wB0qxxVkGKuxViH&#xA;lO2t188eebpYwLiW7sIpJf2mSPToWRT7KZGp88VWeWbCzj/MjzpepEq3U66Wk0oHxMsdu/EE+3LF&#xA;VfRAB+Y/mkDYGy0liB3Ym7WvzooH0YqpaLaW3/K0vM936a/WRpukxCanxCMveMVB8CRU4qi/M9uv&#xA;+J/J92DSVL+5t9u8cum3MjA+3KBD9GKslxViMIjb827s3NfUi0C2/RdelJLy4+vcf+Rdpyp7Yq78&#xA;2hH/AMq512T/AI+obcy6YR9oahGwaxK/5X1oR098VZdirsVS/wAv6Ja6Follo9o8j21hEsELykGQ&#xA;qgoCxUKK/IYq6y0S1tNW1HVI3kNxqfo/WFYgov1dCicAACKg71JxVMMVS/QdEtdF00afavI8Kyzz&#xA;hpSC3K5ne4cVUKKB5SBt0xVMMVdirB/zG83eWv8ABfmOwg1O1udTmtbrTbfT4Z4nuJL6aNoY7ZY1&#xA;Yt6rSMF40qO+Ksys4Db2cEBPIxRohYdCVUCuKq2Kpdpeg2OnJfxxFpU1K6mvLhJuLDnPQOoAUfBt&#xA;0NcVQvlzylp/l17mPS5riLTJyGg0hnV7S1bct9VUr6kSuTX0w/Afsqu+Kp3iqDsdLt7K61G5iZ2f&#xA;U7hbqcMQQHW3itgEoBReFup3rvX5YqjMVdiqX6folrY6lqmoQvI02rSxz3KuQVVooEt1CAAEDhEC&#xA;ak74q6y0S1tNW1HVI3kNxqfo/WFYgov1dCicAACKg71JxV1rolrba3f6wjyG51GK3gnRiPTC2plK&#xA;FAADU+u3KpPbFXWuiWttrd/rCPIbnUYreCdGI9MLamUoUAANT67cqk9sVVL7S7e9utOuZWdX0y4a&#xA;6gCkAF2t5bYh6g1XhcMdqb0+WKozFUl8yeVLDXTazST3FjqVgzPp+qWUgiuYC9BIFLK8bo4Uc45E&#xA;ZGoKjYUVS+28iNLqFpfa9rl/rz2EgmsrW5+rQWscy/YmMNpDbiSROqmQsFO6gHFWVYq7FXYq7FXY&#xA;q7FXYq7FUIuj6St6b9bK3W+bc3QiQSkkU+3Tl098VReKuxV2KuxV2KuxV2KuxV2KuxV2KuxV2Kux&#xA;V2KuxV2KuxVIfIvnCx84eV7TzDYwy29rdvOiQz8fUBtriS3avEsN2iJG/TFU+xV2KpboGsSatZSX&#xA;Mlhc6c0dxPbiC8jMcjCCVohKqn9iTjzQ91IOKplirsVQ2p3jWOm3d6sEt01rDJMtrAvOaUxqW9ON&#xA;f2nalFHjirtMvGvtNtL1oJbVrqGOZrWdeE0RkUN6ci/sutaMPHFUTiqS+W/NNnr0+tQ20UkTaHqM&#xA;ml3Bk40eWKGKYulCfhpOBvviqdYq7FUl0fzTZ6pr+v6LDFIk/l+a3guZH48JGubZLlTHQk0CyAGv&#xA;fFU6xV2KuxV2KuxV2KuxV2KuxV2KuxV2Kvn38jdF/MrXPy6s47PzAPK+gWlxfx2LWltDc3d2xvp5&#xA;JJZXuVdI40kYoqItTxJJoaYq9I/LXzF5kuL/AMxeVfM9zFf615ZuIIzqkMQgF1a3kImt5XhUlUk+&#xA;0rhfhqNsVZ1irD/yt1/Vtc8uXV5qk/1i5j1XU7VJOCJSG2vZYYloiqPhjQCvU998VZhirsVSfzlf&#xA;3eneUNc1Czk9K8s9Puri2lorcZIoGdG4sCpow6EUxV3k2/u9R8oaHqF5J6t5eafa3FzLRV5SSwK7&#xA;txUBRVj0ApiqcYq8Y8u+f9K8rXnnmBopNS17UPNd2mj6DaAPd3UgsbP7K/sRr1eVvhUe9AVXoXku&#xA;y87pDcX/AJt1CKW8vmDxaPaRxi1sEHSJJuAmnf8And2pX7IAxVkuKsA8if8AkzPzM/5jtL/7pNvi&#xA;rP8AFXYq8kudR/MvzH+afmryppOuronl/SItPme9jtoJ7pDdW5Ihg9ROP7xld3d+RWgC0riqC0e+&#xA;/OHVPNusfl9L5gS2j0AR3V15vis4Dd3NveoGtIFgYfVo3BWYPJx34igBqcVZR+XOveZ08y+ZfJnm&#xA;XUE1e+0L6pc2WrCFLd7i0vkcqJYoqRh4niZSVAqKHFUq17WfzO1P82L/AMoeXNSh0zR49Ks7651K&#xA;a3juHtS80yMII2A5yz8VA9ViiqpPGuKq9hf+d/KHn7Q9B17Xz5k0LzOt1FZ3NzbwW11aXlrH9YCl&#xA;rcRpJHLGGAqteVO3VV6dirAfO/mXzTc+bdN8i+Up4bDVLu0k1PVdZniE4s7GOQQoYoWISSWWU8V5&#xA;7AAmh7KpN5nn/Mb8u9P/AMUT+Y381eXrN0bXtOvrW2huI7eR1WS4tJbVId4+XL03Ujj0IxV6sjo6&#xA;K6MGRgCrA1BB3BBGKt4q85/5x6tbm1/KTR4LmJ4Jlm1EtFIpRhy1K5YVVqHcGuKu8l2tzH+c/wCZ&#xA;NxJE6QTw6CIZWUhH4W04bix2bjXemKvRsVYH+TFvcW/lO9SeJ4nOt6w4V1Kkq2ozMrUPYg1GKs8x&#xA;V2Ksf/MP/lAPM3/bKvv+oZ8Vd+Xn/KAeWf8AtlWP/UMmKsgxV4fon5calfeY/OnmrQbltE852fmG&#xA;6j06+mRmtru0NpaP9Vu4v92W7vy+JfiVviXcYq9G8kedrjXTc6ZrGmTaJ5m06g1HTpQWiYHpNa3A&#xA;HCaFq7EGo6MB3VZVirA/JFvcR/mR+Y8skTpFPe6YYZGUhXC6VArFSdjRhQ0xVnmKuxVgfk+3uI/z&#xA;U/MGZ4nSGb9D+jIykK/GzYNxJ2ND1pirvK9vcJ+b3nud4nWCWy0IRSlSEcot5yCt0PGorTFUL5bt&#xA;blPzy853DROtvLpekrHMVIRmX1+QVuhIrviqK0e3uF/OrzLcNE4gfRNKRJipCMyz3ZZQ3QkVFcVQ&#xA;v5k2tzL5/wDy1liieSODVLtpnVSyopsZACxH2RXbfFXo2KvM/OrX3lT8ybDz8bC41DQbjS20PWzZ&#xA;RPPPZqlwbmC69GMM7xVd1k4iqjffpiqVeevP2nfmF5cufJnkRbjVb7XQtpeX4tbiK0sbWRh6808s&#xA;yRLX0uQRB8RNNsVevW8KQQRwJXhEqotetFFBXFV+KuxV2KuxV2KuxV2KvOfOuh/m75jsNZ8uQnQr&#xA;LQdW9Sz/AEn6t3JepYTApJW2MQiaYxsR/fBcVZ7pmn22m6baadagrbWUMdvAD1CRKEXpTsMVROKu&#xA;xV2KuxV2KuxV2KuxV2KuxV2KuxV2KuxV2KuxV2KuxV2KuxV2KuxV2KuxV2KuxV2KuxV2KuxV2Kux&#xA;V2KuxV2KuxV2KuxV2KuxV2KuxV4h+Tf5t6NYflyl/wCe/M0cd5PqV9FbyahPymeOKWgCqauVTpsK&#xA;DFXsGheYNE1/TYtT0W+h1HT5qiO5t3EiEqaEVHQg9QdxiqPxViX5dRwpa636XmdvNAOr3RaZmDfU&#xA;mIStgKM9BD1pt9rpirLcVdiqV+alRvLGsK+pHR0NlchtXBobQGJq3INVp6P2+o6YqpeTVRfKmkqm&#xA;rHXUFrEF1ljyN2OI/fkgtXn16nFU5xV5d+VWva1qP5ifmZZX97Nc2emalbRafBK5ZIEeOQssYP2Q&#xA;SB0xVnth5o8uajq17o9hqVvdanp1Pr9pDIryQEmlJQteJr2OKppirzjyNrer3f5x/mdpd1eSzadp&#xA;n6D/AEdaO5aOD6xYu83pqdl5uKtTqcVej4q7FWO63+YvkTQ5ruDV9esrG4sFja7gmmRZIxMKx1Sv&#xA;L4xuABiqgPzT/Lk+Xm8xjzFYHRFl+rte+svATEV9Kn2vU478aVpv0xVM/LXmzy15n086h5f1K31O&#xA;zVzG81u4cK43KsOqtQ1oe2KrNU85+UtJuLm21TWLOxns7dbu6juJkjaOBm4LIwYiis/wjxO2Koby&#xA;t+YnkfzXJNF5c1u01Oa3HKaGCQGRVqByKGjcamnKlMVZFiqC1jW9H0Wwk1HV72DT7CH+8urmRYox&#xA;XoOTkCp7DFUi8ufmp+XPmW++oaH5hsr6+IJS1jlAlYAEngjcWagFTxG2KsqxV2Kvnz/nFv8AL7yn&#xA;ceU9R8x3+nQX+q3mo3duJ7qNZvSgiegjiDhgoLFmYjrXfoMVTz8oLG20D84/zQ8saZGtvosMmmX9&#xA;tZxjjHFLd23qS+mg2UMXAoOyjFXs+KvIP+cbP+OV56/8DLVf+IQYq9fxV2KsV/Nj/wAlZ5y/7Yep&#xA;f9QcmKoT8lP/ACUflD/tlWv/ACaGKs1xV8jaz5w8yaJ+Y3n7TLC6bQtF1zXra01vzeEaT9HRGNgo&#xA;UL9hpuRAkanGnbqFX0t5A8meVfKXlu20zy1EosHUTm7DCR7p3UE3Eko/vGcb16U6UFBirI8VeVfl&#xA;3/5Pb83P/Bd/7p74q9VxV2KvCdK8q6Brf/OUnm671ayivm03S7F7OK4RZI0kliiUycGBHIKKDwri&#xA;qC8pfl55Qb/nJfzfE2mwNYabZW17ZaayKbWO6u44hLMsJHDls1NtuR9qKp3+XGn2Oi/85CfmHpWl&#xA;QR2WmzWWm3bWcChIhMYxV1RQAtTIxNO5xVCav5L0HzP/AM5Qyfpu2S+tNL8uQXcVnMA8Lz/WWjRp&#xA;EPwuFDsaEdaYqq/mLoekeXvzp/LLV9Es4dPvNSubzT9QNtGsSzwGFQokVAoYrzND/QYq9uxV4r5+&#xA;0+z80f8AOQ3lXyvryrceX7DR59Yg0+WjQXF6ZXho6HZ/TRA1DX7icVV/+cj/ACh5bi/LO+8x21rB&#xA;puu+XTb3ej6rboIZoZUnjRUV4wDRuVAvStD2xV6tol3Ne6NYXk4Cz3NtDNKoFAHkjDMAD7nFUbir&#xA;D/yr/L7/AAF5XbQvr/6S5Xdxd/WfR9D/AHoflw4c5fs+PLFW/L/5ffoj8xfNXnL6/wCv/iaOyj+o&#xA;ejw9D6lAIa+rzb1OdK/YWnvirL8VYh+Wv5ff4Ktddt/r/wCkP01rN3rPL0fR9L62Ix6NOcnLj6f2&#xA;tq16DFWX4q7FWB/nB5k0CD8rfOSy6jbB/wBFX1nw9VCwuJYHhSIqDXmZHC0xVGfk7bXFt+VPlKG4&#xA;jMUy6TaFo22YcoVIqOxoemKswxVg/l78rLDTdZ86XuoTx6tY+c545rjTprcCONI0ZDGxLyCUNz68&#xA;VxV35e/lzqHki4vLGw12S78oysZNN0O7iMktizGpSG7MtTD1+Bo/pryLKs4xVivl3yL+hvPfm7zX&#xA;9e9f/FX6O/0P0uH1f9HW7Qf3nNvU9Tly+ytOm+KsqxV2KsP0j8vv0d+Zmv8Anf6/6v6ctLa0/R/o&#xA;8fS+rKq8/V5nny49OApirtI/L79HfmZr/nf6/wCr+nLS2tP0f6PH0vqyqvP1eZ58uPTgKYq7SPy+&#xA;/R35ma/53+v+r+nLS2tP0f6PH0vqyqvP1eZ58uPTgKYqrW/kX0fzNu/PH17l9a0qPSf0f6VOPpz+&#xA;t6vq8969OPD6cVUfOf5ff4l80eUtd+v/AFT/AAtdy3f1b0fU+seqirw5809OnDrxbFWYYqwj8x/y&#xA;wh83y6bqtjqc2g+adEd30jW7ZVkaP1BR45YmIWWNu6kj7iQVWNXn5OedPNV1Yx/mJ5wGs6BYyJO2&#xA;h2NkljFdSx7qbl1d2Za9UpTw44q9cAAFBsB0GKuxV2KuxV2KuxV2KuxVhV/+Sv5V6hrsmvX3lu0u&#xA;dVmkM008oZleQtyLvGW9NiT1quKs1AAFBsB0GKuxV2KuxV2KuxV2KuxV2KuxV2KuxV2KuxV2KuxV&#xA;2KuxVj/k7z75T85Wl1d+W776/b2U5tbp/Smh4TKAxWkyRk7MNxtirIMVdiqReWPPHlbzRLqcWhXv&#xA;1yTR7lrLUV9KaL0p0JDJ+9ROX2TutRiqe4q7FULq2qWGkaVearqEvoWGnwS3V5NxZ+EMKGSRuKBm&#xA;biqk0UE4qh/LfmTRfMuiWuuaJcfW9LvVZra44SR8wrFD8Eqo4+JSNxiqZYqkWjeePK2ta9q2gaZe&#xA;/WNW0JkTVbb0pk9EyV4jm6Kj14n7DHFU9xV2KpFY+ePK195t1Hyja3vqeYdKiS4v7H0pl9OOVUZG&#xA;9VkETVEybKxO+Kp7irsVdirsVdirsVdirsVdirsVdirsVfHv5AebPzRtNN8xaH+X/l221S7OpyXl&#xA;7qWoy+naQq6BI4uIeFndzG3R9vDFXuf5L/m1q/nOTW9D8y6YmkebPLsyw6jaQljEyuWUOnIuRRkI&#xA;PxMOhB3xV6firy/8k/On+Jb7zpF+iLDS/wBE6xLZ87CL0muOLOPVn3PKQ8dzir1DFXYqkXn3U/0V&#xA;5G8xap9XivPqGl3tz9UuF5wy+jbu/pyr+0j8aMPDFUp/JvzD/iL8tND1r6hbaZ9cikb6jYp6VvHx&#xA;mdKRpvQHjX54qzPFXzv+X/mXQ/LX5wfnHrOuXcdlp1rLatLNIf8AjJRVHVnboqjc9sVeg/lR5888&#xA;eemutfutIg0bybKzDQlmEh1C6QbCZ/j9NEPX7Jr2qByKr0fFXhXkn/1rX8w/+2VZf9Q9lir3XFXY&#xA;q8P84fnX+Ytp+beofl55U8vWerXa2sUthLM7x8HeOOV5bluar6SKzCg4knjQ12KqTaX+f/5vXWtX&#xA;3kGTyfaP+ZFtMAqJKyadHben6jTS8pXagVkK0kowbsQAyrMfyf8AzZ81eZPMmv8Ak3zrpMGk+atB&#xA;CSyLZljBJC9BUBnlIpzRgeZDBu1MVS/8xvzv82+W/wA0YfI2heXo9dur/T45tMhVmjla7kdx+9ct&#xA;wWFI42dtu3UDcKqHlr85PzL0v8x9N8mfmboNjpp15T+h7/TWcxeoK0Ry8swarDhsQQSNqGuKvb8V&#xA;ebfm5+blx5NudI0HQtKOueb/ADA5TTNO5cEVQQPVlI341PTboSWAGKsR1X83/wA6fIbWep/mR5Y0&#xA;1/K9xKkN1f6JJI0lq0nT1Ekkl5U9qAnblWlVXudrc291bQ3VvIJbedFlhlXdWRxyVh7EHFVTFXz/&#xA;AP8AOHQH+FvNJ7/pyXf/AJ4x4qi/yxAH/OS/5n0/3xZ/8QjxV7rirwr/AJxj/wCOr+Zf/gR3H/E5&#xA;MVe64q7FWK/mx/5Kzzl/2w9S/wCoOTFWP/8AON3/AJJLyt/xgm/6ipcVelYq+O9X/KnUPzA/NX8z&#xA;hpV0sWr6LfWt7YWdwFe0uXAkHpTK3w70orNUbkHZiQq9+/KD82tP842Uuj39sNE84aN+41fy+49N&#xA;kMfwmSBDuYvb9joexZV6NirwryT/AOta/mH/ANsqy/6h7LFXuuKuxV4T5aVT/wA5heayQCV8uRFS&#xA;exrYio+g4q35ZA/6HB82mm/+HIj9PKxGKoXyb/62T57/AO2HD/ya0zFUVegf9Dg2Ht5can/BS4q7&#xA;8/P/ACbn5Nf9tW5/5O2WKvdcVfP/AOdc83k387vJX5m6hbyTeV7W1k0rUbiJDJ9WeT6wokYCpFRd&#xA;VHjxI64qg/z9/N/yT5w8gyeS/J15/iHX/MU9rDaWtmkjMgjuI5yzclABPpcePXevQHFXuvk7R59F&#xA;8o6Jo07+pPpmn2tnLJXlyeCFY2Ndq1K4qm+KoPTdG0fSo5I9MsbexjlcySpbRJCruRQswQLVtupx&#xA;VuDSNJt76fULeyghv7oAXV3HEizShegkkADNSnc4qi8VQlhpGk6e07WFlBZtdOZbloIkiMsh6vJw&#xA;A5N7nFUXirsVeJ/mZrv55azZ+YvJ2keQ0ax1MT2Fpr51C3EZs5gY2kaFiCrNGT1bbwxV6L+WPlCT&#xA;yd5B0Ty1NKs8+nW4S4lSvAyuxkk4VoePNzxr2xVk+KoS10jSbS7ub21soILy8IN3cxRIkspXoZHU&#xA;BnpXucVWHQNCOqjWDp1qdWAoNR9GP6wBx4U9bjz+z8PXptiqOxVCRaRpMOozanFZQR6lcqEuL1Ik&#xA;WeRVACq8gHNgAooCe2KovFXYqhI9I0mPUpNUjsoE1OZPSlvliQTvGKfA0oHMr8I2J7DFXR6RpMep&#xA;SapHZQJqcyelLfLEgneMU+BpQOZX4RsT2GKtRaNo8WpzarFY28eqXCCOe/WJBcSIOICvKBzZfgXY&#xA;nsPDFWzpGknUhqhsoDqap6S3xiT1xH/IJac+O/SuKuvNI0m9ubW6vLKC5ubJi9nPNEkjwsaEtEzA&#xA;lCeI3XwxVF4qp3Fvb3MDwXESTQSgrJFIodGU9QymoIxVLtI8peVNGmefR9FsdNnlr6stpbQwO1dz&#xA;yaNVJxVNcVdirsVdirsVdirsVdirsVdirsVdirsVdirsVdirsVdirsVdirsVdirsVdirsVdirsVe&#xA;K/8AOPX5t+ZPOkPmufzTc2yQaNcwx28qosCJG/q8ubVp+wNzir2eCeCeJZoJFlhcVSRCGVh4gjY4&#xA;qvxVgf5fXX5nzeYvMSebZbCTR45qaEtkyNKsfqyD98F3B4cOveuKs8xV2Kpd5kfV08u6o+jNGusL&#xA;ZznTWnIEQuRExhMhO3HnTlXtiqU/lvN5zm8p2snnKS1k18vL9YexKtBxEh9PiU2+xSuKsnxV4z5D&#xA;/NLzZrX5/ebfJN9JC2haPazzWSJEFlDxzWyLykrVvhmbFXsP1q19f6v6yeuekPIc+lfs1r0xVVxV&#xA;5Bov5m+abv8A5yQ17yDNJCfL2n2CXNtGIwJRI1vayGsnUjlO2KvX8Vdiqk13arK0TTRiVRyaMsAw&#xA;UCtSK1pTFVsGoWFxbG6t7mKa1XlynjdWjHH7VWBI274qutby0vIFntJ47iBq8ZYmV0NNjRlJGKtm&#xA;5txOIDKgnYVWIsOZHWoXr2xVZa39jdmQWtzFcGFuEwidX4N/K3Emh+eKq+KuJAFTsB1OKoa01PTb&#xA;xpFs7uG5aI8ZVhkVypHZuJNMVROKuxV8TfkF+TemfmRqPmca7qF3BoumXSH6haSCP1riUyhZHLK6&#xA;/u0UgfDX4uoFaqvQf+caRe+U/wA2PPH5ai8kutJsBJdWayGtPRnSLnQfCrPHOvOnUjFX0xir5r/5&#xA;xf8A/Jp/mn/zHH/qMucVfSmKuxViv5sf+Ss85f8AbD1L/qDkxVhX/OJ//kktI/4z3n/US+KvX8Vf&#xA;E3mH8zrv8uvz7/MTW7G1F1qF1DPYWXP+6illmtnEso6lVER27mgxV7l/zj9+VcWm2n/Kwdfv017z&#xA;h5jjFy+pB1mjgimFeELjYsRs7LsPsL8I+JV7Pir518s/+tpebP8AtlRf9Qdjir6KxV2Kvkf8wfJk&#xA;HnT/AJyzuPLV3dz2en31rD9ee2bhK8MVispjBIYfG0YBqMVSPSfykth+fWsflHb6zfweTn9O8v4I&#xA;5Qsk6R2i3MSPReDFHuKVK9N+tMVZl+Qumv5H/wCchvN3kHTbqafQEtWlSOYgnnGYJInagALIk7JU&#xA;AVxVCfnT5VufNn/OUWgeXoL6XTv0hpiRz3du3GVbdUunuFQ+Lwq6b7b77YqgvMfkSy/JT86/Ik3l&#xA;W/u/0drs8dtfwXEiuzRtPHDOp4LGrKyTBlBGzCvhRV9dYq+cP+cj9U1vzF+ZnlD8qba+l07SNZWK&#xA;51WSE8TKk00kXFv5hGkDkKfhLEV6CiqR/nR+Rfl/8sfKcHnnyJf32l6xo1xAryNP6nqrK4j5fZFG&#xA;5MKj7BWoK4q+jfIPmGbzH5I0HXp0Edxqdhb3M6L9kSSRhn4+3KtMVT7FXjv/ADjx+U/mj8vv8Tfp&#xA;57Zv0vcwzWv1WRpKLH6tefJEof3gxVvyL+U/mjQ/z581+er17Y6JrVtNDZrHIzThpJreReaFAAKQ&#xA;N+1ir2HFXj35LflP5o8med/O+tau9s1n5huTNYC3kZ3C/WJpf3gKLxPGUdCcVew4q7FWF/nBqVhb&#xA;/lP5yllnjWP9E31sW5LQTS27RJH1+0XdRTrvirFf+cUFYfkjoxIIDTXhUnuPrUgqPpGKvXsVeGaR&#xA;+Qt/cfm9521/zNBZ3vlLzPZT2sdsJGaask9tKhZeK8Cv1ckMrVDUIxVHflB+W35l/lx5gvdDW9tt&#xA;W/LmaWSSwEsrC9tS3xKVThw3PwyKGoT8a0NQVXsuKvJdG/K3zLZ/85Fa7+YUrW36B1GxS2t1WRjc&#xA;c1t7aI8k48QOUDfteGKvWsVdirx3/lU/mj/oZD/lYvO2/wAP/VvR4eo31jl9T+r/AN3w405/5XTF&#xA;W9P/ACn80W//ADkfqf5iyPbfoC8tlhiQSN9Y5Czhg3j4cac4j+10xV3lr8p/NGm/85Ca/wCf7h7Y&#xA;6Fqds0NuqSMbjkUgX4kKBQKwt+1iqvrP5W+Zbz/nIrQvzCia2/QOnWL21wrSMLjm1vcxDinHiRyn&#xA;X9rxxVQ/On8p/NHnPzv5I1rSHtls/L1yJr8XEjI5X6xDL+7ARuR4xHqRir2HFXk/54/kxqHnibSP&#xA;MHlvUE0rzfoDh7C5lqInVXEiq7KrsrRyDkh4kbkEb1CrCNc/Kr/nIf8AMcWWieftW0zTvLVrMkt2&#xA;bDea4KVHMKq0LUJpyKqOvEkYq+hNI0uy0jSrPSrCP0rKwgjtbWLrxihQIgr7KuKovFXYq7FXYq7F&#xA;XYq7FXkHmL/nFr8r/MHmS98waidQa81C4a6uokuFWJnduTAD0+QU+zYq9S0TRNK0PSLTSNJt1tNO&#xA;sYxDbW6dFRfnUknqSdydziqNxV2KuxV2KuxV2KuxV2KuxV2KuxV2KuxV2KuxV2KuxVKdG83+U9cu&#xA;JrbRdbsNUuLYVuIbK6huHjFaVdYmYrvtviqbYq7FUq0zzZ5V1XULjTtL1mxv9QtOX1uztrmGaaLg&#xA;3BvUjRmZOLfCajriqa4q7FVG9vrKwtJr2+uI7Szt0MlxczuscUaKKszuxCqB3JOKofRte0LXLQ3u&#xA;i6ja6pZhzGbmymjuIg6gErziZl5Co2riqOxVKrfzZ5VudZk0O31mxm1qHl62lx3MLXScRVuUAYyC&#xA;ld6jFU1xV2KpV/izyr+nf8Pfpmx/T/8A1aPrMP1z+79b/efl6v8AdfH9n7O/TFU1xV2KuxV2KuxV&#xA;2KuxV2KuxV2KuxV2Kvg38lfzc0/8tfM3mW+udOn1S41Aeha2luVSpSZnZnchqADwU4q+pfya/Pfy&#xA;9+ZyX0FpaS6ZqmnhZJrKZlkDROeIkjkULyAbZqqKbeOKvTcVeAfkbqP5cXH5vecoPLukX1jrkf1v&#xA;9JXdzcLNDLS9Ak9OMAFaybj2xV7/AIq7FWL/AJoS6TD+XXmOXWIJLrS00+4a9t4HEcrxBDzVHP2S&#xA;R0OKsP8A+caLzydd/l1LL5S0+603S/0hOrW97MJ5fVEcXJuYA+Eim2KvWMVfKXkeeC3/AOcw/M88&#xA;8ixQRLfPLK5CoiLChZmY7AAbknFXrHkb8/tM88+drvy75Z0W6u9PsWb6zrzMiWyxrUB6UZv3jKRG&#xA;vVuu29FXquKvlX/1+z/P/qXsVfVWKuxV41+Yf/OTnlryN51u/K+paTdzyWsKym6gaMqzSQerGgQ0&#xA;PxMQle3XFWNaf/zmn5OlsL6TUNCvbTUrfiLOwR1m+sMTxKmTjH6ZXvVenSp2xVmH5Of85EaB+ZOq&#xA;3mjpp02kataxG4S3mkWVZYlYI5VwqfEjMKqV6bjvRVb+Zv8Azkd5b/L3zhF5c1bTLq4D2yXb3duU&#xA;ICuXAUIxUlqx06gb4qkfkP8A5y18seZ/Ntp5dvdGudGfUJFgsbqWVZVaWT+6SRQqFPUqApHLcjtv&#xA;ir3jFWD/AJq/m/5V/LbSYLzWjJPdXjMthp9uAZpilObfEQqovIcmJ798VeYab/zmNoYv7OLzF5W1&#xA;DRLC9oYr9m9ZeBNPU4GOEsgruUqfAHFX0Fa3Vtd2sN3ayLNbXCLLBMhqro4DKykdQQajFVXFXyL/&#xA;AM4dWlrJ+Y3my5kiR7iC3IglYAsgkuCH4ntyoK4qjPyVgisv+cr/ADrbWqiGD/coPSTZQpvIn4gD&#xA;ty6DFX1dir5V/wCcZ/8Ayfv5hf8AR/8A91FcVfVWKuxVhX51/wDko/N//bKuv+TRxV5//wA4bf8A&#xA;ko5v+2rc/wDJqHFXuuKvhPz75Y8y+Zvz28+aT5ckcalIt1J9XjPFriKNY2kgB/y1HT9r7PQ4q9o/&#xA;5xB84eUZvKc/lK2tE03zPYO8+oxmvqXaluP1irfFVNo2X9nbxxV9CYq+Vf8A1+z/AD/6l7FX1Vir&#xA;sVfKHmi1t7r/AJzW02K4jWWMPayBWFRzi0/1Eb/YuoIxVabCyP8AznL6BgQw+r9Y9MgEer+hPX50&#xA;/m9X46+OKqnlSJbP/nNTVoYPhjma6aQUG5lsRM3QfzmuKrPzqs7W9/5yv8nWt3Es9tKNLWWFxyVh&#xA;9akNGB6j2xVd/wA5WwQw/m/5EvIVEd1IIVeZdmIivAU3H8vM0xV9XYq+T/8AnLKI6d+bPknzFq1s&#xA;1z5Yijt0uIqVVzbXjTXMfhV4ZFFD1xVHf85S/mp+WfmT8uLLTNE1O21fU5ryK4tRb/E0EaI3N5Kg&#xA;GOobjxO+/TY4q9v/ACZ03UtN/KrytZakjRXsOnQiWKSvNAy8lRgdwVUgU7dMVZnirGPKf5ZeRfKN&#xA;9d33l3SY9Pu75eN3KjyuXHLlQiR3A+LwxVdpX5beSNK80XnmrT9KS38wX/qfW78PKWf1mDyVVnKD&#xA;kyg7LirJcVY15e/LbyR5c1u/1zRdKSz1XU+f166V5WaT1ZPVeod2UVcV2GKslxV2Kvm785vzo853&#xA;MHmj8v7PyDqMrXZn06z1VVndJYT8LTJCsHxVXdeL03r7FVnv/ONXkfXfJ35X29hrkJtdRvLma+kt&#xA;GpzhWUKiI9K/FxjDEdq0O+KvVMVY1Y/lt5IsfNlx5utNKSLzHdc/rGoB5SzeoAH+EuU3A/lxVDJ+&#xA;Uv5dxebP8Ww6NHB5iMpuDqEMk0TGVhxZiiOqHmK8vh+KprWpxVl2Ksa/5Vt5I/xp/jb9FJ/ij/q5&#xA;85ef9x9W+xz9P+5+H7P44qyXFXYqxqf8tvJE/nCPzlLpSN5lip6epc5eY4x+kPhD8PsbfZxV3/Kt&#xA;vJH+NP8AG36KT/FH/Vz5y8/7j6t9jn6f9z8P2fxxV0H5beSIPOEnnKLSkXzLLX1NS5y8zyj9I/CX&#xA;4fY2+zirtV/LbyRqvmiz81ahpSXHmCw9P6pfl5QyeixeOiq4Q8WYndcVd5n/AC28keadSsdT1/Sk&#xA;vr7TafUp3eVTHRw4oEdQfiFdxirJcVS3zF5a0DzJpcmla9YQ6jp8hDNb3Chl5Doy91YV2Yb4qw7Q&#xA;f+cfPyc0HUo9S03yzAt5EQ0T3EtxdKrDcMqXMkqBh2NNsVeh4q7FXYq7FXYq7FXYq7FXYq7FXYq7&#xA;FXYq7FXYq7FXYq7FXYq7FXYq7FXYq7FXYq7FXYq8O/JP/nITWfzD89an5bvdJt7GCxs57tLiGR3d&#xA;mhuIoQpDbUImrir3HFXYq8h8jfm75+178zL3yvqnlOTTdEtnu1h1horlVcW7lYjydRH+8Arsflir&#xA;17FXYqk3nLWNQ0Xypq2rabZnUL+xtZZ7WyUMxmkRSVQBAWPI+GKsY/Jnz/5q866FfX/mTQX8v3Vt&#xA;dehDbOk0ZeP01fnSZVb7TEbYq9AxV4daf85CazP+ezflsdJtxYi8ltfr4kf1eMcDShuP2a1WmKvc&#xA;cVdirxTVfz91iy/PtPyzXSrd7F7i2g/SBd/VpcWsdwTx+zsZKYq9rxV2KuxV2KuxV2KuxV2KuxV2&#xA;KuxV2Kvzz/K7y1+YHmXz7quj+R9S/ROo3EFz9evfWktwtms6F1aSFXkAaT0xRRv32rir2D/nF38w&#xA;fPUH5jat+X/mfULjUI4o7kBLqVp3t7uzlCyKkjktwYc6jpUAjvVV9WYq+T/yU86+cdR/5yP1nSNQ&#xA;17UbzSoptVEWn3F3PLbqIpWEYWJ3KDgPs7bYq+sMVdirEfzevr2w/K/zTe2NxJaXlvplzJb3MDtH&#xA;LG6xkqyOpDKR2IOKvNP+cQPMnmLXvJGs3OuapearcRamY4pr6eW5dU+rxnirSs5AqSaYq95xV8Me&#xA;aPNtn5Q/5yj1jzLeRtNBpl9cy+in2pHNoyxpXenJ2Ar264q9F/5x8/5Wh+ZPm+989+YPMOpW/li0&#xA;uiYdKt7y4htZ7kAMsCwI4T0IVKl6j4jQHlV8VfUWKvkDzN/621D/AMx2n/8AdMhxV9f4q7FXx1+e&#xA;3m78y4/+cgH8ueV/MWoWBvJNOtbCyjvJorUTXUUaCsQb0wGd6t8PvirE7TVPz50P8w7z8tLbzZct&#xA;rWozx6fNO15NNCrScZRNFNKpli+A7uih6bYqzb/nH7zl+Yfl/wDPC4/L3zJq1xqcUzXdncRTzy3M&#xA;SXFpG8yzQNN8YDLCR0FQ24qBRVU/5yY86fmJpX5z6ZpnlbXNQsmmtLI2thbXMkcD3Mk8iryh5ei/&#xA;IhQeakEbHbFWNXuvfnT+UH5p6RF5m8w3GqfXvQubuH63Pd2txbTSmOVOM4UCReLAHj8JoRtir7cx&#xA;V85f85W/nD5q8tXml+T/ACvcvp97qUH1u9voTxn9N5Gihjif/dfJ43LMN+lCN6qvPfPflb8/Pyh0&#xA;zTfN03nS4vRNOkF1Ct1cXCRzujOFkiuOUcyHgwqV69sVfU/5Yecv8aeQdF8zGNYpdRt+VxGn2Fnj&#xA;ZopgtSTx9SNqV7YqyjFXzD/zjT+VP5g+U/zR1rV/MOjyafptzp1zBBcO8LBpJLuCRVpG7tukbHpi&#xA;qJ/LH8rvPukf85IeYPNWo6RJb6BeXery21+zxFXS5nZ4SFVy/wAamu64q+lcVfMX5QflT+YOh/n/&#xA;AKt5l1XR5LXQ7ibU2hvWeFlYXErNEeKuz/ED4Yq+ncVdirCPzsliH5Reb2LqB+i7pa1FORQqB867&#xA;Yq8s/wCcJf8AlAdd/wC2qf8AqGixV9FYq+Tdb/ITzb5j/wCcgtS1DWNDlbyZqV3cetqCyQikUlsy&#xA;JKo5lwyycSvw9cVTP8kfJH5y/lb5+vNHm0mXU/JF/OYri8hkh9MEbRXscbSB1NKCRaV4+JVcVfT+&#xA;KvmrXfyu8+3P/OVcXnGHSJH8tLd2Up1IPFw4RWEUTniX57OpH2cVfSuKuxV8w/mJ+VP5g6p/zkvp&#xA;fmyw0eSfy9BqOjzzagHhCrHatCZm4s4f4OB/ZxVu/wDyp/MGT/nKRfOCaPI3lsajDOdR5w8PTS2V&#xA;Gbjz57MKfZxVEaF+V3n22/5yrl84zaRInlpru9lGpF4uHCWwliQ8Q/Pd2A+zirvzp/K7z7r/AOfP&#xA;l3zHpGkSXei2f6N+s3ivEqp6F00klVZ1b4VNdhirX/OTP5W+fvNv5g+X9T8u6RJqFjZ2kcVzOjxK&#xA;Edbl3IIkdD9lgdhir6WxV4H/AM5Ofkd5g88Pp3mXysFl1zTITbTWTOsTzQBzJGYpGKqHjd22Y712&#xA;NRuq8482aJ/zlJ+aNlpnljX9CSysbSRZZbt1S2R5FUoJ7hzI/Iqrn4Yl/wBjir6i/L7yfbeTfJek&#xA;+WbaUzx6bAI2nI4+pIzGSV6b05SOxp2xVkOKuxV2KuxV2KuxV2Kvnnzv/wA4jnzR5t1XXf8AGE1p&#xA;Bq1093NYmz9UKXavEP8AWEB4igFUxV65+Wv5caB+XvliPy/ovqPF6jT3NzMQZZp3ADSPxCr9lVUA&#xA;DYAfPFWVYq7FXYq7FXYq7FXYq7FXYq7FXYq7FXYq7FXYq7FXYq//2Q==</xapGImg:image>
    </rdf:li>
   </rdf:Alt>
  </xap:Thumbnails>
 </rdf:Description>

 <rdf:Description rdf:about=''
  xmlns:dc='http://purl.org/dc/elements/1.1/'>
  <dc:format>image/svg+xml</dc:format>
 </rdf:Description>

</rdf:RDF>
</x:xmpmeta>
                                                                                                                                                                                                                                                                                                                                                                                                                                                                                                                                                                                                                                                                                                                                                                                                                                                                                                                                                                                                                                                                                                                                                                                                                                                                                                                                                                                                                                                                                                                                                                                                                                                                                                                                                                                                                                                                                                                                                                                                                                                                                                                                <?xpacket end='w'?>
			</metadata>
		<g id="レイヤー1">
			<g>
				<rect fill="none" width="100" height="150"/> 
				<rect x="100" fill="none" width="100" height="150"/> 
				<rect x="200" fill="none" width="100" height="150"/> 
				<rect x="300" fill="none" width="100" height="150"/> 
				<rect x="400" fill="none" width="100" height="150"/> 
				<rect x="500" fill="none" width="100" height="150"/> 
				<rect x="600" fill="none" width="100" height="150"/> 
				<rect x="700" fill="none" width="100" height="150"/> 
				<rect y="150" fill="none" width="100" height="150"/> 
				<rect x="100" y="150" fill="none" width="100" height="150"/> 
				<rect x="200" y="150" fill="none" width="100" height="150"/> 
				<rect x="300" y="150" fill="none" width="100" height="150"/> 
				<rect x="400" y="150" fill="none" width="100" height="150"/> 
				<rect x="500" y="150" fill="none" width="100" height="150"/> 
				<rect x="600" y="150" fill="none" width="100" height="150"/> 
				<rect x="700" y="150" fill="none" width="100" height="150"/> 
				<rect y="300" fill="none" width="100" height="150"/> 
				<rect x="100" y="300" fill="none" width="100" height="150"/> 
				<rect x="200" y="300" fill="none" width="100" height="150"/> 
				<rect x="300" y="300" fill="none" width="100" height="150"/> 
				<rect x="400" y="300" fill="none" width="100" height="150"/> 
				<rect x="500" y="300" fill="none" width="100" height="150"/> 
				<rect x="600" y="300" fill="none" width="100" height="150"/> 
				<rect x="700" y="300" fill="none" width="100" height="150"/> 
				<rect y="450" fill="none" width="100" height="150"/> 
				<rect x="100" y="450" fill="none" width="100" height="150"/> 
				<rect x="200" y="450" fill="none" width="100" height="150"/> 
				<rect x="300" y="450" fill="none" width="100" height="150"/> 
				<rect x="400" y="450" fill="none" width="100" height="150"/> 
				<rect x="500" y="450" fill="none" width="100" height="150"/> 
				<rect x="600" y="450" fill="none" width="100" height="150"/> 
				<rect x="700" y="450" fill="none" width="100" height="150"/> 
				<rect y="600" fill="none" width="100" height="150"/> 
				<rect x="100" y="600" fill="none" width="100" height="150"/> 
				<rect x="200" y="600" fill="none" width="100" height="150"/> 
				<rect x="300" y="600" fill="none" width="100" height="150"/> 
				<rect x="400" y="600" fill="none" width="100" height="150"/> 
				<rect x="500" y="600" fill="none" width="100" height="150"/> 
				<rect x="600" y="600" fill="none" width="100" height="150"/> 
				<rect x="700" y="600" fill="none" width="100" height="150"/> 
				<rect y="750" fill="none" width="100" height="150"/> 
				<rect x="100" y="750" fill="none" width="100" height="150"/> 
				<rect x="200" y="750" fill="none" width="100" height="150"/> 
				<rect x="300" y="750" fill="none" width="100" height="150"/> 
				<rect x="400" y="750" fill="none" width="100" height="150"/> 
				<rect x="500" y="750" fill="none" width="100" height="150"/> 
				<rect x="600" y="750" fill="none" width="100" height="150"/> 
				<rect x="700" y="750" fill="none" width="100" height="150"/> 
				<rect y="900" fill="none" width="100" height="150"/> 
				<rect x="100" y="900" fill="none" width="100" height="150"/> 
				<rect x="200" y="900" fill="none" width="100" height="150"/> 
				<rect x="300" y="900" fill="none" width="100" height="150"/> 
				<rect x="400" y="900" fill="none" width="100" height="150"/> 
				<rect x="500" y="900" fill="none" width="100" height="150"/> 
				<rect x="600" y="900" fill="none" width="100" height="150"/> 
				<rect x="700" y="900" fill="none" width="100" height="150"/> 
			</g>
			<path d="M728,58c14.0200195,0,23,9.4128418,23,25s-8.9799805,25-23,25v3c15.7353516,0,26-10.7431641,26-28s-10.2646484-28-26-28
				s-26,10.7431641-26,28s10.2646484,28,26,28v-3c-14.0200195,0-23-9.4128418-23-25S713.9799805,58,728,58z"/>
			<path d="M202,131c3.5625,1.375,6.6816406,2,11,2c12.0048828,0,17-5.828125,17-23V56h-3v54c0,16.9067383-4.7148438,20-14,20
				c-3.6181641,0-6.8461914-0.6054688-10.2001953-1.8999023L202,131z"/>
			<rect x="102" y="56" width="3" height="54"/> 
			<polygon points="308.8422852,82 343.3457031,56 338.3457031,56 303.8422852,82 341,110 346,110 "/>
			<rect x="302" y="34" width="3" height="76"/> 
			<rect x="402" y="34" width="3" height="76"/> 
			<rect x="102" y="34" width="3" height="7"/> 
			<rect x="227" y="34" width="3" height="7"/> 
			<path d="M644,110h3V83c0-20.4301758-6.6123047-28-21-28c-7.7324219,0-16.6494141,4.958252-20.8999023,12H605V56h-3v54h3V78
				c0-12.125,12-20,21-20c12.7792969,0,18,6.1821289,18,25V110z"/>
			<path d="M44,110h3V83c0-20.4301758-6.6125488-28-21-28c-7.732666,0-16.6494141,4.958252-20.8999023,12H5V34H2v76h3V78
				c0-12.125,12-20,21-20c12.7790527,0,18,6.1821289,18,25V110z"/>
			<path d="M537.7998047,68.1999512C535.6518555,59.0368652,530.4863281,55,521,55c-6.2993164,0-12.3789063,4.1459961-15.7998047,11
				H505V56h-3v54h3V79c0-12.6999512,7.3945313-21,16-21c10.503418,0,15,5.404541,15,21v31h3V79c0-12.6999512,7.3945313-21,16-21
				c10.503418,0,15,5.404541,15,21v31h3V79c0-16.9941406-5.5878906-24-18-24c-7.3105469,0-14.1972656,5.104248-17,13.1999512
				H537.7998047z"/>
			<rect x="102" y="206.0046387" width="5.5" height="54"/> 
			<rect x="102" y="356.0092773" width="8" height="54"/> 
			<rect x="102" y="506" width="10.5" height="54"/> 
			<rect x="102" y="656.0043945" width="13" height="54"/> 
			<rect x="102" y="805.9956055" width="15.5" height="54"/> 
			<rect x="102" y="956" width="18" height="54"/> 
			<polygon points="313.6020508,232.0046387 345.6791992,206.0046387 338.1791992,206.0046387 306.0092773,232.0046387 
				340.3334961,260.0046387 348,260.0046387 "/>
			<polygon points="318.3618164,382.0092773 348.0126953,356.0092773 338.0126953,356.0092773 308.1757813,382.0092773 
				339.6665039,410.0092773 350,410.0092773 "/>
			<polygon points="323.1210938,532 350.3457031,506 337.8457031,506 310.3422852,532 339,560 352,560 "/>
			<polygon points="327.8808594,682.0043945 352.6791992,656.0043945 337.6791992,656.0043945 312.5092773,682.0043945 
				338.3334961,710.0043945 354,710.0043945 "/>
			<polygon points="332.6401367,831.9956055 355.0126953,805.9956055 337.5126953,805.9956055 314.6757813,831.9956055 
				337.6665039,859.9956055 356,859.9956055 "/>
			<polygon points="337.3999023,982 357.3457031,956 337.3457031,956 316.8422852,982 337,1010 358,1010 "/>
			<rect x="302" y="184.0046387" width="5.5" height="76"/> 
			<rect x="302" y="334.0092773" width="8" height="76"/> 
			<rect x="302" y="484" width="10.5" height="76"/> 
			<rect x="302" y="634.0043945" width="13" height="76"/> 
			<rect x="302" y="783.9956055" width="15.5" height="76"/> 
			<rect x="302" y="934" width="18" height="76"/> 
			<rect x="402" y="184.0046387" width="5.5" height="76"/> 
			<rect x="402" y="334.0092773" width="8" height="76"/> 
			<rect x="402" y="484" width="10.5" height="76"/> 
			<rect x="402" y="634.0043945" width="13" height="76"/> 
			<rect x="402" y="783.9956055" width="15.5" height="76"/> 
			<rect x="402" y="934" width="18" height="76"/> 
			<rect x="102" y="184.0046387" width="5.5" height="8.166748"/> 
			<rect x="102" y="334.0092773" width="8" height="9.3334961"/> 
			<rect x="102" y="484" width="10.5" height="10.5"/> 
			<rect x="102" y="634.0043945" width="13" height="11.6669922"/> 
			<rect x="102" y="783.9956055" width="15.5" height="12.8330078"/> 
			<rect x="102" y="934" width="18" height="14"/> 
			<rect x="226.6665039" y="184.0046387" width="5.5" height="8.166748"/> 
			<rect x="226.3334961" y="334.0092773" width="8" height="9.3334961"/> 
			<rect x="226" y="484" width="10.5" height="10.5"/> 
			<rect x="225.6665039" y="634.0043945" width="13" height="11.6669922"/> 
			<rect x="225.3334961" y="783.9956055" width="15.5" height="12.8330078"/> 
			<rect x="225" y="934" width="18" height="14"/> 
			<path d="M48.3334961,233.0046387c0-20.1188965-6.8024902-28-20.8637695-28c-7.3989258,0-15.6774902,4.4963379-19.8530273,11H7.5
				v-32H2v76h5.5v-31.166748c0-11.3635254,10.6003418-18.6665039,19.0446777-18.6665039
				c11.4980469,0,16.2885742,5.7529297,16.2885742,22.833252v27h5.5002441V233.0046387z"/>
			<path d="M49.666748,383.0092773c0-19.8081055-6.9921875-28-20.7272949-28c-7.0654297,0-14.7055664,4.034668-18.8059082,10H10v-31
				H2v76h8v-30.3334961c0-10.6020508,9.2006836-17.3330078,17.0895996-17.3330078
				c10.2167969,0,14.5769043,5.3237305,14.5769043,20.6665039v27h8.0002441V383.0092773z"/>
			<path d="M51,533c0-19.496582-7.1818848-28-20.5908203-28c-6.7319336,0-13.7338867,3.5727539-17.7592773,9H12.5v-30H2v76h10.5
				v-29.5c0-9.8408203,7.8010254-16,15.1342773-16C36.5703125,514.5,40.5,519.3950195,40.5,533v27H51V533z"/>
			<path d="M52.3334961,683.0043945c0-19.1855469-7.3720703-28-20.4545898-28c-6.3981934,0-12.7619629,3.1113281-16.7121582,8H15
				v-29H2v76h13v-28.6665039c0-9.0795898,6.4013672-14.6665039,13.1789551-14.6665039
				c7.6550293,0,11.1542969,4.4658203,11.1542969,16.3330078v27h13.0002441V683.0043945z"/>
			<path d="M53.6665039,832.9956055c0-18.875-7.5615234-28-20.3181152-28c-6.0646973,0-11.7900391,2.6489258-15.6650391,7H17.5v-28
				H2v76h15.5v-27.8334961c0-8.3183594,5.001709-13.3334961,11.2236328-13.3334961
				c6.3740234,0,9.4431152,4.0366211,9.4431152,14.1669922v27h15.4997559V832.9956055z"/>
			<path d="M55,983c0-18.5634766-7.7514648-28-20.1818848-28C29.0871582,955,24,957.1875,20.1999512,961H20v-27H2v76h18v-27
				c0-7.5571289,3.6020508-12,9.2683105-12C34.3613281,971,37,974.6074219,37,983v27h18V983z"/>
			<path d="M648.3334961,233.0046387c0-20.1188965-6.8022461-28-20.8637695-28
				c-7.3989258,0-15.8754883,4.6005859-20.0195313,11.1665039h-0.1166992v-10.1665039H602v54h5.5v-31.166748
				c0-11.3635254,10.6005859-18.6665039,19.0449219-18.6665039c11.4980469,0,16.2885742,5.7529297,16.2885742,22.833252v27h5.5
				V233.0046387z"/>
			<path d="M649.6665039,383.0092773c0-19.8081055-6.9916992-28-20.7270508-28
				c-7.0654297,0-15.1015625,4.2426758-19.1391602,10.3330078h-0.1333008v-9.3330078H602v54h8v-30.3334961
				c0-10.6020508,9.2006836-17.3330078,17.0893555-17.3330078c10.2172852,0,14.5771484,5.3237305,14.5771484,20.6665039v27h8
				V383.0092773z"/>
			<path d="M651,533c0-19.496582-7.1821289-28-20.5908203-28c-6.7319336,0-14.3276367,3.8852539-18.2592773,9.5H612V506h-10v54h10.5
				v-29.5c0-9.8408203,7.8012695-16,15.1342773-16C636.5703125,514.5,640.5,519.3950195,640.5,533v27H651V533z"/>
			<path d="M652.3334961,683.0043945c0-19.1855469-7.3720703-28-20.4545898-28
				c-6.3984375,0-13.5537109,3.527832-17.3789063,8.6669922h-0.1665039v-7.6669922H602v54h13v-28.6665039
				c0-9.0795898,6.4013672-14.6665039,13.1787109-14.6665039c7.6552734,0,11.1547852,4.4658203,11.1547852,16.3330078v27h13
				V683.0043945z"/>
			<path d="M653.6665039,832.9956055c0-18.875-7.5615234-28-20.3178711-28c-6.0649414,0-12.7797852,3.1699219-16.4985352,7.8330078
				h-0.1835938v-6.8330078H602v54h15.5v-27.8334961c0-8.3183594,5.0019531-13.3334961,11.2236328-13.3334961
				c6.3740234,0,9.4428711,4.0366211,9.4428711,14.1669922v27h15.5V832.9956055z"/>
			<path d="M655,983c0-18.5634766-7.7514648-28-20.1816406-28c-5.7314453,0-12.0058594,2.8125-15.6181641,7H619v-6h-17v54h18v-27
				c0-7.5571289,3.6020508-12,9.2685547-12C634.3613281,971,637,974.6074219,637,983v27h18V983z"/>
			<path d="M539.3168945,217.3378906c-2.2993164-8.5419922-7.3706055-12.333252-16.347168-12.333252
				c-6.2045898,0-12.0981445,3.892334-15.4365234,10.333252h-0.199707v-9.333252H502v54h5.5v-30.333252
				c0-12.0556641,6.5493164-19.5,14.5449219-19.5c9.4106445,0,13.4550781,4.9716797,13.4550781,19.5v30.333252h5.5v-30.333252
				c0-12.0556641,6.5493164-19.5,14.5449219-19.5c9.4106445,0,13.4550781,4.9716797,13.4550781,19.5v30.333252h5.5v-30.333252
				c0-17.3947754-5.7172852-24.666748-18.0302734-24.666748c-7.237793,0-13.6992188,4.5983887-16.953125,12.333252H539.3168945z"/>
			<path d="M540.8334961,366.4755859c-2.4501953-7.9208984-7.4282227-11.4663086-15.894043-11.4663086
				c-6.1098633,0-11.8168945,3.6386719-15.0727539,9.6665039h-0.199707v-8.6665039H502v54h8v-29.6665039
				c0-11.4116211,5.7045898-18,13.0893555-18c8.3183594,0,11.9106445,4.5385742,11.9106445,18v29.6665039h8v-29.6665039
				c0-11.4116211,5.7045898-18,13.0893555-18c8.3183594,0,11.9106445,4.5385742,11.9106445,18v29.6665039h8v-29.6665039
				c0-17.7954102-5.8461914-25.3334961-18.0605469-25.3334961c-7.1645508,0-13.2011719,4.0922852-16.90625,11.4663086H540.8334961z"
				/>
			<path d="M542.3500977,515.6000977C539.7485352,508.2998047,534.8647461,505,526.9091797,505
				c-6.0151367,0-11.5361328,3.3857422-14.7089844,9H512v-8h-10v54h10.5v-29c0-10.7670898,4.859375-16.5,11.6342773-16.5
				C531.3603516,514.5,534.5,518.605957,534.5,531v29H545v-29c0-10.7670898,4.859375-16.5,11.6342773-16.5
				C563.8603516,514.5,567,518.605957,567,531v29h10.5v-29c0-18.1953125-5.9755859-26-18.0908203-26
				c-7.0913086,0-12.7036133,3.5864258-16.859375,10.6000977H542.3500977z"/>
			<path d="M543.8666992,664.737793c-2.7524414-6.6787109-7.5424805-9.7333984-14.987793-9.7333984
				c-5.9204102,0-11.2548828,3.1323242-14.3457031,8.3334961h-0.199707v-7.3334961H502v54h13v-28.3330078
				c0-10.1235352,4.0141602-15,10.1787109-15c6.1337891,0,8.8212891,3.6733398,8.8212891,15v28.3330078h13v-28.3330078
				c0-10.1235352,4.0141602-15,10.1787109-15c6.1337891,0,8.8212891,3.6733398,8.8212891,15v28.3330078h13v-28.3330078
				c0-18.5961914-6.1044922-26.6669922-18.1210938-26.6669922c-7.0185547,0-12.2055664,3.0805664-16.8120117,9.7333984H543.8666992z
				"/>
			<path d="M545.3833008,813.8623047c-2.9033203-6.0581055-7.5996094-8.8666992-14.534668-8.8666992
				c-5.8261719,0-10.9746094,2.878418-13.9819336,7.6665039h-0.2001953v-6.6665039H502v54h15.5v-27.6669922
				c0-9.4790039,3.1689453-13.5,8.7236328-13.5c5.0410156,0,7.2763672,3.2407227,7.2763672,13.5v27.6669922H549v-27.6669922
				c0-9.4790039,3.1689453-13.5,8.7236328-13.5c5.0410156,0,7.2763672,3.2407227,7.2763672,13.5v27.6669922h15.5v-27.6669922
				c0-18.9960938-6.2338867-27.3330078-18.1513672-27.3330078c-6.9453125,0-11.7080078,2.574707-16.7651367,8.8666992H545.3833008z"
				/>
			<path d="M546.8999023,963c-3.0541992-5.4370117-7.6567383-8-14.081543-8c-5.7314453,0-10.6933594,2.625-13.6181641,7H519v-6h-17
				v54h18v-27c0-8.8349609,2.3242188-12,7.2685547-12C531.2167969,971,533,973.8076172,533,983v27h18v-27
				c0-8.8349609,2.3242188-12,7.2685547-12C562.2167969,971,564,973.8076172,564,983v27h18v-27
				c0-19.3969727-6.362793-28-18.1816406-28c-6.8720703,0-11.2099609,2.0688477-16.7182617,8H546.8999023z"/>
			<path d="M232.1665039,206.0046387h-5.5v54c0,15.1826172-4.3012695,18.1665039-13,18.1665039
				c-3.7954102,0-7.2158203-0.6398926-10.7163086-1.9831543L202,281.0046387c3.7709961,1.364502,7.2104492,2,11.8334961,2
				c12.7314453,0,18.3330078-6.1369629,18.3330078-23V206.0046387z"/>
			<path d="M234.3334961,356.0092773h-8v54c0,13.4584961-3.8881836,16.3330078-12,16.3330078
				c-3.9736328,0-7.5854492-0.6743164-11.2333984-2.0664063L202,431.0092773c3.9790039,1.3540039,7.7392578,2,12.6665039,2
				c13.4584961,0,19.6669922-6.4458008,19.6669922-23V356.0092773z"/>
			<path d="M236.5,506H226v54c0,11.734375-3.4746094,14.5-11,14.5c-4.1508789,0-7.9545898-0.7089844-11.75-2.1499023L202,581
				c4.1875,1.34375,8.2680664,2,13.5,2c14.1850586,0,21-6.7543945,21-23V506z"/>
			<path d="M238.6665039,656.0043945h-13v54c0,10.0102539-3.0610352,12.6669922-10,12.6669922
				c-4.3286133,0-8.3237305-0.7436523-12.2666016-2.2333984L202,731.0043945c4.3959961,1.3334961,8.7963867,2,14.3334961,2
				c14.9116211,0,22.3330078-7.0629883,22.3330078-23V656.0043945z"/>
			<path d="M240.8334961,805.9956055h-15.5v54c0,8.2856445-2.6479492,10.8330078-9,10.8330078
				c-4.5063477,0-8.6933594-0.777832-12.7836914-2.3164063L202,880.9956055c4.6040039,1.3227539,9.3251953,2,15.1665039,2
				c15.6381836,0,23.6669922-7.3720703,23.6669922-23V805.9956055z"/>
			<path d="M243,956h-18v54c0,6.5615234-2.234375,9-8,9c-4.684082,0-9.0625-0.8125-13.2998047-2.3999023L202,1031
				c4.8125,1.3125,9.8540039,2,16,2c16.3647461,0,25-7.6806641,25-23V956z"/>
			<path d="M749.8330078,233.0046387c0,14.5031738-8.2900391,23.1665039-21.1665039,23.1665039v4.8334961
				c16.1333008,0,26.6669922-10.7431641,26.6669922-28c0-17.201416-10.4780273-28-26.6669922-28
				c-16.1884766,0-26.6665039,10.798584-26.6665039,28c0,17.2568359,10.5332031,28,26.6665039,28v-4.8334961
				c-12.8764648,0-21.1665039-8.6633301-21.1665039-23.1665039c0-14.4477539,8.2348633-23.166748,21.1665039-23.166748
				C741.5986328,209.8378906,749.8330078,218.5568848,749.8330078,233.0046387z"/>
			<path d="M748.6665039,383.0092773c0,13.4194336-7.6005859,21.3330078-19.3330078,21.3330078v6.6669922
				c16.5307617,0,27.3330078-10.7431641,27.3330078-28c0-17.1459961-10.690918-28-27.3330078-28
				c-16.6425781,0-27.3334961,10.8540039-27.3334961,28c0,17.2568359,10.8022461,28,27.3334961,28v-6.6669922
				C717.6010742,404.3422852,710,396.4287109,710,383.0092773c0-13.3085938,7.4897461-21.3334961,19.3334961-21.3334961
				C741.1767578,361.6757813,748.6665039,369.7006836,748.6665039,383.0092773z"/>
			<path d="M747.5,533c0,12.3359375-6.9111328,19.5-17.5,19.5v8.5c16.9291992,0,28-10.7431641,28-28
				c0-17.0898438-10.9042969-28-28-28s-28,10.9101563-28,28c0,17.2568359,11.0708008,28,28,28v-8.5
				c-10.5888672,0-17.5-7.1640625-17.5-19.5c0-12.1694336,6.7446289-19.5,17.5-19.5S747.5,520.8305664,747.5,533z"/>
			<path d="M746.3330078,683.0043945c0,11.2524414-6.2216797,17.6669922-15.6665039,17.6669922v10.3330078
				c17.3276367,0,28.6669922-10.7431641,28.6669922-28c0-17.0341797-11.1176758-28-28.6669922-28S702,665.9702148,702,683.0043945
				c0,17.2568359,11.3393555,28,28.6665039,28v-10.3330078c-9.4448242,0-15.6665039-6.4145508-15.6665039-17.6669922
				c0-11.0297852,5.9995117-17.6665039,15.6665039-17.6665039S746.3330078,671.9746094,746.3330078,683.0043945z"/>
			<path d="M745.1665039,832.9956055c0,10.168457-5.5322266,15.8330078-13.8334961,15.8330078v12.1669922
				c17.7255859,0,29.3334961-10.7431641,29.3334961-28c0-16.9790039-11.3305664-28-29.3334961-28
				c-18.0024414,0-29.3330078,11.0209961-29.3330078,28c0,17.2568359,11.6079102,28,29.3330078,28v-12.1669922
				c-8.3007813,0-13.8330078-5.6645508-13.8330078-15.8330078c0-9.8911133,5.2543945-15.8334961,13.8330078-15.8334961
				C739.9121094,817.1621094,745.1665039,823.1044922,745.1665039,832.9956055z"/>
			<path d="M744,983c0,9.0849609-4.8427734,14-12,14v14c18.1230469,0,30-10.7431641,30-28c0-16.9233398-11.543457-28-30-28
				s-30,11.0766602-30,28c0,17.2568359,11.8769531,28,30,28v-14c-7.1572266,0-12-4.9150391-12-14c0-8.7514648,4.5092773-14,12-14
				C739.4902344,969,744,974.2485352,744,983z"/>
		</g>
	</svg>
