<?xml version="1.0" encoding="utf-8"?>
<!-- Generator: Adobe Illustrator 11.0, SVG Export Plug-In . SVG Version: 6.0.0 Build 78)  -->
<!DOCTYPE svg PUBLIC "-//W3C//DTD SVG 1.0//EN"    "http://www.w3.org/TR/2001/REC-SVG-20010904/DTD/svg10.dtd" [
	<!ENTITY ns_flows "http://ns.adobe.com/Flows/1.0/">
	<!ENTITY ns_svg "http://www.w3.org/2000/svg">
	<!ENTITY ns_xlink "http://www.w3.org/1999/xlink">
]>
<svg  xmlns="&ns_svg;" xmlns:xlink="&ns_xlink;" xmlns:a="http://ns.adobe.com/AdobeSVGViewerExtensions/3.0/"
	 width="800" height="1050" viewBox="0 0 800 1050" overflow="visible" enable-background="new 0 0 800 1050" xml:space="preserve">
	<metadata>
<?xpacket begin='﻿' id='W5M0MpCehiHzreSzNTczkc9d'?><x:xmpmeta xmlns:x='adobe:ns:meta/' x:xmptk='XMP toolkit 3.0-29, framework 1.6'>
<rdf:RDF xmlns:rdf='http://www.w3.org/1999/02/22-rdf-syntax-ns#' xmlns:iX='http://ns.adobe.com/iX/1.0/'>

 <rdf:Description rdf:about=''
  xmlns:pdf='http://ns.adobe.com/pdf/1.3/'>
 </rdf:Description>

 <rdf:Description rdf:about=''
  xmlns:tiff='http://ns.adobe.com/tiff/1.0/'>
 </rdf:Description>

 <rdf:Description rdf:about=''
  xmlns:xap='http://ns.adobe.com/xap/1.0/'
  xmlns:xapGImg='http://ns.adobe.com/xap/1.0/g/img/'>
  <xap:CreateDate>2005-10-18T07:00:33Z</xap:CreateDate>
  <xap:ModifyDate>2005-10-18T07:00:33Z</xap:ModifyDate>
  <xap:CreatorTool>Illustrator</xap:CreatorTool>
  <xap:Thumbnails>
   <rdf:Alt>
    <rdf:li rdf:parseType='Resource'>
     <xapGImg:format>JPEG</xapGImg:format>
     <xapGImg:width>196</xapGImg:width>
     <xapGImg:height>256</xapGImg:height>
     <xapGImg:image>/9j/4AAQSkZJRgABAgEASABIAAD/7QAsUGhvdG9zaG9wIDMuMAA4QklNA+0AAAAAABAASAAAAAEA&#xA;AQBIAAAAAQAB/+4ADkFkb2JlAGTAAAAAAf/bAIQABgQEBAUEBgUFBgkGBQYJCwgGBggLDAoKCwoK&#xA;DBAMDAwMDAwQDA4PEA8ODBMTFBQTExwbGxscHx8fHx8fHx8fHwEHBwcNDA0YEBAYGhURFRofHx8f&#xA;Hx8fHx8fHx8fHx8fHx8fHx8fHx8fHx8fHx8fHx8fHx8fHx8fHx8fHx8fHx8f/8AAEQgBAADEAwER&#xA;AAIRAQMRAf/EAaIAAAAHAQEBAQEAAAAAAAAAAAQFAwIGAQAHCAkKCwEAAgIDAQEBAQEAAAAAAAAA&#xA;AQACAwQFBgcICQoLEAACAQMDAgQCBgcDBAIGAnMBAgMRBAAFIRIxQVEGE2EicYEUMpGhBxWxQiPB&#xA;UtHhMxZi8CRygvElQzRTkqKyY3PCNUQnk6OzNhdUZHTD0uIIJoMJChgZhJRFRqS0VtNVKBry4/PE&#xA;1OT0ZXWFlaW1xdXl9WZ2hpamtsbW5vY3R1dnd4eXp7fH1+f3OEhYaHiImKi4yNjo+Ck5SVlpeYmZ&#xA;qbnJ2en5KjpKWmp6ipqqusra6voRAAICAQIDBQUEBQYECAMDbQEAAhEDBCESMUEFURNhIgZxgZEy&#xA;obHwFMHR4SNCFVJicvEzJDRDghaSUyWiY7LCB3PSNeJEgxdUkwgJChgZJjZFGidkdFU38qOzwygp&#xA;0+PzhJSktMTU5PRldYWVpbXF1eX1RlZmdoaWprbG1ub2R1dnd4eXp7fH1+f3OEhYaHiImKi4yNjo&#xA;+DlJWWl5iZmpucnZ6fkqOkpaanqKmqq6ytrq+v/aAAwDAQACEQMRAD8A9U4q7FXYq7FXYq7FXYq7&#xA;FXYq7FXYq7FXYq7FXYq7FXYq7FXYq7FXYq7FXYq7FXYqwyy/NXQ9UgWbQLDUdcQKrXDWNuCkJZQ/&#xA;CSSV4ozIFYFo0ZnHcYqyDy/5k0rX7SS5093rBIYLu2mjeG4gmUAtFNDIFdGowO43BBFQQcVTPFWN&#xA;6n570611SbSbGyvta1K1Cm9g06ESLb81DIs00rRQI7KeQTnypvShGKt6D5/8va3qraRameHVooXn&#xA;utPuYXgngEbRqRKj0Kk+upU7qw3UkYqyPFWIH8z9BmnmtNKtb7WdQtpriC6srCD1Hha1uZbVzM7t&#xA;HDHykgfgHcMwFQKYqymyufrVpDc+lJB6yK/ozLwlTkK8XWpow7jFVbFWN6l56srbVLjSrHTtQ1m+&#xA;s+AvY9PgDJA0iCRUkmmeGHmUYNwDlqEEihGKo7y/5msdbW4EEF1aXNoyrdWl7byW0qFwSppIArqw&#xA;GzIWX3xVNsVYD55863el+aPLNjBp+qPF+lHS7e2gLRXUR0m8kESHkPU4yBHK9uBP7OKss0PW/wBL&#xA;RSyfo+8sPSYLwvofRZqitVFWqMVTLFUFZaxZXt/qNjAWM+lyRw3QIoA8sKTrxPf4JBirrjWLK31a&#xA;y0qQt9bv455rcAVUpbGMSVPb++WmKo3FUBHrmnvrs2h8yuowW0d4Y2FA0ErvGGQ/tcXjo3hUV6jF&#xA;Xa3rdho1ml3eswSSeC1hRByd5rmVYYkRR1Jdx9G/QYqj8VQI1qx/Tp0Qllv/AKqL1FIorw+oYmKN&#xA;3KNx5DtyXxxVDan5q0TTde0jQruYpqWuGcadFxJDfVo/Uk5N0X4TtXqcVROra1YaUtobtm5X11DZ&#xA;WsaKWZ5p2oAAOyqGdj2UE4qjsVYL+R0enp+Vmg/UQBC0czSUAFZjcSevWn/FvLFUbpvAfmnrwt/s&#xA;NpGmNehfs+t9YvRGW/y/SG/fjxrtxxVluKsR/LARf4fvWNPrraxq51Hpz+sDUZx8dP8AisIF/wAj&#xA;jTamKoV49NX87oZIwo1J/LUouiKcjCt/F6Ff9kZMVZxirC/yp020tNF1m4gQLLqHmLX7i6YChaRd&#xA;WuYAT/zzhUYqzTFXYqxG48uebNM1nUdS8s31m1tqsour3SdSik4/WBCkJkguYW5xh0hTkrRyb7in&#xA;TFUd5Z8y3+oX2oaRq+njTdb0xYJbiGKX6zbyQXRkWGeCYpEzKzW8i0dFYFTtShKrIMVYr5y/5SLy&#xA;J/23Jv8Auh6nirKsVdirFPKxA85edEOzm7spAvfg2nwIG+lo2H0Yqs1q4g/5Wf5Wt+Y9f9HavJ6d&#xA;fi4c7McqeFcVZdirD/zCVtLOm+c4R8Xl6Rv0nTq2lXPFL0GgqRFxS5p3MVMVWz08w/mJBAKSaV5S&#xA;jF1Kdir6pexlYF+dvaOz/wDPZD2xVmWKsQ/ME/ox9G82psNDuhHqDf8AauvysF1X/Jib0rhv+MWK&#xA;sc1nTLvzFN5t8y2KerfaJNbW3lwU+1Lob/W51U9vXunktn9kxVObDUrPzd550++spPX0XQdPjv4J&#xA;B9l7zVo/3Df60VlyPymGKs5xV5Z+WfkeRPI2j3uha5faC1/aRTX1vai2mt5JmQBpliu4bgRyNT4j&#xA;HxDHdlJ3xVnnlvyxp+gW08dvJNdXN5L9Yv8AULt/VubiYqqc5Xoo2RFVVVQqgUUAYqm+KsYv/Iwb&#xA;V7rV9F1i90G9v+J1FbT6vLBcOihFlkguop0EgRQvOPiSAOXKmKpHo3li00T81IJVuLi/1C/0W8e/&#xA;1K9dXnmKXVoqA8FjjRUH2UjRVG9BUnFXoeKpfoeiWujWUlnavI8Ut3eXrGUgt6l/dS3koHEL8Ikn&#xA;YL/k0qSd8VTDFXYqxq/8m3jahcX2keYtS0eS7bncW8ZgurZnpTmsV5FcekaDpEVXuQTiqL8u+VbX&#xA;RZby6N3dalqeoFDfaleujTSCEERJxiSGGNE5txSONRUk0qTiqdYqlPmTy7BrtnDC9zPY3NpOl3Y3&#xA;1qUE0E8dQrqJFkjaqsysroQVJFMVXaBpGo6bBMt/rN1rM00nP1rtLaP0xSgSNbaGBQu37VT74qmm&#xA;Kse1nygbzVv0zpuq3ei6q0K21xPaiCRJ4Y2Zo0miuI5kPpmRyrLxYV602xVDaT+XWk6f5hi8yS3l&#xA;5qOvJDLbzajePG0ksUxQ8GWOOONEjMdUSJUUFmNCTirKsVWTwQzwSQTIJIZVKSxsKqysKMCPAjFU&#xA;l8l+TdK8oaGmj6Y880Ku8j3F3J6s8jNsPUkovLgirGu32VAxVPcVQ2p6daanpt3pt7GJbO9hkt7m&#xA;I9GilUo6n5qxxVB+VfLdh5a8v2eh2Dyy21khUT3DCSeV3YvJLK4C8nkdmZjTcnFUN5O8l6L5R0+5&#xA;sNJEnoXV1LeSGVgzBpKKqKQFpHFGixxjsigb9cVT7FWkREUKihVXYKBQAfLFW8VdirsVa4JzD8Rz&#xA;AoGpvQ70rireKuxV2KuxV2KuxV2KuxV2KuxV2KuxV2KuxV2KuxV2KuxV2KuxV2KuxV2KuxV2KuxV&#xA;2KuxV2KuxV2KuxVLdZ8w6Xo8umxX8hjfVrxNOsQFZuVxJHJKqniDxHCFtztiqZYq7FXYq7FXYq7F&#xA;XYq7FXYq7FXYq7FXh/5XXX5wfmD5STV7/wA2HQ7aO4ure2ls7G0kuLv0bhwJZWlQxIqEekEjQV4k&#xA;sTXFWZeQvMfmqHzNq3kfzdPFf6tplvBqGn6zBELcXtjcM0fOSBSyxyRyxlW4mh7DxVZ9iryqwvvz&#xA;B/MDWtcn0fzD/hfyto9/NpVmbW1t7m7vZrUhZ5nkuBIkcYk+FAq1YdfdVvyrrv5jWf5wN5K8yalF&#xA;qemQ6DNqdrfRW8du1yxvIIUeZFB4SxVkQhG4MCDxBxV6pirxbydqP5ted9X822v+IRoeg6H5g1HT&#xA;rW+gtbaW9mSGYqlunqx+kkcMfH4yjOxP2tsVeuaLZX9lpdva6hqEmq3sSkTahLHFC8pJJqY4VSNa&#xA;A0+FcVRuKvJ7jXfMnmX8yfMHlhPNn+E7fRfqsdlp1tDate3wnhWVrn1LtJfgDtwAiX/W91WceU9K&#xA;846abyDzBrkevW5KNp90bVLS5X7XqJOIT6Lj7PAoi969sVZBirxz85vL3mufzJ5SubbzXcWlneeY&#xA;7SGwsFtLN0sphY3NZ0keMySMeD/DISvx9Nhir0XypofmTSo7ldb8yT+YmlKmB57a1tfRCg8gBaxx&#xA;BuVR9rwxVPsVYf5Z1/Vr38w/OmkXM/qafpP6M/R8HBF9P6zbNJL8SqGbkwr8RNO2Ku8wa/q1p+Zf&#xA;lDRbefhpmqWmry39vwQ+o9otqYTzKl14eq32SK13rirMMVYNr3mXW9B/M/QbW7uOflTzJby2EEZR&#xA;ALfVoazRkyhQ5FxCGRUJPxLtirvzK8y63a33lryx5cuPquu+Y79VNyI0lMGn2gE19MFlDpXhSMch&#xA;1bbemKs5xVg/mXzJrOh/mb5Xt5rmvljzFDc6c1uyRhYtTiAuLeT1ePqVmjV4wnLjUdK4qxn8xvzM&#xA;8y6L+ZWkWemOv+FdHFo/nM8Eag1i4NpacmZS6ekV9X4GFa716Yqybzt5k1qLzp5P8q6HcfV7jU7m&#xA;W+1eXgklNMsE5SxkOG4+vI6RhhuN6EdcVZxir58/Ir81NH8s/l3baf5riudMs1ur59I1L6tPcW11&#xA;C15MXAkt0l4yxzCRSj0NKEVrirNvy/N55o/MHWvzCewuNP0h9PttE8v/AFuNoJ7m3ile5nuWhejI&#xA;jSyAR1FSBXbFXpuKvH/Lnm6x/LPVtf8ALfm5Liy0y51O61Ty/rIt5p7We3v39doC8KScJYZGcEPS&#xA;vUe6ql5V81z+Z/8AnIBdRgsbm00JfK1zFpU15C9vJdAahatLcJFKFkWM81VOSitCcVey4q85/JW1&#xA;ube386ieJ4TL5v1qWL1FK8o3mUq616qexxV6NirsVeXee/Mv5T3OpXGk/mLoLRG1bhYX2o6dJcQT&#xA;xsAxa0uoY5adaMvJW9sVUvyYAGueZF8vjUR+XoW0GgDUvrHD1+Mn1r6l9b/ffV/sfa25V47Yq9Wx&#xA;V55+c8ktnZ+VdcMEs2n6F5htL/VWgRpXitPQuLd5vTQM7LG06luIJpirJfKfnryx5tjuZdAunu4b&#xA;RlSeVoLiBeTgkBTPHHz6b8a0xVPsVeT3/mKx8gfmzr+p+YhcQaB5qs7CSz1RIZZ7eO7sFkhkgk9F&#xA;HZGdHRlqKGnXFULb+abnzX+c/lPUtP0y8j8sWlhq0dnq1zBJbi5mkW3MpSOVVkWIBUCO6jkeVPs1&#xA;xV7FirEfzW8qXPmbyTfWdgeGtWhTUNDnGzR39m3rW5U9uTLwJ8GOKsV/KO51Pzn5k1P8yNX0+XTa&#xA;2tvoui2NwhSSKKNVnvn4tv8AvLp+Knb4UxV6xirBvzo0C91f8v76XTFLa3orxazoxUFnF3p7idQg&#xA;G/J1VkFP5sVYv5M8q3Hnf8vvOOq6xbSWN9+YE1y8MNwpWW2toU+q6erggbxiISDbviqz8ij5h8y6&#xA;xqvnrzNZzWepRWdn5ctIrlSkgFpGst9IAeqzXb8lPtir2TFWI/lN5Q1Lyf5C0/y9qcsM17aSXbyS&#xA;WzO0RFxeTXCcS6xtskoB+HrirLsVdirsVYvL5X1B/wAzrXzUJIv0fBolxpbxEt6xmmu4J1YLx48O&#xA;MLAnlWtNsVZRirsVdirsVdirsVdirsVdirsVdirsVdirsVdirsVdirsVdirsVdirsVdirsVdirsV&#xA;dirsVdirsVdirsVdirsVdirsVdirsVdirsVdirsVdirsVdirEb783PyxsLGK+uvM+nx2szvHC/ro&#xA;xdozxcKqkseJ2O22Kp7oHmTQPMOnrqOhahb6lYseIuLaRZFDDcq3EniwruDviqY4qxzzR+Y3kXyr&#xA;LFD5i1y002eYcooJpAJSu/xemKvx260piqvpfnnybqtzaWuma1Z3txfwtc2cUEySNLChKu6hSahW&#xA;BB8DiqeYqxjUvzQ/LvTLe5uL/wAxWFvFZ3T2NzznTkl1F/eQ8QeRdK/EoG2KpvoPmDRfMGlw6tot&#xA;5Hf6bccvRuoTyRuDFWofZgQcVTDFWN+aPzI8h+VZ47fzDrtnptzKOUdvNIPVK/zemKsF260piqM8&#xA;tecfKvme2e58vata6pDGQJTayrIYyegkUHkhP+UBiqcYq8i/OL85LPytr3ljSdO12ztrp9csoPM1&#xA;rIYnkh02YB5XkD1MS8GDc9tjir0Hy5558neZnnj8vazaaq9qFa4W0lWUoHqFLcSaV4nFU8xVAQa9&#xA;otxrF1o0F7DJq1kiS3dirgzRJIKozp1Aau2Kuute0W01ay0i5vYYdU1ISNYWTuBLMIV5yGNDu3Bd&#xA;zTFUfiqXnzBoY1waCb6Aa0YPra6cXUTmDlx9UJ1K8tq4q7XfMOhaBY/X9bv4NOsuax/WLl1jTm/2&#xA;VBam58MVTDFUvl8w6HDrcOhS30Kazcwm4t9PZwJnhUkF1TqVHE4qp6j5o8uabqllpN/qVva6nqRI&#xA;sLOWRVlmINP3aE1bfFVXVPMGiaTLZQ6nfQ2cupTra2EczhGmnc0WOMH7THwGKo/FXzt/zil5J8qX&#xA;nlfXNdvtPt7/AFSXVrm0M1zGkxihiVHEaBw3GplLNTrUYqnnkbSdN8r/APOSHmbQPL8S2eiajoMO&#xA;q3enw7QRXi3CRDgg+FKpIzcffbbFXtuKvDPyS8uaH5k80/mF5r8wWcOo6+nmO70yP63GsptrW1Cr&#xA;EkauDw2bgTTouKoK28q6B5d/5yzsY9Et4rODUdBmvbizgUJGk7PJEzKigIvNYVJp3qe+KvoDFXz9&#xA;+RvkTy1qfn38zPMeqWUN/eweZtRsrNblFlSFfXeSR0VwVDycwC1K0FO5xV73Z2VnZW621lBHbWyF&#xA;ikMKLGgLsWYhVAG7MSffFVbFXiWueTvO/lf81Ne88aV5YtPOun69HbqYXnig1CxNvEImEJuFKMjg&#xA;bhdzsNqbqsm/KzzT5F1vWdcXS/Lz+WPNsCwL5g0y6tktbkqOTQyHh8Min1DR+u4rtxxV6Pirxb/n&#xA;ITStLbW/y3nazgaa683aZFdSmNC0sfLjwkalWWgpQ4q9esdH0nTy5sLK3tDJQSGCJIywHSvACtK4&#xA;qi8VeP8AlHb/AJyY8+A7FtJ00qD3ARASPpxVrz9JGf8AnI/8rYwwMi2+tMy9wGsnAP08Tir2HFXj&#xA;f5/QzeXNT8qfmjZoeXlm9W11rgDV9Mvj6UnKla8Gai7dXriqj56kj8+fnT5T8n27i40Py3GPM2tl&#xA;TyjeTYWUZPQ7sGp3Rzir2rFXjP8AzkHy8u6r5J/MmKoHlvVBbamVG5sL8enMT/qheI93xV55+a1r&#xA;qPmfzl5z/MDS3aQflkdMh0bgx9OSW3mF1fE0/wB9cmr7UxVm51O1/MP/AJyB8utZt6+g+UdGGsk/&#xA;s/XNURWgBpXf0XikX5HFXuWKvmD8hvIHnK58nXOv+TPNj+Xry91C7h1G0ntYr61m9GUiORUkIMcg&#xA;DUJHUUxV7F+Wf5Wf4RudU1rVtVl8webddZG1XWZ0EVVjFEiiiBYRxr4A9h0AACrPcVeVa3+T3mW0&#xA;84ah5p/L/wA0nyzca0Q+t6fLax3lrPMoNJlRyvBzWp71J33IxVhug+T77y3/AM5L6M2qa1Pr+tap&#xA;od1d6lqU6JCGkDNEqQwx/DFGqRiignvir6HxViH5ffl9/hC680XH1/69/iTWbnWePo+j6H1k19Gv&#xA;OTnx/m+GvhirL8Vdirz7XPJH5lLr95qnlfzu1naX7CSbSNSs476CJggT/Rn5RPGvw/Y6V3xVU/Lv&#xA;8sr7y5res+Z9f1t/MHmjXVijvLz0EtYY4YBSOKKFCwFBSpJ3oOm9VWe4qw780vy8HnjQrSzg1BtJ&#xA;1XS76DVNI1JEEvo3VvXgWQleS0Y7V60PamKq/kfRfzA0179/N3mSHXhP6QsYbexjslt+HP1DVWZn&#xA;9Tkv2unHbqcVZVirzXzx+VOu6l5zt/O3k7zGfLfmJbT9H3zPbJdwXNuG5qHjcr8Snvv0HSmKpfof&#xA;5G6vb/mJofn/AF7zbNrevaYtyl4JLVIopY54Hgiit0jkC26Q+qzfZbkSemKvWsVSvzT5esfMnlvU&#xA;9BvhW01O2ktpTSpX1FIDrX9pD8Q9xirDPyb/ACdT8urfUmudXfXtV1I26SajJD6DLbWcIht4Apkn&#xA;2QV35dKCm2KvR8VSDz75Qs/OPk7VvLN3J6MWpwGJZ+PP0pAQ8UvCq8vTkVWpUVp1GKpB+W/5R6d5&#xA;O8gXflC5vDq66m90+q3zR+i1wbtfTaqF5v8AdQVd2NaV9sVQf5KfkvB+WVjqkR1VtZvdUkhMl48J&#xA;gKwW0fCGHiZJ/scm3r0NKbYq9KxVLdA8t6H5esDp+i2cdjZGR5jBECF9SQ1dtydycVTLFXYq7FUt&#xA;m8t6HNr8HmCWzjfWraBrWC+IPqJC5LMgNehJOKplirsVdirsVdirsVdirsVdirsVdirsVdirsVdi&#xA;rsVdirsVdirsVdirsVdirsVdirsVdirsVdirsVdirsVS3W/Mvl/Qkt5NZ1CDT0u5lt7Vrh1jEkzb&#xA;rGnLqxp0xVMsVdirsVdirsVdirsVdirsVdirsVdir5x8o/n/APnJ55S/sPKPlTT7jVNOuZBeX1xI&#xA;8dlFbkAQKVaVHaZ2WStG6AbdSFWbflH+cWu+ZfMereS/OWjpofnLR4xPLBCxME0VVDMgZpKU9RCP&#xA;jYMGqDir1jFXh2v/AJ0/mRrXn/VPJ/5W+X7PUjoDelrGqamziBJQxRkHCWCnF1K/aLMQ1FoK4q15&#xA;N/PTz3qf5t2P5feY/LcGiXQtpW1Meo0rmaOKSZXt3VuHpOgSn2u++KvcsVfPtv8An1+amu+cvNHk&#xA;7yl5XstQ1TRtSuLaC9md47WK0t53h9S5rIpZ3KrQIy96A4q9h8iXXnm50BZfOtnZ2Oueq6vBp7M0&#xA;HprQIwLPKfi3PXFWQ4q8Y8yfm5+Ymo/mbqXkH8u9I02a70WFJtRv9ZkkWM81RiI44njei+qq1337&#xA;AblVl/5ea5+al5e32n+e/L9npzW0aSWuqadOZLa4LEgosbmR0K8a/E30YqzjFXzH/wA5V3n5h/pL&#xA;Q4XsLEeW4tZtG0G6Ej/WZrr0KlJ15UVPULioHQDFXs3kDUfzcury7XzzpWl6faLGps306aSV2k5f&#xA;EHDs1BxxVm2KvOtJ/MvVr3889a/L2S1gXTNM0pNRiu15+u0jG3HFqtw4/wCkHovYYq7zd+ZeraJ+&#xA;bXlDyXb2sElh5ijne6uZOfrRmFXI9OjBd+HcHFXouKvM/PH5pax5T/NPyn5du7O3PljzODbpqJ5i&#xA;eO8DFAn2uHHlJD1X9o+GKu/Oj809X8lt5c0ry9Z2+oeY/Ml+LSztbnn6fp7Kzn0yp/vJYx16V8MV&#xA;elry4jkQWp8RAoCfYVOKvNPzC/NPWPKH5k+TtCltLd/LnmeQ2sl63qCeO55iMAENw41mi6r/ADYq&#xA;xj81v+cirvyV+aGl+Vbeyt7jSWW0fW7yT1PVgW5mKtw4sEHGLiw5DqcVZN57/NPV9H/NPyf5D0S0&#xA;t7q410tPqjz+oXhtFY1eMIyjl6cMx+KvQYq9NxV8i/8AONX5veTfJY8y6V5onOmRXt+1zZ6i0Ukk&#xA;cjKOEkLNGrkFBxZdv2j7VVZh+V2rRfmD/wA5F69580SKb/C+m6cNOhv3VoxPMQij4WAO4DtQ7gBS&#xA;QCaYq+isVfMn5eeedB/Kf80PP/l7zs50uLV9QOpaXqTRO8csLvK6hjGrmhSQcewbkOuKofy9540j&#xA;zp/zlrpWs6MsjaSumz21ndyI0YuVhgnDTIrhW4eoWQV/l+jFX1HirwD/AJxxA/5Wp+dB7/pwb/8A&#xA;R5qGKvf8Vdir58/Mxf8AnHjzD581GHzDq915V86aSUim1WB3s5Jl9JSjLIVlifircKkB9qfZpiq/&#xA;/nHXzfr195281eW4PMVz5u8m6VFE+ma7eKxlErlf3XqP8bDdxvseHJaA4q+gMVeF/wDOWqyQeVfL&#xA;GqtGzWWma/az3siKW9OPg/xEDtUU+ZA74q9N8pfmZ5E833d1aeW9Xi1O4skSW5WFZKKkhIU8mVVO&#xA;47HbvirJ8VfOfmXzPpn5df8AOUtx5g8yyNaaH5i0RbaK/MbvGjIYgQeAY/btQDQGnIV23xVKdR/M&#xA;jQvPP/OTXkW48vl7jR9PW4to9RaN40nmMMry+n6gUlUBQVp19qHFX1Firyb/AJyc8oS+YPytvL2z&#xA;BGqeXZF1azkTZwIK+tQjwiLN81GKvPvyk1y5/N/86YfO13Cyab5R0i2hhjYfD+kbiMiQhelPUecq&#xA;etFQ/JV9NYq8X/5yy8uy6j+Vp1m0qt/5bvINQhlT7aoW9GSh9vUVz/q4q8s0PQLv80/y/wDzY8/3&#xA;ttS/1RohpS0BZF0mNLgon+uipH94xVOf+cbdQ1H8wvzU1Xz7qiE/obSLLTIeW4Fw8KxyOp/yvRmY&#xA;jtzxV9RYq8S/IL8p9T0Xyrr+k+e9BtmS+1aS7trS7+q3sbxNEiB+KtMg6EUO+KvZdP03TtNtUs9O&#xA;tYbK0jr6dvbxrFGtetEQBRiqIxVLdZ8s+XNbEa61pVnqYhNYReW8VwENQar6itTp2xV5rqn5feYP&#xA;+hifLXmnT9NSPyppmhvYTXMbwRpFKTd8Y1g5LJSkyfZSm/zxV65iqDstG0ewuLq5sbG3tLi+f1L2&#xA;aCJI3merNylZQC7VdjVvE4qjMVdiqWa15W8sa6qrrekWWqKgogvbeK4AFa0Hqq3fFUVp2l6ZplsL&#xA;XTbSGxtQSwgto0ijBPU8UCjFUTiqld2lreW0lrdwx3FtKOMsEqh0ZfBlYEEfPFUDo3lfyzofqfoX&#xA;SLLS/V/vfqVvFb8t6/F6SrXc4qmeKoHWNA0LWrdbbWdOtdSt1PJYbyGOdA3iFkVhXFVkXlvy7DJZ&#xA;yxaXZxy6epSwkSCJWgVq1WEhaxg1P2aYqmOKrZYopYnilRZIpFKyRsAysrChBB2IIxVB6VoWh6RH&#xA;JHpOnW2nxykNKlpDHArMBQFhGFqcVR2KqV1a2t3bSWt3ClxbTKUmglUOjqdirKwIIPgcVUdP0jSd&#xA;OtPqWn2UFnZ1J+rW8SRRVb7R4IAu/fbFVmlaFoekRyR6Tp1tp8cpDSpaQxwKzAUBYRhanFUdirsV&#xA;dirsVdirsVdirsVdirsVdirsVdirsVdirsVdirsVdirsVdirsVdirsVdirsVQ51HTxDJObmIQRf3&#xA;svNeCf6zVoPpxVUt7i3uYUnt5UmgkFY5Y2DIw8QwqDiqpiqhd39jZIsl5cxWyMeKtM6xgsewLEb4&#xA;quN1aiVIjMglkHKOPkOTA9wK1PTFVXFVA39iBKTcxAQVM1XX4ANjy3+H6cVX211bXUKzW0qTwvus&#xA;sbB1I9mWoxVUxVRu76ysovWvLiO2hG3qTOsa1+bEDFV1vcW9xEs1vKk0L7pJGwZSPYioxVUxV5R+&#xA;ff50Xn5aabplzp9nb6lcXs7wzQTSMpjVYw4aib7174q9RgvbO4YrBPHKwFSqOrEDx2OKq2Kqf1q2&#xA;9f6v6qev19LkOdKV+z1xVz3NukqwvKiyv9iMsAx+QO5xVUxVTa6tlmEDSoJ23WIsA5HsvXFXT3Fv&#xA;AgeeVIkJoGdgor1pU4qqAhgCDUHcEdCMVUnurWOVYXmRJnpwjZgGNTQUBNTirpby0ilWKWeOOV6c&#xA;Y2ZQxqaCgJr1xV0t1axOscsyRu/2EZgpbtsCd8VVcVfEX5B/lNZfmVrHmey1vUbuDQNInSd9PtJB&#xA;H6t1dNKiSNyV1+BIG/Zrv161VZz+UFhfflr/AM5Gap+W9jqE155cvrdpoopj9lvq63McjKKL6iqD&#xA;GWUDkN6dAFX1Jir5F0HyUv54fnV5zl816jdJpPl6aS2s7O3YKwjEzwwohZXVFCwlnotWY18cVQei&#xA;eTJPJf8AzlX5b8tJqM+o6bYA/olrpuUkNrLbTyrAdgvwSO/2QAa1oK0xV9jYq+MfJf5XWn5ifnv+&#xA;Yml6pfXNrodpql/c3tvauEa4cahIsSMSGHEVZq0PtStcVfUn5c/lr5Z/L7RrjSPLyzCzubp7yT6w&#xA;/qv6jokdA1F+ELEKDFWVYq+Q/wA9NEubX86rnXvzD0bVdb/L5okXT30529OFfRRStaqqESK5ZC6F&#xA;j8VaYq9E/wCcc7L8lm1nVtT/AC61O+Wae2VL3y9fuQYF9QESqrD49wF5c3pWlRXFXvGKvkn/AJzM&#xA;8iaBp1xY+b7ZJBrOuXXo37s5MZW3tkjj4p+z8MYrir3f8u/yP8h/l/qlzqfl2K4juruD6tMZ5jKv&#xA;p81fYEDeqDFWf4q+av8A19v/AKMf+7ZiqJ/Nt0P/ADlP+W6AjmtvGxXuA09wAfp4nFX0Zir5t/5y&#xA;rsLny15o8mfmjpyH19Lu0tL3iac1jY3EKmnZ19ZG9iBiqB/P3UIvzI/M7yD+X2kzevptysep3skZ&#xA;NDDdD1OW3eO0iZx/r4q+nooo4okiiUJHGoVEUUAUCgAHtir5r/5y4tJtC8weRvzCs0Pr6XeC3mYd&#xA;zDILq3X6eEuKvLvz61rU/Mv5qa95r0R/W0zyfHpyRXQqQlXQp0/5eZXxVn99q1v+Zn/OU3lY2v7z&#xA;SNDsbW/FDyUFYP0grfP1Z4kPyxV9UYq+IPyL8rfmre33mjXfy51i3sNSsbhba8sbsAxXMUxkdack&#xA;lTmjR7cgOv2h0Kr278lfyS83aJ5y1L8wPzA1GLUPNN+jRxRwtzEfqcQ8jsFReXBfTREHFV+iir3H&#xA;FXzt5t/JH81tA/MrUvO35VapbW41tne/srkhSskx5zVWRJIpEaQcwdmUmg8cVYHo3lvzhof/ADlR&#xA;5XXzhqker+YtQQ3t9cwikSl7e4jSKP4Y/hRIh0RR2p3xV9i4q8e/Kf8AKfzR5V/NLzz5n1N7ZtN8&#xA;xXNxNp4hkZ5Qst286+opRQp4OOhO+KvYcVdiryHzfo//ADkdYeatR1Lydq2l6noV+yPb6TqKFGtS&#xA;qKhVCBuDxqT6m5qeIxVAfkr+THm/y9541rz75wu7IazrELwDTtMUrAglkjkdnosa1rCoAFe5JLYq&#xA;9txV5h/zkF+Ut9+ZPk+30/TLiK31bT7kXVo1xUROODI8bMqsy8gwINOoxVU/KyL89hqd035iSad+&#xA;jFtljs4rKhlNwrLWRio6MvLl8XXoBir0vFXhf5x/k35+1D8wdN/MX8u763tNftIVguILghORUMgd&#xA;SyvGwaKQo6tTYbYqkOjfkZ+clx+a3l3z75u1ix1S4tZEk1ERsyejHHyVIYEWNEYAHkaBdyevUqvp&#xA;LFWIfm15HHnj8vtY8uJwW7uoudhJJUKlzCwkhJYAlQXXixA6E4q8s/ID8gvN3k7zfd+ZvONzbXd3&#xA;FYx2GlehK8xRQqx1JdE4+nDEsaDwJxV9BYqwD88/y7vPP/5d3ugaeYk1T1YLnT3nYrGJYnHLkwDE&#xA;ViZ16d8Vedflx/zjprmjflX528va9JbSa95nUpBJFI0kS/V4+VozuyK1RcOxbbpTFUT/AM43/kN5&#xA;n/L3WtY1jzLJayXV1bRWdgbWR5SI+fObmWSOm8cXGmKve8VYj+X/AOVnlPyF+kv8PxzR/pWRJrv1&#xA;pTLVo+XHjUbf3hxVl2KuxV2KsR1L8rPKeo+f7Dz3cxzHzBp0YhtnWUiIIA6isdKHaVsVZdirsVdi&#xA;rsVdirsVdirsVdirsVdirsVdirsVdirsVdirsVdirsVdirsVdirsVdirsVdirsVdirsVdirsVdir&#xA;sVdirsVdirsVdirsVdirsVdirsVdir51m/5zR8qILuFfLt/JfwyCK2tleMiU1YMS4rwA4j9kk16Y&#xA;qzH8nv8AnIvyx+ZOo3GkJZy6RrMUZmitJnWVZolNGMcihKstd1K9NxWhoq9ZxV4j+Zn/ADlR5Z8m&#xA;eaZfLVlpNxrmoWhCXrRSLDFHKwBEStxkLuK/FsKHbrWiqzyn/wA5X+U/NHmzRvLmn6PepPqzLE00&#xA;zRqIZTy5KVBbkBx6jx7Yq9xxV4F5h/5y98saJ5i1zQZdAvpr3SLm4sYTG8ZW4nt5/Rp4orULVofC&#xA;mKs//KH81W/MTTNQvW0S40RtPnW3eG5fmWZl5mnwR9AR2xVn2KvHPzJ/5yV0Tyj5tPlHTdFvPMWu&#xA;xhfrFvaEKqM6eosa0WV3fgQxAWg8a1AVTH8qvz2t/PfmC88u3HlzUNB1eytjeSRXYBj9JZFjoWYR&#xA;OHLSCg4eO+2KvUsVfIf/ADmR54/SGpW3lL9GXMH6FuRN+k5B/o9x9YtUk4xGnVPUod+2KvW/yY/O&#xA;r/FlxY+Wv8Najpn1TTlf9IXS0gf0Fjjop4j7XKoxV7DirzW+/O/SrT84Lf8ALNtMna+uOFNQDp6Q&#xA;525uPs/a6CmKu80/nfpXl780NI/L+bTJ57zV/q3p3qOgiT6zI0Y5KfiPHhvir0rFXmH5k/nvpPkH&#xA;zjpHl7VtLuJLfVlidNVR0EMayTGKTkp+I+lTk1OxGKqv5xfnjon5YnSor2wn1K51X1TFBbsisiQ8&#xA;AWbl/MZKL9OKvRLOaaezgmmhNvNLGjyW7EFo2ZQShI2JU7Yq82/NP899J/LnzHpOk6rpdxcW+qoJ&#xA;Fv4nRUjHq+nIGVtzwFG28cVSf8yv+cnvLPkTznN5XvNKubya2WFrm5hdAieugkA4n4jRGBxVN/M/&#xA;586Pon5n6X+X8OmT6hqGpNap9bidFiiN21AWBqxCR0ckdsVeoYq+GP8AnHPzv5L8ofmnqt95plS0&#xA;inhuLex1CRDIsMzTKTXirFOaBl5fR0OKsl/L7UtM82/85eyeYPKSEaGHuLmSVY+AMYsDbyylDSgm&#xA;uGrvv8VeuKvsLFXxp+Xfmby55C/5yU833Hnc/VDNcahHa6hMjOIpbi6E0cpAVmUTQ9H8G32JxVBW&#xA;nmXyz5l/5y207WfLS/7ibnUYPTlCGMSuluEllCGhAd1J3FT1O5xV9sYq+RfyVtLWf/nLLzk88SSt&#xA;bXety27OASkn17hzWvQ8XYV98VfXWKuxV8tfmv5V8g6n+a+qar5f/MKPyZ57sWiW+jvXa1geQ26A&#xA;PDdho+FYiFdfiqa7eKqP/wCcc/zg88a1+YGoeS/Ml9b+Yo7S3na21y2VDQW8iqSsyrF6sMvLZmXl&#xA;WmKvpbFXzb/zm7FIfKHlyYKTEmoSIz9gzwkqPpCnFXrf5bfmH5I1/S9K0jRtZtr/AFOHTIZ57SB+&#xA;UkccaRxuXA+yVeRQQd8VZvir5I/NHV7Pyf8A85b6X5j1xjb6SyWs5uOLMFhe2a0aSigkhJFatAem&#xA;Kpd5t87+XPOP/OVHlPUfL9z9c0+3udOtPrQVlR5I5mdinIAlR6lK0/DFX2RirwD/AJzK8oDVPy8s&#xA;/MMScrnQLoeo/hbXdIn/AOSoixV5N5a1u7/Ob87/ACULtGktNFsLP6+H+yzWEf1i5dh4S3J4fIjF&#xA;X2xir5z/AOc2PL5uvJWh66i8n0y+a3kI/ZivI6lj7c7dB9OKvAZdM1X8xNJ89/mDd8mudGg00uta&#xA;8mkdLcmvfhDAxOKs3/5x3mvfPn5+2/mO/Us+k6cs81d1LW1pFp8Z+ZZg4xV9p4q+P/8AnHj8o7TX&#xA;PM3myz88+WJn06SINatfQTW/x+u1TDNSN1bj/I3TFX015K/LTyL5Ihmi8r6RFp31mnryhpJZXA3C&#xA;tNM0khUdl5UGKsmxVh3nP8n/AMtvOl5Fe+ZdDivr2JQi3IeaCUqK0VngeJnArsGJxV4JrH5dtof/&#xA;ADlD5ZHl3y/NaeWrP6p++treT6sh9N+bPKAV5VPxFmr44q+rMVYxo35ZeRdF8zXnmjTNJjtte1Bp&#xA;mvL5XlLSG5k9WUlWcoOT77DFWT4q7FWEebPyT/KzzbftqGveXoLm/feW6jea2kkI2rI1u8Rc07tX&#xA;FUx8l/lr5G8kxTR+V9Ih036xQTyqXklcLuA0srSSECvTlirJsVSzzH5Z0DzLpMuka9Yxahp09DJb&#xA;zCoqOjKRRlYdmU1GKsd8l/kz+WvknU5NU8saMLC/liNvJP8AWLqcmJmDFaTyygVKjoMVZrirGPO3&#xA;5Z+RfPEVvH5p0mPUfqpJt5C8kMqcvtBZYWjk4mm68qYqlmm/kd+VGmahpuoWHly3tr3SOBsJ0aYM&#xA;hjcyKzfH+8bkx+J6k4qzrFUFrWi6Xrmk3Wk6rbrd6dexmK5t3rxdD2qCCPmDirH/ACf+U/5eeTr+&#xA;bUPLWixadezxG3lnR5XYxFg5T9470BZAdvDFWW4qlfmbyvoPmfRptG16zW+0y4KNNbOWUExsHU1Q&#xA;qwoyjocVSjRfyq/L7RNB1LQNL0WK20jWFK6lahpWEwZOBDM7sw+HpQ7Yqu8nfld5B8mXFxc+WdHi&#xA;02e7RY7iRHlcsinkF/eO9N/DFWU4q7FXYq7FXYq7FXYq7FXYq7FXYq7FXYq7FXYq7FXYq7FXYq7F&#xA;XYq7FXYq7FXYq7FXYq7FXYq7FXYq7FXYq7FXYq7FXYq7FXnP5x/nRpf5YW2lz3+mz6iNUeZI1gdE&#xA;4eiEJrz8fUxVmnljXItf8t6TrsMTQxatZ299HC5BZFuYllCsRtUB6YqmWKuxV2KuxV2KuxV2KuxV&#xA;2KuxV2KvgryRrv55+d/OV55V8v8Am/UlluvXM0l3f3PpQwQvUtyrK8e9F/diu9OlcVZt+S3nn8yP&#xA;Jn52/wDKvPNeqz6nb3Mz2V1FNPJdJHMYvVgmgeT4wG2BG2zbioFFX1/ir4v83ebPzW/NP87NQ8p+&#xA;Vtan0q0srm5trGFLmW0t44rIlHnlMPxszlK/ZYjlQbYqlem+a/zl0X88PL3lHzR5o1KSey1nTbK9&#xA;t472c288MlxEw5KCglWWKUVLrUg/Fir7kxV8P3mv/nL5k/PLzF5O8s+a9RtmutX1S1t45b64W2t7&#xA;eGeVjxFX9NY446LwWo6Lir6O/I38t/P/AJJi1mPzb5iOvC+a3ax/0i4uFh9ISCWi3CjgX5r9k78R&#xA;Xpir1LFXxp/zkX+YnnxPzfufLdzr975c8tWxtxbtZmVV9GWJHe4ZYWjaf4y23LalOoOKs/8A+cbY&#xA;ddl8y3NxB+ZK+b/LSWcldOkluRdRXBkTgz2l4C8aULfGjULbYq+jMVfG3/OY/lnzHZeaLbXbzWJL&#xA;vRNWkK6Vo7PKyWbW9tBHMURiY19VxyPACvfFXpf/ADj3+Wn5jaUnl/zPqnnG41Hy3d6TDJa6A890&#xA;8UKXFujQII3cxD0lIAoNu2KvfsVfJ35medfOVn/zlTpGiWmvajbaNLqeiRyaZFdzpaskzQeqrQq4&#xA;jKvyPIU3rvirf51+dfOOnf8AOR+jaRp+vajZ6VLNpQl0+3u54rdhLKokDRI4Q8x9rbfFX1hir5e/&#xA;5y81bz35Y17y/rmga/qWm6fewvbTWtpdzwwC4tn9QO0aOErIktOm/HFUm/5yF/NnzVrPmDyVpfkv&#xA;V73Tn1TTLa9Men3Utt6k+qsvpRSGJk5FAi05dOXzxV9YaTZPYaVZWMk8l09pBFA91MzPLKY0CmSR&#xA;2LMzNSpJNScVfNH/ADmJrnnXy7rHlzUdC17UtLs7+3nt5oLG7nt4jJburh2SJ1Xkyz0r1oPbFXlH&#xA;5s/nT561Pzze3uheZNUsNKe3snitrK9uIYULWkJkISJ0QcpWau3XFWY2X5j+cvO3/ORei2el6/qM&#xA;GhXc+nyvp1reTJbNFBZx3F0pjidY6P6cnLbvir7HxV+eP5Xw/mV/ysLUL78vI/W17TI7i6kgrH+8&#xA;tvWWKReEpCvvKvw9e43GKvYvyU/Jz8z9T/Ng/mF+YNtJZvayyXTG44LLc3TxlECRxn4I4gwPQDYK&#xA;O9FX1Zir5D89flF+cXkn83bzzl+XlnJewX9xPeW01uI5PT+tEtPbzwufs1c8dqUoQeQ2VeewWnne&#xA;3/5yK8ut5328zXOuaRc3wLRtT1Z4WjX90Sg4x8QFXp0xV9/Yq+Yfy7/Kn8wdL/5yX1TzZf6PJB5e&#xA;n1HWJ4dQLwlWjummMLcVcv8AHzH7OKvp7FXYq+bvzksPzyuPN2pLF5O0zzh5QndDo8F7BFdG2pCi&#xA;yFGjkt7qJnZSzVNK9DiqUf8AONv5K/mBo35iTecNd0seXdMijuEh07nUyNcVAiRC8sgiiG9ZGrsv&#xA;2tzir6oxV4v/AM5RflX5h8+eU9Ok8vQi61XR7h5RZllRpYZk4yBC5VeQKKaHqK032KqW/kRrP57x&#xA;6jpPlrzZ5dXTPKuk6b9Uhu/S9ORmt0SOD1GaSTkeK0+BV8cVe9Yq+X/+cj/yf/MK6/MXTvP3kize&#xA;+uFW3aQQFDNBeWbVil4ORyUqqU67rv1GKsNb8rf+cgvMX5m6H5x806JJLM95Y3F1Kr2yLBBBMo4m&#xA;JXHDiicioFd9/irir7SxV5f/AM5Hfl9qHnf8s7nT9Jt/rWs2VxDeadACql3VvTkXkxUD91K569QM&#xA;VeF/kl+Q/wCZkH5paJrPnHSJbXS9HX1lmmkhccraLhaxqEdyOL8W6fs+OKvsTFXjf/OUn5d6/wCd&#xA;fIljB5esjfatYagk6wKyKxhaKSOShdkX7RQ9e2KvD/KH/ON/5g/4D87LquiSW2uywWKaDA8kLNKU&#xA;uRLcAFXIHwRqu5HXFWSf84z/AJJef/Ln5knXfNWjyadaWdjOLWaSSF+U8hSIKBG7n+6Z8VfWGKvI&#xA;Pyl/5x4s/wAu/ON/5lh1uTUXv7Wa0Ns9usQUTTxzcuQketPRp074q9fxV2KuxV5B5p/5x4s9f/Nq&#xA;z/MV9bkt5rO6sbsacLdWVjYGMhfV9QEc/S/l2xV6/irsVdirsVdirsVdirsVdirsVdirsVdirsVd&#xA;irsVdirsVdirsVf/2Q==</xapGImg:image>
    </rdf:li>
   </rdf:Alt>
  </xap:Thumbnails>
 </rdf:Description>

 <rdf:Description rdf:about=''
  xmlns:dc='http://purl.org/dc/elements/1.1/'>
  <dc:format>image/svg+xml</dc:format>
 </rdf:Description>

</rdf:RDF>
</x:xmpmeta>
                                                                                                                                                                                                                                                                                                                                                                                                                                                                                                                                                                                                                                                                                                                                                                                                                                                                                                                                                                                                                                                                                                                                                                                                                                                                                                                                                                                                                                                                                                                                                                                                                                                                                                                                                                                                                                                                                                                                                                                                                                                                                                                                <?xpacket end='w'?>
			</metadata>
		<g id="レイヤー1">
			<g>
				<rect fill="none" width="100" height="150"/> 
				<rect x="100" fill="none" width="100" height="150"/> 
				<rect x="200" fill="none" width="100" height="150"/> 
				<rect x="300" fill="none" width="100" height="150"/> 
				<rect x="400" fill="none" width="100" height="150"/> 
				<rect x="500" fill="none" width="100" height="150"/> 
				<rect x="600" fill="none" width="100" height="150"/> 
				<rect x="700" fill="none" width="100" height="150"/> 
				<rect y="150" fill="none" width="100" height="150"/> 
				<rect x="100" y="150" fill="none" width="100" height="150"/> 
				<rect x="200" y="150" fill="none" width="100" height="150"/> 
				<rect x="300" y="150" fill="none" width="100" height="150"/> 
				<rect x="400" y="150" fill="none" width="100" height="150"/> 
				<rect x="500" y="150" fill="none" width="100" height="150"/> 
				<rect x="600" y="150" fill="none" width="100" height="150"/> 
				<rect x="700" y="150" fill="none" width="100" height="150"/> 
				<rect y="300" fill="none" width="100" height="150"/> 
				<rect x="100" y="300" fill="none" width="100" height="150"/> 
				<rect x="200" y="300" fill="none" width="100" height="150"/> 
				<rect x="300" y="300" fill="none" width="100" height="150"/> 
				<rect x="400" y="300" fill="none" width="100" height="150"/> 
				<rect x="500" y="300" fill="none" width="100" height="150"/> 
				<rect x="600" y="300" fill="none" width="100" height="150"/> 
				<rect x="700" y="300" fill="none" width="100" height="150"/> 
				<rect y="450" fill="none" width="100" height="150"/> 
				<rect x="100" y="450" fill="none" width="100" height="150"/> 
				<rect x="200" y="450" fill="none" width="100" height="150"/> 
				<rect x="300" y="450" fill="none" width="100" height="150"/> 
				<rect x="400" y="450" fill="none" width="100" height="150"/> 
				<rect x="500" y="450" fill="none" width="100" height="150"/> 
				<rect x="600" y="450" fill="none" width="100" height="150"/> 
				<rect x="700" y="450" fill="none" width="100" height="150"/> 
				<rect y="600" fill="none" width="100" height="150"/> 
				<rect x="100" y="600" fill="none" width="100" height="150"/> 
				<rect x="200" y="600" fill="none" width="100" height="150"/> 
				<rect x="300" y="600" fill="none" width="100" height="150"/> 
				<rect x="400" y="600" fill="none" width="100" height="150"/> 
				<rect x="500" y="600" fill="none" width="100" height="150"/> 
				<rect x="600" y="600" fill="none" width="100" height="150"/> 
				<rect x="700" y="600" fill="none" width="100" height="150"/> 
				<rect y="750" fill="none" width="100" height="150"/> 
				<rect x="100" y="750" fill="none" width="100" height="150"/> 
				<rect x="200" y="750" fill="none" width="100" height="150"/> 
				<rect x="300" y="750" fill="none" width="100" height="150"/> 
				<rect x="400" y="750" fill="none" width="100" height="150"/> 
				<rect x="500" y="750" fill="none" width="100" height="150"/> 
				<rect x="600" y="750" fill="none" width="100" height="150"/> 
				<rect x="700" y="750" fill="none" width="100" height="150"/> 
				<rect y="900" fill="none" width="100" height="150"/> 
				<rect x="100" y="900" fill="none" width="100" height="150"/> 
				<rect x="200" y="900" fill="none" width="100" height="150"/> 
				<rect x="300" y="900" fill="none" width="100" height="150"/> 
				<rect x="400" y="900" fill="none" width="100" height="150"/> 
				<rect x="500" y="900" fill="none" width="100" height="150"/> 
				<rect x="600" y="900" fill="none" width="100" height="150"/> 
				<rect x="700" y="900" fill="none" width="100" height="150"/> 
			</g>
			<path d="M25,58c13.8144531,0,22,8.5810547,22,24c0,16.7802734-8.184082,26-21,26v3c14.3115234,0,24-10.3034668,24-29
				c0-17.1967773-9.4550781-27-25-27c-9.1320801,0-16.5129395,4.729248-19.8000488,12H5V56H2v76h3V99h0.1999512
				C8.6376953,106.6040039,16.2172852,111,26,111v-3c-13.4458008,0-21-7.848877-21-25C5,66.5148926,12.0539551,58,25,58z"/>
			<path d="M147,83c0,17.151123-7.5541992,25-21,25v3c9.7827148,0,17.3623047-4.3959961,20.8000488-12H147v33h3V56h-3v11h-0.1999512
				C143.5129395,59.729248,136.1320801,55,127,55c-15.5449219,0-25,9.8032227-25,27c0,18.6965332,9.6884766,29,24,29v-3
				c-12.815918,0-21-9.2197266-21-26c0-15.4189453,8.1855469-24,22-24C139.9460449,58,147,66.5148926,147,83z"/>
			<polygon points="627.8999023,106.3999023 605.3598633,56 602,56 626.3300781,110 629.6699219,110 654,56 650.6401367,56 
				628.1000977,106.3999023 "/>
			<polygon points="742.6000977,60.3999023 759.3300781,110 762.6699219,110 783,56 779.8398438,56 761.1298828,105.6999512 
				760.9301758,105.6999512 744.1601563,56 740.8398438,56 724.0698242,105.6999512 723.8701172,105.6999512 705.1601563,56 702,56 
				722.3300781,110 725.6699219,110 742.3999023,60.3999023 "/>
			<path d="M505,56h-3v27c0,21.4301758,6.2788086,28,19,28c8.965332,0,17.9375-5,21.8999023-12H543v11h3V56h-3v31
				c0,12.9665527-10.1274414,21-22,21c-11.2998047,0-16-5.7573242-16-25V56z"/>
			<path d="M205.1000977,68H205V56h-3v54h3V80c0-12.4665527,8.9614258-22,21-22c2.5249023,0,4.3989258,0.2434082,7.6000977,1
				L234.5,56c-3.6728516-0.762207-5.8500977-1-8.5-1C216.375,55,208.4375,60.125,205.1000977,68z"/>
			<path d="M418,59h22v-3h-22V38h-3v18h-13v3h13v33c0,14.8383789,3.8618164,19,14,19c4.3183594,0,7.4375-0.625,11-2
				l-0.7998047-2.8999023C435.8461914,107.3945313,432.6181641,108,429,108c-7.9775391,0-11-2.5786133-11-16V59z"/>
			<path d="M343,61.1999512C337.75,57.125,331.1376953,55,323.2001953,55C309.7163086,55,303,60.7678223,303,68.5
				c0,8.0083008,4.8041992,12.4538574,20,15.1999512c14.4599609,2.6132813,18,6.1918945,18,12.5
				C341,103.6933594,335.5820313,108,322.2001953,108c-7.4946289,0-14.3251953-2.8125-19-7.5L302,103.5
				c5.2631836,4.7978516,12.5317383,7.5,20.2001953,7.5C337.3320313,111,344,105.5205078,344,96.1999512
				c0-7.7531738-4.3310547-12.536377-20.4663086-15.4521484C309.6743164,78.2431641,306,74.6960449,306,68.5
				c0-6.2414551,5.7631836-10.5,17.2001953-10.5c7.78125,0,14.2993164,2.270752,18.5996094,6.1000977L343,61.1999512z"/>
			<path d="M26.0446777,210.1713867c12.4719238,0,19.9553223,7.9187012,19.9553223,22
				c0,15.2653809-7.6542969,23.6665039-19.1218262,23.6665039l0.9248047,5.166748
				c13.9924316,0,23.6970215-10.3591309,23.6970215-28.833252c0-17.3134766-9.4211426-27.166748-24.5302734-27.166748
				c-8.6394043,0-16.0637207,4.4619141-19.4362793,11.1665039H7.3334961v-10.1665039H2v76h5.5v-32h0.2001953
				c3.5917969,6.9304199,10.9980469,11,20.1027832,11l-0.9248047-5.166748c-12.121582,0-19.2114258-7.28125-19.2114258-22.833252
				C7.666748,218.0632324,14.2565918,210.1713867,26.0446777,210.1713867z"/>
			<path d="M27.0895996,362.3427734c11.1293945,0,17.9104004,7.2563477,17.9104004,20
				c0,13.7504883-7.1245117,21.3330078-17.2438965,21.3330078l1.8500977,7.3334961
				C43.279541,411.0092773,53,400.5947266,53,382.3427734c0-17.4301758-9.387207-27.3334961-24.0605469-27.3334961
				c-8.1467285,0-15.614502,4.1943359-19.0727539,10.3330078H9.666748v-9.3330078H2v76h8v-31h0.2001953
				c3.7458496,6.2568359,10.9790039,10,19.4060059,10l-1.8500977-7.3334961
				c-10.7971191,0-17.4226074-6.7138672-17.4226074-20.6665039
				C10.3334961,369.6113281,16.4589844,362.3427734,27.0895996,362.3427734z"/>
			<path d="M28.1342773,514.5C37.9213867,514.5,44,521.0942383,44,532.5c0,12.2363281-6.5944824,19-15.3657227,19l2.7749023,9.5
				C44.7631836,561,54.5,550.5297852,54.5,532.5c0-17.546875-9.3535156-27.5-23.5908203-27.5
				c-7.6540527,0-15.1657715,3.9272461-18.7092285,9.5H12V506H2v76h10.5v-30h0.1999512
				c3.9001465,5.5834961,10.9599609,9,18.7092285,9l-2.7749023-9.5C19.161377,551.5,13,545.3540039,13,533
				C13,521.1455078,18.661377,514.5,28.1342773,514.5z"/>
			<path d="M29.1789551,666.6713867c8.4445801,0,13.8210449,5.9321289,13.8210449,16
				c0,10.7211914-6.0646973,16.6665039-13.487793,16.6665039l3.6999512,11.6665039
				C46.2473145,711.0043945,56,700.4790039,56,682.6713867c0-17.6635742-9.3193359-27.6669922-23.1210938-27.6669922
				c-7.161377,0-14.7165527,3.659668-18.345459,8.6669922h-0.1999512v-7.6669922H2v76h13v-29h0.2001953
				c4.0541992,4.909668,10.9406738,8,18.0119629,8l-3.6999512-11.6665039c-8.1481934,0-13.845459-5.5786133-13.845459-16.3334961
				C15.666748,672.6938477,20.8640137,666.6713867,29.1789551,666.6713867z"/>
			<path d="M30.2236328,818.8286133c7.1020508,0,11.7763672,5.2700195,11.7763672,14
				c0,9.2070313-5.5349121,14.3334961-11.6098633,14.3334961l4.625,13.8334961
				c12.7158203,0,22.4848633-10.581543,22.4848633-28.1669922c0-17.7797852-9.2854004-27.8330078-22.6516113-27.8330078
				c-6.6687012,0-14.267334,3.3920898-17.9816895,7.8330078h-0.2001953v-6.8330078H2v76h15.5v-28h0.1999512
				c4.208252,4.2358398,10.9216309,7,17.3151855,7l-4.625-13.8334961c-6.8239746,0-12.0568848-5.0107422-12.0568848-14.1665039
				C18.333252,824.2280273,23.0661621,818.8286133,30.2236328,818.8286133z"/>
			<path d="M19,956H2v76h18v-27h0.1999512c4.3625488,3.5625,10.9025879,6,16.6181641,6l-5.5498047-16
				C25.7687988,995,21,990.5566406,21,983c0-7.2236328,4.2687988-12,10.2683105-12C37.0280762,971,41,975.6074219,41,983
				c0,7.6923828-5.005127,12-9.7316895,12l5.5498047,16C49.2150879,1011,59,1000.3632813,59,983
				c0-17.8964844-9.2514648-28-22.1818848-28C30.642334,955,23,958.125,19.1999512,962H19V956z"/>
			<path d="M146.166748,216.1711426h-0.2001953c-3.3725586-6.7045898-10.796875-11.1665039-19.4362793-11.1665039
				c-15.1091309,0-24.5302734,9.8532715-24.5302734,27.166748c0,18.4741211,9.7045898,28.833252,23.6970215,28.833252
				l0.9250488-5.166748c-11.4677734,0-19.1220703-8.401123-19.1220703-23.6665039c0-14.0812988,7.4833984-22,19.9553223-22
				c11.7880859,0,18.3779297,7.8918457,18.3779297,22.833252c0,15.552002-7.0898438,22.833252-19.2111816,22.833252
				l-0.9250488,5.166748c9.1047363,0,16.5109863-4.0695801,20.1030273-11H146v32h5.5v-76h-5.333252V216.1711426z"/>
			<path d="M145.333252,365.3422852h-0.1999512c-3.4580078-6.1386719-10.9260254-10.3330078-19.0727539-10.3330078
				C111.387207,355.0092773,102,364.9125977,102,382.3427734c0,18.2519531,9.7207031,28.6665039,23.3937988,28.6665039
				l1.8500977-7.3334961C117.1245117,403.6757813,110,396.0932617,110,382.3427734c0-12.7436523,6.7810059-20,17.9106445-20
				c10.6303711,0,16.7558594,7.2685547,16.7558594,20.6665039c0,13.9526367-6.6254883,20.6665039-17.4226074,20.6665039
				l-1.8500977,7.3334961c8.427002,0,15.6601563-3.7431641,19.4060059-10H145v31h8v-76h-7.666748V365.3422852z"/>
			<path d="M144.5,514.5h-0.1999512c-3.543457-5.5727539-11.0551758-9.5-18.7092285-9.5C111.3532715,505,102,514.953125,102,532.5
				c0,18.0297852,9.7368164,28.5,23.0908203,28.5l2.7749023-9.5c-8.7712402,0-15.3657227-6.7636719-15.3657227-19
				c0-11.4057617,6.0786133-18,15.8657227-18C137.838623,514.5,143.5,521.1455078,143.5,533
				c0,12.3540039-6.161377,18.5-15.6342773,18.5l-2.7749023,9.5c7.7492676,0,14.809082-3.4165039,18.7092285-9H144v30h10.5v-76h-10
				V514.5z"/>
			<path d="M143.666748,663.6713867h-0.2001953c-3.6289063-5.0073242-11.184082-8.6669922-18.345459-8.6669922
				C111.3193359,655.0043945,102,665.0078125,102,682.6713867c0,17.8076172,9.7526855,28.3330078,22.7878418,28.3330078
				l3.6999512-11.6665039c-7.4230957,0-13.487793-5.9453125-13.487793-16.6665039c0-10.0678711,5.3764648-16,13.8210449-16
				c8.3151855,0,13.512207,6.0224609,13.512207,16.3330078c0,10.7548828-5.6972656,16.3334961-13.845459,16.3334961
				l-3.6999512,11.6665039c7.0712891,0,13.9577637-3.090332,18.012207-8H143v29h13v-76h-12.333252V663.6713867z"/>
			<path d="M142.8334961,812.8286133h-0.2001953c-3.7145996-4.440918-11.3132324-7.8330078-17.9816895-7.8330078
				C111.2854004,804.9956055,102,815.0488281,102,832.8286133c0,17.5854492,9.7687988,28.1669922,22.4848633,28.1669922
				l4.6247559-13.8334961c-6.074707,0-11.6096191-5.1264648-11.6096191-14.3334961c0-8.7299805,4.6740723-14,11.7763672-14
				c7.1574707,0,11.8903809,5.3994141,11.8903809,14.1669922c0,9.1557617-5.2331543,14.1665039-12.0571289,14.1665039
				l-4.6247559,13.8334961c6.3935547,0,13.1069336-2.7641602,17.3151855-7H142v28h15.5v-76h-14.6665039V812.8286133z"/>
			<path d="M142,962h-0.1999512c-3.8000488-3.875-11.4423828-7-17.6181641-7C111.2514648,955,102,965.1035156,102,983
				c0,17.3632813,9.7849121,28,22.1818848,28l5.5498047-16C125.005127,995,120,990.6923828,120,983
				c0-7.3925781,3.9719238-12,9.7316895-12C135.7312012,971,140,975.7763672,140,983c0,7.5566406-4.7687988,12-10.2683105,12
				l-5.5498047,16c5.7155762,0,12.2556152-2.4375,16.6181641-6H141v27h18v-76h-17V962z"/>
			<path d="M507.5,206.0046387H502v27c0,20.9523926,6.5244141,28,19.1972656,28
				c8.4257813,0,16.8754883-4.635498,20.6860352-11.166748H542v10.166748h5.3334961v-54h-5.5v30.333252
				c0,12.1760254-8.9570313,19.5-19.7114258,19.5c-10.265625,0-14.6220703-5.3989258-14.6220703-22.833252V206.0046387z"/>
			<path d="M510,356.0092773h-8v27c0,20.4746094,6.7695313,28,19.394043,28c7.887207,0,15.8144531-4.2709961,19.4726563-10.3334961
				H541v9.3334961h7.6665039v-54h-8v29.6665039c0,11.3857422-7.7856445,18-17.4223633,18
				c-9.230957,0-13.2441406-5.0410156-13.2441406-20.6665039V356.0092773z"/>
			<path d="M512.5,506H502v27c0,19.9970703,7.0151367,28,19.5908203,28c7.3481445,0,14.7529297-3.90625,18.2592773-9.5H540v8.5h10
				v-54h-10.5v29c0,10.5952148-6.6147461,16.5-15.1342773,16.5C516.1694336,551.5,512.5,546.8173828,512.5,533V506z"/>
			<path d="M515,656.0043945h-13v27c0,19.519043,7.2607422,28,19.7880859,28c6.809082,0,13.690918-3.5415039,17.0454102-8.6665039
				H539v7.6665039h12.3334961v-54h-13v28.3334961c0,9.8046875-5.4443359,15-12.8457031,15
				c-7.1621094,0-10.487793-4.3242188-10.487793-16.3334961V656.0043945z"/>
			<path d="M517.5,805.9956055H502v27c0,19.0410156,7.5058594,28,19.9848633,28
				c6.2700195,0,12.6298828-3.1772461,15.8320313-7.8334961H538v6.8334961h14.6665039v-54h-15.5v27.6665039
				c0,9.0141602-4.2729492,13.5-10.5566406,13.5c-6.1279297,0-9.1098633-3.9658203-9.1098633-14.1665039V805.9956055z"/>
			<path d="M502,983c0,18.5634766,7.7514648,28,20.1816406,28c5.730957,0,11.5683594-2.8125,14.6181641-7H537v6h17v-54h-18v27
				c0,8.2236328-3.1020508,12-8.2685547,12C522.6386719,995,520,991.3925781,520,983v-27h-18V983z"/>
			<polygon points="742.6831055,213.3378906 757.6748047,260.0046387 764.4584961,260.0046387 783.1665039,206.0046387 
				777.3666992,206.0046387 760.8417969,253.0878906 760.6416016,253.0878906 745.7998047,206.0046387 739.3666992,206.0046387 
				724.5249023,253.0878906 724.3251953,253.0878906 707.800293,206.0046387 702,206.0046387 720.7080078,260.0046387 
				727.4916992,260.0046387 742.4833984,213.3378906 "/>
			<polygon points="742.7666016,366.2758789 756.0200195,410.0092773 766.246582,410.0092773 783.3330078,356.0092773 
				774.8930664,356.0092773 760.5532227,400.4755859 760.3535156,400.4755859 747.4399414,356.0092773 737.8930664,356.0092773 
				724.9799805,400.4755859 724.7802734,400.4755859 710.4404297,356.0092773 702,356.0092773 719.0864258,410.0092773 
				729.3134766,410.0092773 742.5668945,366.2758789 "/>
			<polygon points="742.8500977,519.2001953 754.3652344,560 768.0351563,560 783.5,506 772.4199219,506 760.2651367,547.8500977 
				760.0649414,547.8500977 749.0800781,506 736.4199219,506 725.4350586,547.8500977 725.2348633,547.8500977 713.0800781,506 
				702,506 717.4648438,560 731.1347656,560 742.6499023,519.2001953 "/>
			<polygon points="742.9331055,672.1381836 752.7099609,710.0043945 769.8232422,710.0043945 783.6665039,656.0043945 
				769.9467773,656.0043945 759.9765625,695.237793 759.7768555,695.237793 750.7197266,656.0043945 734.9467773,656.0043945 
				725.8901367,695.237793 725.6899414,695.237793 715.7202148,656.0043945 702,656.0043945 715.8432617,710.0043945 
				732.956543,710.0043945 742.7333984,672.1381836 "/>
			<polygon points="743.0166016,825.0620117 751.0551758,859.9956055 771.6113281,859.9956055 783.8330078,805.9956055 
				767.4736328,805.9956055 759.6884766,842.6123047 759.4882813,842.6123047 752.3598633,805.9956055 733.4736328,805.9956055 
				726.3452148,842.6123047 726.1450195,842.6123047 718.3598633,805.9956055 702,805.9956055 714.2216797,859.9956055 
				734.7783203,859.9956055 742.8168945,825.0620117 "/>
			<polygon points="743.1000977,978 749.3999023,1010 773.3999023,1010 784,956 765,956 759.3999023,990 759.2001953,990 754,956 
				732,956 726.7998047,990 726.6000977,990 721,956 702,956 712.6000977,1010 736.6000977,1010 742.8999023,978 "/>
			<polygon points="632.0585938,260.0046387 655,206.0046387 649.0332031,206.0046387 628.6000977,254.5043945 
				628.3999023,254.5043945 607.9667969,206.0046387 602,206.0046387 624.9414063,260.0046387 "/>
			<polygon points="634.4467773,410.0092773 656,356.0092773 647.4267578,356.0092773 629.1000977,402.6088867 
				628.8999023,402.6088867 610.5732422,356.0092773 602,356.0092773 623.5532227,410.0092773 "/>
			<polygon points="636.8349609,560 657,506 645.8198242,506 629.6000977,550.7001953 629.3999023,550.7001953 613.1801758,506 
				602,506 622.1650391,560 "/>
			<polygon points="639.2236328,710.0043945 658,656.0043945 644.2133789,656.0043945 630.1000977,698.8046875 
				629.8999023,698.8046875 615.7866211,656.0043945 602,656.0043945 620.7763672,710.0043945 "/>
			<polygon points="641.6113281,859.9956055 659,805.9956055 642.6064453,805.9956055 630.6000977,846.8955078 
				630.3999023,846.8955078 618.3935547,805.9956055 602,805.9956055 619.3881836,859.9956055 "/>
			<polygon points="644,1010 660,956 641,956 631.1000977,995 630.8999023,995 621,956 602,956 618,1010 "/>
			<path d="M227.6665039,210.0046387c2.5209961,0,4.6103516,0.3139648,7.6669922,1.0998535l1.0830078-4.9331055
				c-3.7382813-0.864502-6.1459961-1.166748-9.0830078-1.166748c-8.9760742,0-16.5834961,4.75-19.8833008,12h-0.1166992v-11H202v54
				h5.5v-29.5C207.5,218.5786133,215.6552734,210.0046387,227.6665039,210.0046387z"/>
			<path d="M229.3334961,362.0092773c2.5161133,0,4.8212891,0.3842773,7.7333984,1.2001953l1.2666016-6.8666992
				c-3.8046875-0.9667969-6.4423828-1.3334961-9.6669922-1.3334961c-8.3266602,0-15.6040039,4.375-18.8662109,11h-0.1333008v-10H202
				v54h8v-29C210,369.6235352,217.3491211,362.0092773,229.3334961,362.0092773z"/>
			<path d="M231,514c2.5117188,0,5.0327148,0.4550781,7.7998047,1.2998047L240.25,506.5
				c-3.8706055-1.0683594-6.7382813-1.5-10.25-1.5c-7.6782227,0-14.625,4-17.8500977,10H212v-9h-10v54h10.5v-28.5
				C212.5,520.6547852,219.0429688,514,231,514z"/>
			<path d="M232.6665039,666.0043945c2.5073242,0,5.2441406,0.5258789,7.8666992,1.4003906l1.6333008-10.7333984
				c-3.9360352-1.1708984-7.0341797-1.6669922-10.8330078-1.6669922c-7.0292969,0-13.6459961,3.625-16.8334961,9h-0.1665039v-8H202
				v54h13v-28C215,671.7001953,220.7373047,666.0043945,232.6665039,666.0043945z"/>
			<path d="M234.3334961,817.9956055c2.5029297,0,5.4550781,0.5957031,7.9331055,1.5l1.8168945-12.6669922
				c-4.0024414-1.2729492-7.3305664-1.8330078-11.4169922-1.8330078c-6.3798828,0-12.6665039,3.25-15.8164063,8h-0.1835938v-7H202
				v54h15.5v-27.5C217.5,822.7314453,222.4311523,817.9956055,234.3334961,817.9956055z"/>
			<path d="M236,970c2.4985352,0,5.6665039,0.6665039,8,1.6000977L246,957c-4.0683594-1.375-7.6264648-2-12-2
				c-5.730957,0-11.6875,2.875-14.7998047,7H219v-6h-17v54h18v-27C220,973.7763672,224.125,970,236,970z"/>
			<path d="M344.1665039,211.0046387c-5.3129883-3.904541-12.2714844-6-20.25-6c-13.9790039,0-20.9165039,5.9206543-20.9165039,14
				c0,8.2314453,4.8193359,12.7961426,20.6166992,15.8000488c12.9638672,2.3862305,16.0498047,5.5791016,16.0498047,11.0998535
				c0,6.5822754-4.8271484,10.3498535-17.1333008,10.3498535c-7.3144531,0-14.1894531-2.7290039-19.0332031-7.2832031
				l-1.5,4.7001953c5.3442383,4.644043,12.9194336,7.333252,20.6665039,7.333252c15.5200195,0,22.5-5.6179199,22.5-15.1999512
				c0-7.9960938-4.4086914-12.8312988-21.1049805-15.9602051C311.7475586,227.5927734,308.5,224.4702148,308.5,218.9711914
				c0-5.4562988,5.1494141-9.2165527,15.5332031-9.2165527c7.487793,0,14.0498047,2.1633301,18.6333008,5.8666992
				L344.1665039,211.0046387z"/>
			<path d="M345.3334961,360.809082c-5.3759766-3.7338867-12.6811523-5.7998047-20.7001953-5.7998047
				c-14.4746094,0-21.6333008,6.0737305-21.6333008,14.5c0,8.4545898,4.8349609,13.1386719,21.2333984,16.3999023
				c11.4672852,2.1591797,14.0996094,4.9667969,14.0996094,9.7001953c0,5.6704102-4.2363281,8.8999023-15.4663086,8.8999023
				c-7.1352539,0-14.0541992-2.6459961-19.0668945-7.0668945L302,403.8427734
				c5.425293,4.4902344,13.3076172,7.1665039,21.1333008,7.1665039c15.9072266,0,23.2001953-5.7563477,23.2001953-15.6000977
				c0-8.2387695-4.4863281-13.1259766-21.7446289-16.4682617C313.8208008,376.9423828,311,374.2446289,311,369.4423828
				c0-4.6708984,4.5356445-7.9331055,13.8666992-7.9331055c7.1938477,0,13.7993164,2.0556641,18.6665039,5.6333008
				L345.3334961,360.809082z"/>
			<path d="M346.5,510.6000977C341.0610352,507.0371094,333.409668,505,325.3500977,505C310.3803711,505,303,511.2265625,303,520
				c0,8.6782227,4.8500977,13.480957,21.8500977,17C334.8212891,538.9321289,337,541.3540039,337,545.2998047
				c0,4.7597656-3.6459961,7.4501953-13.7998047,7.4501953c-6.9560547,0-13.9189453-2.5625-19.1000977-6.8500977L302,554
				c5.5063477,4.3364258,13.6958008,7,21.6000977,7C339.8950195,561,347.5,555.1054688,347.5,545
				c0-8.4814453-4.5639648-13.4208984-22.3833008-16.9760742C315.8935547,526.2783203,313.5,524.0048828,313.5,519.8999023
				c0-3.8862305,3.921875-6.6499023,12.2001953-6.6499023c6.8994141,0,13.5493164,1.9477539,18.699707,5.3999023L346.5,510.6000977z
				"/>
			<path d="M347.6665039,660.4047852c-5.5019531-3.3925781-13.4995117-5.4003906-21.5996094-5.4003906
				c-15.465332,0-23.0668945,6.3798828-23.0668945,15.5c0,8.9013672,4.8652344,13.8237305,22.4667969,17.6000977
				c8.4746094,1.7050781,10.199707,3.7412109,10.199707,6.8999023c0,3.8486328-3.0556641,6-12.1333008,6
				c-6.7758789,0-13.7832031-2.4790039-19.1333008-6.6333008L302,704.1713867
				c5.5878906,4.1826172,14.0834961,6.8330078,22.0668945,6.8330078c16.6821289,0,24.5996094-6.0327148,24.5996094-16.3999023
				c0-8.7236328-4.6411133-13.7158203-23.0219727-17.4838867C317.9667969,675.6279297,316,673.7792969,316,670.3710938
				c0-3.1010742,3.3081055-5.3666992,10.5332031-5.3666992c6.605957,0,13.2998047,1.840332,18.7333984,5.1669922
				L347.6665039,660.4047852z"/>
			<path d="M348.8334961,810.1953125c-5.5654297-3.2216797-13.9091797-5.199707-22.050293-5.199707
				c-15.9604492,0-23.7832031,6.5327148-23.7832031,16c0,9.1245117,4.8803711,14.1660156,23.0834961,18.199707
				c6.9785156,1.4785156,8.25,3.1289063,8.25,5.5c0,2.9370117-2.465332,4.550293-10.4667969,4.550293
				c-6.5966797,0-13.6479492-2.3959961-19.1665039-6.4169922l-2.7001953,11.5
				c5.6689453,4.0288086,14.4716797,6.6669922,22.5332031,6.6669922c17.0703125,0,25.300293-6.1713867,25.300293-16.800293
				c0-8.9663086-4.7192383-14.0107422-23.6611328-17.9916992c-6.1328125-1.2397461-7.6723633-2.6640625-7.6723633-5.375
				c0-2.3164063,2.6938477-4.0830078,8.8666992-4.0830078c6.3120117,0,13.0498047,1.7324219,18.7666016,4.9331055
				L348.8334961,810.1953125z"/>
			<path d="M347,973.2001953L350,960c-5.6279297-3.0512695-14.3183594-5-22.5-5c-16.4560547,0-24.5,6.6855469-24.5,16.5
				c0,9.3481445,4.8959961,14.5083008,23.7001953,18.7998047C332.1826172,991.5512695,333,992.815918,333,994.3999023
				c0,2.0258789-1.8745117,3.1000977-8.7998047,3.1000977c-6.4174805,0-13.5126953-2.3125-19.2001953-6.2001953L302,1004.5
				c5.75,3.875,14.8598633,6.5,23,6.5c17.4575195,0,26-6.309082,26-17.2001953c0-9.2089844-4.7963867-14.3051758-24.2998047-18.5
				c-4.5874023-0.9863281-5.7001953-1.9858398-5.7001953-4c0-1.53125,2.0800781-2.7998047,7.2001953-2.7998047
				C334.2177734,968.5,341,970.125,347,973.2001953z"/>
			<path d="M420,188.0046387h-5.5v18H402v4.666748h12.5v30.6665039c0,15.057373,4.4628906,19.666748,15.5,19.666748
				c4.5361328,0,7.75-0.604248,11.5-2l-0.9501953-4.8166504c-3.4589844,1.3745117-6.659668,1.9831543-10.3833008,1.9831543
				c-7.4707031,0-10.1665039-2.3330078-10.1665039-14.833252v-30.6665039h21.5v-4.666748H420V188.0046387z"/>
			<path d="M422,338.0092773h-8v18h-12v6.3334961h12v28.3330078c0,15.2763672,5.0639648,20.3334961,17,20.3334961
				c4.7539063,0,8.0625-0.5834961,12-2l-1.1000977-6.7333984c-3.5649414,1.4545898-6.737793,2.0664063-10.5664063,2.0664063
				c-6.9643555,0-9.3334961-2.0874023-9.3334961-13.6665039v-28.3330078h21v-6.3334961h-21V338.0092773z"/>
			<path d="M424,488h-10.5v18H402v8h11.5v26c0,15.4956055,5.6650391,21,18.5,21c4.9716797,0,8.375-0.5625,12.5-2l-1.25-8.6499023
				C439.5795898,551.8847656,436.434082,552.5,432.5,552.5c-6.4575195,0-8.5-1.8417969-8.5-12.5v-26h20.5v-8H424V488z"/>
			<path d="M426,638.0043945h-13v18h-11v9.6669922h11v23.6665039c0,15.7143555,6.2661133,21.6665039,20,21.6665039
				c5.1894531,0,8.6875-0.5415039,13-2l-1.3999023-10.5664063c-3.7763672,1.6147461-6.894043,2.2333984-10.9335938,2.2333984
				c-5.9506836,0-7.6665039-1.5966797-7.6665039-11.3334961v-23.6665039h20v-9.6669922h-20V638.0043945z"/>
			<path d="M428,787.9956055h-15.5v18H402v11.3330078h10.5v21.3334961c0,15.9331055,6.8671875,22.3334961,21.5,22.3334961
				c5.4072266,0,9-0.5209961,13.5-2l-1.550293-12.4833984c-3.8818359,1.6948242-6.9716797,2.3164063-11.1162109,2.3164063
				c-5.4443359,0-6.8334961-1.3505859-6.8334961-10.1665039v-21.3334961h19.5v-11.3330078H428V787.9956055z"/>
			<path d="M430,938h-18v18h-10v13h10v19c0,16.1523438,7.4682617,23,23,23c5.625,0,9.3125-0.5,14-2l-1.7001953-14.3999023
				C443.3125,996.375,440.25,997,436,997c-4.9375,0-6-1.1049805-6-9v-19h19v-13h-19V938z"/>
		</g>
	</svg>
