<?xml version="1.0" encoding="utf-8"?>
<!-- Generator: Adobe Illustrator 11.0, SVG Export Plug-In . SVG Version: 6.0.0 Build 78)  -->
<!DOCTYPE svg PUBLIC "-//W3C//DTD SVG 1.0//EN"    "http://www.w3.org/TR/2001/REC-SVG-20010904/DTD/svg10.dtd" [
	<!ENTITY ns_flows "http://ns.adobe.com/Flows/1.0/">
	<!ENTITY ns_svg "http://www.w3.org/2000/svg">
	<!ENTITY ns_xlink "http://www.w3.org/1999/xlink">
]>
<svg  xmlns="&ns_svg;" xmlns:xlink="&ns_xlink;" xmlns:a="http://ns.adobe.com/AdobeSVGViewerExtensions/3.0/"
	 width="700" height="1050" viewBox="0 0 700 1050" overflow="visible" enable-background="new 0 0 700 1050" xml:space="preserve">
	<metadata>
<?xpacket begin='﻿' id='W5M0MpCehiHzreSzNTczkc9d'?><x:xmpmeta xmlns:x='adobe:ns:meta/' x:xmptk='XMP toolkit 3.0-29, framework 1.6'>
<rdf:RDF xmlns:rdf='http://www.w3.org/1999/02/22-rdf-syntax-ns#' xmlns:iX='http://ns.adobe.com/iX/1.0/'>

 <rdf:Description rdf:about=''
  xmlns:pdf='http://ns.adobe.com/pdf/1.3/'>
 </rdf:Description>

 <rdf:Description rdf:about=''
  xmlns:tiff='http://ns.adobe.com/tiff/1.0/'>
 </rdf:Description>

 <rdf:Description rdf:about=''
  xmlns:xap='http://ns.adobe.com/xap/1.0/'
  xmlns:xapGImg='http://ns.adobe.com/xap/1.0/g/img/'>
  <xap:CreateDate>2005-10-18T08:32:24Z</xap:CreateDate>
  <xap:ModifyDate>2005-10-18T08:32:24Z</xap:ModifyDate>
  <xap:CreatorTool>Illustrator</xap:CreatorTool>
  <xap:Thumbnails>
   <rdf:Alt>
    <rdf:li rdf:parseType='Resource'>
     <xapGImg:format>JPEG</xapGImg:format>
     <xapGImg:width>172</xapGImg:width>
     <xapGImg:height>256</xapGImg:height>
     <xapGImg:image>/9j/4AAQSkZJRgABAgEASABIAAD/7QAsUGhvdG9zaG9wIDMuMAA4QklNA+0AAAAAABAASAAAAAEA&#xA;AQBIAAAAAQAB/+4ADkFkb2JlAGTAAAAAAf/bAIQABgQEBAUEBgUFBgkGBQYJCwgGBggLDAoKCwoK&#xA;DBAMDAwMDAwQDA4PEA8ODBMTFBQTExwbGxscHx8fHx8fHx8fHwEHBwcNDA0YEBAYGhURFRofHx8f&#xA;Hx8fHx8fHx8fHx8fHx8fHx8fHx8fHx8fHx8fHx8fHx8fHx8fHx8fHx8fHx8f/8AAEQgBAACsAwER&#xA;AAIRAQMRAf/EAaIAAAAHAQEBAQEAAAAAAAAAAAQFAwIGAQAHCAkKCwEAAgIDAQEBAQEAAAAAAAAA&#xA;AQACAwQFBgcICQoLEAACAQMDAgQCBgcDBAIGAnMBAgMRBAAFIRIxQVEGE2EicYEUMpGhBxWxQiPB&#xA;UtHhMxZi8CRygvElQzRTkqKyY3PCNUQnk6OzNhdUZHTD0uIIJoMJChgZhJRFRqS0VtNVKBry4/PE&#xA;1OT0ZXWFlaW1xdXl9WZ2hpamtsbW5vY3R1dnd4eXp7fH1+f3OEhYaHiImKi4yNjo+Ck5SVlpeYmZ&#xA;qbnJ2en5KjpKWmp6ipqqusra6voRAAICAQIDBQUEBQYECAMDbQEAAhEDBCESMUEFURNhIgZxgZEy&#xA;obHwFMHR4SNCFVJicvEzJDRDghaSUyWiY7LCB3PSNeJEgxdUkwgJChgZJjZFGidkdFU38qOzwygp&#xA;0+PzhJSktMTU5PRldYWVpbXF1eX1RlZmdoaWprbG1ub2R1dnd4eXp7fH1+f3OEhYaHiImKi4yNjo&#xA;+DlJWWl5iZmpucnZ6fkqOkpaanqKmqq6ytrq+v/aAAwDAQACEQMRAD8A9U4q7FXYq7FXYq7FXYq7&#xA;FXYql+t+YdD0K0W71m/g0+2dxFHLcSLGGkYEhF5H4moCaDsMVRlvcQXNvFcQOJYJkWSKRTVWRxVW&#xA;B8CDiqpiqlDdW00k8cUivJbOIrhVNSjlFkCt4HhIrfIjFVXFXYqlT+a/LUeuLoMmp20etOKx6e8q&#xA;rM1V50VCQWPD4qDtviqa4q7FXYq7FXYq7FUt0bzDpurvfQ2xdLrTbhrS+tZlKSxSLupZT+xIhDow&#xA;2ZTUYq6x8w6bf6xqGlWjNNPpfpi+lVf3McsoLCH1OhlCUZlH2QVr1GKpliqA0fW7HVo7l7Qtys7m&#xA;ayuopF4vHNA3FlYe4o6nupBGxxV02t2MWuWuiEs1/dW812iKKqsMDRozO37NWmUL47+BxVH4qxq7&#xA;87/Vrqa3/QGszejI0frQ2nKN+JI5I3MVU0qDiqI8q+cdN8y/pAWcF1bvpk/1W7juovSKzcA5QULA&#xA;lQw5b7d8VT3FWJ64qN+ZHlQOAxSz1aSMHejD6onIeB4uwr4E+OKssxV2Ksf8s/8AHa82/wDbVi/7&#xA;pVjirIMVdirFPzLVf0Dp8tB6kWu6CYn7qX1i1iYj5xyMvyOKsrxV2KuxV2KuxV2KvMfzQGsR69bS&#xA;eRa/48a0kF0EVGiOmAPRroOVTms3+8nLrJUf3fqYqyz8vk8tr5Tsv8PF209g5d56/WWuC5+sG65U&#xA;f6x6vL1eW/OuKsixVhd+W8ufmDbaiKjSPNgSxvv5YtTgQ/VJT4evCrQsf5ljHfFVXyQBq2qa35uf&#xA;4o9Qn/R+ktttp+ns8asp8JrlppQe6lPDFWX4qxTzhruptdweVvLrhfMGpIZJbwgMmn2VeL3cgOxc&#xA;n4IEP2n/AMlWxVO9A0HTdB0i30rTYzHaWykLyJZ3ZiWeSRzu8kjks7HcsScVTDFWDnTpdO/Nu0vJ&#xA;bua+XWdMvY4I7gg/Uvq01s7JbcAgEc/qAycgWqifFTbFWcYq7FWP+Wf+O15t/wC2rF/3SrHFWQYq&#xA;7FWIfmvEbjyRcWS8VfULzTbCOc1Jge91G3tkuU4lT6kDSiWPf7SjFWTabZyWVhBayXU168KhWu7k&#xA;oZpCP2nMaxpX5KMVROKsf1nyzqWq6p68mvXtjpyQhILDTylufVJbnLLMQ8j7cQijiooahq7KpU0H&#xA;5s2ltJpVrLpmo1qtr5jvJJIriND0aexhg9KaRK7cJY1fuE7qszjDiNRI3NwAGcCgJpuab0xVdiqU&#xA;6D5asNGe+nheS5vtTnNzf39yVaeVvsxqzKqKEiSiRooAVR41JVbsPLdjp+uahq1nJLC2qBGvbJWH&#xA;1Z54xxFyEK1WVkojlWAYAVBIriqa4q8+/M3W9D1jQJvKmmXsF55g1e4XT7GC2mV57W5ilDPdsI25&#xA;x/UeBmY7UZQOpGKs20jSrLSNKs9KsI/SsrCCO2tox+zHEoRB9wxVF4qwyL8uLq21bVdTsPNus2U2&#xA;sXBubtUTSpQCBxjjR7iwmlEcSDiilzQe5JKrIdD0m/06KVLzWrzWmkYMkt8lmjRgCnFfqdvaLQ/5&#xA;QJxVMsVYv5pstZj8w6Fr2m2Lammnrd2t3ZRSRRTeneCI+rGZmjjbg1uAVLivLrtirJYZGkhjkeNo&#xA;XdQzRPxLISKlW4FlqOhoSPfFV+KpbpWlSWV/rNy0gddTvEu41AIKKtnb23E+9bcn6cVTLFXYqxTz&#xA;fba5rNzYaLa6Y6WEeo2F/e6vLLAsIjsLqK9CRRq7zs7yQLH8UajcmuKsrxV2KuxV2KuxV2KuxV2K&#xA;uxVDxadp8V1JdxW0Ud3MKS3CoqyOOtGcDkenfFURirsVdirsVdirsVdirsVdirsVdirsVdirsVdi&#xA;rsVdirsVdirsVdirsVdirsVdirsVdirCvzA81eZ9O1by75e8sQWbax5hmuQt3qQka2ghs4fWlZo4&#xA;WjkdmqAoDD3xVleljVBp1sNVeB9SEa/XHtVdIDLT4jGsjO4WvQMxOKorFWL+WvNGoap5w836LcRx&#xA;La+X7mygs3jDCR1ubGK5cykswJDyEDiBt9+KsoxV2KvPvP8A5t87+UtQttYZdMufJsl7Z2Vzb8Lh&#xA;NRjW7kWBpVlDtC3CR68fT3XvXFXoOKuxV2KuxV2KuxV5rceetS8j+bbrT/PV+H8r6sZLny75ilSO&#xA;JIGROcunXJiVFDKqloXIq4qKlsVTD8uNZ83eZ57zzXqLtYeWb9QnlvQmijEpt1NRfXEhX1RJP+xG&#xA;G4qlNiTXFWdYqwTyf5m1yPz55l8m+YrkXN1AV1by/clI4zLpVyeHp8Y1UE2symMsRU1FcVXQeZdb&#xA;1X83bjQtOuPT8v8AlvTlk1xQkbGa/vzW2hLMpdRFAhk+Bh9oBu2Ks5xV535p0Pzhp0Wqa7c/mVda&#xA;RosBlumjOnaY8dtBUsIw8kDSPwX4RUlm9ziqn+SNx+Ymo6Lea55u1Oa9sdTkR/LtrdW1tbXMVmvL&#xA;jNMLaOJeVwGVuBrxAG+5xV6RiryzUfMFh5i/PXy9pGl8nn8pW2pXOtNKrQhPrcSW8SxCQKZqtuWS&#xA;qjxxV6nirsVYB5E/8mZ+Zn/Mdpf/AHSbfFWf4q7FXnn5+WU1x+WOoXEXE/oyez1KVWZU5Q2d1HNK&#xA;AzlV5emjECu5274qzDyz5k0nzLoVprmkSPLp16pe3kkikhYhWKGscqo4+JT236ioocVTPFWLea/z&#xA;N8neVr6HTtUupG1OeMzx6fZ2895ceiCQZWjt0kZU2PxNQYqmWj+b/LGs+X/8Q6bqUE+i8Hke+5cI&#xA;0WMVk9TnxMZSnxBwCO+Kpnb3EFzbxXNvIssEyLJDKhqrI4qrKR1BBxVUxV5D5k0K4/ODWrvRbxbi&#xA;y/LvRJHilmUGGbU9RClQ0LMK/V7UtUN0d/5lxVkX5ca95jgubryV5tV5Ne0ZFa01fgfR1OwJ4xXK&#xA;tTisy04zJWvLcVB2VZ5irzX86Le40e20r8xtOhMuoeT5jNewoQGn0q4Hp30O9ASq0kTl0K4qjfyW&#xA;0i+t/J513VU4a55ruJNc1IHcobuhghFdwsVuI1C9jXFWe4q8I83ecdC81/mHLovmZ7mw8keV56yW&#xA;TWl3J+ltRiYgF/SicfVbdl2B+22+46KvXPLXnLy55kFwNGuHnFpw9cPb3Fvx9Tlwp68cfL7B+z0x&#xA;VO8Vee+coox+b/5dTBQJSmtRs42JT6ojcT4jkK4q9CxV2KsA8if+TM/Mz/mO0v8A7pNvirP8Vdir&#xA;zX/nIUc/y3eEjlHPqelRyxkVV0a/hqrDuDTpir0oAAUGwHQYq7FVBLGyS9kvkt41vZo0hlugiiV4&#xA;4yzIjPTkVUyMQO1TirENX/Jb8sNX1WfVL/Qo5Lq6kWa7RJriKCeRTXnPbRSJBKxO5Loa98VZpHHH&#xA;FGscahI0AVEUAKqgUAAHQDFV2KuxV2KuxV5x5t8o/mH5ynbQNZk0qz8kSXgmvGs5Ll7+7s4ZBJDa&#xA;yI8aRReoVHqssh9sVejgBQABQDYAdAMVdirsVdirsVSDzb5I0TzQlidQNxBd6ZMbjTr+ynktrmCR&#xA;lKPwljINHQlWU7EYqm+nWQsbGCzE01wLdFjE9w5lmfiKcpHO7Me5xVEYqh4NO0+3urm7t7aKG6vW&#xA;R7yeNFWSZo0EaNKwALlUUKOXQbYqiMVdirF9a/LrQtb1+11jVZ766+pTw3drpj3UosEuLcfupfqw&#xA;IQsp3374qyjFXYq7FXYq7FXYq7FXYq7FXYq7FXYq7FXYq7FUPf6jp+n2zXV/cxWlsn2553WKMfNn&#xA;IAxVuxv7G/tY7uxuIru0lBMVxA6yRuAaEq6kqdx2xVXxVDw6jp893c2cFzFLeWfD63bI6tJD6q8o&#xA;/UQHknNd1r1GKojFXYqgG8waCmqfoltStV1Q0P1Azxi4owqP3XLnuD4Yqj8VdirsVdirsVdiqW6T&#xA;5m8v6xcXttpeo295c6bJ6GoQQyK0kElSOEqD4kNVPXwxV0fmby/Lr0vl+LUbeTXLeITz6akitPHE&#xA;aUd0G6g816+I8cVTLFUv0nzFoWry3sWl38F5Lp0zW1/HC4doZl2aOQDdWFOhxV1z5i0K11i00W4v&#xA;4ItXv1d7KwZwJ5UjBZ2RPtEKFJJ9sVTDFWI335vflfYXtxY3vmnTLe8tJHgubeS5jV45Y2KujKTs&#xA;VYEEYqmXlzzz5O8zPPH5e1m01V7UK1wtpKspQPUKW4k0rxOKp5irx/8AOzSrDWvzA/LDRdUhF3pN&#xA;3qN9JdWUm8UrQWoePmnRqGvXsSO+KvV9N0zTdLsYrDTLSGxsYARBaW0aQxICSxCRoFVdyTsMVROK&#xA;vKvy7/8AJ7fm5/4Lv/dPfFXquKuxV4d/zlT5b8v2/wCXt55ug063i8zWN3Yy2+sRxql0GWdI15TK&#xA;A7ALsATtir3HFXYq7FXYq7FXYq+ff+cgLh/y+80aV+YHlC4SHzdqhewv9D4PKmpW6xk+q0Ue/KAh&#xA;fi+W+1CqzH/nHry9o1t5Ij8zwX661rnmk/X9c1n9uS4YnlBvuqwMWTj41NB0xV6jirxfVl/5V9+f&#xA;tlrC/uvLn5ixrp+odkj1a3H+jv7eqp4jxLMcVb/LJf8AGX5x+cPzAkHqaZo5Hlry853WkB53UiH3&#xA;c1Ujs5GKvZ8VeU/nL5p8veVrWDT9J0Ky1fz55hkMWi6cbeKR2lkNGuZvhrwQmpLH4j3pyIVTb8mv&#xA;yps/IHl+RZnW78yaq/1nXdSoAZJmq3ppsP3cZY8fE1O1aBV6Birw7zJYa9Zf85F+Tr7zLd/pXRb7&#xA;9IxeVYIQsH6PnEAaQzKFPrc02Dcvf9mhVe44q7FXlX5d/wDk9vzc/wDBd/7p74q9VxV2KvMP+clr&#xA;jSIPyX8wtqls13C6wxwRo/pstw86CGTlRv7t6MRTcDj3xVlf5eaZ5y03ypZ2nnDU49W11F/0i7iQ&#xA;ItKCibBeZXoXoOXXFWSYq8+89W35z6l5gWx8nXun6FokFos0mq3UX1qae6d3X6usRBCKiorM1P2h&#xA;Su4CrE7f81fzo0FJtB8xfl/d635gjXhYazowZ9MunOyPM5UCBf5iT/sVxV7Dosuqy6PYy6vDHbat&#xA;JbxNqFvC3OKO4KAyojb1VXqAcVRmKsF8vflf9T8+6n551/U/05rtyv1fSSYPQh06z3/cwRmSb4mr&#xA;8UlQTvsOTVVd5O/K/wDwf5t1jUtC1P6v5Z1o/WJ/LBgrFDeGnKe3lEg9MMPtJ6dPegWirOsVeO/8&#xA;5M6r5Yn/ACtvrSS6SbWvrdvHocFrIrXS6lHMAvphSWDqvMN3pUdSMVZp+U3kpfJf5e6L5eIAuraA&#xA;PfsDXldTEyzmvcCRyB7AYqy7FXjVz+RnncfmLqnnrT/PaQapfl4rX6xpEV2bS0Zv3dvCZLgKOCUU&#xA;sqgtuT9o1VZ95N0Lz1pct03mfzTH5jjlVBaomnRaf6JUnmSY5JefKo69KYqyfFXk352DVdO80eQP&#xA;NlvpV5qum6Df3X6Uj0+JrieOO7gESyeklWKrQk/d3GKvSfL+t2+uaPbarbQ3FvBdKWSG7ia3nXix&#xA;X44noy/Z74qmGKsF8oeUNZ0v80fzA8x3axjTPMX6I/RrK4Zz9RtGhm5r+z8bbeOKs6xV2KvEP+cj&#xA;NTvPMmhXH5caJo2qXutX9zZf6VFaSGyjj9RZmka5p6dFAo2+3fpir2/FXYq7FXYq7FXYq7FXYq7F&#xA;WJwflR+XMHmhvNMWgWi6+8rXDX3ElvWdizS8SSgkLMTz4198VZZirsVdirsVdirsVdirsVdirsVd&#xA;irsVdirsVdirsVdirsVdirsVdirsVdirsVdirsVdirzz83/zWufIcWh2um6Qdb1zzFeCx02y9UQI&#xA;XJVfikIbctIqgbdak7YqyvynfeZb7RIbnzJpcej6szOJrCKdbpEUMQhEqgA8lofbFU4xVg+gfmPP&#xA;qv5q+aPIzWKxReXbe0nS+EhZpjdQxykGPiAvH1afaOKs4xV2KvJ/zZ/N3zr+Xty2oy+Uk1DybHJB&#xA;E+rx3qJMDKBy/wBH4swo1VBOxNNxXFXqsEyTwRzR/YlUOtdjRhUYqvxV2KuxV2KuxV5JL+cmr+W/&#xA;zVk8nee7W007RtRRpfLevQl0hlAJok5kdlVqfCelGp2YHFVf8sPzX8xfmH5s1ibStOgg/L/THNvb&#xA;atKJfrN3OANo/iCBf2zVahSo6nZV6pirzDyn+autXX5veYfy78x2dtaTWcf1vQbmDmPrNtXl8fNn&#xA;Bf05FPw9Cr4q65/NXWbn88rf8utFtLafT7Sz+ua/fSc2lgqpcIgVlXfnEPiH7Xtir0/FXkvmbzP/&#xA;AM5Cabd6rc2uieXV8vWck8lvfXd1LGws4mYpLN+8CqfSAZvDFUN+QH5v+d/zIfVrnV9ItbPRrHjF&#xA;bX9oJQstwTVkHqu3LilCaDaor1xV7Hir58/OHW9N81fnP+W/lnQZTf6r5f1j69rUUKsRbRQywSN6&#xA;jUoPhiY+23iMVfQeKuxV4r5E/wDWoPzM/wCYHS/+oW3xV7VirsVeVf8AOUGl6hqP5La5FYwPcywt&#xA;bXEkcYLMIorhGkeg3oigsfACuKsu/Lfzp5e83+UrLVdDulubdI44LkAENDcLEjvC4IHxIHFcVZPi&#xA;qR+aPPHlDyrDFN5i1e10tJyRALiQK7068E+01O9BtiqYaRrWkazp0WpaTewX+nzAmK7tpFliahoa&#xA;MpI2Ox8MVRMM0M8Mc8EiywyqHilQhlZWFVZWGxBHQ4qvxV83fnfcz/m75ztPys8qRQSnRpWvNe1+&#xA;ReaWjKpQwow36tRwNy1B+y2Ksk/5xx85LaWE/wCVmvWcekebPKvOI2qgKl1By5evHT7TfHViPtAh&#xA;x1NFXtuKvCv+ckdLvPL+o+WPza0iJmvfK91HBqqpsZbCZ6cWPYcnaP8A56e2Kt/84vaTeanbeZPz&#xA;M1VCNS8338rW3LfhaQu2yHrxMhZKeCLir3TFXyr+eH5qWHnbzyPyyTWo/L/lHT7hk80avOeBmlt3&#xA;pJDGKEsI2Xio/afc/CtcVe6flj5k/K6fSovLfkPUbW5tNHgUfVrYklEJ+25IFWdySzdya4qzbFXz&#xA;9+duj6ZoH5w/lh5i0a2Sw1bV9aFnqlxbj0zcxSy28betwpzbhKwqeoO9cVfQOKuxV4r5E/8AWoPz&#xA;M/5gdL/6hbfFXtWKuxV5N/zlPeXVr+SeuG3laIzPawyFDQtHJcIHQkdmGx8RirOPIHlTQPK/lSw0&#xA;vRLKKythDHJKIlCmWYxqrTSt1eRgoqzEn7sVZDirC/Mn5PeQfM3mn/EnmDThqd6tmthHBcMWt0jV&#xA;3fmI9vjPqUr27UO+KvPL/wD5xVs4r68Tyr5v1Ty15d1LbUNBtmeSJ0NAyK5lXYgftq/h02xV7N5c&#xA;0DT/AC9oOn6HpwcWOmwJbW3quZH4RrxHJj1P+Y2xVMcVQWm6FomltO2mafbWLXLBrlraGOEyMK0L&#xA;8AvI/EeuKuk0LRJNUj1aTT7Z9ViXjFqDQxm4VaFaLKRzAoxHXviqNxV4N+a1v+e/nkX/AJDs/LEG&#xA;k+Xb294SeZWu4ZFk0+KWqMYlb1EL8FZlHxU+GgqcVezeWPL2n+XPLunaDp68bPTbeO2h7EiNQOTf&#xA;5TH4m98VTPFUjuPInki5uJbm58vaZPcTu0k00lnbu7u55MzMyEliTUk4qitK8s+XNIkkk0nSrPT5&#xA;JQFle0t4oGZQagMY1WoxVMsVYB+bf5Tx/mBbaRJBq02h6zoN0LzS9ShjE3pyfCd4y0dfijVgeQoR&#xA;irJPJuj6/o+gQWGva23mHU42cy6o8CWpkDOWUekjOo4KePXfFU7xVJbDyZ5asPNGp+abSz9PXdYj&#xA;ii1G89SVvVSBFSMemzmNeKoo+FR74qnWKuxV5T+Z/wCSvmD8wNUeK/8AOdxaeUZJIZX8uQ2cZPKF&#xA;aEi6MnKrNVviQgeGKvU4YUhhjhjFI41CIOuyigxVfirsVdirsVdirsVdirsVdirsVdirsVdirsVd&#xA;irsVdirsVdirsVdirsVdirsVdirsVdiqlFeWkztHDPHI6/aRGViO24BxVxu7UTi3M0YnPSLkOfSv&#xA;2a1xVVxVSiurWV2jimSR0+2isGK9twDtirpLu1jlWGSaNJXpwjZgGNTQUBNTU4qq4qhn1PTUdke7&#xA;hV1JDKZEBBGxBBOKr4L6yncpBcRyuBUqjqxp0rQHFVbFXzr/AM5hSXdxb+StDFzLDp+rajJHexRN&#xA;xD0MKoSOh4eoxFe+KvZfy/8Ay+8u+Q9CbQ9ASVLFpnuSJ5DK/qSKqseRA7IMVZLir518s/8AraXm&#xA;z/tlRf8AUHY4q+isVdir5r/5y1/Lby7baHc/mJbNcQ+ZTdWcJmSUiPgF9MUSnwkBQag9cVe9eR7u&#xA;5vPJXl+7upGmubjTbSWeZzVnkeBGZmPiSa4qnWKuxV2KuxV2Kvl78+NEvfym8+af+bHk+WG3Gpzt&#xA;baxpDtxSeWRS8h4AgskqrV6fZcBu+yqc/wDOMfkibXLi9/N/zPcx6l5h1mWZdPIYP9WQExysQCQj&#xA;sBwVf2I9v2qBV9EYq+Y9cg/5VZ/zlJp+soPR8u+eg0VyeiCa4dVmqTsON16czHsrYq15Pi/5WT/z&#xA;lRrPmN/32ieTV9G0PVDJBWCEAg9Gm9WdT7Yq+ncVfMX/ADkF+W/5H+ULLUvM+q291deZtduLi4st&#xA;PW7ZBNdTuZJHKgfDEjPVvoUbnFUz/wCcTfyZ1PyzaTedtb522o6va/VrHTiKGO0kdJTJMCK85DEp&#xA;Vey9dzRVX0Vir5S/OefzLdfnv5TtPP6tZeR49Sr5eltVjYSr6kXJpiH5A8/TWQndU3Vd91X1birs&#xA;VfOvln/1tLzZ/wBsqL/qDscVfRWKuxV5b/zk1D5fl/JvW/01LLDEnotZvAqtJ9bEqiEBWKgqWNH3&#xA;+zUjfFVD/nGm8/MO5/LiyPm6BIrSOC3Ty7KOAllsBEPTeUIzfs8eJYAkbmvXFXrOKvIvzY/NH8zN&#xA;G82WnlPyB5VXWtTls/0jPeXQdrdYebx8QEkgAIKdWkG5AANcVYjov/OX1hp9ne2Pn/QLvSPNOn8l&#xA;eytoj6czj7K8ZmDwtv8AtchTfl2xV7b5C8zT+aPJukeYJ7J9Om1K2SeSzkrVC3hyCkqeqmm6kHFU&#xA;+xV4Xqv5LebvPf5sp5j/ADBa0byhpYddG0K3leXkob4BMCiKOf25aE1oF+yMVRH5W/lJ57/Lbz7q&#xA;cGkXNveflvqchkW0mmcXVuxWqOqFCrMh/dt8XxrQncAYq9sxV4Z/zlzaeWr78qXvbm7ij1PTL6I6&#xA;SVYF3uCwjmgFDX+7ZnYduIxVH/8AOKnkhvLn5XW+o3KFdR8xyHUZy32vRYcbZfkYx6n+zxV7Jir5&#xA;b89fkN+d3mD80bvzibjSL+KC8d9Ft7+V3jjtIpGNrG8Ii4fApBZehapNamqr1v8ALa3/AD4j12dv&#xA;zAudJm0Y2ri3XTgRL9a9SPgWqifD6fP6aYq9JxV84/8AOYcws28hanMjfU7PU5XuJVUkLT0Xp8ys&#xA;bUHtir3Tyj508s+cNJ/S/ly+XUNO9RoTOqSR0kUBmUrKqNUBh2xVOsVeF+X/ACp5lh/5yx8y+Y5d&#xA;MuU0G502OK31No2Fu7i1s1KrJTiTyjYfQcVe6Yq7FXzp/wA5eefvKR8l3Pk1b8N5kF1azPp4STks&#xA;dDJzZ+Pp04kftV3xV7d5Chmg8jeXYZkaOaLTLNJI2BDKy26AqQehBxVPcVdQVJpudie9BiqXX/lv&#xA;y7qN3HeahpdneXcNBFcXEEUsiAGo4u6lhv4YqmOKuxV2KuxV2KvI9T/5xe/K3VfNl15m1GO9urq9&#xA;u3vbq0kuP9GeSRy7KVCh+HI/Z5+3TFXrUUUUUSRRIscUahY41AVVVRQAAbAAYquxV2KuxV2KqF9p&#xA;9hqFs9rf20V3ayfbgnRZI2+auCDiqnpmkaTpVsbXS7KCwtixcwW0SQpyNAW4oFFTTriqLxV2KuxV&#xA;2KpZc+V/LV1qI1O50myn1EUpeyW8Tz/CKL+8ZS+w2G+KpnirsVdirsVdirsVdirsVdirsVdirsVd&#xA;irsVdirz784/zk0b8sdIsr2+s5tQudRleK0tIWVK+moZ2eRqhQOSjoTviqM/Kr8xb7z3olzqd35f&#xA;uvLxhn9GK3vORaVDGriVC0cXwnlTpirNcVeaQ/nVayfnXP8Ald+iXE8KB/0p6w4Gtmt3T0uFej8f&#xA;te+KvS8Vdirxr80f+cipPy+8yTaZe+Ur670uIwga0jmOB2mjEnBC0RQsu4pz7Yq9U8ua9Y+YNA07&#xA;XLDl9S1O3iurcSDi4SVA4DDejCtDiqY4q7FXYq7FXYq8lvP+ch9G0n8zV8h+Y9JuNGnklEUGqTSI&#xA;1q4k/uJQfhPpynbl+ydmpQ0VXeUv+chNH83/AJh3HlDy5o9zf29q0nr64skYtlhh+FpqbsUZ/hT+&#xA;aoxV6xiry3Sfz70m7/Ni4/La+0q407VIpJoYbqV0aKVo4/WjKgUYCWL40r7Dvirta/PvSbD82Lb8&#xA;trTSbjUNUmlghluonRYojMglYsDViIojzamKvUsVeHeZf+cn00LXNV0uTyVrFwml3VxbPexrSKQW&#xA;8jIZVJX7DceQ9sVTH8pv+ckNG/MfzPJoFjot1Yyx2sl21xNIjpxjZF40XfcyYq9gxV8o/wDOaGu6&#xA;Rqt55Y8vaZdR32s2s1z9asrdhJJE0whSJJFUni7kGinf8MVfV2KuxV8wWf8A63Hff8YF/wC6LFir&#xA;6fxV2KvGv+ct7a4m/Ji+aGNpFgu7SWYqK8U9TjyPtyYDFU9/5x78zaDrP5VeXrfTb2G4utMsYLbU&#xA;bZHUzQSoDHSWMHknIxsVqPiG4xV6RiqG1HVNN022N1qN3DZWwIBnuJEijBPQcnKjFVW2ura6gS4t&#xA;ZUnt5BWOaJg6MPFWWoOKqgIIqDUeIxV2KvlL/nL7VtB8weYdA8m6LYnUfOsUoDywbvHHcCkdoQPt&#xA;NIxEm/2Bv+0cVTT/AJw28weWLOz1nyhNafo7zik7T3hm2kuYovg4AMAytbtUNH78v5qKvpnFXzB/&#xA;zlboF55a83eVvzV0iOk1pcQwX5GwMtu3rW5b2dFeNq9gBiqE/wCcWtKufOH5mea/zP1GIgCWVLMN&#xA;uFnvWLuFNP8AdMFE+T4q+qsVfJv/ADkz+etxqmpz/lt5WuRbWyzGz1/UncQrJLy4Pa834hIkbaVi&#xA;d+n2QeSr07/nHnRvyq8r6T+g/Lev6drnme6j+saxdWsqySS8D0RQSywxc6L953OKvZMVfIv/ADlB&#xA;5Yh/L/z1oP5ieW7mWDWdTu57i5WQh0E9uIirICPssrlWU1xV9dYq7FXzBZ/+tx33/GBf+6LFir6f&#xA;xV2KvJ/+cofMOqaJ+T2qS6bL6E15JDZSyj7QhnakgXw5KOPyOKob/nGH8udH8rfl7Z63avLLqXmi&#xA;1trvUXdgUHESNCkagDiFWY161OKvYcVeOfm1+QE35leedO1HU9bntPLVnYmF7GA1l+s+ozcog6tG&#xA;odWHNiCfhA+SrzQfkT/zkP5IubzRvy+8xer5a1An9560cDRhwAzNHKG9KTtzgNTTt0xV9C/lf5S1&#xA;Lyj5D0jy7qV/+kr2wiKTXQBCks7PwSvxFY+XBSdyBXbpirKcVYlpH5T/AJeaR5mk80WGjRx6/K0s&#xA;j6i8k0svOevqMPVdwGbkRUCtDTFXSflP+Xr+bR5v/Q0cfmMSif8ASMUk0TmRV48isbqh5Ls1V+Lf&#xA;lWpxVluKvlf8+PzJ/MHzbHrP5Z6f5EveLagIYdUEc8hngtZ6pJFGYVVBIyKfU9Qrx9jXFXt35J/l&#xA;6fIX5d6boM4X9JHldaoyEEG6m3cVHXgoWMHuFxVnWKvPtT/ID8n9U1K71O/8twz319NJc3c5luAX&#xA;lmcvI5CyAfEzE7DFUw8p/lB+W/lHVDqvl3RItP1BomgM6STOfTcgstJHcblR2xVmOKvH/wDnJD8n&#xA;Ne/MnRdJTQrm3hv9Knlf0bpmSOSOdVVqOqvRlMY2puK4qy78r7f8z7fRZ4vzDubK61RZgLWWw+yY&#xA;BGo/efDH8ZfkemKsyxV59F+TOhR/m5N+Zwvro6tMgRrI+n9WAFqtpt8PP7CV+11xV6DirsVeE/nx&#xA;+XH52efbq40TSLvS4vJrPBNDFOzR3BkjT4ubLFIePqEkUOKvWvIvlyTy15M0Ty/LMLiXS7KC1knU&#xA;EK7xIFZlB3oSNsVTzFXYq7FXYq7FXYq7FXYq7FXYq7FXYq7FXYq7FXYq7FXYq7FXYq7FXYq7FXYq&#xA;7FXYq7FXYq7FXYq7FXYq7FXYq7FXYq+d/wDnMjzb5l0LQPLtro2pXGnR39zcNdtayNDI/oJGUUuh&#xA;VuNZCaV3NPDFWffkZ5C1vyt5cN1q/mS78w3GtQ2t1S6MjLbH0yzRxmSSUkH1Ou1adMVelYq+XNR8&#xA;x+YV/wCczk0ddUuxpPrQD9HCeUW9DpCOR6PLh9v4unXfFX1HirsVfNH/ADlT5S816Rb3X5gaV5u1&#xA;C0t5Jra1fRIZZoYkBj9P1EeOUCpZKkcO/XxVet/kVrmra7+UvlvVNWuXvNQnt2E9zIau/pTPErOf&#xA;2m4oKk7nqcVZ5irsVdirsVdir5S/Pu5/ND8rvP8AYecNH1/VLvypf3IlXTbm8uJrSO4FWls5I3dk&#xA;9ORORj22FafYBxVU/wCce5fzR/MrzzfedNb8wanb+VrK6aUabBeXEVpLcn40tUhVwnowqylxTfYG&#xA;vI4q+qcVfJPnzzX53/Lf/nI+xN/5h1ObyjqF3Fex2dxeXElqtneMYp09F3aOkDl+C02AU7Yqsh84&#xA;+d/Pv/OT0ujaR5g1Kz8tWmoFZrS0vLiG2NppgCzHhG6rS4eIitP28VfXOKvk/wDPTyx+ZXk46x5r&#xA;uPzPvbOx1C+uJNG0KC8vUkKzSs8cESCVUVYkYBiPhUD5DFV//OKEv5s+YvNE3mHWdb1S+8q2cMsB&#xA;+v3lzNDNcvQKsccjsrGMbs37P04q+rcVfFH/ADk35u1vzN+Ztt5U1tYtD0LR7l4rLUJYpqNHcFBJ&#xA;dPQMXUBNuC+OKvs3SbWC00qytIJPWgt4Ioopag80RAqtUbbgV2xVFYq+S9T/APW40/4z2/8A3RUx&#xA;V9aYq7FXlf8Azk5pOnal+TusLfagmmpatDcwTSKzK80bgJDxQFv3hbiKDbr0BxVg3/OHfnjzLqnl&#xA;6fyxe2QGi6JGTp2phJFLtLMzvCzmsbFOdRTcDFX0birx387v+cjNO/LTUbbRYdJk1XWbmBboq0n1&#xA;eCOF3ZFJfjIzMWjb4Qv09sVSjyT/AM5f/l5q+l3M3mVJPL2o2qlxbUkuknA/3zJGg+Kv7LgfM70V&#xA;epflv590zz55RtPMunRtBBdNKjW0hBkjaKRkKvx2qQob5HFWT4q+Xvze8hfnD+a/5kWOnTaTNo/k&#xA;axnMNtdyyQkCOv768eNZCzPIq0jUjYUG1WOKrvyX8jfnJ+Vf5hXuknSZtV8jX9x6NxeRSQ8AtaQ3&#xA;qRmQOrKtBItOlRuVXFX0/ir57/5zM8r2GoeQLHzH6kcd9ot4IUJIDSRXXwPEviyuivTsA2KpP/zh&#xA;V5LaHTNb86XSH1b5xp1i7VqYoiJbhhXqHkKD5ocVfTmKvi/85fyt/Pvzp+YmrapNoU99pkF1Nb6K&#xA;BLAsQsYpWEPBDKGX1EAZuhJOKvZPyY1X88INTsfLvmPyZp3l3yfZWrxwyWasGRo1HprU3dxXka8i&#xA;VJJ3Jrir2zFXy7/znHFH+j/KEvEeoJb5Q9N+JWAkV+jFXuv5Zeb/ACx5i8q6f+hNSg1BrKztY7xI&#xA;XDNC5hFEkXqrfCdj4Yqy3FXyhqVpdn/nNxLgQyeh69v+94nh/wAcZB9qlOuKvq/FXYq+fv8AnL3z&#xA;d5Z/5V7c+WhqVu2vi8tJG0xXBnVKGTmyDcLx3qcVZp/zjVFHH+SPlcIoUNFOzUFKs11KST88Vem4&#xA;qlN15T8uXfmK08x3Wnwz63YQvb2d7IvJ4o3bk3CuwNf2qVoSK0JxVgXmz/nGf8pfM2tNrF3pslnd&#xA;StyuUsZTbxTN3Z41BUE9ynEk7nfFXoXl7y7onl3R7bRtEs47HTLReEFtEDQCtSSSSzMTuWYkk7nF&#xA;UxxV2KuxV2KvnbzZ/wA4f23mTzlqev3HmyaG11S9lvZrFbNSy+s5bgkvrBfhB4hjGcVe6eVfK+j+&#xA;VvL1joGjQ+hp2nx+lAhNWO5Znc92diWY+JxVNcVdirsVdiqQec/IXlDzrpsem+Z9NTUbSKQSxKzS&#xA;RsjgEVSSJo5FqDvRt8VQ3kb8svJHkWK7i8q6b+jo79ka7X17ifmYgwT+/klpTmemKsoxV2KuxV2K&#xA;sC81/kV+VXmzXJtd8waH9d1SdUWW4+tXcXIRKEQcIpo02VQPs4qzLSdJ03SNNttM0y2S00+zjWK2&#xA;tohRERRQAYqi8VdirsVdirsVf//Z</xapGImg:image>
    </rdf:li>
   </rdf:Alt>
  </xap:Thumbnails>
 </rdf:Description>

 <rdf:Description rdf:about=''
  xmlns:dc='http://purl.org/dc/elements/1.1/'>
  <dc:format>image/svg+xml</dc:format>
 </rdf:Description>

</rdf:RDF>
</x:xmpmeta>
                                                                                                                                                                                                                                                                                                                                                                                                                                                                                                                                                                                                                                                                                                                                                                                                                                                                                                                                                                                                                                                                                                                                                                                                                                                                                                                                                                                                                                                                                                                                                                                                                                                                                                                                                                                                                                                                                                                                                                                                                                                                                                                                <?xpacket end='w'?>
			</metadata>
		<g id="レイヤー1">
			<rect fill="none" width="100" height="150"/> 
			<rect x="100" fill="none" width="100" height="150"/> 
			<rect x="200" fill="none" width="100" height="150"/> 
			<rect x="300" fill="none" width="100" height="150"/> 
			<rect x="400" fill="none" width="100" height="150"/> 
			<rect x="500" fill="none" width="100" height="150"/> 
			<rect x="600" fill="none" width="100" height="150"/> 
			<rect y="150" fill="none" width="100" height="150"/> 
			<rect x="100" y="150" fill="none" width="100" height="150"/> 
			<rect x="200" y="150" fill="none" width="100" height="150"/> 
			<rect x="300" y="150" fill="none" width="100" height="150"/> 
			<rect x="400" y="150" fill="none" width="100" height="150"/> 
			<rect x="500" y="150" fill="none" width="100" height="150"/> 
			<rect x="600" y="150" fill="none" width="100" height="150"/> 
			<rect y="300" fill="none" width="100" height="150"/> 
			<rect x="100" y="300" fill="none" width="100" height="150"/> 
			<rect x="200" y="300" fill="none" width="100" height="150"/> 
			<rect x="300" y="300" fill="none" width="100" height="150"/> 
			<rect x="400" y="300" fill="none" width="100" height="150"/> 
			<rect x="500" y="300" fill="none" width="100" height="150"/> 
			<rect x="600" y="300" fill="none" width="100" height="150"/> 
			<rect y="450" fill="none" width="100" height="150"/> 
			<rect x="100" y="450" fill="none" width="100" height="150"/> 
			<rect x="200" y="450" fill="none" width="100" height="150"/> 
			<rect x="300" y="450" fill="none" width="100" height="150"/> 
			<rect x="400" y="450" fill="none" width="100" height="150"/> 
			<rect x="500" y="450" fill="none" width="100" height="150"/> 
			<rect x="600" y="450" fill="none" width="100" height="150"/> 
			<rect y="600" fill="none" width="100" height="150"/> 
			<rect x="100" y="600" fill="none" width="100" height="150"/> 
			<rect x="200" y="600" fill="none" width="100" height="150"/> 
			<rect x="300" y="600" fill="none" width="100" height="150"/> 
			<rect x="400" y="600" fill="none" width="100" height="150"/> 
			<rect x="500" y="600" fill="none" width="100" height="150"/> 
			<rect x="600" y="600" fill="none" width="100" height="150"/> 
			<rect y="750" fill="none" width="100" height="150"/> 
			<rect x="100" y="750" fill="none" width="100" height="150"/> 
			<rect x="200" y="750" fill="none" width="100" height="150"/> 
			<rect x="300" y="750" fill="none" width="100" height="150"/> 
			<rect x="400" y="750" fill="none" width="100" height="150"/> 
			<rect x="500" y="750" fill="none" width="100" height="150"/> 
			<rect x="600" y="750" fill="none" width="100" height="150"/> 
			<rect y="900" fill="none" width="100" height="150"/> 
			<rect x="100" y="900" fill="none" width="100" height="150"/> 
			<rect x="200" y="900" fill="none" width="100" height="150"/> 
			<rect x="300" y="900" fill="none" width="100" height="150"/> 
			<rect x="400" y="900" fill="none" width="100" height="150"/> 
			<rect x="500" y="900" fill="none" width="100" height="150"/> 
			<rect x="600" y="900" fill="none" width="100" height="150"/> 
			<rect x="402" y="28" width="3" height="88"/> 
			<polygon points="27.1000977,84.736084 48.1000977,110 52,110 28.9499512,82.4013672 51,56 47.1000977,56 27.1000977,80.0664063 
				26.8999023,80.0664063 6.8999023,56 3,56 25.0500488,82.4013672 2,110 5.8999023,110 26.8999023,84.736084 "/>
			<path d="M129.6000977,105.6000977L105.3999023,56H102l26.1000977,53.6000977C120.8129883,127.6359863,117.7548828,130,111,130
				c-2.121582,0-4.5625-0.625-7.1999512-1.8999023L103,131c3.0625,1.375,5.6816406,2,8,2
				c8.482666,0,12.1000977-2.9946289,20.1828613-23L153,56h-3.1999512l-20,49.6000977H129.6000977z"/>
			<polygon points="240,59.1999512 202,107 202,110 244,110 244,107 206,107 206,106.8000488 244,59 244,56 202,56 202,59 240,59 
				"/>
			<path d="M316,62.5V42c0-7.8598633,3.1401367-11,9-11h6v-3h-6c-7.5224609,0-12,4.4770508-12,14v20.5
				c0,6.6931152-4.1401367,11-9,11h-2v3h2c4.8598633,0,9,4.3068848,9,11V108c0,9.5229492,4.4775391,14,12,14h6v-3h-6
				c-5.8598633,0-9-3.1401367-9-11V87.5c0-6.7495117-2.8125-10.5527344-7.7509766-12.5C313.1875,73.0529785,316,69.2495117,316,62.5
				z"/>
			<path d="M524.7509766,75C519.8125,76.9472656,517,80.7504883,517,87.5V108c0,7.8598633-3.1401367,11-9,11h-6v3h6
				c7.5224609,0,12-4.4770508,12-14V87.5c0-6.6931152,4.1401367-11,9-11h2v-3h-2c-4.8598633,0-9-4.3068848-9-11V42
				c0-9.5229492-4.4775391-14-12-14h-6v3h6c5.8598633,0,9,3.1401367,9,11v20.5C517,69.2495117,519.8125,73.0529785,524.7509766,75z"
				/>
			<path d="M628.7128906,80.0895996c4.8793945,4.7036133,9.6503906,6.5739746,15.46875,6.0646973
				c5.4057617-0.4726563,9.5644531-2.8115234,13.3256836-7.5349121l-1.5708008-2.8894043
				c-3.4790039,4.779541-7.0727539,7.003418-12.0166016,7.435791c-4.9433594,0.4326172-8.8686523-1.1333008-13.125-5.236084
				c-4.8798828-4.7033691-9.6503906-6.5737305-15.4692383-6.0646973C609.9199219,72.3378906,605.7612305,74.6765137,602,79.3999023
				l1.5703125,2.8894043c3.4794922-4.779541,7.0732422-7.003418,12.0170898-7.435791
				C620.5307617,74.4208984,624.4560547,75.9868164,628.7128906,80.0895996z"/>
			<path d="M130,252.8378906l-21.833252-46.833252H102l25.3447266,53.564209
				c-6.5512695,16.3457031-9.3925781,18.5356445-15.8447266,18.5356445c-2.2473145,0-4.864502-0.6416016-7.5500488-1.9165039
				L103,281.0046387c3.270752,1.375,6.1411133,2,9,2c9.2207031,0,13.1762695-3.2202148,21.0432129-23l21.4567871-54h-6
				l-18.3000488,46.833252H130z"/>
			<path d="M130.3999023,400.0756836l-19.4663086-44.0664063H102l24.5895996,53.5288086
				C120.7739258,424.1933594,118.1491699,426.2089844,112,426.2089844c-2.3728027,0-5.166748-0.6582031-7.8999023-1.9331055
				L103,431.0092773c3.479248,1.375,6.6003418,2,10,2c9.9587402,0,14.2524414-3.4458008,21.9038086-23l21.0961914-54h-8.8000488
				l-16.5998535,44.0664063H130.3999023z"/>
			<path d="M130.8000488,547.2998047L113.6999512,506H102l23.8344727,53.4931641
				c-5.0800781,12.965332-7.4882813,14.8066406-13.3344727,14.8066406c-2.498291,0-5.46875-0.6748047-8.25-1.949707L103,581
				c3.6875,1.375,7.0595703,2,11,2c10.6967773,0,15.3286133-3.6708984,22.7644043-23L157.5,506h-11.6000977L131,547.2998047
				H130.8000488z"/>
			<path d="M131.1999512,694.5375977l-14.7331543-38.5332031H102l23.0793457,53.4575195
				C120.7348633,720.7368164,118.5432129,722.4042969,113,722.4042969c-2.6237793,0-5.770752-0.6914063-8.6000977-1.9663086
				L103,731.0043945c3.895752,1.375,7.5187988,2,12,2c11.4348145,0,16.404541-3.8964844,23.6247559-23l20.3752441-54h-14.3999023
				l-13.2001953,38.5332031H131.1999512z"/>
			<path d="M131.6000977,841.762207l-12.3666992-35.7666016H102l22.3244629,53.421875
				c-3.6091309,9.5844727-5.5839844,11.078125-10.8244629,11.078125c-2.7495117,0-6.072998-0.7084961-8.9501953-1.9833984
				L103,880.9956055c4.104248,1.375,7.9782715,2,13,2c12.1728516,0,17.4804688-4.1220703,24.4851074-23l20.0148926-54h-17.1999512
				l-11.5,35.7666016H131.6000977z"/>
			<path d="M132,989l-10-33h-20l21.5690918,53.3862305c-2.873291,7.8945313-4.6315918,9.2138672-9.5690918,9.2138672
				c-2.875,0-6.375-0.7250977-9.3000488-2L103,1031c4.3125,1.375,8.4375,2,14,2c12.9111328,0,18.5568848-4.3476563,25.3457031-23
				L162,956h-20l-9.8000488,33H132z"/>
			<polygon points="238,210.8713379 202,255.3378906 202,260.0046387 245.3334961,260.0046387 245.3334961,255.3378906 
				209.3334961,255.3378906 209.3334961,255.1379395 245.3334961,210.6713867 245.3334961,206.0046387 202,206.0046387 
				202,210.6713867 238,210.6713867 "/>
			<polygon points="236,362.5424805 202,403.6757813 202,410.0092773 246.6665039,410.0092773 246.6665039,403.6757813 
				212.6669922,403.6757813 212.6669922,403.4755859 246.6665039,362.3427734 246.6665039,356.0092773 202,356.0092773 
				202,362.3427734 236,362.3427734 "/>
			<polygon points="234,514.2001953 202,552 202,560 248,560 248,552 216,552 216,551.7998047 248,514 248,506 202,506 202,514 
				234,514 "/>
			<polygon points="232,665.8710938 202,700.3378906 202,710.0043945 249.3334961,710.0043945 249.3334961,700.3378906 
				219.3334961,700.3378906 219.3334961,700.1376953 249.3334961,665.6713867 249.3334961,656.0043945 202,656.0043945 
				202,665.6713867 232,665.6713867 "/>
			<polygon points="230,817.5288086 202,848.6621094 202,859.9956055 250.6665039,859.9956055 250.6665039,848.6621094 
				222.6665039,848.6621094 222.6665039,848.4619141 250.6665039,817.3286133 250.6665039,805.9956055 202,805.9956055 
				202,817.3286133 230,817.3286133 "/>
			<polygon points="226,996.7998047 252,969 252,956 202,956 202,969 228,969 228,969.2001953 202,997 202,1010 252,1010 252,997 
				226,997 "/>
			<path d="M628.7431641,231.2077637c5.0449219,4.9125977,10.0844727,6.8999023,16.144043,6.3640137
				c5.715332-0.5053711,10.1577148-3.0708008,14.0922852-8.1638184l-2.1948242-4.8518066
				c-3.6855469,4.9504395-7.6694336,7.4577637-12.3364258,7.8686523c-4.5209961,0.3974609-8.1450195-0.9907227-12.2119141-4.9370117
				c-5.0449219-4.9123535-10.0849609-6.8996582-16.144043-6.3637695c-5.715332,0.5053711-10.1577148,3.0708008-14.0922852,8.1638184
				l2.1948242,4.8518066c3.6855469-4.9501953,7.6694336-7.4577637,12.3364258-7.8686523
				C621.0522461,225.8735352,624.6762695,227.2617188,628.7431641,231.2077637z"/>
			<path d="M628.7734375,382.3261719c5.2104492,5.121582,10.519043,7.2255859,16.8188477,6.6630859
				c6.0249023-0.5380859,10.7519531-3.3300781,14.859375-8.7929688l-2.8193359-6.8139648
				c-3.8916016,5.1210938-8.2661133,7.9125977-12.6557617,8.3012695c-4.0986328,0.3623047-7.4213867-0.8476563-11.2983398-4.637207
				c-5.2104492-5.121582-10.5195313-7.2255859-16.8193359-6.6635742
				c-6.0244141,0.5380859-10.7514648,3.3305664-14.8588867,8.7929688l2.8193359,6.8144531
				c3.8916016-5.1210938,8.2661133-7.9125977,12.6557617-8.3017578
				C621.5732422,377.3261719,624.8964844,378.5361328,628.7734375,382.3261719z"/>
			<path d="M628.8041992,533.4306641c5.3754883,5.3305664,10.953125,7.5512695,17.4936523,6.9624023
				c6.3339844-0.5708008,11.3452148-3.5898438,15.6259766-9.421875l-3.4438477-8.7763672
				c-4.0976563,5.2919922-8.8623047,8.3671875-12.9750977,8.734375c-3.6757813,0.3271484-6.6977539-0.7050781-10.3852539-4.3383789
				c-5.3759766-5.3305664-10.9536133-7.5517578-17.4941406-6.9624023
				c-6.3339844,0.5708008-11.3447266,3.5893555-15.6254883,9.4213867l3.4438477,8.7768555
				c4.097168-5.2919922,8.8623047-8.3671875,12.9750977-8.734375
				C622.0947266,528.7651367,625.1166992,529.796875,628.8041992,533.4306641z"/>
			<path d="M628.8344727,684.5488281c5.5410156,5.5395508,11.3876953,7.8774414,18.1689453,7.2617188
				c6.6435547-0.6035156,11.9384766-3.8491211,16.3925781-10.0507813l-4.0683594-10.7387695
				c-4.3037109,5.4624023-9.4589844,8.8212891-13.2944336,9.1669922c-3.253418,0.2919922-5.9741211-0.5620117-9.472168-4.0390625
				c-5.5410156-5.5395508-11.3876953-7.8774414-18.168457-7.2617188
				c-6.6435547,0.6035156-11.9389648,3.8491211-16.3925781,10.0507813l4.0678711,10.7387695
				c4.3037109-5.4628906,9.4589844-8.8217773,13.2949219-9.1669922
				C622.6157227,680.2177734,625.3369141,681.0717773,628.8344727,684.5488281z"/>
			<path d="M628.8652344,835.6533203c5.7060547,5.7485352,11.8217773,8.203125,18.84375,7.5610352
				c6.9526367-0.6362305,12.5322266-4.1088867,17.1586914-10.6796875l-4.6923828-12.7011719
				c-4.5097656,5.6333008-10.0551758,9.2758789-13.6137695,9.6000977c-2.8305664,0.2568359-5.2504883-0.4194336-8.5585938-3.7402344
				c-5.706543-5.7485352-11.8222656-8.203125-18.8442383-7.5610352
				c-6.9526367,0.6362305-12.5317383,4.1083984-17.1586914,10.6796875l4.6923828,12.7011719
				c4.5097656-5.6333008,10.0556641-9.2758789,13.6142578-9.6000977
				C623.137207,831.65625,625.5566406,832.3325195,628.8652344,835.6533203z"/>
			<path d="M628.8955078,986.7714844c5.8720703,5.9580078,12.2563477,8.5288086,19.5185547,7.8603516
				c7.2626953-0.6689453,13.1259766-4.3681641,17.9257813-11.3085938l-5.3168945-14.6640625
				c-4.7158203,5.8046875-10.6518555,9.730957-13.9331055,10.0332031c-2.4082031,0.2216797-4.5268555-0.2763672-7.6455078-3.4404297
				c-5.8720703-5.9580078-12.2563477-8.5292969-19.5185547-7.8603516
				c-7.2626953,0.6689453-13.1259766,4.3676758-17.9257813,11.3085938l5.3168945,14.6635742
				c4.7158203-5.8046875,10.6518555-9.730957,13.9335938-10.0332031
				C623.6582031,983.1088867,625.7768555,983.6069336,628.8955078,986.7714844z"/>
			<rect x="402" y="177.0046387" width="5.3334961" height="89"/> 
			<rect x="402" y="326.0092773" width="7.6669922" height="90"/> 
			<rect x="402" y="475" width="10" height="91"/> 
			<rect x="402" y="624.0043945" width="12.3334961" height="92"/> 
			<rect x="402" y="772.9956055" width="14.6665039" height="93"/> 
			<rect x="402" y="922" width="17" height="94"/> 
			<polygon points="28.0166016,236.6181641 47.083252,260.0046387 53.8334961,260.0046387 31.291748,232.5058594 
				52.8334961,206.0046387 46.083252,206.0046387 28.0166016,228.2265625 27.8166504,228.2265625 9.75,206.0046387 3,206.0046387 
				24.5415039,232.5058594 2,260.0046387 8.75,260.0046387 27.8166504,236.6181641 "/>
			<polygon points="28.9333496,388.5 46.0666504,410.0092773 55.666748,410.0092773 33.6335449,382.6098633 54.666748,356.0092773 
				45.0666504,356.0092773 28.9333496,376.3867188 28.7333984,376.3867188 12.6000977,356.0092773 3,356.0092773 
				24.0332031,382.6098633 2,410.0092773 11.6000977,410.0092773 28.7333984,388.5 "/>
			<polygon points="29.8500977,540.3681641 45.0500488,560 57.5,560 35.9750977,532.7006836 56.5,506 44.0500488,506 
				29.8500977,524.5332031 29.6499023,524.5332031 15.4499512,506 3,506 23.5249023,532.7006836 2,560 14.4499512,560 
				29.6499023,540.3681641 "/>
			<polygon points="30.7666016,692.25 44.0332031,710.0043945 59.3334961,710.0043945 38.3166504,682.8051758 
				58.3334961,656.0043945 43.0332031,656.0043945 30.7666016,672.6933594 30.5666504,672.6933594 18.3000488,656.0043945 
				3,656.0043945 23.0166016,682.8051758 2,710.0043945 17.3000488,710.0043945 30.5666504,692.25 "/>
			<polygon points="31.6833496,844.1181641 43.0166016,859.9956055 61.1665039,859.9956055 40.6582031,832.8955078 
				60.1665039,805.9956055 42.0166016,805.9956055 31.6833496,820.8398438 31.4833984,820.8398438 21.1499023,805.9956055 
				3,805.9956055 22.5083008,832.8955078 2,859.9956055 20.1499023,859.9956055 31.4833984,844.1181641 "/>
			<polygon points="32.6000977,996 42,1010 63,1010 43,983 62,956 41,956 32.6000977,969 32.3999023,969 24,956 3,956 22,983 
				2,1010 23,1010 32.3999023,996 "/>
			<path d="M302,227.2546387h2c4.9707031,0,9,4.1958008,9,11v20.25c0,9.5229492,4.4775391,14,12.3334961,14H333v-4.5h-5.6665039
				c-6.2158203,0-9-2.784668-9-10.666748v-19.583252c0-6.8850098-3.0107422-10.9606934-8.2514648-13
				c5.2407227-2.0393066,8.2514648-6.1149902,8.2514648-13v-19.583252c0-7.8823242,2.7841797-10.666748,9-10.666748H333v-4.5
				h-7.6665039c-7.855957,0-12.3334961,4.4770508-12.3334961,14v20.25c0,6.8041992-4.0292969,11-9,11h-2V227.2546387z"/>
			<path d="M302,378.0092773h2c5.0820313,0,9,4.0844727,9,11v20c0,9.5229492,4.4775391,14,12.6665039,14H335v-6h-5.3330078
				c-6.5712891,0-9-2.4291992-9-10.3334961v-18.6665039c0-7.0205078-3.2084961-11.3686523-8.7514648-13.5
				c5.5429688-2.1313477,8.7514648-6.4794922,8.7514648-13.5v-18.6665039c0-7.9047852,2.4287109-10.3334961,9-10.3334961H335v-6
				h-9.3334961c-8.1889648,0-12.6665039,4.4770508-12.6665039,14v20c0,6.9150391-3.9179688,11-9,11h-2V378.0092773z"/>
			<path d="M302,528.75h2c5.1928711,0,9,3.9736328,9,11v19.75c0,9.5229492,4.4775391,14,13,14h11V566h-5
				c-6.9267578,0-9-2.0732422-9-10v-17.75c0-7.15625-3.40625-11.7763672-9.2509766-14
				C319.59375,522.0263672,323,517.4057617,323,510.25V492.5c0-7.9267578,2.0732422-10,9-10h5V475h-11
				c-8.5224609,0-13,4.4770508-13,14v19.75c0,7.0263672-3.8071289,11-9,11h-2V528.75z"/>
			<path d="M302,679.5043945h2c5.3041992,0,9,3.862793,9,11v19.5c0,9.5229492,4.4775391,14,13.3334961,14H339v-9h-4.6665039
				c-7.2822266,0-9-1.7177734-9-9.6665039v-16.8334961c0-7.2915039-3.6044922-12.184082-9.7514648-14.5
				c6.1469727-2.3154297,9.7514648-7.2084961,9.7514648-14.5v-16.8330078c0-7.9487305,1.7177734-9.6669922,9-9.6669922H339v-9
				h-12.6665039c-8.855957,0-13.3334961,4.4775391-13.3334961,14v19.5c0,7.1376953-3.6958008,11-9,11h-2V679.5043945z"/>
			<path d="M302,830.2456055h2c5.4150391,0,9,3.7509766,9,11v19.25c0,9.5229492,4.4775391,14,13.6665039,14H341v-10.5h-4.3334961
				c-7.6376953,0-9-1.3623047-9-9.3334961v-15.9165039c0-7.4272461-3.8022461-12.5922852-10.2509766-15
				c6.4487305-2.4082031,10.2509766-7.5732422,10.2509766-15v-15.9169922c0-7.9707031,1.3623047-9.3330078,9-9.3330078H341v-10.5
				h-14.3334961c-9.1889648,0-13.6665039,4.4770508-13.6665039,14v19.25c0,7.2485352-3.5849609,11-9,11h-2V830.2456055z"/>
			<path d="M302,981h2c5.5263672,0,9,3.6401367,9,11v19c0,9.5229492,4.4775391,14,14,14h16v-12h-4c-7.9931641,0-9-1.0068359-9-9v-15
				c0-7.5625-4-13-10.7509766-15.5C326,971,330,965.5625,330,958v-15c0-7.9931641,1.0068359-9,9-9h4v-12h-16
				c-9.5224609,0-14,4.4770508-14,14v19c0,7.3598633-3.4736328,11-9,11h-2V981z"/>
			<path d="M524.9179688,224.7546387c-5.2407227,2.0393066-8.2514648,6.1149902-8.2514648,13v19.583252
				c0,7.8820801-2.784668,10.666748-9,10.666748H502v4.5h7.6665039c7.855957,0,12.3334961-4.4770508,12.3334961-14v-20.25
				c0-6.8041992,4.0292969-11,9-11h2v-5h-2c-4.9707031,0-9-4.1958008-9-11v-20.25c0-9.5229492-4.4775391-14-12.3334961-14H502v4.5
				h5.6665039c6.215332,0,9,2.7844238,9,10.666748v19.583252
				C516.6665039,218.6396484,519.6772461,222.715332,524.9179688,224.7546387z"/>
			<path d="M525.0844727,374.5092773c-5.5429688,2.1313477-8.7509766,6.4794922-8.7509766,13.5v18.6665039
				c0,7.9042969-2.4291992,10.3334961-9,10.3334961H502v6h9.3334961c8.1894531,0,12.6665039-4.4770508,12.6665039-14v-20
				c0-6.9155273,3.9179688-11,9-11h2v-7h-2c-5.0820313,0-9-4.0849609-9-11v-20c0-9.5229492-4.4770508-14-12.6665039-14H502v6
				h5.3334961c6.5708008,0,9,2.4287109,9,10.3334961v18.6665039
				C516.3334961,368.0297852,519.5415039,372.3779297,525.0844727,374.5092773z"/>
			<path d="M525.2509766,524.25C519.40625,526.4736328,516,531.09375,516,538.25V556c0,7.9267578-2.0732422,10-9,10h-5v7.5h11
				c8.5224609,0,13-4.4770508,13-14v-19.75c0-7.0263672,3.8071289-11,9-11h2v-9h-2c-5.1928711,0-9-3.9736328-9-11V489
				c0-9.5229492-4.4775391-14-13-14h-11v7.5h5c6.9267578,0,9,2.0732422,9,10v17.75
				C516,517.4057617,519.40625,522.0263672,525.2509766,524.25z"/>
			<path d="M525.4179688,674.0043945c-6.1469727,2.315918-9.7514648,7.2084961-9.7514648,14.5v16.8334961
				c0,7.9487305-1.7177734,9.6665039-9,9.6665039H502v9h12.6665039c8.855957,0,13.3334961-4.4770508,13.3334961-14v-19.5
				c0-7.137207,3.6958008-11,9-11h2v-11h-2c-5.3041992,0-9-3.8623047-9-11v-19.5c0-9.5224609-4.4775391-14-13.3334961-14H502v9
				h4.6665039c7.2822266,0,9,1.7182617,9,9.6669922v16.8330078
				C515.6665039,666.7958984,519.2709961,671.6889648,525.4179688,674.0043945z"/>
			<path d="M525.5844727,823.7456055c-6.4492188,2.4077148-10.2509766,7.5727539-10.2509766,15v15.9165039
				c0,7.9711914-1.3623047,9.3334961-9,9.3334961H502v10.5h14.3334961c9.1889648,0,13.6665039-4.4770508,13.6665039-14v-19.25
				c0-7.2490234,3.5849609-11,9-11h2v-13h-2c-5.4150391,0-9-3.7514648-9-11v-19.25c0-9.5229492-4.4775391-14-13.6665039-14H502v10.5
				h4.3334961c7.6376953,0,9,1.3623047,9,9.3330078v15.9169922
				C515.3334961,816.1723633,519.1352539,821.3374023,525.5844727,823.7456055z"/>
			<path d="M543,966h-2c-5.5263672,0-9-3.6401367-9-11v-19c0-9.5229492-4.4775391-14-14-14h-16v12h4c7.9931641,0,9,1.0068359,9,9v15
				c0,7.5625,4,13,10.7509766,15.5C519,976,515,981.4375,515,989v15c0,7.9931641-1.0068359,9-9,9h-4v12h16
				c9.5224609,0,14-4.4770508,14-14v-19c0-7.3598633,3.4736328-11,9-11h2V966z"/>
		</g>
	</svg>
