<?xml version="1.0" encoding="utf-8"?>
<!-- Generator: Adobe Illustrator 11 Build 225, SVG Export Plug-In . SVG Version: 6.0.0 Build 78)  -->
<!DOCTYPE svg PUBLIC "-//W3C//DTD SVG 1.0//EN"    "http://www.w3.org/TR/2001/REC-SVG-20010904/DTD/svg10.dtd" [
	<!ENTITY ns_flows "http://ns.adobe.com/Flows/1.0/">
	<!ENTITY ns_svg "http://www.w3.org/2000/svg">
	<!ENTITY ns_xlink "http://www.w3.org/1999/xlink">
]>
<svg  xmlns="&ns_svg;" xmlns:xlink="&ns_xlink;" xmlns:a="http://ns.adobe.com/AdobeSVGViewerExtensions/3.0/"
	 width="800.25" height="1050.25" viewBox="0 0 800.25 1050.25" overflow="visible" enable-background="new 0 0 800.25 1050.25"
	 xml:space="preserve">
	<metadata>
		<x:xmpmeta  x:xmptk="XMP toolkit 3.0-29, framework 1.6" xmlns:x="adobe:ns:meta/">
			<rdf:RDF  xmlns:iX="http://ns.adobe.com/iX/1.0/" xmlns:rdf="http://www.w3.org/1999/02/22-rdf-syntax-ns#">
				<rdf:Description  rdf:about="" xmlns:pdf="http://ns.adobe.com/pdf/1.3/"></rdf:Description>
				<rdf:Description  rdf:about="" xmlns:tiff="http://ns.adobe.com/tiff/1.0/"></rdf:Description>
				<rdf:Description  rdf:about="" xmlns:xapGImg="http://ns.adobe.com/xap/1.0/g/img/" xmlns:xap="http://ns.adobe.com/xap/1.0/">
					<xap:CreateDate>2005-10-18T08:31:30Z</xap:CreateDate>
					<xap:ModifyDate>2005-10-18T08:31:30Z</xap:ModifyDate>
					<xap:CreatorTool>Illustrator</xap:CreatorTool>
					<xap:Thumbnails>
						<rdf:Alt>
							<rdf:li  rdf:parseType="Resource">
								<xapGImg:format>JPEG</xapGImg:format>
								<xapGImg:width>172</xapGImg:width>
								<xapGImg:height>256</xapGImg:height>
								<xapGImg:image>/9j/4AAQSkZJRgABAgEASABIAAD/7QAsUGhvdG9zaG9wIDMuMAA4QklNA+0AAAAAABAASAAAAAEA
AQBIAAAAAQAB/+4ADkFkb2JlAGTAAAAAAf/bAIQABgQEBAUEBgUFBgkGBQYJCwgGBggLDAoKCwoK
DBAMDAwMDAwQDA4PEA8ODBMTFBQTExwbGxscHx8fHx8fHx8fHwEHBwcNDA0YEBAYGhURFRofHx8f
Hx8fHx8fHx8fHx8fHx8fHx8fHx8fHx8fHx8fHx8fHx8fHx8fHx8fHx8fHx8f/8AAEQgBAACsAwER
AAIRAQMRAf/EAaIAAAAHAQEBAQEAAAAAAAAAAAQFAwIGAQAHCAkKCwEAAgIDAQEBAQEAAAAAAAAA
AQACAwQFBgcICQoLEAACAQMDAgQCBgcDBAIGAnMBAgMRBAAFIRIxQVEGE2EicYEUMpGhBxWxQiPB
UtHhMxZi8CRygvElQzRTkqKyY3PCNUQnk6OzNhdUZHTD0uIIJoMJChgZhJRFRqS0VtNVKBry4/PE
1OT0ZXWFlaW1xdXl9WZ2hpamtsbW5vY3R1dnd4eXp7fH1+f3OEhYaHiImKi4yNjo+Ck5SVlpeYmZ
qbnJ2en5KjpKWmp6ipqqusra6voRAAICAQIDBQUEBQYECAMDbQEAAhEDBCESMUEFURNhIgZxgZEy
obHwFMHR4SNCFVJicvEzJDRDghaSUyWiY7LCB3PSNeJEgxdUkwgJChgZJjZFGidkdFU38qOzwygp
0+PzhJSktMTU5PRldYWVpbXF1eX1RlZmdoaWprbG1ub2R1dnd4eXp7fH1+f3OEhYaHiImKi4yNjo
+DlJWWl5iZmpucnZ6fkqOkpaanqKmqq6ytrq+v/aAAwDAQACEQMRAD8A9U4q7FXYq7FXYq7FXYq7
FXYqhtT1Kx0vTbvU7+UQWNjDJc3c5BISKFC8jkKCfhVSdhiqJxV2KuxV2KuxV2KuxV2KuxV2KuxV
2KsW/Kx3f8uvLruxZmsYSWJqSePjirKcVdirzfyzp2tRXXlUz21yiwXmvtdGRJAESW4mMBkqNg6k
FK9R0xV6RirsVedfmP5ovob/AEXTItC1SZf0zaFbiBbb0rj0Fa6KRFp1ev7mvxKv2T2xVS0PzfqF
z+Y+tyny3q6RtZ6VYlGW0pAUlu5mkkpcmgZbpfs1NF6Yq9KxV4n5/i0vWNG/MyPX72WTW9L0+/fS
NGeeSGKGzSwLw3MNurIk3qPyLSsGofg2pTFXp2ieStJ0PUGu9KmvLeB42jk01rqaazLFgwlEMzSC
NxxpWMrWp5V2oqn2KvPrfyx5b81ec/Nb+ZbGDWJNLubax020vY1mit7V7C3ufUhjkDKryTzSgyqO
R4ha/DiqWadrmpxeU18r6HdSSalf6pqOkaBfuxleHT7S5dJrss1eS2UdYkLV5OIwftYq9J0jS7LS
dLtNLskKWdlCkECkliEjUKOTHdjtuTuTirEvzIt7CbUfLia/H63lGW5kg1SJ/wDeY3MyBbH62vRo
DJySjVT1GTl2xVBeWtN8s2v5jPD5KtIbLSbGxuIPMSaeixaebxpYTaxCOICE3MapMXKjkqkBvtCi
r0XFWN6Tb3qefPMU8kUi2ctnpi28rKwjZ0N16gRj8JK8l5U8RXFWSYq7FXYqxr8tLS6s/IGgWt3D
Jb3MNlEk0EqlJEYLurKwBB+eKslxV2KuxV2KuxV5r5x8weY285+V7WPyvdyrZajeXVs63NiouFis
Lm15JymBUcbrlR6H6dsVXeR9c8wXXnHzTLN5buoIp9St7ae4e4s3W3EGn254twmZm+KQmkYYb+NQ
FXpGKsG/OfRtE1T8sfNM1/ZW95NYaRqM1nLNGkjwTR2sjB42YEowKjcYqutbW68q+bdH0mz1C4vN
D1tbmJdOvZXupLSW2i9YSw3Epeb0So9NkdmAJTjx3BVZvirHvMnk3ynqkzarq0TwzwQlJ763urix
c26VcpNLbSQGSJak8XJXrtirzvStPubufRLrTuegWnmeU2Oki2VYpbLy9Y28lzFDCGBEU17IgkkI
HII1PtICFWY6XBf+XvPNroiald6hpGr6fdXkUN9K1zLbXFjLbxsUmespjlW7FQ7EKyjjTliqjqum
nzr5k1fQNTmkj8r6OsEN3pcLGJr+e4jE5NxIhEn1dI2VRGpAduXOqjjiqVfpf/lVWlS6NexmTy3F
DO3le/RSWWRVaRNMuAo+KVj8Nu/WX7J+MVdVn3lu31G38vaXb6nK0+pQ2kEd9MxqzzrEolYkdSzg
nFUxxV2KuxV2KoXStP8A0dpttY/WZ7z6tGI/rV2/qzycf2pHoOTHuaYqisVdirsVdirsVS+60S1u
dasNXkeQXOnR3EUEYI9Mi69PmWBBPIeiONCOpxV2k6JaaXJqEkDyO+pXb3twZCD+8dEjovELRQkS
gfrxVMMVYL57/K601zR/MK6Ncz6TrGtWVzBKYbiSKzuJpoDEpuoKSxEGoDusfqce9aYqnmh+S9L0
q/bVGnutS1d4zAdR1Cdp5ViJDNHEvwxRKzKCwjReRpXoMVT7FUs8yeX7PzBpMmk3skqWVw0Zuo4S
q+tEjh2gclW/dyheEgFCVJFcVWeYvLVlrlnBBLLNZ3FnMtzp9/aMqT206KyCSIusifYdkKurKykg
gg4qhdA8oDTdTm1i/wBTuta1maEWwvbwQp6VuG5mKGK3jhjRWajMeJZiBU7CirWteTo77VBrGn6l
eaJq/pLBNd2JhYTxRlmjjnhuI54ZAhduLcQ4qaMMVS+4/LHTtVP/ADtepXvmZFVhFa3xhitY2deP
Nbe0itkLqCeDycmU7qQcVZLo2nNpml2untd3F/8AVYxELu8ZXuJAuwMjosYZqbcqVPU1O+KozFXY
q7FXYq7FXYq7FXYq7FXYq7FXYq7FXYq7FXYq7FXYq7FXYq7FXYq7FXYq7FXYqkPkXzhY+cPK9p5h
sYZbe1u3nRIZ+PqA21xJbtXiWG7REjfpiqfYq7FWIaT+ZelanJpKRWs6HV9U1DR4OfD4ZdNS4eR2
ox+BhaNxpvuK4qy/FXYqkvmnzVZ+XYdNkuopJv0nqVppUCxcaiW9lEaseRHwr9pqb0xV0Pmqzm85
XflVIZDd2dhBqM1xQeiFuJZIkjrWvP8AclunTFU6xV5t+ZP5y6d5bttd03RrS81jzJpWnzXc6Wds
09tYt6LSQyX0paJEj25MA3Lj26YqmHkX807HzHJZ6Ze6bqWj63cWouUg1C0aCKdVVTJJbyqZYnSr
VHx1p2xVnOKsK1/8yLm08xXHl7y95evfMup6fDHcasLSS3gitUmBMSPLcSRqZXUcljXfjviqZaL5
+8uap5Qk81iV7TS7ZJ31AXS+nLatalluIp034vEyEECvtUUxVMPLOtNrmgWGsGzmsBfwrOlpc8RM
iPunMKWAJWhpXbFUr87+frHyr+jrb6ldarrOszNBpOkWKq087xrzkasjIiRxru7s2wxVAaB+ZU91
5kt/LXmLy/e+WtZvYZLjTY7l7e4guUgoZVintZJU5orBmVqbYqzbFUqs/MVrdeZdU0BInW50q2s7
qaU04Mt806oFoa1X6q1ajuMVTXFXYq7FXmv/ADjj/wCSd0X/AIz6l/3U7nFXpWKuxVhGi/ljBpcm
jOuoNL+h9X1LWVBjC+o2ppcoYj8R4iP659rvx6CuKs3xV2KvH/ze8r3955o8nxJ5k1WFNU8wQtHZ
xmyEFqLW0nm9W35WzSeoGjFPUZ13O3Siqh5O8n6lL+bnnB2826zI2jx6PbtKzWBe4VopLow3FLQL
wHqCgjCNRjU7iir2fFXhX5laB548paV+Y99pNhBrnlfzZZXdzfkTLb3unytYtBLKQ44TwhV5cVIc
dKeKrOPyt/Mjyx5g02z0O3eaz17T7G3N1pF/C9tciMRqvqorikkZ7MhI3HjirPcVeaTS+ZPJ3n7z
Nqi+Xr3XtG8zfVLq3m0sQvNBc2lqlq8E8cskJ4usSsrgkCtDirz71VhS70Xzg66Vo/6Ul82efIEb
6wkbX1wG0zRf3QYyySlUllVF+ILt9rFXtHlf8w/LPmS9uNPsJLiDU7WNZ5tOv7aeyufRc0WZYrlI
2aMnbktRX5jFWGfnlf2+mXnljW9KuBL560q6kfQNDRHml1CG4QR3lt6cQZ0Vo1B9UjihUVxVD/l5
qF75+19fzI1uWLT7Py8t5YaZ5ajLPcWUrEJdy6gzLGwnZI6CPjRVodzuVXqWia1put6RZ6xpc31j
Tr+JLi0n4unOOQVVuLhXFR2IriqDsfLiWnmvV/MInLvqtrY2jW/GgjFi1wwYNXfn9a6U2piqc4q7
FXYqwz8nbLRrH8vNNttG+uDTklvTD+ko1iuqtezNJzRdgPULcPFaHFWZ4q7FXYq7FXYq8e87fl89
5+anlDhq2uehdSave3Ekd7KEtStuqqsDdIAxuOAUdV26A4q3+WXkF083+b9Wm1TWh9V1xILcT3kt
LqO1s7ejXAP9+tWKgn9kU7Yq9gxV5J+b3n++sPK3nPQtW8t6lDbXGl30Ol63axG8splls2VTO8NW
tmDsQfUWlBy5UxVL/Kj3/nLzj5C1jT9CvLDSfKWnzi91rUbdrT6011ZC3jt7VXpJKgYmQuV47be6
r2vFUl85+Y/8OeWr7V0tZb64gQLaWMCs8k9xIQkMSqtT8UjAE9hv2xV5hrfkrUfLHlfyxrWoQNrO
oWPmGLzF50e2iMrySzRSxyXEcagu62byp6aqPsJWm2KprYa/pvnf82NB1fyys1xpPl/T79dU1gwS
QQyPfeiILRGlVGkZTE0jACi7b1JGKofVNVg8k/nFrPmXzPa3B0PW9Os7XSddigluYrI2xf6xay+i
sjxCZ2WSvHiaexoqw38xtU/xNf3Wp/k1DqF55j1K0msvMc1vaywadPZmB1DTyXIgQ3cdR6DIS37J
22xV7V+W91os/kbRU0ZZotPtLSG0iguo2huIvq6CIxzRtusi8fi8eoJG+KskxV2KuxV2KuxV2Kux
V2KuxV2KuxV2KuxVD6jp9lqOn3On30K3FleRPb3UD/ZkilUo6N7MpIxVUt7eG2t4reBBHBCixxRj
oqKKKB8gMVVMVdirsVdirsVdirsVdirsVdirsVdirsVdirsVdirsVdirsVdiqncXFvbW8tzcypBb
wI0k00jBEREHJmZmoAoAqScVdb3Fvc28VzbSpPbzoskM0bB0dHHJWVlqCpBqCMVVMVdirsVdirsV
dirsVdirsVdirsVeS/8AOM/mLXde8h6hea1fz6jdR6xdwJPcOZHESLHxQFv2RU0GKvWsVdirwGy8
3+aH0by9K2q3JkuPzIl0udzK1XsRJdAWzb7xfAvw9NsVe/Yq7FXhH57fnh5Z0i80zy5p3mCWx1ux
12w/xBHCl3GYtPoZLgtIkfGROLJVY2LGuw2xVBaT/wA5F+R7z86LmX/E0x8qTaVBY6ZAYbwQyajJ
chmYQ+jVW4njzdR86Yq+hMVfOH5leaPPfnTUvzM0HTdaTy/5b8laVM17YpBHLc6lztZXdWdzyjjP
plSU7EbEnZVln5I+XPzP03RPKV7N5og1byde6RbSy6TdWqxXNoJLRWgjtp46l1QlVPqH7I6VNcVe
x4q8bvrXzF5//NrzX5ebzNqfl7Q/KFvp6W9voswtZri41CA3Bmml4uzKlOPDp0/yuSqA8v8A5ueY
dJ/LDXP0lMNb82aTr135U0OQKofUryNlW2fiKA7SVbxCnvir1byNomraJ5V07TtZ1KbVtXjj5ahq
E7mRpJ3JeTiT0RWPFB/KBirz/wDPfzL5hs9Z8k+WtO1p/Lem+Zr2e31TXIVHqxCJYzFCkjCkbTNI
QG67eFcVSRG8xfl/+cflLyppnmvVfNOn+YI7k6tpeszre3FrHEnKO5WYKjIpPLt0Ujwoq94xVgGm
6vqkn5463pL3UraZBoNlcQ2ZY+ksz3MqtIF6BmVQCcVZ/irsVdirxj/nFGCeH8utSWaNo2Ot3pCu
CpoVi33xV7PirsVU/qtsAAIkor+oo4jZ/wCYf5XviqpirsVfOf5x/m15bn8/eTtONrqXHy5r0txq
I+pyfvGs1aMG32rN8VT8O1N8Vd+XP5teW7v88PON/wDVtTCeYJNG07SlNnIPTKQmKQ3Ip+6HqsCC
x+zvir6MxV5B+fH5ReTda8t+YvOBjmsPMenaTeTG/sZTC06wWzMIblaMsiMq8G25Fdq0xViX5V+b
vzB8mXv5d+XPMF7DrflXzppcLaHKIxFdWDx2scv1c8f7yNBKiVbcjeooVKr6MxVgfm38odM13zGf
MthrOqeW9cmtxZ3t5pE6wm4gX7Kyq6SAsv7LChH0CirwuN00Z7TW/JlqlxpOnasnlT8vpL9jLHd6
xqLML/WLhl4mT+7McbD4fADjTFXrGleYPzJ8qfmN5f8AK3m/V7XzHpvmqG6+pahFaJYSW11ZRes8
bIjOro6bKTuT4U3VSj83J7/8yPNz/k7pMVtbwW1vFqnmDW7qP1Xtk5KYls46r+9PMVavRiPHFWK+
WtQtvyS1PzLYecbcSa7f211eaB55l9SY6ksUfNbSV5GkMcqsi/ADRjT/ACSyr3D8rdY1/Wvy90HW
Nf4fpbUbRLq49NPTWkxLx0Xt+7ZcVZOIohIZQiiQjiXoORA7VxVdirsVdirHvI/l7zBoOkzWeua/
J5ju5LmSeO+mhEDJE4XjDxDy1CUO9e+KshxV2KuxV2KuxVifmDyIdZ8/eVPNjX3op5WW/Edh6XL1
21CAQFjLzHDgFrTia+2Ku8meQv8ADeu+atXa9F5L5mvxfFBD6XoKqcEi5c5PUp/Nt8sVZZiryH8z
PyV1XUrfzNqnlHzDqWnajrdpcfX9CWVJbG/la2MQj4TlVhaUKsZfl8I6UxVr8p/yNfQ30DzJ5r1O
81bzLpemw2tjY3Lp9W0wGARvBAsZdWMYrHz5UPXrvir1/FUk866Fqmv+V9R0XTNT/Q11qERg/SIi
9do43NJOCc4viZKqG5fDWuKsf8y/lFoWq/l9YeTdPnk0iLR2t59Fv4AGktrm1NY56HiHYkty3Fan
cHfFUD5c/LDzQfOdh5u87eZF17UdGt5bfRbe2tFs4ITcrwnmYBn5ySJ8PYfhRV3nX8pNS1LzhF52
8o+YZPLPmgW31O8m9BLu3uoAQVSWF2UbUG+/QbVFcVSbW/yM80edikH5jecpNU0m3YyW2k6ZZxWE
YmKFFleQmZ3K8jQH+JGKs/8AIHlzXvLflu30bWdb/T8ln+6tb9rf6tL6CgBEl/ezCRlG3Pao6iu5
VZHirsVdirsVdirsVdirsVdirsVdirsVdirsVdirsVdirsVdirsVdirsVdirsVdirsVY75N/MPyf
5zivJfLWofX49Pl+r3bejPDwkIrx/fJHXp1FRirIsVdirD3/ADc/L1NNn1JtWpZW2qnQJpfq9z8O
pChMHH0uR6j4wOH+VirMMVdiqR+bvO3ljyhYW9/5ivfqVpd3KWVvJ6Usxe4lVmRAsKSNuI23pTFW
/wDGnlr/ABd/hD65/wA7ELX6+bH05f8Aeblw5+rw9L7X7PKvtiqd4qw38x/zW8oeQ9KubjVb+3Gq
LbS3Gn6Q0vCe5dFYxxqFWRkWR14cytBiqD/Lf86vI3nmysls9StrfXbiFZLjQ2mrPFIV5PGnNYjL
w7si4qz7FWE+evzl/LzyPfQ6f5h1P0b+eMzJaQxS3EgiFf3jrEr8F+E/a8MVT7y75v8ALXmPQI/M
GjahFdaPKrOLsEoqhPt+oHCtGVp8QYCmKu8p+bvL/m3Rk1ry/cteaZK7xxXJimhDtGeLcRMkbMA2
3ICmKqHnPz55S8l6WNT8y6jHp9qzcIuQZ5JH68Y40DO58aDbvirHPJv5+flX5v1dNH0XWQ+pygmC
2nhmtzLQVIjMqqrNQfZrXFXoWKpOnm7y8/myTykt3XzBFZ/pJ7L05drUyCL1PU4+l9tgOPLl7Yqn
GKuxV2KvnX/nDb/jlecv+2qv/EGxV9FYq7FXhE35D+b38p6jo4vNP+s3fnVvNEbmSb0xZEKPTY+j
X1vh+zTj/lYq93xV2KvmX/nJaz/Mq680eV9KfU9OOiatr1qvlyz4OJorlQsSyXLBfiRXnP2a7HFU
t8t6X+dV5/zkJ5h9PV9I/wAT6Tpttb6nfNA/1VrWcQTKkKcOQk4kfER44q+rMVfHX5z6Vc+V/wAy
/O+u+bvLs2taT5i0y4tfLmshBNDaXM1sIrdjy+BGiYcd6Mv2kr3Venf84/W35Ma9ofla+0yLT288
6BZILoxJ9XvBKYTBM8qUjM4o5HMhgDShrir3fFXz1rfmGy/Lj/nIPzJ5n816fctovmHTrWLRtVgg
e4VHhiijkt/h+yZHiO3+rXY1xV5/5cutdPlK58hWkbeXG8/6vd6xcLcARDTPLYCCSaQNxEYlETIl
aBlX/KU4q+mfIPmL8t59Nt/L3k3V7C9g0m3SKOzs7iOV0hjAQOyqeRqerdyfHFXl/wDzlTotxajy
p5/Vba8tPKd6HvNJu3VFuEmliYBA+zEmHiygE0NaGhxVjUGqy/nZ+Z/lrzboel/oXyh5ImS51LXL
z045ZZImjuTA3FiOKekAN6KrMxpUDFX0zYajp+o2kd5p9zFeWctfSubd1ljbixVuLoSpowIPvirD
LfyHq8f53XPntprc6RNoA0hYAz/WfXF0k/Irw4cOKdeda9sVZ3irsVdirxP/AJxi0nynp2neZ18u
+YH1+OXUA9272Ulj6MnE/uwJHk5/6wpir2zFXYq7FXYq7FXyv+cHlP8AMm4/OXyjpjecPVk1TUL6
+8u1tYwNLRGEiDr++4ooX4v5ffFVP8pPJ35lah+b3nS7h85cLzRb+yttevjZof0kiM4aIA0EXFbf
iePiDir6sxV4T+cP566Fpll528j69pt9pl1cabd2uh37xM9te/WLMopVgAV/fOVrQrtUkdMVeP8A
5XQaZ5j/ADK/LiTyNpU9teaDZ25846nGhhgdo1pKWptVkqhY7yFqb9Sq+1sVSvzT5k0vyx5d1DX9
Vk9Ow02Fp5jtU8fsoterOxCqO5OKvlrzz5W8y3n5N63+ZWtwyfprzdf2d3qNvGSWttBV/wDR7dR2
WvpOfbjy3BxVPmu/y11D87Py1P5UxWwkt47l9bfS4vSRbIxKIxc0UDnx9QNz+LcA7lcVU/zfv9Jt
P+cjtGm/MqN5PIUdoDpAmR5LL1uHxNJGgYPSc/GKHbhy+HFWG/mpr/lHRfMN7e/k1rf1mTzTaXNp
5i8uWMEslv6ckL8riKihFKhmai7oakfCSMVfQX/ONl75al/KDQbLQ79b36hEU1BRUPDdzO1xNG6n
cUeU8T0I3GKvT8VdirsVdiqC0zRNF0pZV0uwtrBZ25zLbQxwh2/mbgFqfc4qjcVdirsVdirsVQs+
k6VPfwahPZQS39qCLW7eJGmiDAhhHIRyWtd6HFXWmlaXZT3M9nZwW094/qXcsMaRvM+/xSMoBdtz
ucVRWKpf5g0LTdf0S+0bUo/VsdQgltp1GzcJkMbFTvxajGh7Yqt8t+XdL8uaFZaJpcZjsbCJIIFY
8m4oAoLN+01BucVTLFUNqOmabqVq1pqNpDe2jkF7e4jWWMlTUEo4ZTQ4qrvDE8TQuitEylGjIBUq
RQqQdqUxVL9H8seWtFaVtG0mz0xp95zZ28UBc9fj9NV5fTiqI1HStL1O2NrqVnBfWxIJguY0lSo6
Hi4YYqhdF8q+V9C5foTR7HS+Y4v9StobeorWh9JV774qq6Z5e0DSXmk0vTbWwe4p9Ye1gjhMnGpH
MxqvKnI9cVR+KuxV2KuxV2KuxV2KuxV2KuxV2KuxV2KuxV2KuxV2KuxV2KuxV2KuxV2KuxV2KuxV
4l/zjf8Amx5v8/X3m6HzDJBImjy2iWXoRCKgma5D8qE8v7lcVe24q7FXzNq35+fmFa+SPPOsRTWw
vdA8xLpWnkwKVFsZHWjrX4moo3xV9JWEzz2NtNJ9uWJHamwqygnFVfFXiH/OQv56P5Os7PT/ACpq
1j/iT68kOpWsvGZ4IDEzVkjr8HxMhqcVQR/5yL05vztGip5h01PIMdl6kl+SnBrn0q8BcFqfaYfd
TFXvmKvnj82Pz585yecNU/L38vtGivb2ytpf0rf3BPwKsXOZogJIlQRK1Obtu2wXpVVjv/OM/n/8
2Y7bR9Jm0JtX8o6nezR/4gZ5XmgcAtJ6snKUBV4fCrotenLfFX1Tirwvzt+YX5r67+bt7+XP5dzW
OlyaLZJe6jqN+nqczIkbhRVJQF/0iNQAla1NaYqv8hf85CzS/lZ5h8x+cYIodY8rTvY3UcB4pdTk
AQKg+LizueDUqBTlsNgqz38oNQ886r5HstY86NENW1Ot1FawxeiILaQAwxstSSxX4zXcVp1GKsN/
5yD/ADj8yeSrjQvLvlW2hk1/zC5WK7uhWKJeaxIFBKqXZ36seKgbg12VYXqn5tfnl+WPm/QrD8xZ
tM1rSNbahaxULIiBlSQoVSA84zIpoyEN0B7hV9NYq8vufzB8xx/85CWvkZXi/QMujm/dPTHq+sC4
r6nWnwjbFXqGKuxV2KvmD/nC3/jqfmF/xnsP+J3uKvp/FXYqxWb8rPy9msNQ0+XQrZ7LVbkX2oQE
NxmuQSfVff7VWOKsojjSONY4xxRAFVR0AAoBiq7FXxp/zkZq35N6j+ZGjfo9ka/j1aWDz5c+neKU
S2lhgZWDJR6KkorBX7PeoxVLfJsf5Aal+emsW93FE3ke9hitfLVrwvwr3shto1oAPWWrerUy0Xf5
Yq+3cVfM/wDzkX+T1xo82s/mx5W1qXTL5I1/S1kKgSCbhbOY3U7c1Yc0cENuajpirGfyI/NHzX+X
N55b8j+Z9HRPL/mgwXmj36keqqamV9KXkrNG8ZZl5KeLJvXwxV9fYq8f8/fkl5mvvPz+fPInmb/D
mv3lsLPU/UhE0cyKqoGFeQHwRoKFTuoYEHFXz1qWm6T5Zvr7TZZZPMflnyTeLqPmac0jj1TXpyIY
bSv7zjFFxYNy5GgmP7SjFXtXlr8+vzDtPNXlfSvP3la30nTfOIRdEvLSRiweUqIxIheXvLGGU8Sv
IH2xVJf+csNV8u+Yb3R/IOm6XNq/n95Fl057dgn1VJ6ckdmBD+qqVK7BQA5YU3VeaaLqC6B+YWqX
n51ve33mzy3YGfyzaX0nOyuZrWNngjaRQ9RIygxsPhZq8qtsVX1Z+UHn698++R7XzPd6cNLN3LMk
NushlVkhkMfMMVTqysOnbFU+byp5cbzInmZrCI69HB9VTUaH1RDueFa0p8RxVNsVdirsVefflVpP
5q6fca23nu406eGZ4TpA0+OOMqqmX1fV4RQ12aOla98Veg4q7FXYq7FXYq8U/MP8hovMX5qeWfMF
jpOlRaBaStc+Y4jFEkl5K8pkYyxiJhPyp8XqHepxVZ+Wv5BQaF+Y3mzzBrej6TLpV5dCbyxbRxxy
/VEWd3VkjaJVgYLwpw6dMVe3Yq+bP+cgvye8/GLzT5p8ueYbq603WBA+reVxHI5l9P0oU9JY+auV
EakVQMAPtHFVP8p/+cdvNN9qXlXzn581s3Uek2dlLo2iBZA8EcKLJbQTeosfp+iackVTVq1Piq+l
8VSTzsnmqTyrqUPlQwr5gmhMVhLcsUijdyFMpIV941JZRTcgV2xV5ev/ADjpbf8AKjJfIS3SRa7d
smoXeqHkyPqIYOSx+0Y6D0gaVp8VK4qkuh/lB+cPmHzb5PvvzCu9Ng0nyKyPpy6eWaa5kiaNkZ6i
g5G3j5H4dhstSTiqYfm5+R3nTU/zCs/zH/L/AFW3svMVsiLNb3dQpaNDEHjbjKp5RHgyOtKd96Yq
xfzL+R356/mheWZ8/ajo+l2mnq6wSWkIlnJYD+QKSrEbgygDqFxV6l+Rnlr8yPKflpfLHm1NPmst
OHHSb2xkYuYyxJiljMcfStQ/U999yq9LxV2KuxV2KuxV2KuxV2KuxV2KuxV2KuxV2KuxV2KuxV2K
uxV2KuxV2KuxV2KuxV2KpPo3nLyhrd1LZ6Lrmn6ndwKXnt7O6huJEUEKWdI2ZlHI03xVOMVdiqRH
z75GWG+mPmLTBDpciw6nKb23420kjFESdudImZ0ZQGpUgjFU4tLu1vLWG8s5o7m0uY1mt7iFg8ck
bgMjo6kqyspqCOuKquKpdrfmTy7oNvHc65qlnpVvK/pxTX08VsjPQnirSsgJoCaYqpnzZ5WGrw6K
dZsRrNwokt9N+sw/WZEKlwyQ8vUYFAWqB03xVNcVQeraxpmkWMl9qVzFa20SlmkmdIwaAmgLlRXb
xxVin5W/m95X/MnTru+0KO5thZTehLb3qwpMfhVuapFLN8HxUqT1xVm+KpP5h84+U/LcccnmDWLP
SlmqIfrc8cJenXgHILU70xVH6dqem6nZRX2m3cN9ZTjlDdW0iyxOK0qroWVvoOKobRvMvlzXBOdE
1Wz1QWzBLk2VxFcCNzWiv6TNxO3Q4qiNT1bS9Ks3vtUvILCyi/vLq6kSGJf9Z3KqPvxVJ9C/MXyF
r939S0XzFp2o3m5Ftb3MUkpA3JCBuRA8QMVZFiqXv5h0CPWY9DfU7Rdalj9WLS2njF00YBPNYC3q
FaKd6dsVTDFXYq7FXx//AM4d/wDk0/NP/MBL/wBRkeKvsDFXYq+Sbn8nPzLfy1+bVouhym48w6tY
3OjR+pDW4ihvrmWR1+Og4pIp+KnXFX0r+XWm32l/l95Y0y/iMF9Y6TY213ASCUlhtkSRCVJHwspG
xxVkOKvjb/nLrzH59vfMVv5d1TS4rby5DdNJ5evUR1lu2EMay8mMjI3BpqbIuKsZtvNf5wT/AJ7R
63B5cgk896ZB6Q0MRzGGONbP0N4zPz/uZeX971P0Yq+67V5ntonmXhMyKZUHQMR8Q798VfD358ag
dV/Py+07z1fXdl5csnEVr6C8zDbG3DxNCh5D97JQuwBO52NOOKph/wA4uflZpnmbUrbzSuuGz1Xy
7qkcsmlIVLT20apIp+FlkVWkqpJBVgCMVfauKvkP80/8ID/nKC9P5oer/hH6hEdP5+sY+H1NePH0
P3nD6z6v2f2+u2KsQ/Ln8xde8ufldr3lzQTPLqXmvVI9P8tQA/GnqJwupU8HKvDGN/tGo+ycVfWf
5O+RNI8ieSbPy5aSxT38Y9fV5o2DGS7kA9VjTfitOC1H2QO+KvFf+c19M8xyx+XNRVJpfLFsZUvB
EfgjuZGXi0goQC6VVGNabjvuq8h842PkPV/OPlu0/JKy1Aai8cTyqzSl1vOSshUysxVoqEyOD6Y6
g0BOKvv23EwgjE5DTBVErL0LU+Ijp3xV49qnknzTN/zk7pHm6OwdvLtvpL202ock4LKY5wE48ufW
Rf2cVeyYq7FXYq+af+cZvJelaH+YPmC8s/NOl65LPaSI9nYNMZYgblG5P6kca0BHHY9cVfS2KuxV
2KuxV2Kvib/nIA/m5f8A5taTpGsNDJI2pS/4IgU24/cXN4I7Yycehb04wTLvtviqG/Ln/ldWofnr
rF7p7QTebrSRovMshNrwWBJ44LhU5fu6jgF+DfbFX3Fir5P/AOcpPzO8i6suv+TLjSCPNOiy2q6Z
rJjR+SN6cs8Yk2kjoJGHHdWpWvTFXjXkwQw/mR5L/wACz3j6nI1h9d5DiVvWb/S44+NOUHD7XLty
rVd8VforirH/ADnoHkbUNLlvvN2m2N7YaZHJcPPfwxyiGNF5yMGcEqKLvTrir5B1mz1TzD5V83/m
7ZWn6H0iwMWj+TbK2jWFLa0e4WKaSJY+KpRJWUlducj03XFUq0+Dy35V1P8AK3WvIetyXXmfVWT/
ABFaxzCQxzPNCvoPEgDKJDJIhRvtBQe9Sqzj/nKLzfq99+amneSdb1CfR/Iw+pyXbwgkSxzPWa5Z
QP3npbqq7gFa0rirzzz2dH/LjXr1Py082RatoXmLT5rO7hjkEs0UUq8XjmdFVK1PKNlow3BFPtKv
pL/nERrE/lOPS1Fb6/mvp7jUYeZeS3duMUcbhviHKOFWHY12xV7ZirsVdirsVYr5U/K3yD5S1K51
Py7pEen314hiuZ0eVy6M4cikjuPtKDsMVZVirsVdirsVdirHta/L7ydrfmHTvMeqaZHda1pPA6de
M0gaIxuZEoqsENHNdxirtC/L3yboOu6lr+kaZHa6xrDO+pXitIzStLIZXJDsyjk55fCBirIcVYJ+
bP5Q+XvzF0J7G7WGz1Osf1fWhbxzXMSI4dkRiUbi4FCOWKon8uvyp8oeRtKtLfTLC2OqQwLBdayI
ES5uCAAzM/xMORFSvKmKsyxVLvMXl3RvMej3Gjazb/W9MugouLYu6BwrBwCY2RqclHfFVOy8q+XL
Hy4nlq20+FNBSE2w04ryhMLV5IytXlyqeVevfFWM+WPyL/KjyxrS63onl6K21OMsYrhpbif0y1am
NJpJEQ79VAxVOfOH5d+SfOVvHB5m0iDUlhqIZJAyyxg9Qk0ZSRQe4DYqx7Q/+ce/ya0S6+tWPle2
aahWt0894oBFDRLqSZR160xVNvKn5T/l95S1KXUvLekLpl5MhjmeGWfi6E14tG0jIRXcfDt2xVlu
KuxV2KuxV2KuxV2KuxV2KuxV2KuxV2KuxV2KuxV2KuxV2KuxV2KuxV2KuxV2KuxV4F+UP/OSWt+e
vzEbyrd6NbWduI7mT6zFJIz1g6Cjbb4q99xV2KvnaT/nKDXkt/zAl/QlqT5OkjS2HqSfvw+orZfv
PD4X5bd8Vev/AJW+cbnzn5B0jzNc26Wk+pRu728RLIpSV49i2/7FcVZViryL8+fz1b8trbTRplva
6pf3k0kdzaySkNCsaKwLBCWBPMUriqRRf85KXb/mnpHk36np/wCj72G0e+1T6yeMTz2i3MoBNE+A
txFTX6cVe9AhgCDUHcEdCMVeL/m9/wA5PeWvy/1l9AtdOk1vW4AjXcKyi3gh9RQyq0pWUl+LBuIT
6cVeV/kx/wA5ReY5fOkmnebmu9XttduYbXSYYFgrayzTFFWnGIup9RVJ5V26HFX15irw382v+cid
Y8ted18jeT/L51/zAkaSXKn1Hozxev6UcMI5uRDRy3LYYqmf5Yf85F6B5t8j655k1e3/AEPL5aRZ
NWhD+ohSRWMTRMQpJlaNlVOvLbeoxVNvyP8AzJ80fmHoN35g1XSIdJ0tpjDpQjd5JJglfVdiwUcV
NFBHUhulMVQX55fn3pv5YxWdpHYnVNc1BGlgtS/pRRxKePqSvRm3bZVA3odxiry+w/5zE806Zqlt
H5z8nmx067pLHJD60Ewt2PwyxpcDjMPkVBxV9P2F7a39jb31pIJbW7iSe3lHRo5FDIwr4qcVeZ+Y
Pzh1LS/zx0T8uY9PhkstVt1nkv2dxKhZJmoFHw/7pH34q9TxV2KuxV8Qf84sf+T5f/jBf4q+38Vd
iryR/wDnGXyG0XmqI3+qcfN7q+pH1besZS7W9Hof6P8AD+8Wnxcvh998VZ/5J8oab5O8rWHlrTJZ
prHTkZIJLlkaUh5GkPMosandz0UYqnmKvhH/AJyhsvKJ/Mu5v9E1pdQ1C/nlj1u1pRbKe29O3EZN
PFGr8sVYxpfk38vrz805fLkvmUw+Ug8iQeYCq1k4xVSi9Pjl+HFX6I2sAt7aKAHkIkVAx6kKKVxV
8Z/85Lfl75o8l/mEfzKsZYpNM1DUIZbSZwkjwXyx+oI5IZAVdT6DMpoRTY+6rGPyN/Mfy35b8+TX
XnHRkvV1i6t7iLUCi+pYXHqNIlzGjDlxPrVPFgePTl0xV974q+dfzX/Jv80Y/wA3E/Mz8upbefUZ
kUSwTtGjQyLa/UyQJv3bo8I8ag9sVfPWreXtW8qTXvkbVL9Y3uJLfUPOL2pEwgitgzQwepVVkkHr
livLi0jRrXkMVe9+Qf8AnK3yJZHR/LX+G7rQfLahbLT9QeRZUREPBXkUIvf+8ZWYg+OKpb/zmrZ+
TZE0e8k1H0vN8KGOHTUXn6tkzkl5CP7rg/LgT9rcUNKqq8L1Hzhq/n3UbFPPmum3stAsTFB+5rO6
QgVhiVQqtcTUHxSso23PQFV9sfkf+YXlvzn5NVvLmn3WnaVobR6TBDd8C3G3gj4gFGcGiMoxVF6r
+UXlvU/zL038w57m8XWtLiEFvbxvELVlVZFq6GJpCf3x6SDtirN8VdirsVeBflDpX5m2/wCYjTa/
+X+h+X9J9O5A1fT7G0t7nkfsL6sUjvR/2tt8Ve+4q7FXYq7FXYq+UPzh/wCccdV1L827K78t6Nc3
GgaxOl55jv8A6xFRJ7u9ka64CQqyhIiGFAeuKoT8vf8AnF+8m/NPWE8yaNd2Xku1e6k0Sczx85PT
ulForGN3aphJY1HbFX11ir40/wCcs/JHnvTdbvvNN5qKz+UtavrZLexjlkAiuYrRo4vUt2+DkIop
KOpPU9K4qhfy/wD+cd/zO893/l/XPNsiW3lhLSy+qzyyxSyyaZFEpt4YIYS/ENHQfvOJFSSCdiq+
1cVSfzjqWuab5Y1G80HT21XWo4T+j7BSq+pO3wpyLsg4KTybfoDTfFXz35Z/5xx8zXn5SebH134P
zD81OLhjcOrFBb3K3KxO6ErW4kQs5rTdf5cVefwfk5+eHm208qeSNX8vDSNH8tPdxrqsnBQsV5OJ
Z3dldllKlaJ6Y3792xVnH/OSX5E+f9c88jzp5Vtl1WKSGAXFmGjE0UtuOIKxykLIjKqmgqa12pir
B/NX5X/n9+aHmKK/1fylbaXfpCIp78KlmkqoPgM3KRy7CnEFVrTboBRV7B/zjRYfmZ5P05/KHmfy
jJY6Y0slxbaxE8DUlfd1uVWVmYHiAjqNtgRTcKvfMVdirsVdirsVdirsVdirsVdirsVdirsVU57e
3nQJPEkqA1CuoYV6VocVXoiIioihUUAKoFAANgABireKuxV2KuxV2KuxV2KuxV2KuxV2Kv8A/9k=
									</xapGImg:image>
							</rdf:li>
						</rdf:Alt>
					</xap:Thumbnails>
				</rdf:Description>
				<rdf:Description  rdf:about="" xmlns:dc="http://purl.org/dc/elements/1.1/">
					<dc:format>image/svg+xml</dc:format>
				</rdf:Description>
			</rdf:RDF>
		</x:xmpmeta>
<?xpacket begin='﻿' id='W5M0MpCehiHzreSzNTczkc9d'?><x:xmpmeta xmlns:x='adobe:ns:meta/' x:xmptk='XMP toolkit 3.0-29, framework 1.6'>
<rdf:RDF xmlns:rdf='http://www.w3.org/1999/02/22-rdf-syntax-ns#' xmlns:iX='http://ns.adobe.com/iX/1.0/'>

 <rdf:Description rdf:about='uuid:b52238b0-f70a-11dc-ba0e-001124808cba'
  xmlns:pdf='http://ns.adobe.com/pdf/1.3/'>
 </rdf:Description>

 <rdf:Description rdf:about='uuid:b52238b0-f70a-11dc-ba0e-001124808cba'
  xmlns:tiff='http://ns.adobe.com/tiff/1.0/'>
 </rdf:Description>

 <rdf:Description rdf:about='uuid:b52238b0-f70a-11dc-ba0e-001124808cba'
  xmlns:xap='http://ns.adobe.com/xap/1.0/'
  xmlns:xapGImg='http://ns.adobe.com/xap/1.0/g/img/'>
  <xap:CreateDate>2005-10-18T08:31:30Z</xap:CreateDate>
  <xap:ModifyDate>2008-03-21T05:59:11Z</xap:ModifyDate>
  <xap:CreatorTool>Illustrator</xap:CreatorTool>
  <xap:MetadataDate>2008-03-21T14:42:07+09:00</xap:MetadataDate>
  <xap:Thumbnails>
   <rdf:Alt>
    <rdf:li rdf:parseType='Resource'>
     <xapGImg:format>JPEG</xapGImg:format>
     <xapGImg:width>196</xapGImg:width>
     <xapGImg:height>256</xapGImg:height>
     <xapGImg:image>/9j/4AAQSkZJRgABAgEASABIAAD/7QAsUGhvdG9zaG9wIDMuMAA4QklNA+0AAAAAABAASAAAAAEA&#xA;AQBIAAAAAQAB/+4ADkFkb2JlAGTAAAAAAf/bAIQABgQEBAUEBgUFBgkGBQYJCwgGBggLDAoKCwoK&#xA;DBAMDAwMDAwQDA4PEA8ODBMTFBQTExwbGxscHx8fHx8fHx8fHwEHBwcNDA0YEBAYGhURFRofHx8f&#xA;Hx8fHx8fHx8fHx8fHx8fHx8fHx8fHx8fHx8fHx8fHx8fHx8fHx8fHx8fHx8f/8AAEQgBAADEAwER&#xA;AAIRAQMRAf/EAaIAAAAHAQEBAQEAAAAAAAAAAAQFAwIGAQAHCAkKCwEAAgIDAQEBAQEAAAAAAAAA&#xA;AQACAwQFBgcICQoLEAACAQMDAgQCBgcDBAIGAnMBAgMRBAAFIRIxQVEGE2EicYEUMpGhBxWxQiPB&#xA;UtHhMxZi8CRygvElQzRTkqKyY3PCNUQnk6OzNhdUZHTD0uIIJoMJChgZhJRFRqS0VtNVKBry4/PE&#xA;1OT0ZXWFlaW1xdXl9WZ2hpamtsbW5vY3R1dnd4eXp7fH1+f3OEhYaHiImKi4yNjo+Ck5SVlpeYmZ&#xA;qbnJ2en5KjpKWmp6ipqqusra6voRAAICAQIDBQUEBQYECAMDbQEAAhEDBCESMUEFURNhIgZxgZEy&#xA;obHwFMHR4SNCFVJicvEzJDRDghaSUyWiY7LCB3PSNeJEgxdUkwgJChgZJjZFGidkdFU38qOzwygp&#xA;0+PzhJSktMTU5PRldYWVpbXF1eX1RlZmdoaWprbG1ub2R1dnd4eXp7fH1+f3OEhYaHiImKi4yNjo&#xA;+DlJWWl5iZmpucnZ6fkqOkpaanqKmqq6ytrq+v/aAAwDAQACEQMRAD8A9KaVpWlnS7MmzgJMEdT6&#xA;afyD2xVUtrXy/dCQ20NpOIpGhlMaxuFkjPF0biDRlOxHUYqrfonSv+WKD/kUn9MVS3y1pWlny5pR&#xA;NnASbO3JJjT/AH0vtiqMu7Xy/Z27XF3DaW9ulOc0qxog5EKKswAFSQMVVv0TpX/LFB/yKT+mKpb5&#xA;Z0rSz5c0omzgJNnbkkxp/vpfbFUe9hoiSxxPbWyyy19KMpGGbiKtxFKmg64qv/ROlf8ALFB/yKT+&#xA;mKpb5f0rSzYSk2cB/wBMvhvGna8lHhiqMhtvL080sMMVpLNAeM8aLEzIT2cDdfpxVVXS9IYVW0ty&#xA;KkVEaHcGhHTxxVLvL+laWbCUmzgJ+uXw3jTteSjwxVHR2OhSSyxR29q8sBAmjVIyyFhyUMAKiqmo&#xA;rirrex0K5t4rm2t7We3nRZIZo0jdHRxVWVgCCCDUEYqgfL+laWbCUmzgP+mXw3jTteSjwxV2sX3k&#xA;rRTCNWl0+wM/L0RcelHyCU5sOVPhXkOTdBXfFUxXS9IZQy2luysKqwjQgg9xtiqXaVpWlm/1kGzg&#xA;IF4gH7tNv9Dtz4YqmX6J0r/lig/5FJ/TFXfonSv+WKD/AJFJ/TFUt0rStLN/rINnAQLxAP3abf6H&#xA;bnwxVMv0TpX/ACxQf8ik/pirv0TpX/LFB/yKT+mKpZ+jtP8A8S+j9Wi9L6nz9PgvHl6tOVKUrTFU&#xA;w0+VIdEtppK8I7ZHfiCxosYJoqgsfkBirFk13TdP1K98ynSdYstNu4k/SN3JAiWx9IfDdS2pb66j&#xA;rH8LOYh8AHP7I4qs2BDAEGoO4I6EYqlnlogeWdKJ6CytzsKn+6XsMVY7qut2GoTWWq3ej6y2j6VI&#xA;10sjW6RwGRR8E8tpIy3z+juyfuqA/FQsqlVWZwyxTRJNE4kikUPG6mqsrCoII7EYql/lj/lGtJ/5&#xA;g7f/AJNLirCNVhsdUurvWpNN1ueZWRtM1yO1WJ9NSEVX6razOl04Z+TS0gb1QeLBk4qFXodheW97&#xA;Y295bSrcW9zEk0M8f2HSRQyuvXZgajFUH5e/3gl/5jL7/qMlxVh8th5a9JRZ+WtXf6hJKV1u1j+p&#xA;3avI5klZHeW2u5hI7EtwR1fwIxVl3le30iHQbT9ESvPp84a6inkZ3eQ3LtO8jtJ8XJ3kZjXoTSg6&#xA;Yqu8vf7wS/8AMZff9RkuKpUNetrfUL+bTtB1S7aSXjf3ccIiQvAPRqi3csDyABKAwowbqK4qmvlq&#xA;TR30DTxotRpUUCQ2aESBkjhHpiNxL+8Vk48WD/ECKHfFXeXv94Jf+Yy+/wCoyXFWJ+YrnW28xXN7&#xA;5bsLme5Ft+jb+S4sVe3VEd5FkgNxcWLScWkbmIuaybd1xVk3k46aPK2lwaZJJLZWdulnE06skwNo&#xA;Pq7rMrAMsiPGVcEVDA4qraT/AL361/zGJ/1B2+KpnirsVSzSf979a/5jE/6g7fFUzxV2KpT/ANNV&#xA;/wBGP/M7FVO51ePRvJz6tJG0yWFh9YMKEBn9OLlwBOwLUpU7Yqk2s6d5mby7qF7rvmAadHHaTS3N&#xA;vp0FuLeNFjZnV5byO6eQKK1eiV68V6Yqn3lQlvK+jkmpNjbEk9SfRXFUNYanb6V5EttUuQxt7DS0&#xA;upggqxSG3DtxG29FxVCLYebbmzN7rOujRV4GWW006K3ZIFC1ZJLi8S5EvD9pwiA+AxVEfl2Q35f+&#xA;WSDUHSbEgjoR9WTFUTodzFa+UNPupq+lBp8MslBU8UhDGg+QxVK9Mh8261p8GqXur/oWG7jWeGx0&#xA;6KB3hjcc1Wa4ukuUkcKRyKRovhX7RVVvyzkik8gaDJDL68LWcZim2+NKfC3whV3HgAMVTPy9/vBL&#xA;/wAxl9/1GS4qkmjt5o8y6ba6y2qnRtP1CJLmys7KGGS4WCVQ8XrT3K3EbOykFgkQC/Zq1ORVV/y1&#xA;eJ/Jli8Vx9ajL3PC5qh9QfWpfj/dhU+Lr8IA8MVTTy9/vBL/AMxl9/1GS4qkuky+Z/MtmmqrqY0b&#xA;Srur6fb2kMUl0YCf3ck01yJow0i0bgsPwVoWY4qv/LRo28rOY7pr5RqmsL9cb0+UpXVroFz6Sxx7&#xA;kfsqB4Yqm/l7/eCX/mMvv+oyXFUnsZvM3mJZbyDURo2lCeaG1jt4Y5ruRbeVoTK8s4liUSFCyoIi&#xA;QKVavwhVf+X/ANXGm6jHDeSX4i1S+jlupfS9RpVnYS8vQWOMEPUbKMVTXSf979a/5jE/6g7fFUzx&#xA;V2KpZpP+9+tf8xif9QdviqZ4q7FUp/6ar/ox/wCZ2KqtrZ2t75eis7uJZrW5tFhuIXFVeOSLi6sP&#xA;AqaYqlX+BLKZYrfUdS1DVNMgZWh0u8mR4PgIZBKVRJrgKQNriRx44qnum2EGnada6fbljBZwxwRF&#xA;2LPwiUIvJj1NBucVQXl6GKfyrpsMyLJDLYwJJGwBVlaFQVIPUEYqlsfkGw+rpYXGpahd6LGAsekT&#xA;zq0HAbCN3CLcSoOnCWVlI2IIxVPtL0210vTbXTbQFbWyiS3t1JqVjjUKi19lFMVQvloBvLOlAioN&#xA;lbgg9CPSXFUqH5fad9UGmPqGoPoCr6a6G0y/VhGNhEXCC5aKnw+m0xTj8NOO2Kp9pemWml2EVjaK&#xA;VtoeQiQmvEMxbiPACtAOw2xVD+Xv94Jf+Yy+/wCoyXFUrXyDYpC1jDqWowaKxP8AuGinCW6qxJMa&#xA;SBPrSR70EaTBANgANsVTnRtG0/R7BbDT4hDaJJNLHEtAqmeVpmCgUAUNIaDsMVUvL3+8Ev8AzGX3&#xA;/UZLiqWv5GtKTW9vqeo2el3DvJNpdvOqQ8pWLyBJOBuYlZmJ4xSqo7ADFU10PQ9M0PT107TIRb2M&#xA;bu8NuuyR+oxcrGo2VanYDFVnl7/eCX/mMvv+oyXFUvfyVbie4NnqmoafZ3krz3Wn2sypC0khLSMj&#xA;MjTQc2JZvRkSrEnqcVTHQvL2k6FbS2ulwi3tZZBL6K/ZVhGkfw133EYJr1NTirWk/wC9+tf8xif9&#xA;QdviqZ4q7FUs0n/e/Wv+YxP+oO3xVM8VdiqU/wDTVf8ARj/zOxVQ0qfzH+i7OljZkehHQm8lH7A/&#xA;5dsVRX1jzL/ywWf/AEmS/wDZLirvrHmX/lgs/wDpMl/7JcVS3y1P5j/w5pXGxsyv1O34k3coJHpL&#xA;1H1Y4qmX1jzL/wAsFn/0mS/9kuKu+seZf+WCz/6TJf8AslxVLfLU/mP/AA5pXGxsyv1O34k3coNP&#xA;SXt9WOKpl9Y8y/8ALBZ/9Jkv/ZLirvrHmX/lgs/+kyX/ALJcVS3QJ/Mf1GXjY2ZH1y963co3+uS1&#xA;/wCPY98VTL6x5l/5YLP/AKTJf+yXFXfWPMv/ACwWf/SZL/2S4qlugT+Y/qMvGxsyPrl71u5Rv9cl&#xA;r/x7HviqZfWPMv8AywWf/SZL/wBkuKu+seZf+WCz/wCkyX/slxVLdAn8x/UZeNjZkfXL3rdyjf65&#xA;LX/j2PfFUy+seZf+WCz/AOkyX/slxV31jzL/AMsFn/0mS/8AZLiqW6VP5j+vaxSxsyfricq3coof&#xA;qdv0/wBG8MVTL6x5l/5YLP8A6TJf+yXFXfWPMv8AywWf/SZL/wBkuKpbpU/mP69rFLGzJ+uJyrdy&#xA;ih+p2/T/AEbwxVMvrHmX/lgs/wDpMl/7JcVd9Y8y/wDLBZ/9Jkv/AGS4ql3ra5/iHl9UtfrP1Snp&#xA;/WZOHD1ftc/Qryr24/Tiqc6T/wAcqy/4wRf8QGKpDoXmvUZvNeq+Wdas1tL22H1vSbmLk0F5YMQv&#xA;NWb7MsTnjKnaoIqDirKcVSzyx/yjWk/8wdv/AMmlxVKfOXmvUdMvNL0XQrNdQ8waxLSGKUssFvax&#xA;EG4urhl3CIpoo6sxAHfFWU4qlnlj/lGtJ/5g7f8A5NLirDdf/OBdO1fUUsdGl1Ty75ekjh80a9DL&#xA;RbOSQ/GkcIRzcG3Uh5+LD0we52xV6BbXNvdW8VzbSrNbzoskM0ZDI6OOSsrDYgg1BxVA+Xv94Jf+&#xA;Yy+/6jJcVYjbfmV5mSNNS1LyZfReXp5JEgvLJze3kcaSsiSXWnrFHPGrqvP916pA64qynypr82v6&#xA;OuqPp8+mxzTTrbQXStHM8EcrRxTtG6o8frIokCstQDiqr5e/3gl/5jL7/qMlxVS0nUtbudd1yzvb&#xA;D6tp1jLbppV5U/6VHJbpJK//ADzlZk+jFXeUNS1vU/LOnX+uWH6L1a4iD3mn1J9GSp+CpxVV8vf7&#xA;wS/8xl9/1GS4qxTzx518wad5gGjaPcaTYGDTX1a4udaaThMiyGP0YRG8PHjxJkkJbjVfhNcVZX5Z&#xA;1htb8t6VrLW7WjanZ2941q5q0RuIlk9NjQbryodsVdpP+9+tf8xif9QdviqZ4q7FUs0n/e/Wv+Yx&#xA;P+oO3xVM8VdiqU/9NV/0Y/8AM7FVazW5bQIFtXWK5a1UQSSKXRZDGOLMoKlgD1FRiryXzj5puvK2&#xA;m31xL+bVrL5msIpJk0S4i0pLeaSJS4t2t44/rcYkI4g+tyFe+KvW9B1RdX0LTtVVPTXULWG6WM9V&#xA;E0ayU+jliql5bDnyxpYQgP8AUoOJIqAfSWlRUV+/FXmPmvXL3y9Z3f1/83bW18ywIXi0yWHSYrYy&#xA;BSwie2aN7tUcgDl69R44q9L8n64+v+UtE12SMQvq1ha3zwqahDcwrKVBPhzpiqp5Y/5RrSf+YO3/&#xA;AOTS4q8z8wXkuhR3EGsfm5Z6VrTAsunm30mC0DOK0ktZUmuijGlT61ad98VZ3+W/mV/M/kPQdfeF&#xA;LeXULOKWWCMUjSTjxcICTReQPH2xVMfL3+8Ev/MZff8AUZLirAPNGoXGjz3I1z82oNC1CQmS0sBB&#xA;pUMUak/ADBcpcXUi0O59UV67Yqyr8sfNF35o8iaRrt56X1u7iYXD2/8AcvJDI0LSR9fhcx8h7HFU&#xA;18vf7wS/8xl9/wBRkuKsE803s+kXly+v/mtD5elkZ3sNPjh0qBY42f8Adho7xLmeaiGjEOKnfbFU&#xA;+/KfzddebPJFnq13LDcXYlubSe6thxgna0uHgE8Qq1FlWMP9OKp75e/3gl/5jL7/AKjJcVed/mLp&#xA;GjS3rS+dPPlhpkCSNPounXFno9IBWiOP0lFeSyuKbshWvYDFWR/lJ5su/M3lNru7urfUJ7O9u7D9&#xA;J2gCwXaW0pSO4RVJC+pHxJANK9MVZDpP+9+tf8xif9QdviqZ4q7FUs0n/e/Wv+YxP+oO3xVM8Vdi&#xA;qU/9NV/0Y/8AM7FUs80WuuXf5Z6la6CxTWp9Jkj09lbg3rtbkJxb9lq9D2OKvP5da0v/AJVzd+Uf&#xA;IPlDUYNavrCSyksJ9Pnso7V5YjHJLeXc0UcMrJUn4HdpG6da4q9L8gxTw+RPLkVxDJb3Eel2STW8&#xA;yNHLG626BkkRgGVlOxB3BxVDmDVrj8tTBo0npavNo3p6bLXjxuWtaQtWopR6Yq8/8t67pml+R4vL&#xA;XlPyrqMHm+4tBbXNrPp1zbLHeOnCS4vr+WMQugcl2cSOWH2ak4qzz8qoryD8svKtte2stnd2uk2d&#xA;tcWtwjRSxyQQLEwdHCspqnQjFUdpaXj+SbRLFgl62mxrau3RZTAAhOx6NTFXmnkXzFZeW/Jtto+j&#xA;+U9TPn70Fi1CzlsJ4zNqBAEtzdam8a2zRPL8Zk9U/CRQfs4qzH8ltL1DSvyt8vaZqNvJa31lbmC4&#xA;gmRkdXjkdT8LAGhpVT3G+Ksh0ISHTJxGQshu7/gxFQD9cmoSNsVeV/l5r1j5S8rpp0vlfVbj8xG5&#xA;jV4l0+4aW+vmc8531Nk+rNDI3xCRpqKvbamKsx/Jaz1qy/LnTrPW7ZrTVrea+jvIWR0Bf69MeaB1&#xA;QmOQEOhpupGKsl8vf7wS/wDMZff9RkuKvK/Imt2PlPTry11Ly1qlz+YUl1dPfvFp8876hM8zmOWP&#xA;URH9XELIVC85VCKKEbbqso/JLT9e0/ybPba/ZNYat+ldTluYCDwrNeSShomIHONg/wALjqMVZZ5e&#xA;/wB4Jf8AmMvv+oyXFXl3k/V9L8oz60df0DU7rz3c6jeyy3ttplzeSX8Mk7G0+rXiI8KQrbFECPKg&#xA;TiagYqyX8m4fMceja4fMOnvpmpT65fXT27A8eNyUnX03Kqsir6nDmtVJU74qyzSf979a/wCYxP8A&#xA;qDt8VTPFXYqlmk/7361/zGJ/1B2+KpnirsVSn/pqv+jH/mdiqL0n/jlWX/GCL/iAxVF4q7FUs8sf&#xA;8o1pP/MHb/8AJpcVTPFXYqlnlj/lGtJ/5g7f/k0uKpnirsVSzy9/vBL/AMxl9/1GS4qmeKuxVLPL&#xA;3+8Ev/MZff8AUZLiqZ4q7FUs8vf7wS/8xl9/1GS4qmeKuxVLNJ/3v1r/AJjE/wCoO3xVM8VdiqWa&#xA;T/vfrX/MYn/UHb4qmeKuxVKf+mq/6Mf+Z2KqGleX7A6XZky3m8EZ2vrwfsDwlxVFf4esP9+3n/Sd&#xA;ef8AVXFXf4esP9+3n/Sdef8AVXFUt8taBYt5c0pjLeVNnbk0vbwDeJewlpiqZf4esP8Aft5/0nXn&#xA;/VXFXf4esP8Aft5/0nXn/VXFUt8taBYt5c0pjLeVNnbk0vbwDeJewlxVMv8AD1h/v28/6Trz/qri&#xA;rv8AD1h/v28/6Trz/qriqW6BoFi1jKTLef72Xo2vbwdLyUdpcVTL/D1h/v28/wCk68/6q4q7/D1h&#xA;/v28/wCk68/6q4qlugaBYtYyky3n+9l6Nr28HS8lHaXFUy/w9Yf79vP+k68/6q4q7/D1h/v28/6T&#xA;rz/qriqW6BoFi1jKTLef72Xo2vbwdLyUdpcVV9QtvLWmiI6jqUtkJ3EcBuNTuYubnoqc5xyPsMVR&#xA;f+HrD/ft5/0nXn/VXFUt0rQLE32sj1bz4bxAKXt4P+PO3O/73fFUy/w9Yf79vP8ApOvP+quKu/w9&#xA;Yf79vP8ApOvP+quKpbpWgWJvtYHq3nw3iAUvbwf8edud6S79cVTL/D1h/v28/wCk68/6q4q7/D1h&#xA;/v28/wCk68/6q4ql36Fs/wDEX1f1Lr0/qnqV+t3POvq0/vPU58f8mtMVTbTpoodFtppnWOKO2R5J&#xA;HIVVVYwSzE7AAYq8Z8reYPyq8sfmZqNz5b876TBoGv8AxanoDSj0k1AVpcWswPooHBo61p/woVV7&#xA;mCCKjcHocVSzy26J5Y0t3YKi2UBZiaAARLUk4q8g/MXzN+VvnbzPo2lat560pfKemy/WdQ0dJgfr&#xA;t2pIiSa4B9IQJ1I5bmtexCr3CERLEghCiIKBGEpxC02402pTFUv8sf8AKNaT/wAwdv8A8mlxV87+&#xA;Z7nQNZ1zXNV1b809P07zYLiIeU4tOvZP0fYR2z8kS4IASRpGJEpYbdenwhV9GaDNqE2i2MuoyW0t&#xA;9JCjXE1kzPbSMVrzhZgp4N9ofx64qp+Xv94Jf+Yy+/6jJcVeCfVPy78uTUtvzgfT/PXrSyapq6z/&#xA;AFm0uZZZWPG5sZZZ4AI1IQASAim5xV7P+XPl39BeVobdtabzDLdyS382sNxCTvdOZeUSozqkXxfA&#xA;qsRTFU08vf7wS/8AMZff9RkuKvOIPM35P+UPM3mo3nnWD9I+YrhXvrSW4RxayRq0ZRPTB4fb3DGt&#xA;cVZv+XWh6RofkrStL0fUW1fTLeI/VNSaRJjMkjtJy9SP4G+1QUxVMPL3+8Ev/MZff9RkuKvnT/nI&#xA;5vLeo+do511ny/qEyaVNo02kardyIdPuZJWb66iwcgJQG4kN8QoNj2Ve+/l5DBb+RNAtoNUj1qK2&#xA;sLeAarC4kjuDFGI2kVwWqCynvXx3xVHaT/vfrX/MYn/UHb4qmeKuxVLNJ/3v1r/mMT/qDt8VTPFX&#xA;YqlP/TVf9GP/ADOxVCatq+i6P5DuNT1wBtItNO9S+jKh+cQi+JOB2YuPhA71xV4p51bz1r/5Raxf&#xA;2/k3y75d8ntpk11BbXsjm/W3WMyxSwx20Ihjl2DIrN9qgOKvZfyunmuPyz8o3E7mSabRdOklkbcs&#xA;zWkZYn5nFVe01HTtM8gQ6lqR46dZaUtxesVLAQRWweQ8R1+BTtirxjWZ/OPmX8q9UvtF8keXtA8k&#xA;S6ZPcWsWpuwu2slhZ0uIobWH0on4APHybY0Ne+KvVPyYlkl/Kbyg8jF3/RNoOTGpoIlA/AYqnOjX&#xA;ttY+TbG9upBFa2unRTTynosccAZmPyAxV49FeeafNfkW8uPKXkny7onke5t5/qzayzRyz2nFg0y2&#xA;9nCyxcqVHJvf3xVmn/OOs80/5K+VXmcu4tnjDHrxjnkRB/sVUAYqzLQpEj0yeRzxRLu/ZmPQAXkx&#xA;JxV5FouqeZPOWhXVx5F8keXtP8mXbTpBd68zRfXo+bJLN9WtYWZFc8vtmp64qn//ADjBLJJ+Rflh&#xA;pGLsFvFBJqeKX86qPoUADFXoHl7/AHgl/wCYy+/6jJcVeT6Lr/mHzhBqN1+XPk3QIPLM1zcINX1s&#xA;mNNRk9RhcSpb2sMjlWfl8Tn4vvGKo3/nFppR+VSW7ujJaalfwwiJi0SoJy3GMtuU5MSK4q9L8vf7&#xA;wS/8xl9/1GS4q8r0/wAwa95n1DXP+Vc+TdETSYr6e3vdf1tjCl9eIx9dlgt4pJnFT9tzvXtQjFVf&#xA;/nGBJ4fI2s2kywxm08wajCsNqWNtGFZCUg5UPpBieNe2KvTdJ/3v1r/mMT/qDt8VTPFXYqlmk/73&#xA;61/zGJ/1B2+KpnirsVSn/pqv+jH/AJnYqh9Q8u6b5k8lPoOpqzWGpWK29xwPFwrxgclNDRlO4264&#xA;qwKb8i9Z1Py/H5Z8xeeNQ1Ty1bQ+ja6alvb2pPprxg+szRj1J1i2biSAxAJxV6N5V0JPL/lnStBj&#xA;na5j0q0gso53AVnS3jEalgu1eK4qhbHSbLWPIdvpF8pey1HS0tLpAaExT24jcA9qqxxVgcH5FavJ&#xA;oEHlTVfPGo3/AJNtU9GLR1gt7eR4E/uYZrtAZXjQADiKVG3SlFWf+SfK8XlXynpnl2K5e7i0uEW8&#xA;dxIArsqk8agEjYbYqu0extdQ8mWVhdp6trd6dFBcRkkBo5IAjrUb7qcVYDp35G6rb6LF5UuvO2o3&#xA;XkeElF0QQ28Mz23LkLaW+jHrNEd1YKFqppsMVZt+Xvk2DyX5O03yxBdPew6asiR3MqqjsJJXl3C7&#xA;fDzpiqN0KNJNMnjccke7v1ZT0IN5MCMVec6d+RWrafo7+VrXzvqUXkhnkpoqQ263At5WLPbC+oZR&#xA;GxY1oBsaYqzX8uvI1n5H8rQ+XLG4kubK2lnkt2lFGVZ5Wl4bE7KXOKpn5e/3gl/5jL7/AKjJcVed&#xA;ad+R2q6TYXPl7RvOuo6b5MuZpZP0LBBb+vFHOxaWGC+ZTLGjFuwqPmSSqy78t/y+07yHoE2h6bO8&#xA;1i13Pd26yAAxLOwIiBqSwSmxbfFU38vf7wS/8xl9/wBRkuKvP7f8l9b0yXU7Ty7521DRvLmrXUl5&#xA;caXDBbySxPOazLbXcgMkIbtRdvnvirI/yz/LXSvy+0nUNI0m4lm0+8v5b+GObdofVSNPSDV+JQIg&#xA;anfc4qnuk/7361/zGJ/1B2+KpnirsVSzSf8Ae/Wv+YxP+oO3xVM8VdiqU/8ATVf9GP8AzOxVQ0rV&#xA;b8aXZgaNeECCPcPZ7/APG4xVFfpa/wD+rLef8HZ/9lGKu/S1/wD9WW8/4Oz/AOyjFUt8tarfDy5p&#xA;QGj3jAWduAwezof3S7itwDiqZfpa/wD+rLef8HZ/9lGKu/S1/wD9WW8/4Oz/AOyjFUt8tarfDy5p&#xA;QGj3jAWduAwezof3S773AOKpl+lr/wD6st5/wdn/ANlGKu/S1/8A9WW8/wCDs/8AsoxVLdA1W+Fj&#xA;LTR7xv8ATL01D2fe8lNN7gdMVTL9LX//AFZbz/g7P/soxV36Wv8A/qy3n/B2f/ZRiqW6Bqt8LGUD&#xA;R7xv9MvTUPZ97yU03uB0xVMv0tf/APVlvP8Ag7P/ALKMVd+lr/8A6st5/wAHZ/8AZRiqW6Bqt8LG&#xA;Wmj3jf6Zemoez73kppvcDpiqZfpa/wD+rLef8HZ/9lGKu/S1/wD9WW8/4Oz/AOyjFUt0rVb4X2sE&#xA;aPeGt4hID2e3+h24oa3GKpl+lr//AKst5/wdn/2UYq79LX//AFZbz/g7P/soxVLdK1W+F9rBGj3h&#xA;reISA9nt/oduKGtxiqZfpa//AOrLef8AB2f/AGUYq79LX/8A1Zbz/g7P/soxVLv0jef4h9X9F3Xq&#xA;fVOP1flbc6erXnX1uHHt9qvtiqc6T/xyrL/jBF/xAYqw3yj+b2ka/wCdNW8l3Wn3ei+YtJX1GtL3&#xA;06Tx13eBo3cOKMre6mo70VZ7iqWeWP8AlGtJ/wCYO3/5NLirGPzF/NvRPJN/o+kyWdzq+ua5L6Vh&#xA;pNgEacrXj6jB2QKpchRU77+BoqzeF5HhjeSMxSMoLxEglSRupIqDT2xVL/LH/KNaT/zB2/8AyaXF&#xA;Xm/mb/nJnyBoOt6npb2eqajFo0sUGq6pYW8U1nbySniFkkMyNswKn4eoIFTir1Owv7PULG3v7GZL&#xA;izuo1mt54zyR43HJWUjqCDiqE8vf7wS/8xl9/wBRkuKvMdL/AOco/wAuru7T69b6lpGkXM0kOna/&#xA;e2pXT7lomKt6cqFyNx3Xb9qmKs7/AC//ADA0Tz3okutaLFcJYR3U1oj3KKhlMJAMkfB5AY2rsa19&#xA;hiqZ+Xv94Jf+Yy+/6jJcVSLRPzO0bWNR812FvZX0UvlBuF+80UapOf3v+8pEjF/7hvtBeoxVH+Q/&#xA;O2m+dfLVv5h062urS0uWkRIL5FinBicoeSo8i7ldvixVHeXv94Jf+Yy+/wCoyXFXmX5t/nrqXkzz&#xA;Knl/RdDj1e7t9ObWdTe4uktES0jZlZYuY/eSUQtRa7dAd6KvSfKXmS08zeWNL8wWcbxW2qW0d1HF&#xA;KKOgkWvFu1VO1RtiqppP+9+tf8xif9QdviqZ4q7FUs0n/e/Wv+YxP+oO3xVM8VdiqU/9NV/0Y/8A&#xA;M7FW1nvbfyuJ7G3F5ew2PqWtoXEYllWKqRlyDx5tQVptirwzzh5p/Ory6q+f/MfkzykRpifCvJpN&#xA;Yht2bi6RXXNl29U8uFep2xV7r5Y1+08w+XNM120VkttUtYbuJH+0qzIH4tTutaHFVLQpJo/KOnyQ&#xA;R+tOmnwtFCW4B3EIKryoaVO1aYq8S8x+Y/zz0NJfzB1XyT5TgksIGMgdmfWUtVBLxpdLJx+FWJKr&#xA;77Yq9q8leaLbzV5T0nzHbRNBFqlslwIHPIxlh8SFqDlxaorTfFVfy2K+WNLFK1soBQmgP7pe+KvA&#xA;dRt/zZ8veUtYu1/L3yfpPlieN7nVPL8rNLczxwgueTRyLBI4VagUrtsK7Yq9h/KHWtA1v8uNE1bQ&#xA;NOj0nTLuJ2j02KgjgkWV0mRaBRQSq29BXrTFU90BVbTplYBla8vwyncEG8m2OKvGta1H89bPQr30&#xA;fJHlSx8qWnqvFoF25kkkiRmk+BY3jt+T7sAVG/auKvRvyf8AN+mebvy80nXNO06PSbeZZI202EKI&#xA;oZIpGjdY+KoOJZeQ274qyDy9/vBL/wAxl9/1GS4q8z13zN/zkglxf3Wm+XvL1lpVrNKtrFqFzLJc&#xA;3EcbEIyNFJHGplVaqGp13xVlP5PfmTF+Ynke28xC2+p3Jkktr21DF1SaIivBiASrKysPCtO2Ksj8&#xA;vf7wS/8AMZff9RkuKvCvza8kfmV541u4vLvyT5dbTNGmlh0y81O9uY7q6tkkPD47Se3CrKdwkv2S&#xA;3zJVei/kV+YFv518hxXkelx6NJpU76TcadB/cRPbIhCw7CienItB26b0rirMNJ/3v1r/AJjE/wCo&#xA;O3xVM8VdiqWaT/vfrX/MYn/UHb4qmeKuxVKf+mq/6Mf+Z2KpB5/1HzBpv5R6rf8Al4MdYttKL2hQ&#xA;cnUiMcnQUNWRKsu3UYq+UNTj/JS9/Kk3dqNQ81fmne2f1m+uJHvnltJUAku5ptxD6MChvibly2J2&#xA;qQq+rfyRdH/KLyiUIYDS7ZSR4qgBH0EYqr6pe63Y/lLcXmhRmXWbbQzLpyKvNjOlrWPilDyPLovf&#xA;pir5Pjf8mNU/LC4v7/6/5r/NvUbedpFlkv2mt7ijkzNxKQmKBB6hLlq032qAq+nP+cep45/yX8qP&#xA;GaqLQxk/5Ucro3/DKcVT8XGqW35bi50mP1dVh0f1LCIioa4S1rEtN61cAYq+R9Kl/KDWfy+u7/zI&#xA;2pebfzd1FbmOLT3a+aeO6LOsPBYisZjjXi7ci3cU/ZxV9Df84tOjfkX5bCkEob5XA7H6/OaH6CMV&#xA;Z5p8l3HoF/JZoJbtJ9Sa3iPRpBdTFFPzbFXyL5bvPyp1/wAtajqX5g/pHzT+bF5PcQW+hyNfLMLj&#xA;kUt4Ykg9JFStOQJ+HcAbAYq9x/5xLnjl/JXTUQ1aC6vI5B4MZ2f/AIi4xV6hoHL9HTcQC31y/wCI&#xA;JoCfrk3U0OKvkLy1qn5W63Z61q35utqPmH8xzeTQW3lkm+Rww4iKC2S2KqtXqtC9F6ce5Veu/wDO&#xA;HSPF+VV5byKUnt9Yuop4mFGR1ihqrA9CK4q9h8vf7wS/8xl9/wBRkuKvkzStW/LDWtX81X/52TX+&#xA;o+cLbUprbTfLfK8UJCvERRWqW3pjk0hKUL0oAe9Sq9M/5w7Ii8jeY7F7c2VxbeYLky2Lci0Nbe3U&#xA;Rkt8VVMZXffbFXs+k/7361/zGJ/1B2+KpnirsVSzSf8Ae/Wv+YxP+oO3xVM8VdiqU/8ATVf9GP8A&#xA;zOxVF6T/AMcqy/4wRf8AEBiq6HTtPh9b0bWGP6wSbjhGq+oSKEvQfF9OKq8cccaBI1CIuyqoAAHs&#xA;BiqXeWP+Ua0n/mDt/wDk0uKouLTtPhllmitoo5Z/7+REVWf/AFyBVvpxVVihihjEcSLHGv2UQBQK&#xA;muwGKpf5Y/5RrSf+YO3/AOTS4qi47CxiuJbiO2iS4m2mmVFDuP8AKYCp+nFVWGGGFBHDGscY6IgC&#xA;jf2GKpf5e/3gl/5jL7/qMlxVFpYWKXTXaW0S3Tij3ARRIw8C9ORxVUhgghUrDGsak1KoAoqe+2Ko&#xA;Dy9/vBL/AMxl9/1GS4qjBYWIuzeC3iF4V4m54L6hUdudOVMVXxQQQgiGNYwxLMEAUFj1Jp3xVAeX&#xA;v94Jf+Yy+/6jJcVRZsLE3YvDbRG7A4i4KL6gXw505UxVUjggiLmONUMh5SFQAWY9zTqcVQGk/wC9&#xA;+tf8xif9QdviqZ4q7FUs0n/e/Wv+YxP+oO3xVM8VdiqU/wDTVf8ARj/zOxVQ0rSr86XZkazeAGCP&#xA;YJZ7fAPG3xVFfom//wCr1ef8BZ/9k+Ku/RN//wBXq8/4Cz/7J8VS3y1pV8fLmlEaxeKDZ25ChLOg&#xA;/dLsK25OKpl+ib//AKvV5/wFn/2T4q79E3//AFerz/gLP/snxVLfLWlXx8uaURrN4oNnbkKEs6D9&#xA;0u29uTiqZfom/wD+r1ef8BZ/9k+Ku/RN/wD9Xq8/4Cz/AOyfFUt0DSr42MtNZvF/0y9FAln2vJd9&#xA;7fviqZfom/8A+r1ef8BZ/wDZPirv0Tf/APV6vP8AgLP/ALJ8VS3QNKvjYykaxeL/AKZeigSz7Xko&#xA;rvbnriqZfom//wCr1ef8BZ/9k+Ku/RN//wBXq8/4Cz/7J8VS3QNKvjYy01m8X/TL0UCWfa8l33t+&#xA;+Kpg+m3iU565dryIVarZCpPQD/R8VXfom/8A+r1ef8BZ/wDZPiqW6VpV8b7WANYvBS8QEhLPf/Q7&#xA;c1NbfFUy/RN//wBXq8/4Cz/7J8Vd+ib/AP6vV5/wFn/2T4qlulaVfG+1gDWLwUvEBISz3/0O3NTW&#xA;3xVMv0Tf/wDV6vP+As/+yfFXfom//wCr1ef8BZ/9k+Kpd+jrz/EPpfpS69T6py+scbbnT1acKejw&#xA;49/s198VTjSgDpNmD0NvGNjQ/YHcYq8j8sab+Y/lf84J7M+YP8SeSNTRgtve38cl7YvUlAIpXEj8&#xA;HHAla8lNT8QxV7RiqWeWP+Ua0n/mDt/+TS4q8u/NC0/MvzL+YWi+X9A1xfLPlmAepqWoW17Cl7O7&#xA;1JRIA/rEKF4JtTkSTUAYq9ftbdbe2it1Z3WFFjV5XaSRgopV3YlmY03JNTiqXeXnePyrprpG0rpY&#xA;wMsSlQzkQqQoLFVqem5AxV8/6tpX/OR+qz6/qNx5oh8uau00Z8v+VYby1KSRlqOhevwlI6UJ+01a&#xA;0xV715Ku/NN15ZspPNVimn6+E4X8EUkcsbSLt6kbRlhxf7XHt0xVU0lrldFu2tUWS5W51AwRueKt&#xA;ILubiGPYE4q8H0/y5/zkloCwapJ560+78wXMrm88ratKht2TkeHouD+0CDxQR06VxV6x+UWjfmHp&#xA;nlu4Pn3UFv8AXLu8luFSN/Ujt4CFVIUNBsCrN364qyXy9/vBL/zGX3/UZLirz3Q9F/MHRr7zcnmP&#xA;zpaS/ppZV8qwSTcGs3kMvpbOifZ9SP7PLpirJfyt0DzvofllrLznrSa7q7XEkq3yFmHosqhEqyxn&#xA;Yhj074qnvl7/AHgl/wCYy+/6jJcVfOP/ADlD5Y8w3/niyvJdNn1vRZtKez0m1trtbc2upu78bh4y&#xA;CWG69qNShb4aYq99/Liw1/T/ACHoNl5hmNxrVvZQpfSlxITIF6NIPtlRsWqanep64qmOk/7361/z&#xA;GJ/1B2+KpnirsVSzSf8Ae/Wv+YxP+oO3xVM8VdiqU/8ATVf9GP8AzOxVLfM0uhxfltfnXbxtP0dt&#xA;KeO+vYyRJFFJBwLx0DHmOXwUB+Km2KvjDzjpf5eS+R7nV/JfkjzBDaWzxiHzlfzOIKidYyXRQ0J5&#xA;k8PhZaNT5Yq+wvyX1bUNW/Knyvf6hM1xeTWEQmnc1dylUDMT1Yhdz3OKo8yaZH+WwfVbn6npg0cf&#xA;XbsEqYoTbUkcEbgqtSKYq+NPMmi/lpdeTNRv/JnknzHd21rUL5zvJWWAPGw5SOiK0LA9CPhIr2OK&#xA;vqr/AJx31vUda/Jny1qGozPcXbRTwvNIxZ2W2upYELMdyeEQ3OKsq0yeyt/JFpPfyiCxi0yN7qdj&#xA;xCRLbgu5btxWprir4w1/R/ysvfKusXPkzyb5j1qOySTn50upXSFJUHJpnRVMZXuysFah7HFX0x/z&#xA;jHrGo6r+TGhz6hO1zPCbi3WWQlnMcNw6RqSevFAFHsMVZ9oksUOl3E0riOKO7v3kdjRVVbuYkkns&#xA;Bir4z1bQ/wApb/SNcbyb5P8AMnmg2az+r5teZ0gjlCM/rUVWVkXZqSKGK9fHFXvn/OJet6lqv5Q2&#xA;63873DafeT2du8jFmEKBHRKnei+pxXwG2KvUtAIXT5iTQC8viSegH1ybFXx/r2mflDrVx5hPlLyl&#xA;5j853SPcSXXmNJnS2hkk5MHQqrKyJWq+otSB3G+KvYf+cOtY1HUPymnivZ2nTTdUns7PmSSkAggl&#xA;EYJ7B5mpir2Dy9/vBL/zGX3/AFGS4q+TvMWk/lBrfmvzHH5d8peY/PuqPdzy3+p2kzpbW8ksjHhA&#xA;yK/JErRDIprx25DFWff84Xa3qV75D1fTrqd5rfTb4CyV2Lemk0QZo0r0XkpaniTir3PSf979a/5j&#xA;E/6g7fFUzxV2KpZpP+9+tf8AMYn/AFB2+KpnirsVSn/pqv8Aox/5nYqk3nHybH50/LO68sPcG0/S&#xA;VlEiXIHLhInCWNitRUc0FRXpirxlv+ce/wA7NT8jjyTrPnHT4/LunpTTbK0ic+syMWhW5lMUThEY&#xA;8qfH0HehCr2z8rvK2peVPIOjeXdSmhnvdMhMEk1vy9JgJGKFeYVvsEV264qpah5Xg81/lb/hyeZr&#xA;ePVNKjt/XUcjGzQrxfjUcuLUNK74q8Zsv+cfPzsm8kSeQ9T836fB5Tt45jZWtnG7SzOWaWGO4kaG&#xA;N1i9c8mozGm2+1FXsH5OeSdT8j/l1pflfUp4bm6083HKe25+mwnuZJxTmFbb1adMVR36Ch8wflsN&#xA;CnkaGHVdHFlJKoqyLcWvplgD3HKuKvEdJ/5x6/OmDylc+Q5/OVhbeTD6zRRWsLtczeoxk9KRmjQx&#xA;xvJu3GRupG42xV6x+SfkLWPIfkG28tarcW91cWs08iTWvPgUmcyCvNUNQWPbFU9ttMg1Xyzqel3B&#xA;Zbe/l1O1mK7MEmuZ0anvRsVeG+Xv+ce/zm0rQr3yQnnGxtfI15JK031aFjeyxyrR4zziHpiSlGpK&#xA;1PcbFV6V+Q35aaz+XXkqbQNWure7uGvpbqOW15lPTkjjUA+oqHlyQ9ulMVZho9vHcaPdW8lfTmut&#xA;Qjemx4tdzA0+/FXg3lj/AJx6/OHy9Yal5Q0zznZ2XkfVJ3kupYYGbUGSVFjkCho6Rl40VTxm+XfF&#xA;XoP5Aflbrv5beVb/AEPVru1vTc37XsMtr6lAHhiiKt6ip/vkdMVZ55e/3gl/5jL7/qMlxV4J5c/5&#xA;x9/ODypJq+geVvN9lp3k3V5y8sxiZ9RSNhwPAGLiH9P4eQlHSo4nFWb/AJBflBrH5Z2OuWN/e297&#xA;BqF0k9m8HPmERWWkvNUFaU+z74q9E0n/AHv1r/mMT/qDt8VTPFXYqlmk/wC9+tf8xif9QdviqZ4q&#xA;7FUp/wCmq/6Mf+Z2KqGleYLAaXZgxXm0EY2sbw/sDwixVFf4hsP99Xn/AEg3n/VLFXf4hsP99Xn/&#xA;AEg3n/VLFUt8ta/Yr5c0pTFeVFnbg0srwjaJe4ipiqZf4hsP99Xn/SDef9UsVd/iGw/31ef9IN5/&#xA;1SxVLfLWv2K+XNKUxXlRZ24NLK8I2iXuIsVTL/ENh/vq8/6Qbz/qlirv8Q2H++rz/pBvP+qWKpbo&#xA;Gv2K2MoMV5/vZenayvD1vJT2ixVMv8Q2H++rz/pBvP8Aqlirv8Q2H++rz/pBvP8AqliqW6Br9itj&#xA;KDFef72Xp2srw9byU9osVTL/ABDYf76vP+kG8/6pYq7/ABDYf76vP+kG8/6pYqluga/YrYygxXn+&#xA;9l6drK8PW8lPaLFUy/xDYf76vP8ApBvP+qWKu/xDYf76vP8ApBvP+qWKpbpWv2IvtZPpXnxXiEUs&#xA;rw/8eduN/wB1tiqZf4hsP99Xn/SDef8AVLFXf4hsP99Xn/SDef8AVLFUt0rX7EX2sH0rz4rxCKWV&#xA;4f8AjztxvSLbpiqZf4hsP99Xn/SDef8AVLFXf4hsP99Xn/SDef8AVLFUu/TVn/iL6x6d16f1T06f&#xA;VLnnX1a/3fp8+P8AlUpiqb6Y/DR7R6FuNvGeKipNEGwGKsU8nfnP+X/m/Xrny/o19IdYtFd57K5t&#xA;5raQekwSRaTKlWRj8S9RirOMVSzyx/yjWk/8wdv/AMmlxVj/AJ+/N7yF5Cns7fzLqBtri/V3t4Y4&#xA;pJ3KoQCzLErFRU0Feu9OhxVldheR3tjb3kSyJFcxrKiSo0cgVxyAdGAZTvuDuMVQnlj/AJRrSf8A&#xA;mDt/+TS4qwDXP+cl/wAntF1a70q81l2u7GUwXBhtp5YxIuzKJEQq3E7GhxV6RpmpWGqadbalp86X&#xA;NjeRrNbXEZqjxuOSsD7g4qg9Elih0u4mlcRxR3d+8jsaKqrdzEkk9gMVYVov/OR35M6xqR0628xx&#xA;Qz8isb3cctrC9CR8M0yJH8qsK4qynyd+YPk/znFezeWdRGoxafN9XupFjmjVZKVoplRA4p3WoxVH&#xA;+Xv94Jf+Yy+/6jJcVYvpH54fldrEGsXGna168WgQNdas31W7T0YUJDNR4VL0I6JU4qnHkn8wvJ/n&#xA;jT59Q8r6h+kLO2l+rzy+jPBxk4h+PGdImPwsNwKYqmHl7/eCX/mMvv8AqMlxV53+Z35+WvkvzH/h&#xA;6w8v3nmHUbezOpamLU8EtbQVrI7cJCeIFTsFAI+LFWf+UPNOmea/LOneYtLLfUdShE0SyDi612ZH&#xA;AJHJGBU0NKjbFVXSf979a/5jE/6g7fFUzxV2KpZpP+9+tf8AMYn/AFB2+KpnirsVSn/pqv8Aox/5&#xA;nYqhtT8w23lzyNNr91DLcW2l2H1ueG3CmVo4ogzcQ7IuwFdzir5i1X84PJMXnK1/Me8/LLWNOvVk&#xA;T09cS4lto5fhK8mQRpDIzx1Ugt8Q2rir6n8q+ZtK80eXbDzBpLtJp+owiaAuOLgHYq43oysCrb9R&#xA;iqCt9Xg0X8votZuI5JoNN0lbyWGEBpXSC29RljDFQWIWgqRvir5m1z83/JN75st/zG1f8stYuXtm&#xA;h+q6vdXEotkVPhiKxGP6vVWPJRy+1vWuKvqDyV5w0fzj5YsPMmjs7afqCF41kAWRGRijo4BIDI6l&#xA;TQkeG2KoeH0/+VeRmU3AiGkqZDZkLc8RbAt6LEiklPsmo3xV8kW3mr8rNL8qaxb2v5Ya1N5Z1gwN&#xA;ca1dXDB+ET1iaOb0XSL42/Zf4q0JOKvpb8hT5Lf8uLGbybJefoKaSV4rS/k9SW2l5Umh/wAkc6tQ&#xA;Gm9R1xVktvY21/5Y1OxuUeS2u5NTgnSI0kZJLmdWCH+Yg7Yq+RpvM35Pv5UFvbflLql55ftC7x+Y&#xA;ZJGhuArOWJkuoY2BC8tlaRgMVfRn/OPT/lzN+XcVx5DtJbLTZbiT67BctzuBdqFDiV6sGPDhxoac&#xA;abDFWc+Xv94Jf+Yy+/6jJcVfMa/m7+X2kw67JoP5R3zaJexy2usXpBijliVj6qzFEnjUA1r+8xV7&#xA;J+Qmuflzrfk2XUPI2lDRbV7lk1HTqUZLpY0rUgsGBQrxYdfnUYqzjy9/vBL/AMxl9/1GS4q+Sfzi&#xA;82eWfOnmm91e18o+Zo5NMSbS9T1TTpVgjmggZ1lScCC6QAUYElvs/aG2yr3/APILzx5L8z+Qra28&#xA;qWsunWmiBbGXTrghpI2C8gxddnElS3PaprsMVZvpP+9+tf8AMYn/AFB2+KpnirsVSzSf979a/wCY&#xA;xP8AqDt8VTPFXYqlP/TVf9GP/M7FWJ/mp5t1byj+TWpeYNJRX1Gzs7Zbf1F5qpnkigMhU1Demshe&#xA;h2232xV8deZ/Mcevfl0ura35/wBU1jzVeXXCTyvL631WFEevqNyb0uPEBl4KPiNKbE4q+uv+capE&#xA;k/JDyuyGoEVwpPut3MrD6CMVR/m/zPqHlb8lrjX9OhW4vrDSYXgjdeScmjRObKOqpy5EeAxV8da7&#xA;5qbzL+XV7q3mP8wdT1HzTcXIji8pkS/VOAlRmkcVEAXgvMcFFGAFPBV9R/8AOJ5H/KktI9p7yv8A&#xA;0kvirLtZ1688v/lFc65ZRLPd6bon1qCJwSheK25LyA3Kgip9sVfGeo+cpfNPkPWNY81/mFqcvmF5&#xA;vRs/KUYkW1lRip5lVIgWPrUBRTj3qMVfSP8AziBLG/5OxKpq0WoXSON9iSrU+5hir0W71e40byPr&#xA;2sW0P1m401dXu4bff948E9xIqbb/ABFaYq+LZ/Pd35v8o+YtW83/AJg6lDrAPpaZ5StVlW1uBIvw&#xA;/AhWAR1JVhxqFG5JIGKvev8AnCoj/lVuqjv+nJ9v+jS1xV7HZ3cll5c1G8jj9aS2m1KZIRWrtHcz&#xA;sF2B60pir4oX8xL3zpofmXVfOv5g6jpl5DEw0ryxYrKltdNIjKkYSNhEsYPwNyWvE1JOKvZ/+cJJ&#xA;Yz5G1+IH94mph2XfYNbxgH/hTir3fRJGj0q5kVDIyXV+wRerEXcxoPnir4pi/M7UfPJ8y6j518+6&#xA;h5dEELyaX5c01ZlhuGblSBVjKx7Hiv7yrNUsW2JxV6Z/zg6R+i/Nw7+vZbf7CbFX0bpP+9+tf8xi&#xA;f9QdviqZ4q7FUs0n/e/Wv+YxP+oO3xVM8VdiqU/9NV/0Y/8AM7FVW0s7S90CC0vII7m1ntUjnt5l&#xA;WSN0ZACrowKsCOoOKsfsPyd/KywiuorTyvp0cd6np3QMCtzTkG4VblReSg0G22Ksi0TQtG0LTYtM&#xA;0azh0/T4SxitbdBHGpdi7cVGwqzEnFVDy/BBceVNNgnjWWCWwgSWJwGR0aFQysp2II2IOKpJYfk9&#xA;+Vtgbo2nlbTYzeo0Vx/o6Nyjf7SDkDxU+C0GKsg0Ly9oXl/Txp2iWEGnWKszrbWyCOMM32jxXapx&#xA;VT8uRxy+V9LjkUPG9jArowBVlMKggg9QcVSSx/J/8rrG5ubm08r6dFNdxyQzsIEIMcylZEVSCqB1&#xA;YqQoG23TFU88veWPL3lyxaw0HTrfTLJ5DM9vaxrGhkYBS/FdqkKBirfl8A6fMDuDeX1R/wBHk2Kp&#xA;HaflD+V9nqE2oW3lfTYrucOskgt0pSUFXCqRxXkCQeIG2Kpz5d8p+WvLVrLa6BpltpdtM/qyw2sa&#xA;xKz0C8iFA3oAMVX+Xv8AeCX/AJjL7/qMlxVJbf8AKX8s7bWW1qDyzp0epsxf6wsCbO3V1WnBW/yg&#xA;K4qmvlzyd5V8sxTxeX9KttKjuWVrhLWNYg7KCFLBQK0riqr5e/3gl/5jL7/qMlxVKF/Kr8t118+Y&#xA;B5b0/wDTBk9f636CcvWJ5erSnHny35UrXfriqYeXPJXlHyybk+XtHtNK+ucPrX1SJYvU9Plw5cQK&#xA;8ebU+eKq+k/7361/zGJ/1B2+KpnirsVSzSf979a/5jE/6g7fFUzxV2KpT/01X/Rj/wAzsVUNKg8x&#xA;/ouzpfWYHoR0Bs5T+wP+XnFUV9X8y/8ALfZ/9Icv/ZVirvq/mX/lvs/+kOX/ALKsVS3y1B5j/wAO&#xA;aVxvrML9Tt+INpKSB6S9T9ZGKpl9X8y/8t9n/wBIcv8A2VYq76v5l/5b7P8A6Q5f+yrFUt8tQeY/&#xA;8OaVxvrML9Tt6A2kpNPSXv8AWRiqZfV/Mv8Ay32f/SHL/wBlWKu+r+Zf+W+z/wCkOX/sqxVLdAg8&#xA;x/UZeN9ZgfXL3raSnf65LX/j5HfFUy+r+Zf+W+z/AOkOX/sqxV31fzL/AMt9n/0hy/8AZViqW6BB&#xA;5j+oy8b6zA+uXvW0lO/1yWv/AB8jviqZfV/Mv/LfZ/8ASHL/ANlWKu+r+Zf+W+z/AOkOX/sqxVLd&#xA;Ag8x/UZeN9ZgfXL3raSnf65LX/j5HfFUy+r+Zf8Alvs/+kOX/sqxV31fzL/y32f/AEhy/wDZViqW&#xA;6VB5j+vaxS+swfricq2kpqfqdv0/0nwxVMvq/mX/AJb7P/pDl/7KsVd9X8y/8t9n/wBIcv8A2VYq&#xA;lulQeY/r2sUvrMH64nKtpKan6nb9P9J8MVTL6v5l/wCW+z/6Q5f+yrFXfV/Mv/LfZ/8ASHL/ANlW&#xA;Kpd6Ouf4h4/W7X6z9Ur6n1aThw9X7PD168q9+X0Yqm2no8miWyJI0TvbIqyqFLITGAGAYMtR13BG&#xA;KvEfLvnD8/tA/NuPy75wsrjX/Kdw3oR61p+mt6CCX+4uGkt46JxYcZVc/CCT0AOKvfMVSzyx/wAo&#xA;1pP/ADB2/wDyaXFXjv5pedfz0ufzHs/K35d6VdWeloEjvNdubBmsnlko7v8AWJozGI4U2+E1ZqgV&#xA;NMVe1aTb31tplrb6hd/X76KNVub301i9WQD4n9NPhQE9AOmKpTaaoNK8h2upG2uLz6ppsMotLOJ5&#xA;7iUrCtI4o4wzMzHYfjtir51/x7/zlxqtjrmvWelz6XaWEqNb6NNpdLmSOeQgJbJLD6s3orTmcVe6&#xA;/lD5w8xeZ/J9vc+ZtHvNF8wW1INRgvLWW1ErqNp4RKqVSQbkD7JqPCqqYT6neaV5K1zVLK2N5eWH&#xA;6WurazUMzTSwzzukYVfiJdlC0G+KvnfRfzT/AOcsrOyTzJe+XG1nRZ5HU2LWQSaMI1DSK34XSDwZ&#xA;0Yd8Vesf84/eYvzW8xaNquqefrd7QSXCppFvLbC0kEaqTIeHFHK1ZQpbwOKs+0kzro12YBWcXOoG&#xA;IeL/AFubj198VeNeVPMX/OUk2m+Yn17RoobyHTi+gqI7Yepe+qgCHjKQf3ZY/FQYqzL8ldU/OLUL&#xA;XVT+ZVgljPG8I0wIsS8kIf1a+k8nQheuKs48vf7wS/8AMZff9RkuKvl7/nKHVPNlr+Yfp6je6vY+&#xA;XDpoPlr9FEiKXUSKBZjyjWvqV50q/HjQb4q+hfyim80Tflr5ek80iX9OtaL9c+sVEx+I+mZa78zH&#xA;xLV3r13xVPNJ/wB79a/5jE/6g7fFUzxV2KpZpP8AvfrX/MYn/UHb4qmeKuxVKf8Apqv+jH/mdiqR&#xA;+eHvk/KvUHsNXj0G9TTlaDV5n9KOBwqkMz0cqD9moUnfbfFXxJ5h856xp6pc6T+Zuta1qwkHqFDe&#xA;wQgUNWSeacSNQgAAxDb7sVfZf5B+cdX83/lXo2taxJ62puJoLqegX1GgmeJXIFBVlUcvfFUz1T62&#xA;PymnNlqKaTeDRK2upyv6UdvKLWqSvIQ3FVahY06Yq+I/Mvm/VrKM3Nh+aGr61rIkXmIDfQ2+3Vo7&#xA;iaaOQ8duP7kfRtir69/5xy85a35t/KvTtS1uY3Oowyz2st01OcoheiO9APi4kAnvSvfFWUH1/wDl&#xA;Wv8Ao96unXH6G/c6g7Kq27/VfhmZm+ECM/ESdtsVfD3mbzZq9nDLPD+aeq61ryOP3dob5bQsHo3C&#xA;6mlhaijdeMND7bYq+qv+cXvPWv8AnH8szd67cNeX+nX0unm7koZJUSKKVGcj7TATca9TTffFXoNg&#xA;rN5fv1Sf6qxn1ILckhRGTdTUep2HHrir4Y80eadXtYriV/zV1LWNejIHoWLXxsywPxKl1JLB8K78&#xA;SkJU9tt8VfTP/OKPnrzH5s/L26Ov3cl/d6ZfPaxXszF5nhMUciiRju7KXPxE1pTFXquhU/Rk9W4D&#xA;63f1cUBH+mTb77bYq+GPNnmXV7Zr1rv82NQ1fW4i4jg0w3klmzg7KLh5beNV67xRsvhUb4q+g/8A&#xA;nEj8w/M/mzytq9n5gvZdRn0e4iW3vbhi8zRTox4PIfifi0Z+JqnfFXs3l7/eCX/mMvv+oyXFXxH5&#xA;98wanaapqy3f5sX9/qlvJMtrZaabya2BDH04muDJbRLtTkYkcA+OKvaf+cPvzB81eZ9G8w6Zr9/N&#xA;qX6HktXs7q5cyzBLoTBo2karMqmCq8ievhTFXuek/wC9+tf8xif9QdviqZ4q7FUs0n/e/Wv+YxP+&#xA;oO3xVM8VdiqU/wDTVf8ARj/zOxVh/wCbPkfVfO/5P3Pl7SZEj1C4gtZbcSnijtA8cvps3blwoD44&#xA;q+boP+cf/wDnIW88kt5Yn0uystLsbn67BbNLYi4uZnPDeeFnJWNXZv3jjw3ooCr6Q/5x/wDJ/mHy&#xA;f+WVhoGv2y2upW01yzxpIkoKyzNIpDRll6Niqp548nah5y/JOby3p06299f6bafV5HJVC8JimCMR&#xA;UhZPT4E+BxV82ad+QP8AzkPJ5NvvKr6bZ2GkiYXvpPLYme6mUhRGJ4Wd+I+3SRgNvoxV9Df845+S&#xA;vM/k38uhoXmS1W0v4r2eRESVJg0UgRlblGWH2uQp7YqnPmLyxd+afyen8vWcywXepaRHBBLJXgHM&#xA;KlQ1N+JIofbFXy/o/wDzj/8A85Cx+V9W8pjTLKx0e7kF3O8stk81zJCQY4o5o2klVSyK1HKqPvBV&#xA;e9f84y/l/wCa/IvkbUNH8y2i2t5Nqcl5CEljmDRSW8EY3jLAfFCcVZfq2gT+Yvy/8waDbz/VZ9UX&#xA;VrSK4NaI01xOgLU341Pxe2KvljQP+cf/APnIWy0XXPK8On2VjpOpKZLm6klsnknNuC0cMUyF7hBK&#xA;ygUbivjSrVVe3f8AOMP5decvInlnWNL8zWaWktzerc2xSaOYMpiVG/u2alCnfFXon6LfVvKOsaUk&#xA;voPqDararNSvAzXE8Yam32eVcVfJ3l3/AJx8/wCcg9Jt9c8u2mn2FrpmsReje6nJLZy+pHFUhIHq&#xA;9ynq1puq+9MVewf84ufld518g2fmKDzPZJaG/ktXtGSaKYOI1lD/AN2zcePJevjir1nT7Q3mgX9o&#xA;JWhNxPqUQmT7SF7qZeS9NxWuKvknyz/zj3/zkDoF7rOi6baWEGm6xE1jea3JJaSqbferQFuV1EXV&#xA;iNkX33CkKvU/+cW/yq8+fl/P5kXzNYR2sOqLZm2kSeKarWxm5AiNmptN3xV7XpP+9+tf8xif9Qdv&#xA;iqZ4q7FUs0n/AHv1r/mMT/qDt8VTPFXYqlP/AE1X/Rj/AMzsVb0rVdLGl2YN5ACII6j1E/kHviqK&#xA;/S2lf8tsH/I1P64q79LaV/y2wf8AI1P64qlvlrVdLHlzSgbyAEWduCDIn++l98VTL9LaV/y2wf8A&#xA;I1P64q79LaV/y2wf8jU/riqW+WdV0seXNKBvIARZ24IMif76X3xVMv0tpX/LbB/yNT+uKu/S2lf8&#xA;tsH/ACNT+uKpb5f1XSxYSg3kA/0y+O8id7yU+OKpl+ltK/5bYP8Akan9cVd+ltK/5bYP+Rqf1xVL&#xA;fL+q6WLCUG8gB+uXx3kTveSnxxVMv0tpX/LbB/yNT+uKu/S2lf8ALbB/yNT+uKpb5f1XSxYSg3kA&#xA;/wBMvjvIne8lPjiqZfpbSv8Altg/5Gp/XFXfpbSv+W2D/kan9cVS3StV0sX+sk3kABvEI/eJv/od&#xA;uPHFUy/S2lf8tsH/ACNT+uKu/S2lf8tsH/I1P64qlularpYv9ZJvIADeIR+8Tf8A0O3HjiqZfpbS&#xA;v+W2D/kan9cVd+ltK/5bYP8Akan9cVSz9I6f/iX1vrMXpfU+Hqc148vVrxrWlaYq/wD/2Q==</xapGImg:image>
    </rdf:li>
   </rdf:Alt>
  </xap:Thumbnails>
 </rdf:Description>

 <rdf:Description rdf:about='uuid:b52238b0-f70a-11dc-ba0e-001124808cba'
  xmlns:xapMM='http://ns.adobe.com/xap/1.0/mm/'>
  <xapMM:DocumentID>uuid:831aaf18-81ce-11da-9137-001124808cba</xapMM:DocumentID>
 </rdf:Description>

 <rdf:Description rdf:about='uuid:b52238b0-f70a-11dc-ba0e-001124808cba'
  xmlns:dc='http://purl.org/dc/elements/1.1/'>
  <dc:format>image/svg+xml</dc:format>
 </rdf:Description>

</rdf:RDF>
</x:xmpmeta>
                                                                                                                                                                                                                                                                                                                                                                                                                                                                                                                                                                                                                                                                                                                                                                                                                                                                                                                                                                                                                                                                                                                                                                                                                                                                                                                                                                                                                                                                                                                                                                                                                                                                                                                                                                                                                                                                                                                                                                                                                                                                                                                                <?xpacket end='w'?>
			</metadata>
		<g id="レイヤー1">
			<g>
				<rect x="0.125" y="0.125" fill="none" stroke="#000000" stroke-width="0.25" width="100" height="150"/> 
				<rect x="100.125" y="0.125" fill="none" stroke="#000000" stroke-width="0.25" width="100" height="150"/> 
				<rect x="200.125" y="0.125" fill="none" stroke="#000000" stroke-width="0.25" width="100" height="150"/> 
				<rect x="300.125" y="0.125" fill="none" stroke="#000000" stroke-width="0.25" width="100" height="150"/> 
				<rect x="400.125" y="0.125" fill="none" stroke="#000000" stroke-width="0.25" width="100" height="150"/> 
				<rect x="500.125" y="0.125" fill="none" stroke="#000000" stroke-width="0.25" width="100" height="150"/> 
				<rect x="600.125" y="0.125" fill="none" stroke="#000000" stroke-width="0.25" width="100" height="150"/> 
				<rect x="0.125" y="150.125" fill="none" stroke="#000000" stroke-width="0.25" width="100" height="150"/> 
				<rect x="100.125" y="150.125" fill="none" stroke="#000000" stroke-width="0.25" width="100" height="150"/> 
				<rect x="200.125" y="150.125" fill="none" stroke="#000000" stroke-width="0.25" width="100" height="150"/> 
				<rect x="300.125" y="150.125" fill="none" stroke="#000000" stroke-width="0.25" width="100" height="150"/> 
				<rect x="400.125" y="150.125" fill="none" stroke="#000000" stroke-width="0.25" width="100" height="150"/> 
				<rect x="500.125" y="150.125" fill="none" stroke="#000000" stroke-width="0.25" width="100" height="150"/> 
				<rect x="600.125" y="150.125" fill="none" stroke="#000000" stroke-width="0.25" width="100" height="150"/> 
				<rect x="0.125" y="300.125" fill="none" stroke="#000000" stroke-width="0.25" width="100" height="150"/> 
				<rect x="100.125" y="300.125" fill="none" stroke="#000000" stroke-width="0.25" width="100" height="150"/> 
				<rect x="200.125" y="300.125" fill="none" stroke="#000000" stroke-width="0.25" width="100" height="150"/> 
				<rect x="300.125" y="300.125" fill="none" stroke="#000000" stroke-width="0.25" width="100" height="150"/> 
				<rect x="400.125" y="300.125" fill="none" stroke="#000000" stroke-width="0.25" width="100" height="150"/> 
				<rect x="500.125" y="300.125" fill="none" stroke="#000000" stroke-width="0.25" width="100" height="150"/> 
				<rect x="600.125" y="300.125" fill="none" stroke="#000000" stroke-width="0.25" width="100" height="150"/> 
				<rect x="0.125" y="450.125" fill="none" stroke="#000000" stroke-width="0.25" width="100" height="150"/> 
				<rect x="100.125" y="450.125" fill="none" stroke="#000000" stroke-width="0.25" width="100" height="150"/> 
				<rect x="200.125" y="450.125" fill="none" stroke="#000000" stroke-width="0.25" width="100" height="150"/> 
				<rect x="300.125" y="450.125" fill="none" stroke="#000000" stroke-width="0.25" width="100" height="150"/> 
				<rect x="400.125" y="450.125" fill="none" stroke="#000000" stroke-width="0.25" width="100" height="150"/> 
				<rect x="500.125" y="450.125" fill="none" stroke="#000000" stroke-width="0.25" width="100" height="150"/> 
				<rect x="600.125" y="450.125" fill="none" stroke="#000000" stroke-width="0.25" width="100" height="150"/> 
				<rect x="0.125" y="600.125" fill="none" stroke="#000000" stroke-width="0.25" width="100" height="150"/> 
				<rect x="100.125" y="600.125" fill="none" stroke="#000000" stroke-width="0.25" width="100" height="150"/> 
				<rect x="200.125" y="600.125" fill="none" stroke="#000000" stroke-width="0.25" width="100" height="150"/> 
				<rect x="300.125" y="600.125" fill="none" stroke="#000000" stroke-width="0.25" width="100" height="150"/> 
				<rect x="400.125" y="600.125" fill="none" stroke="#000000" stroke-width="0.25" width="100" height="150"/> 
				<rect x="500.125" y="600.125" fill="none" stroke="#000000" stroke-width="0.25" width="100" height="150"/> 
				<rect x="600.125" y="600.125" fill="none" stroke="#000000" stroke-width="0.25" width="100" height="150"/> 
				<rect x="0.125" y="750.125" fill="none" stroke="#000000" stroke-width="0.25" width="100" height="150"/> 
				<rect x="100.125" y="750.125" fill="none" stroke="#000000" stroke-width="0.25" width="100" height="150"/> 
				<rect x="200.125" y="750.125" fill="none" stroke="#000000" stroke-width="0.25" width="100" height="150"/> 
				<rect x="300.125" y="750.125" fill="none" stroke="#000000" stroke-width="0.25" width="100" height="150"/> 
				<rect x="400.125" y="750.125" fill="none" stroke="#000000" stroke-width="0.25" width="100" height="150"/> 
				<rect x="500.125" y="750.125" fill="none" stroke="#000000" stroke-width="0.25" width="100" height="150"/> 
				<rect x="600.125" y="750.125" fill="none" stroke="#000000" stroke-width="0.25" width="100" height="150"/> 
				<rect x="0.125" y="900.125" fill="none" stroke="#000000" stroke-width="0.25" width="100" height="150"/> 
				<rect x="100.125" y="900.125" fill="none" stroke="#000000" stroke-width="0.25" width="100" height="150"/> 
				<rect x="200.125" y="900.125" fill="none" stroke="#000000" stroke-width="0.25" width="100" height="150"/> 
				<rect x="300.125" y="900.125" fill="none" stroke="#000000" stroke-width="0.25" width="100" height="150"/> 
				<rect x="400.125" y="900.125" fill="none" stroke="#000000" stroke-width="0.25" width="100" height="150"/> 
				<rect x="500.125" y="900.125" fill="none" stroke="#000000" stroke-width="0.25" width="100" height="150"/> 
				<rect x="600.125" y="900.125" fill="none" stroke="#000000" stroke-width="0.25" width="100" height="150"/> 
				<rect x="700.125" y="0.125" fill="none" stroke="#000000" stroke-width="0.25" width="100" height="150"/> 
				<rect x="700.125" y="150.125" fill="none" stroke="#000000" stroke-width="0.25" width="100" height="150"/> 
				<rect x="700.125" y="300.125" fill="none" stroke="#000000" stroke-width="0.25" width="100" height="150"/> 
				<rect x="700.125" y="450.125" fill="none" stroke="#000000" stroke-width="0.25" width="100" height="150"/> 
				<rect x="700.125" y="600.125" fill="none" stroke="#000000" stroke-width="0.25" width="100" height="150"/> 
				<rect x="700.125" y="750.125" fill="none" stroke="#000000" stroke-width="0.25" width="100" height="150"/> 
				<rect x="700.125" y="900.125" fill="none" stroke="#000000" stroke-width="0.25" width="100" height="150"/> 
			</g>
			<g>
				<path d="M152.125,974.125c-18.890625,0-28.5,7.9296875-28.5,19l17-2c0-3.4189453,3.5541992-6,11.5-6h3v1.5
					c0,5.6289062-3.8212891,9-9.5,9c-3.1582031,0-5-1.5966797-5-4.5l-17,2c0,10.0566406,6.859375,16,17,16
					c5.9746094,0,12.2275391-3.1572266,15.7998047-8H156.625c0.2929688,2.4785156,0.5898438,4.6455078,1,7h18
					c-0.96875-4.46875-1.5-9.34375-1.5-14v-18c0-15.0185547-6.5986328-21-24-21c-8.3837891,0-16.8691406,1.6113281-24,4.5l2.5,13
					c6.2128906-2.84375,13.5717773-4.5,20.5-4.5c4.6074219,0,6,1.4775391,6,6l0,0H152.125z"/>
				<path d="M149.625,805.125c-7.7539062,0-15.8339844,1.6474609-22.3334961,4.5l2.1665039,11.3330078
					c5.8198242-2.8359375,12.9291992-4.5,19.5-4.5c5.9018555,0,7.8330078,1.9433594,7.8330078,7.7666016v0.1669922h-3.6665039
					c-18.9306641,0-28.5,7.9541016-28.5,19.0664062l14.6000977-1.5c0-4.4521484,4.4682617-7.7666016,13.8999023-7.7666016h3.6665039
					V836.625c0,6.5488281-4.9243164,11-11.4995117,11c-3.7402344,0-6.0668945-2.0517578-6.0668945-5.6669922l-14.6000977,1.5
					c0,9.8574219,6.6425781,15.6669922,16.5,15.6669922c6.7338867,0,13.2109375-3.2392578,16.8339844-8.3398438l0.1987305,0.0117188
					c0.2407227,2.5771484,0.5493164,4.9970703,0.9677734,7.328125h15.1665039c-0.9682617-4.5146484-1.5-9.3583984-1.5-14
					v-18.6669922C172.7915039,811.0419922,166.300293,805.125,149.625,805.125z"/>
				<path d="M149.125,655.125c-7.1235352,0-14.7978516,1.6845703-20.6665039,4.5l1.8330078,9.6669922
					c5.4262695-2.828125,12.2866211-4.5,18.5-4.5c7.1962891,0,9.6669922,2.4091797,9.6669922,9.5332031v0.3330078H154.125
					c-18.9711914,0-28.5,7.9775391-28.5,19.1337891l12.199707-1c0-5.4873047,5.3818359-9.5332031,16.300293-9.5332031h4.3334961
					V686.625c0,7.4697266-6.027832,13-13.5,13c-4.3217773,0-7.1337891-2.5078125-7.1337891-6.8330078l-12.199707,1
					c0,9.6582031,6.4248047,15.3330078,16,15.3330078c7.4936523,0,14.1938477-3.3203125,17.8676758-8.6787109l0.1982422,0.0234375
					c0.1875,2.6757812,0.5083008,5.3486328,0.934082,7.6552734h12.3334961c-0.9672852-4.5595703-1.5-9.3720703-1.5-14v-19.3330078
					C171.4584961,660.9785156,165.074707,655.125,149.125,655.125z"/>
				<path d="M160.125,532.3251953V536.625c0,8.390625-7.1308594,15-15.5,15c-4.9038086,0-8.2001953-2.9628906-8.2001953-8
					l-9.7998047,0.5c0,9.4599609,6.2075195,15,15.5,15c8.2529297,0,15.1767578-3.4023438,18.9018555-9.0175781l0.1967773,0.0351562
					c0.1352539,2.7734375,0.4672852,5.6992188,0.9013672,7.9824219h9.5c-0.9663086-4.6044922-1.5-9.3857422-1.5-14v-20
					c0-13.2109375-6.2758789-19-21.5-19c-6.4931641,0-13.7626953,1.7207031-19,4.5l1.5,8
					c5.0327148-2.8203125,11.644043-4.5,17.5-4.5c8.4907227,0,11.5,2.875,11.5,11.2998047v0.5h-5
					c-19.0112305,0-28.5,8.0019531-28.5,19.2001953l9.7998047-0.5c0-6.5205078,6.2954102-11.2998047,18.7001953-11.2998047H160.125z
					"/>
			</g>
			<path d="M148.7919922,355.125c-6.5039062,0-13.5180664,1.7363281-18.8339844,4.6669922l1.3393555,5.9072266
				c5.0737305-2.8955078,11.5512695-4.5742188,17.4946289-4.5742188c9.6972656,0,13,3.375,13,13.5332031v0.5h-5.3339844
				c-19.1347656,0-29.1660156,7.5820312-29.1660156,18.9667969l7.1992188-0.3330078
				c0-7.8427734,7.6601562-13.0332031,21.9667969-13.0332031h5.3339844v5.5332031c0,9.8491211-7.9863281,17.1665039-17,17.1665039
				c-6.2509766,0-10.3007812-3.6362305-10.3007812-9.6665039L127.2919922,394.125c0,9.3442383,6.296875,15,15.8330078,15
				c8.5966797,0,15.6484375-3.9082031,19.25-10.1821289l0.1972656,0.0234375
				c0.1342773,3.1689453,0.4716797,6.3374023,1.0385742,9.1586914H170.625c-0.9873047-4.6293945-1.5-9.2373047-1.5-14v-19.6669922
				C169.125,360.6582031,163.2929688,355.125,148.7919922,355.125z"/>
			<path d="M148.9584961,205.125c-6.5136719,0-13.2729492,1.7524414-18.6669922,4.8334961l1.1782227,3.8144531
				c5.1152344-2.9702148,11.4580078-4.6479492,17.4887695-4.6479492c10.9047852,0,14.5,3.8745117,14.5,15.7666016v0.5h-5.6669922
				c-19.2587891,0-29.8330078,7.1625977-29.8330078,18.7333984l4.5996094-0.1665039
				c0-9.1640625,9.0239258-14.7666016,25.2333984-14.7666016h5.6669922v6.7666016
				c0,11.3081055-8.8417969,19.3334961-18.5,19.3334961c-7.597168,0-12.4003906-4.309082-12.4003906-11.3334961L127.9584961,244.125
				c0,9.2285156,6.3867188,15,16.1665039,15c8.9399414,0,16.1206055-4.4145508,19.5976562-11.3466797l0.1987305,0.0117188
				c0.1328125,3.5644531,0.4760742,6.9760742,1.175293,10.3349609H169.625c-1.0078125-4.6542969-1.5-9.0893555-1.5-14v-19.3334961
				C168.125,210.4023438,162.7368164,205.125,148.9584961,205.125z"/>
			<path d="M165.2705078,96.6137695c0.1308594,3.9599609,0.4799805,7.6142578,1.3120117,11.5112305H168.625
				c-1.0283203-4.6796875-1.5-8.9414062-1.5-14v-19c0-14.9785156-4.9448242-20-18-20c-6.5239258,0-13.027832,1.7685547-18.5,5
				l1.0170898,1.7216797C136.7983398,58.8017578,143.0073242,57.125,149.125,57.125c12.1123047,0,16,4.3740234,16,18v0.5h-6
				c-19.3833008,0-30.5,6.7431641-30.5,18.5h2c0-10.4858398,10.3876953-16.5,28.5-16.5h6v9.5c0,11.5888672-8.4111328,20-20,20
				c-8.9438477,0-14.5-4.9814453-14.5-13h-2c0,9.1123047,6.4765625,15,16.5,15
				c9.2832031,0,16.5927734-4.9208984,19.9453125-12.5112305H165.2705078z"/>
			<g>
				<path d="M52.125,974.125c-18.890625,0-28.5,7.9296875-28.5,19l17-2c0-3.4189453,3.5541992-6,11.5-6h3v1.5
					c0,5.6289062-3.8212891,9-9.5,9c-3.1582031,0-5-1.5966797-5-4.5l-17,2c0,10.0566406,6.859375,16,17,16
					c5.9746094,0,12.2275391-3.1572266,15.7998047-8H56.625c0.2929688,2.4785156,0.5898438,4.6455078,1,7h18
					c-0.96875-4.46875-1.5-9.34375-1.5-14v-18c0-15.0185547-6.5986328-21-24-21c-8.3837891,0-16.8691406,1.6113281-24,4.5l2.5,13
					c6.2128906-2.84375,13.5717773-4.5,20.5-4.5c4.6074219,0,6,1.4775391,6,6l0,0H52.125z"/>
				<path d="M49.6245117,805.125c-7.753418,0-15.8334961,1.6474609-22.3334961,4.5l2.1669922,11.3330078
					c5.8193359-2.8359375,12.9291992-4.5,19.5-4.5c5.9018555,0,7.8334961,1.9433594,7.8334961,7.7666016v0.1669922h-3.6669922
					c-18.9306641,0-28.5,7.9541016-28.5,19.0664062l14.6000977-1.5c0-4.4521484,4.4677734-7.7666016,13.8999023-7.7666016h3.6669922
					V836.625c0,6.5488281-4.9243164,11-11.5004883,11c-3.7397461,0-6.0664062-2.0517578-6.0664062-5.6669922l-14.6000977,1.5
					c0,9.8574219,6.6420898,15.6669922,16.5004883,15.6669922c6.7338867,0,13.2099609-3.2392578,16.8334961-8.3398438
					l0.1992188,0.0117188c0.2402344,2.5771484,0.5488281,4.9970703,0.9667969,7.328125h15.1665039
					c-0.9672852-4.5146484-1.5-9.3583984-1.5-14v-18.6669922C72.7910156,811.0419922,66.300293,805.125,49.6245117,805.125z"/>
				<path d="M49.125,655.125c-7.1230469,0-14.7983398,1.6845703-20.6665039,4.5l1.8334961,9.6669922
					c5.4257812-2.828125,12.2866211-4.5,18.4995117-4.5c7.1967773,0,9.6669922,2.4091797,9.6669922,9.5332031v0.3330078H54.125
					c-18.9711914,0-28.5,7.9775391-28.5,19.1337891l12.2001953-1c0-5.4873047,5.3813477-9.5332031,16.2998047-9.5332031h4.3334961
					V686.625c0,7.4697266-6.027832,13-13.5,13c-4.3222656,0-7.1333008-2.5078125-7.1333008-6.8330078l-12.2001953,1
					c0,9.6582031,6.4248047,15.3330078,16,15.3330078c7.4936523,0,14.1938477-3.3203125,17.8681641-8.6787109l0.1977539,0.0234375
					c0.1875,2.6757812,0.5078125,5.3486328,0.934082,7.6552734h12.3334961c-0.9672852-4.5595703-1.5-9.3720703-1.5-14v-19.3330078
					C71.4584961,660.9785156,65.074707,655.125,49.125,655.125z"/>
				<path d="M60.125,532.3251953V536.625c0,8.390625-7.1308594,15-15.5,15c-4.9038086,0-8.2001953-2.9628906-8.2001953-8
					l-9.7998047,0.5c0,9.4599609,6.2075195,15,15.5,15c8.2529297,0,15.1767578-3.4023438,18.9018555-9.0175781l0.1967773,0.0351562
					c0.1352539,2.7734375,0.4672852,5.6992188,0.9013672,7.9824219h9.5c-0.9663086-4.6044922-1.5-9.3857422-1.5-14v-20
					c0-13.2109375-6.2758789-19-21.5-19c-6.4931641,0-13.7626953,1.7207031-19,4.5l1.5,8
					c5.0327148-2.8203125,11.644043-4.5,17.5-4.5c8.4907227,0,11.5,2.875,11.5,11.2998047v0.5h-5
					c-19.0112305,0-28.5,8.0019531-28.5,19.2001953l9.7998047-0.5c0-6.5205078,6.2954102-11.2998047,18.7001953-11.2998047H60.125z"
					/>
			</g>
			<path d="M48.7919922,355.125c-6.5039062,0-13.5180664,1.7363281-18.8339844,4.6669922l1.3393555,5.9072266
				C36.3710938,362.8037109,42.8486328,361.125,48.7919922,361.125c9.6972656,0,13,3.375,13,13.5332031v0.5h-5.3339844
				c-19.1347656,0-29.1660156,7.5820312-29.1660156,18.9667969l7.1992188-0.3330078
				c0-7.8427734,7.6601562-13.0332031,21.9667969-13.0332031h5.3339844v5.5332031c0,9.8491211-7.9863281,17.1665039-17,17.1665039
				c-6.2509766,0-10.3007812-3.6362305-10.3007812-9.6665039L27.2919922,394.125c0,9.3442383,6.296875,15,15.8330078,15
				c8.5966797,0,15.6484375-3.9082031,19.25-10.1821289l0.1972656,0.0234375
				c0.1342773,3.1689453,0.4716797,6.3374023,1.0385742,9.1586914H70.625c-0.9873047-4.6293945-1.5-9.2373047-1.5-14v-19.6669922
				C69.125,360.6582031,63.2929688,355.125,48.7919922,355.125z"/>
			<path d="M48.9584961,205.125c-6.5136719,0-13.2729492,1.7524414-18.6669922,4.8334961l1.1782227,3.8144531
				C36.5849609,210.8027344,42.9277344,209.125,48.9584961,209.125c10.9047852,0,14.5,3.8745117,14.5,15.7666016v0.5h-5.6669922
				c-19.2587891,0-29.8330078,7.1625977-29.8330078,18.7333984l4.5996094-0.1665039
				c0-9.1640625,9.0239258-14.7666016,25.2333984-14.7666016h5.6669922v6.7666016
				c0,11.3081055-8.8417969,19.3334961-18.5,19.3334961c-7.597168,0-12.4003906-4.309082-12.4003906-11.3334961L27.9584961,244.125
				c0,9.2285156,6.3867188,15,16.1665039,15c8.9399414,0,16.1206055-4.4145508,19.5976562-11.3466797l0.1987305,0.0117188
				c0.1328125,3.5644531,0.4760742,6.9760742,1.175293,10.3349609H69.625c-1.0078125-4.6542969-1.5-9.0893555-1.5-14v-19.3334961
				C68.125,210.4023438,62.7368164,205.125,48.9584961,205.125z"/>
			<path d="M65.2705078,96.6137695c0.1308594,3.9599609,0.4799805,7.6142578,1.3120117,11.5112305H68.625
				c-1.0283203-4.6796875-1.5-8.9414062-1.5-14v-19c0-14.9785156-4.9448242-20-18-20c-6.5239258,0-13.027832,1.7685547-18.5,5
				l1.0170898,1.7216797C36.7983398,58.8017578,43.0073242,57.125,49.125,57.125c12.1123047,0,16,4.3740234,16,18v0.5h-6
				c-19.3833008,0-30.5,6.7431641-30.5,18.5h2c0-10.4858398,10.3876953-16.5,28.5-16.5h6v9.5c0,11.5888672-8.4111328,20-20,20
				c-8.9438477,0-14.5-4.9814453-14.5-13h-2c0,9.1123047,6.4765625,15,16.5,15
				c9.2832031,0,16.5927734-4.9208984,19.9453125-12.5112305H65.2705078z"/>
			<g>
				<path d="M352.125,974.125c-18.890625,0-28.5,7.9296875-28.5,19l17-2c0-3.4189453,3.5541992-6,11.5-6h3v1.5
					c0,5.6289062-3.8212891,9-9.5,9c-3.1582031,0-5-1.5966797-5-4.5l-17,2c0,10.0566406,6.859375,16,17,16
					c5.9746094,0,12.2275391-3.1572266,15.7998047-8H356.625c0.2929688,2.4785156,0.5898438,4.6455078,1,7h18
					c-0.96875-4.46875-1.5-9.34375-1.5-14v-18c0-15.0185547-6.5986328-21-24-21c-8.3837891,0-16.8691406,1.6113281-24,4.5l2.5,13
					c6.2128906-2.84375,13.5717773-4.5,20.5-4.5c4.6074219,0,6,1.4775391,6,6l0,0H352.125z"/>
				<path d="M349.6245117,805.125c-7.753418,0-15.8334961,1.6474609-22.3334961,4.5l2.1669922,11.3330078
					c5.8193359-2.8359375,12.9291992-4.5,19.5-4.5c5.9023438,0,7.8330078,1.9433594,7.8330078,7.7666016v0.1669922H353.125
					c-18.9311523,0-28.5004883,7.9541016-28.5004883,19.0664062l14.6000977-1.5
					c0-4.4521484,4.4677734-7.7666016,13.9003906-7.7666016h3.6660156V836.625c0,6.5488281-4.9238281,11-11.5,11
					c-3.7397461,0-6.0664062-2.0517578-6.0664062-5.6669922l-14.6000977,1.5
					c0,9.8574219,6.6420898,15.6669922,16.5004883,15.6669922c6.7338867,0,13.2099609-3.2392578,16.8339844-8.3398438
					l0.1982422,0.0117188c0.2412109,2.5771484,0.5498047,4.9970703,0.9677734,7.328125h15.1660156
					c-0.9677734-4.5146484-1.5-9.3583984-1.5-14v-18.6669922C372.7910156,811.0419922,366.3007812,805.125,349.6245117,805.125z"/>
				<path d="M349.125,655.125c-7.1230469,0-14.7983398,1.6845703-20.6665039,4.5l1.8334961,9.6669922
					c5.4257812-2.828125,12.2866211-4.5,18.4995117-4.5c7.1958008,0,9.6665039,2.4091797,9.6665039,9.5332031v0.3330078H354.125
					c-18.9711914,0-28.5,7.9775391-28.5,19.1337891l12.2001953-1c0-5.4873047,5.3813477-9.5332031,16.2998047-9.5332031h4.3330078
					V686.625c0,7.4697266-6.0273438,13-13.4995117,13c-4.3222656,0-7.1333008-2.5078125-7.1333008-6.8330078l-12.2001953,1
					c0,9.6582031,6.4248047,15.3330078,16,15.3330078c7.4936523,0,14.1933594-3.3203125,17.8681641-8.6787109l0.1972656,0.0234375
					c0.1884766,2.6757812,0.5087891,5.3486328,0.9345703,7.6552734h12.3330078c-0.9667969-4.5595703-1.5-9.3720703-1.5-14
					v-19.3330078C371.4580078,660.9785156,365.0751953,655.125,349.125,655.125z"/>
				<path d="M360.125,532.3251953V536.625c0,8.390625-7.1308594,15-15.5,15c-4.9038086,0-8.2001953-2.9628906-8.2001953-8
					l-9.7998047,0.5c0,9.4599609,6.2075195,15,15.5,15c8.2529297,0,15.1767578-3.4023438,18.9023438-9.0175781l0.1962891,0.0351562
					c0.1357422,2.7734375,0.4677734,5.6992188,0.9013672,7.9824219h9.5c-0.9667969-4.6044922-1.5-9.3857422-1.5-14v-20
					c0-13.2109375-6.2753906-19-21.5-19c-6.4931641,0-13.7626953,1.7207031-19,4.5l1.5,8
					c5.0327148-2.8203125,11.644043-4.5,17.5-4.5c8.4902344,0,11.5,2.875,11.5,11.2998047v0.5h-5
					c-19.0112305,0-28.5,8.0019531-28.5,19.2001953l9.7998047-0.5c0-6.5205078,6.2954102-11.2998047,18.7001953-11.2998047H360.125z
					"/>
			</g>
			<path d="M348.7919922,355.125c-6.5039062,0-13.5180664,1.7363281-18.8339844,4.6669922l1.3393555,5.9072266
				c5.0737305-2.8955078,11.5512695-4.5742188,17.4946289-4.5742188c9.6972656,0,13,3.375,13,13.5332031v0.5h-5.3339844
				c-19.1347656,0-29.1660156,7.5820312-29.1660156,18.9667969l7.1992188-0.3330078
				c0-7.8427734,7.6601562-13.0332031,21.9667969-13.0332031h5.3339844v5.5332031c0,9.8491211-7.9863281,17.1665039-17,17.1665039
				c-6.2509766,0-10.3007812-3.6362305-10.3007812-9.6665039L327.2919922,394.125c0,9.3442383,6.296875,15,15.8330078,15
				c8.5966797,0,15.6484375-3.9082031,19.25-10.1821289l0.1972656,0.0234375
				c0.1347656,3.1689453,0.4716797,6.3374023,1.0390625,9.1586914H370.625c-0.9873047-4.6293945-1.5-9.2373047-1.5-14v-19.6669922
				C369.125,360.6582031,363.2929688,355.125,348.7919922,355.125z"/>
			<path d="M348.9584961,205.125c-6.5136719,0-13.2729492,1.7524414-18.6669922,4.8334961l1.1782227,3.8144531
				c5.1152344-2.9702148,11.4580078-4.6479492,17.4887695-4.6479492c10.9047852,0,14.5004883,3.8745117,14.5004883,15.7666016v0.5
				h-5.6679688c-19.2583008,0-29.8325195,7.1625977-29.8325195,18.7333984l4.5996094-0.1665039
				c0-9.1640625,9.0239258-14.7666016,25.2329102-14.7666016h5.6679688v6.7666016
				c0,11.3081055-8.8417969,19.3334961-18.5004883,19.3334961c-7.597168,0-12.4003906-4.309082-12.4003906-11.3334961
				L327.9584961,244.125c0,9.2285156,6.3867188,15,16.1665039,15c8.9394531,0,16.1210938-4.4145508,19.5976562-11.3466797
				l0.1992188,0.0117188c0.1328125,3.5644531,0.4755859,6.9760742,1.1748047,10.3349609H369.625
				c-1.0078125-4.6542969-1.5-9.0893555-1.5-14v-19.3334961C368.125,210.4023438,362.7363281,205.125,348.9584961,205.125z"/>
			<path d="M365.2705078,96.6137695c0.1308594,3.9599609,0.4794922,7.6142578,1.3115234,11.5112305H368.625
				c-1.0283203-4.6796875-1.5-8.9414062-1.5-14v-19c0-14.9785156-4.9453125-20-18-20c-6.5239258,0-13.027832,1.7685547-18.5,5
				l1.0170898,1.7216797C336.7983398,58.8017578,343.0073242,57.125,349.125,57.125c12.1123047,0,16,4.3740234,16,18v0.5h-6
				c-19.3833008,0-30.5,6.7431641-30.5,18.5h2c0-10.4858398,10.3876953-16.5,28.5-16.5h6v9.5c0,11.5888672-8.4111328,20-20,20
				c-8.9438477,0-14.5-4.9814453-14.5-13h-2c0,9.1123047,6.4765625,15,16.5,15
				c9.2832031,0,16.5927734-4.9208984,19.9453125-12.5112305H365.2705078z"/>
			<g>
				<path d="M252.125,974.125c-18.890625,0-28.5,7.9296875-28.5,19l17-2c0-3.4189453,3.5541992-6,11.5-6h3v1.5
					c0,5.6289062-3.8212891,9-9.5,9c-3.1582031,0-5-1.5966797-5-4.5l-17,2c0,10.0566406,6.859375,16,17,16
					c5.9746094,0,12.2275391-3.1572266,15.7998047-8H256.625c0.2929688,2.4785156,0.5898438,4.6455078,1,7h18
					c-0.96875-4.46875-1.5-9.34375-1.5-14v-18c0-15.0185547-6.5986328-21-24-21c-8.3837891,0-16.8691406,1.6113281-24,4.5l2.5,13
					c6.2128906-2.84375,13.5717773-4.5,20.5-4.5c4.6074219,0,6,1.4775391,6,6l0,0H252.125z"/>
				<path d="M249.6245117,805.125c-7.753418,0-15.8334961,1.6474609-22.3330078,4.5l2.1665039,11.3330078
					c5.8193359-2.8359375,12.9291992-4.5,19.5-4.5c5.9018555,0,7.8334961,1.9433594,7.8334961,7.7666016v0.1669922H253.125
					c-18.9311523,0-28.5,7.9541016-28.5,19.0664062l14.5996094-1.5c0-4.4521484,4.4677734-7.7666016,13.9003906-7.7666016h3.6665039
					V836.625c0,6.5488281-4.9248047,11-11.5,11c-3.7402344,0-6.0668945-2.0517578-6.0668945-5.6669922l-14.5996094,1.5
					c0,9.8574219,6.6416016,15.6669922,16.4995117,15.6669922c6.734375,0,13.2109375-3.2392578,16.8339844-8.3398438
					l0.1992188,0.0117188c0.2402344,2.5771484,0.5488281,4.9970703,0.9667969,7.328125h15.1669922
					c-0.9682617-4.5146484-1.5-9.3583984-1.5-14v-18.6669922C272.7915039,811.0419922,266.300293,805.125,249.6245117,805.125z"/>
				<path d="M249.125,655.125c-7.1235352,0-14.7983398,1.6845703-20.6665039,4.5l1.8330078,9.6669922
					c5.4262695-2.828125,12.2866211-4.5,18.5004883-4.5c7.1958008,0,9.6665039,2.4091797,9.6665039,9.5332031v0.3330078H254.125
					c-18.9707031,0-28.5,7.9775391-28.5,19.1337891l12.199707-1c0-5.4873047,5.3818359-9.5332031,16.300293-9.5332031h4.3334961
					V686.625c0,7.4697266-6.027832,13-13.5,13c-4.3222656,0-7.1337891-2.5078125-7.1337891-6.8330078l-12.199707,1
					c0,9.6582031,6.4248047,15.3330078,16,15.3330078c7.4936523,0,14.1938477-3.3203125,17.8676758-8.6787109l0.1982422,0.0234375
					c0.1879883,2.6757812,0.5078125,5.3486328,0.934082,7.6552734h12.3334961c-0.9672852-4.5595703-1.5-9.3720703-1.5-14
					v-19.3330078C271.4584961,660.9785156,265.0751953,655.125,249.125,655.125z"/>
				<path d="M260.125,532.3251953V536.625c0,8.390625-7.1308594,15-15.5,15c-4.9038086,0-8.2001953-2.9628906-8.2001953-8
					l-9.7998047,0.5c0,9.4599609,6.2075195,15,15.5,15c8.2529297,0,15.1767578-3.4023438,18.9018555-9.0175781l0.1967773,0.0351562
					c0.1352539,2.7734375,0.4672852,5.6992188,0.9013672,7.9824219h9.5c-0.9663086-4.6044922-1.5-9.3857422-1.5-14v-20
					c0-13.2109375-6.2758789-19-21.5-19c-6.4931641,0-13.7626953,1.7207031-19,4.5l1.5,8
					c5.0327148-2.8203125,11.644043-4.5,17.5-4.5c8.4907227,0,11.5,2.875,11.5,11.2998047v0.5h-5
					c-19.0112305,0-28.5,8.0019531-28.5,19.2001953l9.7998047-0.5c0-6.5205078,6.2954102-11.2998047,18.7001953-11.2998047H260.125z
					"/>
			</g>
			<path d="M248.7919922,355.125c-6.5039062,0-13.5180664,1.7363281-18.8339844,4.6669922l1.3393555,5.9072266
				c5.0737305-2.8955078,11.5512695-4.5742188,17.4946289-4.5742188c9.6972656,0,13,3.375,13,13.5332031v0.5h-5.3339844
				c-19.1347656,0-29.1660156,7.5820312-29.1660156,18.9667969l7.1992188-0.3330078
				c0-7.8427734,7.6601562-13.0332031,21.9667969-13.0332031h5.3339844v5.5332031c0,9.8491211-7.9863281,17.1665039-17,17.1665039
				c-6.2509766,0-10.3007812-3.6362305-10.3007812-9.6665039L227.2919922,394.125c0,9.3442383,6.296875,15,15.8330078,15
				c8.5966797,0,15.6484375-3.9082031,19.25-10.1821289l0.1972656,0.0234375
				c0.1342773,3.1689453,0.4716797,6.3374023,1.0385742,9.1586914H270.625c-0.9873047-4.6293945-1.5-9.2373047-1.5-14v-19.6669922
				C269.125,360.6582031,263.2929688,355.125,248.7919922,355.125z"/>
			<path d="M248.9584961,205.125c-6.5136719,0-13.2729492,1.7524414-18.6669922,4.8334961l1.1782227,3.8144531
				c5.1152344-2.9702148,11.4580078-4.6479492,17.4887695-4.6479492c10.9047852,0,14.5,3.8745117,14.5,15.7666016v0.5h-5.6669922
				c-19.2587891,0-29.8330078,7.1625977-29.8330078,18.7333984l4.5996094-0.1665039
				c0-9.1640625,9.0239258-14.7666016,25.2333984-14.7666016h5.6669922v6.7666016
				c0,11.3081055-8.8417969,19.3334961-18.5,19.3334961c-7.597168,0-12.4003906-4.309082-12.4003906-11.3334961L227.9584961,244.125
				c0,9.2285156,6.3867188,15,16.1665039,15c8.9399414,0,16.1206055-4.4145508,19.5976562-11.3466797l0.1987305,0.0117188
				c0.1328125,3.5644531,0.4760742,6.9760742,1.175293,10.3349609H269.625c-1.0078125-4.6542969-1.5-9.0893555-1.5-14v-19.3334961
				C268.125,210.4023438,262.7368164,205.125,248.9584961,205.125z"/>
			<path d="M265.2705078,96.6137695c0.1308594,3.9599609,0.4799805,7.6142578,1.3120117,11.5112305H268.625
				c-1.0283203-4.6796875-1.5-8.9414062-1.5-14v-19c0-14.9785156-4.9448242-20-18-20c-6.5239258,0-13.027832,1.7685547-18.5,5
				l1.0170898,1.7216797C236.7983398,58.8017578,243.0073242,57.125,249.125,57.125c12.1123047,0,16,4.3740234,16,18v0.5h-6
				c-19.3833008,0-30.5,6.7431641-30.5,18.5h2c0-10.4858398,10.3876953-16.5,28.5-16.5h6v9.5c0,11.5888672-8.4111328,20-20,20
				c-8.9438477,0-14.5-4.9814453-14.5-13h-2c0,9.1123047,6.4765625,15,16.5,15
				c9.2832031,0,16.5927734-4.9208984,19.9453125-12.5112305H265.2705078z"/>
			<g>
				<path d="M552.125,974.125c-18.890625,0-28.5,7.9296875-28.5,19l17-2c0-3.4189453,3.5546875-6,11.5-6h3v1.5
					c0,5.6289062-3.8212891,9-9.5,9c-3.1582031,0-5-1.5966797-5-4.5l-17,2c0,10.0566406,6.859375,16,17,16
					c5.9746094,0,12.2275391-3.1572266,15.7998047-8H556.625c0.2929688,2.4785156,0.5898438,4.6455078,1,7h18
					c-0.96875-4.46875-1.5-9.34375-1.5-14v-18c0-15.0185547-6.5986328-21-24-21c-8.3837891,0-16.8691406,1.6113281-24,4.5l2.5,13
					c6.2128906-2.84375,13.5722656-4.5,20.5-4.5c4.6074219,0,6,1.4775391,6,6l0,0H552.125z"/>
				<path d="M549.625,805.125c-7.7539062,0-15.8339844,1.6474609-22.3339844,4.5l2.1669922,11.3330078
					c5.8193359-2.8359375,12.9287109-4.5,19.5-4.5c5.9023438,0,7.8330078,1.9433594,7.8330078,7.7666016v0.1669922H553.125
					c-18.9316406,0-28.5,7.9541016-28.5,19.0664062l14.5996094-1.5c0-4.4521484,4.4677734-7.7666016,13.9003906-7.7666016h3.6660156
					V836.625c0,6.5488281-4.9238281,11-11.5,11c-3.7402344,0-6.0664062-2.0517578-6.0664062-5.6669922l-14.5996094,1.5
					c0,9.8574219,6.6416016,15.6669922,16.5,15.6669922c6.734375,0,13.2099609-3.2392578,16.8339844-8.3398438l0.1982422,0.0117188
					c0.2412109,2.5771484,0.5498047,4.9970703,0.9677734,7.328125h15.1660156c-0.9677734-4.5146484-1.5-9.3583984-1.5-14
					v-18.6669922C572.7910156,811.0419922,566.3007812,805.125,549.625,805.125z"/>
				<path d="M549.125,655.125c-7.1230469,0-14.7988281,1.6845703-20.6660156,4.5l1.8330078,9.6669922
					c5.4257812-2.828125,12.2861328-4.5,18.4990234-4.5c7.1962891,0,9.6669922,2.4091797,9.6669922,9.5332031v0.3330078H554.125
					c-18.9707031,0-28.5,7.9775391-28.5,19.1337891l12.2001953-1c0-5.4873047,5.3818359-9.5332031,16.2998047-9.5332031h4.3330078
					V686.625c0,7.4697266-6.0273438,13-13.4990234,13c-4.3222656,0-7.1337891-2.5078125-7.1337891-6.8330078l-12.2001953,1
					c0,9.6582031,6.4248047,15.3330078,16,15.3330078c7.4941406,0,14.1933594-3.3203125,17.8681641-8.6787109l0.1972656,0.0234375
					c0.1884766,2.6757812,0.5087891,5.3486328,0.9345703,7.6552734h12.3330078c-0.9667969-4.5595703-1.5-9.3720703-1.5-14
					v-19.3330078C571.4580078,660.9785156,565.0751953,655.125,549.125,655.125z"/>
				<path d="M560.125,532.3251953V536.625c0,8.390625-7.1308594,15-15.5,15c-4.9042969,0-8.2001953-2.9628906-8.2001953-8
					l-9.7998047,0.5c0,9.4599609,6.2070312,15,15.5,15c8.2529297,0,15.1767578-3.4023438,18.9023438-9.0175781l0.1962891,0.0351562
					c0.1357422,2.7734375,0.4677734,5.6992188,0.9013672,7.9824219h9.5c-0.9667969-4.6044922-1.5-9.3857422-1.5-14v-20
					c0-13.2109375-6.2753906-19-21.5-19c-6.4931641,0-13.7626953,1.7207031-19,4.5l1.5,8
					c5.0332031-2.8203125,11.6445312-4.5,17.5-4.5c8.4902344,0,11.5,2.875,11.5,11.2998047v0.5h-5
					c-19.0117188,0-28.5,8.0019531-28.5,19.2001953l9.7998047-0.5c0-6.5205078,6.2958984-11.2998047,18.7001953-11.2998047H560.125z
					"/>
			</g>
			<path d="M548.7919922,355.125c-6.5039062,0-13.5185547,1.7363281-18.8339844,4.6669922l1.3388672,5.9072266
				c5.0742188-2.8955078,11.5517578-4.5742188,17.4951172-4.5742188c9.6972656,0,13,3.375,13,13.5332031v0.5h-5.3339844
				c-19.1347656,0-29.1660156,7.5820312-29.1660156,18.9667969l7.1992188-0.3330078
				c0-7.8427734,7.6601562-13.0332031,21.9667969-13.0332031h5.3339844v5.5332031c0,9.8491211-7.9863281,17.1665039-17,17.1665039
				c-6.2509766,0-10.3007812-3.6362305-10.3007812-9.6665039L527.2919922,394.125c0,9.3442383,6.296875,15,15.8330078,15
				c8.5966797,0,15.6484375-3.9082031,19.25-10.1821289l0.1972656,0.0234375
				c0.1347656,3.1689453,0.4716797,6.3374023,1.0390625,9.1586914H570.625c-0.9873047-4.6293945-1.5-9.2373047-1.5-14v-19.6669922
				C569.125,360.6582031,563.2929688,355.125,548.7919922,355.125z"/>
			<path d="M548.9589844,205.125c-6.5136719,0-13.2734375,1.7524414-18.6679688,4.8334961l1.1787109,3.8144531
				c5.1152344-2.9702148,11.4580078-4.6479492,17.4892578-4.6479492c10.9042969,0,14.5,3.8745117,14.5,15.7666016v0.5h-5.6679688
				c-19.2578125,0-29.8320312,7.1625977-29.8320312,18.7333984l4.5996094-0.1665039
				c0-9.1640625,9.0234375-14.7666016,25.2324219-14.7666016h5.6679688v6.7666016
				c0,11.3081055-8.8417969,19.3334961-18.5,19.3334961c-7.5976562,0-12.4003906-4.309082-12.4003906-11.3334961
				L527.9589844,244.125c0,9.2285156,6.3867188,15,16.1660156,15c8.9394531,0,16.1210938-4.4145508,19.5976562-11.3466797
				l0.1992188,0.0117188c0.1328125,3.5644531,0.4755859,6.9760742,1.1748047,10.3349609H569.625
				c-1.0078125-4.6542969-1.5-9.0893555-1.5-14v-19.3334961C568.125,210.4023438,562.7363281,205.125,548.9589844,205.125z"/>
			<path d="M565.2705078,96.6137695c0.1308594,3.9599609,0.4794922,7.6142578,1.3115234,11.5112305H568.625
				c-1.0283203-4.6796875-1.5-8.9414062-1.5-14v-19c0-14.9785156-4.9453125-20-18-20c-6.5234375,0-13.0273438,1.7685547-18.5,5
				l1.0175781,1.7216797C536.7988281,58.8017578,543.0078125,57.125,549.125,57.125c12.1123047,0,16,4.3740234,16,18v0.5h-6
				c-19.3828125,0-30.5,6.7431641-30.5,18.5h2c0-10.4858398,10.3876953-16.5,28.5-16.5h6v9.5c0,11.5888672-8.4111328,20-20,20
				c-8.9433594,0-14.5-4.9814453-14.5-13h-2c0,9.1123047,6.4765625,15,16.5,15
				c9.2832031,0,16.5927734-4.9208984,19.9453125-12.5112305H565.2705078z"/>
			<g>
				<path d="M452.125,974.125c-18.890625,0-28.5,7.9296875-28.5,19l17-2c0-3.4189453,3.5546875-6,11.5-6h3v1.5
					c0,5.6289062-3.8212891,9-9.5,9c-3.1582031,0-5-1.5966797-5-4.5l-17,2c0,10.0566406,6.859375,16,17,16
					c5.9746094,0,12.2275391-3.1572266,15.7998047-8H456.625c0.2929688,2.4785156,0.5898438,4.6455078,1,7h18
					c-0.96875-4.46875-1.5-9.34375-1.5-14v-18c0-15.0185547-6.5986328-21-24-21c-8.3837891,0-16.8691406,1.6113281-24,4.5l2.5,13
					c6.2128906-2.84375,13.5722656-4.5,20.5-4.5c4.6074219,0,6,1.4775391,6,6l0,0H452.125z"/>
				<path d="M449.625,805.125c-7.7539062,0-15.8339844,1.6474609-22.3339844,4.5l2.1669922,11.3330078
					c5.8193359-2.8359375,12.9287109-4.5,19.5-4.5c5.9013672,0,7.8330078,1.9433594,7.8330078,7.7666016v0.1669922H453.125
					c-18.9316406,0-28.5,7.9541016-28.5,19.0664062l14.5996094-1.5c0-4.4521484,4.4677734-7.7666016,13.9003906-7.7666016h3.6660156
					V836.625c0,6.5488281-4.9238281,11-11.5,11c-3.7402344,0-6.0664062-2.0517578-6.0664062-5.6669922l-14.5996094,1.5
					c0,9.8574219,6.6416016,15.6669922,16.5,15.6669922c6.734375,0,13.2109375-3.2392578,16.8339844-8.3398438l0.1992188,0.0117188
					c0.2402344,2.5771484,0.5488281,4.9970703,0.9667969,7.328125h15.1660156c-0.9677734-4.5146484-1.5-9.3583984-1.5-14
					v-18.6669922C472.7910156,811.0419922,466.3007812,805.125,449.625,805.125z"/>
				<path d="M449.125,655.125c-7.1230469,0-14.7988281,1.6845703-20.6660156,4.5l1.8320312,9.6669922
					c5.4267578-2.828125,12.2871094-4.5,18.5009766-4.5c7.1962891,0,9.6669922,2.4091797,9.6669922,9.5332031v0.3330078H454.125
					c-18.9707031,0-28.5,7.9775391-28.5,19.1337891l12.1992188-1c0-5.4873047,5.3828125-9.5332031,16.3007812-9.5332031h4.3339844
					V686.625c0,7.4697266-6.0283203,13-13.5,13c-4.3222656,0-7.1347656-2.5078125-7.1347656-6.8330078l-12.1992188,1
					c0,9.6582031,6.4248047,15.3330078,16,15.3330078c7.4941406,0,14.1933594-3.3203125,17.8671875-8.6787109l0.1992188,0.0234375
					c0.1875,2.6757812,0.5078125,5.3486328,0.9335938,7.6552734h12.3339844c-0.9677734-4.5595703-1.5-9.3720703-1.5-14v-19.3330078
					C471.4589844,660.9785156,465.0751953,655.125,449.125,655.125z"/>
				<path d="M460.125,532.3251953V536.625c0,8.390625-7.1308594,15-15.5,15c-4.9042969,0-8.2001953-2.9628906-8.2001953-8
					l-9.7998047,0.5c0,9.4599609,6.2070312,15,15.5,15c8.2529297,0,15.1767578-3.4023438,18.9023438-9.0175781l0.1962891,0.0351562
					c0.1357422,2.7734375,0.4677734,5.6992188,0.9013672,7.9824219h9.5c-0.9667969-4.6044922-1.5-9.3857422-1.5-14v-20
					c0-13.2109375-6.2753906-19-21.5-19c-6.4931641,0-13.7626953,1.7207031-19,4.5l1.5,8
					c5.0332031-2.8203125,11.6445312-4.5,17.5-4.5c8.4902344,0,11.5,2.875,11.5,11.2998047v0.5h-5
					c-19.0117188,0-28.5,8.0019531-28.5,19.2001953l9.7998047-0.5c0-6.5205078,6.2958984-11.2998047,18.7001953-11.2998047H460.125z
					"/>
			</g>
			<path d="M448.7919922,355.125c-6.5039062,0-13.5185547,1.7363281-18.8339844,4.6669922l1.3388672,5.9072266
				c5.0742188-2.8955078,11.5517578-4.5742188,17.4951172-4.5742188c9.6972656,0,13,3.375,13,13.5332031v0.5h-5.3339844
				c-19.1347656,0-29.1660156,7.5820312-29.1660156,18.9667969l7.1992188-0.3330078
				c0-7.8427734,7.6601562-13.0332031,21.9667969-13.0332031h5.3339844v5.5332031c0,9.8491211-7.9863281,17.1665039-17,17.1665039
				c-6.2509766,0-10.3007812-3.6362305-10.3007812-9.6665039L427.2919922,394.125c0,9.3442383,6.296875,15,15.8330078,15
				c8.5966797,0,15.6484375-3.9082031,19.25-10.1821289l0.1972656,0.0234375
				c0.1347656,3.1689453,0.4716797,6.3374023,1.0390625,9.1586914H470.625c-0.9873047-4.6293945-1.5-9.2373047-1.5-14v-19.6669922
				C469.125,360.6582031,463.2929688,355.125,448.7919922,355.125z"/>
			<path d="M448.9589844,205.125c-6.5136719,0-13.2734375,1.7524414-18.6679688,4.8334961l1.1787109,3.8144531
				c5.1152344-2.9702148,11.4580078-4.6479492,17.4892578-4.6479492c10.9042969,0,14.5,3.8745117,14.5,15.7666016v0.5h-5.6679688
				c-19.2578125,0-29.8320312,7.1625977-29.8320312,18.7333984l4.5996094-0.1665039
				c0-9.1640625,9.0234375-14.7666016,25.2324219-14.7666016h5.6679688v6.7666016
				c0,11.3081055-8.8417969,19.3334961-18.5,19.3334961c-7.5976562,0-12.4003906-4.309082-12.4003906-11.3334961
				L427.9589844,244.125c0,9.2285156,6.3867188,15,16.1660156,15c8.9394531,0,16.1210938-4.4145508,19.5976562-11.3466797
				l0.1992188,0.0117188c0.1328125,3.5644531,0.4755859,6.9760742,1.1748047,10.3349609H469.625
				c-1.0078125-4.6542969-1.5-9.0893555-1.5-14v-19.3334961C468.125,210.4023438,462.7363281,205.125,448.9589844,205.125z"/>
			<path d="M465.2705078,96.6137695c0.1308594,3.9599609,0.4794922,7.6142578,1.3115234,11.5112305H468.625
				c-1.0283203-4.6796875-1.5-8.9414062-1.5-14v-19c0-14.9785156-4.9453125-20-18-20c-6.5234375,0-13.0273438,1.7685547-18.5,5
				l1.0175781,1.7216797C436.7988281,58.8017578,443.0078125,57.125,449.125,57.125c12.1123047,0,16,4.3740234,16,18v0.5h-6
				c-19.3828125,0-30.5,6.7431641-30.5,18.5h2c0-10.4858398,10.3876953-16.5,28.5-16.5h6v9.5c0,11.5888672-8.4111328,20-20,20
				c-8.9433594,0-14.5-4.9814453-14.5-13h-2c0,9.1123047,6.4765625,15,16.5,15
				c9.2832031,0,16.5927734-4.9208984,19.9453125-12.5112305H465.2705078z"/>
			<g>
				<polygon points="49.9487305,45.125 37.9399414,29.125 40.4389648,29.125 52.4467773,45.125 "/>
				<polygon points="42.6674805,179.1245117 54.3388672,195.4580078 49.3408203,195.4580078 36.3349609,179.1245117 "/>
				<polygon points="44.8964844,329.125 56.2324219,345.7915039 48.7329102,345.7915039 34.7299805,329.125 "/>
				<polygon points="47.125,479.125 58.125,496.125 48.125,496.125 33.125,479.125 "/>
				<polygon points="47.4580078,646.4580078 32.125,629.125 48.7910156,629.125 59.4580078,646.4580078 "/>
				<polygon points="46.7919922,796.7919922 31.125,779.125 50.4584961,779.125 60.7915039,796.7919922 "/>
				<polygon points="46.125,947.125 30.125,929.125 52.125,929.125 62.125,947.125 "/>
			</g>
			<g>
				<polygon points="154.125,947.125 170.125,929.125 148.125,929.125 138.125,947.125 "/>
				<polygon points="149.7915039,779.125 139.4580078,796.7910156 153.4580078,796.7910156 169.1245117,779.125 "/>
				<polygon points="151.4584961,629.125 140.7919922,646.4580078 152.7915039,646.4580078 168.125,629.125 "/>
				<polygon points="153.125,479.125 142.125,496.125 152.125,496.125 167.125,479.125 "/>
				<polygon points="151.5166016,345.7915039 165.5195312,329.1245117 155.3535156,329.1245117 144.0170898,345.7915039 "/>
				<polygon points="150.9086914,195.4584961 163.9155273,179.125 157.5820312,179.125 145.9101562,195.4584961 "/>
				<polygon points="150.3007812,45.125 162.3105469,29.125 159.8105469,29.125 147.8027344,45.125 "/>
			</g>
			<g>
				<g>
					<rect x="426.125" y="930.125" width="20" height="14"/> 
					<rect x="454.125" y="930.125" width="20" height="14"/> 
				</g>
				<g>
					<rect x="428.0253906" y="780.125" width="16.8662109" height="13"/> 
					<rect x="455.3583984" y="780.125" width="16.8662109" height="13"/> 
				</g>
				<g>
					<rect x="429.9248047" y="630.125" width="13.7333984" height="12"/> 
					<rect x="456.5917969" y="630.125" width="13.7333984" height="12"/> 
				</g>
				<g>
					<rect x="431.8251953" y="480.125" width="10.5996094" height="11"/> 
					<rect x="457.8251953" y="480.125" width="10.5996094" height="11"/> 
				</g>
				<g>
					<rect x="433.5917969" y="329.7910156" width="7.7324219" height="11.0004883"/> 
					<rect x="458.9248047" y="329.7910156" width="7.7333984" height="11.0004883"/> 
				</g>
				<g>
					<rect x="435.3583984" y="179.4584961" width="4.8662109" height="11"/> 
					<rect x="460.0253906" y="179.4584961" width="4.8662109" height="11"/> 
				</g>
				<g>
					<rect x="437.125" y="29.125" width="2" height="11"/> 
					<rect x="461.125" y="29.125" width="2" height="11"/> 
				</g>
			</g>
			<g>
				<path d="M354.125,932.625c-6.8354492-3.2353516-12.0356445-4.5-17-4.5c-8.4716797,0-13,5.6220703-13,20h13
					c0-5.5605469,0.6582031-6.5,2.5-6.5c1.2861328,0,3.5063477,0.5830078,6.5,2c6.8359375,3.2353516,12.0351562,4.5,17,4.5
					c8.3847656,0,13-5.4609375,13-19h-13c0,4.5605469-0.6582031,5.5-2.5,5.5
					C359.3388672,934.625,357.1191406,934.0419922,354.125,932.625z"/>
				<path d="M346.7080078,792.6025391c6.7138672,3.3261719,11.4560547,4.5224609,16,4.5224609
					c7.6875,0,12.0830078-5.015625,12.0830078-17.5h-11.3330078c0,4.7753906-0.8535156,5.9160156-2.8330078,5.9160156
					c-1.3691406,0-3.4794922-0.6083984-7.0830078-2.3935547c-6.7143555-3.3261719-11.4570312-4.5224609-16.0004883-4.5224609
					c-7.8110352,0-12.0834961,5.2119141-12.0834961,18.5h11.3334961c0-5.7021484,0.8144531-6.9169922,2.8330078-6.9169922
					C340.9931641,790.2080078,343.1040039,790.8173828,346.7080078,792.6025391z"/>
				<path d="M347.2915039,641.5800781c6.6030273,3.3945312,10.8764648,4.5449219,15.0004883,4.5449219
					c6.9882812,0,11.1660156-4.5693359,11.1660156-16h-9.6660156c0,4.9892578-1.0488281,6.3330078-3.1669922,6.3330078
					c-1.4511719,0-3.4580078-0.6240234-7.6669922-2.7880859c-6.6025391-3.3945312-10.8764648-4.5449219-14.9995117-4.5449219
					c-7.1494141,0-11.1665039,4.8027344-11.1665039,17h9.6665039c0-5.84375,0.9707031-7.3330078,3.1665039-7.3330078
					C341.0761719,638.7919922,343.0830078,639.4160156,347.2915039,641.5800781z"/>
				<path d="M347.8745117,490.5576172C354.3730469,494.0078125,358.171875,495.125,361.875,495.125
					c6.2910156,0,10.25-4.1240234,10.25-14.5h-8c0,5.2041016-1.2441406,6.75-3.5,6.75
					c-1.5332031,0-3.4414062-0.6298828-8.25-3.1826172c-6.4985352-3.4501953-10.2973633-4.5673828-14-4.5673828
					c-6.4882812,0-10.25,4.3925781-10.25,15.5h8c0-5.9853516,1.1269531-7.75,3.5-7.75
					C341.1586914,487.375,343.0664062,488.0048828,347.8745117,490.5576172z"/>
				<path d="M365.125,331.1245117c0,6.1362305-2.2099609,7.1669922-4.1669922,7.1669922
					c-1.8300781,0-4.1982422-0.8554688-9.1660156-3.5766602c-6.2280273-3.3979492-9.9199219-4.5898438-13.3339844-4.5898438
					c-5.984375,0-9.3334961,4.1616211-9.3334961,13.9995117H335.125c0-6.6791992,1.7973633-8.1665039,4.1660156-8.1665039
					c1.8305664,0,4.1987305,0.8549805,9.1665039,3.5766602c6.2280273,3.3974609,9.9194336,4.5898438,13.3334961,4.5898438
					c5.3349609,0,9.3339844-3.3271484,9.3339844-13H365.125z"/>
				<path d="M366.125,181.625c0,7.0678711-3.1748047,7.5834961-4.8330078,7.5834961
					c-2.1269531,0-4.9560547-1.0805664-10.0830078-3.9711914c-5.9570312-3.3447266-9.5415039-4.6123047-12.6669922-4.6123047
					c-5.480957,0-8.4169922,3.9316406-8.4169922,12.5h4c0-7.3735352,2.4682617-8.5834961,4.8334961-8.5834961
					c2.1269531,0,4.9555664,1.0805664,10.0825195,3.9711914c5.9570312,3.3447266,9.5410156,4.6123047,12.6669922,4.6123047
					c4.3789062,0,8.4169922-2.5307617,8.4169922-11.5H366.125z"/>
				<path d="M331.125,42.125h2c0-8.0673828,3.1391602-9,5.5-9c2.4238281,0,5.7128906,1.3056641,10.9990234,4.3652344
					C355.3105469,40.7822266,358.7871094,42.125,361.625,42.125c3.421875,0,7.5-1.734375,7.5-10h-2c0,8-4.1396484,8-5.5,8
					c-2.4238281,0-5.7128906-1.3056641-10.9990234-4.3652344C344.9394531,32.4677734,341.4624023,31.125,338.625,31.125
					C333.6484375,31.125,331.125,34.8261719,331.125,42.125z"/>
			</g>
			<g>
				<polygon points="250.2250977,935.625 257.125,947.125 277.125,947.125 264.125,929.125 236.125,929.125 223.125,947.125 
					243.125,947.125 250.0249023,935.625 "/>
				<polygon points="250.2250977,785.2919922 257.5410156,797.125 275.2080078,797.125 262.2080078,779.4580078 
					238.0410156,779.4580078 225.0415039,797.125 242.7080078,797.125 250.0244141,785.2919922 "/>
				<polygon points="250.2250977,634.9580078 257.9584961,647.125 273.2915039,647.125 260.2919922,629.7919922 
					239.9584961,629.7919922 226.9584961,647.125 242.2919922,647.125 250.0249023,634.9580078 "/>
				<polygon points="250.2250977,484.625 258.375,497.125 271.375,497.125 258.375,480.125 241.875,480.125 228.875,497.125 
					241.875,497.125 250.0249023,484.625 "/>
				<polygon points="250.2250977,334.1079102 259.4331055,347.1245117 268.9580078,347.1245117 255.9580078,330.4580078 
					244.2915039,330.4580078 231.2915039,347.1245117 240.8164062,347.1245117 250.0244141,334.1079102 "/>
				<polygon points="250.2250977,183.5917969 260.4916992,197.125 266.5415039,197.125 253.5415039,180.7915039 
					246.7084961,180.7915039 233.7084961,197.125 239.7583008,197.125 250.0249023,183.5917969 "/>
				<polygon points="250.2250977,33.0751953 261.5498047,47.125 264.125,47.125 251.125,31.125 249.125,31.125 236.125,47.125 
					238.7001953,47.125 250.0249023,33.0751953 "/>
			</g>
			<g>
				<path d="M559.125,39.125c0-4.9707031-4.0292969-9-9-9s-9,4.0292969-9,9s4.0292969,9,9,9S559.125,44.0957031,559.125,39.125h2
					c0,6.0751953-4.9248047,11-11,11s-11-4.9248047-11-11s4.9248047-11,11-11s11,4.9248047,11,11H559.125z"/>
				<path d="M550.125,180.6245117c-4.4189453,0-8,3.5820312-8,8c0,4.418457,3.5810547,8,8,8c4.4179688,0,8-3.581543,8-8h3.6669922
					c0,6.4433594-5.2236328,11.6669922-11.6669922,11.6669922s-11.6669922-5.2236328-11.6669922-11.6669922
					c0-6.4428711,5.2236328-11.6665039,11.6669922-11.6665039s11.6669922,5.2236328,11.6669922,11.6665039H558.125
					C558.125,184.206543,554.5429688,180.6245117,550.125,180.6245117z"/>
				<path d="M550.125,331.125c-3.8662109,0-7,3.1342773-7,7s3.1337891,7,7,7s7-3.1342773,7-7h5.3330078
					c0,6.8115234-5.5214844,12.3334961-12.3330078,12.3334961s-12.3330078-5.5219727-12.3330078-12.3334961
					s5.5214844-12.3330078,12.3330078-12.3330078s12.3330078,5.5214844,12.3330078,12.3330078H557.125
					C557.125,334.2592773,553.9912109,331.125,550.125,331.125z"/>
				<path d="M556.125,487.625c0-3.3134766-2.6865234-6-6-6s-6,2.6865234-6,6s2.6865234,6,6,6S556.125,490.9384766,556.125,487.625h7
					c0,7.1796875-5.8203125,13-13,13s-13-5.8203125-13-13s5.8203125-13,13-13s13,5.8203125,13,13H556.125z"/>
				<path d="M550.125,631.125c-3.3134766,0-6,2.6865234-6,6s2.6865234,6,6,6s6-2.6865234,6-6h7.6660156
					c0,7.5478516-6.1181641,13.6669922-13.6660156,13.6669922s-13.6669922-6.1191406-13.6669922-13.6669922
					s6.1191406-13.6669922,13.6669922-13.6669922s13.6660156,6.1191406,13.6660156,13.6669922H556.125
					C556.125,633.8115234,553.4384766,631.125,550.125,631.125z"/>
				<path d="M550.125,780.625c-3.3134766,0-6,2.6865234-6,6s2.6865234,6,6,6s6-2.6865234,6-6h8.3330078
					c0,7.9160156-6.4169922,14.3330078-14.3330078,14.3330078s-14.3330078-6.4169922-14.3330078-14.3330078
					s6.4169922-14.3330078,14.3330078-14.3330078s14.3330078,6.4169922,14.3330078,14.3330078H556.125
					C556.125,783.3115234,553.4384766,780.625,550.125,780.625z"/>
				<path d="M556.125,936.125c0-3.3134766-2.6865234-6-6-6s-6,2.6865234-6,6s2.6865234,6,6,6S556.125,939.4384766,556.125,936.125h9
					c0,8.2841797-6.7158203,15-15,15s-15-6.7158203-15-15s6.7158203-15,15-15s15,6.7158203,15,15H556.125z"/>
			</g>
		</g>
	</svg>
