<?xml version="1.0" encoding="utf-8"?>
<!-- Generator: Adobe Illustrator 11 Build 225, SVG Export Plug-In . SVG Version: 6.0.0 Build 78)  -->
<!DOCTYPE svg PUBLIC "-//W3C//DTD SVG 1.0//EN"    "http://www.w3.org/TR/2001/REC-SVG-20010904/DTD/svg10.dtd" [
	<!ENTITY ns_flows "http://ns.adobe.com/Flows/1.0/">
	<!ENTITY ns_svg "http://www.w3.org/2000/svg">
	<!ENTITY ns_xlink "http://www.w3.org/1999/xlink">
]>
<svg  xmlns="&ns_svg;" xmlns:xlink="&ns_xlink;" xmlns:a="http://ns.adobe.com/AdobeSVGViewerExtensions/3.0/"
	 width="800.25" height="1050.25" viewBox="0 0 800.25 1050.25" overflow="visible" enable-background="new 0 0 800.25 1050.25"
	 xml:space="preserve">
	<metadata>
		<x:xmpmeta  x:xmptk="XMP toolkit 3.0-29, framework 1.6" xmlns:x="adobe:ns:meta/">
			<rdf:RDF  xmlns:iX="http://ns.adobe.com/iX/1.0/" xmlns:rdf="http://www.w3.org/1999/02/22-rdf-syntax-ns#">
				<rdf:Description  rdf:about="" xmlns:pdf="http://ns.adobe.com/pdf/1.3/"></rdf:Description>
				<rdf:Description  rdf:about="" xmlns:tiff="http://ns.adobe.com/tiff/1.0/"></rdf:Description>
				<rdf:Description  rdf:about="" xmlns:xapGImg="http://ns.adobe.com/xap/1.0/g/img/" xmlns:xap="http://ns.adobe.com/xap/1.0/">
					<xap:CreateDate>2005-10-18T08:31:30Z</xap:CreateDate>
					<xap:ModifyDate>2005-10-18T08:31:30Z</xap:ModifyDate>
					<xap:CreatorTool>Illustrator</xap:CreatorTool>
					<xap:Thumbnails>
						<rdf:Alt>
							<rdf:li  rdf:parseType="Resource">
								<xapGImg:format>JPEG</xapGImg:format>
								<xapGImg:width>172</xapGImg:width>
								<xapGImg:height>256</xapGImg:height>
								<xapGImg:image>/9j/4AAQSkZJRgABAgEASABIAAD/7QAsUGhvdG9zaG9wIDMuMAA4QklNA+0AAAAAABAASAAAAAEA
AQBIAAAAAQAB/+4ADkFkb2JlAGTAAAAAAf/bAIQABgQEBAUEBgUFBgkGBQYJCwgGBggLDAoKCwoK
DBAMDAwMDAwQDA4PEA8ODBMTFBQTExwbGxscHx8fHx8fHx8fHwEHBwcNDA0YEBAYGhURFRofHx8f
Hx8fHx8fHx8fHx8fHx8fHx8fHx8fHx8fHx8fHx8fHx8fHx8fHx8fHx8fHx8f/8AAEQgBAACsAwER
AAIRAQMRAf/EAaIAAAAHAQEBAQEAAAAAAAAAAAQFAwIGAQAHCAkKCwEAAgIDAQEBAQEAAAAAAAAA
AQACAwQFBgcICQoLEAACAQMDAgQCBgcDBAIGAnMBAgMRBAAFIRIxQVEGE2EicYEUMpGhBxWxQiPB
UtHhMxZi8CRygvElQzRTkqKyY3PCNUQnk6OzNhdUZHTD0uIIJoMJChgZhJRFRqS0VtNVKBry4/PE
1OT0ZXWFlaW1xdXl9WZ2hpamtsbW5vY3R1dnd4eXp7fH1+f3OEhYaHiImKi4yNjo+Ck5SVlpeYmZ
qbnJ2en5KjpKWmp6ipqqusra6voRAAICAQIDBQUEBQYECAMDbQEAAhEDBCESMUEFURNhIgZxgZEy
obHwFMHR4SNCFVJicvEzJDRDghaSUyWiY7LCB3PSNeJEgxdUkwgJChgZJjZFGidkdFU38qOzwygp
0+PzhJSktMTU5PRldYWVpbXF1eX1RlZmdoaWprbG1ub2R1dnd4eXp7fH1+f3OEhYaHiImKi4yNjo
+DlJWWl5iZmpucnZ6fkqOkpaanqKmqq6ytrq+v/aAAwDAQACEQMRAD8A9U4q7FXYq7FXYq7FXYq7
FXYqhtT1Kx0vTbvU7+UQWNjDJc3c5BISKFC8jkKCfhVSdhiqJxV2KuxV2KuxV2KuxV2KuxV2KuxV
2KsW/Kx3f8uvLruxZmsYSWJqSePjirKcVdirzfyzp2tRXXlUz21yiwXmvtdGRJAESW4mMBkqNg6k
FK9R0xV6RirsVedfmP5ovob/AEXTItC1SZf0zaFbiBbb0rj0Fa6KRFp1ev7mvxKv2T2xVS0PzfqF
z+Y+tyny3q6RtZ6VYlGW0pAUlu5mkkpcmgZbpfs1NF6Yq9KxV4n5/i0vWNG/MyPX72WTW9L0+/fS
NGeeSGKGzSwLw3MNurIk3qPyLSsGofg2pTFXp2ieStJ0PUGu9KmvLeB42jk01rqaazLFgwlEMzSC
NxxpWMrWp5V2oqn2KvPrfyx5b81ec/Nb+ZbGDWJNLubax020vY1mit7V7C3ufUhjkDKryTzSgyqO
R4ha/DiqWadrmpxeU18r6HdSSalf6pqOkaBfuxleHT7S5dJrss1eS2UdYkLV5OIwftYq9J0jS7LS
dLtNLskKWdlCkECkliEjUKOTHdjtuTuTirEvzIt7CbUfLia/H63lGW5kg1SJ/wDeY3MyBbH62vRo
DJySjVT1GTl2xVBeWtN8s2v5jPD5KtIbLSbGxuIPMSaeixaebxpYTaxCOICE3MapMXKjkqkBvtCi
r0XFWN6Tb3qefPMU8kUi2ctnpi28rKwjZ0N16gRj8JK8l5U8RXFWSYq7FXYqxr8tLS6s/IGgWt3D
Jb3MNlEk0EqlJEYLurKwBB+eKslxV2KuxV2KuxV5r5x8weY285+V7WPyvdyrZajeXVs63NiouFis
Lm15JymBUcbrlR6H6dsVXeR9c8wXXnHzTLN5buoIp9St7ae4e4s3W3EGn254twmZm+KQmkYYb+NQ
FXpGKsG/OfRtE1T8sfNM1/ZW95NYaRqM1nLNGkjwTR2sjB42YEowKjcYqutbW68q+bdH0mz1C4vN
D1tbmJdOvZXupLSW2i9YSw3Epeb0So9NkdmAJTjx3BVZvirHvMnk3ynqkzarq0TwzwQlJ763urix
c26VcpNLbSQGSJak8XJXrtirzvStPubufRLrTuegWnmeU2Oki2VYpbLy9Y28lzFDCGBEU17IgkkI
HII1PtICFWY6XBf+XvPNroiald6hpGr6fdXkUN9K1zLbXFjLbxsUmespjlW7FQ7EKyjjTliqjqum
nzr5k1fQNTmkj8r6OsEN3pcLGJr+e4jE5NxIhEn1dI2VRGpAduXOqjjiqVfpf/lVWlS6NexmTy3F
DO3le/RSWWRVaRNMuAo+KVj8Nu/WX7J+MVdVn3lu31G38vaXb6nK0+pQ2kEd9MxqzzrEolYkdSzg
nFUxxV2KuxV2KoXStP8A0dpttY/WZ7z6tGI/rV2/qzycf2pHoOTHuaYqisVdirsVdirsVS+60S1u
dasNXkeQXOnR3EUEYI9Mi69PmWBBPIeiONCOpxV2k6JaaXJqEkDyO+pXb3twZCD+8dEjovELRQkS
gfrxVMMVYL57/K601zR/MK6Ncz6TrGtWVzBKYbiSKzuJpoDEpuoKSxEGoDusfqce9aYqnmh+S9L0
q/bVGnutS1d4zAdR1Cdp5ViJDNHEvwxRKzKCwjReRpXoMVT7FUs8yeX7PzBpMmk3skqWVw0Zuo4S
q+tEjh2gclW/dyheEgFCVJFcVWeYvLVlrlnBBLLNZ3FnMtzp9/aMqT206KyCSIusifYdkKurKykg
gg4qhdA8oDTdTm1i/wBTuta1maEWwvbwQp6VuG5mKGK3jhjRWajMeJZiBU7CirWteTo77VBrGn6l
eaJq/pLBNd2JhYTxRlmjjnhuI54ZAhduLcQ4qaMMVS+4/LHTtVP/ADtepXvmZFVhFa3xhitY2deP
Nbe0itkLqCeDycmU7qQcVZLo2nNpml2untd3F/8AVYxELu8ZXuJAuwMjosYZqbcqVPU1O+KozFXY
q7FXYq7FXYq7FXYq7FXYq7FXYq7FXYq7FXYq7FXYq7FXYq7FXYq7FXYq7FXYqkPkXzhY+cPK9p5h
sYZbe1u3nRIZ+PqA21xJbtXiWG7REjfpiqfYq7FWIaT+ZelanJpKRWs6HV9U1DR4OfD4ZdNS4eR2
ox+BhaNxpvuK4qy/FXYqkvmnzVZ+XYdNkuopJv0nqVppUCxcaiW9lEaseRHwr9pqb0xV0Pmqzm85
XflVIZDd2dhBqM1xQeiFuJZIkjrWvP8AclunTFU6xV5t+ZP5y6d5bttd03RrS81jzJpWnzXc6Wds
09tYt6LSQyX0paJEj25MA3Lj26YqmHkX807HzHJZ6Ze6bqWj63cWouUg1C0aCKdVVTJJbyqZYnSr
VHx1p2xVnOKsK1/8yLm08xXHl7y95evfMup6fDHcasLSS3gitUmBMSPLcSRqZXUcljXfjviqZaL5
+8uap5Qk81iV7TS7ZJ31AXS+nLatalluIp034vEyEECvtUUxVMPLOtNrmgWGsGzmsBfwrOlpc8RM
iPunMKWAJWhpXbFUr87+frHyr+jrb6ldarrOszNBpOkWKq087xrzkasjIiRxru7s2wxVAaB+ZU91
5kt/LXmLy/e+WtZvYZLjTY7l7e4guUgoZVintZJU5orBmVqbYqzbFUqs/MVrdeZdU0BInW50q2s7
qaU04Mt806oFoa1X6q1ajuMVTXFXYq7FXmv/ADjj/wCSd0X/AIz6l/3U7nFXpWKuxVhGi/ljBpcm
jOuoNL+h9X1LWVBjC+o2ppcoYj8R4iP659rvx6CuKs3xV2KvH/ze8r3955o8nxJ5k1WFNU8wQtHZ
xmyEFqLW0nm9W35WzSeoGjFPUZ13O3Siqh5O8n6lL+bnnB2826zI2jx6PbtKzWBe4VopLow3FLQL
wHqCgjCNRjU7iir2fFXhX5laB548paV+Y99pNhBrnlfzZZXdzfkTLb3unytYtBLKQ44TwhV5cVIc
dKeKrOPyt/Mjyx5g02z0O3eaz17T7G3N1pF/C9tciMRqvqorikkZ7MhI3HjirPcVeaTS+ZPJ3n7z
Nqi+Xr3XtG8zfVLq3m0sQvNBc2lqlq8E8cskJ4usSsrgkCtDirz71VhS70Xzg66Vo/6Ul82efIEb
6wkbX1wG0zRf3QYyySlUllVF+ILt9rFXtHlf8w/LPmS9uNPsJLiDU7WNZ5tOv7aeyufRc0WZYrlI
2aMnbktRX5jFWGfnlf2+mXnljW9KuBL560q6kfQNDRHml1CG4QR3lt6cQZ0Vo1B9UjihUVxVD/l5
qF75+19fzI1uWLT7Py8t5YaZ5ajLPcWUrEJdy6gzLGwnZI6CPjRVodzuVXqWia1put6RZ6xpc31j
Tr+JLi0n4unOOQVVuLhXFR2IriqDsfLiWnmvV/MInLvqtrY2jW/GgjFi1wwYNXfn9a6U2piqc4q7
FXYqwz8nbLRrH8vNNttG+uDTklvTD+ko1iuqtezNJzRdgPULcPFaHFWZ4q7FXYq7FXYq8e87fl89
5+anlDhq2uehdSave3Ekd7KEtStuqqsDdIAxuOAUdV26A4q3+WXkF083+b9Wm1TWh9V1xILcT3kt
LqO1s7ejXAP9+tWKgn9kU7Yq9gxV5J+b3n++sPK3nPQtW8t6lDbXGl30Ol63axG8splls2VTO8NW
tmDsQfUWlBy5UxVL/Kj3/nLzj5C1jT9CvLDSfKWnzi91rUbdrT6011ZC3jt7VXpJKgYmQuV47be6
r2vFUl85+Y/8OeWr7V0tZb64gQLaWMCs8k9xIQkMSqtT8UjAE9hv2xV5hrfkrUfLHlfyxrWoQNrO
oWPmGLzF50e2iMrySzRSxyXEcagu62byp6aqPsJWm2KprYa/pvnf82NB1fyys1xpPl/T79dU1gwS
QQyPfeiILRGlVGkZTE0jACi7b1JGKofVNVg8k/nFrPmXzPa3B0PW9Os7XSddigluYrI2xf6xay+i
sjxCZ2WSvHiaexoqw38xtU/xNf3Wp/k1DqF55j1K0msvMc1vaywadPZmB1DTyXIgQ3cdR6DIS37J
22xV7V+W91os/kbRU0ZZotPtLSG0iguo2huIvq6CIxzRtusi8fi8eoJG+KskxV2KuxV2KuxV2Kux
V2KuxV2KuxV2KuxVD6jp9lqOn3On30K3FleRPb3UD/ZkilUo6N7MpIxVUt7eG2t4reBBHBCixxRj
oqKKKB8gMVVMVdirsVdirsVdirsVdirsVdirsVdirsVdirsVdirsVdirsVdiqncXFvbW8tzcypBb
wI0k00jBEREHJmZmoAoAqScVdb3Fvc28VzbSpPbzoskM0bB0dHHJWVlqCpBqCMVVMVdirsVdirsV
dirsVdirsVdirsVeS/8AOM/mLXde8h6hea1fz6jdR6xdwJPcOZHESLHxQFv2RU0GKvWsVdirwGy8
3+aH0by9K2q3JkuPzIl0udzK1XsRJdAWzb7xfAvw9NsVe/Yq7FXhH57fnh5Z0i80zy5p3mCWx1ux
12w/xBHCl3GYtPoZLgtIkfGROLJVY2LGuw2xVBaT/wA5F+R7z86LmX/E0x8qTaVBY6ZAYbwQyajJ
chmYQ+jVW4njzdR86Yq+hMVfOH5leaPPfnTUvzM0HTdaTy/5b8laVM17YpBHLc6lztZXdWdzyjjP
plSU7EbEnZVln5I+XPzP03RPKV7N5og1byde6RbSy6TdWqxXNoJLRWgjtp46l1QlVPqH7I6VNcVe
x4q8bvrXzF5//NrzX5ebzNqfl7Q/KFvp6W9voswtZri41CA3Bmml4uzKlOPDp0/yuSqA8v8A5ueY
dJ/LDXP0lMNb82aTr135U0OQKofUryNlW2fiKA7SVbxCnvir1byNomraJ5V07TtZ1KbVtXjj5ahq
E7mRpJ3JeTiT0RWPFB/KBirz/wDPfzL5hs9Z8k+WtO1p/Lem+Zr2e31TXIVHqxCJYzFCkjCkbTNI
QG67eFcVSRG8xfl/+cflLyppnmvVfNOn+YI7k6tpeszre3FrHEnKO5WYKjIpPLt0Ujwoq94xVgGm
6vqkn5463pL3UraZBoNlcQ2ZY+ksz3MqtIF6BmVQCcVZ/irsVdirxj/nFGCeH8utSWaNo2Ot3pCu
CpoVi33xV7PirsVU/qtsAAIkor+oo4jZ/wCYf5XviqpirsVfOf5x/m15bn8/eTtONrqXHy5r0txq
I+pyfvGs1aMG32rN8VT8O1N8Vd+XP5teW7v88PON/wDVtTCeYJNG07SlNnIPTKQmKQ3Ip+6HqsCC
x+zvir6MxV5B+fH5ReTda8t+YvOBjmsPMenaTeTG/sZTC06wWzMIblaMsiMq8G25Fdq0xViX5V+b
vzB8mXv5d+XPMF7DrflXzppcLaHKIxFdWDx2scv1c8f7yNBKiVbcjeooVKr6MxVgfm38odM13zGf
MthrOqeW9cmtxZ3t5pE6wm4gX7Kyq6SAsv7LChH0CirwuN00Z7TW/JlqlxpOnasnlT8vpL9jLHd6
xqLML/WLhl4mT+7McbD4fADjTFXrGleYPzJ8qfmN5f8AK3m/V7XzHpvmqG6+pahFaJYSW11ZRes8
bIjOro6bKTuT4U3VSj83J7/8yPNz/k7pMVtbwW1vFqnmDW7qP1Xtk5KYls46r+9PMVavRiPHFWK+
WtQtvyS1PzLYecbcSa7f211eaB55l9SY6ksUfNbSV5GkMcqsi/ADRjT/ACSyr3D8rdY1/Wvy90HW
Nf4fpbUbRLq49NPTWkxLx0Xt+7ZcVZOIohIZQiiQjiXoORA7VxVdirsVdirHvI/l7zBoOkzWeua/
J5ju5LmSeO+mhEDJE4XjDxDy1CUO9e+KshxV2KuxV2KuxVifmDyIdZ8/eVPNjX3op5WW/Edh6XL1
21CAQFjLzHDgFrTia+2Ku8meQv8ADeu+atXa9F5L5mvxfFBD6XoKqcEi5c5PUp/Nt8sVZZiryH8z
PyV1XUrfzNqnlHzDqWnajrdpcfX9CWVJbG/la2MQj4TlVhaUKsZfl8I6UxVr8p/yNfQ30DzJ5r1O
81bzLpemw2tjY3Lp9W0wGARvBAsZdWMYrHz5UPXrvir1/FUk866Fqmv+V9R0XTNT/Q11qERg/SIi
9do43NJOCc4viZKqG5fDWuKsf8y/lFoWq/l9YeTdPnk0iLR2t59Fv4AGktrm1NY56HiHYkty3Fan
cHfFUD5c/LDzQfOdh5u87eZF17UdGt5bfRbe2tFs4ITcrwnmYBn5ySJ8PYfhRV3nX8pNS1LzhF52
8o+YZPLPmgW31O8m9BLu3uoAQVSWF2UbUG+/QbVFcVSbW/yM80edikH5jecpNU0m3YyW2k6ZZxWE
YmKFFleQmZ3K8jQH+JGKs/8AIHlzXvLflu30bWdb/T8ln+6tb9rf6tL6CgBEl/ezCRlG3Pao6iu5
VZHirsVdirsVdirsVdirsVdirsVdirsVdirsVdirsVdirsVdirsVdirsVdirsVdirsVY75N/MPyf
5zivJfLWofX49Pl+r3bejPDwkIrx/fJHXp1FRirIsVdirD3/ADc/L1NNn1JtWpZW2qnQJpfq9z8O
pChMHH0uR6j4wOH+VirMMVdiqR+bvO3ljyhYW9/5ivfqVpd3KWVvJ6Usxe4lVmRAsKSNuI23pTFW
/wDGnlr/ABd/hD65/wA7ELX6+bH05f8Aeblw5+rw9L7X7PKvtiqd4qw38x/zW8oeQ9KubjVb+3Gq
LbS3Gn6Q0vCe5dFYxxqFWRkWR14cytBiqD/Lf86vI3nmysls9StrfXbiFZLjQ2mrPFIV5PGnNYjL
w7si4qz7FWE+evzl/LzyPfQ6f5h1P0b+eMzJaQxS3EgiFf3jrEr8F+E/a8MVT7y75v8ALXmPQI/M
GjahFdaPKrOLsEoqhPt+oHCtGVp8QYCmKu8p+bvL/m3Rk1ry/cteaZK7xxXJimhDtGeLcRMkbMA2
3ICmKqHnPz55S8l6WNT8y6jHp9qzcIuQZ5JH68Y40DO58aDbvirHPJv5+flX5v1dNH0XWQ+pygmC
2nhmtzLQVIjMqqrNQfZrXFXoWKpOnm7y8/myTykt3XzBFZ/pJ7L05drUyCL1PU4+l9tgOPLl7Yqn
GKuxV2KvnX/nDb/jlecv+2qv/EGxV9FYq7FXhE35D+b38p6jo4vNP+s3fnVvNEbmSb0xZEKPTY+j
X1vh+zTj/lYq93xV2KvmX/nJaz/Mq680eV9KfU9OOiatr1qvlyz4OJorlQsSyXLBfiRXnP2a7HFU
t8t6X+dV5/zkJ5h9PV9I/wAT6Tpttb6nfNA/1VrWcQTKkKcOQk4kfER44q+rMVfHX5z6Vc+V/wAy
/O+u+bvLs2taT5i0y4tfLmshBNDaXM1sIrdjy+BGiYcd6Mv2kr3Venf84/W35Ma9ofla+0yLT288
6BZILoxJ9XvBKYTBM8qUjM4o5HMhgDShrir3fFXz1rfmGy/Lj/nIPzJ5n816fctovmHTrWLRtVgg
e4VHhiijkt/h+yZHiO3+rXY1xV5/5cutdPlK58hWkbeXG8/6vd6xcLcARDTPLYCCSaQNxEYlETIl
aBlX/KU4q+mfIPmL8t59Nt/L3k3V7C9g0m3SKOzs7iOV0hjAQOyqeRqerdyfHFXl/wDzlTotxajy
p5/Vba8tPKd6HvNJu3VFuEmliYBA+zEmHiygE0NaGhxVjUGqy/nZ+Z/lrzboel/oXyh5ImS51LXL
z045ZZImjuTA3FiOKekAN6KrMxpUDFX0zYajp+o2kd5p9zFeWctfSubd1ljbixVuLoSpowIPvirD
LfyHq8f53XPntprc6RNoA0hYAz/WfXF0k/Irw4cOKdeda9sVZ3irsVdirxP/AJxi0nynp2neZ18u
+YH1+OXUA9272Ulj6MnE/uwJHk5/6wpir2zFXYq7FXYq7FXyv+cHlP8AMm4/OXyjpjecPVk1TUL6
+8u1tYwNLRGEiDr++4ooX4v5ffFVP8pPJ35lah+b3nS7h85cLzRb+yttevjZof0kiM4aIA0EXFbf
iePiDir6sxV4T+cP566Fpll528j69pt9pl1cabd2uh37xM9te/WLMopVgAV/fOVrQrtUkdMVeP8A
5XQaZ5j/ADK/LiTyNpU9teaDZ25846nGhhgdo1pKWptVkqhY7yFqb9Sq+1sVSvzT5k0vyx5d1DX9
Vk9Ow02Fp5jtU8fsoterOxCqO5OKvlrzz5W8y3n5N63+ZWtwyfprzdf2d3qNvGSWttBV/wDR7dR2
WvpOfbjy3BxVPmu/y11D87Py1P5UxWwkt47l9bfS4vSRbIxKIxc0UDnx9QNz+LcA7lcVU/zfv9Jt
P+cjtGm/MqN5PIUdoDpAmR5LL1uHxNJGgYPSc/GKHbhy+HFWG/mpr/lHRfMN7e/k1rf1mTzTaXNp
5i8uWMEslv6ckL8riKihFKhmai7oakfCSMVfQX/ONl75al/KDQbLQ79b36hEU1BRUPDdzO1xNG6n
cUeU8T0I3GKvT8VdirsVdiqC0zRNF0pZV0uwtrBZ25zLbQxwh2/mbgFqfc4qjcVdirsVdirsVQs+
k6VPfwahPZQS39qCLW7eJGmiDAhhHIRyWtd6HFXWmlaXZT3M9nZwW094/qXcsMaRvM+/xSMoBdtz
ucVRWKpf5g0LTdf0S+0bUo/VsdQgltp1GzcJkMbFTvxajGh7Yqt8t+XdL8uaFZaJpcZjsbCJIIFY
8m4oAoLN+01BucVTLFUNqOmabqVq1pqNpDe2jkF7e4jWWMlTUEo4ZTQ4qrvDE8TQuitEylGjIBUq
RQqQdqUxVL9H8seWtFaVtG0mz0xp95zZ28UBc9fj9NV5fTiqI1HStL1O2NrqVnBfWxIJguY0lSo6
Hi4YYqhdF8q+V9C5foTR7HS+Y4v9StobeorWh9JV774qq6Z5e0DSXmk0vTbWwe4p9Ye1gjhMnGpH
MxqvKnI9cVR+KuxV2KuxV2KuxV2KuxV2KuxV2KuxV2KuxV2KuxV2KuxV2KuxV2KuxV2KuxV2KuxV
4l/zjf8Amx5v8/X3m6HzDJBImjy2iWXoRCKgma5D8qE8v7lcVe24q7FXzNq35+fmFa+SPPOsRTWw
vdA8xLpWnkwKVFsZHWjrX4moo3xV9JWEzz2NtNJ9uWJHamwqygnFVfFXiH/OQv56P5Os7PT/ACpq
1j/iT68kOpWsvGZ4IDEzVkjr8HxMhqcVQR/5yL05vztGip5h01PIMdl6kl+SnBrn0q8BcFqfaYfd
TFXvmKvnj82Pz585yecNU/L38vtGivb2ytpf0rf3BPwKsXOZogJIlQRK1Obtu2wXpVVjv/OM/n/8
2Y7bR9Jm0JtX8o6nezR/4gZ5XmgcAtJ6snKUBV4fCrotenLfFX1Tirwvzt+YX5r67+bt7+XP5dzW
OlyaLZJe6jqN+nqczIkbhRVJQF/0iNQAla1NaYqv8hf85CzS/lZ5h8x+cYIodY8rTvY3UcB4pdTk
AQKg+LizueDUqBTlsNgqz38oNQ886r5HstY86NENW1Ot1FawxeiILaQAwxstSSxX4zXcVp1GKsN/
5yD/ADj8yeSrjQvLvlW2hk1/zC5WK7uhWKJeaxIFBKqXZ36seKgbg12VYXqn5tfnl+WPm/QrD8xZ
tM1rSNbahaxULIiBlSQoVSA84zIpoyEN0B7hV9NYq8vufzB8xx/85CWvkZXi/QMujm/dPTHq+sC4
r6nWnwjbFXqGKuxV2KvmD/nC3/jqfmF/xnsP+J3uKvp/FXYqxWb8rPy9msNQ0+XQrZ7LVbkX2oQE
NxmuQSfVff7VWOKsojjSONY4xxRAFVR0AAoBiq7FXxp/zkZq35N6j+ZGjfo9ka/j1aWDz5c+neKU
S2lhgZWDJR6KkorBX7PeoxVLfJsf5Aal+emsW93FE3ke9hitfLVrwvwr3shto1oAPWWrerUy0Xf5
Yq+3cVfM/wDzkX+T1xo82s/mx5W1qXTL5I1/S1kKgSCbhbOY3U7c1Yc0cENuajpirGfyI/NHzX+X
N55b8j+Z9HRPL/mgwXmj36keqqamV9KXkrNG8ZZl5KeLJvXwxV9fYq8f8/fkl5mvvPz+fPInmb/D
mv3lsLPU/UhE0cyKqoGFeQHwRoKFTuoYEHFXz1qWm6T5Zvr7TZZZPMflnyTeLqPmac0jj1TXpyIY
bSv7zjFFxYNy5GgmP7SjFXtXlr8+vzDtPNXlfSvP3la30nTfOIRdEvLSRiweUqIxIheXvLGGU8Sv
IH2xVJf+csNV8u+Yb3R/IOm6XNq/n95Fl057dgn1VJ6ckdmBD+qqVK7BQA5YU3VeaaLqC6B+YWqX
n51ve33mzy3YGfyzaX0nOyuZrWNngjaRQ9RIygxsPhZq8qtsVX1Z+UHn698++R7XzPd6cNLN3LMk
NushlVkhkMfMMVTqysOnbFU+byp5cbzInmZrCI69HB9VTUaH1RDueFa0p8RxVNsVdirsVefflVpP
5q6fca23nu406eGZ4TpA0+OOMqqmX1fV4RQ12aOla98Veg4q7FXYq7FXYq8U/MP8hovMX5qeWfMF
jpOlRaBaStc+Y4jFEkl5K8pkYyxiJhPyp8XqHepxVZ+Wv5BQaF+Y3mzzBrej6TLpV5dCbyxbRxxy
/VEWd3VkjaJVgYLwpw6dMVe3Yq+bP+cgvye8/GLzT5p8ueYbq603WBA+reVxHI5l9P0oU9JY+auV
EakVQMAPtHFVP8p/+cdvNN9qXlXzn581s3Uek2dlLo2iBZA8EcKLJbQTeosfp+iackVTVq1Piq+l
8VSTzsnmqTyrqUPlQwr5gmhMVhLcsUijdyFMpIV941JZRTcgV2xV5ev/ADjpbf8AKjJfIS3SRa7d
smoXeqHkyPqIYOSx+0Y6D0gaVp8VK4qkuh/lB+cPmHzb5PvvzCu9Ng0nyKyPpy6eWaa5kiaNkZ6i
g5G3j5H4dhstSTiqYfm5+R3nTU/zCs/zH/L/AFW3svMVsiLNb3dQpaNDEHjbjKp5RHgyOtKd96Yq
xfzL+R356/mheWZ8/ajo+l2mnq6wSWkIlnJYD+QKSrEbgygDqFxV6l+Rnlr8yPKflpfLHm1NPmst
OHHSb2xkYuYyxJiljMcfStQ/U999yq9LxV2KuxV2KuxV2KuxV2KuxV2KuxV2KuxV2KuxV2KuxV2K
uxV2KuxV2KuxV2KuxV2KpPo3nLyhrd1LZ6Lrmn6ndwKXnt7O6huJEUEKWdI2ZlHI03xVOMVdiqRH
z75GWG+mPmLTBDpciw6nKb23420kjFESdudImZ0ZQGpUgjFU4tLu1vLWG8s5o7m0uY1mt7iFg8ck
bgMjo6kqyspqCOuKquKpdrfmTy7oNvHc65qlnpVvK/pxTX08VsjPQnirSsgJoCaYqpnzZ5WGrw6K
dZsRrNwokt9N+sw/WZEKlwyQ8vUYFAWqB03xVNcVQeraxpmkWMl9qVzFa20SlmkmdIwaAmgLlRXb
xxVin5W/m95X/MnTru+0KO5thZTehLb3qwpMfhVuapFLN8HxUqT1xVm+KpP5h84+U/LcccnmDWLP
SlmqIfrc8cJenXgHILU70xVH6dqem6nZRX2m3cN9ZTjlDdW0iyxOK0qroWVvoOKobRvMvlzXBOdE
1Wz1QWzBLk2VxFcCNzWiv6TNxO3Q4qiNT1bS9Ks3vtUvILCyi/vLq6kSGJf9Z3KqPvxVJ9C/MXyF
r939S0XzFp2o3m5Ftb3MUkpA3JCBuRA8QMVZFiqXv5h0CPWY9DfU7Rdalj9WLS2njF00YBPNYC3q
FaKd6dsVTDFXYq7FXx//AM4d/wDk0/NP/MBL/wBRkeKvsDFXYq+Sbn8nPzLfy1+bVouhym48w6tY
3OjR+pDW4ihvrmWR1+Og4pIp+KnXFX0r+XWm32l/l95Y0y/iMF9Y6TY213ASCUlhtkSRCVJHwspG
xxVkOKvjb/nLrzH59vfMVv5d1TS4rby5DdNJ5evUR1lu2EMay8mMjI3BpqbIuKsZtvNf5wT/AJ7R
63B5cgk896ZB6Q0MRzGGONbP0N4zPz/uZeX971P0Yq+67V5ntonmXhMyKZUHQMR8Q798VfD358ag
dV/Py+07z1fXdl5csnEVr6C8zDbG3DxNCh5D97JQuwBO52NOOKph/wA4uflZpnmbUrbzSuuGz1Xy
7qkcsmlIVLT20apIp+FlkVWkqpJBVgCMVfauKvkP80/8ID/nKC9P5oer/hH6hEdP5+sY+H1NePH0
P3nD6z6v2f2+u2KsQ/Ln8xde8ufldr3lzQTPLqXmvVI9P8tQA/GnqJwupU8HKvDGN/tGo+ycVfWf
5O+RNI8ieSbPy5aSxT38Y9fV5o2DGS7kA9VjTfitOC1H2QO+KvFf+c19M8xyx+XNRVJpfLFsZUvB
EfgjuZGXi0goQC6VVGNabjvuq8h842PkPV/OPlu0/JKy1Aai8cTyqzSl1vOSshUysxVoqEyOD6Y6
g0BOKvv23EwgjE5DTBVErL0LU+Ijp3xV49qnknzTN/zk7pHm6OwdvLtvpL202ock4LKY5wE48ufW
Rf2cVeyYq7FXYq+af+cZvJelaH+YPmC8s/NOl65LPaSI9nYNMZYgblG5P6kca0BHHY9cVfS2KuxV
2KuxV2Kvib/nIA/m5f8A5taTpGsNDJI2pS/4IgU24/cXN4I7Yycehb04wTLvtviqG/Ln/ldWofnr
rF7p7QTebrSRovMshNrwWBJ44LhU5fu6jgF+DfbFX3Fir5P/AOcpPzO8i6suv+TLjSCPNOiy2q6Z
rJjR+SN6cs8Yk2kjoJGHHdWpWvTFXjXkwQw/mR5L/wACz3j6nI1h9d5DiVvWb/S44+NOUHD7XLty
rVd8VforirH/ADnoHkbUNLlvvN2m2N7YaZHJcPPfwxyiGNF5yMGcEqKLvTrir5B1mz1TzD5V83/m
7ZWn6H0iwMWj+TbK2jWFLa0e4WKaSJY+KpRJWUlducj03XFUq0+Dy35V1P8AK3WvIetyXXmfVWT/
ABFaxzCQxzPNCvoPEgDKJDJIhRvtBQe9Sqzj/nKLzfq99+amneSdb1CfR/Iw+pyXbwgkSxzPWa5Z
QP3npbqq7gFa0rirzzz2dH/LjXr1Py082RatoXmLT5rO7hjkEs0UUq8XjmdFVK1PKNlow3BFPtKv
pL/nERrE/lOPS1Fb6/mvp7jUYeZeS3duMUcbhviHKOFWHY12xV7ZirsVdirsVYr5U/K3yD5S1K51
Py7pEen314hiuZ0eVy6M4cikjuPtKDsMVZVirsVdirsVdirHta/L7ydrfmHTvMeqaZHda1pPA6de
M0gaIxuZEoqsENHNdxirtC/L3yboOu6lr+kaZHa6xrDO+pXitIzStLIZXJDsyjk55fCBirIcVYJ+
bP5Q+XvzF0J7G7WGz1Osf1fWhbxzXMSI4dkRiUbi4FCOWKon8uvyp8oeRtKtLfTLC2OqQwLBdayI
ES5uCAAzM/xMORFSvKmKsyxVLvMXl3RvMej3Gjazb/W9MugouLYu6BwrBwCY2RqclHfFVOy8q+XL
Hy4nlq20+FNBSE2w04ryhMLV5IytXlyqeVevfFWM+WPyL/KjyxrS63onl6K21OMsYrhpbif0y1am
NJpJEQ79VAxVOfOH5d+SfOVvHB5m0iDUlhqIZJAyyxg9Qk0ZSRQe4DYqx7Q/+ce/ya0S6+tWPle2
aahWt0894oBFDRLqSZR160xVNvKn5T/l95S1KXUvLekLpl5MhjmeGWfi6E14tG0jIRXcfDt2xVlu
KuxV2KuxV2KuxV2KuxV2KuxV2KuxV2KuxV2KuxV2KuxV2KuxV2KuxV2KuxV2KuxV4F+UP/OSWt+e
vzEbyrd6NbWduI7mT6zFJIz1g6Cjbb4q99xV2KvnaT/nKDXkt/zAl/QlqT5OkjS2HqSfvw+orZfv
PD4X5bd8Vev/AJW+cbnzn5B0jzNc26Wk+pRu728RLIpSV49i2/7FcVZViryL8+fz1b8trbTRplva
6pf3k0kdzaySkNCsaKwLBCWBPMUriqRRf85KXb/mnpHk36np/wCj72G0e+1T6yeMTz2i3MoBNE+A
txFTX6cVe9AhgCDUHcEdCMVeL/m9/wA5PeWvy/1l9AtdOk1vW4AjXcKyi3gh9RQyq0pWUl+LBuIT
6cVeV/kx/wA5ReY5fOkmnebmu9XttduYbXSYYFgrayzTFFWnGIup9RVJ5V26HFX15irw382v+cid
Y8ted18jeT/L51/zAkaSXKn1Hozxev6UcMI5uRDRy3LYYqmf5Yf85F6B5t8j655k1e3/AEPL5aRZ
NWhD+ohSRWMTRMQpJlaNlVOvLbeoxVNvyP8AzJ80fmHoN35g1XSIdJ0tpjDpQjd5JJglfVdiwUcV
NFBHUhulMVQX55fn3pv5YxWdpHYnVNc1BGlgtS/pRRxKePqSvRm3bZVA3odxiry+w/5zE806Zqlt
H5z8nmx067pLHJD60Ewt2PwyxpcDjMPkVBxV9P2F7a39jb31pIJbW7iSe3lHRo5FDIwr4qcVeZ+Y
Pzh1LS/zx0T8uY9PhkstVt1nkv2dxKhZJmoFHw/7pH34q9TxV2KuxV8Qf84sf+T5f/jBf4q+38Vd
iryR/wDnGXyG0XmqI3+qcfN7q+pH1besZS7W9Hof6P8AD+8Wnxcvh998VZ/5J8oab5O8rWHlrTJZ
prHTkZIJLlkaUh5GkPMosandz0UYqnmKvhH/AJyhsvKJ/Mu5v9E1pdQ1C/nlj1u1pRbKe29O3EZN
PFGr8sVYxpfk38vrz805fLkvmUw+Ug8iQeYCq1k4xVSi9Pjl+HFX6I2sAt7aKAHkIkVAx6kKKVxV
8Z/85Lfl75o8l/mEfzKsZYpNM1DUIZbSZwkjwXyx+oI5IZAVdT6DMpoRTY+6rGPyN/Mfy35b8+TX
XnHRkvV1i6t7iLUCi+pYXHqNIlzGjDlxPrVPFgePTl0xV974q+dfzX/Jv80Y/wA3E/Mz8upbefUZ
kUSwTtGjQyLa/UyQJv3bo8I8ag9sVfPWreXtW8qTXvkbVL9Y3uJLfUPOL2pEwgitgzQwepVVkkHr
livLi0jRrXkMVe9+Qf8AnK3yJZHR/LX+G7rQfLahbLT9QeRZUREPBXkUIvf+8ZWYg+OKpb/zmrZ+
TZE0e8k1H0vN8KGOHTUXn6tkzkl5CP7rg/LgT9rcUNKqq8L1Hzhq/n3UbFPPmum3stAsTFB+5rO6
QgVhiVQqtcTUHxSso23PQFV9sfkf+YXlvzn5NVvLmn3WnaVobR6TBDd8C3G3gj4gFGcGiMoxVF6r
+UXlvU/zL038w57m8XWtLiEFvbxvELVlVZFq6GJpCf3x6SDtirN8VdirsVeBflDpX5m2/wCYjTa/
+X+h+X9J9O5A1fT7G0t7nkfsL6sUjvR/2tt8Ve+4q7FXYq7FXYq+UPzh/wCccdV1L827K78t6Nc3
GgaxOl55jv8A6xFRJ7u9ka64CQqyhIiGFAeuKoT8vf8AnF+8m/NPWE8yaNd2Xku1e6k0Sczx85PT
ulForGN3aphJY1HbFX11ir40/wCcs/JHnvTdbvvNN5qKz+UtavrZLexjlkAiuYrRo4vUt2+DkIop
KOpPU9K4qhfy/wD+cd/zO893/l/XPNsiW3lhLSy+qzyyxSyyaZFEpt4YIYS/ENHQfvOJFSSCdiq+
1cVSfzjqWuab5Y1G80HT21XWo4T+j7BSq+pO3wpyLsg4KTybfoDTfFXz35Z/5xx8zXn5SebH134P
zD81OLhjcOrFBb3K3KxO6ErW4kQs5rTdf5cVefwfk5+eHm208qeSNX8vDSNH8tPdxrqsnBQsV5OJ
Z3dldllKlaJ6Y3792xVnH/OSX5E+f9c88jzp5Vtl1WKSGAXFmGjE0UtuOIKxykLIjKqmgqa12pir
B/NX5X/n9+aHmKK/1fylbaXfpCIp78KlmkqoPgM3KRy7CnEFVrTboBRV7B/zjRYfmZ5P05/KHmfy
jJY6Y0slxbaxE8DUlfd1uVWVmYHiAjqNtgRTcKvfMVdirsVdirsVdirsVdirsVdirsVdirsVU57e
3nQJPEkqA1CuoYV6VocVXoiIioihUUAKoFAANgABireKuxV2KuxV2KuxV2KuxV2KuxV2Kv8A/9k=
									</xapGImg:image>
							</rdf:li>
						</rdf:Alt>
					</xap:Thumbnails>
				</rdf:Description>
				<rdf:Description  rdf:about="" xmlns:dc="http://purl.org/dc/elements/1.1/">
					<dc:format>image/svg+xml</dc:format>
				</rdf:Description>
			</rdf:RDF>
		</x:xmpmeta>
<?xpacket begin='﻿' id='W5M0MpCehiHzreSzNTczkc9d'?><x:xmpmeta xmlns:x='adobe:ns:meta/' x:xmptk='XMP toolkit 3.0-29, framework 1.6'>
<rdf:RDF xmlns:rdf='http://www.w3.org/1999/02/22-rdf-syntax-ns#' xmlns:iX='http://ns.adobe.com/iX/1.0/'>

 <rdf:Description rdf:about='uuid:8b05bb2e-f985-11dc-9f4c-001124808cba'
  xmlns:pdf='http://ns.adobe.com/pdf/1.3/'>
 </rdf:Description>

 <rdf:Description rdf:about='uuid:8b05bb2e-f985-11dc-9f4c-001124808cba'
  xmlns:tiff='http://ns.adobe.com/tiff/1.0/'>
 </rdf:Description>

 <rdf:Description rdf:about='uuid:8b05bb2e-f985-11dc-9f4c-001124808cba'
  xmlns:xap='http://ns.adobe.com/xap/1.0/'
  xmlns:xapGImg='http://ns.adobe.com/xap/1.0/g/img/'>
  <xap:CreateDate>2005-10-18T08:31:30Z</xap:CreateDate>
  <xap:ModifyDate>2008-03-24T09:35:02Z</xap:ModifyDate>
  <xap:CreatorTool>Illustrator</xap:CreatorTool>
  <xap:MetadataDate>2008-03-24T16:39:43+09:00</xap:MetadataDate>
  <xap:Thumbnails>
   <rdf:Alt>
    <rdf:li rdf:parseType='Resource'>
     <xapGImg:format>JPEG</xapGImg:format>
     <xapGImg:width>196</xapGImg:width>
     <xapGImg:height>256</xapGImg:height>
     <xapGImg:image>/9j/4AAQSkZJRgABAgEASABIAAD/7QAsUGhvdG9zaG9wIDMuMAA4QklNA+0AAAAAABAASAAAAAEA&#xA;AQBIAAAAAQAB/+4ADkFkb2JlAGTAAAAAAf/bAIQABgQEBAUEBgUFBgkGBQYJCwgGBggLDAoKCwoK&#xA;DBAMDAwMDAwQDA4PEA8ODBMTFBQTExwbGxscHx8fHx8fHx8fHwEHBwcNDA0YEBAYGhURFRofHx8f&#xA;Hx8fHx8fHx8fHx8fHx8fHx8fHx8fHx8fHx8fHx8fHx8fHx8fHx8fHx8fHx8f/8AAEQgBAADEAwER&#xA;AAIRAQMRAf/EAaIAAAAHAQEBAQEAAAAAAAAAAAQFAwIGAQAHCAkKCwEAAgIDAQEBAQEAAAAAAAAA&#xA;AQACAwQFBgcICQoLEAACAQMDAgQCBgcDBAIGAnMBAgMRBAAFIRIxQVEGE2EicYEUMpGhBxWxQiPB&#xA;UtHhMxZi8CRygvElQzRTkqKyY3PCNUQnk6OzNhdUZHTD0uIIJoMJChgZhJRFRqS0VtNVKBry4/PE&#xA;1OT0ZXWFlaW1xdXl9WZ2hpamtsbW5vY3R1dnd4eXp7fH1+f3OEhYaHiImKi4yNjo+Ck5SVlpeYmZ&#xA;qbnJ2en5KjpKWmp6ipqqusra6voRAAICAQIDBQUEBQYECAMDbQEAAhEDBCESMUEFURNhIgZxgZEy&#xA;obHwFMHR4SNCFVJicvEzJDRDghaSUyWiY7LCB3PSNeJEgxdUkwgJChgZJjZFGidkdFU38qOzwygp&#xA;0+PzhJSktMTU5PRldYWVpbXF1eX1RlZmdoaWprbG1ub2R1dnd4eXp7fH1+f3OEhYaHiImKi4yNjo&#xA;+DlJWWl5iZmpucnZ6fkqOkpaanqKmqq6ytrq+v/aAAwDAQACEQMRAD8A9KaVpWlnS7MmzgJMEdT6&#xA;afyD2xVFfonSv+WKD/kUn9MVd+idK/5YoP8AkUn9MVS3y1pWlny5pRNnASbO3JJjT/fS+2Kpl+id&#xA;K/5YoP8AkUn9MVd+idK/5YoP+RSf0xVLfLOlaWfLmlE2cBJs7ckmNP8AfS+2Kpl+idK/5YoP+RSf&#xA;0xV36J0r/lig/wCRSf0xVLfL+laWbCUmzgP+mXw3jTteSjwxVMv0TpX/ACxQf8ik/pirv0TpX/LF&#xA;B/yKT+mKpb5f0rSzYSk2cBP1y+G8adryUeGKpl+idK/5YoP+RSf0xV36J0r/AJYoP+RSf0xVLfL+&#xA;laWbCUmzgP8Apl8N407Xko8MVVtRfynpgiOpNYWInf04DcmGIO5/ZTnx5H2GKoz9E6V/yxQf8ik/&#xA;piqW6VpWlm/1kGzgIF4gH7tNv9Dtz4YqmX6J0r/lig/5FJ/TFXfonSv+WKD/AJFJ/TFUt0rStLN/&#xA;rINnAQLxAP3abf6HbnwxVMv0TpX/ACxQf8ik/pirv0TpX/LFB/yKT+mKpZ+jtP8A8S+j9Wi9L6nz&#xA;9PgvHl6tOVKUrTFUw0+VIdEtppK8I7ZHfiCxosYJoqgsfkBirErTXYNIv7/Whp2qWflq8H1i8ea1&#xA;VYop+r3XpGUXkSum8oa3pUcjxPOqrOgQwBBqDuCOhGKpZ5aIHlnSiegsrc7Cp/ul7DFWMa9rSast&#xA;rcXOl6svlizkNzfFrQIJzEQ0JkhklS89GNgZGQW55ELX4QysqziGWKaJJonEkUih43U1VlYVBBHY&#xA;jFUv8sf8o1pP/MHb/wDJpcVYLrCNql/ca/8AU9YkuLUg6Fq8dj6aaciCrcbOWaO8uPWbkJ+MX7xK&#xA;KAKAlV6NYXlve2NveW0q3FvcxJNDPH9h0kUMrr12YGoxVB+Xv94Jf+Yy+/6jJcVYUYJrcy3WkJ5k&#xA;N5FNK95qoQNDMWdnZWsb+VDJHVqJ9XiqFFEYDqqzLysFOg2syahJqqXXO6W/lBUuLmRpgAh3RE9T&#xA;iiH7KgL2xVf5e/3gl/5jL7/qMlxVIrrV2bVtUuLTTNYvIpbeOwneKBIYomtZJ+UkS3UlvJKWM/2o&#xA;kYEKKE4qnvlq4srjQNPksp2urYQJGk8iskjemODeojgOjhlIdWFQ1Qd8Vd5e/wB4Jf8AmMvv+oyX&#xA;FWG+abnWn8x3N5oXl6TXH+ptpV4t9D6FvEvNpGkhecp9YRuVJY4xSTitHHHFWV+TGs/8KaVDZ3El&#xA;1BaWyWfrzo0cxe1HoSCVH+JJFeNg6ncNUYqr6T/vfrX/ADGJ/wBQdviqZ4q7FUs0n/e/Wv8AmMT/&#xA;AKg7fFUzxV2KpT/01X/Rj/zOxVTudXj0byc+rSRtMlhYfWDChAZ/Ti5cATsC1KVO2KpNrOneZm8u&#xA;6he675gGnRx2k0tzb6dBbi3jRY2Z1eW8junkCitXolevFemKp95UJbyvo5JqTY2xJPUn0VxVDWGp&#xA;2+leRLbVLkMbew0tLqYIKsUhtw7cRtvRcVQi2Hm25sze6zro0VeBlltNOit2SBQtWSS4vEuRLw/a&#xA;cIgPgMVRH5dkN+X/AJZINQdJsSCOhH1ZMVROh3MVr5Q0+6mr6UGnwyyUFTxSEMaD5DFUr0yHzbrW&#xA;nwape6v+hYbuNZ4bHTooHeGNxzVZri6S5SRwpHIpGi+FftFVW/LOSKTyBoMkMvrwtZxmKbb40p8L&#xA;fCFXceAAxVM/L3+8Ev8AzGX3/UZLiqSaO3mjzLptrrLaqdG0/UIkubKzsoYZLhYJVDxetPcrcRs7&#xA;KQWCRAL9mrU5FVX/AC1eJ/Jli8Vx9ajL3PC5qh9QfWpfj/dhU+Lr8IA8MVTTy9/vBL/zGX3/AFGS&#xA;4qkuky+Z/MtmmqrqY0bSrur6fb2kMUl0YCf3ck01yJow0i0bgsPwVoWY4qv/AC0aNvKzmO6a+Uap&#xA;rC/XG9PlKV1a6Bc+ksce5H7KgeGKpv5e/wB4Jf8AmMvv+oyXFUnsZvM3mJZbyDURo2lCeaG1jt4Y&#xA;5ruRbeVoTK8s4liUSFCyoIiQKVavwhVf+X/1cabqMcN5JfiLVL6OW6l9L1GlWdhLy9BY4wQ9Rsox&#xA;VNdJ/wB79a/5jE/6g7fFUzxV2KpZpP8AvfrX/MYn/UHb4qmeKuxVKf8Apqv+jH/mdiqra2dre+Xo&#xA;rO7iWa1ubRYbiFxVXjki4urDwKmmKpV/gSymWK31HUtQ1TTIGVodLvJkeD4CGQSlUSa4CkDa4kce&#xA;OKp7pthBp2nWun25YwWcMcERdiz8IlCLyY9TQbnFUF5ehin8q6bDMiyQy2MCSRsAVZWhUFSD1BGK&#xA;pbH5BsPq6WFxqWoXeixgLHpE86tBwGwjdwi3EqDpwllZSNiCMVT7S9NtdL021020BW1sokt7dSal&#xA;Y41CotfZRTFUL5aAbyzpQIqDZW4IPQj0lxVKh+X2nfVBpj6hqD6Aq+muhtMv1YRjYRFwguWip8Pp&#xA;tMU4/DTjtiqfaXplppdhFY2ilbaHkIkJrxDMW4jwArQDsNsVQ/l7/eCX/mMvv+oyXFUrXyDYpC1j&#xA;DqWowaKxP+4aKcJbqrEkxpIE+tJHvQRpMEA2AA2xVOdG0bT9HsFsNPiENokk0scS0CqZ5WmYKBQB&#xA;Q0hoOwxVS8vf7wS/8xl9/wBRkuKpa/ka0pNb2+p6jZ6XcO8k2l286pDylYvIEk4G5iVmYnjFKqjs&#xA;AMVTXQ9D0zQ9PXTtMhFvYxu7w267JH6jFysajZVqdgMVWeXv94Jf+Yy+/wCoyXFUvfyVbie4Nnqm&#xA;oafZ3krz3Wn2sypC0khLSMjMjTQc2JZvRkSrEnqcVTHQvL2k6FbS2ulwi3tZZBL6K/ZVhGkfw133&#xA;EYJr1NTirWk/7361/wAxif8AUHb4qmeKuxVLNJ/3v1r/AJjE/wCoO3xVM8VdiqU/9NV/0Y/8zsVU&#xA;NKn8x/ouzpY2ZHoR0JvJR+wP+XbFUV9Y8y/8sFn/ANJkv/ZLirvrHmX/AJYLP/pMl/7JcVS3y1P5&#xA;j/w5pXGxsyv1O34k3coJHpL1H1Y4qmX1jzL/AMsFn/0mS/8AZLirvrHmX/lgs/8ApMl/7JcVS3y1&#xA;P5j/AMOaVxsbMr9Tt+JN3KDT0l7fVjiqZfWPMv8AywWf/SZL/wBkuKu+seZf+WCz/wCkyX/slxVL&#xA;dAn8x/UZeNjZkfXL3rdyjf65LX/j2PfFUy+seZf+WCz/AOkyX/slxV31jzL/AMsFn/0mS/8AZLiq&#xA;W6BP5j+oy8bGzI+uXvW7lG/1yWv/AB7HviqZfWPMv/LBZ/8ASZL/ANkuKu+seZf+WCz/AOkyX/sl&#xA;xVLdAn8x/UZeNjZkfXL3rdyjf65LX/j2PfFUy+seZf8Algs/+kyX/slxV31jzL/ywWf/AEmS/wDZ&#xA;LiqW6VP5j+vaxSxsyfricq3coofqdv0/0bwxVMvrHmX/AJYLP/pMl/7JcVd9Y8y/8sFn/wBJkv8A&#xA;2S4qlulT+Y/r2sUsbMn64nKt3KKH6nb9P9G8MVTL6x5l/wCWCz/6TJf+yXFXfWPMv/LBZ/8ASZL/&#xA;ANkuKpd62uf4h5fVLX6z9Up6f1mThw9X7XP0K8q9uP04qnOk/wDHKsv+MEX/ABAYqk+h+c7fUfMe&#xA;seW7q1k07WNKKyrbzFSLmyl2iu4GH2oywKt3Rtm3xVkeKpZ5Y/5RrSf+YO3/AOTS4ql/m/znbeXn&#xA;02zjtZNS1nWbgWumaZCyrJIR8UsrM2yRQp8Tuem3iMVZHiqWeWP+Ua0n/mDt/wDk0uKsU8xfnBpG&#xA;ja3dWQsLm90vSGgj8ya3b8Dbac10aRiUE8n4bNLwB9NSCcVZ5HJHLGskbB43AZHUgqykVBBHUHFU&#xA;u8vf7wS/8xl9/wBRkuKsUt/zp8pMRPfwX2k6LNNJBZeYL6AJps7RSGIlbhHk9JSyniZxHy7Yqyfy&#xA;v5n0rzNpP6W0lml095p4ILggcJRbzNCZYiCwaN2QlGHUYqqeXv8AeCX/AJjL7/qMlxVBHzrpQ1bz&#xA;DpfpT/WPLVpb3t83FODx3STOgiPOpYC3avIL23xVNNG1S31bSLHVbZXS31C3iuoUkADhJkEihgCw&#xA;rRt6E4qoeXv94Jf+Yy+/6jJcVSHzT5s8x2uunRvL9nYz3Nrp7arePqNy1shh5tGkcRRJPiLIeTt8&#xA;KCla1xVkHlzWotd8vaXrcMbQw6paQXscMlOaLcRLKFancBqHFVuk/wC9+tf8xif9QdviqZ4q7FUs&#xA;0n/e/Wv+YxP+oO3xVM8VdiqU/wDTVf8ARj/zOxVWs1uW0CBbV1iuWtVEEkil0WQxjizKCpYA9RUY&#xA;q8e8564vlmG71S4/NOxn85aXbytBptzb6QqSFV9Q2npRx/XYlmZAu09a060xV7FoOqLq+hadqqp6&#xA;a6haw3SxnqomjWSn0csVUvLYc+WNLCEB/qUHEkVAPpLSoqK/firyvzbf/oD6ze6h+a1jb+cbWF1t&#xA;rWa20eOIVHP6uYWje9SKRkWv7/8Ahir1Hyfrj6/5S0TXZIxC+rWFrfPCpqENzCspUE+HOmKqnlj/&#xA;AJRrSf8AmDt/+TS4q8s12O18v219Zar+aenaPql2ZJZtKFpo9vZPJOKv69pLHNcusmwdml5Ed98V&#xA;egfll5gXzF+X3l/Wlto7P65Ywu1rAvCGNgoVkiX9lAyniOwxVM/L3+8Ev/MZff8AUZLirz3zPcto&#xA;zXMGufmvbaFdycmtdMFvpMMEcbfZVre5S4uZFofiPqivXbFWV/ld5kuPMvkHRtZuVhW4uYWWb6tt&#xA;AzwyNCzxDsjmPko7A4qm/l7/AHgl/wCYy+/6jJcVYD5pnbSL68l1/wDNODy9PcMzWljHBpUAWIuR&#xA;EHS8jubifijUY8wK77YqyD8pfNlx5p8jWWqXMkE1yklzZzXFqvG3mNpcPAJolqaLKsYcDtXFU+8v&#xA;f7wS/wDMZff9RkuKvM/zP8r+W76/a489eerHS40MjaPYy2ukx+lE5pxJv47qacNx+MKVVv5dsVZV&#xA;+UXmm58x+UDcXFzb30ljeXWnLqNmqpb3UdrKUiuI0UlUEkfE8RtXpirItJ/3v1r/AJjE/wCoO3xV&#xA;M8VdiqWaT/vfrX/MYn/UHb4qmeKuxVKf+mq/6Mf+Z2KpZ5otdcu/yz1K10FimtT6TJHp7K3BvXa3&#xA;ITi37LV6HscVefy61pf/ACrm78o+QfKGowa1fWEllJYT6fPZR2ryxGOSW8u5oo4ZWSpPwO7SN061&#xA;xV6X5Binh8ieXIriGS3uI9Lskmt5kaOWN1t0DJIjAMrKdiDuDiqHMGrXH5amDRpPS1ebRvT02WvH&#xA;jcta0hatRSj0xV5/5b13TNL8jxeWvKflXUYPN9xaC2ubWfTrm2WO8dOElxfX8sYhdA5Ls4kcsPs1&#xA;JxVnn5VRXkH5ZeVba9tZbO7tdJs7a4tbhGiljkggWJg6OFZTVOhGKo7S0vH8k2iWLBL1tNjW1dui&#xA;ymABCdj0amKvNPIvmKy8t+TbbR9H8p6mfP3oLFqFnLYTxmbUCAJbm61N41tmieX4zJ6p+Eig/ZxV&#xA;mP5LaXqGlflb5e0zUbeS1vrK3MFxBMjI6vHI6n4WANDSqnuN8VZDoQkOmTiMhZDd3/BiKgH65NQk&#xA;bYq8r/LzXrHyl5XTTpfK+q3H5iNzGrxLp9w0t9fM55zvqbJ9WaGRviEjTUVe21MVZj+S1nrVl+XO&#xA;nWet2zWmrW819HeQsjoC/wBemPNA6oTHICHQ03UjFWS+Xv8AeCX/AJjL7/qMlxV5X5E1ux8p6deW&#xA;upeWtUufzCkurp794tPnnfUJnmcxyx6iI/q4hZCoXnKoRRQjbdVlH5Jafr2n+TZ7bX7JrDVv0rqc&#xA;tzAQeFZrySUNExA5xsH+Fx1GKss8vf7wS/8AMZff9RkuKvLvJ+r6X5Rn1o6/oGp3Xnu51G9llvbb&#xA;TLm8kv4ZJ2Np9WvER4UhW2KIEeVAnE1AxVkv5Nw+Y49G1w+YdPfTNSn1y+unt2B48bkpOvpuVVZF&#xA;X1OHNaqSp3xVlmk/7361/wAxif8AUHb4qmeKuxVLNJ/3v1r/AJjE/wCoO3xVM8VdiqU/9NV/0Y/8&#xA;zsVRek/8cqy/4wRf8QGKovFXYqlnlj/lGtJ/5g7f/k0uKpnirsVSzyx/yjWk/wDMHb/8mlxVM8Vd&#xA;iqWeXv8AeCX/AJjL7/qMlxVM8VdiqWeXv94Jf+Yy+/6jJcVTPFXYqlnl7/eCX/mMvv8AqMlxVM8V&#xA;diqWaT/vfrX/ADGJ/wBQdviqZ4q7FUs0n/e/Wv8AmMT/AKg7fFUzxV2KpT/01X/Rj/zOxVQ0ry/Y&#xA;HS7MmW83gjO19eD9geEuKor/AA9Yf79vP+k68/6q4q7/AA9Yf79vP+k68/6q4qlvlrQLFvLmlMZb&#xA;yps7cml7eAbxL2EtMVTL/D1h/v28/wCk68/6q4q7/D1h/v28/wCk68/6q4qlvlrQLFvLmlMZbyps&#xA;7cml7eAbxL2EuKpl/h6w/wB+3n/Sdef9VcVd/h6w/wB+3n/Sdef9VcVS3QNAsWsZSZbz/ey9G17e&#xA;DpeSjtLiqZf4esP9+3n/AEnXn/VXFXf4esP9+3n/AEnXn/VXFUt0DQLFrGUmW8/3svRte3g6Xko7&#xA;S4qmX+HrD/ft5/0nXn/VXFXf4esP9+3n/Sdef9VcVS3QNAsWsZSZbz/ey9G17eDpeSjtLiqYSaHp&#xA;cfH1Li7TkwVeV/eCrHoBWbqcVXf4esP9+3n/AEnXn/VXFUt0rQLE32sj1bz4bxAKXt4P+PO3O/73&#xA;fFUy/wAPWH+/bz/pOvP+quKu/wAPWH+/bz/pOvP+quKpbpWgWJvtYHq3nw3iAUvbwf8AHnbneku/&#xA;XFUy/wAPWH+/bz/pOvP+quKu/wAPWH+/bz/pOvP+quKpd+hbP/EX1f1Lr0/qnqV+t3POvq0/vPU5&#xA;8f8AJrTFU206aKHRbaaZ1jijtkeSRyFVVWMEsxOwAGKvHPLP5h+WdE/M7UoIvzCsdX8p60PUitb/&#xA;AFF5prC9Br6dvLJzja3kr9n1BQ0Hb4lXuAIIqNwehxVLPLbonljS3dgqLZQFmJoABEtSTiryP8wf&#xA;zH8seYvNGi6FYfmDYaJ5dt5jca5eWOoNDeXEiVEdpHNFxRIj+2/qfq3Ve3R8PTXgeSUHFq8qimxq&#xA;a1xVLvLH/KNaT/zB2/8AyaXFXzv5n813Wq65ruqS/mpY6DrltcQp5T0Sw1Jzpax278iNQKD0ZGm3&#xA;D8gQveq0AVfRegXeoXeiWN1qKQJfTwI9wtpJ61vzZQSYZCByQ9VPhiqzy9/vBL/zGX3/AFGS4q8E&#xA;Hm/V/L04uJfze0ifzW80ratoV/ILvRQXlb04oJoY4prb004hvetQBir2f8uLTzHb+VoJPMOrwa1q&#xA;V7JLeG8s2L2ojnYvFHbuaF4kQgKxG+Kpp5e/3gl/5jL7/qMlxV5Z5m/MHSdN8x+dLWf8w9MszqFg&#xA;tn5fsjOWbTr9IHjeWXgjhD6zKxFSdumKvSfIpvD5O0b67qkOtXYtIhcatbuJYrmQLRpUcU5Bj3xV&#xA;FeXv94Jf+Yy+/wCoyXFXgv56+ZvJSeeq6qNM8zwJpUmmx6PJqMMEmm6h6zO1y6yMFQurIpYfvF4b&#xA;DFXtn5eF/wDAmgLJqkWtyx2FvFNq0EnrR3EkcYR5Fk/bqyn4jue++Ko7Sf8Ae/Wv+YxP+oO3xVM8&#xA;VdiqWaT/AL361/zGJ/1B2+KpnirsVSn/AKar/ox/5nYqhNW1fRdH8h3Gp64A2kWmnepfRlQ/OIRf&#xA;EnA7MXHwgd64q8U86t561/8AKLWL+38m+XfLvk9tMmuoLa9kc3626xmWKWGO2hEMcuwZFZvtUBxV&#xA;7L+V081x+WflG4ncyTTaLp0ksjblma0jLE/M4qr2mo6dpnkCHUtSPHTrLSluL1ipYCCK2DyHiOvw&#xA;KdsVeMazP5x8y/lXql9ovkjy9oHkiXTJ7i1i1N2F21ksLOlxFDaw+lE/AB4+TbGhr3xV6p+TEskv&#xA;5TeUHkYu/wCibQcmNTQRKB+AxVOdGvbax8m2N7dSCK1tdOimnlPRY44AzMfkBirx6K880+a/It5c&#xA;eUvJPl3RPI9zbz/Vm1lmjlntOLBplt7OFli5UqOTe/virNP+cdZ5p/yV8qvM5dxbPGGPXjHPIiD/&#xA;AGKqAMVZloUiR6ZPI54ol3fszHoALyYk4q8i0XVPMnnLQrq48i+SPL2n+TLtp0gu9eZovr0fNklm&#xA;+rWsLMiueX2zU9cVT/8A5xglkk/Ivyw0jF2C3igk1PFL+dVH0KABir0Dy9/vBL/zGX3/AFGS4q8n&#xA;0XX/ADD5wg1G6/LnyboEHlma5uEGr62TGmoyeowuJUt7WGRyrPy+Jz8X3jFUb/zi00o/KpLd3Rkt&#xA;NSv4YRExaJUE5bjGW3KcmJFcVel+Xv8AeCX/AJjL7/qMlxV5Xp/mDXvM+oa5/wAq58m6ImkxX09v&#xA;e6/rbGFL68Rj67LBbxSTOKn7bnevahGKq/8AzjAk8PkbWbSZYYzaeYNRhWG1LG2jCshKQcqH0gxP&#xA;GvbFXpuk/wC9+tf8xif9QdviqZ4q7FUs0n/e/Wv+YxP+oO3xVM8VdiqU/wDTVf8ARj/zOxVD6h5d&#xA;03zJ5KfQdTVmsNSsVt7jgeLhXjA5KaGjKdxt1xVgU35F6zqfl+Pyz5i88ahqnlq2h9G101Le3tSf&#xA;TXjB9ZmjHqTrFs3EkBiATir0byroSeX/ACzpWgxztcx6VaQWUc7gKzpbxiNSwXavFcVQtjpNlrHk&#xA;O30i+UvZajpaWl0gNCYp7cRuAe1VY4qwOD8itXk0CDypqvnjUb/ybap6MWjrBb28jwJ/cwzXaAyv&#xA;GgAHEUqNulKKs/8AJPleLyr5T0zy7FcvdxaXCLeO4kAV2VSeNQCRsNsVXaPY2uoeTLKwu09W1u9O&#xA;iguIySA0ckAR1qN91OKsB078jdVt9Fi8qXXnbUbryPCSi6IIbeGZ7blyFtLfRj1miO6sFC1U02GK&#xA;s2/L3ybB5L8nab5YgunvYdNWRI7mVVR2Ekry7hdvh50xVG6FGkmmTxuOSPd36sp6EG8mBGKvOdO/&#xA;IrVtP0d/K1r531KLyQzyU0VIbdbgW8rFnthfUMojYsa0A2NMVZr+XXkaz8j+VofLljcSXNlbSzyW&#xA;7SijKs8rS8NidlLnFUz8vf7wS/8AMZff9RkuKvOtO/I7VdJsLny9o3nXUdN8mXM0sn6Fggt/Xijn&#xA;YtLDBfMpljRi3YVHzJJVZd+W/wCX2neQ9Am0PTZ3msWu57u3WQAGJZ2BEQNSWCU2Lb4qm/l7/eCX&#xA;/mMvv+oyXFXn9v8AkvremS6naeXfO2oaN5c1a6kvLjS4YLeSWJ5zWZba7kBkhDdqLt898VZH+Wf5&#xA;a6V+X2k6hpGk3Es2n3l/LfwxzbtD6qRp6QavxKBEDU77nFU90n/e/Wv+YxP+oO3xVM8VdiqWaT/v&#xA;frX/ADGJ/wBQdviqZ4q7FUp/6ar/AKMf+Z2KqGlarfjS7MDRrwgQR7h7Pf4B43GKor9LX/8A1Zbz&#xA;/g7P/soxV36Wv/8Aqy3n/B2f/ZRiqW+WtVvh5c0oDR7xgLO3AYPZ0P7pdxW4BxVMv0tf/wDVlvP+&#xA;Ds/+yjFXfpa//wCrLef8HZ/9lGKpb5a1W+HlzSgNHvGAs7cBg9nQ/ul33uAcVTL9LX//AFZbz/g7&#xA;P/soxV36Wv8A/qy3n/B2f/ZRiqW6Bqt8LGWmj3jf6Zemoez73kppvcDpiqZfpa//AOrLef8AB2f/&#xA;AGUYq79LX/8A1Zbz/g7P/soxVLdA1W+FjKBo943+mXpqHs+95Kab3A6YqmX6Wv8A/qy3n/B2f/ZR&#xA;irv0tf8A/VlvP+Ds/wDsoxVLdA1W+FjLTR7xv9MvTUPZ97yU03uB0xVMv0tf/wDVlvP+Ds/+yjFX&#xA;fpa//wCrLef8HZ/9lGKpbpWq3wvtYI0e8NbxCQHs9v8AQ7cUNbjFUy/S1/8A9WW8/wCDs/8AsoxV&#xA;36Wv/wDqy3n/AAdn/wBlGKpbpWq3wvtYI0e8NbxCQHs9v9DtxQ1uMVTL9LX/AP1Zbz/g7P8A7KMV&#xA;d+lr/wD6st5/wdn/ANlGKpd+kbz/ABD6v6LuvU+qcfq/K2509WvOvrcOPb7VfbFU50n/AI5Vl/xg&#xA;i/4gMVY15T/NTyp5n8w6r5csmuLbXNH3vdPvYTBKF5cSyK32lBpUj+ZfHFWYYqlnlj/lGtJ/5g7f&#xA;/k0uKpN58/M/yp5IOnR61LM13q031fT7G1iae4lfYfDGu5HJlX5kDFWUwyGWGOQo0ZdQxjegZaiv&#xA;FqEio74ql/lj/lGtJ/5g7f8A5NLirBvM3/ORH5ZeXNevNEv7u4e506RItQntrd5reCSTokkqbAju&#xA;OxqOoIxV6Rb3EFzbxXNvIs1vMiyQzIQyOjiqsrDYgg1BxVAeXv8AeCX/AJjL7/qMlxVhujf85B/l&#xA;Dq+sNpNr5hhjuuRSJrlJbeGUqxU+nNKqRNuNvi37VxVlnlXzh5c812E2oeX7wX1lBcSWkk6pIi+t&#xA;DTmo9RU5Ach8S7HscVVvL3+8Ev8AzGX3/UZLiqS3H5r+QLbVNd0ubVOF/wCWrY3utw+hcn0IFCsX&#xA;5CMrJtIu0ZY4qnuga/pPmDRrTWtIn+s6ZfRiW1uODx80JpXhIqOOncYqs8vf7wS/8xl9/wBRkuKs&#xA;E/Mr86ZvKWv/AKC0ny5c+Y9QttPbWNVWCZYFtrBHKNLVlk9RhxJ4AD54qzryx5h0/wAyeXtO17Ti&#xA;xsdTt47mASDi4WRa8WG9GXod+uKt6T/vfrX/ADGJ/wBQdviqZ4q7FUs0n/e/Wv8AmMT/AKg7fFUz&#xA;xV2KpT/01X/Rj/zOxVtZ7238riextxeXsNj6lraFxGJZViqkZcg8ebUFabYq+f8AzfqX5veW9SX8&#xA;0tf8neWYrrTouMiwXVyupi2Y+myM8c31eXism54NQdtsVfQXljX7TzD5c0zXbRWS21S1hu4kf7Sr&#xA;Mgfi1O61ocVUtCkmj8o6fJBH606afC0UJbgHcQgqvKhpU7VpirwTzXd/nNpl6PzP17yX5aFzpFuT&#xA;HBPdXM2oQWyVZxEfXNqGVXZiUSvXFXvHkrzRbeavKek+Y7aJoItUtkuBA55GMsPiQtQcuLVFab4q&#xA;r+WwT5Y0sDqbKCm5H+6l7jcYq+ctR8ufmV5f8n6/cn8vvK2n+W79Td6zo13d3V1qFwtvWXe4E/Fn&#xA;UAstDXlUgcjir238mtU8v6r+WWg6h5fsm03Sp4W9HT2leb0GSV0liWSQsxVZVYL7dh0xVkGgqH02&#xA;dG+y15fg0JBobybuMVfP2u+WvzNt/KMtgPy78p2/k7SWnlsdG1Cea5vOJdpHaGcSqFkk3I3B7e2K&#xA;vVvyK1ny5rP5YaRqHl/SY9DsJRKrabESyxzRysktHIq/Jl5cjv44qyzy9/vBL/zGX3/UZLirxfzF&#xA;pv5vtqnmHV7HyL5TtbW/9a0vG1KR5bzUbVG4qHkieOMiVY1or07VxVnf5FeddJ83/lxp+o6Zpsej&#xA;w2zSWcumQf3MMkJqRFsPgZWDDbatMVZb5e/3gl/5jL7/AKjJcVeAfnD+Xf5oee/MNzqf+F9GsrLS&#xA;Wms7K+ur+eK6vrISEIrtBJEipLUkLIBx5Ur3Kr0z8hPPNp5v/L2Ca30tNGOjzNpE2nRMWiie1jQg&#xA;Rs3xcfTkXrU1rueuKsz0n/e/Wv8AmMT/AKg7fFUzxV2KpZpP+9+tf8xif9QdviqZ4q7FUp/6ar/o&#xA;x/5nYqkHn/UfMGm/lHqt/wCXgx1i20ovaFBydSIxydBQ1ZEqy7dRir5Q1OP8lL38qTd2o1DzV+ad&#xA;7Z/Wb64ke+eW0lQCS7mm3EPowKG+JuXLYnapCr6t/JF0f8ovKJQhgNLtlJHiqAEfQRiqvql7rdj+&#xA;UtxeaFGZdZttDMunIq82M6WtY+KUPI8ui9+mKvk+N/yY1T8sLi/v/r/mv829Rt52kWWS/aa3uKOT&#xA;M3EpCYoEHqEuWrTfaoCr6c/5x6njn/Jfyo8ZqotDGT/lRyujf8MpxVPxcapbfluLnSY/V1WHR/Us&#xA;IiKhrhLWsS03rVwBir5H0qX8oNZ/L67v/Mjal5t/N3UVuY4tPdr5p47os6w8FiKxmONeLtyLdxT9&#xA;nFX0N/zi06N+RflsKQShvlcDsfr85ofoIxVnmnyXcegX8lmglu0n1JreI9GkF1MUU/NsVfIvlu8/&#xA;KnX/AC1qOpfmD+kfNP5sXk9xBb6HI18swuORS3hiSD0kVK05An4dwBsBir3H/nEueOX8ldNRDVoL&#xA;q8jkHgxnZ/8AiLjFXqGgcv0dNxALfXL/AIgmgJ+uTdTQ4q+QvLWqflbrdnrWrfm62o+YfzHN5NBb&#xA;eWSb5HDDiIoLZLYqq1eq0L0Xpx7lV67/AM4dI8X5VXlvIpSe31i6iniYUZHWKGqsD0Irir2Hy9/v&#xA;BL/zGX3/AFGS4q+TNK1b8sNa1fzVf/nZNf6j5wttSmttN8t8rxQkK8RFFapbemOTSEpQvSgB71Kr&#xA;0z/nDsiLyN5jsXtzZXFt5guTLYtyLQ1t7dRGS3xVUxld99sVez6T/vfrX/MYn/UHb4qmeKuxVLNJ&#xA;/wB79a/5jE/6g7fFUzxV2KpT/wBNV/0Y/wDM7FUXpP8AxyrL/jBF/wAQGKrodO0+H1vRtYY/rBJu&#xA;OEar6hIoS9B8X04qrxxxxoEjUIi7KqgAAewGKpd5Y/5RrSf+YO3/AOTS4qi4tO0+GWWaK2ijln/v&#xA;5ERVZ/8AXIFW+nFVWKGKGMRxIsca/ZRAFAqa7AYql/lj/lGtJ/5g7f8A5NLiqLjsLGK4luI7aJLi&#xA;baaZUUO4/wApgKn6cVVYYYYUEcMaxxjoiAKN/YYql/l7/eCX/mMvv+oyXFUWlhYpdNdpbRLdOKPc&#xA;BFEjDwL05HFVSGCCFSsMaxqTUqgCip77YqgPL3+8Ev8AzGX3/UZLiqMFhYi7N4LeIXhXibngvqFR&#xA;2505UxVfFBBCCIY1jDEswQBQWPUmnfFUB5e/3gl/5jL7/qMlxVFmwsTdi8NtEbsDiLgovqBfDnTl&#xA;TFVSOCCIuY41QyHlIVABZj3NOpxVAaT/AL361/zGJ/1B2+KpnirsVSzSf979a/5jE/6g7fFUzxV2&#xA;KpT/ANNV/wBGP/M7FVDStKvzpdmRrN4AYI9glnt8A8bfFUV+ib//AKvV5/wFn/2T4q79E3//AFer&#xA;z/gLP/snxVLfLWlXx8uaURrF4oNnbkKEs6D90uwrbk4qmX6Jv/8Aq9Xn/AWf/ZPirv0Tf/8AV6vP&#xA;+As/+yfFUt8taVfHy5pRGs3ig2duQoSzoP3S7b25OKpl+ib/AP6vV5/wFn/2T4q79E3/AP1erz/g&#xA;LP8A7J8VS3QNKvjYy01m8X/TL0UCWfa8l33t++Kpl+ib/wD6vV5/wFn/ANk+Ku/RN/8A9Xq8/wCA&#xA;s/8AsnxVLdA0q+NjKRrF4v8Apl6KBLPteSiu9ueuKpl+ib//AKvV5/wFn/2T4q79E3//AFerz/gL&#xA;P/snxVLdA0q+NjLTWbxf9MvRQJZ9ryXfe374qmX6Jv8A/q9Xn/AWf/ZPirv0Tf8A/V6vP+As/wDs&#xA;nxVLdK0q+N9rAGsXgpeICQlnv/oduamtviqZfom//wCr1ef8BZ/9k+Ku/RN//wBXq8/4Cz/7J8VS&#xA;3StKvjfawBrF4KXiAkJZ7/6Hbmprb4qmX6Jv/wDq9Xn/AAFn/wBk+Ku/RN//ANXq8/4Cz/7J8VS7&#xA;9HXn+IfS/Sl16n1Tl9Y423Onq04U9Hhx7/Zr74qnOlf8cmz7fuI9/wDYDFXk3lnWvzb0X83rjy/r&#xA;+px+ZvKF7G31C+X9H29xavUsgmhhEMrEcTG3wmuzCm4xV7JiqWeWP+Ua0n/mDt/+TS4q8z/M3Xvz&#xA;YvvP+i+VvI97Boemmj6xrcxsZnPM/Yit5zJI3BV2og5MaVABOKvWrWKSG2iilme5kjRUe4kCB5GU&#xA;ULsI1RAW6nioHgBiqXeXpDF5V02QI0hSxgYRpQs1IVPFakCp7Yq8A1XXv+cn9Rm1/UbXUbbyzJDN&#xA;H+gfKUq6XNcXETNR1WSQSNyRKMeTfESeNMVe8eSNW8war5YsbvzFpb6PrZThqFizIyiVdmeMozjg&#xA;/wBpd6jocVVdJlmi0W7lhiM80dzqDRwggF2W7mIUE7fEdsVeEaf5m/5yn0hYNX1V9I1OW6kkEvlC&#xA;5e0tLuFA54+i6GPkCtCtZXPiCcVer/lHN+Zlx5buLv8AMNEt9XuLyV7SyQQ/uLSiiNGMPwluXI7m&#xA;tKYqyXy9/vBL/wAxl9/1GS4q8j1HX/z4s9e87QSyWdvYmGYeRllm0xHlm+sIIRR5A+8Jb+9A+/FX&#xA;oX5WSef5PJdo/n6NY/Mxeb60iGArw9RvS/3mLRf3dOhxVOvL3+8Ev/MZff8AUZLir54/5yW/Tq+e&#xA;rQ30Ws3Pl99JddAh0Sbhw1ku/CSdFBan2d6V/lrRhir3b8t4/MkfkLQE8zO0mvCyh/SDuwZzJxH2&#xA;2H2npTke5r1xVMdJ/wB79a/5jE/6g7fFUzxV2KpZpP8AvfrX/MYn/UHb4qmeKuxVKf8Apqv+jH/m&#xA;diqW+ZpdDi/La/Ou3jafo7aU8d9exkiSKKSDgXjoGPMcvgoD8VNsVfGHnHS/y8l8j3Or+S/JHmCG&#xA;0tnjEPnK/mcQVE6xkuihoTzJ4fCy0anyxV9hfkvq2oat+VPle/1CZri8msIhNO5q7lKoGYnqxC7n&#xA;ucVR5k0yP8tg+q3P1PTBo4+u3YJUxQm2pI4I3BVakUxV8aeZNF/LS68majf+TPJPmO7trWoXzneS&#xA;ssAeNhykdEVoWB6EfCRXscVfVX/OO+t6jrX5M+WtQ1GZ7i7aKeF5pGLOy211LAhZjuTwiG5xVlWm&#xA;T2Vv5ItJ7+UQWMWmRvdTseISJbcF3LduK1NcVfGGv6P+Vl75V1i58meTfMetR2SSc/Ol1K6QpKg5&#xA;NM6KpjK92VgrUPY4q+mP+cY9Y1HVfyY0OfUJ2uZ4TcW6yyEs5jhuHSNST14oAo9hirPtElih0u4m&#xA;lcRxR3d+8jsaKqrdzEkk9gMVfGeraH+Ut/pGuN5N8n+ZPNBs1n9Xza8zpBHKEZ/WoqsrIuzUkUMV&#xA;6+OKvfP+cS9b1LVfyht1v53uG0+8ns7d5GLMIUCOiVO9F9TivgNsVepaAQunzEmgF5fEk9APrk2K&#xA;vj/XtM/KHWrjzCfKXlLzH5zuke4kuvMaTOltDJJyYOhVWVkStV9RakDuN8Vew/8AOHWsajqH5TTx&#xA;Xs7TppuqT2dnzJJSAQQSiME9g8zUxV7B5e/3gl/5jL7/AKjJcVfJ3mLSfyg1vzX5jj8u+UvMfn3V&#xA;Hu55b/U7SZ0treSWRjwgZFfkiVohkU147chirPv+cLtb1K98h6vp11O81vpt8BZK7FvTSaIM0aV6&#xA;LyUtTxJxV7npP+9+tf8AMYn/AFB2+KpnirsVSzSf979a/wCYxP8AqDt8VTPFXYqlP/TVf9GP/M7F&#xA;Um84+TY/On5Z3Xlh7g2n6SsokS5A5cJE4SxsVqKjmgqK9MVeMt/zj3+dmp+Rx5J1nzjp8fl3T0pp&#xA;tlaROfWZGLQrcymKJwiMeVPj6DvQhV7Z+V3lbUvKnkHRvLupTQz3umQmCSa35ekwEjFCvMK32CK7&#xA;dcVUtQ8rwea/yt/w5PM1vHqmlR2/rqORjZoV4vxqOXFqGld8VeM2X/OPn52TeSJPIep+b9Pg8p28&#xA;cxsrWzjdpZnLNLDHcSNDG6xeueTUZjTbfair2D8nPJOp+R/y60vyvqU8NzdaebjlPbc/TYT3Mk4p&#xA;zCtt6tOmKo79BQ+YPy2GhTyNDDqujiyklUVZFuLX0ywB7jlXFXiOk/8AOPX50weUrnyHP5ysLbyY&#xA;fWaKK1hdrmb1GMnpSM0aGON5N24yN1I3G2KvWPyT8hax5D8g23lrVbi3uri1mnkSa158CkzmQV5q&#xA;hqCx7YqnttpkGq+WdT0u4LLb38up2sxXZgk1zOjU96Nirw3y9/zj3+c2laFe+SE842Nr5GvJJWm+&#xA;rQsb2WOVaPGecQ9MSUo1JWp7jYqvSvyG/LTWfy68lTaBq11b3dw19LdRy2vMp6ckcagH1FQ8uSHt&#xA;0pirMNHt47jR7q3kr6c11qEb02PFruYGn34q8G8sf849fnD5esNS8oaZ5zs7LyPqk7yXUsMDNqDJ&#xA;KixyBQ0dIy8aKp4zfLvir0H8gPyt138tvKt/oerXdrem5v2vYZbX1KAPDFEVb1FT/fI6Yqzzy9/v&#xA;BL/zGX3/AFGS4q8E8uf84+/nB5Uk1fQPK3m+y07ybq85eWYxM+opGw4HgDFxD+n8PISjpUcTirN/&#xA;yC/KDWPyzsdcsb+9t72DULpJ7N4OfMIistJeaoK0p9n3xV6JpP8AvfrX/MYn/UHb4qmeKuxVLNJ/&#xA;3v1r/mMT/qDt8VTPFXYqlP8A01X/AEY/8zsVUNK8wWA0uzBivNoIxtY3h/YHhFiqK/xDYf76vP8A&#xA;pBvP+qWKu/xDYf76vP8ApBvP+qWKpb5a1+xXy5pSmK8qLO3BpZXhG0S9xFTFUy/xDYf76vP+kG8/&#xA;6pYq7/ENh/vq8/6Qbz/qliqW+WtfsV8uaUpivKiztwaWV4RtEvcRYqmX+IbD/fV5/wBIN5/1SxV3&#xA;+IbD/fV5/wBIN5/1SxVLdA1+xWxlBivP97L07WV4et5Ke0WKpl/iGw/31ef9IN5/1SxV3+IbD/fV&#xA;5/0g3n/VLFUt0DX7FbGUGK8/3svTtZXh63kp7RYqmX+IbD/fV5/0g3n/AFSxV3+IbD/fV5/0g3n/&#xA;AFSxVLdA1+xWxlBivP8Aey9O1leHreSntFiqZf4hsP8AfV5/0g3n/VLFXf4hsP8AfV5/0g3n/VLF&#xA;Ut0rX7EX2sn0rz4rxCKWV4f+PO3G/wC62xVMv8Q2H++rz/pBvP8Aqlirv8Q2H++rz/pBvP8Aqliq&#xA;W6Vr9iL7WD6V58V4hFLK8P8Ax5243pFt0xVMv8Q2H++rz/pBvP8Aqlirv8Q2H++rz/pBvP8Aqliq&#xA;Xfpqz/xF9Y9O69P6p6dPqlzzr6tf7v0+fH/KpTFU30xwmj2jmpC28ZIUFjQIDsq1J+QxVIPKf5q/&#xA;l95t1GfTPL2sxX1/bRmWa2CSxuqKwRjSVErRmANMVZZiqWeWP+Ua0n/mDt/+TS4qlnnL8yfI/kw2&#xA;o8z6tFprXvM2qusjs4jpzIWNXNByG5xVPtPv7XUbC3v7RzJa3caTW8hVkLRyKGU8XCsKg9xiqE8s&#xA;f8o1pP8AzB2//JpcVYprP58/lHouq3Wlal5kt4b+zkMVzCEmk4SL9pS0cbrVeh32O2Ks4s7u1vbS&#xA;G8tJVntbhFlgmjIZHRxyVlI6gg1xVA6AQunzEmgF5fEk9APrk2KpDon5yfldrmpNpml+ZrG4vgxR&#xA;YfU9MuwNKRGQKsn+wJxVOfLnnHyv5lW7bQdSh1FbGX0LtoCSI5P5TsPDFVby9/vBL/zGX3/UZLiq&#xA;VQfmh+XU8l9HD5j0+R9MjefUFW4QmCKN1jd5N/hCu6qSe5xVNdA8y+X/ADFYm/0LUINTsg5iNxbO&#xA;sic1ALLyXaoDDFXeXv8AeCX/AJjL7/qMlxVgv5kfnz5d8j64mhvpt/rOpLbG/vodOjWT6taLWssp&#xA;ZlA2FfYdSKjFWdeWfMWleZNAsNe0mQy6dqMKz27kcWo3VWHZlNQw8cVdpP8AvfrX/MYn/UHb4qme&#xA;KuxVLNJ/3v1r/mMT/qDt8VTPFXYqlP8A01X/AEY/8zsVQ2p+Ybby55Gm1+6hluLbS7D63PDbhTK0&#xA;cUQZuIdkXYCu5xV8oah+ZXlOy/MK2/NBPJHmLQZGmVnubeaKGyui4IcyRy2jKzTJXmElFeteXxYq&#xA;+ufKvmbSvNHl2w8waS7SafqMImgLji4B2KuN6MrAq2/UYqgrfV4NF/L6LWbiOSaDTdJW8lhhAaV0&#xA;gtvUZYwxUFiFoKkb4q+VPNP5leU9b872v5keYfI/mO9sLT0VtFu5o10xI4z+7on1Xf8AeMX4mchm&#xA;O+22KvrLyV5w0fzj5YsPMmjs7afqCF41kAWRGRijo4BIDI6lTQkeG2KoeFuP5eRt6txDx0lW9Wy4&#xA;fWlpbA1g9QFPU/k5ClcVfGsOo/ljp/lbWkHkLzLf6LrDQu3ma/uIhPEEeqPDMlp6EZZm3qW5VoSc&#xA;VfUv/OPo8r/8qy09/K+oajfaK7yfV4tWaF7i1YNSS3rDHEvFXBI69djSmKsoisIdQ8rarYTGUQ3c&#xA;mqQSG3IEwWW5nQ+mSCOdD8NR1xV8XXD/AJRP5WC2f5d+ZLjS7Zncea2uViuCjNX960dvJaUWoAqp&#xA;p44q+m/+ca7X8vI/y4W48ji7Flc3UjX/AOkWR7tbpVVWSRowseycePEUoa9ScVeh+Xv94Jf+Yy+/&#xA;6jJcVfH58z/lxp0/mfUdJ/LrzFc6bq0FzY6vqEtyyIInnWab+7injjKyQjf1DTFXv3/ON19+X93+&#xA;XjHyTDc2lgt5J9dsr1/VmiuikZccxsyFeJUj9dRir0Ly9/vBL/zGX3/UZLir5E/N7zt/iXzlqeu+&#xA;WNF8y6bJbW8+ja7qFoP3M9vCzLKsgRZFSlCCTJSgGwIxV9Af848+cvJfmH8vLSy8rQT2dtoQWyns&#xA;rsq0yPTn6jOnwv6pYtyAG9dhirO9J/3v1r/mMT/qDt8VTPFXYqlmk/7361/zGJ/1B2+KpnirsVSn&#xA;/pqv+jH/AJnYqxP81PNureUfya1LzBpKK+o2dnbLb+ovNVM8kUBkKmob01kL0O22+2KvjrzP5jj1&#xA;78ul1bW/P+qax5qvLrhJ5Xl9b6rCiPX1G5N6XHiAy8FHxGlNicVfXX/ONUiSfkh5XZDUCK4Un3W7&#xA;mVh9BGKo/wA3+Z9Q8rfktca/p0K3F9YaTC8EbryTk0aJzZR1VOXIjwGKvjrXfNTeZfy6vdW8x/mD&#xA;qeo+abi5EcXlMiX6pwEqM0jiogC8F5jgoowAp4KvqP8A5xPI/wCVJaR7T3lf+kl8VZdrOvXnl/8A&#xA;KK51yyiWe703RPrUETglC8VtyXkBuVBFT7Yq+M9R85S+afIesax5r/MLU5fMLzejZ+UoxItrKjFT&#xA;zKqRAsfWoCinHvUYq+kf+cQJY3/J2JVNWi1C6RxvsSVan3MMVei3er3GjeR9e1i2h+s3Gmrq93Db&#xA;7/vHgnuJFTbf4itMVfFs/nu783+UfMWreb/zB1KHWAfS0zylarKtrcCRfh+BCsAjqSrDjUKNySQM&#xA;Ve9f84VEf8qt1Ud/05Pt/wBGlrir2Ozu5LLy5qN5HH60ltNqUyQitXaO5nYLsD1pTFXxQv5iXvnT&#xA;Q/Muq+dfzB1HTLyGJhpXlixWVLa6aRGVIwkbCJYwfgbkteJqScVez/8AOEksZ8ja/ED+8TUw7Lvs&#xA;Gt4wD/wpxV7vokjR6VcyKhkZLq/YIvViLuY0HzxV8UxfmdqPnk+ZdR86+fdQ8uiCF5NL8uaasyw3&#xA;DNypAqxlY9jxX95VmqWLbE4q9M/5wdI/Rfm4d/Xstv8AYTYq+jdJ/wB79a/5jE/6g7fFUzxV2KpZ&#xA;pP8AvfrX/MYn/UHb4qmeKuxVKf8Apqv+jH/mdiqraWdpe6BBaXkEdzaz2qRz28yrJG6MgBV0YFWB&#xA;HUHFWP2H5O/lZYRXUVp5X06OO9T07oGBW5pyDcKtyovJQaDbbFWRaJoWjaFpsWmaNZw6fp8JYxWt&#xA;ugjjUuxduKjYVZiTiqh5fgguPKmmwTxrLBLYQJLE4DI6NCoZWU7EEbEHFUksPye/K2wN0bTytpsZ&#xA;vUaK4/0dG5Rv9pByB4qfBaDFWQaF5e0Ly/p407RLCDTrFWZ1trZBHGGb7R4rtU4qp+XI45fK+lxy&#xA;KHjexgV0YAqymFQQQeoOKpJY/k/+V1jc3NzaeV9Oimu45IZ2ECEGOZSsiKpBVA6sVIUDbbpiqeeX&#xA;vLHl7y5YtYaDp1vplk8hme3tY1jQyMApfiu1SFAxVvy+AdPmB3BvL6o/6PJsVSO0/KH8r7PUJtQt&#xA;vK+mxXc4dZJBbpSkoKuFUjivIEg8QNsVTny75T8teWrWW10DTLbS7aZ/VlhtY1iVnoF5EKBvQAYq&#xA;v8vf7wS/8xl9/wBRkuKpLb/lL+WdtrLa1B5Z06PU2Yv9YWBNnbq6rTgrf5QFcVTXy55O8q+WYp4v&#xA;L+lW2lR3LK1wlrGsQdlBClgoFaVxVV8vf7wS/wDMZff9RkuKpQv5VfluuvnzAPLen/pgyev9b9BO&#xA;XrE8vVpTjz5b8qVrv1xVMPLnkryj5ZNyfL2j2mlfXOH1r6pEsXqeny4cuIFePNqfPFVfSf8Ae/Wv&#xA;+YxP+oO3xVM8VdiqWaT/AL361/zGJ/1B2+KpnirsVSn/AKar/ox/5nYqoaVB5j/RdnS+swPQjoDZ&#xA;yn9gf8vOKor6v5l/5b7P/pDl/wCyrFXfV/Mv/LfZ/wDSHL/2VYqlvlqDzH/hzSuN9ZhfqdvxBtJS&#xA;QPSXqfrIxVMvq/mX/lvs/wDpDl/7KsVd9X8y/wDLfZ/9Icv/AGVYqlvlqDzH/hzSuN9ZhfqdvQG0&#xA;lJp6S9/rIxVMvq/mX/lvs/8ApDl/7KsVd9X8y/8ALfZ/9Icv/ZViqW6BB5j+oy8b6zA+uXvW0lO/&#xA;1yWv/HyO+Kpl9X8y/wDLfZ/9Icv/AGVYq76v5l/5b7P/AKQ5f+yrFUt0CDzH9Rl431mB9cvetpKd&#xA;/rktf+Pkd8VTL6v5l/5b7P8A6Q5f+yrFXfV/Mv8Ay32f/SHL/wBlWKpboEHmP6jLxvrMD65e9bSU&#xA;7/XJa/8AHyO+Kpl9X8y/8t9n/wBIcv8A2VYq76v5l/5b7P8A6Q5f+yrFUt0qDzH9e1il9Zg/XE5V&#xA;tJTU/U7fp/pPhiqZfV/Mv/LfZ/8ASHL/ANlWKu+r+Zf+W+z/AOkOX/sqxVLdKg8x/XtYpfWYP1xO&#xA;VbSU1P1O36f6T4YqmX1fzL/y32f/AEhy/wDZVirvq/mX/lvs/wDpDl/7KsVS70dc/wAQ8frdr9Z+&#xA;qV9T6tJw4er9nh69eVe/L6MVTbT1lbRLZYnEcrWyCOQjkFYxihK1FaHtXFXiHl782/zd0j824/Jv&#xA;n7SoH0m5f0INW061nWItL/vPP6heRfTc/CwP2Sd/snFXvuKpZ5Y/5RrSf+YO3/5NLirx380fzd/M&#xA;+3/Miy8lfl3o8d29Ejvb+7tppIPXlo20qlEWOGPd233qO2KvatKj1KPTbWPU5o7jUViUXk8CGOJ5&#xA;afGUQliq16Ak4qlNprFnovkO11W95/VbLTYZpViUySMFhU8URd2ZuigdTir51/5Xz/zkXqljrmv6&#xA;R5atrfRNKlT/AEe4tLg3AjnkKxqoLqZmQU9QqNutAMVe6flD+YU3njyfBqV9ZSadrMFINVs5Y3iC&#xA;zqAecQk3Mcg+JetPs1qMVTGfWTofkrXNaEJuTpf6WvRbr9qQ2888vAe7caYq+d9E/wCcjfz9t7FP&#xA;Mmq+Tk1XyvcSOA9rbzwmPg3FlEqtP6YBB3lQ18cVesf84/ef/wAwPPOjarrHmvT4rC1FwsWkCOGS&#xA;EugUmUn1C3MLVQGG1a4q9D8vf7wS/wDMZff9RkuKvnry3+fn596hY+YZtQ8nQ282m6YbvTUGm6in&#xA;rXP1u3h9Ih5iX/dTSNxWh+GvQHFXpP5E/mB+YHnPSdUuvOejJo1zaTpFaRJbXNqHjZOTMVuXkLUP&#xA;cYqzzy9/vBL/AMxl9/1GS4q+a/8AnI3zt5s038xLjTrzzLqnlXQLfSTdaA2lrKBfXoH93K8bxftn&#xA;ieRIUAbDlXFXvH5Rar5j1b8tfL2o+ZFYa1c2ivdGRfTd9yI5GXaheMKx274qnmk/7361/wAxif8A&#xA;UHb4qmeKuxVLNJ/3v1r/AJjE/wCoO3xVM8VdiqU/9NV/0Y/8zsVSPzw98n5V6g9hq8eg3qacrQav&#xA;M/pRwOFUhmejlQfs1Ck77b4q+JPMPnPWNPVLnSfzN1rWtWEg9Qob2CEChqyTzTiRqEAAGIbfdir7&#xA;L/IPzjq/m/8AKvRta1iT1tTcTQXU9AvqNBM8SuQKCrKo5e+Kpnqn1sflNObLUU0m8GiVtdTlf0o7&#xA;eUWtUleQhuKq1Cxp0xV8R+ZfN+rWUZubD80NX1rWRIvMQG+ht9urR3E00ch47cf3I+jbFX17/wA4&#xA;5ectb82/lXp2pa3MbnUYZZ7WW6anOUQvRHegHxcSAT3pXvirKD6//Ktf9HvV064/Q37nUHZVW3f6&#xA;r8MzM3wgRn4iTttir4e8zebNXs4ZZ4fzT1XWteRx+7tDfLaFg9G4XU0sLUUbrxhofbbFX1V/zi95&#xA;61/zj+WZu9duGvL/AE6+l083clDJKiRRSozkfaYCbjXqab74q9BsFZvL9+qT/VWM+pBbkkKIybqa&#xA;j1Ow49cVfDHmjzTq9rFcSv8AmrqWsa9GQPQsWvjZlgfiVLqSWD4V34lISp7bb4q+mf8AnFHz15j8&#xA;2fl7dHX7uS/u9MvntYr2Zi8zwmKORRIx3dlLn4ia0pir1XQqfoyercB9bv6uKAj/AEybffbbFXwx&#xA;5s8y6vbNetd/mxqGr63EXEcGmG8ks2cHZRcPLbxqvXeKNl8KjfFX0H/ziR+YfmfzZ5W1ez8wXsuo&#xA;z6PcRLb3twxeZop0Y8HkPxPxaM/E1Tvir2by9/vBL/zGX3/UZLir4e/MXVrpNT1RdT/NK81XVLSa&#xA;Y2VjYC7uLZXVj6afWGkt4kNKcmiRwD44q9u/5w+/MHzV5n0bzDpmv382pfoeS1ezurlzLMEuhMGj&#xA;aRqsyqYKryJ6+FMVe56T/vfrX/MYn/UHb4qmeKuxVLNJ/wB79a/5jE/6g7fFUzxV2KpT/wBNV/0Y&#xA;/wDM7FWH/mz5H1Xzv+T9z5e0mRI9QuILWW3Ep4o7QPHL6bN25cKA+OKvm6D/AJx//wCchbzyS3li&#xA;fS7Ky0uxufrsFs0tiLi5mc8N54WclY1dm/eOPDeigKvpD/nH/wAn+YfJ/wCWVhoGv2y2upW01yzx&#xA;pIkoKyzNIpDRll6Niqp548nah5y/JOby3p06299f6bafV5HJVC8JimCMRUhZPT4E+BxV82ad+QP/&#xA;ADkPJ5NvvKr6bZ2GkiYXvpPLYme6mUhRGJ4Wd+I+3SRgNvoxV9Df845+SvM/k38uhoXmS1W0v4r2&#xA;eRESVJg0UgRlblGWH2uQp7YqnPmLyxd+afyen8vWcywXepaRHBBLJXgHMKlQ1N+JIofbFXy/o/8A&#xA;zj//AM5Cx+V9W8pjTLKx0e7kF3O8stk81zJCQY4o5o2klVSyK1HKqPvBVe9f84y/l/5r8i+RtQ0f&#xA;zLaLa3k2pyXkISWOYNFJbwRjeMsB8UJxVl+raBP5i/L/AMwaDbz/AFWfVF1a0iuDWiNNcToC1N+N&#xA;T8Xtir5Y0D/nH/8A5yFstF1zyvDp9lY6TqSmS5upJbJ5JzbgtHDFMhe4QSsoFG4r40q1VXt3/OMP&#xA;5decvInlnWNL8zWaWktzerc2xSaOYMpiVG/u2alCnfFXon6LfVvKOsaUkvoPqDararNSvAzXE8Ya&#xA;m32eVcVfJ3l3/nHz/nIPSbfXPLtpp9ha6ZrEXo3upyS2cvqRxVISB6vcp6tabqvvTFXsH/OLn5Xe&#xA;dfINn5ig8z2SWhv5LV7RkmimDiNZQ/8Ads3HjyXr44q9Z0+0N5oF/aCVoTcT6lEJk+0he6mXkvTc&#xA;Vrir5J8s/wDOPf8AzkDoF7rOi6baWEGm6xE1jea3JJaSqbferQFuV1EXViNkX33CkKvU/wDnFv8A&#xA;Krz5+X8/mRfM1hHaw6otmbaRJ4pqtbGbkCI2am03fFXtek/7361/zGJ/1B2+KpnirsVSzSf979a/&#xA;5jE/6g7fFUzxV2KpT/01X/Rj/wAzsVb0rVdLGl2YN5ACII6j1E/kHviqK/S2lf8ALbB/yNT+uKu/&#xA;S2lf8tsH/I1P64qlvlrVdLHlzSgbyAEWduCDIn++l98VTL9LaV/y2wf8jU/rirv0tpX/AC2wf8jU&#xA;/riqW+WdV0seXNKBvIARZ24IMif76X3xVMv0tpX/AC2wf8jU/rirv0tpX/LbB/yNT+uKpb5f1XSx&#xA;YSg3kA/0y+O8id7yU+OKpl+ltK/5bYP+Rqf1xV36W0r/AJbYP+Rqf1xVLfL+q6WLCUG8gB+uXx3k&#xA;TveSnxxVMv0tpX/LbB/yNT+uKu/S2lf8tsH/ACNT+uKpb5f1XSxYSg3kA/0y+O8id7yU+OKpl+lt&#xA;K/5bYP8Akan9cVd+ltK/5bYP+Rqf1xVLdK1XSxf6yTeQAG8Qj94m/wDoduPHFUy/S2lf8tsH/I1P&#xA;64q79LaV/wAtsH/I1P64qlularpYv9ZJvIADeIR+8Tf/AEO3HjiqZfpbSv8Altg/5Gp/XFXfpbSv&#xA;+W2D/kan9cVSz9I6f/iX1vrMXpfU+Hqc148vVrxrWlaYq//Z</xapGImg:image>
    </rdf:li>
   </rdf:Alt>
  </xap:Thumbnails>
 </rdf:Description>

 <rdf:Description rdf:about='uuid:8b05bb2e-f985-11dc-9f4c-001124808cba'
  xmlns:xapMM='http://ns.adobe.com/xap/1.0/mm/'>
  <xapMM:DocumentID>uuid:831aaf18-81ce-11da-9137-001124808cba</xapMM:DocumentID>
 </rdf:Description>

 <rdf:Description rdf:about='uuid:8b05bb2e-f985-11dc-9f4c-001124808cba'
  xmlns:dc='http://purl.org/dc/elements/1.1/'>
  <dc:format>image/svg+xml</dc:format>
 </rdf:Description>

</rdf:RDF>
</x:xmpmeta>
                                                                                                                                                                                                                                                                                                                                                                                                                                                                                                                                                                                                                                                                                                                                                                                                                                                                                                                                                                                                                                                                                                                                                                                                                                                                                                                                                                                                                                                                                                                                                                                                                                                                                                                                                                                                                                                                                                                                                                                                                                                                                                                                <?xpacket end='w'?>
			</metadata>
		<g id="レイヤー1">
			<g>
				<rect x="0.125" y="0.125" fill="none" stroke="#000000" stroke-width="0.25" width="100" height="150"/> 
				<rect x="100.125" y="0.125" fill="none" stroke="#000000" stroke-width="0.25" width="100" height="150"/> 
				<rect x="200.125" y="0.125" fill="none" stroke="#000000" stroke-width="0.25" width="100" height="150"/> 
				<rect x="300.125" y="0.125" fill="none" stroke="#000000" stroke-width="0.25" width="100" height="150"/> 
				<rect x="400.125" y="0.125" fill="none" stroke="#000000" stroke-width="0.25" width="100" height="150"/> 
				<rect x="500.125" y="0.125" fill="none" stroke="#000000" stroke-width="0.25" width="100" height="150"/> 
				<rect x="600.125" y="0.125" fill="none" stroke="#000000" stroke-width="0.25" width="100" height="150"/> 
				<rect x="0.125" y="150.125" fill="none" stroke="#000000" stroke-width="0.25" width="100" height="150"/> 
				<rect x="100.125" y="150.125" fill="none" stroke="#000000" stroke-width="0.25" width="100" height="150"/> 
				<rect x="200.125" y="150.125" fill="none" stroke="#000000" stroke-width="0.25" width="100" height="150"/> 
				<rect x="300.125" y="150.125" fill="none" stroke="#000000" stroke-width="0.25" width="100" height="150"/> 
				<rect x="400.125" y="150.125" fill="none" stroke="#000000" stroke-width="0.25" width="100" height="150"/> 
				<rect x="500.125" y="150.125" fill="none" stroke="#000000" stroke-width="0.25" width="100" height="150"/> 
				<rect x="600.125" y="150.125" fill="none" stroke="#000000" stroke-width="0.25" width="100" height="150"/> 
				<rect x="0.125" y="300.125" fill="none" stroke="#000000" stroke-width="0.25" width="100" height="150"/> 
				<rect x="100.125" y="300.125" fill="none" stroke="#000000" stroke-width="0.25" width="100" height="150"/> 
				<rect x="200.125" y="300.125" fill="none" stroke="#000000" stroke-width="0.25" width="100" height="150"/> 
				<rect x="300.125" y="300.125" fill="none" stroke="#000000" stroke-width="0.25" width="100" height="150"/> 
				<rect x="400.125" y="300.125" fill="none" stroke="#000000" stroke-width="0.25" width="100" height="150"/> 
				<rect x="500.125" y="300.125" fill="none" stroke="#000000" stroke-width="0.25" width="100" height="150"/> 
				<rect x="600.125" y="300.125" fill="none" stroke="#000000" stroke-width="0.25" width="100" height="150"/> 
				<rect x="0.125" y="450.125" fill="none" stroke="#000000" stroke-width="0.25" width="100" height="150"/> 
				<rect x="100.125" y="450.125" fill="none" stroke="#000000" stroke-width="0.25" width="100" height="150"/> 
				<rect x="200.125" y="450.125" fill="none" stroke="#000000" stroke-width="0.25" width="100" height="150"/> 
				<rect x="300.125" y="450.125" fill="none" stroke="#000000" stroke-width="0.25" width="100" height="150"/> 
				<rect x="400.125" y="450.125" fill="none" stroke="#000000" stroke-width="0.25" width="100" height="150"/> 
				<rect x="500.125" y="450.125" fill="none" stroke="#000000" stroke-width="0.25" width="100" height="150"/> 
				<rect x="600.125" y="450.125" fill="none" stroke="#000000" stroke-width="0.25" width="100" height="150"/> 
				<rect x="0.125" y="600.125" fill="none" stroke="#000000" stroke-width="0.25" width="100" height="150"/> 
				<rect x="100.125" y="600.125" fill="none" stroke="#000000" stroke-width="0.25" width="100" height="150"/> 
				<rect x="200.125" y="600.125" fill="none" stroke="#000000" stroke-width="0.25" width="100" height="150"/> 
				<rect x="300.125" y="600.125" fill="none" stroke="#000000" stroke-width="0.25" width="100" height="150"/> 
				<rect x="400.125" y="600.125" fill="none" stroke="#000000" stroke-width="0.25" width="100" height="150"/> 
				<rect x="500.125" y="600.125" fill="none" stroke="#000000" stroke-width="0.25" width="100" height="150"/> 
				<rect x="600.125" y="600.125" fill="none" stroke="#000000" stroke-width="0.25" width="100" height="150"/> 
				<rect x="0.125" y="750.125" fill="none" stroke="#000000" stroke-width="0.25" width="100" height="150"/> 
				<rect x="100.125" y="750.125" fill="none" stroke="#000000" stroke-width="0.25" width="100" height="150"/> 
				<rect x="200.125" y="750.125" fill="none" stroke="#000000" stroke-width="0.25" width="100" height="150"/> 
				<rect x="300.125" y="750.125" fill="none" stroke="#000000" stroke-width="0.25" width="100" height="150"/> 
				<rect x="400.125" y="750.125" fill="none" stroke="#000000" stroke-width="0.25" width="100" height="150"/> 
				<rect x="500.125" y="750.125" fill="none" stroke="#000000" stroke-width="0.25" width="100" height="150"/> 
				<rect x="600.125" y="750.125" fill="none" stroke="#000000" stroke-width="0.25" width="100" height="150"/> 
				<rect x="0.125" y="900.125" fill="none" stroke="#000000" stroke-width="0.25" width="100" height="150"/> 
				<rect x="100.125" y="900.125" fill="none" stroke="#000000" stroke-width="0.25" width="100" height="150"/> 
				<rect x="200.125" y="900.125" fill="none" stroke="#000000" stroke-width="0.25" width="100" height="150"/> 
				<rect x="300.125" y="900.125" fill="none" stroke="#000000" stroke-width="0.25" width="100" height="150"/> 
				<rect x="400.125" y="900.125" fill="none" stroke="#000000" stroke-width="0.25" width="100" height="150"/> 
				<rect x="500.125" y="900.125" fill="none" stroke="#000000" stroke-width="0.25" width="100" height="150"/> 
				<rect x="600.125" y="900.125" fill="none" stroke="#000000" stroke-width="0.25" width="100" height="150"/> 
				<rect x="700.125" y="0.125" fill="none" stroke="#000000" stroke-width="0.25" width="100" height="150"/> 
				<rect x="700.125" y="150.125" fill="none" stroke="#000000" stroke-width="0.25" width="100" height="150"/> 
				<rect x="700.125" y="300.125" fill="none" stroke="#000000" stroke-width="0.25" width="100" height="150"/> 
				<rect x="700.125" y="450.125" fill="none" stroke="#000000" stroke-width="0.25" width="100" height="150"/> 
				<rect x="700.125" y="600.125" fill="none" stroke="#000000" stroke-width="0.25" width="100" height="150"/> 
				<rect x="700.125" y="750.125" fill="none" stroke="#000000" stroke-width="0.25" width="100" height="150"/> 
				<rect x="700.125" y="900.125" fill="none" stroke="#000000" stroke-width="0.25" width="100" height="150"/> 
			</g>
			<g>
				<path d="M152.125,974.125c-18.890625,0-28.5,7.9296875-28.5,19l17-2c0-3.4189453,3.5541992-6,11.5-6h3v1.5
					c0,5.6289062-3.8212891,9-9.5,9c-3.1582031,0-5-1.5966797-5-4.5l-17,2c0,10.0566406,6.859375,16,17,16
					c5.9746094,0,12.2275391-3.1572266,15.7998047-8H156.625c0.2929688,2.4785156,0.5898438,4.6455078,1,7h18
					c-0.96875-4.46875-1.5-9.34375-1.5-14v-18c0-15.0185547-6.5986328-21-24-21c-8.3837891,0-16.8691406,1.6113281-24,4.5l2.5,13
					c6.2128906-2.84375,13.5717773-4.5,20.5-4.5c4.6074219,0,6,1.4775391,6,6l0,0H152.125z"/>
				<path d="M149.625,805.125c-7.7539062,0-15.8339844,1.6474609-22.3334961,4.5l2.1665039,11.3330078
					c5.8198242-2.8359375,12.9291992-4.5,19.5-4.5c5.9018555,0,7.8330078,1.9433594,7.8330078,7.7666016v0.1669922h-3.6665039
					c-18.9306641,0-28.5,7.9541016-28.5,19.0664062l14.6000977-1.5c0-4.4521484,4.4682617-7.7666016,13.8999023-7.7666016h3.6665039
					V836.625c0,6.5488281-4.9243164,11-11.4995117,11c-3.7402344,0-6.0668945-2.0517578-6.0668945-5.6669922l-14.6000977,1.5
					c0,9.8574219,6.6425781,15.6669922,16.5,15.6669922c6.7338867,0,13.2109375-3.2392578,16.8339844-8.3398438l0.1987305,0.0117188
					c0.2407227,2.5771484,0.5493164,4.9970703,0.9677734,7.328125h15.1665039c-0.9682617-4.5146484-1.5-9.3583984-1.5-14
					v-18.6669922C172.7915039,811.0419922,166.300293,805.125,149.625,805.125z"/>
				<path d="M149.125,655.125c-7.1235352,0-14.7978516,1.6845703-20.6665039,4.5l1.8330078,9.6669922
					c5.4262695-2.828125,12.2866211-4.5,18.5-4.5c7.1962891,0,9.6669922,2.4091797,9.6669922,9.5332031v0.3330078H154.125
					c-18.9711914,0-28.5,7.9775391-28.5,19.1337891l12.199707-1c0-5.4873047,5.3818359-9.5332031,16.300293-9.5332031h4.3334961
					V686.625c0,7.4697266-6.027832,13-13.5,13c-4.3217773,0-7.1337891-2.5078125-7.1337891-6.8330078l-12.199707,1
					c0,9.6582031,6.4248047,15.3330078,16,15.3330078c7.4936523,0,14.1938477-3.3203125,17.8676758-8.6787109l0.1982422,0.0234375
					c0.1875,2.6757812,0.5083008,5.3486328,0.934082,7.6552734h12.3334961c-0.9672852-4.5595703-1.5-9.3720703-1.5-14v-19.3330078
					C171.4584961,660.9785156,165.074707,655.125,149.125,655.125z"/>
				<path d="M160.125,532.3251953V536.625c0,8.390625-7.1308594,15-15.5,15c-4.9038086,0-8.2001953-2.9628906-8.2001953-8
					l-9.7998047,0.5c0,9.4599609,6.2075195,15,15.5,15c8.2529297,0,15.1767578-3.4023438,18.9018555-9.0175781l0.1967773,0.0351562
					c0.1352539,2.7734375,0.4672852,5.6992188,0.9013672,7.9824219h9.5c-0.9663086-4.6044922-1.5-9.3857422-1.5-14v-20
					c0-13.2109375-6.2758789-19-21.5-19c-6.4931641,0-13.7626953,1.7207031-19,4.5l1.5,8
					c5.0327148-2.8203125,11.644043-4.5,17.5-4.5c8.4907227,0,11.5,2.875,11.5,11.2998047v0.5h-5
					c-19.0112305,0-28.5,8.0019531-28.5,19.2001953l9.7998047-0.5c0-6.5205078,6.2954102-11.2998047,18.7001953-11.2998047H160.125z
					"/>
			</g>
			<path d="M148.7919922,355.125c-6.5039062,0-13.5180664,1.7363281-18.8339844,4.6669922l1.3393555,5.9072266
				c5.0737305-2.8955078,11.5512695-4.5742188,17.4946289-4.5742188c9.6972656,0,13,3.375,13,13.5332031v0.5h-5.3339844
				c-19.1347656,0-29.1660156,7.5820312-29.1660156,18.9667969l7.1992188-0.3330078
				c0-7.8427734,7.6601562-13.0332031,21.9667969-13.0332031h5.3339844v5.5332031c0,9.8491211-7.9863281,17.1665039-17,17.1665039
				c-6.2509766,0-10.3007812-3.6362305-10.3007812-9.6665039L127.2919922,394.125c0,9.3442383,6.296875,15,15.8330078,15
				c8.5966797,0,15.6484375-3.9082031,19.25-10.1821289l0.1972656,0.0234375
				c0.1342773,3.1689453,0.4716797,6.3374023,1.0385742,9.1586914H170.625c-0.9873047-4.6293945-1.5-9.2373047-1.5-14v-19.6669922
				C169.125,360.6582031,163.2929688,355.125,148.7919922,355.125z"/>
			<path d="M148.9584961,205.125c-6.5136719,0-13.2729492,1.7524414-18.6669922,4.8334961l1.1782227,3.8144531
				c5.1152344-2.9702148,11.4580078-4.6479492,17.4887695-4.6479492c10.9047852,0,14.5,3.8745117,14.5,15.7666016v0.5h-5.6669922
				c-19.2587891,0-29.8330078,7.1625977-29.8330078,18.7333984l4.5996094-0.1665039
				c0-9.1640625,9.0239258-14.7666016,25.2333984-14.7666016h5.6669922v6.7666016
				c0,11.3081055-8.8417969,19.3334961-18.5,19.3334961c-7.597168,0-12.4003906-4.309082-12.4003906-11.3334961L127.9584961,244.125
				c0,9.2285156,6.3867188,15,16.1665039,15c8.9399414,0,16.1206055-4.4145508,19.5976562-11.3466797l0.1987305,0.0117188
				c0.1328125,3.5644531,0.4760742,6.9760742,1.175293,10.3349609H169.625c-1.0078125-4.6542969-1.5-9.0893555-1.5-14v-19.3334961
				C168.125,210.4023438,162.7368164,205.125,148.9584961,205.125z"/>
			<path d="M165.2705078,96.6137695c0.1308594,3.9599609,0.4799805,7.6142578,1.3120117,11.5112305H168.625
				c-1.0283203-4.6796875-1.5-8.9414062-1.5-14v-19c0-14.9785156-4.9448242-20-18-20c-6.5239258,0-13.027832,1.7685547-18.5,5
				l1.0170898,1.7216797C136.7983398,58.8017578,143.0073242,57.125,149.125,57.125c12.1123047,0,16,4.3740234,16,18v0.5h-6
				c-19.3833008,0-30.5,6.7431641-30.5,18.5h2c0-10.4858398,10.3876953-16.5,28.5-16.5h6v9.5c0,11.5888672-8.4111328,20-20,20
				c-8.9438477,0-14.5-4.9814453-14.5-13h-2c0,9.1123047,6.4765625,15,16.5,15
				c9.2832031,0,16.5927734-4.9208984,19.9453125-12.5112305H165.2705078z"/>
			<g>
				<path d="M52.125,974.125c-18.890625,0-28.5,7.9296875-28.5,19l17-2c0-3.4189453,3.5541992-6,11.5-6h3v1.5
					c0,5.6289062-3.8212891,9-9.5,9c-3.1582031,0-5-1.5966797-5-4.5l-17,2c0,10.0566406,6.859375,16,17,16
					c5.9746094,0,12.2275391-3.1572266,15.7998047-8H56.625c0.2929688,2.4785156,0.5898438,4.6455078,1,7h18
					c-0.96875-4.46875-1.5-9.34375-1.5-14v-18c0-15.0185547-6.5986328-21-24-21c-8.3837891,0-16.8691406,1.6113281-24,4.5l2.5,13
					c6.2128906-2.84375,13.5717773-4.5,20.5-4.5c4.6074219,0,6,1.4775391,6,6l0,0H52.125z"/>
				<path d="M49.6245117,805.125c-7.753418,0-15.8334961,1.6474609-22.3334961,4.5l2.1669922,11.3330078
					c5.8193359-2.8359375,12.9291992-4.5,19.5-4.5c5.9018555,0,7.8334961,1.9433594,7.8334961,7.7666016v0.1669922h-3.6669922
					c-18.9306641,0-28.5,7.9541016-28.5,19.0664062l14.6000977-1.5c0-4.4521484,4.4677734-7.7666016,13.8999023-7.7666016h3.6669922
					V836.625c0,6.5488281-4.9243164,11-11.5004883,11c-3.7397461,0-6.0664062-2.0517578-6.0664062-5.6669922l-14.6000977,1.5
					c0,9.8574219,6.6420898,15.6669922,16.5004883,15.6669922c6.7338867,0,13.2099609-3.2392578,16.8334961-8.3398438
					l0.1992188,0.0117188c0.2402344,2.5771484,0.5488281,4.9970703,0.9667969,7.328125h15.1665039
					c-0.9672852-4.5146484-1.5-9.3583984-1.5-14v-18.6669922C72.7910156,811.0419922,66.300293,805.125,49.6245117,805.125z"/>
				<path d="M49.125,655.125c-7.1230469,0-14.7983398,1.6845703-20.6665039,4.5l1.8334961,9.6669922
					c5.4257812-2.828125,12.2866211-4.5,18.4995117-4.5c7.1967773,0,9.6669922,2.4091797,9.6669922,9.5332031v0.3330078H54.125
					c-18.9711914,0-28.5,7.9775391-28.5,19.1337891l12.2001953-1c0-5.4873047,5.3813477-9.5332031,16.2998047-9.5332031h4.3334961
					V686.625c0,7.4697266-6.027832,13-13.5,13c-4.3222656,0-7.1333008-2.5078125-7.1333008-6.8330078l-12.2001953,1
					c0,9.6582031,6.4248047,15.3330078,16,15.3330078c7.4936523,0,14.1938477-3.3203125,17.8681641-8.6787109l0.1977539,0.0234375
					c0.1875,2.6757812,0.5078125,5.3486328,0.934082,7.6552734h12.3334961c-0.9672852-4.5595703-1.5-9.3720703-1.5-14v-19.3330078
					C71.4584961,660.9785156,65.074707,655.125,49.125,655.125z"/>
				<path d="M60.125,532.3251953V536.625c0,8.390625-7.1308594,15-15.5,15c-4.9038086,0-8.2001953-2.9628906-8.2001953-8
					l-9.7998047,0.5c0,9.4599609,6.2075195,15,15.5,15c8.2529297,0,15.1767578-3.4023438,18.9018555-9.0175781l0.1967773,0.0351562
					c0.1352539,2.7734375,0.4672852,5.6992188,0.9013672,7.9824219h9.5c-0.9663086-4.6044922-1.5-9.3857422-1.5-14v-20
					c0-13.2109375-6.2758789-19-21.5-19c-6.4931641,0-13.7626953,1.7207031-19,4.5l1.5,8
					c5.0327148-2.8203125,11.644043-4.5,17.5-4.5c8.4907227,0,11.5,2.875,11.5,11.2998047v0.5h-5
					c-19.0112305,0-28.5,8.0019531-28.5,19.2001953l9.7998047-0.5c0-6.5205078,6.2954102-11.2998047,18.7001953-11.2998047H60.125z"
					/>
			</g>
			<path d="M48.7919922,355.125c-6.5039062,0-13.5180664,1.7363281-18.8339844,4.6669922l1.3393555,5.9072266
				C36.3710938,362.8037109,42.8486328,361.125,48.7919922,361.125c9.6972656,0,13,3.375,13,13.5332031v0.5h-5.3339844
				c-19.1347656,0-29.1660156,7.5820312-29.1660156,18.9667969l7.1992188-0.3330078
				c0-7.8427734,7.6601562-13.0332031,21.9667969-13.0332031h5.3339844v5.5332031c0,9.8491211-7.9863281,17.1665039-17,17.1665039
				c-6.2509766,0-10.3007812-3.6362305-10.3007812-9.6665039L27.2919922,394.125c0,9.3442383,6.296875,15,15.8330078,15
				c8.5966797,0,15.6484375-3.9082031,19.25-10.1821289l0.1972656,0.0234375
				c0.1342773,3.1689453,0.4716797,6.3374023,1.0385742,9.1586914H70.625c-0.9873047-4.6293945-1.5-9.2373047-1.5-14v-19.6669922
				C69.125,360.6582031,63.2929688,355.125,48.7919922,355.125z"/>
			<path d="M48.9584961,205.125c-6.5136719,0-13.2729492,1.7524414-18.6669922,4.8334961l1.1782227,3.8144531
				C36.5849609,210.8027344,42.9277344,209.125,48.9584961,209.125c10.9047852,0,14.5,3.8745117,14.5,15.7666016v0.5h-5.6669922
				c-19.2587891,0-29.8330078,7.1625977-29.8330078,18.7333984l4.5996094-0.1665039
				c0-9.1640625,9.0239258-14.7666016,25.2333984-14.7666016h5.6669922v6.7666016
				c0,11.3081055-8.8417969,19.3334961-18.5,19.3334961c-7.597168,0-12.4003906-4.309082-12.4003906-11.3334961L27.9584961,244.125
				c0,9.2285156,6.3867188,15,16.1665039,15c8.9399414,0,16.1206055-4.4145508,19.5976562-11.3466797l0.1987305,0.0117188
				c0.1328125,3.5644531,0.4760742,6.9760742,1.175293,10.3349609H69.625c-1.0078125-4.6542969-1.5-9.0893555-1.5-14v-19.3334961
				C68.125,210.4023438,62.7368164,205.125,48.9584961,205.125z"/>
			<path d="M65.2705078,96.6137695c0.1308594,3.9599609,0.4799805,7.6142578,1.3120117,11.5112305H68.625
				c-1.0283203-4.6796875-1.5-8.9414062-1.5-14v-19c0-14.9785156-4.9448242-20-18-20c-6.5239258,0-13.027832,1.7685547-18.5,5
				l1.0170898,1.7216797C36.7983398,58.8017578,43.0073242,57.125,49.125,57.125c12.1123047,0,16,4.3740234,16,18v0.5h-6
				c-19.3833008,0-30.5,6.7431641-30.5,18.5h2c0-10.4858398,10.3876953-16.5,28.5-16.5h6v9.5c0,11.5888672-8.4111328,20-20,20
				c-8.9438477,0-14.5-4.9814453-14.5-13h-2c0,9.1123047,6.4765625,15,16.5,15
				c9.2832031,0,16.5927734-4.9208984,19.9453125-12.5112305H65.2705078z"/>
			<g>
				<path d="M352.125,974.125c-18.890625,0-28.5,7.9296875-28.5,19l17-2c0-3.4189453,3.5541992-6,11.5-6h3v1.5
					c0,5.6289062-3.8212891,9-9.5,9c-3.1582031,0-5-1.5966797-5-4.5l-17,2c0,10.0566406,6.859375,16,17,16
					c5.9746094,0,12.2275391-3.1572266,15.7998047-8H356.625c0.2929688,2.4785156,0.5898438,4.6455078,1,7h18
					c-0.96875-4.46875-1.5-9.34375-1.5-14v-18c0-15.0185547-6.5986328-21-24-21c-8.3837891,0-16.8691406,1.6113281-24,4.5l2.5,13
					c6.2128906-2.84375,13.5717773-4.5,20.5-4.5c4.6074219,0,6,1.4775391,6,6l0,0H352.125z"/>
				<path d="M349.6245117,805.125c-7.753418,0-15.8334961,1.6474609-22.3334961,4.5l2.1669922,11.3330078
					c5.8193359-2.8359375,12.9291992-4.5,19.5-4.5c5.9023438,0,7.8330078,1.9433594,7.8330078,7.7666016v0.1669922H353.125
					c-18.9311523,0-28.5004883,7.9541016-28.5004883,19.0664062l14.6000977-1.5
					c0-4.4521484,4.4677734-7.7666016,13.9003906-7.7666016h3.6660156V836.625c0,6.5488281-4.9238281,11-11.5,11
					c-3.7397461,0-6.0664062-2.0517578-6.0664062-5.6669922l-14.6000977,1.5
					c0,9.8574219,6.6420898,15.6669922,16.5004883,15.6669922c6.7338867,0,13.2099609-3.2392578,16.8339844-8.3398438
					l0.1982422,0.0117188c0.2412109,2.5771484,0.5498047,4.9970703,0.9677734,7.328125h15.1660156
					c-0.9677734-4.5146484-1.5-9.3583984-1.5-14v-18.6669922C372.7910156,811.0419922,366.3007812,805.125,349.6245117,805.125z"/>
				<path d="M349.125,655.125c-7.1230469,0-14.7983398,1.6845703-20.6665039,4.5l1.8334961,9.6669922
					c5.4257812-2.828125,12.2866211-4.5,18.4995117-4.5c7.1958008,0,9.6665039,2.4091797,9.6665039,9.5332031v0.3330078H354.125
					c-18.9711914,0-28.5,7.9775391-28.5,19.1337891l12.2001953-1c0-5.4873047,5.3813477-9.5332031,16.2998047-9.5332031h4.3330078
					V686.625c0,7.4697266-6.0273438,13-13.4995117,13c-4.3222656,0-7.1333008-2.5078125-7.1333008-6.8330078l-12.2001953,1
					c0,9.6582031,6.4248047,15.3330078,16,15.3330078c7.4936523,0,14.1933594-3.3203125,17.8681641-8.6787109l0.1972656,0.0234375
					c0.1884766,2.6757812,0.5087891,5.3486328,0.9345703,7.6552734h12.3330078c-0.9667969-4.5595703-1.5-9.3720703-1.5-14
					v-19.3330078C371.4580078,660.9785156,365.0751953,655.125,349.125,655.125z"/>
				<path d="M360.125,532.3251953V536.625c0,8.390625-7.1308594,15-15.5,15c-4.9038086,0-8.2001953-2.9628906-8.2001953-8
					l-9.7998047,0.5c0,9.4599609,6.2075195,15,15.5,15c8.2529297,0,15.1767578-3.4023438,18.9023438-9.0175781l0.1962891,0.0351562
					c0.1357422,2.7734375,0.4677734,5.6992188,0.9013672,7.9824219h9.5c-0.9667969-4.6044922-1.5-9.3857422-1.5-14v-20
					c0-13.2109375-6.2753906-19-21.5-19c-6.4931641,0-13.7626953,1.7207031-19,4.5l1.5,8
					c5.0327148-2.8203125,11.644043-4.5,17.5-4.5c8.4902344,0,11.5,2.875,11.5,11.2998047v0.5h-5
					c-19.0112305,0-28.5,8.0019531-28.5,19.2001953l9.7998047-0.5c0-6.5205078,6.2954102-11.2998047,18.7001953-11.2998047H360.125z
					"/>
			</g>
			<path d="M348.7919922,355.125c-6.5039062,0-13.5180664,1.7363281-18.8339844,4.6669922l1.3393555,5.9072266
				c5.0737305-2.8955078,11.5512695-4.5742188,17.4946289-4.5742188c9.6972656,0,13,3.375,13,13.5332031v0.5h-5.3339844
				c-19.1347656,0-29.1660156,7.5820312-29.1660156,18.9667969l7.1992188-0.3330078
				c0-7.8427734,7.6601562-13.0332031,21.9667969-13.0332031h5.3339844v5.5332031c0,9.8491211-7.9863281,17.1665039-17,17.1665039
				c-6.2509766,0-10.3007812-3.6362305-10.3007812-9.6665039L327.2919922,394.125c0,9.3442383,6.296875,15,15.8330078,15
				c8.5966797,0,15.6484375-3.9082031,19.25-10.1821289l0.1972656,0.0234375
				c0.1347656,3.1689453,0.4716797,6.3374023,1.0390625,9.1586914H370.625c-0.9873047-4.6293945-1.5-9.2373047-1.5-14v-19.6669922
				C369.125,360.6582031,363.2929688,355.125,348.7919922,355.125z"/>
			<path d="M348.9584961,205.125c-6.5136719,0-13.2729492,1.7524414-18.6669922,4.8334961l1.1782227,3.8144531
				c5.1152344-2.9702148,11.4580078-4.6479492,17.4887695-4.6479492c10.9047852,0,14.5004883,3.8745117,14.5004883,15.7666016v0.5
				h-5.6679688c-19.2583008,0-29.8325195,7.1625977-29.8325195,18.7333984l4.5996094-0.1665039
				c0-9.1640625,9.0239258-14.7666016,25.2329102-14.7666016h5.6679688v6.7666016
				c0,11.3081055-8.8417969,19.3334961-18.5004883,19.3334961c-7.597168,0-12.4003906-4.309082-12.4003906-11.3334961
				L327.9584961,244.125c0,9.2285156,6.3867188,15,16.1665039,15c8.9394531,0,16.1210938-4.4145508,19.5976562-11.3466797
				l0.1992188,0.0117188c0.1328125,3.5644531,0.4755859,6.9760742,1.1748047,10.3349609H369.625
				c-1.0078125-4.6542969-1.5-9.0893555-1.5-14v-19.3334961C368.125,210.4023438,362.7363281,205.125,348.9584961,205.125z"/>
			<path d="M365.2705078,96.6137695c0.1308594,3.9599609,0.4794922,7.6142578,1.3115234,11.5112305H368.625
				c-1.0283203-4.6796875-1.5-8.9414062-1.5-14v-19c0-14.9785156-4.9453125-20-18-20c-6.5239258,0-13.027832,1.7685547-18.5,5
				l1.0170898,1.7216797C336.7983398,58.8017578,343.0073242,57.125,349.125,57.125c12.1123047,0,16,4.3740234,16,18v0.5h-6
				c-19.3833008,0-30.5,6.7431641-30.5,18.5h2c0-10.4858398,10.3876953-16.5,28.5-16.5h6v9.5c0,11.5888672-8.4111328,20-20,20
				c-8.9438477,0-14.5-4.9814453-14.5-13h-2c0,9.1123047,6.4765625,15,16.5,15
				c9.2832031,0,16.5927734-4.9208984,19.9453125-12.5112305H365.2705078z"/>
			<g>
				<path d="M252.125,974.125c-18.890625,0-28.5,7.9296875-28.5,19l17-2c0-3.4189453,3.5541992-6,11.5-6h3v1.5
					c0,5.6289062-3.8212891,9-9.5,9c-3.1582031,0-5-1.5966797-5-4.5l-17,2c0,10.0566406,6.859375,16,17,16
					c5.9746094,0,12.2275391-3.1572266,15.7998047-8H256.625c0.2929688,2.4785156,0.5898438,4.6455078,1,7h18
					c-0.96875-4.46875-1.5-9.34375-1.5-14v-18c0-15.0185547-6.5986328-21-24-21c-8.3837891,0-16.8691406,1.6113281-24,4.5l2.5,13
					c6.2128906-2.84375,13.5717773-4.5,20.5-4.5c4.6074219,0,6,1.4775391,6,6l0,0H252.125z"/>
				<path d="M249.6245117,805.125c-7.753418,0-15.8334961,1.6474609-22.3330078,4.5l2.1665039,11.3330078
					c5.8193359-2.8359375,12.9291992-4.5,19.5-4.5c5.9018555,0,7.8334961,1.9433594,7.8334961,7.7666016v0.1669922H253.125
					c-18.9311523,0-28.5,7.9541016-28.5,19.0664062l14.5996094-1.5c0-4.4521484,4.4677734-7.7666016,13.9003906-7.7666016h3.6665039
					V836.625c0,6.5488281-4.9248047,11-11.5,11c-3.7402344,0-6.0668945-2.0517578-6.0668945-5.6669922l-14.5996094,1.5
					c0,9.8574219,6.6416016,15.6669922,16.4995117,15.6669922c6.734375,0,13.2109375-3.2392578,16.8339844-8.3398438
					l0.1992188,0.0117188c0.2402344,2.5771484,0.5488281,4.9970703,0.9667969,7.328125h15.1669922
					c-0.9682617-4.5146484-1.5-9.3583984-1.5-14v-18.6669922C272.7915039,811.0419922,266.300293,805.125,249.6245117,805.125z"/>
				<path d="M249.125,655.125c-7.1235352,0-14.7983398,1.6845703-20.6665039,4.5l1.8330078,9.6669922
					c5.4262695-2.828125,12.2866211-4.5,18.5004883-4.5c7.1958008,0,9.6665039,2.4091797,9.6665039,9.5332031v0.3330078H254.125
					c-18.9707031,0-28.5,7.9775391-28.5,19.1337891l12.199707-1c0-5.4873047,5.3818359-9.5332031,16.300293-9.5332031h4.3334961
					V686.625c0,7.4697266-6.027832,13-13.5,13c-4.3222656,0-7.1337891-2.5078125-7.1337891-6.8330078l-12.199707,1
					c0,9.6582031,6.4248047,15.3330078,16,15.3330078c7.4936523,0,14.1938477-3.3203125,17.8676758-8.6787109l0.1982422,0.0234375
					c0.1879883,2.6757812,0.5078125,5.3486328,0.934082,7.6552734h12.3334961c-0.9672852-4.5595703-1.5-9.3720703-1.5-14
					v-19.3330078C271.4584961,660.9785156,265.0751953,655.125,249.125,655.125z"/>
				<path d="M260.125,532.3251953V536.625c0,8.390625-7.1308594,15-15.5,15c-4.9038086,0-8.2001953-2.9628906-8.2001953-8
					l-9.7998047,0.5c0,9.4599609,6.2075195,15,15.5,15c8.2529297,0,15.1767578-3.4023438,18.9018555-9.0175781l0.1967773,0.0351562
					c0.1352539,2.7734375,0.4672852,5.6992188,0.9013672,7.9824219h9.5c-0.9663086-4.6044922-1.5-9.3857422-1.5-14v-20
					c0-13.2109375-6.2758789-19-21.5-19c-6.4931641,0-13.7626953,1.7207031-19,4.5l1.5,8
					c5.0327148-2.8203125,11.644043-4.5,17.5-4.5c8.4907227,0,11.5,2.875,11.5,11.2998047v0.5h-5
					c-19.0112305,0-28.5,8.0019531-28.5,19.2001953l9.7998047-0.5c0-6.5205078,6.2954102-11.2998047,18.7001953-11.2998047H260.125z
					"/>
			</g>
			<path d="M248.7919922,355.125c-6.5039062,0-13.5180664,1.7363281-18.8339844,4.6669922l1.3393555,5.9072266
				c5.0737305-2.8955078,11.5512695-4.5742188,17.4946289-4.5742188c9.6972656,0,13,3.375,13,13.5332031v0.5h-5.3339844
				c-19.1347656,0-29.1660156,7.5820312-29.1660156,18.9667969l7.1992188-0.3330078
				c0-7.8427734,7.6601562-13.0332031,21.9667969-13.0332031h5.3339844v5.5332031c0,9.8491211-7.9863281,17.1665039-17,17.1665039
				c-6.2509766,0-10.3007812-3.6362305-10.3007812-9.6665039L227.2919922,394.125c0,9.3442383,6.296875,15,15.8330078,15
				c8.5966797,0,15.6484375-3.9082031,19.25-10.1821289l0.1972656,0.0234375
				c0.1342773,3.1689453,0.4716797,6.3374023,1.0385742,9.1586914H270.625c-0.9873047-4.6293945-1.5-9.2373047-1.5-14v-19.6669922
				C269.125,360.6582031,263.2929688,355.125,248.7919922,355.125z"/>
			<path d="M248.9584961,205.125c-6.5136719,0-13.2729492,1.7524414-18.6669922,4.8334961l1.1782227,3.8144531
				c5.1152344-2.9702148,11.4580078-4.6479492,17.4887695-4.6479492c10.9047852,0,14.5,3.8745117,14.5,15.7666016v0.5h-5.6669922
				c-19.2587891,0-29.8330078,7.1625977-29.8330078,18.7333984l4.5996094-0.1665039
				c0-9.1640625,9.0239258-14.7666016,25.2333984-14.7666016h5.6669922v6.7666016
				c0,11.3081055-8.8417969,19.3334961-18.5,19.3334961c-7.597168,0-12.4003906-4.309082-12.4003906-11.3334961L227.9584961,244.125
				c0,9.2285156,6.3867188,15,16.1665039,15c8.9399414,0,16.1206055-4.4145508,19.5976562-11.3466797l0.1987305,0.0117188
				c0.1328125,3.5644531,0.4760742,6.9760742,1.175293,10.3349609H269.625c-1.0078125-4.6542969-1.5-9.0893555-1.5-14v-19.3334961
				C268.125,210.4023438,262.7368164,205.125,248.9584961,205.125z"/>
			<path d="M265.2705078,96.6137695c0.1308594,3.9599609,0.4799805,7.6142578,1.3120117,11.5112305H268.625
				c-1.0283203-4.6796875-1.5-8.9414062-1.5-14v-19c0-14.9785156-4.9448242-20-18-20c-6.5239258,0-13.027832,1.7685547-18.5,5
				l1.0170898,1.7216797C236.7983398,58.8017578,243.0073242,57.125,249.125,57.125c12.1123047,0,16,4.3740234,16,18v0.5h-6
				c-19.3833008,0-30.5,6.7431641-30.5,18.5h2c0-10.4858398,10.3876953-16.5,28.5-16.5h6v9.5c0,11.5888672-8.4111328,20-20,20
				c-8.9438477,0-14.5-4.9814453-14.5-13h-2c0,9.1123047,6.4765625,15,16.5,15
				c9.2832031,0,16.5927734-4.9208984,19.9453125-12.5112305H265.2705078z"/>
			<g>
				<path d="M552.125,974.125c-18.890625,0-28.5,7.9296875-28.5,19l17-2c0-3.4189453,3.5546875-6,11.5-6h3v1.5
					c0,5.6289062-3.8212891,9-9.5,9c-3.1582031,0-5-1.5966797-5-4.5l-17,2c0,10.0566406,6.859375,16,17,16
					c5.9746094,0,12.2275391-3.1572266,15.7998047-8H556.625c0.2929688,2.4785156,0.5898438,4.6455078,1,7h18
					c-0.96875-4.46875-1.5-9.34375-1.5-14v-18c0-15.0185547-6.5986328-21-24-21c-8.3837891,0-16.8691406,1.6113281-24,4.5l2.5,13
					c6.2128906-2.84375,13.5722656-4.5,20.5-4.5c4.6074219,0,6,1.4775391,6,6l0,0H552.125z"/>
				<path d="M549.625,805.125c-7.7539062,0-15.8339844,1.6474609-22.3339844,4.5l2.1669922,11.3330078
					c5.8193359-2.8359375,12.9287109-4.5,19.5-4.5c5.9023438,0,7.8330078,1.9433594,7.8330078,7.7666016v0.1669922H553.125
					c-18.9316406,0-28.5,7.9541016-28.5,19.0664062l14.5996094-1.5c0-4.4521484,4.4677734-7.7666016,13.9003906-7.7666016h3.6660156
					V836.625c0,6.5488281-4.9238281,11-11.5,11c-3.7402344,0-6.0664062-2.0517578-6.0664062-5.6669922l-14.5996094,1.5
					c0,9.8574219,6.6416016,15.6669922,16.5,15.6669922c6.734375,0,13.2099609-3.2392578,16.8339844-8.3398438l0.1982422,0.0117188
					c0.2412109,2.5771484,0.5498047,4.9970703,0.9677734,7.328125h15.1660156c-0.9677734-4.5146484-1.5-9.3583984-1.5-14
					v-18.6669922C572.7910156,811.0419922,566.3007812,805.125,549.625,805.125z"/>
				<path d="M549.125,655.125c-7.1230469,0-14.7988281,1.6845703-20.6660156,4.5l1.8330078,9.6669922
					c5.4257812-2.828125,12.2861328-4.5,18.4990234-4.5c7.1962891,0,9.6669922,2.4091797,9.6669922,9.5332031v0.3330078H554.125
					c-18.9707031,0-28.5,7.9775391-28.5,19.1337891l12.2001953-1c0-5.4873047,5.3818359-9.5332031,16.2998047-9.5332031h4.3330078
					V686.625c0,7.4697266-6.0273438,13-13.4990234,13c-4.3222656,0-7.1337891-2.5078125-7.1337891-6.8330078l-12.2001953,1
					c0,9.6582031,6.4248047,15.3330078,16,15.3330078c7.4941406,0,14.1933594-3.3203125,17.8681641-8.6787109l0.1972656,0.0234375
					c0.1884766,2.6757812,0.5087891,5.3486328,0.9345703,7.6552734h12.3330078c-0.9667969-4.5595703-1.5-9.3720703-1.5-14
					v-19.3330078C571.4580078,660.9785156,565.0751953,655.125,549.125,655.125z"/>
				<path d="M560.125,532.3251953V536.625c0,8.390625-7.1308594,15-15.5,15c-4.9042969,0-8.2001953-2.9628906-8.2001953-8
					l-9.7998047,0.5c0,9.4599609,6.2070312,15,15.5,15c8.2529297,0,15.1767578-3.4023438,18.9023438-9.0175781l0.1962891,0.0351562
					c0.1357422,2.7734375,0.4677734,5.6992188,0.9013672,7.9824219h9.5c-0.9667969-4.6044922-1.5-9.3857422-1.5-14v-20
					c0-13.2109375-6.2753906-19-21.5-19c-6.4931641,0-13.7626953,1.7207031-19,4.5l1.5,8
					c5.0332031-2.8203125,11.6445312-4.5,17.5-4.5c8.4902344,0,11.5,2.875,11.5,11.2998047v0.5h-5
					c-19.0117188,0-28.5,8.0019531-28.5,19.2001953l9.7998047-0.5c0-6.5205078,6.2958984-11.2998047,18.7001953-11.2998047H560.125z
					"/>
			</g>
			<path d="M548.7919922,355.125c-6.5039062,0-13.5185547,1.7363281-18.8339844,4.6669922l1.3388672,5.9072266
				c5.0742188-2.8955078,11.5517578-4.5742188,17.4951172-4.5742188c9.6972656,0,13,3.375,13,13.5332031v0.5h-5.3339844
				c-19.1347656,0-29.1660156,7.5820312-29.1660156,18.9667969l7.1992188-0.3330078
				c0-7.8427734,7.6601562-13.0332031,21.9667969-13.0332031h5.3339844v5.5332031c0,9.8491211-7.9863281,17.1665039-17,17.1665039
				c-6.2509766,0-10.3007812-3.6362305-10.3007812-9.6665039L527.2919922,394.125c0,9.3442383,6.296875,15,15.8330078,15
				c8.5966797,0,15.6484375-3.9082031,19.25-10.1821289l0.1972656,0.0234375
				c0.1347656,3.1689453,0.4716797,6.3374023,1.0390625,9.1586914H570.625c-0.9873047-4.6293945-1.5-9.2373047-1.5-14v-19.6669922
				C569.125,360.6582031,563.2929688,355.125,548.7919922,355.125z"/>
			<path d="M548.9589844,205.125c-6.5136719,0-13.2734375,1.7524414-18.6679688,4.8334961l1.1787109,3.8144531
				c5.1152344-2.9702148,11.4580078-4.6479492,17.4892578-4.6479492c10.9042969,0,14.5,3.8745117,14.5,15.7666016v0.5h-5.6679688
				c-19.2578125,0-29.8320312,7.1625977-29.8320312,18.7333984l4.5996094-0.1665039
				c0-9.1640625,9.0234375-14.7666016,25.2324219-14.7666016h5.6679688v6.7666016
				c0,11.3081055-8.8417969,19.3334961-18.5,19.3334961c-7.5976562,0-12.4003906-4.309082-12.4003906-11.3334961
				L527.9589844,244.125c0,9.2285156,6.3867188,15,16.1660156,15c8.9394531,0,16.1210938-4.4145508,19.5976562-11.3466797
				l0.1992188,0.0117188c0.1328125,3.5644531,0.4755859,6.9760742,1.1748047,10.3349609H569.625
				c-1.0078125-4.6542969-1.5-9.0893555-1.5-14v-19.3334961C568.125,210.4023438,562.7363281,205.125,548.9589844,205.125z"/>
			<path d="M565.2705078,96.6137695c0.1308594,3.9599609,0.4794922,7.6142578,1.3115234,11.5112305H568.625
				c-1.0283203-4.6796875-1.5-8.9414062-1.5-14v-19c0-14.9785156-4.9453125-20-18-20c-6.5234375,0-13.0273438,1.7685547-18.5,5
				l1.0175781,1.7216797C536.7988281,58.8017578,543.0078125,57.125,549.125,57.125c12.1123047,0,16,4.3740234,16,18v0.5h-6
				c-19.3828125,0-30.5,6.7431641-30.5,18.5h2c0-10.4858398,10.3876953-16.5,28.5-16.5h6v9.5c0,11.5888672-8.4111328,20-20,20
				c-8.9433594,0-14.5-4.9814453-14.5-13h-2c0,9.1123047,6.4765625,15,16.5,15
				c9.2832031,0,16.5927734-4.9208984,19.9453125-12.5112305H565.2705078z"/>
			<g>
				<path d="M452.125,974.125c-18.890625,0-28.5,7.9296875-28.5,19l17-2c0-3.4189453,3.5546875-6,11.5-6h3v1.5
					c0,5.6289062-3.8212891,9-9.5,9c-3.1582031,0-5-1.5966797-5-4.5l-17,2c0,10.0566406,6.859375,16,17,16
					c5.9746094,0,12.2275391-3.1572266,15.7998047-8H456.625c0.2929688,2.4785156,0.5898438,4.6455078,1,7h18
					c-0.96875-4.46875-1.5-9.34375-1.5-14v-18c0-15.0185547-6.5986328-21-24-21c-8.3837891,0-16.8691406,1.6113281-24,4.5l2.5,13
					c6.2128906-2.84375,13.5722656-4.5,20.5-4.5c4.6074219,0,6,1.4775391,6,6l0,0H452.125z"/>
				<path d="M449.625,805.125c-7.7539062,0-15.8339844,1.6474609-22.3339844,4.5l2.1669922,11.3330078
					c5.8193359-2.8359375,12.9287109-4.5,19.5-4.5c5.9013672,0,7.8330078,1.9433594,7.8330078,7.7666016v0.1669922H453.125
					c-18.9316406,0-28.5,7.9541016-28.5,19.0664062l14.5996094-1.5c0-4.4521484,4.4677734-7.7666016,13.9003906-7.7666016h3.6660156
					V836.625c0,6.5488281-4.9238281,11-11.5,11c-3.7402344,0-6.0664062-2.0517578-6.0664062-5.6669922l-14.5996094,1.5
					c0,9.8574219,6.6416016,15.6669922,16.5,15.6669922c6.734375,0,13.2109375-3.2392578,16.8339844-8.3398438l0.1992188,0.0117188
					c0.2402344,2.5771484,0.5488281,4.9970703,0.9667969,7.328125h15.1660156c-0.9677734-4.5146484-1.5-9.3583984-1.5-14
					v-18.6669922C472.7910156,811.0419922,466.3007812,805.125,449.625,805.125z"/>
				<path d="M449.125,655.125c-7.1230469,0-14.7988281,1.6845703-20.6660156,4.5l1.8320312,9.6669922
					c5.4267578-2.828125,12.2871094-4.5,18.5009766-4.5c7.1962891,0,9.6669922,2.4091797,9.6669922,9.5332031v0.3330078H454.125
					c-18.9707031,0-28.5,7.9775391-28.5,19.1337891l12.1992188-1c0-5.4873047,5.3828125-9.5332031,16.3007812-9.5332031h4.3339844
					V686.625c0,7.4697266-6.0283203,13-13.5,13c-4.3222656,0-7.1347656-2.5078125-7.1347656-6.8330078l-12.1992188,1
					c0,9.6582031,6.4248047,15.3330078,16,15.3330078c7.4941406,0,14.1933594-3.3203125,17.8671875-8.6787109l0.1992188,0.0234375
					c0.1875,2.6757812,0.5078125,5.3486328,0.9335938,7.6552734h12.3339844c-0.9677734-4.5595703-1.5-9.3720703-1.5-14v-19.3330078
					C471.4589844,660.9785156,465.0751953,655.125,449.125,655.125z"/>
				<path d="M460.125,532.3251953V536.625c0,8.390625-7.1308594,15-15.5,15c-4.9042969,0-8.2001953-2.9628906-8.2001953-8
					l-9.7998047,0.5c0,9.4599609,6.2070312,15,15.5,15c8.2529297,0,15.1767578-3.4023438,18.9023438-9.0175781l0.1962891,0.0351562
					c0.1357422,2.7734375,0.4677734,5.6992188,0.9013672,7.9824219h9.5c-0.9667969-4.6044922-1.5-9.3857422-1.5-14v-20
					c0-13.2109375-6.2753906-19-21.5-19c-6.4931641,0-13.7626953,1.7207031-19,4.5l1.5,8
					c5.0332031-2.8203125,11.6445312-4.5,17.5-4.5c8.4902344,0,11.5,2.875,11.5,11.2998047v0.5h-5
					c-19.0117188,0-28.5,8.0019531-28.5,19.2001953l9.7998047-0.5c0-6.5205078,6.2958984-11.2998047,18.7001953-11.2998047H460.125z
					"/>
			</g>
			<path d="M448.7919922,355.125c-6.5039062,0-13.5185547,1.7363281-18.8339844,4.6669922l1.3388672,5.9072266
				c5.0742188-2.8955078,11.5517578-4.5742188,17.4951172-4.5742188c9.6972656,0,13,3.375,13,13.5332031v0.5h-5.3339844
				c-19.1347656,0-29.1660156,7.5820312-29.1660156,18.9667969l7.1992188-0.3330078
				c0-7.8427734,7.6601562-13.0332031,21.9667969-13.0332031h5.3339844v5.5332031c0,9.8491211-7.9863281,17.1665039-17,17.1665039
				c-6.2509766,0-10.3007812-3.6362305-10.3007812-9.6665039L427.2919922,394.125c0,9.3442383,6.296875,15,15.8330078,15
				c8.5966797,0,15.6484375-3.9082031,19.25-10.1821289l0.1972656,0.0234375
				c0.1347656,3.1689453,0.4716797,6.3374023,1.0390625,9.1586914H470.625c-0.9873047-4.6293945-1.5-9.2373047-1.5-14v-19.6669922
				C469.125,360.6582031,463.2929688,355.125,448.7919922,355.125z"/>
			<path d="M448.9589844,205.125c-6.5136719,0-13.2734375,1.7524414-18.6679688,4.8334961l1.1787109,3.8144531
				c5.1152344-2.9702148,11.4580078-4.6479492,17.4892578-4.6479492c10.9042969,0,14.5,3.8745117,14.5,15.7666016v0.5h-5.6679688
				c-19.2578125,0-29.8320312,7.1625977-29.8320312,18.7333984l4.5996094-0.1665039
				c0-9.1640625,9.0234375-14.7666016,25.2324219-14.7666016h5.6679688v6.7666016
				c0,11.3081055-8.8417969,19.3334961-18.5,19.3334961c-7.5976562,0-12.4003906-4.309082-12.4003906-11.3334961
				L427.9589844,244.125c0,9.2285156,6.3867188,15,16.1660156,15c8.9394531,0,16.1210938-4.4145508,19.5976562-11.3466797
				l0.1992188,0.0117188c0.1328125,3.5644531,0.4755859,6.9760742,1.1748047,10.3349609H469.625
				c-1.0078125-4.6542969-1.5-9.0893555-1.5-14v-19.3334961C468.125,210.4023438,462.7363281,205.125,448.9589844,205.125z"/>
			<path d="M465.2705078,96.6137695c0.1308594,3.9599609,0.4794922,7.6142578,1.3115234,11.5112305H468.625
				c-1.0283203-4.6796875-1.5-8.9414062-1.5-14v-19c0-14.9785156-4.9453125-20-18-20c-6.5234375,0-13.0273438,1.7685547-18.5,5
				l1.0175781,1.7216797C436.7988281,58.8017578,443.0078125,57.125,449.125,57.125c12.1123047,0,16,4.3740234,16,18v0.5h-6
				c-19.3828125,0-30.5,6.7431641-30.5,18.5h2c0-10.4858398,10.3876953-16.5,28.5-16.5h6v9.5c0,11.5888672-8.4111328,20-20,20
				c-8.9433594,0-14.5-4.9814453-14.5-13h-2c0,9.1123047,6.4765625,15,16.5,15
				c9.2832031,0,16.5927734-4.9208984,19.9453125-12.5112305H465.2705078z"/>
			<g>
				<polygon points="49.9487305,49.125 37.9399414,33.125 40.4389648,33.125 52.4467773,49.125 "/>
				<polygon points="42.6674805,182.7915039 54.3388672,199.1245117 49.3408203,199.1245117 36.3349609,182.7915039 "/>
				<polygon points="44.8964844,332.4584961 56.2324219,349.125 48.7329102,349.125 34.7299805,332.4584961 "/>
				<polygon points="47.125,482.125 58.125,499.125 48.125,499.125 33.125,482.125 "/>
				<polygon points="47.4580078,649.125 32.125,631.7919922 48.7910156,631.7919922 59.4580078,649.125 "/>
				<polygon points="46.7919922,799.125 31.125,781.4580078 50.4584961,781.4580078 60.7915039,799.125 "/>
				<polygon points="46.125,949.125 30.125,931.125 52.125,931.125 62.125,949.125 "/>
			</g>
			<g>
				<polygon points="154.125,949.125 170.125,931.125 148.125,931.125 138.125,949.125 "/>
				<polygon points="149.7915039,781.4580078 139.4580078,799.125 153.4580078,799.125 169.1245117,781.4580078 "/>
				<polygon points="151.4584961,631.7919922 140.7919922,649.125 152.7915039,649.125 168.125,631.7919922 "/>
				<polygon points="153.125,482.125 142.125,499.125 152.125,499.125 167.125,482.125 "/>
				<polygon points="155.3535156,332.4580078 144.0175781,349.1245117 151.5166016,349.1245117 165.5195312,332.4580078 "/>
				<polygon points="157.5825195,182.7919922 145.9106445,199.125 150.9091797,199.125 163.9150391,182.7919922 "/>
				<polygon points="150.3012695,49.125 162.3100586,33.125 159.8110352,33.125 147.8032227,49.125 "/>
			</g>
			<g>
				<path d="M354.125,934.625c-6.8354492-3.2353516-12.0356445-4.5-17-4.5c-8.4716797,0-13,5.6220703-13,20h13
					c0-5.5605469,0.6582031-6.5,2.5-6.5c1.2861328,0,3.5063477,0.5830078,6.5,2c6.8359375,3.2353516,12.0351562,4.5,17,4.5
					c8.3847656,0,13-5.4609375,13-19h-13c0,4.5605469-0.6582031,5.5-2.5,5.5
					C359.3388672,936.625,357.1191406,936.0419922,354.125,934.625z"/>
				<path d="M346.7080078,795.1025391c6.7138672,3.3261719,11.4560547,4.5224609,16,4.5224609
					c7.6875,0,12.0830078-5.015625,12.0830078-17.5h-11.3330078c0,4.7744141-0.8535156,5.9169922-2.8330078,5.9169922
					c-1.3691406,0-3.4794922-0.609375-7.0830078-2.3945312c-6.7138672-3.3261719-11.4570312-4.5224609-16.0004883-4.5224609
					c-7.8110352,0-12.0834961,5.2119141-12.0834961,18.5h11.3334961c0-5.7021484,0.8144531-6.9169922,2.8330078-6.9169922
					C340.9931641,792.7080078,343.1040039,793.3173828,346.7080078,795.1025391z"/>
				<path d="M347.2915039,644.5800781c6.6030273,3.3945312,10.8764648,4.5449219,15.0004883,4.5449219
					c6.9882812,0,11.1660156-4.5693359,11.1660156-16h-9.6660156c0,4.9892578-1.0488281,6.3330078-3.1669922,6.3330078
					c-1.4511719,0-3.4580078-0.6240234-7.6669922-2.7880859c-6.6025391-3.3945312-10.8764648-4.5449219-14.9995117-4.5449219
					c-7.1494141,0-11.1665039,4.8027344-11.1665039,17h9.6665039c0-5.84375,0.9707031-7.3330078,3.1665039-7.3330078
					C341.0761719,641.7919922,343.0830078,642.4160156,347.2915039,644.5800781z"/>
				<path d="M347.8745117,494.0576172C354.3730469,497.5078125,358.171875,498.625,361.875,498.625
					c6.2910156,0,10.25-4.1240234,10.25-14.5h-8c0,5.2041016-1.2441406,6.75-3.5,6.75
					c-1.5332031,0-3.4414062-0.6298828-8.25-3.1826172c-6.4985352-3.4501953-10.2973633-4.5673828-14-4.5673828
					c-6.4882812,0-10.25,4.3925781-10.25,15.5h8c0-5.9853516,1.1269531-7.75,3.5-7.75
					C341.1586914,490.875,343.0664062,491.5048828,347.8745117,494.0576172z"/>
				<path d="M329.1245117,348.125H335.125c0-6.6796875,1.7973633-8.1669922,4.1660156-8.1669922
					c1.8305664,0,4.1987305,0.8549805,9.1665039,3.5771484c6.2280273,3.3969727,9.9194336,4.5898438,13.3334961,4.5898438
					c5.3349609,0,9.3339844-3.3276367,9.3339844-13.0004883h-6c0,6.1362305-2.2099609,7.1665039-4.1669922,7.1665039
					c-1.8300781,0-4.1982422-0.8549805-9.1660156-3.5766602c-6.2280273-3.3974609-9.9199219-4.5898438-13.3339844-4.5898438
					C332.4736328,334.1245117,329.1245117,338.2866211,329.1245117,348.125z"/>
				<path d="M330.125,197.625h4c0-7.3730469,2.4682617-8.5834961,4.8334961-8.5834961
					c2.1269531,0,4.9555664,1.0805664,10.0825195,3.9711914c5.9570312,3.3447266,9.5410156,4.6123047,12.6669922,4.6123047
					c4.3789062,0,8.4169922-2.5307617,8.4169922-11.5h-4c0,7.0683594-3.1748047,7.5834961-4.8330078,7.5834961
					c-2.1269531,0-4.9560547-1.0805664-10.0830078-3.9711914c-5.9570312-3.3447266-9.5415039-4.6123047-12.6669922-4.6123047
					C333.0610352,185.125,330.125,189.0566406,330.125,197.625z"/>
				<path d="M331.125,47.125h2c0-8.0673828,3.1391602-9,5.5-9c2.4238281,0,5.7128906,1.3056641,10.9990234,4.3652344
					C355.3105469,45.7822266,358.7871094,47.125,361.625,47.125c3.421875,0,7.5-1.734375,7.5-10h-2c0,8-4.1396484,8-5.5,8
					c-2.4238281,0-5.7128906-1.3056641-10.9990234-4.3652344C344.9394531,37.4677734,341.4624023,36.125,338.625,36.125
					C333.6484375,36.125,331.125,39.8261719,331.125,47.125z"/>
			</g>
			<g>
				<polygon points="250.2250977,937.625 257.125,949.125 277.125,949.125 264.125,931.125 236.125,931.125 223.125,949.125 
					243.125,949.125 250.0249023,937.625 "/>
				<polygon points="250.2250977,787.2910156 257.5410156,799.125 275.2080078,799.125 262.2080078,781.4580078 
					238.0410156,781.4580078 225.0415039,799.125 242.7080078,799.125 250.0244141,787.2910156 "/>
				<polygon points="250.2250977,636.9580078 257.9584961,649.125 273.2915039,649.125 260.2919922,631.7919922 
					239.9584961,631.7919922 226.9584961,649.125 242.2919922,649.125 250.0249023,636.9580078 "/>
				<polygon points="250.2250977,486.625 258.375,499.125 271.375,499.125 258.375,482.125 241.875,482.125 228.875,499.125 
					241.875,499.125 250.0249023,486.625 "/>
				<polygon points="250.2250977,336.1083984 259.4331055,349.1245117 268.9580078,349.1245117 255.9580078,332.4580078 
					244.2915039,332.4580078 231.2915039,349.1245117 240.8164062,349.1245117 250.0244141,336.1083984 "/>
				<polygon points="250.2250977,185.5917969 260.4916992,199.125 266.5415039,199.125 253.5415039,182.7919922 
					246.7084961,182.7919922 233.7084961,199.125 239.7583008,199.125 250.0249023,185.5917969 "/>
				<polygon points="250.2250977,35.0751953 261.5498047,49.125 264.125,49.125 251.125,33.125 249.125,33.125 236.125,49.125 
					238.7001953,49.125 250.0249023,35.0751953 "/>
			</g>
			<g>
				<g>
					<rect x="427.125" y="932.125" width="20" height="16"/> 
					<rect x="453.125" y="932.125" width="20" height="16"/> 
				</g>
				<g>
					<rect x="429.6914062" y="782.7910156" width="16.8671875" height="15"/> 
					<rect x="453.6914062" y="782.7910156" width="16.8662109" height="15"/> 
				</g>
				<g>
					<rect x="432.2587891" y="633.4580078" width="13.7324219" height="14"/> 
					<rect x="454.2587891" y="633.4580078" width="13.7324219" height="14"/> 
				</g>
				<g>
					<rect x="434.8251953" y="484.125" width="10.5996094" height="13"/> 
					<rect x="454.8251953" y="484.125" width="10.5996094" height="13"/> 
				</g>
				<g>
					<rect x="436.2578125" y="334.4580078" width="7.7333984" height="12.6665039"/> 
					<rect x="456.2578125" y="334.4580078" width="7.7333984" height="12.6665039"/> 
				</g>
				<g>
					<rect x="437.6914062" y="184.7919922" width="4.8671875" height="12.3330078"/> 
					<rect x="457.6914062" y="184.7919922" width="4.8671875" height="12.3330078"/> 
				</g>
				<g>
					<rect x="439.125" y="35.125" width="2" height="12"/> 
					<rect x="459.125" y="35.125" width="2" height="12"/> 
				</g>
			</g>
			<g>
				<path d="M559.125,41.125c0-4.9707031-4.0292969-9-9-9s-9,4.0292969-9,9s4.0292969,9,9,9S559.125,46.0957031,559.125,41.125h2
					c0,6.0751953-4.9248047,11-11,11s-11-4.9248047-11-11s4.9248047-11,11-11s11,4.9248047,11,11H559.125z"/>
				<path d="M550.125,182.2915039c-4.6025391,0-8.3339844,3.7304688-8.3339844,8.3334961
					c0,4.6020508,3.7314453,8.3330078,8.3339844,8.3330078s8.3330078-3.730957,8.3330078-8.3330078h3.3339844
					c0,6.4428711-5.2236328,11.6660156-11.6669922,11.6660156s-11.6669922-5.2231445-11.6669922-11.6660156
					c0-6.4438477,5.2236328-11.6669922,11.6669922-11.6669922s11.6669922,5.2231445,11.6669922,11.6669922h-3.3339844
					C558.4580078,186.0219727,554.7275391,182.2915039,550.125,182.2915039z"/>
				<path d="M550.125,332.4584961c-4.234375,0-7.6669922,3.4321289-7.6669922,7.6665039s3.4326172,7.6669922,7.6669922,7.6669922
					s7.6669922-3.4326172,7.6669922-7.6669922h4.6660156c0,6.8115234-5.5214844,12.3334961-12.3330078,12.3334961
					s-12.3330078-5.5219727-12.3330078-12.3334961s5.5214844-12.3334961,12.3330078-12.3334961
					s12.3330078,5.5219727,12.3330078,12.3334961h-4.6660156C557.7919922,335.890625,554.359375,332.4584961,550.125,332.4584961z"
					/>
				<path d="M557.125,489.625c0-3.8662109-3.1337891-7-7-7s-7,3.1337891-7,7s3.1337891,7,7,7S557.125,493.4912109,557.125,489.625h6
					c0,7.1796875-5.8203125,13-13,13s-13-5.8203125-13-13s5.8203125-13,13-13s13,5.8203125,13,13H557.125z"/>
				<path d="M550.125,632.125c-3.8662109,0-7,3.1337891-7,7s3.1337891,7,7,7s7-3.1337891,7-7h6.6660156
					c0,7.5478516-6.1181641,13.6660156-13.6660156,13.6660156s-13.6669922-6.1181641-13.6669922-13.6660156
					s6.1191406-13.6669922,13.6669922-13.6669922s13.6660156,6.1191406,13.6660156,13.6669922H557.125
					C557.125,635.2587891,553.9912109,632.125,550.125,632.125z"/>
				<path d="M550.125,781.625c-3.8662109,0-7,3.1337891-7,7s3.1337891,7,7,7s7-3.1337891,7-7h7.3330078
					c0,7.9160156-6.4169922,14.3330078-14.3330078,14.3330078s-14.3330078-6.4169922-14.3330078-14.3330078
					s6.4169922-14.3330078,14.3330078-14.3330078s14.3330078,6.4169922,14.3330078,14.3330078H557.125
					C557.125,784.7587891,553.9912109,781.625,550.125,781.625z"/>
				<path d="M557.125,938.125c0-3.8662109-3.1337891-7-7-7s-7,3.1337891-7,7s3.1337891,7,7,7S557.125,941.9912109,557.125,938.125h8
					c0,8.2841797-6.7158203,15-15,15s-15-6.7158203-15-15s6.7158203-15,15-15s15,6.7158203,15,15H557.125z"/>
			</g>
		</g>
	</svg>
