<?xml version="1.0" encoding="utf-8"?>
<!-- Generator: Adobe Illustrator 11 Build 225, SVG Export Plug-In . SVG Version: 6.0.0 Build 78)  -->
<!DOCTYPE svg PUBLIC "-//W3C//DTD SVG 1.0//EN"    "http://www.w3.org/TR/2001/REC-SVG-20010904/DTD/svg10.dtd" [
	<!ENTITY ns_flows "http://ns.adobe.com/Flows/1.0/">
	<!ENTITY ns_svg "http://www.w3.org/2000/svg">
	<!ENTITY ns_xlink "http://www.w3.org/1999/xlink">
]>
<svg  xmlns="&ns_svg;" xmlns:xlink="&ns_xlink;" xmlns:a="http://ns.adobe.com/AdobeSVGViewerExtensions/3.0/"
	 width="800.25" height="1050.25" viewBox="0 0 800.25 1050.25" overflow="visible" enable-background="new 0 0 800.25 1050.25"
	 xml:space="preserve">
	<metadata>
		<x:xmpmeta  x:xmptk="XMP toolkit 3.0-29, framework 1.6" xmlns:x="adobe:ns:meta/">
			<rdf:RDF  xmlns:rdf="http://www.w3.org/1999/02/22-rdf-syntax-ns#" xmlns:iX="http://ns.adobe.com/iX/1.0/">
				<rdf:Description  rdf:about="" xmlns:pdf="http://ns.adobe.com/pdf/1.3/"></rdf:Description>
				<rdf:Description  rdf:about="" xmlns:tiff="http://ns.adobe.com/tiff/1.0/"></rdf:Description>
				<rdf:Description  rdf:about="" xmlns:xap="http://ns.adobe.com/xap/1.0/" xmlns:xapGImg="http://ns.adobe.com/xap/1.0/g/img/">
					<xap:CreateDate>2005-10-18T08:31:30Z</xap:CreateDate>
					<xap:ModifyDate>2005-10-18T08:31:30Z</xap:ModifyDate>
					<xap:CreatorTool>Illustrator</xap:CreatorTool>
					<xap:Thumbnails>
						<rdf:Alt>
							<rdf:li  rdf:parseType="Resource">
								<xapGImg:format>JPEG</xapGImg:format>
								<xapGImg:width>172</xapGImg:width>
								<xapGImg:height>256</xapGImg:height>
								<xapGImg:image>/9j/4AAQSkZJRgABAgEASABIAAD/7QAsUGhvdG9zaG9wIDMuMAA4QklNA+0AAAAAABAASAAAAAEA
AQBIAAAAAQAB/+4ADkFkb2JlAGTAAAAAAf/bAIQABgQEBAUEBgUFBgkGBQYJCwgGBggLDAoKCwoK
DBAMDAwMDAwQDA4PEA8ODBMTFBQTExwbGxscHx8fHx8fHx8fHwEHBwcNDA0YEBAYGhURFRofHx8f
Hx8fHx8fHx8fHx8fHx8fHx8fHx8fHx8fHx8fHx8fHx8fHx8fHx8fHx8fHx8f/8AAEQgBAACsAwER
AAIRAQMRAf/EAaIAAAAHAQEBAQEAAAAAAAAAAAQFAwIGAQAHCAkKCwEAAgIDAQEBAQEAAAAAAAAA
AQACAwQFBgcICQoLEAACAQMDAgQCBgcDBAIGAnMBAgMRBAAFIRIxQVEGE2EicYEUMpGhBxWxQiPB
UtHhMxZi8CRygvElQzRTkqKyY3PCNUQnk6OzNhdUZHTD0uIIJoMJChgZhJRFRqS0VtNVKBry4/PE
1OT0ZXWFlaW1xdXl9WZ2hpamtsbW5vY3R1dnd4eXp7fH1+f3OEhYaHiImKi4yNjo+Ck5SVlpeYmZ
qbnJ2en5KjpKWmp6ipqqusra6voRAAICAQIDBQUEBQYECAMDbQEAAhEDBCESMUEFURNhIgZxgZEy
obHwFMHR4SNCFVJicvEzJDRDghaSUyWiY7LCB3PSNeJEgxdUkwgJChgZJjZFGidkdFU38qOzwygp
0+PzhJSktMTU5PRldYWVpbXF1eX1RlZmdoaWprbG1ub2R1dnd4eXp7fH1+f3OEhYaHiImKi4yNjo
+DlJWWl5iZmpucnZ6fkqOkpaanqKmqq6ytrq+v/aAAwDAQACEQMRAD8A9U4q7FXYq7FXYq7FXYq7
FXYqhtT1Kx0vTbvU7+UQWNjDJc3c5BISKFC8jkKCfhVSdhiqJxV2KuxV2KuxV2KuxV2KuxV2KuxV
2KsW/Kx3f8uvLruxZmsYSWJqSePjirKcVdirzfyzp2tRXXlUz21yiwXmvtdGRJAESW4mMBkqNg6k
FK9R0xV6RirsVedfmP5ovob/AEXTItC1SZf0zaFbiBbb0rj0Fa6KRFp1ev7mvxKv2T2xVS0PzfqF
z+Y+tyny3q6RtZ6VYlGW0pAUlu5mkkpcmgZbpfs1NF6Yq9KxV4n5/i0vWNG/MyPX72WTW9L0+/fS
NGeeSGKGzSwLw3MNurIk3qPyLSsGofg2pTFXp2ieStJ0PUGu9KmvLeB42jk01rqaazLFgwlEMzSC
NxxpWMrWp5V2oqn2KvPrfyx5b81ec/Nb+ZbGDWJNLubax020vY1mit7V7C3ufUhjkDKryTzSgyqO
R4ha/DiqWadrmpxeU18r6HdSSalf6pqOkaBfuxleHT7S5dJrss1eS2UdYkLV5OIwftYq9J0jS7LS
dLtNLskKWdlCkECkliEjUKOTHdjtuTuTirEvzIt7CbUfLia/H63lGW5kg1SJ/wDeY3MyBbH62vRo
DJySjVT1GTl2xVBeWtN8s2v5jPD5KtIbLSbGxuIPMSaeixaebxpYTaxCOICE3MapMXKjkqkBvtCi
r0XFWN6Tb3qefPMU8kUi2ctnpi28rKwjZ0N16gRj8JK8l5U8RXFWSYq7FXYqxr8tLS6s/IGgWt3D
Jb3MNlEk0EqlJEYLurKwBB+eKslxV2KuxV2KuxV5r5x8weY285+V7WPyvdyrZajeXVs63NiouFis
Lm15JymBUcbrlR6H6dsVXeR9c8wXXnHzTLN5buoIp9St7ae4e4s3W3EGn254twmZm+KQmkYYb+NQ
FXpGKsG/OfRtE1T8sfNM1/ZW95NYaRqM1nLNGkjwTR2sjB42YEowKjcYqutbW68q+bdH0mz1C4vN
D1tbmJdOvZXupLSW2i9YSw3Epeb0So9NkdmAJTjx3BVZvirHvMnk3ynqkzarq0TwzwQlJ763urix
c26VcpNLbSQGSJak8XJXrtirzvStPubufRLrTuegWnmeU2Oki2VYpbLy9Y28lzFDCGBEU17IgkkI
HII1PtICFWY6XBf+XvPNroiald6hpGr6fdXkUN9K1zLbXFjLbxsUmespjlW7FQ7EKyjjTliqjqum
nzr5k1fQNTmkj8r6OsEN3pcLGJr+e4jE5NxIhEn1dI2VRGpAduXOqjjiqVfpf/lVWlS6NexmTy3F
DO3le/RSWWRVaRNMuAo+KVj8Nu/WX7J+MVdVn3lu31G38vaXb6nK0+pQ2kEd9MxqzzrEolYkdSzg
nFUxxV2KuxV2KoXStP8A0dpttY/WZ7z6tGI/rV2/qzycf2pHoOTHuaYqisVdirsVdirsVS+60S1u
dasNXkeQXOnR3EUEYI9Mi69PmWBBPIeiONCOpxV2k6JaaXJqEkDyO+pXb3twZCD+8dEjovELRQkS
gfrxVMMVYL57/K601zR/MK6Ncz6TrGtWVzBKYbiSKzuJpoDEpuoKSxEGoDusfqce9aYqnmh+S9L0
q/bVGnutS1d4zAdR1Cdp5ViJDNHEvwxRKzKCwjReRpXoMVT7FUs8yeX7PzBpMmk3skqWVw0Zuo4S
q+tEjh2gclW/dyheEgFCVJFcVWeYvLVlrlnBBLLNZ3FnMtzp9/aMqT206KyCSIusifYdkKurKykg
gg4qhdA8oDTdTm1i/wBTuta1maEWwvbwQp6VuG5mKGK3jhjRWajMeJZiBU7CirWteTo77VBrGn6l
eaJq/pLBNd2JhYTxRlmjjnhuI54ZAhduLcQ4qaMMVS+4/LHTtVP/ADtepXvmZFVhFa3xhitY2deP
Nbe0itkLqCeDycmU7qQcVZLo2nNpml2untd3F/8AVYxELu8ZXuJAuwMjosYZqbcqVPU1O+KozFXY
q7FXYq7FXYq7FXYq7FXYq7FXYq7FXYq7FXYq7FXYq7FXYq7FXYq7FXYq7FXYqkPkXzhY+cPK9p5h
sYZbe1u3nRIZ+PqA21xJbtXiWG7REjfpiqfYq7FWIaT+ZelanJpKRWs6HV9U1DR4OfD4ZdNS4eR2
ox+BhaNxpvuK4qy/FXYqkvmnzVZ+XYdNkuopJv0nqVppUCxcaiW9lEaseRHwr9pqb0xV0Pmqzm85
XflVIZDd2dhBqM1xQeiFuJZIkjrWvP8AclunTFU6xV5t+ZP5y6d5bttd03RrS81jzJpWnzXc6Wds
09tYt6LSQyX0paJEj25MA3Lj26YqmHkX807HzHJZ6Ze6bqWj63cWouUg1C0aCKdVVTJJbyqZYnSr
VHx1p2xVnOKsK1/8yLm08xXHl7y95evfMup6fDHcasLSS3gitUmBMSPLcSRqZXUcljXfjviqZaL5
+8uap5Qk81iV7TS7ZJ31AXS+nLatalluIp034vEyEECvtUUxVMPLOtNrmgWGsGzmsBfwrOlpc8RM
iPunMKWAJWhpXbFUr87+frHyr+jrb6ldarrOszNBpOkWKq087xrzkasjIiRxru7s2wxVAaB+ZU91
5kt/LXmLy/e+WtZvYZLjTY7l7e4guUgoZVintZJU5orBmVqbYqzbFUqs/MVrdeZdU0BInW50q2s7
qaU04Mt806oFoa1X6q1ajuMVTXFXYq7FXmv/ADjj/wCSd0X/AIz6l/3U7nFXpWKuxVhGi/ljBpcm
jOuoNL+h9X1LWVBjC+o2ppcoYj8R4iP659rvx6CuKs3xV2KvH/ze8r3955o8nxJ5k1WFNU8wQtHZ
xmyEFqLW0nm9W35WzSeoGjFPUZ13O3Siqh5O8n6lL+bnnB2826zI2jx6PbtKzWBe4VopLow3FLQL
wHqCgjCNRjU7iir2fFXhX5laB548paV+Y99pNhBrnlfzZZXdzfkTLb3unytYtBLKQ44TwhV5cVIc
dKeKrOPyt/Mjyx5g02z0O3eaz17T7G3N1pF/C9tciMRqvqorikkZ7MhI3HjirPcVeaTS+ZPJ3n7z
Nqi+Xr3XtG8zfVLq3m0sQvNBc2lqlq8E8cskJ4usSsrgkCtDirz71VhS70Xzg66Vo/6Ul82efIEb
6wkbX1wG0zRf3QYyySlUllVF+ILt9rFXtHlf8w/LPmS9uNPsJLiDU7WNZ5tOv7aeyufRc0WZYrlI
2aMnbktRX5jFWGfnlf2+mXnljW9KuBL560q6kfQNDRHml1CG4QR3lt6cQZ0Vo1B9UjihUVxVD/l5
qF75+19fzI1uWLT7Py8t5YaZ5ajLPcWUrEJdy6gzLGwnZI6CPjRVodzuVXqWia1put6RZ6xpc31j
Tr+JLi0n4unOOQVVuLhXFR2IriqDsfLiWnmvV/MInLvqtrY2jW/GgjFi1wwYNXfn9a6U2piqc4q7
FXYqwz8nbLRrH8vNNttG+uDTklvTD+ko1iuqtezNJzRdgPULcPFaHFWZ4q7FXYq7FXYq8e87fl89
5+anlDhq2uehdSave3Ekd7KEtStuqqsDdIAxuOAUdV26A4q3+WXkF083+b9Wm1TWh9V1xILcT3kt
LqO1s7ejXAP9+tWKgn9kU7Yq9gxV5J+b3n++sPK3nPQtW8t6lDbXGl30Ol63axG8splls2VTO8NW
tmDsQfUWlBy5UxVL/Kj3/nLzj5C1jT9CvLDSfKWnzi91rUbdrT6011ZC3jt7VXpJKgYmQuV47be6
r2vFUl85+Y/8OeWr7V0tZb64gQLaWMCs8k9xIQkMSqtT8UjAE9hv2xV5hrfkrUfLHlfyxrWoQNrO
oWPmGLzF50e2iMrySzRSxyXEcagu62byp6aqPsJWm2KprYa/pvnf82NB1fyys1xpPl/T79dU1gwS
QQyPfeiILRGlVGkZTE0jACi7b1JGKofVNVg8k/nFrPmXzPa3B0PW9Os7XSddigluYrI2xf6xay+i
sjxCZ2WSvHiaexoqw38xtU/xNf3Wp/k1DqF55j1K0msvMc1vaywadPZmB1DTyXIgQ3cdR6DIS37J
22xV7V+W91os/kbRU0ZZotPtLSG0iguo2huIvq6CIxzRtusi8fi8eoJG+KskxV2KuxV2KuxV2Kux
V2KuxV2KuxV2KuxVD6jp9lqOn3On30K3FleRPb3UD/ZkilUo6N7MpIxVUt7eG2t4reBBHBCixxRj
oqKKKB8gMVVMVdirsVdirsVdirsVdirsVdirsVdirsVdirsVdirsVdirsVdiqncXFvbW8tzcypBb
wI0k00jBEREHJmZmoAoAqScVdb3Fvc28VzbSpPbzoskM0bB0dHHJWVlqCpBqCMVVMVdirsVdirsV
dirsVdirsVdirsVeS/8AOM/mLXde8h6hea1fz6jdR6xdwJPcOZHESLHxQFv2RU0GKvWsVdirwGy8
3+aH0by9K2q3JkuPzIl0udzK1XsRJdAWzb7xfAvw9NsVe/Yq7FXhH57fnh5Z0i80zy5p3mCWx1ux
12w/xBHCl3GYtPoZLgtIkfGROLJVY2LGuw2xVBaT/wA5F+R7z86LmX/E0x8qTaVBY6ZAYbwQyajJ
chmYQ+jVW4njzdR86Yq+hMVfOH5leaPPfnTUvzM0HTdaTy/5b8laVM17YpBHLc6lztZXdWdzyjjP
plSU7EbEnZVln5I+XPzP03RPKV7N5og1byde6RbSy6TdWqxXNoJLRWgjtp46l1QlVPqH7I6VNcVe
x4q8bvrXzF5//NrzX5ebzNqfl7Q/KFvp6W9voswtZri41CA3Bmml4uzKlOPDp0/yuSqA8v8A5ueY
dJ/LDXP0lMNb82aTr135U0OQKofUryNlW2fiKA7SVbxCnvir1byNomraJ5V07TtZ1KbVtXjj5ahq
E7mRpJ3JeTiT0RWPFB/KBirz/wDPfzL5hs9Z8k+WtO1p/Lem+Zr2e31TXIVHqxCJYzFCkjCkbTNI
QG67eFcVSRG8xfl/+cflLyppnmvVfNOn+YI7k6tpeszre3FrHEnKO5WYKjIpPLt0Ujwoq94xVgGm
6vqkn5463pL3UraZBoNlcQ2ZY+ksz3MqtIF6BmVQCcVZ/irsVdirxj/nFGCeH8utSWaNo2Ot3pCu
CpoVi33xV7PirsVU/qtsAAIkor+oo4jZ/wCYf5XviqpirsVfOf5x/m15bn8/eTtONrqXHy5r0txq
I+pyfvGs1aMG32rN8VT8O1N8Vd+XP5teW7v88PON/wDVtTCeYJNG07SlNnIPTKQmKQ3Ip+6HqsCC
x+zvir6MxV5B+fH5ReTda8t+YvOBjmsPMenaTeTG/sZTC06wWzMIblaMsiMq8G25Fdq0xViX5V+b
vzB8mXv5d+XPMF7DrflXzppcLaHKIxFdWDx2scv1c8f7yNBKiVbcjeooVKr6MxVgfm38odM13zGf
MthrOqeW9cmtxZ3t5pE6wm4gX7Kyq6SAsv7LChH0CirwuN00Z7TW/JlqlxpOnasnlT8vpL9jLHd6
xqLML/WLhl4mT+7McbD4fADjTFXrGleYPzJ8qfmN5f8AK3m/V7XzHpvmqG6+pahFaJYSW11ZRes8
bIjOro6bKTuT4U3VSj83J7/8yPNz/k7pMVtbwW1vFqnmDW7qP1Xtk5KYls46r+9PMVavRiPHFWK+
WtQtvyS1PzLYecbcSa7f211eaB55l9SY6ksUfNbSV5GkMcqsi/ADRjT/ACSyr3D8rdY1/Wvy90HW
Nf4fpbUbRLq49NPTWkxLx0Xt+7ZcVZOIohIZQiiQjiXoORA7VxVdirsVdirHvI/l7zBoOkzWeua/
J5ju5LmSeO+mhEDJE4XjDxDy1CUO9e+KshxV2KuxV2KuxVifmDyIdZ8/eVPNjX3op5WW/Edh6XL1
21CAQFjLzHDgFrTia+2Ku8meQv8ADeu+atXa9F5L5mvxfFBD6XoKqcEi5c5PUp/Nt8sVZZiryH8z
PyV1XUrfzNqnlHzDqWnajrdpcfX9CWVJbG/la2MQj4TlVhaUKsZfl8I6UxVr8p/yNfQ30DzJ5r1O
81bzLpemw2tjY3Lp9W0wGARvBAsZdWMYrHz5UPXrvir1/FUk866Fqmv+V9R0XTNT/Q11qERg/SIi
9do43NJOCc4viZKqG5fDWuKsf8y/lFoWq/l9YeTdPnk0iLR2t59Fv4AGktrm1NY56HiHYkty3Fan
cHfFUD5c/LDzQfOdh5u87eZF17UdGt5bfRbe2tFs4ITcrwnmYBn5ySJ8PYfhRV3nX8pNS1LzhF52
8o+YZPLPmgW31O8m9BLu3uoAQVSWF2UbUG+/QbVFcVSbW/yM80edikH5jecpNU0m3YyW2k6ZZxWE
YmKFFleQmZ3K8jQH+JGKs/8AIHlzXvLflu30bWdb/T8ln+6tb9rf6tL6CgBEl/ezCRlG3Pao6iu5
VZHirsVdirsVdirsVdirsVdirsVdirsVdirsVdirsVdirsVdirsVdirsVdirsVdirsVY75N/MPyf
5zivJfLWofX49Pl+r3bejPDwkIrx/fJHXp1FRirIsVdirD3/ADc/L1NNn1JtWpZW2qnQJpfq9z8O
pChMHH0uR6j4wOH+VirMMVdiqR+bvO3ljyhYW9/5ivfqVpd3KWVvJ6Usxe4lVmRAsKSNuI23pTFW
/wDGnlr/ABd/hD65/wA7ELX6+bH05f8Aeblw5+rw9L7X7PKvtiqd4qw38x/zW8oeQ9KubjVb+3Gq
LbS3Gn6Q0vCe5dFYxxqFWRkWR14cytBiqD/Lf86vI3nmysls9StrfXbiFZLjQ2mrPFIV5PGnNYjL
w7si4qz7FWE+evzl/LzyPfQ6f5h1P0b+eMzJaQxS3EgiFf3jrEr8F+E/a8MVT7y75v8ALXmPQI/M
GjahFdaPKrOLsEoqhPt+oHCtGVp8QYCmKu8p+bvL/m3Rk1ry/cteaZK7xxXJimhDtGeLcRMkbMA2
3ICmKqHnPz55S8l6WNT8y6jHp9qzcIuQZ5JH68Y40DO58aDbvirHPJv5+flX5v1dNH0XWQ+pygmC
2nhmtzLQVIjMqqrNQfZrXFXoWKpOnm7y8/myTykt3XzBFZ/pJ7L05drUyCL1PU4+l9tgOPLl7Yqn
GKuxV2KvnX/nDb/jlecv+2qv/EGxV9FYq7FXhE35D+b38p6jo4vNP+s3fnVvNEbmSb0xZEKPTY+j
X1vh+zTj/lYq93xV2KvmX/nJaz/Mq680eV9KfU9OOiatr1qvlyz4OJorlQsSyXLBfiRXnP2a7HFU
t8t6X+dV5/zkJ5h9PV9I/wAT6Tpttb6nfNA/1VrWcQTKkKcOQk4kfER44q+rMVfHX5z6Vc+V/wAy
/O+u+bvLs2taT5i0y4tfLmshBNDaXM1sIrdjy+BGiYcd6Mv2kr3Venf84/W35Ma9ofla+0yLT288
6BZILoxJ9XvBKYTBM8qUjM4o5HMhgDShrir3fFXz1rfmGy/Lj/nIPzJ5n816fctovmHTrWLRtVgg
e4VHhiijkt/h+yZHiO3+rXY1xV5/5cutdPlK58hWkbeXG8/6vd6xcLcARDTPLYCCSaQNxEYlETIl
aBlX/KU4q+mfIPmL8t59Nt/L3k3V7C9g0m3SKOzs7iOV0hjAQOyqeRqerdyfHFXl/wDzlTotxajy
p5/Vba8tPKd6HvNJu3VFuEmliYBA+zEmHiygE0NaGhxVjUGqy/nZ+Z/lrzboel/oXyh5ImS51LXL
z045ZZImjuTA3FiOKekAN6KrMxpUDFX0zYajp+o2kd5p9zFeWctfSubd1ljbixVuLoSpowIPvirD
LfyHq8f53XPntprc6RNoA0hYAz/WfXF0k/Irw4cOKdeda9sVZ3irsVdirxP/AJxi0nynp2neZ18u
+YH1+OXUA9272Ulj6MnE/uwJHk5/6wpir2zFXYq7FXYq7FXyv+cHlP8AMm4/OXyjpjecPVk1TUL6
+8u1tYwNLRGEiDr++4ooX4v5ffFVP8pPJ35lah+b3nS7h85cLzRb+yttevjZof0kiM4aIA0EXFbf
iePiDir6sxV4T+cP566Fpll528j69pt9pl1cabd2uh37xM9te/WLMopVgAV/fOVrQrtUkdMVeP8A
5XQaZ5j/ADK/LiTyNpU9teaDZ25846nGhhgdo1pKWptVkqhY7yFqb9Sq+1sVSvzT5k0vyx5d1DX9
Vk9Ow02Fp5jtU8fsoterOxCqO5OKvlrzz5W8y3n5N63+ZWtwyfprzdf2d3qNvGSWttBV/wDR7dR2
WvpOfbjy3BxVPmu/y11D87Py1P5UxWwkt47l9bfS4vSRbIxKIxc0UDnx9QNz+LcA7lcVU/zfv9Jt
P+cjtGm/MqN5PIUdoDpAmR5LL1uHxNJGgYPSc/GKHbhy+HFWG/mpr/lHRfMN7e/k1rf1mTzTaXNp
5i8uWMEslv6ckL8riKihFKhmai7oakfCSMVfQX/ONl75al/KDQbLQ79b36hEU1BRUPDdzO1xNG6n
cUeU8T0I3GKvT8VdirsVdiqC0zRNF0pZV0uwtrBZ25zLbQxwh2/mbgFqfc4qjcVdirsVdirsVQs+
k6VPfwahPZQS39qCLW7eJGmiDAhhHIRyWtd6HFXWmlaXZT3M9nZwW094/qXcsMaRvM+/xSMoBdtz
ucVRWKpf5g0LTdf0S+0bUo/VsdQgltp1GzcJkMbFTvxajGh7Yqt8t+XdL8uaFZaJpcZjsbCJIIFY
8m4oAoLN+01BucVTLFUNqOmabqVq1pqNpDe2jkF7e4jWWMlTUEo4ZTQ4qrvDE8TQuitEylGjIBUq
RQqQdqUxVL9H8seWtFaVtG0mz0xp95zZ28UBc9fj9NV5fTiqI1HStL1O2NrqVnBfWxIJguY0lSo6
Hi4YYqhdF8q+V9C5foTR7HS+Y4v9StobeorWh9JV774qq6Z5e0DSXmk0vTbWwe4p9Ye1gjhMnGpH
MxqvKnI9cVR+KuxV2KuxV2KuxV2KuxV2KuxV2KuxV2KuxV2KuxV2KuxV2KuxV2KuxV2KuxV2KuxV
4l/zjf8Amx5v8/X3m6HzDJBImjy2iWXoRCKgma5D8qE8v7lcVe24q7FXzNq35+fmFa+SPPOsRTWw
vdA8xLpWnkwKVFsZHWjrX4moo3xV9JWEzz2NtNJ9uWJHamwqygnFVfFXiH/OQv56P5Os7PT/ACpq
1j/iT68kOpWsvGZ4IDEzVkjr8HxMhqcVQR/5yL05vztGip5h01PIMdl6kl+SnBrn0q8BcFqfaYfd
TFXvmKvnj82Pz585yecNU/L38vtGivb2ytpf0rf3BPwKsXOZogJIlQRK1Obtu2wXpVVjv/OM/n/8
2Y7bR9Jm0JtX8o6nezR/4gZ5XmgcAtJ6snKUBV4fCrotenLfFX1Tirwvzt+YX5r67+bt7+XP5dzW
OlyaLZJe6jqN+nqczIkbhRVJQF/0iNQAla1NaYqv8hf85CzS/lZ5h8x+cYIodY8rTvY3UcB4pdTk
AQKg+LizueDUqBTlsNgqz38oNQ886r5HstY86NENW1Ot1FawxeiILaQAwxstSSxX4zXcVp1GKsN/
5yD/ADj8yeSrjQvLvlW2hk1/zC5WK7uhWKJeaxIFBKqXZ36seKgbg12VYXqn5tfnl+WPm/QrD8xZ
tM1rSNbahaxULIiBlSQoVSA84zIpoyEN0B7hV9NYq8vufzB8xx/85CWvkZXi/QMujm/dPTHq+sC4
r6nWnwjbFXqGKuxV2KvmD/nC3/jqfmF/xnsP+J3uKvp/FXYqxWb8rPy9msNQ0+XQrZ7LVbkX2oQE
NxmuQSfVff7VWOKsojjSONY4xxRAFVR0AAoBiq7FXxp/zkZq35N6j+ZGjfo9ka/j1aWDz5c+neKU
S2lhgZWDJR6KkorBX7PeoxVLfJsf5Aal+emsW93FE3ke9hitfLVrwvwr3shto1oAPWWrerUy0Xf5
Yq+3cVfM/wDzkX+T1xo82s/mx5W1qXTL5I1/S1kKgSCbhbOY3U7c1Yc0cENuajpirGfyI/NHzX+X
N55b8j+Z9HRPL/mgwXmj36keqqamV9KXkrNG8ZZl5KeLJvXwxV9fYq8f8/fkl5mvvPz+fPInmb/D
mv3lsLPU/UhE0cyKqoGFeQHwRoKFTuoYEHFXz1qWm6T5Zvr7TZZZPMflnyTeLqPmac0jj1TXpyIY
bSv7zjFFxYNy5GgmP7SjFXtXlr8+vzDtPNXlfSvP3la30nTfOIRdEvLSRiweUqIxIheXvLGGU8Sv
IH2xVJf+csNV8u+Yb3R/IOm6XNq/n95Fl057dgn1VJ6ckdmBD+qqVK7BQA5YU3VeaaLqC6B+YWqX
n51ve33mzy3YGfyzaX0nOyuZrWNngjaRQ9RIygxsPhZq8qtsVX1Z+UHn698++R7XzPd6cNLN3LMk
NushlVkhkMfMMVTqysOnbFU+byp5cbzInmZrCI69HB9VTUaH1RDueFa0p8RxVNsVdirsVefflVpP
5q6fca23nu406eGZ4TpA0+OOMqqmX1fV4RQ12aOla98Veg4q7FXYq7FXYq8U/MP8hovMX5qeWfMF
jpOlRaBaStc+Y4jFEkl5K8pkYyxiJhPyp8XqHepxVZ+Wv5BQaF+Y3mzzBrej6TLpV5dCbyxbRxxy
/VEWd3VkjaJVgYLwpw6dMVe3Yq+bP+cgvye8/GLzT5p8ueYbq603WBA+reVxHI5l9P0oU9JY+auV
EakVQMAPtHFVP8p/+cdvNN9qXlXzn581s3Uek2dlLo2iBZA8EcKLJbQTeosfp+iackVTVq1Piq+l
8VSTzsnmqTyrqUPlQwr5gmhMVhLcsUijdyFMpIV941JZRTcgV2xV5ev/ADjpbf8AKjJfIS3SRa7d
smoXeqHkyPqIYOSx+0Y6D0gaVp8VK4qkuh/lB+cPmHzb5PvvzCu9Ng0nyKyPpy6eWaa5kiaNkZ6i
g5G3j5H4dhstSTiqYfm5+R3nTU/zCs/zH/L/AFW3svMVsiLNb3dQpaNDEHjbjKp5RHgyOtKd96Yq
xfzL+R356/mheWZ8/ajo+l2mnq6wSWkIlnJYD+QKSrEbgygDqFxV6l+Rnlr8yPKflpfLHm1NPmst
OHHSb2xkYuYyxJiljMcfStQ/U999yq9LxV2KuxV2KuxV2KuxV2KuxV2KuxV2KuxV2KuxV2KuxV2K
uxV2KuxV2KuxV2KuxV2KpPo3nLyhrd1LZ6Lrmn6ndwKXnt7O6huJEUEKWdI2ZlHI03xVOMVdiqRH
z75GWG+mPmLTBDpciw6nKb23420kjFESdudImZ0ZQGpUgjFU4tLu1vLWG8s5o7m0uY1mt7iFg8ck
bgMjo6kqyspqCOuKquKpdrfmTy7oNvHc65qlnpVvK/pxTX08VsjPQnirSsgJoCaYqpnzZ5WGrw6K
dZsRrNwokt9N+sw/WZEKlwyQ8vUYFAWqB03xVNcVQeraxpmkWMl9qVzFa20SlmkmdIwaAmgLlRXb
xxVin5W/m95X/MnTru+0KO5thZTehLb3qwpMfhVuapFLN8HxUqT1xVm+KpP5h84+U/LcccnmDWLP
SlmqIfrc8cJenXgHILU70xVH6dqem6nZRX2m3cN9ZTjlDdW0iyxOK0qroWVvoOKobRvMvlzXBOdE
1Wz1QWzBLk2VxFcCNzWiv6TNxO3Q4qiNT1bS9Ks3vtUvILCyi/vLq6kSGJf9Z3KqPvxVJ9C/MXyF
r939S0XzFp2o3m5Ftb3MUkpA3JCBuRA8QMVZFiqXv5h0CPWY9DfU7Rdalj9WLS2njF00YBPNYC3q
FaKd6dsVTDFXYq7FXx//AM4d/wDk0/NP/MBL/wBRkeKvsDFXYq+Sbn8nPzLfy1+bVouhym48w6tY
3OjR+pDW4ihvrmWR1+Og4pIp+KnXFX0r+XWm32l/l95Y0y/iMF9Y6TY213ASCUlhtkSRCVJHwspG
xxVkOKvjb/nLrzH59vfMVv5d1TS4rby5DdNJ5evUR1lu2EMay8mMjI3BpqbIuKsZtvNf5wT/AJ7R
63B5cgk896ZB6Q0MRzGGONbP0N4zPz/uZeX971P0Yq+67V5ntonmXhMyKZUHQMR8Q798VfD358ag
dV/Py+07z1fXdl5csnEVr6C8zDbG3DxNCh5D97JQuwBO52NOOKph/wA4uflZpnmbUrbzSuuGz1Xy
7qkcsmlIVLT20apIp+FlkVWkqpJBVgCMVfauKvkP80/8ID/nKC9P5oer/hH6hEdP5+sY+H1NePH0
P3nD6z6v2f2+u2KsQ/Ln8xde8ufldr3lzQTPLqXmvVI9P8tQA/GnqJwupU8HKvDGN/tGo+ycVfWf
5O+RNI8ieSbPy5aSxT38Y9fV5o2DGS7kA9VjTfitOC1H2QO+KvFf+c19M8xyx+XNRVJpfLFsZUvB
EfgjuZGXi0goQC6VVGNabjvuq8h842PkPV/OPlu0/JKy1Aai8cTyqzSl1vOSshUysxVoqEyOD6Y6
g0BOKvv23EwgjE5DTBVErL0LU+Ijp3xV49qnknzTN/zk7pHm6OwdvLtvpL202ock4LKY5wE48ufW
Rf2cVeyYq7FXYq+af+cZvJelaH+YPmC8s/NOl65LPaSI9nYNMZYgblG5P6kca0BHHY9cVfS2KuxV
2KuxV2Kvib/nIA/m5f8A5taTpGsNDJI2pS/4IgU24/cXN4I7Yycehb04wTLvtviqG/Ln/ldWofnr
rF7p7QTebrSRovMshNrwWBJ44LhU5fu6jgF+DfbFX3Fir5P/AOcpPzO8i6suv+TLjSCPNOiy2q6Z
rJjR+SN6cs8Yk2kjoJGHHdWpWvTFXjXkwQw/mR5L/wACz3j6nI1h9d5DiVvWb/S44+NOUHD7XLty
rVd8VforirH/ADnoHkbUNLlvvN2m2N7YaZHJcPPfwxyiGNF5yMGcEqKLvTrir5B1mz1TzD5V83/m
7ZWn6H0iwMWj+TbK2jWFLa0e4WKaSJY+KpRJWUlducj03XFUq0+Dy35V1P8AK3WvIetyXXmfVWT/
ABFaxzCQxzPNCvoPEgDKJDJIhRvtBQe9Sqzj/nKLzfq99+amneSdb1CfR/Iw+pyXbwgkSxzPWa5Z
QP3npbqq7gFa0rirzzz2dH/LjXr1Py082RatoXmLT5rO7hjkEs0UUq8XjmdFVK1PKNlow3BFPtKv
pL/nERrE/lOPS1Fb6/mvp7jUYeZeS3duMUcbhviHKOFWHY12xV7ZirsVdirsVYr5U/K3yD5S1K51
Py7pEen314hiuZ0eVy6M4cikjuPtKDsMVZVirsVdirsVdirHta/L7ydrfmHTvMeqaZHda1pPA6de
M0gaIxuZEoqsENHNdxirtC/L3yboOu6lr+kaZHa6xrDO+pXitIzStLIZXJDsyjk55fCBirIcVYJ+
bP5Q+XvzF0J7G7WGz1Osf1fWhbxzXMSI4dkRiUbi4FCOWKon8uvyp8oeRtKtLfTLC2OqQwLBdayI
ES5uCAAzM/xMORFSvKmKsyxVLvMXl3RvMej3Gjazb/W9MugouLYu6BwrBwCY2RqclHfFVOy8q+XL
Hy4nlq20+FNBSE2w04ryhMLV5IytXlyqeVevfFWM+WPyL/KjyxrS63onl6K21OMsYrhpbif0y1am
NJpJEQ79VAxVOfOH5d+SfOVvHB5m0iDUlhqIZJAyyxg9Qk0ZSRQe4DYqx7Q/+ce/ya0S6+tWPle2
aahWt0894oBFDRLqSZR160xVNvKn5T/l95S1KXUvLekLpl5MhjmeGWfi6E14tG0jIRXcfDt2xVlu
KuxV2KuxV2KuxV2KuxV2KuxV2KuxV2KuxV2KuxV2KuxV2KuxV2KuxV2KuxV2KuxV4F+UP/OSWt+e
vzEbyrd6NbWduI7mT6zFJIz1g6Cjbb4q99xV2KvnaT/nKDXkt/zAl/QlqT5OkjS2HqSfvw+orZfv
PD4X5bd8Vev/AJW+cbnzn5B0jzNc26Wk+pRu728RLIpSV49i2/7FcVZViryL8+fz1b8trbTRplva
6pf3k0kdzaySkNCsaKwLBCWBPMUriqRRf85KXb/mnpHk36np/wCj72G0e+1T6yeMTz2i3MoBNE+A
txFTX6cVe9AhgCDUHcEdCMVeL/m9/wA5PeWvy/1l9AtdOk1vW4AjXcKyi3gh9RQyq0pWUl+LBuIT
6cVeV/kx/wA5ReY5fOkmnebmu9XttduYbXSYYFgrayzTFFWnGIup9RVJ5V26HFX15irw382v+cid
Y8ted18jeT/L51/zAkaSXKn1Hozxev6UcMI5uRDRy3LYYqmf5Yf85F6B5t8j655k1e3/AEPL5aRZ
NWhD+ohSRWMTRMQpJlaNlVOvLbeoxVNvyP8AzJ80fmHoN35g1XSIdJ0tpjDpQjd5JJglfVdiwUcV
NFBHUhulMVQX55fn3pv5YxWdpHYnVNc1BGlgtS/pRRxKePqSvRm3bZVA3odxiry+w/5zE806Zqlt
H5z8nmx067pLHJD60Ewt2PwyxpcDjMPkVBxV9P2F7a39jb31pIJbW7iSe3lHRo5FDIwr4qcVeZ+Y
Pzh1LS/zx0T8uY9PhkstVt1nkv2dxKhZJmoFHw/7pH34q9TxV2KuxV8Qf84sf+T5f/jBf4q+38Vd
iryR/wDnGXyG0XmqI3+qcfN7q+pH1besZS7W9Hof6P8AD+8Wnxcvh998VZ/5J8oab5O8rWHlrTJZ
prHTkZIJLlkaUh5GkPMosandz0UYqnmKvhH/AJyhsvKJ/Mu5v9E1pdQ1C/nlj1u1pRbKe29O3EZN
PFGr8sVYxpfk38vrz805fLkvmUw+Ug8iQeYCq1k4xVSi9Pjl+HFX6I2sAt7aKAHkIkVAx6kKKVxV
8Z/85Lfl75o8l/mEfzKsZYpNM1DUIZbSZwkjwXyx+oI5IZAVdT6DMpoRTY+6rGPyN/Mfy35b8+TX
XnHRkvV1i6t7iLUCi+pYXHqNIlzGjDlxPrVPFgePTl0xV974q+dfzX/Jv80Y/wA3E/Mz8upbefUZ
kUSwTtGjQyLa/UyQJv3bo8I8ag9sVfPWreXtW8qTXvkbVL9Y3uJLfUPOL2pEwgitgzQwepVVkkHr
livLi0jRrXkMVe9+Qf8AnK3yJZHR/LX+G7rQfLahbLT9QeRZUREPBXkUIvf+8ZWYg+OKpb/zmrZ+
TZE0e8k1H0vN8KGOHTUXn6tkzkl5CP7rg/LgT9rcUNKqq8L1Hzhq/n3UbFPPmum3stAsTFB+5rO6
QgVhiVQqtcTUHxSso23PQFV9sfkf+YXlvzn5NVvLmn3WnaVobR6TBDd8C3G3gj4gFGcGiMoxVF6r
+UXlvU/zL038w57m8XWtLiEFvbxvELVlVZFq6GJpCf3x6SDtirN8VdirsVeBflDpX5m2/wCYjTa/
+X+h+X9J9O5A1fT7G0t7nkfsL6sUjvR/2tt8Ve+4q7FXYq7FXYq+UPzh/wCccdV1L827K78t6Nc3
GgaxOl55jv8A6xFRJ7u9ka64CQqyhIiGFAeuKoT8vf8AnF+8m/NPWE8yaNd2Xku1e6k0Sczx85PT
ulForGN3aphJY1HbFX11ir40/wCcs/JHnvTdbvvNN5qKz+UtavrZLexjlkAiuYrRo4vUt2+DkIop
KOpPU9K4qhfy/wD+cd/zO893/l/XPNsiW3lhLSy+qzyyxSyyaZFEpt4YIYS/ENHQfvOJFSSCdiq+
1cVSfzjqWuab5Y1G80HT21XWo4T+j7BSq+pO3wpyLsg4KTybfoDTfFXz35Z/5xx8zXn5SebH134P
zD81OLhjcOrFBb3K3KxO6ErW4kQs5rTdf5cVefwfk5+eHm208qeSNX8vDSNH8tPdxrqsnBQsV5OJ
Z3dldllKlaJ6Y3792xVnH/OSX5E+f9c88jzp5Vtl1WKSGAXFmGjE0UtuOIKxykLIjKqmgqa12pir
B/NX5X/n9+aHmKK/1fylbaXfpCIp78KlmkqoPgM3KRy7CnEFVrTboBRV7B/zjRYfmZ5P05/KHmfy
jJY6Y0slxbaxE8DUlfd1uVWVmYHiAjqNtgRTcKvfMVdirsVdirsVdirsVdirsVdirsVdirsVU57e
3nQJPEkqA1CuoYV6VocVXoiIioihUUAKoFAANgABireKuxV2KuxV2KuxV2KuxV2KuxV2Kv8A/9k=
									</xapGImg:image>
							</rdf:li>
						</rdf:Alt>
					</xap:Thumbnails>
				</rdf:Description>
				<rdf:Description  rdf:about="" xmlns:dc="http://purl.org/dc/elements/1.1/">
					<dc:format>image/svg+xml</dc:format>
				</rdf:Description>
			</rdf:RDF>
		</x:xmpmeta>
<?xpacket begin='﻿' id='W5M0MpCehiHzreSzNTczkc9d'?><x:xmpmeta xmlns:x='adobe:ns:meta/' x:xmptk='XMP toolkit 3.0-29, framework 1.6'>
<rdf:RDF xmlns:rdf='http://www.w3.org/1999/02/22-rdf-syntax-ns#' xmlns:iX='http://ns.adobe.com/iX/1.0/'>

 <rdf:Description rdf:about='uuid:0f7fd2da-2276-11de-a454-001124740a56'
  xmlns:pdf='http://ns.adobe.com/pdf/1.3/'>
  <pdf:Producer>Adobe PDF library 6.66</pdf:Producer>
 </rdf:Description>

 <rdf:Description rdf:about='uuid:0f7fd2da-2276-11de-a454-001124740a56'
  xmlns:tiff='http://ns.adobe.com/tiff/1.0/'>
 </rdf:Description>

 <rdf:Description rdf:about='uuid:0f7fd2da-2276-11de-a454-001124740a56'
  xmlns:xap='http://ns.adobe.com/xap/1.0/'
  xmlns:xapGImg='http://ns.adobe.com/xap/1.0/g/img/'>
  <xap:CreateDate>2006-01-25T10:39:25+09:00</xap:CreateDate>
  <xap:ModifyDate>2009-04-06T06:44:11Z</xap:ModifyDate>
  <xap:CreatorTool>Illustrator</xap:CreatorTool>
  <xap:MetadataDate>2009-04-06T14:06:43+09:00</xap:MetadataDate>
  <xap:Thumbnails>
   <rdf:Alt>
    <rdf:li rdf:parseType='Resource'>
     <xapGImg:format>JPEG</xapGImg:format>
     <xapGImg:width>196</xapGImg:width>
     <xapGImg:height>256</xapGImg:height>
     <xapGImg:image>/9j/4AAQSkZJRgABAgEASABIAAD/7QAsUGhvdG9zaG9wIDMuMAA4QklNA+0AAAAAABAASAAAAAEA&#xA;AQBIAAAAAQAB/+4ADkFkb2JlAGTAAAAAAf/bAIQABgQEBAUEBgUFBgkGBQYJCwgGBggLDAoKCwoK&#xA;DBAMDAwMDAwQDA4PEA8ODBMTFBQTExwbGxscHx8fHx8fHx8fHwEHBwcNDA0YEBAYGhURFRofHx8f&#xA;Hx8fHx8fHx8fHx8fHx8fHx8fHx8fHx8fHx8fHx8fHx8fHx8fHx8fHx8fHx8f/8AAEQgBAADEAwER&#xA;AAIRAQMRAf/EAaIAAAAHAQEBAQEAAAAAAAAAAAQFAwIGAQAHCAkKCwEAAgIDAQEBAQEAAAAAAAAA&#xA;AQACAwQFBgcICQoLEAACAQMDAgQCBgcDBAIGAnMBAgMRBAAFIRIxQVEGE2EicYEUMpGhBxWxQiPB&#xA;UtHhMxZi8CRygvElQzRTkqKyY3PCNUQnk6OzNhdUZHTD0uIIJoMJChgZhJRFRqS0VtNVKBry4/PE&#xA;1OT0ZXWFlaW1xdXl9WZ2hpamtsbW5vY3R1dnd4eXp7fH1+f3OEhYaHiImKi4yNjo+Ck5SVlpeYmZ&#xA;qbnJ2en5KjpKWmp6ipqqusra6voRAAICAQIDBQUEBQYECAMDbQEAAhEDBCESMUEFURNhIgZxgZEy&#xA;obHwFMHR4SNCFVJicvEzJDRDghaSUyWiY7LCB3PSNeJEgxdUkwgJChgZJjZFGidkdFU38qOzwygp&#xA;0+PzhJSktMTU5PRldYWVpbXF1eX1RlZmdoaWprbG1ub2R1dnd4eXp7fH1+f3OEhYaHiImKi4yNjo&#xA;+DlJWWl5iZmpucnZ6fkqOkpaanqKmqq6ytrq+v/aAAwDAQACEQMRAD8A9KaVpWlnS7MmzgJMEdT6&#xA;afyD2xVFfonSv+WKD/kUn9MVd+idK/5YoP8AkUn9MVS3y1pWlny5pRNnASbO3JJjT/fS+2Kpl+id&#xA;K/5YoP8AkUn9MVd+idK/5YoP+RSf0xVLfLOlaWfLmlE2cBJs7ckmNP8AfS+2Kpl+idK/5YoP+RSf&#xA;0xV36J0r/lig/wCRSf0xVLfL+laWbCUmzgP+mXw3jTteSjwxVMv0TpX/ACxQf8ik/pirv0TpX/LF&#xA;B/yKT+mKpb5f0rSzYSk2cBP1y+G8adryUeGKpl+idK/5YoP+RSf0xV36J0r/AJYoP+RSf0xVLfL+&#xA;laWbCUmzgP8Apl8N407Xko8MVTL9E6V/yxQf8ik/pirv0TpX/LFB/wAik/piqW6VpWlm/wBZBs4C&#xA;BeIB+7Tb/Q7c+GKpl+idK/5YoP8AkUn9MVd+idK/5YoP+RSf0xVLdK0rSzf6yDZwEC8QD92m3+h2&#xA;58MVTL9E6V/yxQf8ik/pirv0TpX/ACxQf8ik/piqWfo7T/8AEvo/VovS+p8/T4Lx5erTlSlK0xVH&#xA;2FxBb6Hb3FxIsUENqkksrkKqosYLMxOwAA3xVikWvXV55hj8xx6Pqc+jQWUltYSx28cZYXMkcs0r&#xA;wzSx3RB+rxemFh6VO9RRVm1vOlxbxToHVJUV1WRGjcBhUBkcKynxDCoxVL/LTKvlnSmYhVWytyzH&#xA;YACJdzirGLrzDcX+taT5i0bStRvdNtYbm3muBBGiTWt56UnqQJNLDcMRJbRlSsTKyk+IbFWa2d1H&#xA;d2sVzGsiJModUmjeGQA9njkCup9iMVQXlj/lGtJ/5g7f/k0uKsCumfXrnUdcsbTULuZ3g/QWtWME&#xA;Kw2yWPq+hLGtzNbS3Qla5m9QxjhJG3AHj8TKvR9OvBeWMNyFkT1VBKTRPA4PQ8opKOu/j+OKoXy9&#xA;/vBL/wAxl9/1GS4qwW/DaneazNpNpqF9a3N3Ff6fq9pBEhs9RtYVs3kia5mtvrMJSBQRGDyBkWrK&#xA;2yr0HSL/AOv6dDdenLEzgh0nhktpA6Eo9YpfiUclNNyCNwSCDiqh5e/3gl/5jL7/AKjJcVYbqt5q&#xA;Gr61qs+krf3EMcY0qO706GJRFGsga+KTXU1qHm5r6atDzEZXozVUKsz8vPYHSLeKws5dPtLdfQis&#xA;54XgaMRfCF4ONxtswqD2JxVry9/vBL/zGX3/AFGS4qxHVr7U5dd1lvLS3t0Lq3Sxvrm1t4j9VubW&#xA;Rgz28t1NawyuI5HRgC/CQLUGjJirKvKx05dGhttPsrjT7az/ANHW1uopIpFKgEkl6+pyrUyBmDGv&#xA;xE1xVU0n/e/Wv+YxP+oO3xVM8VdiqWaT/vfrX/MYn/UHb4qmeKuxVKf+mq/6Mf8AmdiqG1SfTrfy&#xA;Fdz6nE1xpsOlSSXsC7NJAtuTIg3XdkqOoxVAeWtJ/Ma1jhGqa1ZT24dSbaW0e4ulhB3ja9Sa0SR+&#xA;O3qfVhvuQ2KsuxVILK4sbbyFBcX6epYw6Ukl2lOXKJbcGQU71UHFUo8oaR+YFrY231jVrNNO4xm3&#xA;024tnvLqC3AFIWvop7RJGCbcjAady/Uqs2xVKfL0yQ+VdNmkNI47GB3PXZYVJxVi3knS/PEej2kl&#xA;nqlna6DJDE2k6XeWr31zb2hUGKNrqGezViI6ChR+PT1H+0VWf4qlnl7/AHgl/wCYy+/6jJcVYh5L&#xA;sPOcmlw3uj6nZ2Hlq7jE2i6Ve2r38sNrL8cP7+Key4qYyCImDlPs8zTFXoWKpZ5e/wB4Jf8AmMvv&#xA;+oyXFWJeVrHzjMJ7/RNTtbDy3dzTS6dp1/bNfyqJJWZpFkimsjEjvyZYmMhUN9pfsKqz6MSCNRIw&#xA;aQAc2UFVLU3IUlqD2qcVS7y9/vBL/wAxl9/1GS4qxPy/Y+bZ77Ub3y/qNrpnl6W+vBFp99bNfs84&#xA;uHW5njMU1m0CyXIkfgzyda/BXiFWeQiYQxidleYKBK6KUVmp8RVSzlQT0HI/PFUv0n/e/Wv+YxP+&#xA;oO3xVM8VdiqWaT/vfrX/ADGJ/wBQdviqZ4q7FUp/6ar/AKMf+Z2Kq9jbwXOhW9tcRrNbzWqRzQuA&#xA;yOjxgMrKdiCDQjFUqj8myQRC2tdf1a3sF2WzE0MtF/lFxPDLdU/57Yqn9tAlvbxW6M7JCixq0rtK&#xA;5CigLyOWd223ZiSe+Kpf5cjjl8r6XHIoeN7GBXRgCrKYVBBB6g4ql8PkkWkQtdO1zVLDTUAWOwjl&#xA;hkjRAKBI5LiGa4RR2CyinQUGKp/Z2qWlrFbI8kiRKFDzSPLIad2dyzMfmcVQXlj/AJRrSf8AmDt/&#xA;+TS4ql0PkpbOMW+k6zqOl6ePsafA8EkKL/vuL6zDcSRIOipG6qo2UAAYqnlhZR2VnFapJLKsQp6s&#xA;8jzSsSaktJIWY7n+A2xVCeXv94Jf+Yy+/wCoyXFUuj8lRWvKPSNX1DSLN2ZjY2zwSQKXPJhGLqG4&#xA;aFak0WJlA7AYqnWnWCWFolsk004SpMtzK80rFiSSXck99h0HQbYqhvL3+8Ev/MZff9RkuKoFvJyQ&#xA;yzvpWrX+kRXMjzTW1q8EkPqSEs7JHdRXIi5sSxEXEciT1JOKptpmnJp9qLdZ57k1LNNcytNIzN1N&#xA;W6D/ACVAUdhiqH8vf7wS/wDMZff9RkuKoGTydFHdXFxpOqX2jG7kaa5hs3heF5ZGLSSCK6iuY42d&#xA;jyYxheR3O5JKqaaVpi6dbtCLm4umdzI811K0zliANq/Ci7fZQBfbc4qo6T/vfrX/ADGJ/wBQdviq&#xA;Z4q7FUs0n/e/Wv8AmMT/AKg7fFUzxV2KpT/01X/Rj/zOxVQ0qfzH+i7OljZkehHQm8lH7A/5dsVR&#xA;X1jzL/ywWf8A0mS/9kuKu+seZf8Algs/+kyX/slxVLfLU/mP/DmlcbGzK/U7fiTdygkekvUfVjiq&#xA;ZfWPMv8AywWf/SZL/wBkuKu+seZf+WCz/wCkyX/slxVLfLU/mP8Aw5pXGxsyv1O34k3coNPSXt9W&#xA;OKpl9Y8y/wDLBZ/9Jkv/AGS4q76x5l/5YLP/AKTJf+yXFUt0CfzH9Rl42NmR9cvet3KN/rktf+PY&#xA;98VTL6x5l/5YLP8A6TJf+yXFXfWPMv8AywWf/SZL/wBkuKpboE/mP6jLxsbMj65e9buUb/XJa/8A&#xA;Hse+Kpl9Y8y/8sFn/wBJkv8A2S4q76x5l/5YLP8A6TJf+yXFUt0CfzH9Rl42NmR9cvet3KN/rktf&#xA;+PY98VTL6x5l/wCWCz/6TJf+yXFXfWPMv/LBZ/8ASZL/ANkuKpbpU/mP69rFLGzJ+uJyrdyih+p2&#xA;/T/RvDFUy+seZf8Algs/+kyX/slxV31jzL/ywWf/AEmS/wDZLiqW6VP5j+vaxSxsyfricq3coofq&#xA;dv0/0bwxVMvrHmX/AJYLP/pMl/7JcVd9Y8y/8sFn/wBJkv8A2S4ql3ra5/iHl9UtfrP1Snp/WZOH&#xA;D1ftc/Qryr24/Tiqc6T/AMcqy/4wRf8AEBiqW3Hmy1h86WXlQQtJd3djPqLzKwKxRwyRxLzX7Q9R&#xA;pDxPT4Tiqe4qlnlj/lGtJ/5g7f8A5NLiqEufNtpb+drLyrLCyT6hYT39tdMQI3NtLHG8Cg7s/GXn&#xA;t+yDiqfYqlnlj/lGtJ/5g7f/AJNLirFtZ/Ne00y911P0ZPdaf5aubODWr+BlcQxXcXqPP6YBZltw&#xA;R6qj4gDWlMVZzDNFNEk0LrJFIoeORCGVlYVDKRsQRiqX+Xv94Jf+Yy+/6jJcVYxffmraWdpr94+m&#xA;XElv5Z1RdO1oRsrSw2zRRSm/9IfG0KrNUgb8QzCtMVZtb3EFxBHcW8iywTKskUqEMrIwqrKRsQQd&#xA;sVQHl7/eCX/mMvv+oyXFUk1r8zNB0bW9Z0/UOUdvoWlw6rf3qkMq/WJZIo7fiN/Wf0gVX9rkKYqn&#xA;2gaje6lo1nf3thJpdzdRiWTT5mDSw8t1SQrtz405DsdsVWeXv94Jf+Yy+/6jJcVSiX8xNDtNV8z2&#xA;WpH6hD5Wt7a7vLuZhxeC5iaTmi/aopQp7tsN8VTXyxrF3rOhWmq3WnTaU94nqpY3JBnSNjVPVC7I&#xA;7LQlf2eh3xVdpP8AvfrX/MYn/UHb4qmeKuxVLNJ/3v1r/mMT/qDt8VTPFXYqlP8A01X/AEY/8zsV&#xA;U7m8v7HybLe6dam+1C105prOyFQZpo4OUcQp/OwC4q8y8mxpriHXoPzJjt/NerpAuoW1na6RF6cq&#xA;jitpLb3EEt4fSY8Ary8uvSuKvYLGK7isreK8nF1dpGi3FyqCISSBQHcRgtwDNvxqaeOKpZo81xD5&#xA;NsZraH6xcR6dE8MFaeo6wAqle3I7Yq8t8vO/nLTdN1TW/wAw47TzNA63K6RFa6VF+jLxhxeD0L2C&#xA;a8Dx8/Tq0gLfJsVew6Vb39vp1vBqF2L69jQLPeLGIBKw/a9NSwWvgDiqF8uM6+V9LZF5uLGAqlaV&#xA;PorQVPSuKvJPIlyNZ0ed7rzzD5Y1i9mmn1PypZ22lW4tLmZz6sdzDfQT3MrnlRndhy6jamKvX/L2&#xA;mXOl6LaadcXEd1Lap6frQwJaxlVJ4BYI6onFaCi7fLFVvl7/AHgl/wCYy+/6jJcVeSeWrqTzBe6l&#xA;rGt+dYvK3mmdpLS90G3ttLgnt4IJXWCK5/SEE9xcLwbkG2Q8vh2xV6z5X0q70rQrXT7q8jv3t1KR&#xA;3MVvHaIYuR9JRDD+7XilF+GgNK0HTFV3l7/eCX/mMvv+oyXFXkWivba7qeuNrXmq28pau2pzSS+W&#xA;4bXS450e1kMdpdzvqMFzLcs0USSLIlFp9mlMVeu+XrPVbTTVi1LVf0zOWLJfmGOAtG26Blh/dkgf&#xA;tKBXwxV3l7/eCX/mMvv+oyXFXk0v1fzR5x1o+aPM1t5Z1LTLqfT9L0gWumrctYQzLLb3DS6nBcvP&#xA;HM0SzD0wEHzrir1TyvZ6ta6Zx1LWv0+0j+rbagYYYGMDKvAN9XpE5rU81VQQem2Kquk/7361/wAx&#xA;if8AUHb4qmeKuxVLNJ/3v1r/AJjE/wCoO3xVM8VdiqU/9NV/0Y/8zsVQWt22u3X5fXttoEvoa5Np&#xA;bx6ZNXjxuWtyIiGP2TzpQ9uuKvPvKmp/lbo2m2K3Pk3ULTzLbrHJPHPoN7eX7XaAEyfXUt5llcuK&#xA;rJ6vvtir1vTrz67YW956E1t9YjWX6vcJ6c0fMV4SJvxZehGKpPaxalL5Ahi0uQRanJpKrYytSizm&#xA;2AiY1B6PTFXmnlC7/LbRtGsrfzB5QvovNsKR/pN7rQ7zUrue9UASTC9iguUm5yAlGEtPCnTFXsGk&#xA;6iNS023vhbXFoLheYtruMwzpvSkkZ3U+2KoLRVun8n2C2jrHdNp8Qt5HFVWQwDgzDuA2KvJ/JUnk&#xA;HRdEtbXzl5Tvj5zRVGr3d5o15q093drs80V7FBdLIjvUx0kotabYq9j0XVV1XTIdQW1ubJZ+RFte&#xA;xNBcKFYr8cTfEvLjyFd6HFVLy9/vBL/zGX3/AFGS4q8f8of4M0bSzb/mJ5Xu7jzrzkOr6ldaNc6t&#xA;9dlLswlgu4ILpDEQRwTkvH7PEUxV7D5f1eLVtMjvYbO6sImLLHbX0D2swVTQEwvRlBG4qAfbFWvL&#xA;3+8Ev/MZff8AUZLiryLy0vlHRvr0f5keWrq782vd3LXWtXOkXWrxXcTTu0LWs8MF0scKwlAIvh4d&#xA;OPfFXrflvWbfVtMW5trC7063RjDFb31s9nJxQABlhkCuqEfZqB8sVXeXv94Jf+Yy+/6jJcVeT6Wn&#xA;lbSdY1tvzH8uXV9r9xqF1Jb6zPpVxrEE9i8pNoltLbw3SwpHDwUxUWhG4xV6j5T1qw1XSw+n6dd6&#xA;ZY2zC3tre8tJLEmNEXi0UMioyx0PFaqOnSlMVV9J/wB79a/5jE/6g7fFUzxV2KpZpP8AvfrX/MYn&#xA;/UHb4qmeKuxVKf8Apqv+jH/mdiqL0n/jlWX/ABgi/wCIDFUXirsVSzyx/wAo1pP/ADB2/wDyaXFU&#xA;zxV2KpZ5Y/5RrSf+YO3/AOTS4qmeKuxVLPL3+8Ev/MZff9RkuKpnirsVSzy9/vBL/wAxl9/1GS4q&#xA;meKuxVLPL3+8Ev8AzGX3/UZLiqZ4q7FUs0n/AHv1r/mMT/qDt8VTPFXYqlmk/wC9+tf8xif9Qdvi&#xA;qZ4q7FUp/wCmq/6Mf+Z2KqGleX7A6XZky3m8EZ2vrwfsDwlxVFf4esP9+3n/AEnXn/VXFXf4esP9&#xA;+3n/AEnXn/VXFUt8taBYt5c0pjLeVNnbk0vbwDeJewlpiqZf4esP9+3n/Sdef9VcVd/h6w/37ef9&#xA;J15/1VxVLfLWgWLeXNKYy3lTZ25NL28A3iXsJcVTL/D1h/v28/6Trz/qrirv8PWH+/bz/pOvP+qu&#xA;KpboGgWLWMpMt5/vZeja9vB0vJR2lxVMv8PWH+/bz/pOvP8Aqrirv8PWH+/bz/pOvP8AqriqW6Bo&#xA;Fi1jKTLef72Xo2vbwdLyUdpcVTL/AA9Yf79vP+k68/6q4q7/AA9Yf79vP+k68/6q4qlugaBYtYyk&#xA;y3n+9l6Nr28HS8lHaXFUy/w9Yf79vP8ApOvP+quKu/w9Yf79vP8ApOvP+quKpbpWgWJvtZHq3nw3&#xA;iAUvbwf8edud/wB7viqZf4esP9+3n/Sdef8AVXFXf4esP9+3n/Sdef8AVXFUt0rQLE32sD1bz4bx&#xA;AKXt4P8AjztzvSXfriqZf4esP9+3n/Sdef8AVXFXf4esP9+3n/Sdef8AVXFUu/Qtn/iL6v6l16f1&#xA;T1K/W7nnX1af3nqc+P8Ak1piqcaWyrpFozEKq28ZZjsAAg3OKvGbn81/LT/nUb2486Wdh5U0rT/q&#xA;S2Yv/UgvbyVizSmKJjEnog8eUm9Rtt0Ve2Wd5Z3tpDeWU8d1aXCCSC4hdZI5EYVVkdSVYEdCMVQX&#xA;lj/lGtJ/5g7f/k0uKvIvOH5qeXdP/NrQNTs/OdncaFDDLpuvaLHf8IondmKXhQMYJWjJ4uPtqBtX&#xA;sq9n0/UdP1Kyhv8ATrmK8srhecF1bussTqf2kdCVYfLFUL5Y/wCUa0n/AJg7f/k0uKvANU812923&#xA;nFda/MVPLHmC61GOfy1p9vqkk8dgLNDGkdwbd3g4XB/voRUL1NTir3fyVrU2teVNM1O4ns7m5uIF&#xA;NxPpswuLR5VqkhhlAFV5qdu3Q7jFUR5e/wB4Jf8AmMvv+oyXFXgWueYobG/89eWda/Mb9GXk2pvq&#xA;3lbWINUkc2jMSf0bcW8bs8cUR+ExlSpFTQEDFXuPkTXpde8p6bqU9zZXd3LEBdz6ZMLi0aZPhcxS&#xA;DsSK8TuvQ9MVRnl7/eCX/mMvv+oyXFXiHmz8xdW0nzX53lk816bo97PFDpfl3R7zUDMlv6ZpNqEk&#xA;UHrpDIQSUjK8jtyp3VesfliNHXybYxaV5ik81RRApPrct015JNP1k5OzyFaE7JX4RQYqm/l7/eCX&#xA;/mMvv+oyXFXi3mzz/qvknz352tz5o0+b9N2lrJ5fh1DUT6elXUSGOSOS0/evGHEnrfAlGooPWoVe&#xA;k/lJ+iR5LtU0/wAzv5ukUk3+syXbXbPcsAzr8bOYVXbjFtQdqkkqsg0n/e/Wv+YxP+oO3xVM8Vdi&#xA;qWaT/vfrX/MYn/UHb4qmeKuxVKf+mq/6Mf8AmdiqV+a49Jl/LDVItYu3sdKk0eVL68iqZIoWtiHd&#xA;AAasFOwpv0xV5b+Tkv5jr5T0bS28g6bP5UKRJBqc80NlPcWZ2W6ls6Xf71429RgzfET13rir3e1t&#xA;bW0torW0hS3tYEWKCCJQkaIgoqIqgBVUCgAxVjrCwP5aEajcNZ6edFpeXamjRQ/Vf3kgO+6LU4q8&#xA;f/JKb8wrfylYabpvkfT9Q8nsxFnrV1LFptxeWjOaXEtr/pZLsDy+I/EPvxV9AWVlZ2NrFaWUEdra&#xA;Qrxht4UWONFHZUUBQPliqVaV9X/wVZ/WZTBbfo2P1plPFkT0ByYMOhUb1xV4V+S8vn3TvKosPK/k&#xA;mx17yf60/wCjNdvpYtLur6Ayluc0RF0zGuysVHwgbYq+ibGwsbC1S0sLaK0tY+Rjt4EWONSzFmoi&#xA;AKKsxJ98VQegMq6dMzEKq3l+WY7AAXk25xV8/fktN5103SLy18leU7PzN5Oe9uDYeZNQlj0y5vU9&#xA;UiT1K/WXl4svBZCg6dNqBV9FaZp9lYWUdtZ2cNhCKubW3RUjV5CXegQKN3Ykmm53xVD+Xv8AeCX/&#xA;AJjL7/qMlxV4D+V0vm/Tr7zDH5D8rWnmnyncarcyReYdRlj0+4mct+9j5v68k6RkFVf0x8sVfQWi&#xA;WFvZ6dEItPg0uWcCe7s7YJ6azuo9T4kWMOQdufEVpiqn5e/3gl/5jL7/AKjJcVeB+Q5vNmn+cvOh&#xA;8g+W7XzZoV1rF1Jda9qLx2EqXch/f2qTsZnuIY67ERjdj47qvfdAsYbXTY3GmW+k3d2FudQs7XgU&#xA;W6dFEtZESMSkFePqcRyAGKtaT/vfrX/MYn/UHb4qmeKuxVLNJ/3v1r/mMT/qDt8VTPFXYqlP/TVf&#xA;9GP/ADOxVZPoun655QOjaihlsNRsRbXKAlSY5YuLUI6Gh64qwXTfyn/MLR7CLSNH/Mu/ttEtlWGz&#xA;tptPsbmeKBRxEYuZF5Gg2U02oKYq9G0XT5tO0m0sZ72bUZraJY5L66KmaZlG7vwCrU/LFUBpmm2W&#xA;qeSLTTL+IT2N9pkdtdQmoDxTW4R1NKHdWIxVg2lflB550DT10by5+Y19Y6DBVbKzuLCyvJYYia+m&#xA;txIoagGw227Yq9F0DS7nS9HtbC51C41W4gUiXULvh60rFixZ+CovegoOmKqGg28Fz5S062nQSQT2&#xA;EMcqHoyPCFYGniDirANJ/J3zl5cs/wBE+U/zDvtL0CMsbPTrixs75oFduRVJ5l5cfAU2+eKvQvLO&#xA;kXukaLBYXuqXGs3UXMy6jeCMSyF3L7iNUUBeVFFNhtirtBRH02dHUMjXl+GUioIN5NUEYq890r8m&#xA;PM/lmGbTvJPny90Py+0jy22kz2VpqC25lbmywyXA5hORPwnxqanfFWfeVdE1DRtHSy1DWLnXLsO8&#xA;kuoXgjWRi7V4hYlRVVf2R2xVV8vf7wS/8xl9/wBRkuKvP7L8mvMfl+a8i8keeLzy/o15NJc/omWz&#xA;tdQihllPJ/Qa4HJFqa8fvrirOPKOg6roulvbaprl15gvJZmmkvrtIo2HIKPTjjhVFRBxqBvuTviq&#xA;I8vf7wS/8xl9/wBRkuKsCj/JzW9F1TUrnyP5yu/Len6rcSXl3pLWltf263Mo+OSATisdTvTf7tsV&#xA;Zl5O8vazomnzQ6vr915ivbiYzSXl0kMQWqqvCKKFVVE+GvHfcnFUXpP+9+tf8xif9QdviqZ4q7FU&#xA;s0n/AHv1r/mMT/qDt8VTPFXYqlP/AE1X/Rj/AMzsVUNK1W/Gl2YGjXhAgj3D2e/wDxuMVRX6Wv8A&#xA;/qy3n/B2f/ZRirv0tf8A/VlvP+Ds/wDsoxVLfLWq3w8uaUBo94wFnbgMHs6H90u4rcA4qmX6Wv8A&#xA;/qy3n/B2f/ZRirv0tf8A/VlvP+Ds/wDsoxVLfLWq3w8uaUBo94wFnbgMHs6H90u+9wDiqZfpa/8A&#xA;+rLef8HZ/wDZRirv0tf/APVlvP8Ag7P/ALKMVS3QNVvhYy00e8b/AEy9NQ9n3vJTTe4HTFUy/S1/&#xA;/wBWW8/4Oz/7KMVd+lr/AP6st5/wdn/2UYqlugarfCxlA0e8b/TL01D2fe8lNN7gdMVTL9LX/wD1&#xA;Zbz/AIOz/wCyjFXfpa//AOrLef8AB2f/AGUYqlugarfCxlpo943+mXpqHs+95Kab3A6YqmX6Wv8A&#xA;/qy3n/B2f/ZRirv0tf8A/VlvP+Ds/wDsoxVLdK1W+F9rBGj3hreISA9nt/oduKGtxiqZfpa//wCr&#xA;Lef8HZ/9lGKu/S1//wBWW8/4Oz/7KMVS3StVvhfawRo94a3iEgPZ7f6HbihrcYqmX6Wv/wDqy3n/&#xA;AAdn/wBlGKu/S1//ANWW8/4Oz/7KMVS79I3n+IfV/Rd16n1Tj9X5W3Onq1519bhx7far7YqnOk/8&#xA;cqy/4wRf8QGKpFqH5j+WbDz/AKb5EuHlHmDVrZryzRYyYjEgmY8pOgNLZ9sVZRiqWeWP+Ua0n/mD&#xA;t/8Ak0uKpbefmD5ctPPlj5GmeUa9qFo1/bIIyYjCpkBJk6A/uG2xVkuKpZ5Y/wCUa0n/AJg7f/k0&#xA;uKsHv/8AnIPyBZDzC8gv5IvK14un63LFas6wzSSSxISQfsGSBl5dK08Rir0LTdSsNT0+21HT51ub&#xA;G8iSe2uIzVXjkUMrD5g4qhfL3+8Ev/MZff8AUZLirDH/AD58ir5c1PzEi30ulaPfHTdSmjtmYxTA&#xA;DdlBrwqQOXSuKs70rVLDVtMtdT06ZbmwvYkntZ0+y8cihlYfQcVQ/l7/AHgl/wCYy+/6jJcVY835&#xA;veSI/MHmHQp7p7e78r2pvdXkljKwpCAjVV/2j+9XYb4qmnkfztpHnTQU13R4rlNNmdkt5bqIwmUJ&#xA;sXRSala7cvEHFUb5e/3gl/5jL7/qMlxVJtH/ADP8oarf+aLOG5eFvJ7cddmnQxxRD97Vg5+0oEDk&#xA;nFUR5D8/aJ540Y61okdyNN9Roori5hMIlZPtGMMasoO3LpXbscVTHSf979a/5jE/6g7fFUzxV2Kp&#xA;ZpP+9+tf8xif9QdviqZ4q7FUp/6ar/ox/wCZ2KoTV/MEXlzyHc6/LA9zHpWmm7a3j2ZxDDz4gnpW&#xA;nXFXhHkx/wA4fNGsP+bPl7y35ae41WIw25vru8nuo4Izw9KMiX0IWPGhoinrXqcVfRGgXGsXGiWM&#xA;+tWsdjq0sKPfWcUnqpFKwq0YkGzcTtUYqltvq8Ojfl9FrE0ck0Om6St3JDCOUjrBbeoyoO7ELQYq&#xA;8Fsbv82fzWuNF/MfRvLXl2BdLll/Q8015eLfgRSENFLJbyRoykgjhIlNztRt1X0R5Yutfu9Bs7jz&#xA;DYx6brMiE3tjDKJ4435EALINmqtD+G+KqGlXKWvkqzuXDskGmxyssW7kJAGPD/K22xV86/lZP+YW&#xA;veVNVn/L7yn5ag8q6vczrqFtrV1d3t9dMRxkFxKJB1U7BlHWoG9Sq96/K7Rr3RvJGn6de6RDoVzB&#xA;6ofSrW4e6hhBlYj05JGc0cfHxrtWmKptoThNMncgsFu79uKirGl5MaADqcVfN/5f3/nnzfdeafMn&#xA;5ceVfL9joGuXD2mrafq9zcy/WSF+JntoZFhjZ1kPL4N+R69cVe6flNo2p6L5KtdN1HRLfy9PbyTB&#xA;dMs7l7uFVMhIdHkaQqJCS3HkaV8ajFU+8vf7wS/8xl9/1GS4q+YPL1n5g8/zecP8E+UtDOk3mpFN&#xA;cfzDe30t9dTRP6iF/q80TJGGPPhThy6E8dlX0Z+XjebP8OJB5n0iy0W9tHNvb2enSepbfVo0URsn&#xA;8g6gL2AxVM/L3+8Ev/MZff8AUZLir5oePXPzH89edJ/JPlTR4LdJBpevjWLu9ia9MUtQ8trZzQhW&#xA;5w1qV9uR+LFXvn5Yr5vg8u/UPM2iWGhSae4tbC10yX1Ld7aONeLopqUFSVCsa7Yqnek/7361/wAx&#xA;if8AUHb4qmeKuxVLNJ/3v1r/AJjE/wCoO3xVM8VdiqU/9NV/0Y/8zsVSjzfea7ZflfqN1oFqLzWI&#xA;dLLWVqY/V5uIunpf7sNK0T9rpQ4q+YPywP8Azjfpmk2OveZfMF/aebreZbvUbAJcQRpdRSlwkcFt&#xA;D6ZSoG1en8vQKvrry55g07zDodlremszWF/EJrdpFKPxP8yncHFUonudZtfyxa50SAXOswaL6mm2&#xA;5HISXC2tYk4/tVcAU74q+Uvy2h/5x6XRm1Pzzruoad5wNw8mq2CRz2saSLK3BYobSDhxpSq9jXZR&#xA;ir7A8qeZ9J80+X7PX9IZ306+Vmt3kRo3IR2jNUbcfEpxVC2c+oweQoJ9NhFxqMWlI9lA32ZJ1twY&#xA;0O42Z6Drir5G8g2v5D3djfal+ZWs3+kedJbmdtV06KGayijPqHiIorSCm43Zeoavw9yq+vvJ3nDQ&#xA;/N+gQa9okjy6dctIsLyI0TH0nKE8GAIB41Htiq/SGuF0e7a3QSXC3OoGGNjxVnF3NxBPYE4q+PvJ&#xA;MX5N6hda5qf5t6rf6J53kvJmv9PihlsolWoaqJaQseZYnkGNT4HqVX1r+X3mzyz5o8s29/5amkuN&#xA;JgJtIJpkeN29ABa0kCsaim5GKpj5e/3gl/5jL7/qMlxV8feWU/KnVvMXmPU/zk1C88vedHvpfU02&#xA;2hks4Fhou6/VoXZn5VqWarCh+I1bFX1R+WfnDyj5n8sRS+VLiW60jTWGnRTTpJG7fV40AP70K7Di&#xA;R8RG5riqc+Xv94Jf+Yy+/wCoyXFXyLar+Wuq/mN5svPzmvrzy/5kS9dLO1tontoGtlqFb1LeFnka&#xA;gFGY/EtDVuyr6Y/KfzZ5H17ywlr5MuprzR9F4afHPcJKjMI0BU1mVHbY9SOuKsi0n/e/Wv8AmMT/&#xA;AKg7fFUzxV2KpZpP+9+tf8xif9QdviqZ4q7FUp/6ar/ox/5nYqi9J/45Vl/xgi/4gMVdJpOlS3Qu&#xA;5LKB7obC4aJDJT/XI5Yqi8VSzyx/yjWk/wDMHb/8mlxVETaTpU9yt1PZQS3KfZneJGcbU2YivTFU&#xA;XiqWeWP+Ua0n/mDt/wDk0uKoi50rS7qdJ7mzgnnj/u5ZI0d1rtszAkYqigABQbAdBiqW+Xv94Jf+&#xA;Yy+/6jJcVRN1pWl3ciS3VnBcSx7xvLGjspHgWBIxVEgBQABQDYAdAMVS3y9/vBL/AMxl9/1GS4qi&#xA;bvTNNvHR7u0huXiIMbSxo5UjoVLA0xVEIiIioihUUAKoFAAOgAxVLvL3+8Ev/MZff9RkuKoq80zT&#xA;b3j9ctIbngap60ayUI7jkDTFVdESNAkahEUUVVFAB4ADFUu0n/e/Wv8AmMT/AKg7fFUzxV2KpZpP&#xA;+9+tf8xif9QdviqZ4q7FUp/6ar/ox/5nYqoaVpV+dLsyNZvADBHsEs9vgHjb4qiv0Tf/APV6vP8A&#xA;gLP/ALJ8Vd+ib/8A6vV5/wABZ/8AZPiqW+WtKvj5c0ojWLxQbO3IUJZ0H7pdhW3JxVMv0Tf/APV6&#xA;vP8AgLP/ALJ8Vd+ib/8A6vV5/wABZ/8AZPiqW+WtKvj5c0ojWbxQbO3IUJZ0H7pdt7cnFUy/RN//&#xA;ANXq8/4Cz/7J8Vd+ib//AKvV5/wFn/2T4qlugaVfGxlprN4v+mXooEs+15Lvvb98VTL9E3//AFer&#xA;z/gLP/snxV36Jv8A/q9Xn/AWf/ZPiqW6BpV8bGUjWLxf9MvRQJZ9ryUV3tz1xVMv0Tf/APV6vP8A&#xA;gLP/ALJ8Vd+ib/8A6vV5/wABZ/8AZPiqW6BpV8bGWms3i/6ZeigSz7Xku+9v3xVMv0Tf/wDV6vP+&#xA;As/+yfFXfom//wCr1ef8BZ/9k+KpbpWlXxvtYA1i8FLxASEs9/8AQ7c1NbfFUy/RN/8A9Xq8/wCA&#xA;s/8AsnxV36Jv/wDq9Xn/AAFn/wBk+KpbpWlXxvtYA1i8FLxASEs9/wDQ7c1NbfFUy/RN/wD9Xq8/&#xA;4Cz/AOyfFXfom/8A+r1ef8BZ/wDZPiqXfo68/wAQ+l+lLr1PqnL6xxtudPVpwp6PDj3+zX3xVOdJ&#xA;/wCOVZf8YIv+IDFXkt15x/Me7/5yBg0SyuTp3kWxgH6QjvIreJbqURvU27yJ67VkdAOLU+Enp1Ve&#xA;y4qlnlj/AJRrSf8AmDt/+TS4q8q89eb/AMzPL/51aBDDdm48gX4RL2wtYraaaJ+JV2mqn1hF5Okl&#xA;Q32QadCMVe0Yqk+h3AtvKOn3BR5BDp8MhjiUvIwWEHiiLuzGmwHXFXh3l7Vv+cg9W8s+ZLrVPMa+&#xA;Wtda5R/KWl6jb6dDNJFH6hlhljkg5cZA8ao535L/AC9VXsH5Z6r5v1LybYTecNOfTfMcS+jfxsYi&#xA;srpsJ09FmQCQUJG1GqKUpiqZaMszaTcrCwSY3WoCNzuAxu5qE9e+KvDPL+ufn/PonmXQfMWvtonn&#xA;axmSby/f3Frp6WV9GoZHt45GhWNvUahVqchUdgwxV67+VurecdT8mWM3nLT20/zFEDFegmIrMV+z&#xA;cJ6JZAJFIJApRq0FKYqnXl800+Y/8vl9/wBRk2KvDbX8wfzxhu/Ouq3VrJHpz+pbeSNF1KOzsZzL&#xA;NL+6nIkEMjxwxCrc3PIkKKmpCr1L8qbD8wLfypBcee9Z/Suu3oWd40itoorZGFViU20cYkbf42JI&#xA;r9nbcqsg8vf7wS/8xl9/1GS4q8T03z5+dvlnWvOdj5st31Z1iLeTX9O0t7KWQyEIpuQLevwSKxV2&#xA;rRGH2uqr0T8nrP8AMlPKyXv5gawNS1m+pKtpHFaxx2ke9I+dqiCR26uakDoOlSqyjSf979a/5jE/&#xA;6g7fFUzxV2KpZpP+9+tf8xif9QdviqZ4q7FUp/6ar/ox/wCZ2KpL50ivJfyr1SOy1NNGum0pvS1S&#xA;VzEkB9GvNpBUoKftDcdRvir5A/K/SPy01bS0ste8l6/rmry3TQy6/pckslqRJJxV6D0wgUdeQau5&#xA;9gq+2/K/l3T/AC35e0/QdPMjWWnQrBC8zc5GC/tOwCgsTuaAYqlF3DdT/lbLDaaguk3MmiFYNUkb&#xA;gls5tKLOz/siM/EW7UxV8bflvYfl1qNndW3mTyhrvmjVjdukmvaRLNLAQ5oGI/d0p9qrVJ6+2Kvt&#xA;ryb5T0zyj5ZsPLmltK9hpyMkDXDB5SGdpDyYBQd3PbFVC1Sd/IEKW92thO2kqIb5iAsDm2AWUk7U&#xA;Q/Fir4n8hWfkKc6vD5r8ra1511RLuT/c5ok088LrQAn/AHUxq1W5tXlXoMVfa/kDyfo3lDypZaFo&#xA;4nFhAHkiF03OYes5lKuwC/Z58Rt0GKorSVkbRrtY5fQka51AJNQHgxu5qNQ7bdcVfEPk+08ky6z5&#xA;gtfOGgav+YGqRXTU13Qp57iN1Hwlj/ds3JgSHZjXsO5VfZf5ZeS9C8n+UbXS9ES5jsJS14sV6weZ&#xA;GuKOUYgLTh9mmKpx5e/3gl/5jL7/AKjJcVfD+g2nlNvOnmW2866Tqn5i363J4axoU80ykgtyZgoj&#xA;LcvHlQUoB3xV9fflD5M8u+VvJdrFoFteWdlqvDVDZai3K4ga5iQmF9hx4UoV7NXFWReXv94Jf+Yy&#xA;+/6jJcVfFT2vlf8A5Wp5ss/Oum6l+YlwLljbXmiTzSNEA7lldF4VoCq0DcU4kCuKvqr8mPJHljyv&#xA;5SWXy9aX1ha62yai9hqTcp7dpIlX0SKArx47g1NSd8VZXpP+9+tf8xif9QdviqZ4q7FUs0n/AHv1&#xA;r/mMT/qDt8VTPFXYqlP/AE1X/Rj/AMzsVS3zH5Ss/N/5ez+WryZ7eDU7KOFp4vto3FWRgD1oygkd&#xA;+mKvIfLf5Tf85K+UtKi8ueW/Oejx+X7UyfVHmgLTxrI5c0R7aYfaYtQyHrir2/ylp+vad5csLLX9&#xA;QXVdYgj4XmoonpCZqmjcKmnw0B/h0xVL38vWvmP8tl0C7do7bVNJS0lkT7SiW3C8lr3WtcVeOeWf&#xA;ye/5yP8AJenf4f8AKfnHRk0COR3ga5gPrKZGJZgjW1x160MhFcVe2+SNM8zaX5Ys7LzNqi6zrcXq&#xA;G71FI/SEheRnX4Rt8KsF6Dp0xVTtdItda/L+HRrsutrqWkrZ3DRni4jntvTcqex4tscVeK+WvyW/&#xA;5yD8i202ieSvOOkr5fedpk+uwETKXoGYIbe5FSFG3qUrir2nyFpXm7S/LcNn5s1ePW9aV5Hm1CKI&#xA;Qhlkcuq8RQfBWgIUbU2xVEaZZw3uh3tnOCYLm41GGUA0PCS6mVqH5HFXhnlr8j/z68gLd6X5C83a&#xA;Uug3NwbkpfwES8yqpyK/V7nfgig0em3TFXsv5daP530ny+bfznrUeva087yteQxCFFjcLSIABAeL&#xA;BjUKuxpTbFUz0KNZNMnjfdXu79WAJBobyYHcb4q8I0L8h/zr/L+6v7X8t/NunR6HfyiYw6pCfVUj&#xA;Za0guVLBdiylQ3gMVewflvovn/SdGuIvO+uw69qs1wZkuYIRAsUZRV9IBVjUgFSw+AdcVTny9/vB&#xA;L/zGX3/UZLirwnT/AMh/zj8j65rFx+WfmnTrfStYl9aW21OI+ovFmaNSRBdcinqMvIFa9xir1f8A&#xA;LTQ/zH0qxvv8da/Brt/czCS3NtCIY4EC8SikLFyBoD9gd+tcVT/Sf979a/5jE/6g7fFUzxV2KpZp&#xA;P+9+tf8AMYn/AFB2+KpnirsVSn/pqv8Aox/5nYqoaV5gsBpdmDFebQRjaxvD+wPCLFUV/iGw/wB9&#xA;Xn/SDef9UsVd/iGw/wB9Xn/SDef9UsVS3y1r9ivlzSlMV5UWduDSyvCNol7iKmKpl/iGw/31ef8A&#xA;SDef9UsVd/iGw/31ef8ASDef9UsVS3y1r9ivlzSlMV5UWduDSyvCNol7iLFUy/xDYf76vP8ApBvP&#xA;+qWKu/xDYf76vP8ApBvP+qWKpboGv2K2MoMV5/vZenayvD1vJT2ixVMv8Q2H++rz/pBvP+qWKu/x&#xA;DYf76vP+kG8/6pYqluga/YrYygxXn+9l6drK8PW8lPaLFUy/xDYf76vP+kG8/wCqWKu/xDYf76vP&#xA;+kG8/wCqWKpboGv2K2MoMV5/vZenayvD1vJT2ixVMv8AENh/vq8/6Qbz/qlirv8AENh/vq8/6Qbz&#xA;/qliqW6Vr9iL7WT6V58V4hFLK8P/AB5243/dbYqmX+IbD/fV5/0g3n/VLFXf4hsP99Xn/SDef9Us&#xA;VS3StfsRfawfSvPivEIpZXh/487cb0i26YqmX+IbD/fV5/0g3n/VLFXf4hsP99Xn/SDef9UsVS79&#xA;NWf+IvrHp3Xp/VPTp9UuedfVr/d+nz4/5VKYqnOk/wDHKsv+MEX/ABAYqkF/+aPkLT/NkXlG81eO&#xA;HzFO8UUWnlJSzPOAYxyCFPiDD9rFWVYqlnlj/lGtJ/5g7f8A5NLiqVXf5m+RbTzdH5PudWjj8yTM&#xA;ix6cUlLkypzQcgnDdd/tYqyjFUs8sf8AKNaT/wAwdv8A8mlxVhqf85Cfk5JaS3ieZImtYHSOaYQX&#xA;RVHlDFAx9Lbl6bU+WKs20PXNJ17SbXV9IukvNNvE9S2uY68XWpHcAihFCDuDiqE02+tbDQr2+u5B&#xA;FaWlxqM9xKQSFjjupmdiBU7KK4qxxPz1/KiTRpdbTX0bSoZ1tZrwQXJRJnUuqN+62LKDTFWW6Dr2&#xA;j6/pFtrGjXSXumXil7a5jrxcAlT1AIIYEEHcHFVnl7/eCX/mMvv+oyXFUk0z82fy71PU9U0ux1uG&#xA;W+0WGe51WIrKgghtHCTu7OirRGYA0OKonyd+Y/kvzmLk+WdSGpJZ8RcyJFMiIXrxBeREWpp0Briq&#xA;ZeXv94Jf+Yy+/wCoyXFUn8qfmn5A82i+by9rMV8umxrLfMFkjWKNuVGYyqgp8BxVf5P/ADO8i+cp&#xA;7mDyzqq6nJZqr3PpxzKqBjRatIiLvQ0FcVTXSf8Ae/Wv+YxP+oO3xVM8VdiqWaT/AL361/zGJ/1B&#xA;2+KpnirsVSn/AKar/ox/5nYqhdT8y6T5Y8ktr+ryGLTtOs45rhlUs1OKgKqjqzMQo98VfJGmefdK&#xA;1L8zrz8038n6/wCZES4L2cmy21s0YAi2hilXlDEo4qZP8o774q+vfJnmeLzT5W03zDDaT2MOpQie&#xA;O1uQolVSSBXiWFGA5Lv0IxVD22t6foXkC31nUXMdhp2mR3N04BYiOKAM1FG5NBsMVfJvnD8wtL87&#xA;ee7T8wfKnlPzBFfaRInPU7MLKkptyDGZ41imRGCHiw9TdaDFX1p5D83Reb/Klj5ihsbjTor4OVtL&#xA;sKJV9ORozUKW2JSo9sVQ08qQ/liZn1F9Iii0cSS6rGvN7aNLYM8yLvVkUFhir5R/L/zh5B0fy15g&#xA;0HQfy/1rzhpeqER6vqkxo7xoSYVMdvHMsHAnkpD8uW9elFX0F/zjbpuh2f5bxy6ENXh0u6uZ3is9&#xA;beB5YXRzFL6Jgji/ds6HYj7VcVZvaJp7+W9STUlVtOaXUxeq4JUwG5n9QMBvThXFXyJ5J85eUdJm&#xA;816P5T8pa75v8layOFzpsyKyxEMTFIpijndCq14sx5dD9pcVe+f84y2GiWvkCdtEi1i00+S+lAsN&#xA;beCR4pUVVlMBhjhPps2xDj7SnYd1Xoml8/0JecJvqz/WNR43BAYRn63NR+LbHj1ocVfFum6l5Eb/&#xA;ABPpflzR/NHmyfV24ap5hs2jguZLYy+s6CMW95xinljDszgM1ANtwVX0z/zjnqHlq5/L4Wnl/Qbz&#xA;QbbTbl7W5ivwhnmuQiPJK7qEMjEOoJKL4AUGKs/8vf7wS/8AMZff9RkuKvjCbVfJVp5q826R+Xmm&#xA;+ZdQ0DWIntNWsdM9NAIVkBPokwXcixcgyguteDFe+KvoX/nGm98tP5KudN0Hy7f6BHplz6N8NSKt&#xA;PPdMgd3eQLGWYKVrWNQBSgpir0rSf979a/5jE/6g7fFUzxV2KpZpP+9+tf8AMYn/AFB2+KpnirsV&#xA;Sn/pqv8Aox/5nYqxb80NSt9N/JjWL240yPWIItMUSadNz9OQOqpV+BDhU5cyVIIpsR1xV8q/k3f6&#xA;fY6ML+6/NiXyfbw3gml8sww3cyuisCTRZEX94BT4Ffb7XSmKvtXyz5l0bzNoVprui3H1rS75S9tP&#xA;xZOQVijfC4VgQykEEYqxrzPqMGm/kve31xp66rBb6Fzl0568Jk+rDkr034U+1TemKvkL8prm1TRt&#xA;Qnb81ZPy/jNyz/oW2iu51YFVpKqrKgP8vVmou+Kvt/yp5r0HzZoNvr2g3P1vS7suIJ+LRk+lI0bV&#xA;Rwrr8SHqMVSu8vY7H8qp72WyGpR2uhPM+nEVFwsdmWMJFG/vKcenfFXxj+VF1aSQ6vdD8y2/LeJ5&#xA;y66PaR3kyOpAIZR6y1C/YWrs+2/uq+2vJHm/y95s8vQ6toF/+krAM1ubopJEWkhPFyUkCuK9dx0O&#xA;KtRXK2vlbVbprY3qwSapK1mACZglzO3pAEEHnTjir4i/K2+s7i+1y9j/ADB/5VlBNJ6qabZpdzRy&#xA;ISWCoPVXl6f2V5Oz4q+1Py183eX/ADP5UtrrRNWOuQWPGwudTaOSFpriCNPUdklHMF+QffxxVMtG&#xA;cx6TcyBDIUutQYRqKlqXcx4ge+Kvhr8u9Rsb/wA0eYNQg86L+VFvcOJI9Pslu5I5Fq/7sASRj914&#xA;M3VvgUDYKvsv8rPOPlzzL5WgTRdcPmJtHSLTtQ1V4pYXnuYYU5zMkw5/vK8q1IrXc0xVPvL3+8Ev&#xA;/MZff9RkuKvhrypqtlqf5j+YtRh81f8AKp4biSRlgtkuX5fGawsqSItVI5MGYDkfgXsFX17+T3nD&#xA;y9r3ldbLSvMj+abnReFrqOrywywPNKwLhyk1W3G1akbdcVZRpP8AvfrX/MYn/UHb4qmeKuxVLNJ/&#xA;3v1r/mMT/qDt8VTPFXYqlP8A01X/AEY/8zsVROmIkmj2kcih0e3jV0YVBBQAgg4qxOf8jvyhnujd&#xA;SeUtN9Vm5ELAqJX/AIxrRPwxVl+maVpmlWEWn6XaQ2FhACILS2jWKJASWPFECqKsSdhiqF8tAN5Z&#xA;0oEVBsrcEHoR6S4qxu6/I/8AKK6u2u5vKenGZ25NwhCKT1rwTinz2xVlekaNpGjWKWGkWUGn2MVf&#xA;TtbWNIYlJ3JCIFG/fFVHyx/yjWk/8wdv/wAmlxVjmofkp+U2o3r3t35U057mQ8pHWFYwzVqSypxU&#xA;k9zTfFWT6JoGh6FYLp+i6fb6bYoSy21pEkMfI9W4oACxpuepxVT8vf7wS/8AMZff9RkuKse1b8mP&#xA;yq1a+kvr/wArafLdzEtNMIRGXYmpZvT4hmJ6k74qyLQvLnl/y/ZfUdD0220uzLczBaRJChcgAswQ&#xA;CrUHU74q15e/3gl/5jL7/qMlxVItb/J/8r9cv5NQ1TyzYXF7KS01x6IR5GPVnKcebe7b4qnfl/yt&#xA;5a8uWjWmgaXa6XbO3OSK0hSEO3Tk/ADkadziq7y9/vBL/wAxl9/1GS4qkmv/AJR/ln5gv31DV/Ld&#xA;hdX0m8tyYgskhPeRk4lz7tXFU28ueUPK3lm2e28vaTaaVDLQzC1hSIyFa8TIygM5FTQsTiqrpP8A&#xA;vfrX/MYn/UHb4qmeKuxVLNJ/3v1r/mMT/qDt8VTPFXYqlP8A01X/AEY/8zsVUNKg8x/ouzpfWYHo&#xA;R0Bs5T+wP+XnFUV9X8y/8t9n/wBIcv8A2VYq76v5l/5b7P8A6Q5f+yrFUt8tQeY/8OaVxvrML9Tt&#xA;+INpKSB6S9T9ZGKpl9X8y/8ALfZ/9Icv/ZVirvq/mX/lvs/+kOX/ALKsVS3y1B5j/wAOaVxvrML9&#xA;Tt6A2kpNPSXv9ZGKpl9X8y/8t9n/ANIcv/ZVirvq/mX/AJb7P/pDl/7KsVS3QIPMf1GXjfWYH1y9&#xA;62kp3+uS1/4+R3xVMvq/mX/lvs/+kOX/ALKsVd9X8y/8t9n/ANIcv/ZViqW6BB5j+oy8b6zA+uXv&#xA;W0lO/wBclr/x8jviqZfV/Mv/AC32f/SHL/2VYq76v5l/5b7P/pDl/wCyrFUt0CDzH9Rl431mB9cv&#xA;etpKd/rktf8Aj5HfFUy+r+Zf+W+z/wCkOX/sqxV31fzL/wAt9n/0hy/9lWKpbpUHmP69rFL6zB+u&#xA;JyraSmp+p2/T/SfDFUy+r+Zf+W+z/wCkOX/sqxV31fzL/wAt9n/0hy/9lWKpbpUHmP69rFL6zB+u&#xA;JyraSmp+p2/T/SfDFUy+r+Zf+W+z/wCkOX/sqxV31fzL/wAt9n/0hy/9lWKpd6Ouf4h4/W7X6z9U&#xA;r6n1aThw9X7PD168q9+X0YqnOk/8cqy/4wRf8QGKvAX/AD48/wCsfn23knyjb2mpeWre/ghvLhYH&#xA;aWO1i9NdQkMvqKgEb+oFalDsBWoqq+icVSzyx/yjWk/8wdv/AMmlxV4N+Y/57fmP5K/OK00HU7az&#xA;s/Jd1eWnp6jNA5ZrB2jFzIsqyceUdX/ZqPDxVfRasrKGUhlYVVhuCD3GKsP1fzND5X/KaTX5Zo4D&#xA;p2jpLC826Gf0AIEIFK85Sqgd64q8a8gfmr/zkV518la35i0uw07lpxjOnRNaSBb7jz+sxQ1mqXSi&#xA;8exNV69FXpX5EfmZrnnnyxcP5j09tO8wafMY7yP0JII5I5KtFJGslT0BVhXqK9xirIr651+18j63&#xA;c+XoFudchbU5NNt3FVknW6mMaEVStT7jFXh/5ffnf+cfnbQ/M1vpw0yPzpoJiuLfRJbWRGuLdS6X&#xA;KBWlBWRH4AV7nietQq9L/IX8zte88+XLr/Euntp3mDTpuFynoSW8UkUlTFJGslTtQqwr2r3xVmVl&#xA;qdhpfl6/1LUJlt7Gyn1Ge5nfZUjjupmZj8gMVfO/5ff85JfmrquieY/MGraRBd6Vptk0WmtZWso9&#xA;XVpZIxbwmkjllEZeSTiNlHUVFVXqn5F+Y/za8z6PLr3niC00+xuBx0uxit5Ibh6NRppfUdiibURa&#xA;Vb7XSlVWbae16ugX7WKq96s+pG1RqcTKLqbgDUjYtTvir5+8hf8AOTXnQ3fmqx872MMer6NZvJp+&#xA;jW1tLHczXiSCP0SvKQ9XUmg2WrdBir0H8ifNP5xebbObXPOlvaaZpDVj0+zS1khuZnBo0p9SRuEa&#xA;0oPhqx9huq9I0n/e/Wv+YxP+oO3xVM8VdiqWaT/vfrX/ADGJ/wBQdviqZ4q7FUp/6ar/AKMf+Z2K&#xA;pF55uvNVr+VeoXPlQA+YIdOV7Enh8JCrzZefw8lj5Fa96Yq+LPLfmrWdc+sXOufmhq+ia4bgLbW7&#xA;C/uFkJpxb1YJR6VG+Hjw27Yq+5vIWi67onk/S9L1/Um1fWbaKl9qLs0hkkZixo7hWYLy4qWFaDFU&#xA;v1SbzJB+VEk3lkI2vx6Oj6aH409YQAr9r4eX8vLavXbFXxRo3nHW9XmvrnzT+ZusaDqsMlIY+N7c&#xA;o7A7/Fbyr6XE9gnyxV9u/lhovmHRvJGnWPmHV31zV1V3uNSdnfmsjs0YDSBX+GMqPi3riqrz1qP8&#xA;tg+hKj62mj8tLSSnA3QtawhuVFp6lK1NMVfDum+cvMmsalqb+cfzI1fy/qMDBYkC3lwjyBiHTjbS&#xA;IsISnQLTFX2n+UGieY9H8iWFv5h1uTzBqUxe4/SMjySEwymsKhpgJD+64k8v2icVTa0Oojy3qR0x&#xA;UbUhLqZsVl2jM/1mf0g/+TzpXFXw1B5y82av5g1SLz1+Yer+XL62YqBGtzcRmUMQ8YitZYliC9uK&#xA;0xV9hfkbpPmOw8gWk2u+YZfM0upkX9jqMzSu31O4iRoF/fgSg8fiIatCaYqyrRjMNJuTAFacXWoe&#xA;krfZL/W5uINO1cVfDFz5y88al5w1S08/+fdU8s3lqzo4gFxPEsytQxJBaSxoi+BXbFX1n+QOjeY7&#xA;DyMt1rXmWbzQmqSC70q+maditk8SempFwPUVi3IkEmm2Ks48vf7wS/8AMZff9RkuKvhzXPOX5gX3&#xA;5gappv5g+d9S8ry2jyq31ITz20cit8MUcFrLEAhHRxU7b74q+nv+cdNK8wW/k+bU9S81z+a9P1SU&#xA;PotzOZy0dvFyjaq3P7xGaTkCtSKAUxV6LpP+9+tf8xif9QdviqZ4q7FUs0n/AHv1r/mMT/qDt8VT&#xA;PFXYqlP/AE1X/Rj/AMzsVY9+YHk/UPOP5UX3lrT7sWV7qNlAkFwxYJyQxycHKgsEk4cGoDsTscVf&#xA;NHlb8n/+civKUM+n6b5P0e8WSYuNRu00m6lBoFBSSeT1Qi05BSvXtir6q/LpPOqeTtOTzs0UnmZV&#xA;cX8sBQo59Rijfu1RAfT41CilcVQGteWrrzR+Uknl60uvqVzqekR28VzvRWeFdm478W+y1OxxV8we&#xA;W/yW/wCchPKAu7PTfKGj6ms71+vXa6XdsNqfumupFkVe/Er17Yq+pfyti8/Q+TLSLz36LeYkeX13&#xA;gMfExly0VRCqxqVU8KLttiq660OfXvyvbRLe5NnPqejC1iulrWNprYIG23oK70xV8r+XfyQ/5yC8&#xA;mXN7BpnlPR9ZScgfXbsaZdrRK7wm7eOVFbqQVFdtsVfT/wCUkH5jW/lBIfzA+r/pyOeQR/VvSCi2&#xA;opiUrAqRKUqy0XsBviqZx6dJqflXVdNina1kvX1S3S6T7UTS3E6CRdxuvKo3xV8m6F+Q/wCffkrU&#xA;71dJ8r6Pr8c3FVvLsaddJRC1DCLx45I+XL4vhFdvDFX0r+S9r+Ztp5UktvzBjtotSjnIsIrX0FSO&#xA;zEaLHD6dsqxL6ZVqce2Ksk0y3a50O9tllaBp7jUY1nTZ0L3Uy8l91rUYq+RtK/IH8+PJWu3kmkeX&#xA;dJ8xxyjgl5diwuYiK1Dol88ckbHvt9+Kvo78krT81bPy/dW/5hQ2lvOsynSre0Fuiw2/AL6PC1UR&#xA;KqMtV3J3PtirMvL3+8Ev/MZff9RkuKvkOH/nHv8APHyd5qvLzRNE0zzVFJzWK+vvqU6srMGEhivn&#xA;RklPcivcVOKvoD8jLH827HTdRg/MC1s7KLnE2jWdkLVFgQhvWj9O0HpheXFh8RNScVZ5pP8AvfrX&#xA;/MYn/UHb4qmeKuxVLNJ/3v1r/mMT/qDt8VTPFXYqlP8A01X/AEY/8zsVb0rVdLGl2YN5ACII6j1E&#xA;/kHviqK/S2lf8tsH/I1P64q79LaV/wAtsH/I1P64qlvlrVdLHlzSgbyAEWduCDIn++l98VTL9LaV&#xA;/wAtsH/I1P64q79LaV/y2wf8jU/riqW+WdV0seXNKBvIARZ24IMif76X3xVMv0tpX/LbB/yNT+uK&#xA;u/S2lf8ALbB/yNT+uKpb5f1XSxYSg3kA/wBMvjvIne8lPjiqZfpbSv8Altg/5Gp/XFXfpbSv+W2D&#xA;/kan9cVS3y/quliwlBvIAfrl8d5E73kp8cVTL9LaV/y2wf8AI1P64q79LaV/y2wf8jU/riqW+X9V&#xA;0sWEoN5AP9MvjvIne8lPjiqZfpbSv+W2D/kan9cVd+ltK/5bYP8Akan9cVS3StV0sX+sk3kABvEI&#xA;/eJv/oduPHFUy/S2lf8ALbB/yNT+uKu/S2lf8tsH/I1P64qlularpYv9ZJvIADeIR+8Tf/Q7ceOK&#xA;pl+ltK/5bYP+Rqf1xV36W0r/AJbYP+Rqf1xVLP0jp/8AiX1vrMXpfU+Hqc148vVrxrWlaYq//9k=</xapGImg:image>
    </rdf:li>
   </rdf:Alt>
  </xap:Thumbnails>
 </rdf:Description>

 <rdf:Description rdf:about='uuid:0f7fd2da-2276-11de-a454-001124740a56'
  xmlns:xapMM='http://ns.adobe.com/xap/1.0/mm/'>
  <xapMM:DocumentID>uuid:831aaf18-81ce-11da-9137-001124808cba</xapMM:DocumentID>
 </rdf:Description>

 <rdf:Description rdf:about='uuid:0f7fd2da-2276-11de-a454-001124740a56'
  xmlns:dc='http://purl.org/dc/elements/1.1/'>
  <dc:format>image/svg+xml</dc:format>
 </rdf:Description>

</rdf:RDF>
</x:xmpmeta>
                                                                                                                                                                                                                                                                                                                                                                                                                                                                                                                                                                                                                                                                                                                                                                                                                                                                                                                                                                                                                                                                                                                                                                                                                                                                                                                                                                                                                                                                                                                                                                                                                                                                                                                                                                                                                                                                                                                                                                                                                                                                                                                                <?xpacket end='w'?>
			</metadata>
		<g id="レイヤー1">
			<g>
				<rect x="0.125" y="0.125" fill="none" stroke="#000000" stroke-width="0.25" width="100" height="150"/> 
				<rect x="100.125" y="0.125" fill="none" stroke="#000000" stroke-width="0.25" width="100" height="150"/> 
				<rect x="200.125" y="0.125" fill="none" stroke="#000000" stroke-width="0.25" width="100" height="150"/> 
				<rect x="300.125" y="0.125" fill="none" stroke="#000000" stroke-width="0.25" width="100" height="150"/> 
				<rect x="400.125" y="0.125" fill="none" stroke="#000000" stroke-width="0.25" width="100" height="150"/> 
				<rect x="500.125" y="0.125" fill="none" stroke="#000000" stroke-width="0.25" width="100" height="150"/> 
				<rect x="600.125" y="0.125" fill="none" stroke="#000000" stroke-width="0.25" width="100" height="150"/> 
				<rect x="0.125" y="150.125" fill="none" stroke="#000000" stroke-width="0.25" width="100" height="150"/> 
				<rect x="100.125" y="150.125" fill="none" stroke="#000000" stroke-width="0.25" width="100" height="150"/> 
				<rect x="200.125" y="150.125" fill="none" stroke="#000000" stroke-width="0.25" width="100" height="150"/> 
				<rect x="300.125" y="150.125" fill="none" stroke="#000000" stroke-width="0.25" width="100" height="150"/> 
				<rect x="400.125" y="150.125" fill="none" stroke="#000000" stroke-width="0.25" width="100" height="150"/> 
				<rect x="500.125" y="150.125" fill="none" stroke="#000000" stroke-width="0.25" width="100" height="150"/> 
				<rect x="600.125" y="150.125" fill="none" stroke="#000000" stroke-width="0.25" width="100" height="150"/> 
				<rect x="0.125" y="300.125" fill="none" stroke="#000000" stroke-width="0.25" width="100" height="150"/> 
				<rect x="100.125" y="300.125" fill="none" stroke="#000000" stroke-width="0.25" width="100" height="150"/> 
				<rect x="200.125" y="300.125" fill="none" stroke="#000000" stroke-width="0.25" width="100" height="150"/> 
				<rect x="300.125" y="300.125" fill="none" stroke="#000000" stroke-width="0.25" width="100" height="150"/> 
				<rect x="400.125" y="300.125" fill="none" stroke="#000000" stroke-width="0.25" width="100" height="150"/> 
				<rect x="500.125" y="300.125" fill="none" stroke="#000000" stroke-width="0.25" width="100" height="150"/> 
				<rect x="600.125" y="300.125" fill="none" stroke="#000000" stroke-width="0.25" width="100" height="150"/> 
				<rect x="0.125" y="450.125" fill="none" stroke="#000000" stroke-width="0.25" width="100" height="150"/> 
				<rect x="100.125" y="450.125" fill="none" stroke="#000000" stroke-width="0.25" width="100" height="150"/> 
				<rect x="200.125" y="450.125" fill="none" stroke="#000000" stroke-width="0.25" width="100" height="150"/> 
				<rect x="300.125" y="450.125" fill="none" stroke="#000000" stroke-width="0.25" width="100" height="150"/> 
				<rect x="400.125" y="450.125" fill="none" stroke="#000000" stroke-width="0.25" width="100" height="150"/> 
				<rect x="500.125" y="450.125" fill="none" stroke="#000000" stroke-width="0.25" width="100" height="150"/> 
				<rect x="600.125" y="450.125" fill="none" stroke="#000000" stroke-width="0.25" width="100" height="150"/> 
				<rect x="0.125" y="600.125" fill="none" stroke="#000000" stroke-width="0.25" width="100" height="150"/> 
				<rect x="100.125" y="600.125" fill="none" stroke="#000000" stroke-width="0.25" width="100" height="150"/> 
				<rect x="200.125" y="600.125" fill="none" stroke="#000000" stroke-width="0.25" width="100" height="150"/> 
				<rect x="300.125" y="600.125" fill="none" stroke="#000000" stroke-width="0.25" width="100" height="150"/> 
				<rect x="400.125" y="600.125" fill="none" stroke="#000000" stroke-width="0.25" width="100" height="150"/> 
				<rect x="500.125" y="600.125" fill="none" stroke="#000000" stroke-width="0.25" width="100" height="150"/> 
				<rect x="600.125" y="600.125" fill="none" stroke="#000000" stroke-width="0.25" width="100" height="150"/> 
				<rect x="0.125" y="750.125" fill="none" stroke="#000000" stroke-width="0.25" width="100" height="150"/> 
				<rect x="100.125" y="750.125" fill="none" stroke="#000000" stroke-width="0.25" width="100" height="150"/> 
				<rect x="200.125" y="750.125" fill="none" stroke="#000000" stroke-width="0.25" width="100" height="150"/> 
				<rect x="300.125" y="750.125" fill="none" stroke="#000000" stroke-width="0.25" width="100" height="150"/> 
				<rect x="400.125" y="750.125" fill="none" stroke="#000000" stroke-width="0.25" width="100" height="150"/> 
				<rect x="500.125" y="750.125" fill="none" stroke="#000000" stroke-width="0.25" width="100" height="150"/> 
				<rect x="600.125" y="750.125" fill="none" stroke="#000000" stroke-width="0.25" width="100" height="150"/> 
				<rect x="0.125" y="900.125" fill="none" stroke="#000000" stroke-width="0.25" width="100" height="150"/> 
				<rect x="100.125" y="900.125" fill="none" stroke="#000000" stroke-width="0.25" width="100" height="150"/> 
				<rect x="200.125" y="900.125" fill="none" stroke="#000000" stroke-width="0.25" width="100" height="150"/> 
				<rect x="300.125" y="900.125" fill="none" stroke="#000000" stroke-width="0.25" width="100" height="150"/> 
				<rect x="400.125" y="900.125" fill="none" stroke="#000000" stroke-width="0.25" width="100" height="150"/> 
				<rect x="500.125" y="900.125" fill="none" stroke="#000000" stroke-width="0.25" width="100" height="150"/> 
				<rect x="600.125" y="900.125" fill="none" stroke="#000000" stroke-width="0.25" width="100" height="150"/> 
				<rect x="700.125" y="0.125" fill="none" stroke="#000000" stroke-width="0.25" width="100" height="150"/> 
				<rect x="700.125" y="150.125" fill="none" stroke="#000000" stroke-width="0.25" width="100" height="150"/> 
				<rect x="700.125" y="300.125" fill="none" stroke="#000000" stroke-width="0.25" width="100" height="150"/> 
				<rect x="700.125" y="450.125" fill="none" stroke="#000000" stroke-width="0.25" width="100" height="150"/> 
				<rect x="700.125" y="600.125" fill="none" stroke="#000000" stroke-width="0.25" width="100" height="150"/> 
				<rect x="700.125" y="750.125" fill="none" stroke="#000000" stroke-width="0.25" width="100" height="150"/> 
				<rect x="700.125" y="900.125" fill="none" stroke="#000000" stroke-width="0.25" width="100" height="150"/> 
			</g>
			<g>
				<polygon points="41.125,931.125 41.125,941.625 35.125,951.125 51.125,951.125 61.125,941.625 61.125,931.125 "/>
				<polygon points="42.6245117,781.4580078 42.6245117,791.7919922 36.6245117,801.125 50.4580078,801.125 59.6245117,791.875 
					59.6245117,781.4580078 "/>
				<polygon points="44.125,631.7919922 44.125,641.9580078 38.125,651.125 49.7919922,651.125 58.125,642.125 58.125,631.7919922 
					"/>
				<polygon points="45.625,482.125 45.625,492.125 39.625,501.125 49.125,501.125 56.625,492.375 56.625,482.125 "/>
				<polygon points="47.1245117,332.4580078 47.1245117,342.2910156 40.7910156,351.1245117 47.9882812,351.1245117 
					55.1245117,342.6977539 55.1245117,332.4580078 "/>
				<polygon points="48.625,182.7915039 48.625,192.4584961 41.9584961,201.125 46.8520508,201.125 53.625,193.0209961 
					53.625,182.7915039 "/>
				<polygon points="50.125,33.125 50.125,42.625 43.125,51.125 45.7158203,51.125 52.125,43.34375 52.125,33.125 "/>
			</g>
			<g>
				<polygon points="159.125,931.125 159.125,941.625 165.125,951.125 149.125,951.125 139.125,941.625 139.125,931.125 "/>
				<polygon points="157.625,781.4580078 157.625,791.7919922 163.625,801.125 149.7910156,801.125 140.6245117,791.875 
					140.6245117,781.4580078 "/>
				<polygon points="156.125,631.7919922 156.125,641.9580078 162.125,651.125 150.4584961,651.125 142.125,642.125 
					142.125,631.7919922 "/>
				<polygon points="154.625,482.125 154.625,492.125 160.625,501.125 151.125,501.125 143.625,492.375 143.625,482.125 "/>
				<polygon points="153.125,332.4580078 153.125,342.2910156 159.4580078,351.1245117 152.2612305,351.1245117 
					145.1245117,342.6977539 145.1245117,332.4580078 "/>
				<polygon points="151.625,182.7915039 151.625,192.4584961 158.2919922,201.125 153.3979492,201.125 146.625,193.0209961 
					146.625,182.7915039 "/>
				<polygon points="150.125,33.125 150.125,42.625 157.125,51.125 154.5341797,51.125 148.125,43.34375 148.125,33.125 "/>
			</g>
			<g>
				<g>
					<polygon points="227.625,931.125 227.625,941.625 221.625,951.125 236.625,951.125 246.625,941.625 246.625,931.125 "/>
					<polygon points="264.125,949.125 248.125,931.125 269.125,931.125 279.125,949.125 "/>
				</g>
				<g>
					<polygon points="229.8745117,781.4580078 229.8745117,791.7919922 223.8745117,801.125 237.0415039,801.125 
						246.2080078,791.875 246.2080078,781.4580078 "/>
					<polygon points="266.4580078,781.4580078 276.7915039,799.125 263.7080078,799.125 248.2080078,781.4580078 "/>
				</g>
				<g>
					<polygon points="232.125,631.7919922 232.125,641.9580078 226.125,651.125 237.4584961,651.125 245.7915039,642.125 
						245.7915039,631.7919922 "/>
					<polygon points="263.7915039,631.7919922 274.4584961,649.125 263.2919922,649.125 248.2915039,631.7919922 "/>
				</g>
				<g>
					<polygon points="234.375,482.125 234.375,492.125 228.375,501.125 237.875,501.125 245.375,492.375 245.375,482.125 "/>
					<polygon points="261.125,482.125 272.125,499.125 262.875,499.125 248.375,482.125 "/>
				</g>
				<g>
					<polygon points="236.9580078,332.4580078 236.9580078,342.2910156 230.6245117,351.1245117 237.8217773,351.1245117 
						244.9580078,342.6977539 244.9580078,332.4580078 "/>
					<polygon points="258.125,332.4580078 269.4580078,349.125 262.4580078,349.125 248.7915039,332.4580078 "/>
				</g>
				<g>
					<polygon points="239.5415039,182.7915039 239.5415039,192.4584961 232.875,201.125 237.769043,201.125 
						244.5419922,193.0209961 244.5419922,182.7915039 "/>
					<polygon points="255.125,182.7915039 266.7915039,199.125 262.0415039,199.125 249.2084961,182.7915039 "/>
				</g>
				<g>
					<polygon points="242.125,33.125 242.125,42.625 235.125,51.125 237.7158203,51.125 244.125,43.34375 244.125,33.125 "/>
					<polygon points="252.125,33.125 249.625,33.125 261.625,49.125 264.125,49.125 "/>
				</g>
			</g>
			<g>
				<g>
					<polygon points="427.625,931.125 427.625,941.625 421.625,951.125 436.625,951.125 446.625,941.625 446.625,931.125 "/>
					<polygon points="463.625,949.125 479.625,931.125 458.625,931.125 448.625,949.125 "/>
				</g>
				<g>
					<polygon points="429.875,781.4580078 429.875,791.7919922 423.875,801.125 437.0419922,801.125 446.2080078,791.875 
						446.2080078,781.4580078 "/>
					<polygon points="459.0410156,781.4580078 448.7080078,799.125 461.7919922,799.125 477.2910156,781.4580078 "/>
				</g>
				<g>
					<polygon points="432.125,631.7919922 432.125,641.9580078 426.125,651.125 437.4580078,651.125 445.7919922,642.125 
						445.7919922,631.7919922 "/>
					<polygon points="459.4580078,631.7919922 448.7919922,649.125 459.9580078,649.125 474.9580078,631.7919922 "/>
				</g>
				<g>
					<polygon points="434.375,482.125 434.375,492.125 428.375,501.125 437.875,501.125 445.375,492.375 445.375,482.125 "/>
					<polygon points="459.875,482.125 448.875,499.125 458.125,499.125 472.625,482.125 "/>
				</g>
				<g>
					<polygon points="436.9580078,332.4580078 436.9580078,342.2910156 430.625,351.1245117 437.8212891,351.1245117 
						444.9580078,342.6977539 444.9580078,332.4580078 "/>
					<polygon points="460.625,332.4580078 469.9580078,332.4580078 456.2910156,349.125 449.2910156,349.125 "/>
				</g>
				<g>
					<polygon points="439.5419922,182.7915039 439.5419922,192.4584961 432.875,201.125 437.7685547,201.125 
						444.5419922,193.0209961 444.5419922,182.7915039 "/>
					<polygon points="461.375,182.7915039 467.2919922,182.7915039 454.4580078,199.125 449.7080078,199.125 "/>
				</g>
				<g>
					<polygon points="442.125,33.125 442.125,42.625 435.125,51.125 437.7158203,51.125 444.125,43.34375 444.125,33.125 "/>
					<polygon points="462.125,33.125 464.625,33.125 452.625,49.125 450.125,49.125 "/>
				</g>
			</g>
			<g>
				<g>
					<polygon points="542.625,931.125 542.625,941.625 548.625,951.125 533.625,951.125 523.625,941.625 523.625,931.125 "/>
					<polygon points="563.625,949.125 579.625,931.125 558.625,931.125 548.625,949.125 "/>
				</g>
				<g>
					<polygon points="542.2080078,781.4580078 542.2080078,791.7919922 548.2080078,801.125 535.0410156,801.125 525.875,791.875 
						525.875,781.4580078 "/>
					<polygon points="559.0410156,781.4580078 548.7080078,799.125 561.7910156,799.125 577.2910156,781.4580078 "/>
				</g>
				<g>
					<polygon points="541.7919922,631.7919922 541.7919922,641.9580078 547.7919922,651.125 536.4580078,651.125 528.125,642.125 
						528.125,631.7919922 "/>
					<polygon points="559.4580078,631.7919922 548.7919922,649.125 559.9580078,649.125 574.9580078,631.7919922 "/>
				</g>
				<g>
					<polygon points="541.375,482.125 541.375,492.125 547.375,501.125 537.875,501.125 530.375,492.375 530.375,482.125 "/>
					<polygon points="559.875,482.125 548.875,499.125 558.125,499.125 572.625,482.125 "/>
				</g>
				<g>
					<polygon points="540.625,332.4580078 540.625,342.2910156 546.9580078,351.1245117 539.7617188,351.1245117 
						532.625,342.6977539 532.625,332.4580078 "/>
					<polygon points="560.625,332.4580078 569.9580078,332.4580078 556.2919922,349.125 549.2910156,349.125 "/>
				</g>
				<g>
					<polygon points="539.875,182.7915039 539.875,192.4584961 546.5419922,201.125 541.6474609,201.125 534.875,193.0209961 
						534.875,182.7915039 "/>
					<polygon points="561.375,182.7915039 567.2919922,182.7915039 554.4580078,199.125 549.7080078,199.125 "/>
				</g>
				<g>
					<polygon points="539.125,33.125 539.125,42.625 546.125,51.125 543.5341797,51.125 537.125,43.34375 537.125,33.125 "/>
					<polygon points="562.125,33.125 564.625,33.125 552.625,49.125 550.125,49.125 "/>
				</g>
			</g>
			<g>
				<g>
					<polygon points="342.625,931.125 342.625,941.625 348.625,951.125 333.625,951.125 323.625,941.625 323.625,931.125 "/>
					<polygon points="363.125,949.125 347.125,931.125 368.125,931.125 378.125,949.125 "/>
				</g>
				<g>
					<polygon points="342.2080078,781.4580078 342.2080078,791.7919922 348.2080078,801.125 335.0410156,801.125 
						325.8745117,791.875 325.8745117,781.4580078 "/>
					<polygon points="365.4580078,781.4580078 375.7919922,799.125 362.7080078,799.125 347.2080078,781.4580078 "/>
				</g>
				<g>
					<polygon points="341.7915039,631.7919922 341.7915039,641.9580078 347.7915039,651.125 336.4584961,651.125 328.125,642.125 
						328.125,631.7919922 "/>
					<polygon points="362.7919922,631.7919922 373.4580078,649.125 362.2919922,649.125 347.2915039,631.7919922 "/>
				</g>
				<g>
					<polygon points="341.375,482.125 341.375,492.125 347.375,501.125 337.875,501.125 330.375,492.375 330.375,482.125 "/>
					<polygon points="360.125,482.125 371.125,499.125 361.875,499.125 347.375,482.125 "/>
				</g>
				<g>
					<polygon points="340.625,332.4580078 340.625,342.2910156 346.9580078,351.1245117 339.7612305,351.1245117 
						332.6245117,342.6977539 332.6245117,332.4580078 "/>
					<polygon points="357.125,332.4580078 368.4580078,349.125 361.4580078,349.125 347.7915039,332.4580078 "/>
				</g>
				<g>
					<polygon points="339.875,182.7915039 339.875,192.4584961 346.5419922,201.125 341.6479492,201.125 334.875,193.0209961 
						334.875,182.7915039 "/>
					<polygon points="354.125,182.7915039 365.7919922,199.125 361.0419922,199.125 348.2084961,182.7915039 "/>
				</g>
				<g>
					<polygon points="339.125,33.125 339.125,42.625 346.125,51.125 343.5341797,51.125 337.125,43.34375 337.125,33.125 "/>
					<polygon points="351.125,33.125 348.625,33.125 360.625,49.125 363.125,49.125 "/>
				</g>
			</g>
			<g>
				<path d="M38.125,981.0234375c-8.609375-2.2695312-12.5-6.5175781-12.5-12.3984375c0-6.8789062,9.0839844-13.5,25.5-13.5
					c7,0,14.7695312,1.2890625,22.5,4l-4,12.5c-6.7871094-2.4101562-12.4023438-3.5-16.5-3.5c-7.3125,0-9,1.3515625-9,3.5
					c0,2.8789062,3.2685547,4.5,16.5,4.5h3.5v11h-3.5c-13.7832031,0-17,1.7011719-17,4.5c0,2.5410156,2.2792969,4,8.5,4
					c6.3105469,0,11.0039062-0.7226562,18.5-3l4,12.5c-7.9824219,2.6445312-15.984375,4-23.5,4c-17.109375,0-26-6.2734375-26-15
					c0-6.4355469,5.34375-12.1660156,13-12.9003906V981.0234375z"/>
				<path d="M38.831543,830.8720703C30.4140625,828.7382812,26.375,824.171875,26.375,818.4580078
					c0-6.9492188,8.7958984-13.3330078,24.8330078-13.3330078c6.8012695,0,14.3334961,1.2919922,21.6499023,3.9296875
					l-3.4663086,10.8066406C62.9140625,817.4960938,57.199707,816.375,52.8745117,816.375
					c-8.2285156,0-10.6665039,1.8085938-10.6665039,4.5830078c0,3.3916016,3.9106445,5.4169922,17.6665039,5.4169922h3.6669922
					v9.9326172h-3.6669922c-14.5463867,0-18.2495117,2.1376953-18.2495117,5.7333984
					c0,3.3935547,2.9873047,5.4169922,10.4165039,5.4169922c6.1923828,0,11.1171875-0.8056641,18.2705078-3.0703125
					l3.4584961,10.8076172c-7.5976562,2.5878906-15.3242188,3.9296875-22.5625,3.9296875
					c-16.7861328,0-25.4165039-6.2451172-25.4165039-15c0-6.4384766,5.2607422-12.1289062,13.0400391-13.0527344V830.8720703z"/>
				<path d="M39.5390625,680.7197266C31.3134766,678.7236328,27.125,673.8378906,27.125,668.2919922
					c0-7.0214844,8.5083008-13.1669922,24.1669922-13.1669922c6.6025391,0,13.8969727,1.2939453,20.7993164,3.8603516
					l-2.9326172,9.1123047C62.9902344,665.7773438,57.1777344,664.625,52.625,664.625
					c-9.1445312,0-12.3334961,2.2666016-12.3334961,5.6669922c0,3.9033203,4.5532227,6.3330078,18.8334961,6.3330078h3.8334961
					v8.8662109H59.125c-15.3095703,0-19.5,2.5732422-19.5,6.9667969c0,4.2460938,3.6962891,6.8339844,12.3334961,6.8339844
					c6.0742188,0,11.2304688-0.8886719,18.0410156-3.1425781l2.9169922,9.1171875
					c-7.2119141,2.53125-14.6640625,3.8583984-21.6245117,3.8583984c-16.4638672,0-24.8334961-6.2158203-24.8334961-15
					c0-6.4404297,5.1782227-12.0917969,13.0805664-13.2050781V680.7197266z"/>
				<path d="M40.2460938,530.7675781v-0.1992188C32.2119141,528.7089844,27.875,523.5039062,27.875,518.125
					c0-7.0917969,8.2207031-13,23.5-13c6.4042969,0,13.4609375,1.296875,19.9492188,3.7910156l-2.3984375,7.4179688
					C63.0664062,514.0585938,57.1552734,512.875,52.375,512.875c-10.0605469,0-14,2.7246094-14,6.75
					c0,4.4160156,5.1953125,7.25,20,7.25h4v7.7988281h-4c-16.0732422,0-20.75,3.0097656-20.75,8.2011719
					c0,5.0976562,4.4042969,8.25,14.25,8.25c5.9560547,0,11.34375-0.9707031,17.8115234-3.2128906l2.3759766,7.4257812
					C65.2353516,557.8125,58.0585938,559.125,51.375,559.125c-16.140625,0-24.25-6.1875-24.25-15
					C27.125,537.6816406,32.2207031,532.0703125,40.2460938,530.7675781z"/>
				<path d="M27.7915039,394.125c0-5.8540039,4.1469727-11.9697266,13.828125-13.7094727v-0.1992188
					C32.8300781,378.2753906,28.625,373.1494141,28.625,367.9580078c0-7.3374023,8.1591797-12.8330078,22.8330078-12.8330078
					c6.2060547,0,13.0244141,1.2988281,19.0986328,3.7211914l-1.8642578,5.5571289
					c-5.5498047-2.2304688-11.5595703-3.4453125-16.5678711-3.4453125c-10.7773438,0-15.8330078,3.125-15.8330078,8
					c0,5.2055664,6.4648438,8.5,21.1665039,8.5h4.3334961v5.8662109h-4.3334961c-16.0581055,0-22,3.5620117-22,9.9672852
					c0,6.1923828,5.362793,9.8330078,16.3334961,9.8330078c5.8378906,0,11.4570312-1.0522461,17.581543-3.284668
					l1.8354492,5.5688477C64.765625,407.8266602,57.8647461,409.125,51.4580078,409.125
					C35.9316406,409.125,27.7915039,403.1777344,27.7915039,394.125z"/>
				<path d="M28.4584961,244.125c0-5.2636719,3.1982422-11.8842773,14.5356445-14.0605469v-0.1992188
					C33.4487305,227.8417969,29.375,222.7954102,29.375,217.7915039c0-7.5825195,8.0986328-12.6665039,22.1665039-12.6665039
					c6.0078125,0,12.5874023,1.3022461,18.2490234,3.6518555l-1.3305664,3.6967773
					c-5.2412109-2.1860352-11.3491211-3.4321289-16.5849609-3.4321289c-11.4941406,0-17.6665039,3.5253906-17.6665039,9.25
					c0,5.9956055,7.734375,9.7504883,22.3330078,9.7504883h4.6669922v3.9326172h-4.6669922
					c-16.0424805,0-23.2495117,4.1152344-23.2495117,11.7338867c0,7.2875977,6.3208008,11.4165039,18.4165039,11.4165039
					c5.7197266,0,11.5703125-1.1347656,17.3525391-3.355957l1.2944336,3.7109375
					C64.2963867,257.8413086,57.671875,259.125,51.5415039,259.125C36.6289062,259.125,28.4584961,253.4179688,28.4584961,244.125z"
					/>
				<path d="M44.3681641,79.7128906C31.375,82.3261719,29.125,89.4511719,29.125,94.125c0,9.5332031,8.2011719,15,22.5,15
					c5.8535156,0,12.2021484-1.2695312,17.8769531-3.5742188l-0.7539062-1.8535156
					C63.3085938,105.9082031,57.2265625,107.125,51.625,107.125c-13.2207031,0-20.5-4.6171875-20.5-13
					c0-8.8320312,8.4726562-13.5,24.5-13.5h5v-2h-5c-14.4960938,0-23.5-4.2148438-23.5-11c0-6.5742188,7.2890625-10.5,19.5-10.5
					c5.4638672,0,11.6699219,1.2773438,16.6015625,3.4179688l0.796875-1.8359375
					C63.7753906,56.4296875,57.4345703,55.125,51.625,55.125c-13.4628906,0-21.5,4.671875-21.5,12.5
					c0,4.8164062,3.9423828,9.7832031,14.2431641,11.8886719V79.7128906z"/>
			</g>
			<g>
				<path d="M138.125,981.0234375c-8.609375-2.2695312-12.5-6.5175781-12.5-12.3984375c0-6.8789062,9.0839844-13.5,25.5-13.5
					c7,0,14.7695312,1.2890625,22.5,4l-4,12.5c-6.7871094-2.4101562-12.4023438-3.5-16.5-3.5c-7.3125,0-9,1.3515625-9,3.5
					c0,2.8789062,3.2685547,4.5,16.5,4.5h3.5v11h-3.5c-13.7832031,0-17,1.7011719-17,4.5c0,2.5410156,2.2792969,4,8.5,4
					c6.3105469,0,11.0039062-0.7226562,18.5-3l4,12.5c-7.9824219,2.6445312-15.984375,4-23.5,4c-17.109375,0-26-6.2734375-26-15
					c0-6.4355469,5.34375-12.1660156,13-12.9003906V981.0234375z"/>
				<path d="M138.831543,830.8720703c-8.4174805-2.1337891-12.456543-6.7001953-12.456543-12.4140625
					c0-6.9492188,8.7958984-13.3330078,24.8330078-13.3330078c6.8012695,0,14.3334961,1.2919922,21.6499023,3.9296875
					l-3.4663086,10.8066406c-6.4775391-2.3652344-12.1918945-3.4863281-16.5170898-3.4863281
					c-8.2285156,0-10.6665039,1.8085938-10.6665039,4.5830078c0,3.3916016,3.9106445,5.4169922,17.6665039,5.4169922h3.6669922
					v9.9326172h-3.6669922c-14.5463867,0-18.2495117,2.1376953-18.2495117,5.7333984
					c0,3.3935547,2.9873047,5.4169922,10.4165039,5.4169922c6.1923828,0,11.1171875-0.8056641,18.2705078-3.0703125
					l3.4584961,10.8076172c-7.5976562,2.5878906-15.3242188,3.9296875-22.5625,3.9296875
					c-16.7861328,0-25.4165039-6.2451172-25.4165039-15c0-6.4384766,5.2607422-12.1289062,13.0400391-13.0527344V830.8720703z"/>
				<path d="M139.5390625,680.7197266c-8.2255859-1.9960938-12.4140625-6.8818359-12.4140625-12.4277344
					c0-7.0214844,8.5083008-13.1669922,24.1669922-13.1669922c6.6025391,0,13.8969727,1.2939453,20.7993164,3.8603516
					l-2.9326172,9.1123047C162.9902344,665.7773438,157.1777344,664.625,152.625,664.625
					c-9.1445312,0-12.3334961,2.2666016-12.3334961,5.6669922c0,3.9033203,4.5532227,6.3330078,18.8334961,6.3330078h3.8334961
					v8.8662109H159.125c-15.3095703,0-19.5,2.5732422-19.5,6.9667969c0,4.2460938,3.6962891,6.8339844,12.3334961,6.8339844
					c6.0742188,0,11.2304688-0.8886719,18.0410156-3.1425781l2.9169922,9.1171875
					c-7.2119141,2.53125-14.6640625,3.8583984-21.6245117,3.8583984c-16.4638672,0-24.8334961-6.2158203-24.8334961-15
					c0-6.4404297,5.1782227-12.0917969,13.0805664-13.2050781V680.7197266z"/>
				<path d="M140.2460938,530.7675781v-0.1992188C132.2119141,528.7089844,127.875,523.5039062,127.875,518.125
					c0-7.0917969,8.2207031-13,23.5-13c6.4042969,0,13.4609375,1.296875,19.9492188,3.7910156l-2.3984375,7.4179688
					C163.0664062,514.0585938,157.1552734,512.875,152.375,512.875c-10.0605469,0-14,2.7246094-14,6.75
					c0,4.4160156,5.1953125,7.25,20,7.25h4v7.7988281h-4c-16.0732422,0-20.75,3.0097656-20.75,8.2011719
					c0,5.0976562,4.4042969,8.25,14.25,8.25c5.9560547,0,11.34375-0.9707031,17.8115234-3.2128906l2.3759766,7.4257812
					C165.2353516,557.8125,158.0585938,559.125,151.375,559.125c-16.140625,0-24.25-6.1875-24.25-15
					C127.125,537.6816406,132.2207031,532.0703125,140.2460938,530.7675781z"/>
				<path d="M127.7915039,394.125c0-5.8540039,4.1469727-11.9697266,13.828125-13.7094727v-0.1992188
					c-8.7895508-1.940918-12.9946289-7.0668945-12.9946289-12.2583008c0-7.3374023,8.1591797-12.8330078,22.8330078-12.8330078
					c6.2060547,0,13.0244141,1.2988281,19.0986328,3.7211914l-1.8642578,5.5571289
					c-5.5498047-2.2304688-11.5595703-3.4453125-16.5678711-3.4453125c-10.7773438,0-15.8330078,3.125-15.8330078,8
					c0,5.2055664,6.4648438,8.5,21.1665039,8.5h4.3334961v5.8662109h-4.3334961c-16.0581055,0-22,3.5620117-22,9.9672852
					c0,6.1923828,5.362793,9.8330078,16.3334961,9.8330078c5.8378906,0,11.4570312-1.0522461,17.581543-3.284668
					l1.8354492,5.5688477c-6.4428711,2.4179688-13.34375,3.7163086-19.7504883,3.7163086
					C135.9316406,409.125,127.7915039,403.1777344,127.7915039,394.125z"/>
				<path d="M128.4584961,244.125c0-5.2636719,3.1982422-11.8842773,14.5356445-14.0605469v-0.1992188
					c-9.5454102-2.0234375-13.6191406-7.0698242-13.6191406-12.0737305c0-7.5825195,8.0986328-12.6665039,22.1665039-12.6665039
					c6.0078125,0,12.5874023,1.3022461,18.2490234,3.6518555l-1.3305664,3.6967773
					c-5.2412109-2.1860352-11.3491211-3.4321289-16.5849609-3.4321289c-11.4941406,0-17.6665039,3.5253906-17.6665039,9.25
					c0,5.9956055,7.734375,9.7504883,22.3330078,9.7504883h4.6669922v3.9326172h-4.6669922
					c-16.0424805,0-23.2495117,4.1152344-23.2495117,11.7338867c0,7.2875977,6.3208008,11.4165039,18.4165039,11.4165039
					c5.7197266,0,11.5703125-1.1347656,17.3525391-3.355957l1.2944336,3.7109375
					c-6.059082,2.3613281-12.6835938,3.6450195-18.8139648,3.6450195
					C136.6289062,259.125,128.4584961,253.4179688,128.4584961,244.125z"/>
				<path d="M144.3681641,79.7128906C131.375,82.3261719,129.125,89.4511719,129.125,94.125c0,9.5332031,8.2011719,15,22.5,15
					c5.8535156,0,12.2021484-1.2695312,17.8769531-3.5742188l-0.7539062-1.8535156
					C163.3085938,105.9082031,157.2265625,107.125,151.625,107.125c-13.2207031,0-20.5-4.6171875-20.5-13
					c0-8.8320312,8.4726562-13.5,24.5-13.5h5v-2h-5c-14.4960938,0-23.5-4.2148438-23.5-11c0-6.5742188,7.2890625-10.5,19.5-10.5
					c5.4638672,0,11.6699219,1.2773438,16.6015625,3.4179688l0.796875-1.8359375
					C163.7753906,56.4296875,157.4345703,55.125,151.625,55.125c-13.4628906,0-21.5,4.671875-21.5,12.5
					c0,4.8164062,3.9423828,9.7832031,14.2431641,11.8886719V79.7128906z"/>
			</g>
			<g>
				<path d="M238.125,981.0234375c-8.609375-2.2695312-12.5-6.5175781-12.5-12.3984375c0-6.8789062,9.0839844-13.5,25.5-13.5
					c7,0,14.7695312,1.2890625,22.5,4l-4,12.5c-6.7871094-2.4101562-12.4023438-3.5-16.5-3.5c-7.3125,0-9,1.3515625-9,3.5
					c0,2.8789062,3.2685547,4.5,16.5,4.5h3.5v11h-3.5c-13.7832031,0-17,1.7011719-17,4.5c0,2.5410156,2.2792969,4,8.5,4
					c6.3105469,0,11.0039062-0.7226562,18.5-3l4,12.5c-7.9824219,2.6445312-15.984375,4-23.5,4c-17.109375,0-26-6.2734375-26-15
					c0-6.4355469,5.34375-12.1660156,13-12.9003906V981.0234375z"/>
				<path d="M238.831543,830.8720703c-8.4174805-2.1337891-12.456543-6.7001953-12.456543-12.4140625
					c0-6.9492188,8.7958984-13.3330078,24.8330078-13.3330078c6.8012695,0,14.3334961,1.2919922,21.6499023,3.9296875
					l-3.4663086,10.8066406c-6.4775391-2.3652344-12.1918945-3.4863281-16.5170898-3.4863281
					c-8.2285156,0-10.6665039,1.8085938-10.6665039,4.5830078c0,3.3916016,3.9106445,5.4169922,17.6665039,5.4169922h3.6669922
					v9.9326172h-3.6669922c-14.5463867,0-18.2495117,2.1376953-18.2495117,5.7333984
					c0,3.3935547,2.9873047,5.4169922,10.4165039,5.4169922c6.1923828,0,11.1171875-0.8056641,18.2705078-3.0703125
					l3.4584961,10.8076172c-7.5976562,2.5878906-15.3242188,3.9296875-22.5625,3.9296875
					c-16.7861328,0-25.4165039-6.2451172-25.4165039-15c0-6.4384766,5.2607422-12.1289062,13.0400391-13.0527344V830.8720703z"/>
				<path d="M239.5390625,680.7197266c-8.2255859-1.9960938-12.4140625-6.8818359-12.4140625-12.4277344
					c0-7.0214844,8.5083008-13.1669922,24.1669922-13.1669922c6.6025391,0,13.8969727,1.2939453,20.7993164,3.8603516
					l-2.9326172,9.1123047C262.9902344,665.7773438,257.1777344,664.625,252.625,664.625
					c-9.1445312,0-12.3334961,2.2666016-12.3334961,5.6669922c0,3.9033203,4.5532227,6.3330078,18.8334961,6.3330078h3.8334961
					v8.8662109H259.125c-15.3095703,0-19.5,2.5732422-19.5,6.9667969c0,4.2460938,3.6962891,6.8339844,12.3334961,6.8339844
					c6.0742188,0,11.2304688-0.8886719,18.0410156-3.1425781l2.9169922,9.1171875
					c-7.2119141,2.53125-14.6640625,3.8583984-21.6245117,3.8583984c-16.4638672,0-24.8334961-6.2158203-24.8334961-15
					c0-6.4404297,5.1782227-12.0917969,13.0805664-13.2050781V680.7197266z"/>
				<path d="M240.2460938,530.7675781v-0.1992188C232.2119141,528.7089844,227.875,523.5039062,227.875,518.125
					c0-7.0917969,8.2207031-13,23.5-13c6.4042969,0,13.4609375,1.296875,19.9492188,3.7910156l-2.3984375,7.4179688
					C263.0664062,514.0585938,257.1552734,512.875,252.375,512.875c-10.0605469,0-14,2.7246094-14,6.75
					c0,4.4160156,5.1953125,7.25,20,7.25h4v7.7988281h-4c-16.0732422,0-20.75,3.0097656-20.75,8.2011719
					c0,5.0976562,4.4042969,8.25,14.25,8.25c5.9560547,0,11.34375-0.9707031,17.8115234-3.2128906l2.3759766,7.4257812
					C265.2353516,557.8125,258.0585938,559.125,251.375,559.125c-16.140625,0-24.25-6.1875-24.25-15
					C227.125,537.6816406,232.2207031,532.0703125,240.2460938,530.7675781z"/>
				<path d="M227.7915039,394.125c0-5.8540039,4.1469727-11.9697266,13.828125-13.7094727v-0.1992188
					c-8.7895508-1.940918-12.9946289-7.0668945-12.9946289-12.2583008c0-7.3374023,8.1591797-12.8330078,22.8330078-12.8330078
					c6.2060547,0,13.0244141,1.2988281,19.0986328,3.7211914l-1.8642578,5.5571289
					c-5.5498047-2.2304688-11.5595703-3.4453125-16.5678711-3.4453125c-10.7773438,0-15.8330078,3.125-15.8330078,8
					c0,5.2055664,6.4648438,8.5,21.1665039,8.5h4.3334961v5.8662109h-4.3334961c-16.0581055,0-22,3.5620117-22,9.9672852
					c0,6.1923828,5.362793,9.8330078,16.3334961,9.8330078c5.8378906,0,11.4570312-1.0522461,17.581543-3.284668
					l1.8354492,5.5688477c-6.4428711,2.4179688-13.34375,3.7163086-19.7504883,3.7163086
					C235.9316406,409.125,227.7915039,403.1777344,227.7915039,394.125z"/>
				<path d="M228.4584961,244.125c0-5.2636719,3.1982422-11.8842773,14.5356445-14.0605469v-0.1992188
					c-9.5454102-2.0234375-13.6191406-7.0698242-13.6191406-12.0737305c0-7.5825195,8.0986328-12.6665039,22.1665039-12.6665039
					c6.0078125,0,12.5874023,1.3022461,18.2490234,3.6518555l-1.3305664,3.6967773
					c-5.2412109-2.1860352-11.3491211-3.4321289-16.5849609-3.4321289c-11.4941406,0-17.6665039,3.5253906-17.6665039,9.25
					c0,5.9956055,7.734375,9.7504883,22.3330078,9.7504883h4.6669922v3.9326172h-4.6669922
					c-16.0424805,0-23.2495117,4.1152344-23.2495117,11.7338867c0,7.2875977,6.3208008,11.4165039,18.4165039,11.4165039
					c5.7197266,0,11.5703125-1.1347656,17.3525391-3.355957l1.2944336,3.7109375
					c-6.059082,2.3613281-12.6835938,3.6450195-18.8139648,3.6450195
					C236.6289062,259.125,228.4584961,253.4179688,228.4584961,244.125z"/>
				<path d="M244.3681641,79.7128906C231.375,82.3261719,229.125,89.4511719,229.125,94.125c0,9.5332031,8.2011719,15,22.5,15
					c5.8535156,0,12.2021484-1.2695312,17.8769531-3.5742188l-0.7539062-1.8535156
					C263.3085938,105.9082031,257.2265625,107.125,251.625,107.125c-13.2207031,0-20.5-4.6171875-20.5-13
					c0-8.8320312,8.4726562-13.5,24.5-13.5h5v-2h-5c-14.4960938,0-23.5-4.2148438-23.5-11c0-6.5742188,7.2890625-10.5,19.5-10.5
					c5.4638672,0,11.6699219,1.2773438,16.6015625,3.4179688l0.796875-1.8359375
					C263.7753906,56.4296875,257.4345703,55.125,251.625,55.125c-13.4628906,0-21.5,4.671875-21.5,12.5
					c0,4.8164062,3.9423828,9.7832031,14.2431641,11.8886719V79.7128906z"/>
			</g>
			<g>
				<path d="M338.125,981.0234375c-8.609375-2.2695312-12.5-6.5175781-12.5-12.3984375c0-6.8789062,9.0839844-13.5,25.5-13.5
					c7,0,14.7695312,1.2890625,22.5,4l-4,12.5c-6.7871094-2.4101562-12.4023438-3.5-16.5-3.5c-7.3125,0-9,1.3515625-9,3.5
					c0,2.8789062,3.2685547,4.5,16.5,4.5h3.5v11h-3.5c-13.7832031,0-17,1.7011719-17,4.5c0,2.5410156,2.2792969,4,8.5,4
					c6.3105469,0,11.0039062-0.7226562,18.5-3l4,12.5c-7.9824219,2.6445312-15.984375,4-23.5,4c-17.109375,0-26-6.2734375-26-15
					c0-6.4355469,5.34375-12.1660156,13-12.9003906V981.0234375z"/>
				<path d="M338.831543,830.8720703c-8.4174805-2.1337891-12.456543-6.7001953-12.456543-12.4140625
					c0-6.9492188,8.7958984-13.3330078,24.8330078-13.3330078c6.8017578,0,14.3330078,1.2919922,21.6494141,3.9296875
					l-3.4658203,10.8066406C362.9140625,817.4960938,357.1992188,816.375,352.875,816.375
					c-8.2290039,0-10.6669922,1.8085938-10.6669922,4.5830078c0,3.3916016,3.9106445,5.4169922,17.6669922,5.4169922h3.6660156
					v9.9326172H359.875c-14.546875,0-18.25,2.1376953-18.25,5.7333984c0,3.3935547,2.9873047,5.4169922,10.4160156,5.4169922
					c6.1933594,0,11.1171875-0.8056641,18.2714844-3.0703125l3.4580078,10.8076172
					c-7.5976562,2.5878906-15.3242188,3.9296875-22.5625,3.9296875c-16.7861328,0-25.4165039-6.2451172-25.4165039-15
					c0-6.4384766,5.2607422-12.1289062,13.0400391-13.0527344V830.8720703z"/>
				<path d="M339.5390625,680.7197266c-8.2255859-1.9960938-12.4140625-6.8818359-12.4140625-12.4277344
					c0-7.0214844,8.5083008-13.1669922,24.1669922-13.1669922c6.6025391,0,13.8974609,1.2939453,20.7998047,3.8603516
					l-2.9335938,9.1123047C362.9902344,665.7773438,357.1777344,664.625,352.625,664.625
					c-9.1445312,0-12.3334961,2.2666016-12.3334961,5.6669922c0,3.9033203,4.5532227,6.3330078,18.8334961,6.3330078h3.8339844
					v8.8662109H359.125c-15.3095703,0-19.5,2.5732422-19.5,6.9667969c0,4.2460938,3.6962891,6.8339844,12.3339844,6.8339844
					c6.0742188,0,11.2304688-0.8886719,18.0410156-3.1425781l2.9160156,9.1171875
					c-7.2109375,2.53125-14.6640625,3.8583984-21.6240234,3.8583984c-16.4638672,0-24.8334961-6.2158203-24.8334961-15
					c0-6.4404297,5.1782227-12.0917969,13.0805664-13.2050781V680.7197266z"/>
				<path d="M340.2460938,530.7675781v-0.1992188C332.2119141,528.7089844,327.875,523.5039062,327.875,518.125
					c0-7.0917969,8.2207031-13,23.5-13c6.4042969,0,13.4609375,1.296875,19.9492188,3.7910156l-2.3984375,7.4179688
					C363.0664062,514.0585938,357.1552734,512.875,352.375,512.875c-10.0605469,0-14,2.7246094-14,6.75
					c0,4.4160156,5.1953125,7.25,20,7.25h4v7.7988281h-4c-16.0732422,0-20.75,3.0097656-20.75,8.2011719
					c0,5.0976562,4.4042969,8.25,14.25,8.25c5.9560547,0,11.34375-0.9707031,17.8115234-3.2128906l2.3759766,7.4257812
					C365.2353516,557.8125,358.0585938,559.125,351.375,559.125c-16.140625,0-24.25-6.1875-24.25-15
					C327.125,537.6816406,332.2207031,532.0703125,340.2460938,530.7675781z"/>
				<path d="M327.7915039,394.125c0-5.8540039,4.1469727-11.9697266,13.828125-13.7094727v-0.1992188
					c-8.7895508-1.940918-12.9946289-7.0668945-12.9946289-12.2583008c0-7.3374023,8.1591797-12.8330078,22.8330078-12.8330078
					c6.2060547,0,13.0244141,1.2988281,19.0986328,3.7211914l-1.8642578,5.5571289
					c-5.5498047-2.2304688-11.5595703-3.4453125-16.5673828-3.4453125c-10.777832,0-15.8334961,3.125-15.8334961,8
					c0,5.2055664,6.4648438,8.5,21.1665039,8.5h4.3330078v5.8662109h-4.3330078c-16.0581055,0-22,3.5620117-22,9.9672852
					c0,6.1923828,5.362793,9.8330078,16.3330078,9.8330078c5.8378906,0,11.4570312-1.0522461,17.5820312-3.284668
					l1.8359375,5.5688477c-6.4433594,2.4179688-13.34375,3.7163086-19.7509766,3.7163086
					C335.9316406,409.125,327.7915039,403.1777344,327.7915039,394.125z"/>
				<path d="M328.4584961,244.125c0-5.2636719,3.1982422-11.8842773,14.5356445-14.0605469v-0.1992188
					c-9.5454102-2.0234375-13.6191406-7.0698242-13.6191406-12.0737305c0-7.5825195,8.0986328-12.6665039,22.1660156-12.6665039
					c6.0078125,0,12.5878906,1.3022461,18.25,3.6518555l-1.3310547,3.6967773
					c-5.2412109-2.1860352-11.3486328-3.4321289-16.5849609-3.4321289c-11.4941406,0-17.6665039,3.5253906-17.6665039,9.25
					c0,5.9956055,7.734375,9.7504883,22.3325195,9.7504883h4.6679688v3.9326172h-4.6679688
					c-16.0419922,0-23.2490234,4.1152344-23.2490234,11.7338867c0,7.2875977,6.3208008,11.4165039,18.4169922,11.4165039
					c5.71875,0,11.5703125-1.1347656,17.3515625-3.355957l1.2949219,3.7109375
					C364.296875,257.8413086,357.671875,259.125,351.5410156,259.125
					C336.6289062,259.125,328.4584961,253.4179688,328.4584961,244.125z"/>
				<path d="M344.3681641,79.7128906C331.375,82.3261719,329.125,89.4511719,329.125,94.125c0,9.5332031,8.2011719,15,22.5,15
					c5.8535156,0,12.2021484-1.2695312,17.8769531-3.5742188l-0.7539062-1.8535156
					C363.3085938,105.9082031,357.2265625,107.125,351.625,107.125c-13.2207031,0-20.5-4.6171875-20.5-13
					c0-8.8320312,8.4726562-13.5,24.5-13.5h5v-2h-5c-14.4960938,0-23.5-4.2148438-23.5-11c0-6.5742188,7.2890625-10.5,19.5-10.5
					c5.4638672,0,11.6699219,1.2773438,16.6015625,3.4179688l0.796875-1.8359375
					C363.7753906,56.4296875,357.4345703,55.125,351.625,55.125c-13.4628906,0-21.5,4.671875-21.5,12.5
					c0,4.8164062,3.9423828,9.7832031,14.2431641,11.8886719V79.7128906z"/>
			</g>
			<g>
				<path d="M438.125,981.0234375c-8.609375-2.2695312-12.5-6.5175781-12.5-12.3984375c0-6.8789062,9.0839844-13.5,25.5-13.5
					c7,0,14.7695312,1.2890625,22.5,4l-4,12.5c-6.7871094-2.4101562-12.4023438-3.5-16.5-3.5c-7.3125,0-9,1.3515625-9,3.5
					c0,2.8789062,3.2685547,4.5,16.5,4.5h3.5v11h-3.5c-13.7832031,0-17,1.7011719-17,4.5c0,2.5410156,2.2792969,4,8.5,4
					c6.3105469,0,11.0039062-0.7226562,18.5-3l4,12.5c-7.9824219,2.6445312-15.984375,4-23.5,4c-17.109375,0-26-6.2734375-26-15
					c0-6.4355469,5.34375-12.1660156,13-12.9003906V981.0234375z"/>
				<path d="M438.8320312,830.8720703C430.4140625,828.7382812,426.375,824.171875,426.375,818.4580078
					c0-6.9492188,8.7958984-13.3330078,24.8330078-13.3330078c6.8017578,0,14.3330078,1.2919922,21.6494141,3.9296875
					l-3.4658203,10.8066406C462.9140625,817.4960938,457.1992188,816.375,452.875,816.375
					c-8.2285156,0-10.6669922,1.8085938-10.6669922,4.5830078c0,3.3916016,3.9111328,5.4169922,17.6669922,5.4169922h3.6660156
					v9.9326172H459.875c-14.546875,0-18.25,2.1376953-18.25,5.7333984c0,3.3935547,2.9873047,5.4169922,10.4160156,5.4169922
					c6.1933594,0,11.1171875-0.8056641,18.2714844-3.0703125l3.4580078,10.8076172
					c-7.5976562,2.5878906-15.3242188,3.9296875-22.5625,3.9296875c-16.7861328,0-25.4169922-6.2451172-25.4169922-15
					c0-6.4384766,5.2617188-12.1289062,13.0410156-13.0527344V830.8720703z"/>
				<path d="M439.5390625,680.7197266c-8.2255859-1.9960938-12.4140625-6.8818359-12.4140625-12.4277344
					c0-7.0214844,8.5078125-13.1669922,24.1669922-13.1669922c6.6025391,0,13.8974609,1.2939453,20.7998047,3.8603516
					l-2.9335938,9.1123047C462.9902344,665.7773438,457.1777344,664.625,452.625,664.625
					c-9.1445312,0-12.3339844,2.2666016-12.3339844,5.6669922c0,3.9033203,4.5537109,6.3330078,18.8339844,6.3330078h3.8339844
					v8.8662109H459.125c-15.3095703,0-19.5,2.5732422-19.5,6.9667969c0,4.2460938,3.6962891,6.8339844,12.3339844,6.8339844
					c6.0742188,0,11.2304688-0.8886719,18.0410156-3.1425781l2.9160156,9.1171875
					c-7.2109375,2.53125-14.6640625,3.8583984-21.6240234,3.8583984c-16.4638672,0-24.8330078-6.2158203-24.8330078-15
					c0-6.4404297,5.1777344-12.0917969,13.0800781-13.2050781V680.7197266z"/>
				<path d="M440.2460938,530.7675781v-0.1992188C432.2119141,528.7089844,427.875,523.5039062,427.875,518.125
					c0-7.0917969,8.2207031-13,23.5-13c6.4042969,0,13.4609375,1.296875,19.9492188,3.7910156l-2.3984375,7.4179688
					C463.0664062,514.0585938,457.1552734,512.875,452.375,512.875c-10.0605469,0-14,2.7246094-14,6.75
					c0,4.4160156,5.1953125,7.25,20,7.25h4v7.7988281h-4c-16.0732422,0-20.75,3.0097656-20.75,8.2011719
					c0,5.0976562,4.4042969,8.25,14.25,8.25c5.9560547,0,11.34375-0.9707031,17.8115234-3.2128906l2.3759766,7.4257812
					C465.2353516,557.8125,458.0585938,559.125,451.375,559.125c-16.140625,0-24.25-6.1875-24.25-15
					C427.125,537.6816406,432.2207031,532.0703125,440.2460938,530.7675781z"/>
				<path d="M427.7910156,394.125c0-5.8540039,4.1474609-11.9697266,13.828125-13.7094727v-0.1992188
					c-8.7890625-1.940918-12.9941406-7.0668945-12.9941406-12.2583008c0-7.3374023,8.1591797-12.8330078,22.8330078-12.8330078
					c6.2060547,0,13.0244141,1.2988281,19.0986328,3.7211914l-1.8642578,5.5571289
					c-5.5498047-2.2304688-11.5595703-3.4453125-16.5673828-3.4453125c-10.7773438,0-15.8339844,3.125-15.8339844,8
					c0,5.2055664,6.4648438,8.5,21.1669922,8.5h4.3330078v5.8662109h-4.3330078c-16.0576172,0-22,3.5620117-22,9.9672852
					c0,6.1923828,5.3623047,9.8330078,16.3330078,9.8330078c5.8378906,0,11.4570312-1.0522461,17.5820312-3.284668
					l1.8359375,5.5688477c-6.4433594,2.4179688-13.34375,3.7163086-19.7509766,3.7163086
					C435.9316406,409.125,427.7910156,403.1777344,427.7910156,394.125z"/>
				<path d="M428.4589844,244.125c0-5.2636719,3.1972656-11.8842773,14.5351562-14.0605469v-0.1992188
					c-9.5449219-2.0234375-13.6191406-7.0698242-13.6191406-12.0737305c0-7.5825195,8.0986328-12.6665039,22.1660156-12.6665039
					c6.0078125,0,12.5878906,1.3022461,18.25,3.6518555l-1.3310547,3.6967773
					c-5.2412109-2.1860352-11.3486328-3.4321289-16.5849609-3.4321289c-11.4941406,0-17.6660156,3.5253906-17.6660156,9.25
					c0,5.9956055,7.734375,9.7504883,22.3320312,9.7504883h4.6679688v3.9326172h-4.6679688
					c-16.0419922,0-23.2490234,4.1152344-23.2490234,11.7338867c0,7.2875977,6.3212891,11.4165039,18.4169922,11.4165039
					c5.71875,0,11.5703125-1.1347656,17.3515625-3.355957l1.2949219,3.7109375
					C464.296875,257.8413086,457.671875,259.125,451.5410156,259.125
					C436.6289062,259.125,428.4589844,253.4179688,428.4589844,244.125z"/>
				<path d="M444.3681641,79.7128906C431.375,82.3261719,429.125,89.4511719,429.125,94.125c0,9.5332031,8.2011719,15,22.5,15
					c5.8535156,0,12.2021484-1.2695312,17.8769531-3.5742188l-0.7539062-1.8535156
					C463.3085938,105.9082031,457.2265625,107.125,451.625,107.125c-13.2207031,0-20.5-4.6171875-20.5-13
					c0-8.8320312,8.4726562-13.5,24.5-13.5h5v-2h-5c-14.4960938,0-23.5-4.2148438-23.5-11c0-6.5742188,7.2890625-10.5,19.5-10.5
					c5.4638672,0,11.6699219,1.2773438,16.6015625,3.4179688l0.796875-1.8359375
					C463.7753906,56.4296875,457.4345703,55.125,451.625,55.125c-13.4628906,0-21.5,4.671875-21.5,12.5
					c0,4.8164062,3.9423828,9.7832031,14.2431641,11.8886719V79.7128906z"/>
			</g>
			<g>
				<path d="M538.125,981.0234375c-8.609375-2.2695312-12.5-6.5175781-12.5-12.3984375c0-6.8789062,9.0839844-13.5,25.5-13.5
					c7,0,14.7695312,1.2890625,22.5,4l-4,12.5c-6.7871094-2.4101562-12.4023438-3.5-16.5-3.5c-7.3125,0-9,1.3515625-9,3.5
					c0,2.8789062,3.2685547,4.5,16.5,4.5h3.5v11h-3.5c-13.7832031,0-17,1.7011719-17,4.5c0,2.5410156,2.2792969,4,8.5,4
					c6.3105469,0,11.0039062-0.7226562,18.5-3l4,12.5c-7.9824219,2.6445312-15.984375,4-23.5,4c-17.109375,0-26-6.2734375-26-15
					c0-6.4355469,5.34375-12.1660156,13-12.9003906V981.0234375z"/>
				<path d="M538.8320312,830.8720703C530.4140625,828.7382812,526.375,824.171875,526.375,818.4580078
					c0-6.9492188,8.7958984-13.3330078,24.8330078-13.3330078c6.8017578,0,14.3330078,1.2919922,21.6494141,3.9296875
					l-3.4658203,10.8066406C562.9140625,817.4960938,557.1992188,816.375,552.875,816.375
					c-8.2285156,0-10.6669922,1.8085938-10.6669922,4.5830078c0,3.3916016,3.9111328,5.4169922,17.6669922,5.4169922h3.6660156
					v9.9326172H559.875c-14.546875,0-18.25,2.1376953-18.25,5.7333984c0,3.3935547,2.9873047,5.4169922,10.4160156,5.4169922
					c6.1933594,0,11.1171875-0.8056641,18.2714844-3.0703125l3.4580078,10.8076172
					c-7.5976562,2.5878906-15.3242188,3.9296875-22.5625,3.9296875c-16.7861328,0-25.4169922-6.2451172-25.4169922-15
					c0-6.4384766,5.2617188-12.1289062,13.0410156-13.0527344V830.8720703z"/>
				<path d="M539.5390625,680.7197266c-8.2255859-1.9960938-12.4140625-6.8818359-12.4140625-12.4277344
					c0-7.0214844,8.5078125-13.1669922,24.1669922-13.1669922c6.6025391,0,13.8974609,1.2939453,20.7998047,3.8603516
					l-2.9335938,9.1123047C562.9902344,665.7773438,557.1777344,664.625,552.625,664.625
					c-9.1445312,0-12.3339844,2.2666016-12.3339844,5.6669922c0,3.9033203,4.5537109,6.3330078,18.8339844,6.3330078h3.8339844
					v8.8662109H559.125c-15.3095703,0-19.5,2.5732422-19.5,6.9667969c0,4.2460938,3.6962891,6.8339844,12.3339844,6.8339844
					c6.0742188,0,11.2304688-0.8886719,18.0410156-3.1425781l2.9160156,9.1171875
					c-7.2109375,2.53125-14.6640625,3.8583984-21.6240234,3.8583984c-16.4638672,0-24.8330078-6.2158203-24.8330078-15
					c0-6.4404297,5.1777344-12.0917969,13.0800781-13.2050781V680.7197266z"/>
				<path d="M540.2460938,530.7675781v-0.1992188C532.2119141,528.7089844,527.875,523.5039062,527.875,518.125
					c0-7.0917969,8.2207031-13,23.5-13c6.4042969,0,13.4609375,1.296875,19.9492188,3.7910156l-2.3984375,7.4179688
					C563.0664062,514.0585938,557.1552734,512.875,552.375,512.875c-10.0605469,0-14,2.7246094-14,6.75
					c0,4.4160156,5.1953125,7.25,20,7.25h4v7.7988281h-4c-16.0732422,0-20.75,3.0097656-20.75,8.2011719
					c0,5.0976562,4.4042969,8.25,14.25,8.25c5.9560547,0,11.34375-0.9707031,17.8115234-3.2128906l2.3759766,7.4257812
					C565.2353516,557.8125,558.0585938,559.125,551.375,559.125c-16.140625,0-24.25-6.1875-24.25-15
					C527.125,537.6816406,532.2207031,532.0703125,540.2460938,530.7675781z"/>
				<path d="M527.7910156,394.125c0-5.8540039,4.1474609-11.9697266,13.828125-13.7094727v-0.1992188
					c-8.7890625-1.940918-12.9941406-7.0668945-12.9941406-12.2583008c0-7.3374023,8.1591797-12.8330078,22.8330078-12.8330078
					c6.2060547,0,13.0244141,1.2988281,19.0986328,3.7211914l-1.8642578,5.5571289
					c-5.5498047-2.2304688-11.5595703-3.4453125-16.5673828-3.4453125c-10.7773438,0-15.8339844,3.125-15.8339844,8
					c0,5.2055664,6.4648438,8.5,21.1669922,8.5h4.3330078v5.8662109h-4.3330078c-16.0576172,0-22,3.5620117-22,9.9672852
					c0,6.1923828,5.3623047,9.8330078,16.3330078,9.8330078c5.8378906,0,11.4570312-1.0522461,17.5820312-3.284668
					l1.8359375,5.5688477c-6.4433594,2.4179688-13.34375,3.7163086-19.7509766,3.7163086
					C535.9316406,409.125,527.7910156,403.1777344,527.7910156,394.125z"/>
				<path d="M528.4589844,244.125c0-5.2636719,3.1972656-11.8842773,14.5351562-14.0605469v-0.1992188
					c-9.5449219-2.0234375-13.6191406-7.0698242-13.6191406-12.0737305c0-7.5825195,8.0986328-12.6665039,22.1660156-12.6665039
					c6.0078125,0,12.5878906,1.3022461,18.25,3.6518555l-1.3310547,3.6967773
					c-5.2412109-2.1860352-11.3486328-3.4321289-16.5849609-3.4321289c-11.4941406,0-17.6660156,3.5253906-17.6660156,9.25
					c0,5.9956055,7.734375,9.7504883,22.3320312,9.7504883h4.6679688v3.9326172h-4.6679688
					c-16.0419922,0-23.2490234,4.1152344-23.2490234,11.7338867c0,7.2875977,6.3212891,11.4165039,18.4169922,11.4165039
					c5.71875,0,11.5703125-1.1347656,17.3515625-3.355957l1.2949219,3.7109375
					C564.296875,257.8413086,557.671875,259.125,551.5410156,259.125
					C536.6289062,259.125,528.4589844,253.4179688,528.4589844,244.125z"/>
				<path d="M544.3681641,79.7128906C531.375,82.3261719,529.125,89.4511719,529.125,94.125c0,9.5332031,8.2011719,15,22.5,15
					c5.8535156,0,12.2021484-1.2695312,17.8769531-3.5742188l-0.7539062-1.8535156
					C563.3085938,105.9082031,557.2265625,107.125,551.625,107.125c-13.2207031,0-20.5-4.6171875-20.5-13
					c0-8.8320312,8.4726562-13.5,24.5-13.5h5v-2h-5c-14.4960938,0-23.5-4.2148438-23.5-11c0-6.5742188,7.2890625-10.5,19.5-10.5
					c5.4638672,0,11.6699219,1.2773438,16.6015625,3.4179688l0.796875-1.8359375
					C563.7753906,56.4296875,557.4345703,55.125,551.625,55.125c-13.4628906,0-21.5,4.671875-21.5,12.5
					c0,4.8164062,3.9423828,9.7832031,14.2431641,11.8886719V79.7128906z"/>
			</g>
		</g>
	</svg>
