<?xml version="1.0" encoding="utf-8"?>
<!-- Generator: Adobe Illustrator 11 Build 225, SVG Export Plug-In . SVG Version: 6.0.0 Build 78)  -->
<!DOCTYPE svg PUBLIC "-//W3C//DTD SVG 1.0//EN"    "http://www.w3.org/TR/2001/REC-SVG-20010904/DTD/svg10.dtd" [
	<!ENTITY ns_flows "http://ns.adobe.com/Flows/1.0/">
	<!ENTITY ns_svg "http://www.w3.org/2000/svg">
	<!ENTITY ns_xlink "http://www.w3.org/1999/xlink">
]>
<svg  xmlns="&ns_svg;" xmlns:xlink="&ns_xlink;" xmlns:a="http://ns.adobe.com/AdobeSVGViewerExtensions/3.0/"
	 width="800.25" height="1050.25" viewBox="0 0 800.25 1050.25" overflow="visible" enable-background="new 0 0 800.25 1050.25"
	 xml:space="preserve">
	<metadata>
		<x:xmpmeta  x:xmptk="XMP toolkit 3.0-29, framework 1.6" xmlns:x="adobe:ns:meta/">
			<rdf:RDF  xmlns:rdf="http://www.w3.org/1999/02/22-rdf-syntax-ns#" xmlns:iX="http://ns.adobe.com/iX/1.0/">
				<rdf:Description  rdf:about="" xmlns:pdf="http://ns.adobe.com/pdf/1.3/"></rdf:Description>
				<rdf:Description  rdf:about="" xmlns:tiff="http://ns.adobe.com/tiff/1.0/"></rdf:Description>
				<rdf:Description  rdf:about="" xmlns:xap="http://ns.adobe.com/xap/1.0/" xmlns:xapGImg="http://ns.adobe.com/xap/1.0/g/img/">
					<xap:CreateDate>2005-10-18T08:31:30Z</xap:CreateDate>
					<xap:ModifyDate>2005-10-18T08:31:30Z</xap:ModifyDate>
					<xap:CreatorTool>Illustrator</xap:CreatorTool>
					<xap:Thumbnails>
						<rdf:Alt>
							<rdf:li  rdf:parseType="Resource">
								<xapGImg:format>JPEG</xapGImg:format>
								<xapGImg:width>172</xapGImg:width>
								<xapGImg:height>256</xapGImg:height>
								<xapGImg:image>/9j/4AAQSkZJRgABAgEASABIAAD/7QAsUGhvdG9zaG9wIDMuMAA4QklNA+0AAAAAABAASAAAAAEA
AQBIAAAAAQAB/+4ADkFkb2JlAGTAAAAAAf/bAIQABgQEBAUEBgUFBgkGBQYJCwgGBggLDAoKCwoK
DBAMDAwMDAwQDA4PEA8ODBMTFBQTExwbGxscHx8fHx8fHx8fHwEHBwcNDA0YEBAYGhURFRofHx8f
Hx8fHx8fHx8fHx8fHx8fHx8fHx8fHx8fHx8fHx8fHx8fHx8fHx8fHx8fHx8f/8AAEQgBAACsAwER
AAIRAQMRAf/EAaIAAAAHAQEBAQEAAAAAAAAAAAQFAwIGAQAHCAkKCwEAAgIDAQEBAQEAAAAAAAAA
AQACAwQFBgcICQoLEAACAQMDAgQCBgcDBAIGAnMBAgMRBAAFIRIxQVEGE2EicYEUMpGhBxWxQiPB
UtHhMxZi8CRygvElQzRTkqKyY3PCNUQnk6OzNhdUZHTD0uIIJoMJChgZhJRFRqS0VtNVKBry4/PE
1OT0ZXWFlaW1xdXl9WZ2hpamtsbW5vY3R1dnd4eXp7fH1+f3OEhYaHiImKi4yNjo+Ck5SVlpeYmZ
qbnJ2en5KjpKWmp6ipqqusra6voRAAICAQIDBQUEBQYECAMDbQEAAhEDBCESMUEFURNhIgZxgZEy
obHwFMHR4SNCFVJicvEzJDRDghaSUyWiY7LCB3PSNeJEgxdUkwgJChgZJjZFGidkdFU38qOzwygp
0+PzhJSktMTU5PRldYWVpbXF1eX1RlZmdoaWprbG1ub2R1dnd4eXp7fH1+f3OEhYaHiImKi4yNjo
+DlJWWl5iZmpucnZ6fkqOkpaanqKmqq6ytrq+v/aAAwDAQACEQMRAD8A9U4q7FXYq7FXYq7FXYq7
FXYqhtT1Kx0vTbvU7+UQWNjDJc3c5BISKFC8jkKCfhVSdhiqJxV2KuxV2KuxV2KuxV2KuxV2KuxV
2KsW/Kx3f8uvLruxZmsYSWJqSePjirKcVdirzfyzp2tRXXlUz21yiwXmvtdGRJAESW4mMBkqNg6k
FK9R0xV6RirsVedfmP5ovob/AEXTItC1SZf0zaFbiBbb0rj0Fa6KRFp1ev7mvxKv2T2xVS0PzfqF
z+Y+tyny3q6RtZ6VYlGW0pAUlu5mkkpcmgZbpfs1NF6Yq9KxV4n5/i0vWNG/MyPX72WTW9L0+/fS
NGeeSGKGzSwLw3MNurIk3qPyLSsGofg2pTFXp2ieStJ0PUGu9KmvLeB42jk01rqaazLFgwlEMzSC
NxxpWMrWp5V2oqn2KvPrfyx5b81ec/Nb+ZbGDWJNLubax020vY1mit7V7C3ufUhjkDKryTzSgyqO
R4ha/DiqWadrmpxeU18r6HdSSalf6pqOkaBfuxleHT7S5dJrss1eS2UdYkLV5OIwftYq9J0jS7LS
dLtNLskKWdlCkECkliEjUKOTHdjtuTuTirEvzIt7CbUfLia/H63lGW5kg1SJ/wDeY3MyBbH62vRo
DJySjVT1GTl2xVBeWtN8s2v5jPD5KtIbLSbGxuIPMSaeixaebxpYTaxCOICE3MapMXKjkqkBvtCi
r0XFWN6Tb3qefPMU8kUi2ctnpi28rKwjZ0N16gRj8JK8l5U8RXFWSYq7FXYqxr8tLS6s/IGgWt3D
Jb3MNlEk0EqlJEYLurKwBB+eKslxV2KuxV2KuxV5r5x8weY285+V7WPyvdyrZajeXVs63NiouFis
Lm15JymBUcbrlR6H6dsVXeR9c8wXXnHzTLN5buoIp9St7ae4e4s3W3EGn254twmZm+KQmkYYb+NQ
FXpGKsG/OfRtE1T8sfNM1/ZW95NYaRqM1nLNGkjwTR2sjB42YEowKjcYqutbW68q+bdH0mz1C4vN
D1tbmJdOvZXupLSW2i9YSw3Epeb0So9NkdmAJTjx3BVZvirHvMnk3ynqkzarq0TwzwQlJ763urix
c26VcpNLbSQGSJak8XJXrtirzvStPubufRLrTuegWnmeU2Oki2VYpbLy9Y28lzFDCGBEU17IgkkI
HII1PtICFWY6XBf+XvPNroiald6hpGr6fdXkUN9K1zLbXFjLbxsUmespjlW7FQ7EKyjjTliqjqum
nzr5k1fQNTmkj8r6OsEN3pcLGJr+e4jE5NxIhEn1dI2VRGpAduXOqjjiqVfpf/lVWlS6NexmTy3F
DO3le/RSWWRVaRNMuAo+KVj8Nu/WX7J+MVdVn3lu31G38vaXb6nK0+pQ2kEd9MxqzzrEolYkdSzg
nFUxxV2KuxV2KoXStP8A0dpttY/WZ7z6tGI/rV2/qzycf2pHoOTHuaYqisVdirsVdirsVS+60S1u
dasNXkeQXOnR3EUEYI9Mi69PmWBBPIeiONCOpxV2k6JaaXJqEkDyO+pXb3twZCD+8dEjovELRQkS
gfrxVMMVYL57/K601zR/MK6Ncz6TrGtWVzBKYbiSKzuJpoDEpuoKSxEGoDusfqce9aYqnmh+S9L0
q/bVGnutS1d4zAdR1Cdp5ViJDNHEvwxRKzKCwjReRpXoMVT7FUs8yeX7PzBpMmk3skqWVw0Zuo4S
q+tEjh2gclW/dyheEgFCVJFcVWeYvLVlrlnBBLLNZ3FnMtzp9/aMqT206KyCSIusifYdkKurKykg
gg4qhdA8oDTdTm1i/wBTuta1maEWwvbwQp6VuG5mKGK3jhjRWajMeJZiBU7CirWteTo77VBrGn6l
eaJq/pLBNd2JhYTxRlmjjnhuI54ZAhduLcQ4qaMMVS+4/LHTtVP/ADtepXvmZFVhFa3xhitY2deP
Nbe0itkLqCeDycmU7qQcVZLo2nNpml2untd3F/8AVYxELu8ZXuJAuwMjosYZqbcqVPU1O+KozFXY
q7FXYq7FXYq7FXYq7FXYq7FXYq7FXYq7FXYq7FXYq7FXYq7FXYq7FXYq7FXYqkPkXzhY+cPK9p5h
sYZbe1u3nRIZ+PqA21xJbtXiWG7REjfpiqfYq7FWIaT+ZelanJpKRWs6HV9U1DR4OfD4ZdNS4eR2
ox+BhaNxpvuK4qy/FXYqkvmnzVZ+XYdNkuopJv0nqVppUCxcaiW9lEaseRHwr9pqb0xV0Pmqzm85
XflVIZDd2dhBqM1xQeiFuJZIkjrWvP8AclunTFU6xV5t+ZP5y6d5bttd03RrS81jzJpWnzXc6Wds
09tYt6LSQyX0paJEj25MA3Lj26YqmHkX807HzHJZ6Ze6bqWj63cWouUg1C0aCKdVVTJJbyqZYnSr
VHx1p2xVnOKsK1/8yLm08xXHl7y95evfMup6fDHcasLSS3gitUmBMSPLcSRqZXUcljXfjviqZaL5
+8uap5Qk81iV7TS7ZJ31AXS+nLatalluIp034vEyEECvtUUxVMPLOtNrmgWGsGzmsBfwrOlpc8RM
iPunMKWAJWhpXbFUr87+frHyr+jrb6ldarrOszNBpOkWKq087xrzkasjIiRxru7s2wxVAaB+ZU91
5kt/LXmLy/e+WtZvYZLjTY7l7e4guUgoZVintZJU5orBmVqbYqzbFUqs/MVrdeZdU0BInW50q2s7
qaU04Mt806oFoa1X6q1ajuMVTXFXYq7FXmv/ADjj/wCSd0X/AIz6l/3U7nFXpWKuxVhGi/ljBpcm
jOuoNL+h9X1LWVBjC+o2ppcoYj8R4iP659rvx6CuKs3xV2KvH/ze8r3955o8nxJ5k1WFNU8wQtHZ
xmyEFqLW0nm9W35WzSeoGjFPUZ13O3Siqh5O8n6lL+bnnB2826zI2jx6PbtKzWBe4VopLow3FLQL
wHqCgjCNRjU7iir2fFXhX5laB548paV+Y99pNhBrnlfzZZXdzfkTLb3unytYtBLKQ44TwhV5cVIc
dKeKrOPyt/Mjyx5g02z0O3eaz17T7G3N1pF/C9tciMRqvqorikkZ7MhI3HjirPcVeaTS+ZPJ3n7z
Nqi+Xr3XtG8zfVLq3m0sQvNBc2lqlq8E8cskJ4usSsrgkCtDirz71VhS70Xzg66Vo/6Ul82efIEb
6wkbX1wG0zRf3QYyySlUllVF+ILt9rFXtHlf8w/LPmS9uNPsJLiDU7WNZ5tOv7aeyufRc0WZYrlI
2aMnbktRX5jFWGfnlf2+mXnljW9KuBL560q6kfQNDRHml1CG4QR3lt6cQZ0Vo1B9UjihUVxVD/l5
qF75+19fzI1uWLT7Py8t5YaZ5ajLPcWUrEJdy6gzLGwnZI6CPjRVodzuVXqWia1put6RZ6xpc31j
Tr+JLi0n4unOOQVVuLhXFR2IriqDsfLiWnmvV/MInLvqtrY2jW/GgjFi1wwYNXfn9a6U2piqc4q7
FXYqwz8nbLRrH8vNNttG+uDTklvTD+ko1iuqtezNJzRdgPULcPFaHFWZ4q7FXYq7FXYq8e87fl89
5+anlDhq2uehdSave3Ekd7KEtStuqqsDdIAxuOAUdV26A4q3+WXkF083+b9Wm1TWh9V1xILcT3kt
LqO1s7ejXAP9+tWKgn9kU7Yq9gxV5J+b3n++sPK3nPQtW8t6lDbXGl30Ol63axG8splls2VTO8NW
tmDsQfUWlBy5UxVL/Kj3/nLzj5C1jT9CvLDSfKWnzi91rUbdrT6011ZC3jt7VXpJKgYmQuV47be6
r2vFUl85+Y/8OeWr7V0tZb64gQLaWMCs8k9xIQkMSqtT8UjAE9hv2xV5hrfkrUfLHlfyxrWoQNrO
oWPmGLzF50e2iMrySzRSxyXEcagu62byp6aqPsJWm2KprYa/pvnf82NB1fyys1xpPl/T79dU1gwS
QQyPfeiILRGlVGkZTE0jACi7b1JGKofVNVg8k/nFrPmXzPa3B0PW9Os7XSddigluYrI2xf6xay+i
sjxCZ2WSvHiaexoqw38xtU/xNf3Wp/k1DqF55j1K0msvMc1vaywadPZmB1DTyXIgQ3cdR6DIS37J
22xV7V+W91os/kbRU0ZZotPtLSG0iguo2huIvq6CIxzRtusi8fi8eoJG+KskxV2KuxV2KuxV2Kux
V2KuxV2KuxV2KuxVD6jp9lqOn3On30K3FleRPb3UD/ZkilUo6N7MpIxVUt7eG2t4reBBHBCixxRj
oqKKKB8gMVVMVdirsVdirsVdirsVdirsVdirsVdirsVdirsVdirsVdirsVdiqncXFvbW8tzcypBb
wI0k00jBEREHJmZmoAoAqScVdb3Fvc28VzbSpPbzoskM0bB0dHHJWVlqCpBqCMVVMVdirsVdirsV
dirsVdirsVdirsVeS/8AOM/mLXde8h6hea1fz6jdR6xdwJPcOZHESLHxQFv2RU0GKvWsVdirwGy8
3+aH0by9K2q3JkuPzIl0udzK1XsRJdAWzb7xfAvw9NsVe/Yq7FXhH57fnh5Z0i80zy5p3mCWx1ux
12w/xBHCl3GYtPoZLgtIkfGROLJVY2LGuw2xVBaT/wA5F+R7z86LmX/E0x8qTaVBY6ZAYbwQyajJ
chmYQ+jVW4njzdR86Yq+hMVfOH5leaPPfnTUvzM0HTdaTy/5b8laVM17YpBHLc6lztZXdWdzyjjP
plSU7EbEnZVln5I+XPzP03RPKV7N5og1byde6RbSy6TdWqxXNoJLRWgjtp46l1QlVPqH7I6VNcVe
x4q8bvrXzF5//NrzX5ebzNqfl7Q/KFvp6W9voswtZri41CA3Bmml4uzKlOPDp0/yuSqA8v8A5ueY
dJ/LDXP0lMNb82aTr135U0OQKofUryNlW2fiKA7SVbxCnvir1byNomraJ5V07TtZ1KbVtXjj5ahq
E7mRpJ3JeTiT0RWPFB/KBirz/wDPfzL5hs9Z8k+WtO1p/Lem+Zr2e31TXIVHqxCJYzFCkjCkbTNI
QG67eFcVSRG8xfl/+cflLyppnmvVfNOn+YI7k6tpeszre3FrHEnKO5WYKjIpPLt0Ujwoq94xVgGm
6vqkn5463pL3UraZBoNlcQ2ZY+ksz3MqtIF6BmVQCcVZ/irsVdirxj/nFGCeH8utSWaNo2Ot3pCu
CpoVi33xV7PirsVU/qtsAAIkor+oo4jZ/wCYf5XviqpirsVfOf5x/m15bn8/eTtONrqXHy5r0txq
I+pyfvGs1aMG32rN8VT8O1N8Vd+XP5teW7v88PON/wDVtTCeYJNG07SlNnIPTKQmKQ3Ip+6HqsCC
x+zvir6MxV5B+fH5ReTda8t+YvOBjmsPMenaTeTG/sZTC06wWzMIblaMsiMq8G25Fdq0xViX5V+b
vzB8mXv5d+XPMF7DrflXzppcLaHKIxFdWDx2scv1c8f7yNBKiVbcjeooVKr6MxVgfm38odM13zGf
MthrOqeW9cmtxZ3t5pE6wm4gX7Kyq6SAsv7LChH0CirwuN00Z7TW/JlqlxpOnasnlT8vpL9jLHd6
xqLML/WLhl4mT+7McbD4fADjTFXrGleYPzJ8qfmN5f8AK3m/V7XzHpvmqG6+pahFaJYSW11ZRes8
bIjOro6bKTuT4U3VSj83J7/8yPNz/k7pMVtbwW1vFqnmDW7qP1Xtk5KYls46r+9PMVavRiPHFWK+
WtQtvyS1PzLYecbcSa7f211eaB55l9SY6ksUfNbSV5GkMcqsi/ADRjT/ACSyr3D8rdY1/Wvy90HW
Nf4fpbUbRLq49NPTWkxLx0Xt+7ZcVZOIohIZQiiQjiXoORA7VxVdirsVdirHvI/l7zBoOkzWeua/
J5ju5LmSeO+mhEDJE4XjDxDy1CUO9e+KshxV2KuxV2KuxVifmDyIdZ8/eVPNjX3op5WW/Edh6XL1
21CAQFjLzHDgFrTia+2Ku8meQv8ADeu+atXa9F5L5mvxfFBD6XoKqcEi5c5PUp/Nt8sVZZiryH8z
PyV1XUrfzNqnlHzDqWnajrdpcfX9CWVJbG/la2MQj4TlVhaUKsZfl8I6UxVr8p/yNfQ30DzJ5r1O
81bzLpemw2tjY3Lp9W0wGARvBAsZdWMYrHz5UPXrvir1/FUk866Fqmv+V9R0XTNT/Q11qERg/SIi
9do43NJOCc4viZKqG5fDWuKsf8y/lFoWq/l9YeTdPnk0iLR2t59Fv4AGktrm1NY56HiHYkty3Fan
cHfFUD5c/LDzQfOdh5u87eZF17UdGt5bfRbe2tFs4ITcrwnmYBn5ySJ8PYfhRV3nX8pNS1LzhF52
8o+YZPLPmgW31O8m9BLu3uoAQVSWF2UbUG+/QbVFcVSbW/yM80edikH5jecpNU0m3YyW2k6ZZxWE
YmKFFleQmZ3K8jQH+JGKs/8AIHlzXvLflu30bWdb/T8ln+6tb9rf6tL6CgBEl/ezCRlG3Pao6iu5
VZHirsVdirsVdirsVdirsVdirsVdirsVdirsVdirsVdirsVdirsVdirsVdirsVdirsVY75N/MPyf
5zivJfLWofX49Pl+r3bejPDwkIrx/fJHXp1FRirIsVdirD3/ADc/L1NNn1JtWpZW2qnQJpfq9z8O
pChMHH0uR6j4wOH+VirMMVdiqR+bvO3ljyhYW9/5ivfqVpd3KWVvJ6Usxe4lVmRAsKSNuI23pTFW
/wDGnlr/ABd/hD65/wA7ELX6+bH05f8Aeblw5+rw9L7X7PKvtiqd4qw38x/zW8oeQ9KubjVb+3Gq
LbS3Gn6Q0vCe5dFYxxqFWRkWR14cytBiqD/Lf86vI3nmysls9StrfXbiFZLjQ2mrPFIV5PGnNYjL
w7si4qz7FWE+evzl/LzyPfQ6f5h1P0b+eMzJaQxS3EgiFf3jrEr8F+E/a8MVT7y75v8ALXmPQI/M
GjahFdaPKrOLsEoqhPt+oHCtGVp8QYCmKu8p+bvL/m3Rk1ry/cteaZK7xxXJimhDtGeLcRMkbMA2
3ICmKqHnPz55S8l6WNT8y6jHp9qzcIuQZ5JH68Y40DO58aDbvirHPJv5+flX5v1dNH0XWQ+pygmC
2nhmtzLQVIjMqqrNQfZrXFXoWKpOnm7y8/myTykt3XzBFZ/pJ7L05drUyCL1PU4+l9tgOPLl7Yqn
GKuxV2KvnX/nDb/jlecv+2qv/EGxV9FYq7FXhE35D+b38p6jo4vNP+s3fnVvNEbmSb0xZEKPTY+j
X1vh+zTj/lYq93xV2KvmX/nJaz/Mq680eV9KfU9OOiatr1qvlyz4OJorlQsSyXLBfiRXnP2a7HFU
t8t6X+dV5/zkJ5h9PV9I/wAT6Tpttb6nfNA/1VrWcQTKkKcOQk4kfER44q+rMVfHX5z6Vc+V/wAy
/O+u+bvLs2taT5i0y4tfLmshBNDaXM1sIrdjy+BGiYcd6Mv2kr3Venf84/W35Ma9ofla+0yLT288
6BZILoxJ9XvBKYTBM8qUjM4o5HMhgDShrir3fFXz1rfmGy/Lj/nIPzJ5n816fctovmHTrWLRtVgg
e4VHhiijkt/h+yZHiO3+rXY1xV5/5cutdPlK58hWkbeXG8/6vd6xcLcARDTPLYCCSaQNxEYlETIl
aBlX/KU4q+mfIPmL8t59Nt/L3k3V7C9g0m3SKOzs7iOV0hjAQOyqeRqerdyfHFXl/wDzlTotxajy
p5/Vba8tPKd6HvNJu3VFuEmliYBA+zEmHiygE0NaGhxVjUGqy/nZ+Z/lrzboel/oXyh5ImS51LXL
z045ZZImjuTA3FiOKekAN6KrMxpUDFX0zYajp+o2kd5p9zFeWctfSubd1ljbixVuLoSpowIPvirD
LfyHq8f53XPntprc6RNoA0hYAz/WfXF0k/Irw4cOKdeda9sVZ3irsVdirxP/AJxi0nynp2neZ18u
+YH1+OXUA9272Ulj6MnE/uwJHk5/6wpir2zFXYq7FXYq7FXyv+cHlP8AMm4/OXyjpjecPVk1TUL6
+8u1tYwNLRGEiDr++4ooX4v5ffFVP8pPJ35lah+b3nS7h85cLzRb+yttevjZof0kiM4aIA0EXFbf
iePiDir6sxV4T+cP566Fpll528j69pt9pl1cabd2uh37xM9te/WLMopVgAV/fOVrQrtUkdMVeP8A
5XQaZ5j/ADK/LiTyNpU9teaDZ25846nGhhgdo1pKWptVkqhY7yFqb9Sq+1sVSvzT5k0vyx5d1DX9
Vk9Ow02Fp5jtU8fsoterOxCqO5OKvlrzz5W8y3n5N63+ZWtwyfprzdf2d3qNvGSWttBV/wDR7dR2
WvpOfbjy3BxVPmu/y11D87Py1P5UxWwkt47l9bfS4vSRbIxKIxc0UDnx9QNz+LcA7lcVU/zfv9Jt
P+cjtGm/MqN5PIUdoDpAmR5LL1uHxNJGgYPSc/GKHbhy+HFWG/mpr/lHRfMN7e/k1rf1mTzTaXNp
5i8uWMEslv6ckL8riKihFKhmai7oakfCSMVfQX/ONl75al/KDQbLQ79b36hEU1BRUPDdzO1xNG6n
cUeU8T0I3GKvT8VdirsVdiqC0zRNF0pZV0uwtrBZ25zLbQxwh2/mbgFqfc4qjcVdirsVdirsVQs+
k6VPfwahPZQS39qCLW7eJGmiDAhhHIRyWtd6HFXWmlaXZT3M9nZwW094/qXcsMaRvM+/xSMoBdtz
ucVRWKpf5g0LTdf0S+0bUo/VsdQgltp1GzcJkMbFTvxajGh7Yqt8t+XdL8uaFZaJpcZjsbCJIIFY
8m4oAoLN+01BucVTLFUNqOmabqVq1pqNpDe2jkF7e4jWWMlTUEo4ZTQ4qrvDE8TQuitEylGjIBUq
RQqQdqUxVL9H8seWtFaVtG0mz0xp95zZ28UBc9fj9NV5fTiqI1HStL1O2NrqVnBfWxIJguY0lSo6
Hi4YYqhdF8q+V9C5foTR7HS+Y4v9StobeorWh9JV774qq6Z5e0DSXmk0vTbWwe4p9Ye1gjhMnGpH
MxqvKnI9cVR+KuxV2KuxV2KuxV2KuxV2KuxV2KuxV2KuxV2KuxV2KuxV2KuxV2KuxV2KuxV2KuxV
4l/zjf8Amx5v8/X3m6HzDJBImjy2iWXoRCKgma5D8qE8v7lcVe24q7FXzNq35+fmFa+SPPOsRTWw
vdA8xLpWnkwKVFsZHWjrX4moo3xV9JWEzz2NtNJ9uWJHamwqygnFVfFXiH/OQv56P5Os7PT/ACpq
1j/iT68kOpWsvGZ4IDEzVkjr8HxMhqcVQR/5yL05vztGip5h01PIMdl6kl+SnBrn0q8BcFqfaYfd
TFXvmKvnj82Pz585yecNU/L38vtGivb2ytpf0rf3BPwKsXOZogJIlQRK1Obtu2wXpVVjv/OM/n/8
2Y7bR9Jm0JtX8o6nezR/4gZ5XmgcAtJ6snKUBV4fCrotenLfFX1Tirwvzt+YX5r67+bt7+XP5dzW
OlyaLZJe6jqN+nqczIkbhRVJQF/0iNQAla1NaYqv8hf85CzS/lZ5h8x+cYIodY8rTvY3UcB4pdTk
AQKg+LizueDUqBTlsNgqz38oNQ886r5HstY86NENW1Ot1FawxeiILaQAwxstSSxX4zXcVp1GKsN/
5yD/ADj8yeSrjQvLvlW2hk1/zC5WK7uhWKJeaxIFBKqXZ36seKgbg12VYXqn5tfnl+WPm/QrD8xZ
tM1rSNbahaxULIiBlSQoVSA84zIpoyEN0B7hV9NYq8vufzB8xx/85CWvkZXi/QMujm/dPTHq+sC4
r6nWnwjbFXqGKuxV2KvmD/nC3/jqfmF/xnsP+J3uKvp/FXYqxWb8rPy9msNQ0+XQrZ7LVbkX2oQE
NxmuQSfVff7VWOKsojjSONY4xxRAFVR0AAoBiq7FXxp/zkZq35N6j+ZGjfo9ka/j1aWDz5c+neKU
S2lhgZWDJR6KkorBX7PeoxVLfJsf5Aal+emsW93FE3ke9hitfLVrwvwr3shto1oAPWWrerUy0Xf5
Yq+3cVfM/wDzkX+T1xo82s/mx5W1qXTL5I1/S1kKgSCbhbOY3U7c1Yc0cENuajpirGfyI/NHzX+X
N55b8j+Z9HRPL/mgwXmj36keqqamV9KXkrNG8ZZl5KeLJvXwxV9fYq8f8/fkl5mvvPz+fPInmb/D
mv3lsLPU/UhE0cyKqoGFeQHwRoKFTuoYEHFXz1qWm6T5Zvr7TZZZPMflnyTeLqPmac0jj1TXpyIY
bSv7zjFFxYNy5GgmP7SjFXtXlr8+vzDtPNXlfSvP3la30nTfOIRdEvLSRiweUqIxIheXvLGGU8Sv
IH2xVJf+csNV8u+Yb3R/IOm6XNq/n95Fl057dgn1VJ6ckdmBD+qqVK7BQA5YU3VeaaLqC6B+YWqX
n51ve33mzy3YGfyzaX0nOyuZrWNngjaRQ9RIygxsPhZq8qtsVX1Z+UHn698++R7XzPd6cNLN3LMk
NushlVkhkMfMMVTqysOnbFU+byp5cbzInmZrCI69HB9VTUaH1RDueFa0p8RxVNsVdirsVefflVpP
5q6fca23nu406eGZ4TpA0+OOMqqmX1fV4RQ12aOla98Veg4q7FXYq7FXYq8U/MP8hovMX5qeWfMF
jpOlRaBaStc+Y4jFEkl5K8pkYyxiJhPyp8XqHepxVZ+Wv5BQaF+Y3mzzBrej6TLpV5dCbyxbRxxy
/VEWd3VkjaJVgYLwpw6dMVe3Yq+bP+cgvye8/GLzT5p8ueYbq603WBA+reVxHI5l9P0oU9JY+auV
EakVQMAPtHFVP8p/+cdvNN9qXlXzn581s3Uek2dlLo2iBZA8EcKLJbQTeosfp+iackVTVq1Piq+l
8VSTzsnmqTyrqUPlQwr5gmhMVhLcsUijdyFMpIV941JZRTcgV2xV5ev/ADjpbf8AKjJfIS3SRa7d
smoXeqHkyPqIYOSx+0Y6D0gaVp8VK4qkuh/lB+cPmHzb5PvvzCu9Ng0nyKyPpy6eWaa5kiaNkZ6i
g5G3j5H4dhstSTiqYfm5+R3nTU/zCs/zH/L/AFW3svMVsiLNb3dQpaNDEHjbjKp5RHgyOtKd96Yq
xfzL+R356/mheWZ8/ajo+l2mnq6wSWkIlnJYD+QKSrEbgygDqFxV6l+Rnlr8yPKflpfLHm1NPmst
OHHSb2xkYuYyxJiljMcfStQ/U999yq9LxV2KuxV2KuxV2KuxV2KuxV2KuxV2KuxV2KuxV2KuxV2K
uxV2KuxV2KuxV2KuxV2KpPo3nLyhrd1LZ6Lrmn6ndwKXnt7O6huJEUEKWdI2ZlHI03xVOMVdiqRH
z75GWG+mPmLTBDpciw6nKb23420kjFESdudImZ0ZQGpUgjFU4tLu1vLWG8s5o7m0uY1mt7iFg8ck
bgMjo6kqyspqCOuKquKpdrfmTy7oNvHc65qlnpVvK/pxTX08VsjPQnirSsgJoCaYqpnzZ5WGrw6K
dZsRrNwokt9N+sw/WZEKlwyQ8vUYFAWqB03xVNcVQeraxpmkWMl9qVzFa20SlmkmdIwaAmgLlRXb
xxVin5W/m95X/MnTru+0KO5thZTehLb3qwpMfhVuapFLN8HxUqT1xVm+KpP5h84+U/LcccnmDWLP
SlmqIfrc8cJenXgHILU70xVH6dqem6nZRX2m3cN9ZTjlDdW0iyxOK0qroWVvoOKobRvMvlzXBOdE
1Wz1QWzBLk2VxFcCNzWiv6TNxO3Q4qiNT1bS9Ks3vtUvILCyi/vLq6kSGJf9Z3KqPvxVJ9C/MXyF
r939S0XzFp2o3m5Ftb3MUkpA3JCBuRA8QMVZFiqXv5h0CPWY9DfU7Rdalj9WLS2njF00YBPNYC3q
FaKd6dsVTDFXYq7FXx//AM4d/wDk0/NP/MBL/wBRkeKvsDFXYq+Sbn8nPzLfy1+bVouhym48w6tY
3OjR+pDW4ihvrmWR1+Og4pIp+KnXFX0r+XWm32l/l95Y0y/iMF9Y6TY213ASCUlhtkSRCVJHwspG
xxVkOKvjb/nLrzH59vfMVv5d1TS4rby5DdNJ5evUR1lu2EMay8mMjI3BpqbIuKsZtvNf5wT/AJ7R
63B5cgk896ZB6Q0MRzGGONbP0N4zPz/uZeX971P0Yq+67V5ntonmXhMyKZUHQMR8Q798VfD358ag
dV/Py+07z1fXdl5csnEVr6C8zDbG3DxNCh5D97JQuwBO52NOOKph/wA4uflZpnmbUrbzSuuGz1Xy
7qkcsmlIVLT20apIp+FlkVWkqpJBVgCMVfauKvkP80/8ID/nKC9P5oer/hH6hEdP5+sY+H1NePH0
P3nD6z6v2f2+u2KsQ/Ln8xde8ufldr3lzQTPLqXmvVI9P8tQA/GnqJwupU8HKvDGN/tGo+ycVfWf
5O+RNI8ieSbPy5aSxT38Y9fV5o2DGS7kA9VjTfitOC1H2QO+KvFf+c19M8xyx+XNRVJpfLFsZUvB
EfgjuZGXi0goQC6VVGNabjvuq8h842PkPV/OPlu0/JKy1Aai8cTyqzSl1vOSshUysxVoqEyOD6Y6
g0BOKvv23EwgjE5DTBVErL0LU+Ijp3xV49qnknzTN/zk7pHm6OwdvLtvpL202ock4LKY5wE48ufW
Rf2cVeyYq7FXYq+af+cZvJelaH+YPmC8s/NOl65LPaSI9nYNMZYgblG5P6kca0BHHY9cVfS2KuxV
2KuxV2Kvib/nIA/m5f8A5taTpGsNDJI2pS/4IgU24/cXN4I7Yycehb04wTLvtviqG/Ln/ldWofnr
rF7p7QTebrSRovMshNrwWBJ44LhU5fu6jgF+DfbFX3Fir5P/AOcpPzO8i6suv+TLjSCPNOiy2q6Z
rJjR+SN6cs8Yk2kjoJGHHdWpWvTFXjXkwQw/mR5L/wACz3j6nI1h9d5DiVvWb/S44+NOUHD7XLty
rVd8VforirH/ADnoHkbUNLlvvN2m2N7YaZHJcPPfwxyiGNF5yMGcEqKLvTrir5B1mz1TzD5V83/m
7ZWn6H0iwMWj+TbK2jWFLa0e4WKaSJY+KpRJWUlducj03XFUq0+Dy35V1P8AK3WvIetyXXmfVWT/
ABFaxzCQxzPNCvoPEgDKJDJIhRvtBQe9Sqzj/nKLzfq99+amneSdb1CfR/Iw+pyXbwgkSxzPWa5Z
QP3npbqq7gFa0rirzzz2dH/LjXr1Py082RatoXmLT5rO7hjkEs0UUq8XjmdFVK1PKNlow3BFPtKv
pL/nERrE/lOPS1Fb6/mvp7jUYeZeS3duMUcbhviHKOFWHY12xV7ZirsVdirsVYr5U/K3yD5S1K51
Py7pEen314hiuZ0eVy6M4cikjuPtKDsMVZVirsVdirsVdirHta/L7ydrfmHTvMeqaZHda1pPA6de
M0gaIxuZEoqsENHNdxirtC/L3yboOu6lr+kaZHa6xrDO+pXitIzStLIZXJDsyjk55fCBirIcVYJ+
bP5Q+XvzF0J7G7WGz1Osf1fWhbxzXMSI4dkRiUbi4FCOWKon8uvyp8oeRtKtLfTLC2OqQwLBdayI
ES5uCAAzM/xMORFSvKmKsyxVLvMXl3RvMej3Gjazb/W9MugouLYu6BwrBwCY2RqclHfFVOy8q+XL
Hy4nlq20+FNBSE2w04ryhMLV5IytXlyqeVevfFWM+WPyL/KjyxrS63onl6K21OMsYrhpbif0y1am
NJpJEQ79VAxVOfOH5d+SfOVvHB5m0iDUlhqIZJAyyxg9Qk0ZSRQe4DYqx7Q/+ce/ya0S6+tWPle2
aahWt0894oBFDRLqSZR160xVNvKn5T/l95S1KXUvLekLpl5MhjmeGWfi6E14tG0jIRXcfDt2xVlu
KuxV2KuxV2KuxV2KuxV2KuxV2KuxV2KuxV2KuxV2KuxV2KuxV2KuxV2KuxV2KuxV4F+UP/OSWt+e
vzEbyrd6NbWduI7mT6zFJIz1g6Cjbb4q99xV2KvnaT/nKDXkt/zAl/QlqT5OkjS2HqSfvw+orZfv
PD4X5bd8Vev/AJW+cbnzn5B0jzNc26Wk+pRu728RLIpSV49i2/7FcVZViryL8+fz1b8trbTRplva
6pf3k0kdzaySkNCsaKwLBCWBPMUriqRRf85KXb/mnpHk36np/wCj72G0e+1T6yeMTz2i3MoBNE+A
txFTX6cVe9AhgCDUHcEdCMVeL/m9/wA5PeWvy/1l9AtdOk1vW4AjXcKyi3gh9RQyq0pWUl+LBuIT
6cVeV/kx/wA5ReY5fOkmnebmu9XttduYbXSYYFgrayzTFFWnGIup9RVJ5V26HFX15irw382v+cid
Y8ted18jeT/L51/zAkaSXKn1Hozxev6UcMI5uRDRy3LYYqmf5Yf85F6B5t8j655k1e3/AEPL5aRZ
NWhD+ohSRWMTRMQpJlaNlVOvLbeoxVNvyP8AzJ80fmHoN35g1XSIdJ0tpjDpQjd5JJglfVdiwUcV
NFBHUhulMVQX55fn3pv5YxWdpHYnVNc1BGlgtS/pRRxKePqSvRm3bZVA3odxiry+w/5zE806Zqlt
H5z8nmx067pLHJD60Ewt2PwyxpcDjMPkVBxV9P2F7a39jb31pIJbW7iSe3lHRo5FDIwr4qcVeZ+Y
Pzh1LS/zx0T8uY9PhkstVt1nkv2dxKhZJmoFHw/7pH34q9TxV2KuxV8Qf84sf+T5f/jBf4q+38Vd
iryR/wDnGXyG0XmqI3+qcfN7q+pH1besZS7W9Hof6P8AD+8Wnxcvh998VZ/5J8oab5O8rWHlrTJZ
prHTkZIJLlkaUh5GkPMosandz0UYqnmKvhH/AJyhsvKJ/Mu5v9E1pdQ1C/nlj1u1pRbKe29O3EZN
PFGr8sVYxpfk38vrz805fLkvmUw+Ug8iQeYCq1k4xVSi9Pjl+HFX6I2sAt7aKAHkIkVAx6kKKVxV
8Z/85Lfl75o8l/mEfzKsZYpNM1DUIZbSZwkjwXyx+oI5IZAVdT6DMpoRTY+6rGPyN/Mfy35b8+TX
XnHRkvV1i6t7iLUCi+pYXHqNIlzGjDlxPrVPFgePTl0xV974q+dfzX/Jv80Y/wA3E/Mz8upbefUZ
kUSwTtGjQyLa/UyQJv3bo8I8ag9sVfPWreXtW8qTXvkbVL9Y3uJLfUPOL2pEwgitgzQwepVVkkHr
livLi0jRrXkMVe9+Qf8AnK3yJZHR/LX+G7rQfLahbLT9QeRZUREPBXkUIvf+8ZWYg+OKpb/zmrZ+
TZE0e8k1H0vN8KGOHTUXn6tkzkl5CP7rg/LgT9rcUNKqq8L1Hzhq/n3UbFPPmum3stAsTFB+5rO6
QgVhiVQqtcTUHxSso23PQFV9sfkf+YXlvzn5NVvLmn3WnaVobR6TBDd8C3G3gj4gFGcGiMoxVF6r
+UXlvU/zL038w57m8XWtLiEFvbxvELVlVZFq6GJpCf3x6SDtirN8VdirsVeBflDpX5m2/wCYjTa/
+X+h+X9J9O5A1fT7G0t7nkfsL6sUjvR/2tt8Ve+4q7FXYq7FXYq+UPzh/wCccdV1L827K78t6Nc3
GgaxOl55jv8A6xFRJ7u9ka64CQqyhIiGFAeuKoT8vf8AnF+8m/NPWE8yaNd2Xku1e6k0Sczx85PT
ulForGN3aphJY1HbFX11ir40/wCcs/JHnvTdbvvNN5qKz+UtavrZLexjlkAiuYrRo4vUt2+DkIop
KOpPU9K4qhfy/wD+cd/zO893/l/XPNsiW3lhLSy+qzyyxSyyaZFEpt4YIYS/ENHQfvOJFSSCdiq+
1cVSfzjqWuab5Y1G80HT21XWo4T+j7BSq+pO3wpyLsg4KTybfoDTfFXz35Z/5xx8zXn5SebH134P
zD81OLhjcOrFBb3K3KxO6ErW4kQs5rTdf5cVefwfk5+eHm208qeSNX8vDSNH8tPdxrqsnBQsV5OJ
Z3dldllKlaJ6Y3792xVnH/OSX5E+f9c88jzp5Vtl1WKSGAXFmGjE0UtuOIKxykLIjKqmgqa12pir
B/NX5X/n9+aHmKK/1fylbaXfpCIp78KlmkqoPgM3KRy7CnEFVrTboBRV7B/zjRYfmZ5P05/KHmfy
jJY6Y0slxbaxE8DUlfd1uVWVmYHiAjqNtgRTcKvfMVdirsVdirsVdirsVdirsVdirsVdirsVU57e
3nQJPEkqA1CuoYV6VocVXoiIioihUUAKoFAANgABireKuxV2KuxV2KuxV2KuxV2KuxV2Kv8A/9k=
									</xapGImg:image>
							</rdf:li>
						</rdf:Alt>
					</xap:Thumbnails>
				</rdf:Description>
				<rdf:Description  rdf:about="" xmlns:dc="http://purl.org/dc/elements/1.1/">
					<dc:format>image/svg+xml</dc:format>
				</rdf:Description>
			</rdf:RDF>
		</x:xmpmeta>
<?xpacket begin='﻿' id='W5M0MpCehiHzreSzNTczkc9d'?><x:xmpmeta xmlns:x='adobe:ns:meta/' x:xmptk='XMP toolkit 3.0-29, framework 1.6'>
<rdf:RDF xmlns:rdf='http://www.w3.org/1999/02/22-rdf-syntax-ns#' xmlns:iX='http://ns.adobe.com/iX/1.0/'>

 <rdf:Description rdf:about='uuid:63b0ee8a-231f-11de-ba28-001124740a56'
  xmlns:pdf='http://ns.adobe.com/pdf/1.3/'>
  <pdf:Producer>Adobe PDF library 6.66</pdf:Producer>
 </rdf:Description>

 <rdf:Description rdf:about='uuid:63b0ee8a-231f-11de-ba28-001124740a56'
  xmlns:tiff='http://ns.adobe.com/tiff/1.0/'>
 </rdf:Description>

 <rdf:Description rdf:about='uuid:63b0ee8a-231f-11de-ba28-001124740a56'
  xmlns:xap='http://ns.adobe.com/xap/1.0/'
  xmlns:xapGImg='http://ns.adobe.com/xap/1.0/g/img/'>
  <xap:CreateDate>2006-01-25T10:39:25+09:00</xap:CreateDate>
  <xap:ModifyDate>2009-04-07T02:56:13Z</xap:ModifyDate>
  <xap:CreatorTool>Illustrator</xap:CreatorTool>
  <xap:MetadataDate>2009-04-06T15:43:59+09:00</xap:MetadataDate>
  <xap:Thumbnails>
   <rdf:Alt>
    <rdf:li rdf:parseType='Resource'>
     <xapGImg:format>JPEG</xapGImg:format>
     <xapGImg:width>196</xapGImg:width>
     <xapGImg:height>256</xapGImg:height>
     <xapGImg:image>/9j/4AAQSkZJRgABAgEASABIAAD/7QAsUGhvdG9zaG9wIDMuMAA4QklNA+0AAAAAABAASAAAAAEA&#xA;AQBIAAAAAQAB/+4ADkFkb2JlAGTAAAAAAf/bAIQABgQEBAUEBgUFBgkGBQYJCwgGBggLDAoKCwoK&#xA;DBAMDAwMDAwQDA4PEA8ODBMTFBQTExwbGxscHx8fHx8fHx8fHwEHBwcNDA0YEBAYGhURFRofHx8f&#xA;Hx8fHx8fHx8fHx8fHx8fHx8fHx8fHx8fHx8fHx8fHx8fHx8fHx8fHx8fHx8f/8AAEQgBAADEAwER&#xA;AAIRAQMRAf/EAaIAAAAHAQEBAQEAAAAAAAAAAAQFAwIGAQAHCAkKCwEAAgIDAQEBAQEAAAAAAAAA&#xA;AQACAwQFBgcICQoLEAACAQMDAgQCBgcDBAIGAnMBAgMRBAAFIRIxQVEGE2EicYEUMpGhBxWxQiPB&#xA;UtHhMxZi8CRygvElQzRTkqKyY3PCNUQnk6OzNhdUZHTD0uIIJoMJChgZhJRFRqS0VtNVKBry4/PE&#xA;1OT0ZXWFlaW1xdXl9WZ2hpamtsbW5vY3R1dnd4eXp7fH1+f3OEhYaHiImKi4yNjo+Ck5SVlpeYmZ&#xA;qbnJ2en5KjpKWmp6ipqqusra6voRAAICAQIDBQUEBQYECAMDbQEAAhEDBCESMUEFURNhIgZxgZEy&#xA;obHwFMHR4SNCFVJicvEzJDRDghaSUyWiY7LCB3PSNeJEgxdUkwgJChgZJjZFGidkdFU38qOzwygp&#xA;0+PzhJSktMTU5PRldYWVpbXF1eX1RlZmdoaWprbG1ub2R1dnd4eXp7fH1+f3OEhYaHiImKi4yNjo&#xA;+DlJWWl5iZmpucnZ6fkqOkpaanqKmqq6ytrq+v/aAAwDAQACEQMRAD8A9KaVpWlnS7MmzgJMEdT6&#xA;afyD2xVFfonSv+WKD/kUn9MVd+idK/5YoP8AkUn9MVS3y1pWlny5pRNnASbO3JJjT/fS+2Kpl+id&#xA;K/5YoP8AkUn9MVd+idK/5YoP+RSf0xVLfLOlaWfLmlE2cBJs7ckmNP8AfS+2Kpl+idK/5YoP+RSf&#xA;0xV36J0r/lig/wCRSf0xVLfL+laWbCUmzgP+mXw3jTteSjwxVMv0TpX/ACxQf8ik/pirv0TpX/LF&#xA;B/yKT+mKpb5f0rSzYSk2cBP1y+G8adryUeGKpl+idK/5YoP+RSf0xV36J0r/AJYoP+RSf0xVLfL+&#xA;laWbCUmzgP8Apl8N407Xko8MVTL9E6V/yxQf8ik/pirv0TpX/LFB/wAik/piqW6VpWlm/wBZBs4C&#xA;BeIB+7Tb/Q7c+GKpl+idK/5YoP8AkUn9MVd+idK/5YoP+RSf0xVLdK0rSzf6yDZwEC8QD92m3+h2&#xA;58MVTL9E6V/yxQf8ik/pirv0TpX/ACxQf8ik/piqWfo7T/8AEvo/VovS+p8/T4Lx5erTlSlK0xVH&#xA;2FxBb6Hb3FxIsUENqkksrkKqosYLMxOwAA3xVi8OuPc64PMkWk6td6Ytl9WsXW2iiCLJJ6s8oilm&#xA;S7f1vThoPQ2C9+WyrM7edLi3inQOqSorqsiNG4DCoDI4VlPiGFRiqX+WmVfLOlMxCqtlblmOwAES&#xA;7nFWOT6/+kdV0zzDpOl6pc2VpFPE13HbxCK4tbsIx9OOea3uDWSCJ1kSJqqDTZq4qzGzuo7u1iuY&#xA;1kRJlDqk0bwyAHs8cgV1PsRiqC8sf8o1pP8AzB2//JpcVYNc+lrI1HVdLtdSv557tLzSdftbeFIr&#xA;U20Qhg9BLm4hkuYW/eczGOMqyOB8LDFXoenXgvLGG5CyJ6qglJongcHoeUUlHXfx/HFUL5e/3gl/&#xA;5jL7/qMlxVhF8kWpPq0mj22pX0M96l/p+p2tvCi2V/bxi3klhe6ntjcRN6XxLGpDAuvJlegVZ9pF&#xA;/wDX9OhuvTliZwQ6TwyW0gdCUesUvxKOSmm5BG4JBBxVQ8vf7wS/8xl9/wBRkuKsQ1S7uNT1TWLj&#xA;RV1G7MqRaW97Y28KJbRW0rm7WCa5uLcSzM0jKZIgwQqBxLK2Ksw8vPYHSLeKws5dPtLdfQis54Xg&#xA;aMRfCF4ONxtswqD2JxVry9/vBL/zGX3/AFGS4qxPVru7m1jWn8tjUJ2u4orK/lsraLhDcWzusksM&#xA;91PaxvL6T+keHPiyrtVWUqsp8rtp40aG20+yn062sx9XS0uYnhdOAH8/95WteaswJrvWuKr9J/3v&#xA;1r/mMT/qDt8VTPFXYqlmk/7361/zGJ/1B2+KpnirsVSn/pqv+jH/AJnYqhtUn0638hXc+pxNcabD&#xA;pUkl7AuzSQLbkyIN13ZKjqMVQHlrSfzGtY4RqmtWU9uHUm2ltHuLpYQd42vUmtEkfjt6n1Yb7kNi&#xA;rLsVSCyuLG28hQXF+nqWMOlJJdpTlyiW3BkFO9VBxVKPKGkfmBa2Nt9Y1azTTuMZt9NuLZ7y6gtw&#xA;BSFr6Ke0SRgm3IwGncv1KrNsVSny9MkPlXTZpDSOOxgdz12WFScVYt5J0vzxHo9pJZ6pZ2ugyQxN&#xA;pOl3lq99c29oVBija6hns1YiOgoUfj09R/tFVn+KpZ5e/wB4Jf8AmMvv+oyXFWIeS7DznJpcN7o+&#xA;p2dh5au4xNoulXtq9/LDay/HD+/insuKmMgiJg5T7PM0xV6FiqWeXv8AeCX/AJjL7/qMlxViXlax&#xA;84zCe/0TU7Ww8t3c00unadf2zX8qiSVmaRZIprIxI78mWJjIVDfaX7Cqs+jEgjUSMGkAHNlBVS1N&#xA;yFJag9qnFUu8vf7wS/8AMZff9RkuKsT8v2Pm2e+1G98v6ja6Z5elvrwRaffWzX7POLh1uZ4zFNZt&#xA;AslyJH4M8nWvwV4hVnkImEMYnZXmCgSuilFZqfEVUs5UE9ByPzxVL9J/3v1r/mMT/qDt8VTPFXYq&#xA;lmk/7361/wAxif8AUHb4qmeKuxVKf+mq/wCjH/mdiqvY28FzoVvbXEazW81qkc0LgMjo8YDKynYg&#xA;g0IxVKo/JskEQtrXX9Wt7BdlsxNDLRf5RcTwy3VP+e2Kp/bQJb28VujOyQosatK7SuQooC8jlndt&#xA;t2YknviqX+XI45fK+lxyKHjexgV0YAqymFQQQeoOKpfD5JFpELXTtc1Sw01AFjsI5YZI0QCgSOS4&#xA;hmuEUdgsop0FBiqf2dqlpaxWyPJIkShQ80jyyGndncszH5nFUF5Y/wCUa0n/AJg7f/k0uKpdD5KW&#xA;zjFvpOs6jpenj7GnwPBJCi/77i+sw3EkSDoqRuqqNlAAGKp5YWUdlZxWqSSyrEKerPI80rEmpLSS&#xA;FmO5/gNsVQnl7/eCX/mMvv8AqMlxVLo/JUVryj0jV9Q0izdmY2Ns8EkClzyYRi6huGhWpNFiZQOw&#xA;GKp1p1glhaJbJNNOEqTLcyvNKxYkkl3JPfYdB0G2Koby9/vBL/zGX3/UZLiqBbyckMs76Vq1/pEV&#xA;zI801tavBJD6khLOyR3UVyIubEsRFxHIk9STiqbaZpyafai3Wee5NSzTXMrTSMzdTVug/wAlQFHY&#xA;Yqh/L3+8Ev8AzGX3/UZLiqBk8nRR3VxcaTql9oxu5GmuYbN4XheWRi0kgiuormONnY8mMYXkdzuS&#xA;SqmmlaYunW7Qi5uLpncyPNdStM5YgDavwou32UAX23OKqOk/7361/wAxif8AUHb4qmeKuxVLNJ/3&#xA;v1r/AJjE/wCoO3xVM8VdiqU/9NV/0Y/8zsVUNKn8x/ouzpY2ZHoR0JvJR+wP+XbFUV9Y8y/8sFn/&#xA;ANJkv/ZLirvrHmX/AJYLP/pMl/7JcVS3y1P5j/w5pXGxsyv1O34k3coJHpL1H1Y4qmX1jzL/AMsF&#xA;n/0mS/8AZLirvrHmX/lgs/8ApMl/7JcVS3y1P5j/AMOaVxsbMr9Tt+JN3KDT0l7fVjiqZfWPMv8A&#xA;ywWf/SZL/wBkuKu+seZf+WCz/wCkyX/slxVLdAn8x/UZeNjZkfXL3rdyjf65LX/j2PfFUy+seZf+&#xA;WCz/AOkyX/slxV31jzL/AMsFn/0mS/8AZLiqW6BP5j+oy8bGzI+uXvW7lG/1yWv/AB7HviqZfWPM&#xA;v/LBZ/8ASZL/ANkuKu+seZf+WCz/AOkyX/slxVLdAn8x/UZeNjZkfXL3rdyjf65LX/j2PfFUy+se&#xA;Zf8Algs/+kyX/slxV31jzL/ywWf/AEmS/wDZLiqW6VP5j+vaxSxsyfricq3coofqdv0/0bwxVMvr&#xA;HmX/AJYLP/pMl/7JcVd9Y8y/8sFn/wBJkv8A2S4qlulT+Y/r2sUsbMn64nKt3KKH6nb9P9G8MVTL&#xA;6x5l/wCWCz/6TJf+yXFXfWPMv/LBZ/8ASZL/ANkuKpd62uf4h5fVLX6z9Up6f1mThw9X7XP0K8q9&#xA;uP04qnOk/wDHKsv+MEX/ABAYqljebLb/ABvH5SjgeS6/Rzapc3AI4Qx+sIY0YdeUrcivspxVPsVS&#xA;zyx/yjWk/wDMHb/8mlxVC6h5qgsfN2k+XJ7dw2s291NaXlR6ZltODPAR15GNy49lPhiqe4qlnlj/&#xA;AJRrSf8AmDt/+TS4qxjVPzVtbBtbuRplxc6N5d1CDTtX1OEqyxCSFJZ7gRgcmjtfVVZqfENzSgOK&#xA;s3ililiSWJ1kikUNHIpDKysKggjYgjFUv8vf7wS/8xl9/wBRkuKsYv8A807axs9bvJtLuDD5c1Qa&#xA;frSIytLBasiSLqHpjdofTlDmm/Gp7HFWbQTw3EEc8DrLDKoeKRCGVlYVVlI6gjFUB5e/3gl/5jL7&#xA;/qMlxVJNW/MvQ9J1TX7W+V0s/Ldjb3uo3wIKiS7aQRWqJ9ppnWMFQOvJR3xVP9B1C91HR7S+vbCT&#xA;TLm5jEsmnzMrSw8twkhXblT7Q7HbFVPy9/vBL/zGX3/UZLiqT3f5i6Jp2oeZrXV66fD5Zt7e9nuZ&#xA;SOM9tcoxWSJeppLG0VO7CnfFU58uapeatolnqV5p8ulT3cYlOn3BUzRKxqgl47K5WhK/s9DvirWk&#xA;/wC9+tf8xif9QdviqZ4q7FUs0n/e/Wv+YxP+oO3xVM8VdiqU/wDTVf8ARj/zOxVTuby/sfJst7p1&#xA;qb7ULXTmms7IVBmmjg5RxCn87ALirzfyhPLr9omrRfmZHb+ZNSSEXtlZ2ukRCOYCgtZbeeCS8Yxs&#xA;xRRJLy60pXFXrdjFdxWVvFeTi6u0jRbi5VBEJJAoDuIwW4Bm341NPHFUs0ea4h8m2M1tD9YuI9Oi&#xA;eGCtPUdYAVSvbkdsVeZeWL2782aVZahq/wCYyWfmMFZ20WK10qIabdsCHgNvfW892JI+fp8mcMd6&#xA;bNir1zSre/t9Ot4NQuxfXsaBZ7xYxAJWH7XpqWC18AcVQvlxnXyvpbIvNxYwFUrSp9FaCp6VxV5R&#xA;5M1KbzBpEj6h58i8t6vcvK9/5Ts7bSrZbKaRz6kM8F7bz3MrHl8bsw5k1GKvW/L+m3WmaLaafdXC&#xA;XUtrGIvXigS1QopogWGMlECpRaLtt2xVb5e/3gl/5jL7/qMlxV5T5a1O78wtqV7rfniPyv5gnllg&#xA;vfLlvbaXBLbxwyPHClz+kLee4uB6TcgxIQ8vh2xV6p5X0q70rQrXT7q8jv3t1KR3MVvHaIYuR9JR&#xA;DD+7XilF+GgNK0HTFV3l7/eCX/mMvv8AqMlxV5PpV8PMepav+nvN1v5U1WLUZW/w1FbaXHNE1pIY&#xA;7S6mfUYLmW4Zo4kkWVKLSgXpir1jy9Z6raaasWpar+mZyxZL8wxwFo23QMsP7skD9pQK+GKu8vf7&#xA;wS/8xl9/1GS4q8ra6PmXzVrkPmXzVb+WLzT72Wz03RRa6aly9nbSiW1uml1OC5kmSVkEw9KiD5jZ&#xA;V6f5Xs9WtdM46lrX6faR/VttQMMMDGBlXgG+r0ic1qeaqoIPTbFVXSf979a/5jE/6g7fFUzxV2Kp&#xA;ZpP+9+tf8xif9QdviqZ4q7FUp/6ar/ox/wCZ2KoLW7bXbr8vr220CX0Ncm0t49Mmrx43LW5ERDH7&#xA;J50oe3XFXn3lTU/yt0bTbFbnybqFp5lt1jknjn0G9vL9rtACZPrqW8yyuXFVk9X32xV63p159dsL&#xA;e89Ca2+sRrL9XuE9OaPmK8JE34svQjFUntYtSl8gQxaXIItTk0lVsZWpRZzbARMag9HpirzTyhd/&#xA;lto2jWVv5g8oX0Xm2FI/0m91od5qV3PeqAJJhexQXKTc5ASjCWnhTpir2DSdRGpabb3wtri0FwvM&#xA;W13GYZ03pSSM7qfbFUFoq3T+T7BbR1jum0+IW8jiqrIYBwZh3AbFXk/kqTyDouiWtr5y8p3x85oq&#xA;jV7u80a81ae7u12eaK9igulkR3qY6SUWtNsVex6Lqq6rpkOoLa3Nks/Ii2vYmguFCsV+OJviXlx5&#xA;Cu9Diql5e/3gl/5jL7/qMlxV4/5Q/wAGaNpZt/zE8r3dx515yHV9SutGudW+uyl2YSwXcEF0hiII&#xA;4JyXj9niKYq9h8v6vFq2mR3sNndWETFljtr6B7WYKpoCYXoygjcVAPtirXl7/eCX/mMvv+oyXFXk&#xA;XlpfKOjfXo/zI8tXV35te7uWutaudIutXiu4mndoWtZ4YLpY4VhKARfDw6ce+KvW/Les2+raYtzb&#xA;WF3p1ujGGK3vrZ7OTigADLDIFdUI+zUD5Yqu8vf7wS/8xl9/1GS4q8n0tPK2k6xrbfmP5cur7X7j&#xA;ULqS31mfSrjWIJ7F5SbRLaW3hulhSOHgpiotCNxir1HynrVhqulh9P0670yxtmFvbW95aSWJMaIv&#xA;FooZFRljoeK1UdOlKYqr6T/vfrX/ADGJ/wBQdviqZ4q7FUs0n/e/Wv8AmMT/AKg7fFUzxV2KpT/0&#xA;1X/Rj/zOxVF6T/xyrL/jBF/xAYqi8VdiqWeWP+Ua0n/mDt/+TS4qmeKuxVLPLH/KNaT/AMwdv/ya&#xA;XFUzxV2KpZ5e/wB4Jf8AmMvv+oyXFUzxV2KpZ5e/3gl/5jL7/qMlxVM8VdiqWeXv94Jf+Yy+/wCo&#xA;yXFUzxV2KpZpP+9+tf8AMYn/AFB2+KpnirsVSzSf979a/wCYxP8AqDt8VTPFXYqlP/TVf9GP/M7F&#xA;VDSvL9gdLsyZbzeCM7X14P2B4S4qiv8AD1h/v28/6Trz/qrirv8AD1h/v28/6Trz/qriqW+WtAsW&#xA;8uaUxlvKmztyaXt4BvEvYS0xVMv8PWH+/bz/AKTrz/qrirv8PWH+/bz/AKTrz/qriqW+WtAsW8ua&#xA;UxlvKmztyaXt4BvEvYS4qmX+HrD/AH7ef9J15/1VxV3+HrD/AH7ef9J15/1VxVLdA0CxaxlJlvP9&#xA;7L0bXt4Ol5KO0uKpl/h6w/37ef8ASdef9VcVd/h6w/37ef8ASdef9VcVS3QNAsWsZSZbz/ey9G17&#xA;eDpeSjtLiqZf4esP9+3n/Sdef9VcVd/h6w/37ef9J15/1VxVLdA0CxaxlJlvP97L0bXt4Ol5KO0u&#xA;Kpl/h6w/37ef9J15/wBVcVd/h6w/37ef9J15/wBVcVS3StAsTfayPVvPhvEApe3g/wCPO3O/73fF&#xA;Uy/w9Yf79vP+k68/6q4q7/D1h/v28/6Trz/qriqW6VoFib7WB6t58N4gFL28H/Hnbneku/XFUy/w&#xA;9Yf79vP+k68/6q4q7/D1h/v28/6Trz/qriqXfoWz/wARfV/UuvT+qepX63c86+rT+89Tnx/ya0xV&#xA;ONLZV0i0ZiFVbeMsx2AAQbnFXkM/5n+Uh+cMmqXnn2wtvLVhpwsbbSYb53iuL15C0lxOij0B6ang&#xA;DUnoajpir2SzvLO9tIbyynjurS4QSQXELrJHIjCqsjqSrAjoRiqC8sf8o1pP/MHb/wDJpcVeU+bf&#xA;zM8qWv5o+X9UsfPlgul2aT2PmHRGvnEDCQH0p1WMSQtLFIfi5UNBSoxV7Bp+o6fqVlDf6dcxXllc&#xA;Lzgurd1lidT+0joSrD5YqhfLH/KNaT/zB2//ACaXFXguseYLBbfzXDq35ox6P5tudWe90CC11O4l&#xA;tLGKA0t7SdUrEVfcTpxp0NNsVe5+TNal1vytpuqTTWdxPcwgzzadMLi0aVapIYZRSq81PuOh3GKq&#xA;/l7/AHgl/wCYy+/6jJcVeFeYdasdNh84+XdS/NBNP1Qas+qeVr6PUp5J7Ysorp95GnICCN14ekai&#xA;h5ca7Yq9r8j682veVdO1OW5sru5mhUXc2mTi5tTOu0npSCm3L9k7r0OKory9/vBL/wAxl9/1GS4q&#xA;8W85+er7QvMnnaRvPGl2Op6gtvp3l3SJ76SSHTo0ULcXk0SLIqXBJLKnGv8ANUYq9U/LQ6KPJ1jF&#xA;pPmF/NEEKlJtalumvZJp+sheRmkK7nZK/CKDFU18vf7wS/8AMZff9RkuKvHfOPna98l+afOkEPnL&#xA;TTLrdvbPollql/I7aVdgGOYGALN6cbK/rKKCpAFKb4q9F/Kl9G/wXZxaX5mfzb6Pw3usy3TXkklw&#xA;QGkDF3dowK/DH+ytPmVU90n/AHv1r/mMT/qDt8VTPFXYqlmk/wC9+tf8xif9QdviqZ4q7FUp/wCm&#xA;q/6Mf+Z2KpX5rj0mX8sNUi1i7ex0qTR5UvryKpkiha2Id0ABqwU7Cm/TFXlv5OS/mOvlPRtLbyDp&#xA;s/lQpEkGpzzQ2U9xZnZbqWzpd/vXjb1GDN8RPXeuKvd7W1tbS2itbSFLe1gRYoIIlCRoiCioiqAF&#xA;VQKADFWOsLA/loRqNw1np50Wl5dqaNFD9V/eSA77otTirx/8kpvzCt/KVhpum+R9P1DyezEWetXU&#xA;sWm3F5aM5pcS2v8ApZLsDy+I/EPvxV9AWVlZ2NrFaWUEdraQrxht4UWONFHZUUBQPliqVaV9X/wV&#xA;Z/WZTBbfo2P1plPFkT0ByYMOhUb1xV4V+S8vn3TvKosPK/kmx17yf60/6M12+li0u6voDKW5zREX&#xA;TMa7KxUfCBtir6JsbCxsLVLSwtorS1j5GO3gRY41LMWaiIAoqzEn3xVB6Ayrp0zMQqreX5ZjsABe&#xA;TbnFXz9+S03nXTdIvLXyV5Ts/M3k5724Nh5k1CWPTLm9T1SJPUr9ZeXiy8FkKDp02oFX0Vpmn2Vh&#xA;ZR21nZw2EIq5tbdFSNXkJd6BAo3diSabnfFUP5e/3gl/5jL7/qMlxV4D+V0vm/Tr7zDH5D8rWnmn&#xA;yncarcyReYdRlj0+4mct+9j5v68k6RkFVf0x8sVfQWiWFvZ6dEItPg0uWcCe7s7YJ6azuo9T4kWM&#xA;OQdufEVpiqn5e/3gl/5jL7/qMlxV4H5Dm82af5y86HyD5btfNmhXWsXUl1r2ovHYSpdyH9/apOxm&#xA;e4hjrsRGN2Pjuq990CxhtdNjcaZb6Td3YW51CzteBRbp0US1kRIxKQV4+pxHIAYq1pP+9+tf8xif&#xA;9QdviqZ4q7FUs0n/AHv1r/mMT/qDt8VTPFXYqlP/AE1X/Rj/AMzsVWT6Lp+ueUDo2ooZbDUbEW1y&#xA;gJUmOWLi1COhoeuKsF038p/zC0ewi0jR/wAy7+20S2VYbO2m0+xuZ4oFHERi5kXkaDZTTagpir0b&#xA;RdPm07SbSxnvZtRmtoljkvroqZpmUbu/AKtT8sVQGmabZap5ItNMv4hPY32mR211CagPFNbhHU0o&#xA;d1YjFWDaV+UHnnQNPXRvLn5jX1joMFVsrO4sLK8lhiJr6a3EihqAbDbbtir0XQNLudL0e1sLnULj&#xA;VbiBSJdQu+HrSsWLFn4Ki96Cg6YqoaDbwXPlLTradBJBPYQxyoejI8IVgaeIOKsA0n8nfOXlyz/R&#xA;PlP8w77S9AjLGz064sbO+aBXbkVSeZeXHwFNvnir0LyzpF7pGiwWF7qlxrN1FzMuo3gjEshdy+4j&#xA;VFAXlRRTYbYq7QUR9NnR1DI15fhlIqCDeTVBGKvPdK/JjzP5Zhm07yT58vdD8vtI8ttpM9laagtu&#xA;ZW5ssMlwOYTkT8J8amp3xVn3lXRNQ0bR0stQ1i51y7DvJLqF4I1kYu1eIWJUVVX9kdsVVfL3+8Ev&#xA;/MZff9RkuKvP7L8mvMfl+a8i8keeLzy/o15NJc/omWztdQihllPJ/Qa4HJFqa8fvrirOPKOg6rou&#xA;lvbaprl15gvJZmmkvrtIo2HIKPTjjhVFRBxqBvuTviqI8vf7wS/8xl9/1GS4qwKP8nNb0XVNSufI&#xA;/nK78t6fqtxJeXektaW1/brcyj45IBOKx1O9N/u2xVmXk7y9rOiafNDq+v3XmK9uJjNJeXSQxBaq&#xA;q8IooVVUT4a8d9ycVRek/wC9+tf8xif9QdviqZ4q7FUs0n/e/Wv+YxP+oO3xVM8VdiqU/wDTVf8A&#xA;Rj/zOxVQ0rVb8aXZgaNeECCPcPZ7/APG4xVFfpa//wCrLef8HZ/9lGKu/S1//wBWW8/4Oz/7KMVS&#xA;3y1qt8PLmlAaPeMBZ24DB7Oh/dLuK3AOKpl+lr//AKst5/wdn/2UYq79LX//AFZbz/g7P/soxVLf&#xA;LWq3w8uaUBo94wFnbgMHs6H90u+9wDiqZfpa/wD+rLef8HZ/9lGKu/S1/wD9WW8/4Oz/AOyjFUt0&#xA;DVb4WMtNHvG/0y9NQ9n3vJTTe4HTFUy/S1//ANWW8/4Oz/7KMVd+lr//AKst5/wdn/2UYqlugarf&#xA;CxlA0e8b/TL01D2fe8lNN7gdMVTL9LX/AP1Zbz/g7P8A7KMVd+lr/wD6st5/wdn/ANlGKpboGq3w&#xA;sZaaPeN/pl6ah7PveSmm9wOmKpl+lr//AKst5/wdn/2UYq79LX//AFZbz/g7P/soxVLdK1W+F9rB&#xA;Gj3hreISA9nt/oduKGtxiqZfpa//AOrLef8AB2f/AGUYq79LX/8A1Zbz/g7P/soxVLdK1W+F9rBG&#xA;j3hreISA9nt/oduKGtxiqZfpa/8A+rLef8HZ/wDZRirv0tf/APVlvP8Ag7P/ALKMVS79I3n+IfV/&#xA;Rd16n1Tj9X5W3Onq1519bhx7far7YqnOk/8AHKsv+MEX/EBiqRXX5j+Wrbz/AGfkR3mbX722N5Gi&#xA;RloliVZGrJINlNIT948cVZRiqWeWP+Ua0n/mDt/+TS4qlOofmP5a0/z7pvka6aZNd1aBrmyHpkwt&#xA;Giysay1oD+4bb5eOKspxVLPLH/KNaT/zB2//ACaXFWEXv/OQPkC0stZv2F9LYaDf/ozVLuG1Z445&#xA;yzKNwd0JjI5dNx4jFXoVhf2eoWNvf2Uy3FndxpPbToaq8cihkZT4FTXFUJ5e/wB4Jf8AmMvv+oyX&#xA;FWEt+f8A5BXy1feZAt+2laZfHTdRkW1YvBOApHqJXkqEtxDfzbeGKvQdP1Cy1Gwt9QsZluLK7jSe&#xA;2nQ1V45FDKwPgQcVQnl7/eCX/mMvv+oyXFWPH83fJKaz5k0mW5khm8qW/wBa1qd4yII0oCAsn7Tn&#xA;lQKNydsVTbyT5z0rzjoMWu6TFcJp1wzC2kuojC0iqaF0UknjWoB70xVF+Xv94Jf+Yy+/6jJcVSHT&#xA;PzY8mX975otBcvbP5OJGuPcoYkRQZAXQk/Gv7k7j28cVTDyL540fzroS65o0VyumyO0cE11EYTLw&#xA;2ZkUkkqDty8a4qjtJ/3v1r/mMT/qDt8VTPFXYqlmk/7361/zGJ/1B2+KpnirsVSn/pqv+jH/AJnY&#xA;qhNX8wReXPIdzr8sD3MelaabtrePZnEMPPiCeladcVeJeTNT/OXzPeSfmd5Z8r+Vkl1mL0fVubm8&#xA;lvmt4iFEPMS+jH/djYIvTcYq9+0C41i40Sxn1q1jsdWlhR76zik9VIpWFWjEg2bidqjFUtt9Xh0b&#xA;8votYmjkmh03SVu5IYRykdYLb1GVB3YhaDFXh+la1+bn5orpHn7SfK3lg22mzStor3lzefX4mjfi&#xA;6mS3liT4in2ZEp3pQ4q9+8sXWv3eg2dx5hsY9N1mRCb2xhlE8cb8iAFkGzVWh/DfFVHR7pLPyZZX&#xA;bqzpb6dFKyJu5CQBiF9zTbFXz5+XWqfmL5q8oah/gDyf5WsvJeoXE6XWmapPdXNzO7ALKZ3WTdmW&#xA;g+NR4jamKvc/yv0i/wBH8j6dp19pEGhXNv6qtpVrO91DEPWcrwlkZ2o4+OnLatMVTXQnCaZO5BYL&#xA;d37cVFWNLyY0AHU4q+ePJWvefPPUXmjWPy/8oeW7Py/rl1JBrNtq891JNdtxPJpYoZRFGzrKeXwC&#xA;pPVqVxV7Z+VGkaro/kq003U9Ft9AntnlRNMtLl7uFE9QkMjyNIyhyS3HkaV8dsVT3y9/vBL/AMxl&#xA;9/1GS4q+atLl8yfmS3myLyV5N8vQ6HPqhOtLrd1eteXd1E3NJJhbzRuqgtyCEcA3SpBxV9Bfl7J5&#xA;tPl1IfNGkWWi31q5t7ez06T1Lb6tGiiJkH7A6gJ2AxVM/L3+8Ev/ADGX3/UZLir5xurnXvzQ83+c&#xA;R5Q8naEsMEqaZrk+t3N7HcXf1aT92ZYLOaGlGgFOSnpTkdxir3X8tT5yTQDZ+aNFsNDmsHFrY22m&#xA;S+pbNbRxrwdF39NakqFJrt8sVTnSf979a/5jE/6g7fFUzxV2KpZpP+9+tf8AMYn/AFB2+KpnirsV&#xA;Sn/pqv8Aox/5nYqlHm+812y/K/UbrQLUXmsQ6WWsrUx+rzcRdPS/3YaVon7XShxV8wflgf8AnG/T&#xA;NJsde8y+YL+083W8y3eo2AS4gjS6ilLhI4LaH0ylQNq9P5egVfXXlzzBp3mHQ7LW9NZmsL+ITW7S&#xA;KUfif5lO4OKpRPc6za/li1zokAudZg0X1NNtyOQkuFtaxJx/aq4Ap3xV8pfltD/zj0ujNqfnnXdQ&#xA;07zgbh5NVsEjntY0kWVuCxQ2kHDjSlV7GuyjFX2B5U8z6T5p8v2ev6Qzvp18rNbvIjRuQjtGao24&#xA;+JTiqFs59Rg8hQT6bCLjUYtKR7KBvsyTrbgxodxsz0HXFXyN5BtfyHu7G+1L8ytZv9I86S3M7arp&#xA;0UM1lFGfUPERRWkFNxuy9Q1fh7lV9feTvOGh+b9Ag17RJHl065aRYXkRomPpOUJ4MAQDxqPbFV+k&#xA;NcLo921ugkuFudQMMbHirOLubiCewJxV8feSYvyb1C61zU/zb1W/0TzvJeTNf6fFDLZRKtQ1US0h&#xA;Y8yxPIManwPUqvrX8vvNnlnzR5Zt7/y1NJcaTATaQTTI8bt6AC1pIFY1FNyMVTHy9/vBL/zGX3/U&#xA;ZLir4+8sp+VOreYvMep/nJqF55e86PfS+ppttDJZwLDRd1+rQuzPyrUs1WFD8Rq2Kvqj8s/OHlHz&#xA;P5Yil8qXEt1pGmsNOimnSSN2+rxoAf3oV2HEj4iNzXFU58vf7wS/8xl9/wBRkuKvkW1X8tdV/Mbz&#xA;ZefnNfXnl/zIl66WdrbRPbQNbLUK3qW8LPI1AKMx+JaGrdlX0x+U/mzyPr3lhLXyZdTXmj6Lw0+O&#xA;e4SVGYRoCprMqO2x6kdcVZFpP+9+tf8AMYn/AFB2+KpnirsVSzSf979a/wCYxP8AqDt8VTPFXYql&#xA;P/TVf9GP/M7FUXpP/HKsv+MEX/EBirpNJ0qW6F3JZQPdDYXDRIZKf65HLFUXiqWeWP8AlGtJ/wCY&#xA;O3/5NLiqIm0nSp7lbqeygluU+zO8SM42psxFemKovFUs8sf8o1pP/MHb/wDJpcVRFzpWl3U6T3Nn&#xA;BPPH/dyyRo7rXbZmBIxVFAACg2A6DFUt8vf7wS/8xl9/1GS4qibrStLu5ElurOC4lj3jeWNHZSPA&#xA;sCRiqJACgACgGwA6AYqlvl7/AHgl/wCYy+/6jJcVRN3pmm3jo93aQ3LxEGNpY0cqR0KlgaYqiERE&#xA;RURQqKAFUCgAHQAYql3l7/eCX/mMvv8AqMlxVFXmmabe8frlpDc8DVPWjWShHccgaYqroiRoEjUI&#xA;iiiqooAPAAYql2k/7361/wAxif8AUHb4qmeKuxVLNJ/3v1r/AJjE/wCoO3xVM8VdiqU/9NV/0Y/8&#xA;zsVUNK0q/Ol2ZGs3gBgj2CWe3wDxt8VRX6Jv/wDq9Xn/AAFn/wBk+Ku/RN//ANXq8/4Cz/7J8VS3&#xA;y1pV8fLmlEaxeKDZ25ChLOg/dLsK25OKpl+ib/8A6vV5/wABZ/8AZPirv0Tf/wDV6vP+As/+yfFU&#xA;t8taVfHy5pRGs3ig2duQoSzoP3S7b25OKpl+ib//AKvV5/wFn/2T4q79E3//AFerz/gLP/snxVLd&#xA;A0q+NjLTWbxf9MvRQJZ9ryXfe374qmX6Jv8A/q9Xn/AWf/ZPirv0Tf8A/V6vP+As/wDsnxVLdA0q&#xA;+NjKRrF4v+mXooEs+15KK72564qmX6Jv/wDq9Xn/AAFn/wBk+Ku/RN//ANXq8/4Cz/7J8VS3QNKv&#xA;jYy01m8X/TL0UCWfa8l33t++Kpl+ib//AKvV5/wFn/2T4q79E3//AFerz/gLP/snxVLdK0q+N9rA&#xA;GsXgpeICQlnv/oduamtviqZfom//AOr1ef8AAWf/AGT4q79E3/8A1erz/gLP/snxVLdK0q+N9rAG&#xA;sXgpeICQlnv/AKHbmprb4qmX6Jv/APq9Xn/AWf8A2T4q79E3/wD1erz/AICz/wCyfFUu/R15/iH0&#xA;v0pdep9U5fWONtzp6tOFPR4ce/2a++KpzpP/AByrL/jBF/xAYq8vm1z8zZvz5GnjUYtO/L+1gDSW&#xA;05sed3L6P2YqhrofvW9hRT9Kr1vFUs8sf8o1pP8AzB2//JpcVeb+ddc/M7Svzh8vLpmowz+RrsIm&#xA;saZWxSaF/iV3JlAuSlGST4G7EU8VXreKpV5dcp5W0xwrOVsYGCLTk1IVNBUgVOKvEtKl/wCciJvJ&#xA;Ws3Gtea4dD84NcCTy/o1zHpNZIIlbnE/7rjWYuAjE7Fd6Bjir1v8t9U82al5OsJ/NunNpvmJE9LU&#xA;IWMZV5E29ZPSLJxkHxUHQ1HbFUy0JWbTJ1RuDG7vwrgAlSbyahodtsVeKWF1/wA5DL5Y8waZrfmO&#xA;HSvOFjdCXy9ezR6ULfUrfiVMCoYzx5MvJWZQasAdq0Vesflpq3mzVPJmn3Hm3T207zCielfxkxss&#xA;rpsJ0MRZOMoo1B0NR2xVNfL3+8Ev/MZff9RkuKvGJ/Nv57aXJ521K/RfSlle18i6HcnToXHqzHhd&#xA;O9UZlhiA+F3PJjT3xV6V+Vth59tvKlvN551gatr12BPKEitoordWA4wobZI1kp1Z99+m25VT3y9/&#xA;vBL/AMxl9/1GS4q8dk80/nn5W1LztDrSrrNuUP8Agedzp1rCzvKQgeht3YpHIGYP14MAdwSqz/8A&#xA;KSy/MKHypFdefNZGq65e0laGOK1jitUptErWyRiRu7tUiuy9KlVkek/7361/zGJ/1B2+KpnirsVS&#xA;zSf979a/5jE/6g7fFUzxV2KpT/01X/Rj/wAzsVSXzpFeS/lXqkdlqaaNdNpTelqkrmJID6NebSCp&#xA;QU/aG46jfFXyB+V+kflpq2lpZa95L1/XNXlumhl1/S5JZLUiSTir0HphAo68g1dz7BV9t+V/Lun+&#xA;W/L2n6Dp5kay06FYIXmbnIwX9p2AUFidzQDFUou4bqf8rZYbTUF0m5k0QrBqkjcEtnNpRZ2f9kRn&#xA;4i3amKvjb8t7D8utRs7q28yeUNd80asbt0k17SJZpYCHNAxH7ulPtVapPX2xV9teTfKemeUfLNh5&#xA;c0tpXsNORkga4YPKQztIeTAKDu57YqoWqTv5AhS3u1sJ20lRDfMQFgc2wCyknaiH4sVfE/kKz8hT&#xA;nV4fNflbWvOuqJdyf7nNEmnnhdaAE/7qY1arc2ryr0GKvtfyB5P0byh5UstC0cTiwgDyRC6bnMPW&#xA;cylXYBfs8+I26DFUVpKyNo12scvoSNc6gEmoDwY3c1GodtuuKviHyfaeSZdZ8wWvnDQNX/MDVIrp&#xA;qa7oU89xG6j4Sx/u2bkwJDsxr2Hcqvsv8svJeheT/KNrpeiJcx2Epa8WK9YPMjXFHKMQFpw+zTFU&#xA;48vf7wS/8xl9/wBRkuKvh/QbTym3nTzLbeddJ1T8xb9bk8NY0KeaZSQW5MwURluXjyoKUA74q+vv&#xA;yh8meXfK3ku1i0C2vLOy1XhqhstRblcQNcxITC+w48KUK9mrirIvL3+8Ev8AzGX3/UZLir4qe18r&#xA;/wDK1PNln5103UvzEuBcsba80SeaRogHcsrovCtAVWgbinEgVxV9Vfkx5I8seV/KSy+XrS+sLXW2&#xA;TUXsNSblPbtJEq+iRQFePHcGpqTvirK9J/3v1r/mMT/qDt8VTPFXYqlmk/7361/zGJ/1B2+Kpnir&#xA;sVSn/pqv+jH/AJnYqlvmPylZ+b/y9n8tXkz28Gp2UcLTxfbRuKsjAHrRlBI79MVeQ+W/ym/5yV8p&#xA;aVF5c8t+c9Hj8v2pk+qPNAWnjWRy5oj20w+0xahkPXFXt/lLT9e07y5YWWv6guq6xBHwvNRRPSEz&#xA;VNG4VNPhoD/DpiqXv5etfMf5bLoF27R22qaSlpLIn2lEtuF5LXuta4q8c8s/k9/zkf5L07/D/lPz&#xA;joyaBHI7wNcwH1lMjEswRra469aGQiuKvbfJGmeZtL8sWdl5m1RdZ1uL1Dd6ikfpCQvIzr8I2+FW&#xA;C9B06Yqp2ukWutfl/Do12XW11LSVs7hozxcRz23puVPY8W2OKvFfLX5Lf85B+RbabRPJXnHSV8vv&#xA;O0yfXYCJlL0DMENvcipCjb1KVxV7T5C0rzdpfluGz82avHretK8jzahFEIQyyOXVeIoPgrQEKNqb&#xA;YqiNMs4b3Q72znBMFzcajDKAaHhJdTK1D8jirwzy1+R/59eQFu9L8hebtKXQbm4NyUv4CJeZVU5F&#xA;fq9zvwRQaPTbpir2X8utH876T5fNv5z1qPXtaed5WvIYhCixuFpEAAgPFgxqFXY0ptiqZ6FGsmmT&#xA;xvur3d+rAEg0N5MDuN8VeEaF+Q/51/l/dX9r+W/m3To9Dv5RMYdUhPqqRstaQXKlguxZSobwGKvY&#xA;Py30Xz/pOjXEXnfXYde1Wa4MyXMEIgWKMoq+kAqxqQCpYfAOuKpz5e/3gl/5jL7/AKjJcVeE6f8A&#xA;kP8AnH5H1zWLj8s/NOnW+laxL60ttqcR9ReLM0akiC65FPUZeQK17jFXq/5aaH+Y+lWN9/jrX4Nd&#xA;v7mYSW5toRDHAgXiUUhYuQNAfsDv1riqf6T/AL361/zGJ/1B2+KpnirsVSzSf979a/5jE/6g7fFU&#xA;zxV2KpT/ANNV/wBGP/M7FVDSvMFgNLswYrzaCMbWN4f2B4RYqiv8Q2H++rz/AKQbz/qlirv8Q2H+&#xA;+rz/AKQbz/qliqW+WtfsV8uaUpivKiztwaWV4RtEvcRUxVMv8Q2H++rz/pBvP+qWKu/xDYf76vP+&#xA;kG8/6pYqlvlrX7FfLmlKYryos7cGlleEbRL3EWKpl/iGw/31ef8ASDef9UsVd/iGw/31ef8ASDef&#xA;9UsVS3QNfsVsZQYrz/ey9O1leHreSntFiqZf4hsP99Xn/SDef9UsVd/iGw/31ef9IN5/1SxVLdA1&#xA;+xWxlBivP97L07WV4et5Ke0WKpl/iGw/31ef9IN5/wBUsVd/iGw/31ef9IN5/wBUsVS3QNfsVsZQ&#xA;Yrz/AHsvTtZXh63kp7RYqmX+IbD/AH1ef9IN5/1SxV3+IbD/AH1ef9IN5/1SxVLdK1+xF9rJ9K8+&#xA;K8QilleH/jztxv8AutsVTL/ENh/vq8/6Qbz/AKpYq7/ENh/vq8/6Qbz/AKpYqlula/Yi+1g+lefF&#xA;eIRSyvD/AMeduN6RbdMVTL/ENh/vq8/6Qbz/AKpYq7/ENh/vq8/6Qbz/AKpYql36as/8RfWPTuvT&#xA;+qenT6pc86+rX+79Pnx/yqUxVOdJ/wCOVZf8YIv+IDFUhvfzP8iWPm2LyhdaskfmOZo44tO9OYuW&#xA;mUNGOSoU3U1+1irKcVSzyx/yjWk/8wdv/wAmlxVKrv8AM3yLaebo/J9zq0cfmSZkWPTikpcmVOaD&#xA;kE4brv8AaxVlGKpV5dlSLytpksh4xx2MDO3gBCpJxViCf85B/k9JZTXyeY42s7eSOGe4EF0USSYO&#xA;0asfS2LiJ6fI4qzfRda0vW9KtdW0m5S8069jEttcx/ZdG770I8CDuDscVQWmXtrY6He3t2/pWtrc&#xA;ajNcSkEhY47qZnagBOwHbFWNL+fP5StpL6wvmBG0yOcWsl2ILoxrMy81RiItiygkV64qzHRda0rX&#xA;NKtdW0m5S8069jEttcx14uh770I8CDuMVUvL3+8Ev/MZff8AUZLiqSab+bX5danf6rYWWtwy3Whw&#xA;z3GrIUlRYIrZuEzu7oqURj2OKoryd+Yvkzzml0/ljUl1JLIoLl0jmRUMlSo5SIgJPE7DFUx8vf7w&#xA;S/8AMZff9RkuKpN5a/Nb8vvMyai+iazFdJpMfr6kxWWIQx/EeTmVE2HA18MVVvJ35leSPObXK+WN&#xA;TXUvqYU3TRxTIqc68QWkRBU8TtiqZ6T/AL361/zGJ/1B2+KpnirsVSzSf979a/5jE/6g7fFUzxV2&#xA;KpT/ANNV/wBGP/M7FULqfmXSfLHkltf1eQxadp1nHNcMqlmpxUBVUdWZiFHvir5a078z/LN3+ZV7&#xA;+alh5E8x63cFykd08qPaW5WFYQyRw2pCukK0AaZqVr1oQq+q/JnmeLzT5W03zDDaT2MOpQieO1uQ&#xA;olVSSBXiWFGA5Lv0IxVD22t6foXkC31nUXMdhp2mR3N04BYiOKAM1FG5NBsMVfLvmf8AM7yt5586&#xA;2HnvSPIvmOa70CWMx6ppskarJ9WcSxi6j+rXkfw17ODxNCaUoq+pPIfm6Lzf5UsfMUNjcadFfByt&#xA;pdhRKvpyNGahS2xKVHtiqiZLCP8ALUyajdSWGnpo3K8voaepBCLWskqVWQckWrD4T8jir5b8pef/&#xA;AMvLDyfrnlLyt+XOueZ/Ll+5Op6jcOsly5pSNnNvA6QmPrHT7J364q93/wCcb9P0S0/LWF9DGrw6&#xA;VcXM7QWettA8sTo5jlERgji/dmRD9ofarirOdNktItCvZbzj9TS41FrnkKr6Yupi9RvUccVfJXln&#xA;zr+XNla+a9B8neRvMPmnyvrjL9ct5nR44Chf03gSG2lkipy+BnkLfCD1GKvdv+cZ7bRoPy6ZdGi1&#xA;i104XsypZa48EksUihfV9Ewxw/uy9dmWvLlt4qvRNDdU0u4d24Kt3fln2+EC8mqd/DFXxtDrn5by&#xA;Wnmby55M8v8AmvzFb6vMkmsa5BLAt5LFFI0gjCx2cwjgkkHM1RWbvsKYq+jv+cd9U8uXn5fraaBo&#xA;N55fs9LuHtJ7e/4maW4CJJJKzjizs3MciUXwAoMVZ75e/wB4Jf8AmMvv+oyXFXx7rWvflvceavOF&#xA;l5G0LzTqFvrgeHWotJlgigKLOsjtBF9Uu5UiZ0P2mHwsRQDYKvfP+cb9U8uz+SZtL0Ly7feXodIu&#xA;PQu01Hi001y6B5HdwI2Z+JXlWNQKgAU2Cr0bSf8Ae/Wv+YxP+oO3xVM8VdiqWaT/AL361/zGJ/1B&#xA;2+KpnirsVSn/AKar/ox/5nYqxb80NSt9N/JjWL240yPWIItMUSadNz9OQOqpV+BDhU5cyVIIpsR1&#xA;xV8q/k3f6fY6ML+6/NiXyfbw3gml8sww3cyuisCTRZEX94BT4Ffb7XSmKvtXyz5l0bzNoVprui3H&#xA;1rS75S9tPxZOQVijfC4VgQykEEYqxrzPqMGm/kve31xp66rBb6Fzl0568Jk+rDkr034U+1TemKvk&#xA;L8prm1TRtQnb81ZPy/jNyz/oW2iu51YFVpKqrKgP8vVmou+Kvt/yp5r0HzZoNvr2g3P1vS7suIJ+&#xA;LRk+lI0bVRwrr8SHqMVSu8vY7H8qp72WyGpR2uhPM+nEVFwsdmWMJFG/vKcenfFXxj+VF1aSQ6vd&#xA;D8y2/LeJ5y66PaR3kyOpAIZR6y1C/YWrs+2/uq+2vJHm/wAvebPL0OraBf8A6SsAzW5uikkRaSE8&#xA;XJSQK4r13HQ4q1Fcra+VtVumtjerBJqkrWYAJmCXM7ekAQQedOOKviL8rb6zuL7XL2P8wf8AlWUE&#xA;0nqpptml3NHIhJYKg9VeXp/ZXk7Pir7U/LXzd5f8z+VLa60TVjrkFjxsLnU2jkhaa4gjT1HZJRzB&#xA;fkH38cVTLRnMek3MgQyFLrUGEaipal3MeIHvir4a/LvUbG/80eYNQg86L+VFvcOJI9Pslu5I5Fq/&#xA;7sASRj914M3VvgUDYKvsv8rPOPlzzL5WgTRdcPmJtHSLTtQ1V4pYXnuYYU5zMkw5/vK8q1IrXc0x&#xA;VPvL3+8Ev/MZff8AUZLir4a8qarZan+Y/mLUYfNX/Kp4biSRlgtkuX5fGawsqSItVI5MGYDkfgXs&#xA;FX17+T3nDy9r3ldbLSvMj+abnReFrqOrywywPNKwLhyk1W3G1akbdcVZRpP+9+tf8xif9QdviqZ4&#xA;q7FUs0n/AHv1r/mMT/qDt8VTPFXYqlP/AE1X/Rj/AMzsVROmIkmj2kcih0e3jV0YVBBQAgg4qxOf&#xA;8jvyhnujdSeUtN9Vm5ELAqJX/jGtE/DFWX6ZpWmaVYRafpdpDYWEAIgtLaNYokBJY8UQKoqxJ2GK&#xA;oXy0A3lnSgRUGytwQehHpLirG7r8j/yiurtrubynpxmduTcIQik9a8E4p89sVZXpGjaRo1ilhpFl&#xA;Bp9jFX07W1jSGJSdyQiBRv3xVR8sf8o1pP8AzB2//JpcVY5qH5KflNqN697d+VNOe5kPKR1hWMM1&#xA;aksqcVJPc03xVk+iaBoehWC6foun2+m2KEsttaRJDHyPVuKAAsabnqcVU/L3+8Ev/MZff9RkuKse&#xA;1b8mPyq1a+kvr/ytp8t3MS00whEZdialm9PiGYnqTvirItC8ueX/AC/ZfUdD0220uzLczBaRJChc&#xA;gAswQCrUHU74q15e/wB4Jf8AmMvv+oyXFUi1v8n/AMr9cv5NQ1TyzYXF7KS01x6IR5GPVnKcebe7&#xA;b4qnfl/yt5a8uWjWmgaXa6XbO3OSK0hSEO3Tk/ADkadziq7y9/vBL/zGX3/UZLiqSa/+Uf5Z+YL9&#xA;9Q1fy3YXV9JvLcmILJIT3kZOJc+7VxVNvLnlDyt5ZtntvL2k2mlQy0MwtYUiMhWvEyMoDORU0LE4&#xA;qq6T/vfrX/MYn/UHb4qmeKuxVLNJ/wB79a/5jE/6g7fFUzxV2KpT/wBNV/0Y/wDM7FVDSoPMf6Ls&#xA;6X1mB6EdAbOU/sD/AJecVRX1fzL/AMt9n/0hy/8AZVirvq/mX/lvs/8ApDl/7KsVS3y1B5j/AMOa&#xA;VxvrML9Tt+INpKSB6S9T9ZGKpl9X8y/8t9n/ANIcv/ZVirvq/mX/AJb7P/pDl/7KsVS3y1B5j/w5&#xA;pXG+swv1O3oDaSk09Je/1kYqmX1fzL/y32f/AEhy/wDZVirvq/mX/lvs/wDpDl/7KsVS3QIPMf1G&#xA;XjfWYH1y962kp3+uS1/4+R3xVMvq/mX/AJb7P/pDl/7KsVd9X8y/8t9n/wBIcv8A2VYqlugQeY/q&#xA;MvG+swPrl71tJTv9clr/AMfI74qmX1fzL/y32f8A0hy/9lWKu+r+Zf8Alvs/+kOX/sqxVLdAg8x/&#xA;UZeN9ZgfXL3raSnf65LX/j5HfFUy+r+Zf+W+z/6Q5f8AsqxV31fzL/y32f8A0hy/9lWKpbpUHmP6&#xA;9rFL6zB+uJyraSmp+p2/T/SfDFUy+r+Zf+W+z/6Q5f8AsqxV31fzL/y32f8A0hy/9lWKpbpUHmP6&#xA;9rFL6zB+uJyraSmp+p2/T/SfDFUy+r+Zf+W+z/6Q5f8AsqxV31fzL/y32f8A0hy/9lWKpd6Ouf4h&#xA;4/W7X6z9Ur6n1aThw9X7PD168q9+X0YqnOk/8cqy/wCMEX/EBirxSb80/wA2r/8APh/JuiaZCfKd&#xA;tdxLdX81rNVbWKNGu29csqVL81TbqQN8Ve7Yqlnlj/lGtJ/5g7f/AJNLirxrz9+af5u+WPzi07QV&#xA;02CXyVqF1ZcNQS0mlcWkrol1ykRyqvG3PqOlDTfFXvGKsUu9YuNF/K59Wtk9S6sNG+sW0fEyc5o7&#xA;blGnBd25PQUGKvIvKX5gf85J+ZPy/wBZ8zQabYQXtjLH+jdOms5o5LuJFc3Xpq0oPJTw4fzEMvWm&#xA;KvQPyK/MrWfPPlSSfzBYNp/mCwmMV9D6MkEbo9WhljWSpoVHE7/aU+IxVkjtrieUNXfQVifW1fU2&#xA;01JxWJrgXM5iV91+FmoDvirxLyh+a3/OQfmbyr5ku7fTbS28xaC8Ekel3FhcRG5gcSiZY+ci1lRo&#xA;xQd+nUjFXpH5E/mVrXnnypLP5gsG0/zBYTGK9iMMkEbo9WhliWSpoVqp3+0p8RirMtGnjg0m5nkJ&#xA;EcV1qDuQCTxW7mJoBucVfPnk78+/zkm8ueY/MXmPQ4xZ6fbC20i3hsriKWfVJ2HpLQsxaKOMO8tB&#xA;0pvir0v8jtf/ADZ8y6NJr3nmC10+0uRTS9Pit3huGWoPryc5H4qeiLxqftdKVVZzoglOl3AiIEv1&#xA;u/8ATLfZ5fW5qVp2rirwPyz+fv5p2LebbfzvoQTUNGtGOlWlrZzoJ7wSrCqc+UgdKyK1V/YqwxVn&#xA;v5F+ZPze806ZLrvne3tdN06UFNNsY7aSG5kod535yNwTso41brsKclXoWk/7361/zGJ/1B2+Kpni&#xA;rsVSzSf979a/5jE/6g7fFUzxV2KpT/01X/Rj/wAzsVSLzzdearX8q9QufKgB8wQ6cr2JPD4SFXmy&#xA;8/h5LHyK170xV8WeW/NWs659Yudc/NDV9E1w3AW2t2F/cLITTi3qwSj0qN8PHht2xV9zeQtF13RP&#xA;J+l6Xr+pNq+s20VL7UXZpDJIzFjR3CswXlxUsK0GKpfqk3mSD8qJJvLIRtfj0dH00Pxp6wgBX7Xw&#xA;8v5eW1eu2KvijRvOOt6vNfXPmn8zdY0HVYZKQx8b25R2B3+K3lX0uJ7BPlir7d/LDRfMOjeSNOsf&#xA;MOrvrmrqrvcak7O/NZHZowGkCv8ADGVHxb1xVV561H+WwfQlR9bTR+WlpJTgboWtYQ3Ki09Slamm&#xA;Kvh3TfOXmTWNS1N/OP5kav5f1GBgsSBby4R5AxDpxtpEWEJToFpir7T/ACg0TzHo/kSwt/MOtyeY&#xA;NSmL3H6RkeSQmGU1hUNMBIf3XEnl+0TiqbWh1EeW9SOmKjakJdTNisu0Zn+sz+kH/wAnnSuKvhqD&#xA;zl5s1fzBqkXnr8w9X8uX1sxUCNbm4jMoYh4xFayxLEF7cVpir7C/I3SfMdh5AtJtd8wy+ZpdTIv7&#xA;HUZmldvqdxEjQL+/AlB4/EQ1aE0xVlWjGYaTcmAK04utQ9JW+yX+tzcQadq4q+GLnzl541Lzhqlp&#xA;5/8APuqeWby1Z0cQC4niWZWoYkgtJY0RfArtir6z/IHRvMdh5GW61rzLN5oTVJBd6VfTNOxWyeJP&#xA;TUi4HqKxbkSCTTbFWceXv94Jf+Yy+/6jJcVfDmuecvzAvvzA1TTfzB876l5XltHlVvqQnnto5Fb4&#xA;Yo4LWWIBCOjip233xV9Pf846aV5gt/J82p6l5rn816fqkofRbmczlo7eLlG1Vuf3iM0nIFakUApi&#xA;r0XSf979a/5jE/6g7fFUzxV2KpZpP+9+tf8AMYn/AFB2+KpnirsVSn/pqv8Aox/5nYqx78wPJ+oe&#xA;cfyovvLWn3Ysr3UbKBILhiwTkhjk4OVBYJJw4NQHYnY4q+aPK35P/wDORXlKGfT9N8n6PeLJMXGo&#xA;3aaTdSg0CgpJPJ6oRacgpXr2xV9Vfl0nnVPJ2nJ52aKTzMquL+WAoUc+oxRv3aogPp8ahRSuKoDW&#xA;vLV15o/KSTy9aXX1K51PSI7eK53orPCuzcd+LfZanY4q+YPLf5Lf85CeUBd2em+UNH1NZ3r9eu10&#xA;u7YbU/dNdSLIq9+JXr2xV9S/lbF5+h8mWkXnv0W8xI8vrvAY+JjLloqiFVjUqp4UXbbFV11oc+vf&#xA;le2iW9ybOfU9GFrFdLWsbTWwQNtvQV3pir5X8u/kh/zkF5Mub2DTPKej6yk5A+u3Y0y7WiV3hN28&#xA;cqK3UgqK7bYq+n/ykg/Ma38oJD+YH1f9ORzyCP6t6QUW1FMSlYFSJSlWWi9gN8VTOPTpNT8q6rps&#xA;U7Wsl6+qW6XSfaiaW4nQSLuN15VG+Kvk3QvyH/PvyVqd6uk+V9H1+Obiq3l2NOukohahhF48ckfL&#xA;l8Xwiu3hir6V/Je1/M208qSW35gx20WpRzkWEVr6CpHZiNFjh9O2VYl9Mq1OPbFWSaZbtc6He2yy&#xA;tA09xqMazps6F7qZeS+61qMVfI2lfkD+fHkrXbyTSPLuk+Y45RwS8uxYXMRFah0S+eOSNj32+/FX&#xA;0d+SVp+atn5furf8wobS3nWZTpVvaC3RYbfgF9HhaqIlVGWq7k7n2xVmXl7/AHgl/wCYy+/6jJcV&#xA;fIcP/OPf54+TvNV5eaJommeaopOaxX199SnVlZgwkMV86Mkp7kV7ipxV9AfkZY/m3Y6bqMH5gWtn&#xA;ZRc4m0azshaosCEN60fp2g9MLy4sPiJqTirPNJ/3v1r/AJjE/wCoO3xVM8VdiqWaT/vfrX/MYn/U&#xA;Hb4qmeKuxVKf+mq/6Mf+Z2Kt6VquljS7MG8gBEEdR6ifyD3xVFfpbSv+W2D/AJGp/XFXfpbSv+W2&#xA;D/kan9cVS3y1quljy5pQN5ACLO3BBkT/AH0vviqZfpbSv+W2D/kan9cVd+ltK/5bYP8Akan9cVS3&#xA;yzquljy5pQN5ACLO3BBkT/fS++Kpl+ltK/5bYP8Akan9cVd+ltK/5bYP+Rqf1xVLfL+q6WLCUG8g&#xA;H+mXx3kTveSnxxVMv0tpX/LbB/yNT+uKu/S2lf8ALbB/yNT+uKpb5f1XSxYSg3kAP1y+O8id7yU+&#xA;OKpl+ltK/wCW2D/kan9cVd+ltK/5bYP+Rqf1xVLfL+q6WLCUG8gH+mXx3kTveSnxxVMv0tpX/LbB&#xA;/wAjU/rirv0tpX/LbB/yNT+uKpbpWq6WL/WSbyAA3iEfvE3/ANDtx44qmX6W0r/ltg/5Gp/XFXfp&#xA;bSv+W2D/AJGp/XFUt0rVdLF/rJN5AAbxCP3ib/6HbjxxVMv0tpX/AC2wf8jU/rirv0tpX/LbB/yN&#xA;T+uKpZ+kdP8A8S+t9Zi9L6nw9TmvHl6teNa0rTFX/9k=</xapGImg:image>
    </rdf:li>
   </rdf:Alt>
  </xap:Thumbnails>
 </rdf:Description>

 <rdf:Description rdf:about='uuid:63b0ee8a-231f-11de-ba28-001124740a56'
  xmlns:xapMM='http://ns.adobe.com/xap/1.0/mm/'>
  <xapMM:DocumentID>uuid:831aaf18-81ce-11da-9137-001124808cba</xapMM:DocumentID>
 </rdf:Description>

 <rdf:Description rdf:about='uuid:63b0ee8a-231f-11de-ba28-001124740a56'
  xmlns:dc='http://purl.org/dc/elements/1.1/'>
  <dc:format>image/svg+xml</dc:format>
 </rdf:Description>

</rdf:RDF>
</x:xmpmeta>
                                                                                                                                                                                                                                                                                                                                                                                                                                                                                                                                                                                                                                                                                                                                                                                                                                                                                                                                                                                                                                                                                                                                                                                                                                                                                                                                                                                                                                                                                                                                                                                                                                                                                                                                                                                                                                                                                                                                                                                                                                                                                                                                <?xpacket end='w'?>
			</metadata>
		<g id="レイヤー1">
			<g>
				<rect x="0.125" y="0.125" fill="none" stroke="#000000" stroke-width="0.25" width="100" height="150"/> 
				<rect x="100.125" y="0.125" fill="none" stroke="#000000" stroke-width="0.25" width="100" height="150"/> 
				<rect x="200.125" y="0.125" fill="none" stroke="#000000" stroke-width="0.25" width="100" height="150"/> 
				<rect x="300.125" y="0.125" fill="none" stroke="#000000" stroke-width="0.25" width="100" height="150"/> 
				<rect x="400.125" y="0.125" fill="none" stroke="#000000" stroke-width="0.25" width="100" height="150"/> 
				<rect x="500.125" y="0.125" fill="none" stroke="#000000" stroke-width="0.25" width="100" height="150"/> 
				<rect x="600.125" y="0.125" fill="none" stroke="#000000" stroke-width="0.25" width="100" height="150"/> 
				<rect x="0.125" y="150.125" fill="none" stroke="#000000" stroke-width="0.25" width="100" height="150"/> 
				<rect x="100.125" y="150.125" fill="none" stroke="#000000" stroke-width="0.25" width="100" height="150"/> 
				<rect x="200.125" y="150.125" fill="none" stroke="#000000" stroke-width="0.25" width="100" height="150"/> 
				<rect x="300.125" y="150.125" fill="none" stroke="#000000" stroke-width="0.25" width="100" height="150"/> 
				<rect x="400.125" y="150.125" fill="none" stroke="#000000" stroke-width="0.25" width="100" height="150"/> 
				<rect x="500.125" y="150.125" fill="none" stroke="#000000" stroke-width="0.25" width="100" height="150"/> 
				<rect x="600.125" y="150.125" fill="none" stroke="#000000" stroke-width="0.25" width="100" height="150"/> 
				<rect x="0.125" y="300.125" fill="none" stroke="#000000" stroke-width="0.25" width="100" height="150"/> 
				<rect x="100.125" y="300.125" fill="none" stroke="#000000" stroke-width="0.25" width="100" height="150"/> 
				<rect x="200.125" y="300.125" fill="none" stroke="#000000" stroke-width="0.25" width="100" height="150"/> 
				<rect x="300.125" y="300.125" fill="none" stroke="#000000" stroke-width="0.25" width="100" height="150"/> 
				<rect x="400.125" y="300.125" fill="none" stroke="#000000" stroke-width="0.25" width="100" height="150"/> 
				<rect x="500.125" y="300.125" fill="none" stroke="#000000" stroke-width="0.25" width="100" height="150"/> 
				<rect x="600.125" y="300.125" fill="none" stroke="#000000" stroke-width="0.25" width="100" height="150"/> 
				<rect x="0.125" y="450.125" fill="none" stroke="#000000" stroke-width="0.25" width="100" height="150"/> 
				<rect x="100.125" y="450.125" fill="none" stroke="#000000" stroke-width="0.25" width="100" height="150"/> 
				<rect x="200.125" y="450.125" fill="none" stroke="#000000" stroke-width="0.25" width="100" height="150"/> 
				<rect x="300.125" y="450.125" fill="none" stroke="#000000" stroke-width="0.25" width="100" height="150"/> 
				<rect x="400.125" y="450.125" fill="none" stroke="#000000" stroke-width="0.25" width="100" height="150"/> 
				<rect x="500.125" y="450.125" fill="none" stroke="#000000" stroke-width="0.25" width="100" height="150"/> 
				<rect x="600.125" y="450.125" fill="none" stroke="#000000" stroke-width="0.25" width="100" height="150"/> 
				<rect x="0.125" y="600.125" fill="none" stroke="#000000" stroke-width="0.25" width="100" height="150"/> 
				<rect x="100.125" y="600.125" fill="none" stroke="#000000" stroke-width="0.25" width="100" height="150"/> 
				<rect x="200.125" y="600.125" fill="none" stroke="#000000" stroke-width="0.25" width="100" height="150"/> 
				<rect x="300.125" y="600.125" fill="none" stroke="#000000" stroke-width="0.25" width="100" height="150"/> 
				<rect x="400.125" y="600.125" fill="none" stroke="#000000" stroke-width="0.25" width="100" height="150"/> 
				<rect x="500.125" y="600.125" fill="none" stroke="#000000" stroke-width="0.25" width="100" height="150"/> 
				<rect x="600.125" y="600.125" fill="none" stroke="#000000" stroke-width="0.25" width="100" height="150"/> 
				<rect x="0.125" y="750.125" fill="none" stroke="#000000" stroke-width="0.25" width="100" height="150"/> 
				<rect x="100.125" y="750.125" fill="none" stroke="#000000" stroke-width="0.25" width="100" height="150"/> 
				<rect x="200.125" y="750.125" fill="none" stroke="#000000" stroke-width="0.25" width="100" height="150"/> 
				<rect x="300.125" y="750.125" fill="none" stroke="#000000" stroke-width="0.25" width="100" height="150"/> 
				<rect x="400.125" y="750.125" fill="none" stroke="#000000" stroke-width="0.25" width="100" height="150"/> 
				<rect x="500.125" y="750.125" fill="none" stroke="#000000" stroke-width="0.25" width="100" height="150"/> 
				<rect x="600.125" y="750.125" fill="none" stroke="#000000" stroke-width="0.25" width="100" height="150"/> 
				<rect x="0.125" y="900.125" fill="none" stroke="#000000" stroke-width="0.25" width="100" height="150"/> 
				<rect x="100.125" y="900.125" fill="none" stroke="#000000" stroke-width="0.25" width="100" height="150"/> 
				<rect x="200.125" y="900.125" fill="none" stroke="#000000" stroke-width="0.25" width="100" height="150"/> 
				<rect x="300.125" y="900.125" fill="none" stroke="#000000" stroke-width="0.25" width="100" height="150"/> 
				<rect x="400.125" y="900.125" fill="none" stroke="#000000" stroke-width="0.25" width="100" height="150"/> 
				<rect x="500.125" y="900.125" fill="none" stroke="#000000" stroke-width="0.25" width="100" height="150"/> 
				<rect x="600.125" y="900.125" fill="none" stroke="#000000" stroke-width="0.25" width="100" height="150"/> 
				<rect x="700.125" y="0.125" fill="none" stroke="#000000" stroke-width="0.25" width="100" height="150"/> 
				<rect x="700.125" y="150.125" fill="none" stroke="#000000" stroke-width="0.25" width="100" height="150"/> 
				<rect x="700.125" y="300.125" fill="none" stroke="#000000" stroke-width="0.25" width="100" height="150"/> 
				<rect x="700.125" y="450.125" fill="none" stroke="#000000" stroke-width="0.25" width="100" height="150"/> 
				<rect x="700.125" y="600.125" fill="none" stroke="#000000" stroke-width="0.25" width="100" height="150"/> 
				<rect x="700.125" y="750.125" fill="none" stroke="#000000" stroke-width="0.25" width="100" height="150"/> 
				<rect x="700.125" y="900.125" fill="none" stroke="#000000" stroke-width="0.25" width="100" height="150"/> 
			</g>
			<g>
				<path d="M38.125,981.0234375c-8.609375-2.2695312-12.5-6.5175781-12.5-12.3984375c0-6.8789062,9.0839844-13.5,25.5-13.5
					c7,0,14.7695312,1.2890625,22.5,4l-4,12.5c-6.7871094-2.4101562-12.4023438-3.5-16.5-3.5c-7.3125,0-9,1.3515625-9,3.5
					c0,2.8789062,3.2685547,4.5,16.5,4.5h3.5v11h-3.5c-13.7832031,0-17,1.7011719-17,4.5c0,2.5410156,2.2792969,4,8.5,4
					c6.3105469,0,11.0039062-0.7226562,18.5-3l4,12.5c-7.9824219,2.6445312-15.984375,4-23.5,4c-17.109375,0-26-6.2734375-26-15
					c0-6.4355469,5.34375-12.1660156,13-12.9003906V981.0234375z"/>
				<path d="M38.831543,830.8720703C30.4140625,828.7382812,26.375,824.171875,26.375,818.4580078
					c0-6.9492188,8.7958984-13.3330078,24.8330078-13.3330078c6.8012695,0,14.3334961,1.2919922,21.6499023,3.9296875
					l-3.4663086,10.8066406C62.9140625,817.4960938,57.199707,816.375,52.8745117,816.375
					c-8.2285156,0-10.6665039,1.8085938-10.6665039,4.5830078c0,3.3916016,3.9106445,5.4169922,17.6665039,5.4169922h3.6669922
					v9.9326172h-3.6669922c-14.5463867,0-18.2495117,2.1376953-18.2495117,5.7333984
					c0,3.3935547,2.9873047,5.4169922,10.4165039,5.4169922c6.1923828,0,11.1171875-0.8056641,18.2705078-3.0703125
					l3.4584961,10.8076172c-7.5976562,2.5878906-15.3242188,3.9296875-22.5625,3.9296875
					c-16.7861328,0-25.4165039-6.2451172-25.4165039-15c0-6.4384766,5.2607422-12.1289062,13.0400391-13.0527344V830.8720703z"/>
				<path d="M39.5390625,680.7197266C31.3134766,678.7236328,27.125,673.8378906,27.125,668.2919922
					c0-7.0214844,8.5083008-13.1669922,24.1669922-13.1669922c6.6025391,0,13.8969727,1.2939453,20.7993164,3.8603516
					l-2.9326172,9.1123047C62.9902344,665.7773438,57.1777344,664.625,52.625,664.625
					c-9.1445312,0-12.3334961,2.2666016-12.3334961,5.6669922c0,3.9033203,4.5532227,6.3330078,18.8334961,6.3330078h3.8334961
					v8.8662109H59.125c-15.3095703,0-19.5,2.5732422-19.5,6.9667969c0,4.2460938,3.6962891,6.8339844,12.3334961,6.8339844
					c6.0742188,0,11.2304688-0.8886719,18.0410156-3.1425781l2.9169922,9.1171875
					c-7.2119141,2.53125-14.6640625,3.8583984-21.6245117,3.8583984c-16.4638672,0-24.8334961-6.2158203-24.8334961-15
					c0-6.4404297,5.1782227-12.0917969,13.0805664-13.2050781V680.7197266z"/>
				<path d="M40.2460938,530.7675781v-0.1992188C32.2119141,528.7089844,27.875,523.5039062,27.875,518.125
					c0-7.0917969,8.2207031-13,23.5-13c6.4042969,0,13.4609375,1.296875,19.9492188,3.7910156l-2.3984375,7.4179688
					C63.0664062,514.0585938,57.1552734,512.875,52.375,512.875c-10.0605469,0-14,2.7246094-14,6.75
					c0,4.4160156,5.1953125,7.25,20,7.25h4v7.7988281h-4c-16.0732422,0-20.75,3.0097656-20.75,8.2011719
					c0,5.0976562,4.4042969,8.25,14.25,8.25c5.9560547,0,11.34375-0.9707031,17.8115234-3.2128906l2.3759766,7.4257812
					C65.2353516,557.8125,58.0585938,559.125,51.375,559.125c-16.140625,0-24.25-6.1875-24.25-15
					C27.125,537.6816406,32.2207031,532.0703125,40.2460938,530.7675781z"/>
				<path d="M27.7915039,394.125c0-5.8540039,4.1469727-11.9697266,13.828125-13.7094727v-0.1992188
					C32.8300781,378.2753906,28.625,373.1494141,28.625,367.9580078c0-7.3374023,8.1591797-12.8330078,22.8330078-12.8330078
					c6.2060547,0,13.0244141,1.2988281,19.0986328,3.7211914l-1.8642578,5.5571289
					c-5.5498047-2.2304688-11.5595703-3.4453125-16.5678711-3.4453125c-10.7773438,0-15.8330078,3.125-15.8330078,8
					c0,5.2055664,6.4648438,8.5,21.1665039,8.5h4.3334961v5.8662109h-4.3334961c-16.0581055,0-22,3.5620117-22,9.9672852
					c0,6.1923828,5.362793,9.8330078,16.3334961,9.8330078c5.8378906,0,11.4570312-1.0522461,17.581543-3.284668
					l1.8354492,5.5688477C64.765625,407.8266602,57.8647461,409.125,51.4580078,409.125
					C35.9316406,409.125,27.7915039,403.1777344,27.7915039,394.125z"/>
				<path d="M28.4584961,244.125c0-5.2636719,3.1982422-11.8842773,14.5356445-14.0605469v-0.1992188
					C33.4487305,227.8417969,29.375,222.7954102,29.375,217.7915039c0-7.5825195,8.0986328-12.6665039,22.1665039-12.6665039
					c6.0078125,0,12.5874023,1.3022461,18.2490234,3.6518555l-1.3305664,3.6967773
					c-5.2412109-2.1860352-11.3491211-3.4321289-16.5849609-3.4321289c-11.4941406,0-17.6665039,3.5253906-17.6665039,9.25
					c0,5.9956055,7.734375,9.7504883,22.3330078,9.7504883h4.6669922v3.9326172h-4.6669922
					c-16.0424805,0-23.2495117,4.1152344-23.2495117,11.7338867c0,7.2875977,6.3208008,11.4165039,18.4165039,11.4165039
					c5.7197266,0,11.5703125-1.1347656,17.3525391-3.355957l1.2944336,3.7109375
					C64.2963867,257.8413086,57.671875,259.125,51.5415039,259.125C36.6289062,259.125,28.4584961,253.4179688,28.4584961,244.125z"
					/>
				<path d="M44.3681641,79.7128906C31.375,82.3261719,29.125,89.4511719,29.125,94.125c0,9.5332031,8.2011719,15,22.5,15
					c5.8535156,0,12.2021484-1.2695312,17.8769531-3.5742188l-0.7539062-1.8535156
					C63.3085938,105.9082031,57.2265625,107.125,51.625,107.125c-13.2207031,0-20.5-4.6171875-20.5-13
					c0-8.8320312,8.4726562-13.5,24.5-13.5h5v-2h-5c-14.4960938,0-23.5-4.2148438-23.5-11c0-6.5742188,7.2890625-10.5,19.5-10.5
					c5.4638672,0,11.6699219,1.2773438,16.6015625,3.4179688l0.796875-1.8359375
					C63.7753906,56.4296875,57.4345703,55.125,51.625,55.125c-13.4628906,0-21.5,4.671875-21.5,12.5
					c0,4.8164062,3.9423828,9.7832031,14.2431641,11.8886719V79.7128906z"/>
			</g>
			<g>
				<path d="M138.125,981.0234375c-8.609375-2.2695312-12.5-6.5175781-12.5-12.3984375c0-6.8789062,9.0839844-13.5,25.5-13.5
					c7,0,14.7695312,1.2890625,22.5,4l-4,12.5c-6.7871094-2.4101562-12.4023438-3.5-16.5-3.5c-7.3125,0-9,1.3515625-9,3.5
					c0,2.8789062,3.2685547,4.5,16.5,4.5h3.5v11h-3.5c-13.7832031,0-17,1.7011719-17,4.5c0,2.5410156,2.2792969,4,8.5,4
					c6.3105469,0,11.0039062-0.7226562,18.5-3l4,12.5c-7.9824219,2.6445312-15.984375,4-23.5,4c-17.109375,0-26-6.2734375-26-15
					c0-6.4355469,5.34375-12.1660156,13-12.9003906V981.0234375z"/>
				<path d="M138.831543,830.8720703c-8.4174805-2.1337891-12.456543-6.7001953-12.456543-12.4140625
					c0-6.9492188,8.7958984-13.3330078,24.8330078-13.3330078c6.8012695,0,14.3334961,1.2919922,21.6499023,3.9296875
					l-3.4663086,10.8066406c-6.4775391-2.3652344-12.1918945-3.4863281-16.5170898-3.4863281
					c-8.2285156,0-10.6665039,1.8085938-10.6665039,4.5830078c0,3.3916016,3.9106445,5.4169922,17.6665039,5.4169922h3.6669922
					v9.9326172h-3.6669922c-14.5463867,0-18.2495117,2.1376953-18.2495117,5.7333984
					c0,3.3935547,2.9873047,5.4169922,10.4165039,5.4169922c6.1923828,0,11.1171875-0.8056641,18.2705078-3.0703125
					l3.4584961,10.8076172c-7.5976562,2.5878906-15.3242188,3.9296875-22.5625,3.9296875
					c-16.7861328,0-25.4165039-6.2451172-25.4165039-15c0-6.4384766,5.2607422-12.1289062,13.0400391-13.0527344V830.8720703z"/>
				<path d="M139.5390625,680.7197266c-8.2255859-1.9960938-12.4140625-6.8818359-12.4140625-12.4277344
					c0-7.0214844,8.5083008-13.1669922,24.1669922-13.1669922c6.6025391,0,13.8969727,1.2939453,20.7993164,3.8603516
					l-2.9326172,9.1123047C162.9902344,665.7773438,157.1777344,664.625,152.625,664.625
					c-9.1445312,0-12.3334961,2.2666016-12.3334961,5.6669922c0,3.9033203,4.5532227,6.3330078,18.8334961,6.3330078h3.8334961
					v8.8662109H159.125c-15.3095703,0-19.5,2.5732422-19.5,6.9667969c0,4.2460938,3.6962891,6.8339844,12.3334961,6.8339844
					c6.0742188,0,11.2304688-0.8886719,18.0410156-3.1425781l2.9169922,9.1171875
					c-7.2119141,2.53125-14.6640625,3.8583984-21.6245117,3.8583984c-16.4638672,0-24.8334961-6.2158203-24.8334961-15
					c0-6.4404297,5.1782227-12.0917969,13.0805664-13.2050781V680.7197266z"/>
				<path d="M140.2460938,530.7675781v-0.1992188C132.2119141,528.7089844,127.875,523.5039062,127.875,518.125
					c0-7.0917969,8.2207031-13,23.5-13c6.4042969,0,13.4609375,1.296875,19.9492188,3.7910156l-2.3984375,7.4179688
					C163.0664062,514.0585938,157.1552734,512.875,152.375,512.875c-10.0605469,0-14,2.7246094-14,6.75
					c0,4.4160156,5.1953125,7.25,20,7.25h4v7.7988281h-4c-16.0732422,0-20.75,3.0097656-20.75,8.2011719
					c0,5.0976562,4.4042969,8.25,14.25,8.25c5.9560547,0,11.34375-0.9707031,17.8115234-3.2128906l2.3759766,7.4257812
					C165.2353516,557.8125,158.0585938,559.125,151.375,559.125c-16.140625,0-24.25-6.1875-24.25-15
					C127.125,537.6816406,132.2207031,532.0703125,140.2460938,530.7675781z"/>
				<path d="M127.7915039,394.125c0-5.8540039,4.1469727-11.9697266,13.828125-13.7094727v-0.1992188
					c-8.7895508-1.940918-12.9946289-7.0668945-12.9946289-12.2583008c0-7.3374023,8.1591797-12.8330078,22.8330078-12.8330078
					c6.2060547,0,13.0244141,1.2988281,19.0986328,3.7211914l-1.8642578,5.5571289
					c-5.5498047-2.2304688-11.5595703-3.4453125-16.5678711-3.4453125c-10.7773438,0-15.8330078,3.125-15.8330078,8
					c0,5.2055664,6.4648438,8.5,21.1665039,8.5h4.3334961v5.8662109h-4.3334961c-16.0581055,0-22,3.5620117-22,9.9672852
					c0,6.1923828,5.362793,9.8330078,16.3334961,9.8330078c5.8378906,0,11.4570312-1.0522461,17.581543-3.284668
					l1.8354492,5.5688477c-6.4428711,2.4179688-13.34375,3.7163086-19.7504883,3.7163086
					C135.9316406,409.125,127.7915039,403.1777344,127.7915039,394.125z"/>
				<path d="M128.4584961,244.125c0-5.2636719,3.1982422-11.8842773,14.5356445-14.0605469v-0.1992188
					c-9.5454102-2.0234375-13.6191406-7.0698242-13.6191406-12.0737305c0-7.5825195,8.0986328-12.6665039,22.1665039-12.6665039
					c6.0078125,0,12.5874023,1.3022461,18.2490234,3.6518555l-1.3305664,3.6967773
					c-5.2412109-2.1860352-11.3491211-3.4321289-16.5849609-3.4321289c-11.4941406,0-17.6665039,3.5253906-17.6665039,9.25
					c0,5.9956055,7.734375,9.7504883,22.3330078,9.7504883h4.6669922v3.9326172h-4.6669922
					c-16.0424805,0-23.2495117,4.1152344-23.2495117,11.7338867c0,7.2875977,6.3208008,11.4165039,18.4165039,11.4165039
					c5.7197266,0,11.5703125-1.1347656,17.3525391-3.355957l1.2944336,3.7109375
					c-6.059082,2.3613281-12.6835938,3.6450195-18.8139648,3.6450195
					C136.6289062,259.125,128.4584961,253.4179688,128.4584961,244.125z"/>
				<path d="M144.3681641,79.7128906C131.375,82.3261719,129.125,89.4511719,129.125,94.125c0,9.5332031,8.2011719,15,22.5,15
					c5.8535156,0,12.2021484-1.2695312,17.8769531-3.5742188l-0.7539062-1.8535156
					C163.3085938,105.9082031,157.2265625,107.125,151.625,107.125c-13.2207031,0-20.5-4.6171875-20.5-13
					c0-8.8320312,8.4726562-13.5,24.5-13.5h5v-2h-5c-14.4960938,0-23.5-4.2148438-23.5-11c0-6.5742188,7.2890625-10.5,19.5-10.5
					c5.4638672,0,11.6699219,1.2773438,16.6015625,3.4179688l0.796875-1.8359375
					C163.7753906,56.4296875,157.4345703,55.125,151.625,55.125c-13.4628906,0-21.5,4.671875-21.5,12.5
					c0,4.8164062,3.9423828,9.7832031,14.2431641,11.8886719V79.7128906z"/>
			</g>
			<g>
				<path d="M238.125,981.0234375c-8.609375-2.2695312-12.5-6.5175781-12.5-12.3984375c0-6.8789062,9.0839844-13.5,25.5-13.5
					c7,0,14.7695312,1.2890625,22.5,4l-4,12.5c-6.7871094-2.4101562-12.4023438-3.5-16.5-3.5c-7.3125,0-9,1.3515625-9,3.5
					c0,2.8789062,3.2685547,4.5,16.5,4.5h3.5v11h-3.5c-13.7832031,0-17,1.7011719-17,4.5c0,2.5410156,2.2792969,4,8.5,4
					c6.3105469,0,11.0039062-0.7226562,18.5-3l4,12.5c-7.9824219,2.6445312-15.984375,4-23.5,4c-17.109375,0-26-6.2734375-26-15
					c0-6.4355469,5.34375-12.1660156,13-12.9003906V981.0234375z"/>
				<path d="M238.831543,830.8720703c-8.4174805-2.1337891-12.456543-6.7001953-12.456543-12.4140625
					c0-6.9492188,8.7958984-13.3330078,24.8330078-13.3330078c6.8012695,0,14.3334961,1.2919922,21.6499023,3.9296875
					l-3.4663086,10.8066406c-6.4775391-2.3652344-12.1918945-3.4863281-16.5170898-3.4863281
					c-8.2285156,0-10.6665039,1.8085938-10.6665039,4.5830078c0,3.3916016,3.9106445,5.4169922,17.6665039,5.4169922h3.6669922
					v9.9326172h-3.6669922c-14.5463867,0-18.2495117,2.1376953-18.2495117,5.7333984
					c0,3.3935547,2.9873047,5.4169922,10.4165039,5.4169922c6.1923828,0,11.1171875-0.8056641,18.2705078-3.0703125
					l3.4584961,10.8076172c-7.5976562,2.5878906-15.3242188,3.9296875-22.5625,3.9296875
					c-16.7861328,0-25.4165039-6.2451172-25.4165039-15c0-6.4384766,5.2607422-12.1289062,13.0400391-13.0527344V830.8720703z"/>
				<path d="M239.5390625,680.7197266c-8.2255859-1.9960938-12.4140625-6.8818359-12.4140625-12.4277344
					c0-7.0214844,8.5083008-13.1669922,24.1669922-13.1669922c6.6025391,0,13.8969727,1.2939453,20.7993164,3.8603516
					l-2.9326172,9.1123047C262.9902344,665.7773438,257.1777344,664.625,252.625,664.625
					c-9.1445312,0-12.3334961,2.2666016-12.3334961,5.6669922c0,3.9033203,4.5532227,6.3330078,18.8334961,6.3330078h3.8334961
					v8.8662109H259.125c-15.3095703,0-19.5,2.5732422-19.5,6.9667969c0,4.2460938,3.6962891,6.8339844,12.3334961,6.8339844
					c6.0742188,0,11.2304688-0.8886719,18.0410156-3.1425781l2.9169922,9.1171875
					c-7.2119141,2.53125-14.6640625,3.8583984-21.6245117,3.8583984c-16.4638672,0-24.8334961-6.2158203-24.8334961-15
					c0-6.4404297,5.1782227-12.0917969,13.0805664-13.2050781V680.7197266z"/>
				<path d="M240.2460938,530.7675781v-0.1992188C232.2119141,528.7089844,227.875,523.5039062,227.875,518.125
					c0-7.0917969,8.2207031-13,23.5-13c6.4042969,0,13.4609375,1.296875,19.9492188,3.7910156l-2.3984375,7.4179688
					C263.0664062,514.0585938,257.1552734,512.875,252.375,512.875c-10.0605469,0-14,2.7246094-14,6.75
					c0,4.4160156,5.1953125,7.25,20,7.25h4v7.7988281h-4c-16.0732422,0-20.75,3.0097656-20.75,8.2011719
					c0,5.0976562,4.4042969,8.25,14.25,8.25c5.9560547,0,11.34375-0.9707031,17.8115234-3.2128906l2.3759766,7.4257812
					C265.2353516,557.8125,258.0585938,559.125,251.375,559.125c-16.140625,0-24.25-6.1875-24.25-15
					C227.125,537.6816406,232.2207031,532.0703125,240.2460938,530.7675781z"/>
				<path d="M227.7915039,394.125c0-5.8540039,4.1469727-11.9697266,13.828125-13.7094727v-0.1992188
					c-8.7895508-1.940918-12.9946289-7.0668945-12.9946289-12.2583008c0-7.3374023,8.1591797-12.8330078,22.8330078-12.8330078
					c6.2060547,0,13.0244141,1.2988281,19.0986328,3.7211914l-1.8642578,5.5571289
					c-5.5498047-2.2304688-11.5595703-3.4453125-16.5678711-3.4453125c-10.7773438,0-15.8330078,3.125-15.8330078,8
					c0,5.2055664,6.4648438,8.5,21.1665039,8.5h4.3334961v5.8662109h-4.3334961c-16.0581055,0-22,3.5620117-22,9.9672852
					c0,6.1923828,5.362793,9.8330078,16.3334961,9.8330078c5.8378906,0,11.4570312-1.0522461,17.581543-3.284668
					l1.8354492,5.5688477c-6.4428711,2.4179688-13.34375,3.7163086-19.7504883,3.7163086
					C235.9316406,409.125,227.7915039,403.1777344,227.7915039,394.125z"/>
				<path d="M228.4584961,244.125c0-5.2636719,3.1982422-11.8842773,14.5356445-14.0605469v-0.1992188
					c-9.5454102-2.0234375-13.6191406-7.0698242-13.6191406-12.0737305c0-7.5825195,8.0986328-12.6665039,22.1665039-12.6665039
					c6.0078125,0,12.5874023,1.3022461,18.2490234,3.6518555l-1.3305664,3.6967773
					c-5.2412109-2.1860352-11.3491211-3.4321289-16.5849609-3.4321289c-11.4941406,0-17.6665039,3.5253906-17.6665039,9.25
					c0,5.9956055,7.734375,9.7504883,22.3330078,9.7504883h4.6669922v3.9326172h-4.6669922
					c-16.0424805,0-23.2495117,4.1152344-23.2495117,11.7338867c0,7.2875977,6.3208008,11.4165039,18.4165039,11.4165039
					c5.7197266,0,11.5703125-1.1347656,17.3525391-3.355957l1.2944336,3.7109375
					c-6.059082,2.3613281-12.6835938,3.6450195-18.8139648,3.6450195
					C236.6289062,259.125,228.4584961,253.4179688,228.4584961,244.125z"/>
				<path d="M244.3681641,79.7128906C231.375,82.3261719,229.125,89.4511719,229.125,94.125c0,9.5332031,8.2011719,15,22.5,15
					c5.8535156,0,12.2021484-1.2695312,17.8769531-3.5742188l-0.7539062-1.8535156
					C263.3085938,105.9082031,257.2265625,107.125,251.625,107.125c-13.2207031,0-20.5-4.6171875-20.5-13
					c0-8.8320312,8.4726562-13.5,24.5-13.5h5v-2h-5c-14.4960938,0-23.5-4.2148438-23.5-11c0-6.5742188,7.2890625-10.5,19.5-10.5
					c5.4638672,0,11.6699219,1.2773438,16.6015625,3.4179688l0.796875-1.8359375
					C263.7753906,56.4296875,257.4345703,55.125,251.625,55.125c-13.4628906,0-21.5,4.671875-21.5,12.5
					c0,4.8164062,3.9423828,9.7832031,14.2431641,11.8886719V79.7128906z"/>
			</g>
			<g>
				<path d="M338.125,981.0234375c-8.609375-2.2695312-12.5-6.5175781-12.5-12.3984375c0-6.8789062,9.0839844-13.5,25.5-13.5
					c7,0,14.7695312,1.2890625,22.5,4l-4,12.5c-6.7871094-2.4101562-12.4023438-3.5-16.5-3.5c-7.3125,0-9,1.3515625-9,3.5
					c0,2.8789062,3.2685547,4.5,16.5,4.5h3.5v11h-3.5c-13.7832031,0-17,1.7011719-17,4.5c0,2.5410156,2.2792969,4,8.5,4
					c6.3105469,0,11.0039062-0.7226562,18.5-3l4,12.5c-7.9824219,2.6445312-15.984375,4-23.5,4c-17.109375,0-26-6.2734375-26-15
					c0-6.4355469,5.34375-12.1660156,13-12.9003906V981.0234375z"/>
				<path d="M338.831543,830.8720703c-8.4174805-2.1337891-12.456543-6.7001953-12.456543-12.4140625
					c0-6.9492188,8.7958984-13.3330078,24.8330078-13.3330078c6.8017578,0,14.3330078,1.2919922,21.6494141,3.9296875
					l-3.4658203,10.8066406C362.9140625,817.4960938,357.1992188,816.375,352.875,816.375
					c-8.2290039,0-10.6669922,1.8085938-10.6669922,4.5830078c0,3.3916016,3.9106445,5.4169922,17.6669922,5.4169922h3.6660156
					v9.9326172H359.875c-14.546875,0-18.25,2.1376953-18.25,5.7333984c0,3.3935547,2.9873047,5.4169922,10.4160156,5.4169922
					c6.1933594,0,11.1171875-0.8056641,18.2714844-3.0703125l3.4580078,10.8076172
					c-7.5976562,2.5878906-15.3242188,3.9296875-22.5625,3.9296875c-16.7861328,0-25.4165039-6.2451172-25.4165039-15
					c0-6.4384766,5.2607422-12.1289062,13.0400391-13.0527344V830.8720703z"/>
				<path d="M339.5390625,680.7197266c-8.2255859-1.9960938-12.4140625-6.8818359-12.4140625-12.4277344
					c0-7.0214844,8.5083008-13.1669922,24.1669922-13.1669922c6.6025391,0,13.8974609,1.2939453,20.7998047,3.8603516
					l-2.9335938,9.1123047C362.9902344,665.7773438,357.1777344,664.625,352.625,664.625
					c-9.1445312,0-12.3334961,2.2666016-12.3334961,5.6669922c0,3.9033203,4.5532227,6.3330078,18.8334961,6.3330078h3.8339844
					v8.8662109H359.125c-15.3095703,0-19.5,2.5732422-19.5,6.9667969c0,4.2460938,3.6962891,6.8339844,12.3339844,6.8339844
					c6.0742188,0,11.2304688-0.8886719,18.0410156-3.1425781l2.9160156,9.1171875
					c-7.2109375,2.53125-14.6640625,3.8583984-21.6240234,3.8583984c-16.4638672,0-24.8334961-6.2158203-24.8334961-15
					c0-6.4404297,5.1782227-12.0917969,13.0805664-13.2050781V680.7197266z"/>
				<path d="M340.2460938,530.7675781v-0.1992188C332.2119141,528.7089844,327.875,523.5039062,327.875,518.125
					c0-7.0917969,8.2207031-13,23.5-13c6.4042969,0,13.4609375,1.296875,19.9492188,3.7910156l-2.3984375,7.4179688
					C363.0664062,514.0585938,357.1552734,512.875,352.375,512.875c-10.0605469,0-14,2.7246094-14,6.75
					c0,4.4160156,5.1953125,7.25,20,7.25h4v7.7988281h-4c-16.0732422,0-20.75,3.0097656-20.75,8.2011719
					c0,5.0976562,4.4042969,8.25,14.25,8.25c5.9560547,0,11.34375-0.9707031,17.8115234-3.2128906l2.3759766,7.4257812
					C365.2353516,557.8125,358.0585938,559.125,351.375,559.125c-16.140625,0-24.25-6.1875-24.25-15
					C327.125,537.6816406,332.2207031,532.0703125,340.2460938,530.7675781z"/>
				<path d="M327.7915039,394.125c0-5.8540039,4.1469727-11.9697266,13.828125-13.7094727v-0.1992188
					c-8.7895508-1.940918-12.9946289-7.0668945-12.9946289-12.2583008c0-7.3374023,8.1591797-12.8330078,22.8330078-12.8330078
					c6.2060547,0,13.0244141,1.2988281,19.0986328,3.7211914l-1.8642578,5.5571289
					c-5.5498047-2.2304688-11.5595703-3.4453125-16.5673828-3.4453125c-10.777832,0-15.8334961,3.125-15.8334961,8
					c0,5.2055664,6.4648438,8.5,21.1665039,8.5h4.3330078v5.8662109h-4.3330078c-16.0581055,0-22,3.5620117-22,9.9672852
					c0,6.1923828,5.362793,9.8330078,16.3330078,9.8330078c5.8378906,0,11.4570312-1.0522461,17.5820312-3.284668
					l1.8359375,5.5688477c-6.4433594,2.4179688-13.34375,3.7163086-19.7509766,3.7163086
					C335.9316406,409.125,327.7915039,403.1777344,327.7915039,394.125z"/>
				<path d="M328.4584961,244.125c0-5.2636719,3.1982422-11.8842773,14.5356445-14.0605469v-0.1992188
					c-9.5454102-2.0234375-13.6191406-7.0698242-13.6191406-12.0737305c0-7.5825195,8.0986328-12.6665039,22.1660156-12.6665039
					c6.0078125,0,12.5878906,1.3022461,18.25,3.6518555l-1.3310547,3.6967773
					c-5.2412109-2.1860352-11.3486328-3.4321289-16.5849609-3.4321289c-11.4941406,0-17.6665039,3.5253906-17.6665039,9.25
					c0,5.9956055,7.734375,9.7504883,22.3325195,9.7504883h4.6679688v3.9326172h-4.6679688
					c-16.0419922,0-23.2490234,4.1152344-23.2490234,11.7338867c0,7.2875977,6.3208008,11.4165039,18.4169922,11.4165039
					c5.71875,0,11.5703125-1.1347656,17.3515625-3.355957l1.2949219,3.7109375
					C364.296875,257.8413086,357.671875,259.125,351.5410156,259.125
					C336.6289062,259.125,328.4584961,253.4179688,328.4584961,244.125z"/>
				<path d="M344.3681641,79.7128906C331.375,82.3261719,329.125,89.4511719,329.125,94.125c0,9.5332031,8.2011719,15,22.5,15
					c5.8535156,0,12.2021484-1.2695312,17.8769531-3.5742188l-0.7539062-1.8535156
					C363.3085938,105.9082031,357.2265625,107.125,351.625,107.125c-13.2207031,0-20.5-4.6171875-20.5-13
					c0-8.8320312,8.4726562-13.5,24.5-13.5h5v-2h-5c-14.4960938,0-23.5-4.2148438-23.5-11c0-6.5742188,7.2890625-10.5,19.5-10.5
					c5.4638672,0,11.6699219,1.2773438,16.6015625,3.4179688l0.796875-1.8359375
					C363.7753906,56.4296875,357.4345703,55.125,351.625,55.125c-13.4628906,0-21.5,4.671875-21.5,12.5
					c0,4.8164062,3.9423828,9.7832031,14.2431641,11.8886719V79.7128906z"/>
			</g>
			<g>
				<path d="M438.125,981.0234375c-8.609375-2.2695312-12.5-6.5175781-12.5-12.3984375c0-6.8789062,9.0839844-13.5,25.5-13.5
					c7,0,14.7695312,1.2890625,22.5,4l-4,12.5c-6.7871094-2.4101562-12.4023438-3.5-16.5-3.5c-7.3125,0-9,1.3515625-9,3.5
					c0,2.8789062,3.2685547,4.5,16.5,4.5h3.5v11h-3.5c-13.7832031,0-17,1.7011719-17,4.5c0,2.5410156,2.2792969,4,8.5,4
					c6.3105469,0,11.0039062-0.7226562,18.5-3l4,12.5c-7.9824219,2.6445312-15.984375,4-23.5,4c-17.109375,0-26-6.2734375-26-15
					c0-6.4355469,5.34375-12.1660156,13-12.9003906V981.0234375z"/>
				<path d="M438.8320312,830.8720703C430.4140625,828.7382812,426.375,824.171875,426.375,818.4580078
					c0-6.9492188,8.7958984-13.3330078,24.8330078-13.3330078c6.8017578,0,14.3330078,1.2919922,21.6494141,3.9296875
					l-3.4658203,10.8066406C462.9140625,817.4960938,457.1992188,816.375,452.875,816.375
					c-8.2285156,0-10.6669922,1.8085938-10.6669922,4.5830078c0,3.3916016,3.9111328,5.4169922,17.6669922,5.4169922h3.6660156
					v9.9326172H459.875c-14.546875,0-18.25,2.1376953-18.25,5.7333984c0,3.3935547,2.9873047,5.4169922,10.4160156,5.4169922
					c6.1933594,0,11.1171875-0.8056641,18.2714844-3.0703125l3.4580078,10.8076172
					c-7.5976562,2.5878906-15.3242188,3.9296875-22.5625,3.9296875c-16.7861328,0-25.4169922-6.2451172-25.4169922-15
					c0-6.4384766,5.2617188-12.1289062,13.0410156-13.0527344V830.8720703z"/>
				<path d="M439.5390625,680.7197266c-8.2255859-1.9960938-12.4140625-6.8818359-12.4140625-12.4277344
					c0-7.0214844,8.5078125-13.1669922,24.1669922-13.1669922c6.6025391,0,13.8974609,1.2939453,20.7998047,3.8603516
					l-2.9335938,9.1123047C462.9902344,665.7773438,457.1777344,664.625,452.625,664.625
					c-9.1445312,0-12.3339844,2.2666016-12.3339844,5.6669922c0,3.9033203,4.5537109,6.3330078,18.8339844,6.3330078h3.8339844
					v8.8662109H459.125c-15.3095703,0-19.5,2.5732422-19.5,6.9667969c0,4.2460938,3.6962891,6.8339844,12.3339844,6.8339844
					c6.0742188,0,11.2304688-0.8886719,18.0410156-3.1425781l2.9160156,9.1171875
					c-7.2109375,2.53125-14.6640625,3.8583984-21.6240234,3.8583984c-16.4638672,0-24.8330078-6.2158203-24.8330078-15
					c0-6.4404297,5.1777344-12.0917969,13.0800781-13.2050781V680.7197266z"/>
				<path d="M440.2460938,530.7675781v-0.1992188C432.2119141,528.7089844,427.875,523.5039062,427.875,518.125
					c0-7.0917969,8.2207031-13,23.5-13c6.4042969,0,13.4609375,1.296875,19.9492188,3.7910156l-2.3984375,7.4179688
					C463.0664062,514.0585938,457.1552734,512.875,452.375,512.875c-10.0605469,0-14,2.7246094-14,6.75
					c0,4.4160156,5.1953125,7.25,20,7.25h4v7.7988281h-4c-16.0732422,0-20.75,3.0097656-20.75,8.2011719
					c0,5.0976562,4.4042969,8.25,14.25,8.25c5.9560547,0,11.34375-0.9707031,17.8115234-3.2128906l2.3759766,7.4257812
					C465.2353516,557.8125,458.0585938,559.125,451.375,559.125c-16.140625,0-24.25-6.1875-24.25-15
					C427.125,537.6816406,432.2207031,532.0703125,440.2460938,530.7675781z"/>
				<path d="M427.7910156,394.125c0-5.8540039,4.1474609-11.9697266,13.828125-13.7094727v-0.1992188
					c-8.7890625-1.940918-12.9941406-7.0668945-12.9941406-12.2583008c0-7.3374023,8.1591797-12.8330078,22.8330078-12.8330078
					c6.2060547,0,13.0244141,1.2988281,19.0986328,3.7211914l-1.8642578,5.5571289
					c-5.5498047-2.2304688-11.5595703-3.4453125-16.5673828-3.4453125c-10.7773438,0-15.8339844,3.125-15.8339844,8
					c0,5.2055664,6.4648438,8.5,21.1669922,8.5h4.3330078v5.8662109h-4.3330078c-16.0576172,0-22,3.5620117-22,9.9672852
					c0,6.1923828,5.3623047,9.8330078,16.3330078,9.8330078c5.8378906,0,11.4570312-1.0522461,17.5820312-3.284668
					l1.8359375,5.5688477c-6.4433594,2.4179688-13.34375,3.7163086-19.7509766,3.7163086
					C435.9316406,409.125,427.7910156,403.1777344,427.7910156,394.125z"/>
				<path d="M428.4589844,244.125c0-5.2636719,3.1972656-11.8842773,14.5351562-14.0605469v-0.1992188
					c-9.5449219-2.0234375-13.6191406-7.0698242-13.6191406-12.0737305c0-7.5825195,8.0986328-12.6665039,22.1660156-12.6665039
					c6.0078125,0,12.5878906,1.3022461,18.25,3.6518555l-1.3310547,3.6967773
					c-5.2412109-2.1860352-11.3486328-3.4321289-16.5849609-3.4321289c-11.4941406,0-17.6660156,3.5253906-17.6660156,9.25
					c0,5.9956055,7.734375,9.7504883,22.3320312,9.7504883h4.6679688v3.9326172h-4.6679688
					c-16.0419922,0-23.2490234,4.1152344-23.2490234,11.7338867c0,7.2875977,6.3212891,11.4165039,18.4169922,11.4165039
					c5.71875,0,11.5703125-1.1347656,17.3515625-3.355957l1.2949219,3.7109375
					C464.296875,257.8413086,457.671875,259.125,451.5410156,259.125
					C436.6289062,259.125,428.4589844,253.4179688,428.4589844,244.125z"/>
				<path d="M444.3681641,79.7128906C431.375,82.3261719,429.125,89.4511719,429.125,94.125c0,9.5332031,8.2011719,15,22.5,15
					c5.8535156,0,12.2021484-1.2695312,17.8769531-3.5742188l-0.7539062-1.8535156
					C463.3085938,105.9082031,457.2265625,107.125,451.625,107.125c-13.2207031,0-20.5-4.6171875-20.5-13
					c0-8.8320312,8.4726562-13.5,24.5-13.5h5v-2h-5c-14.4960938,0-23.5-4.2148438-23.5-11c0-6.5742188,7.2890625-10.5,19.5-10.5
					c5.4638672,0,11.6699219,1.2773438,16.6015625,3.4179688l0.796875-1.8359375
					C463.7753906,56.4296875,457.4345703,55.125,451.625,55.125c-13.4628906,0-21.5,4.671875-21.5,12.5
					c0,4.8164062,3.9423828,9.7832031,14.2431641,11.8886719V79.7128906z"/>
			</g>
			<g>
				<path d="M538.125,981.0234375c-8.609375-2.2695312-12.5-6.5175781-12.5-12.3984375c0-6.8789062,9.0839844-13.5,25.5-13.5
					c7,0,14.7695312,1.2890625,22.5,4l-4,12.5c-6.7871094-2.4101562-12.4023438-3.5-16.5-3.5c-7.3125,0-9,1.3515625-9,3.5
					c0,2.8789062,3.2685547,4.5,16.5,4.5h3.5v11h-3.5c-13.7832031,0-17,1.7011719-17,4.5c0,2.5410156,2.2792969,4,8.5,4
					c6.3105469,0,11.0039062-0.7226562,18.5-3l4,12.5c-7.9824219,2.6445312-15.984375,4-23.5,4c-17.109375,0-26-6.2734375-26-15
					c0-6.4355469,5.34375-12.1660156,13-12.9003906V981.0234375z"/>
				<path d="M538.8320312,830.8720703C530.4140625,828.7382812,526.375,824.171875,526.375,818.4580078
					c0-6.9492188,8.7958984-13.3330078,24.8330078-13.3330078c6.8017578,0,14.3330078,1.2919922,21.6494141,3.9296875
					l-3.4658203,10.8066406C562.9140625,817.4960938,557.1992188,816.375,552.875,816.375
					c-8.2285156,0-10.6669922,1.8085938-10.6669922,4.5830078c0,3.3916016,3.9111328,5.4169922,17.6669922,5.4169922h3.6660156
					v9.9326172H559.875c-14.546875,0-18.25,2.1376953-18.25,5.7333984c0,3.3935547,2.9873047,5.4169922,10.4160156,5.4169922
					c6.1933594,0,11.1171875-0.8056641,18.2714844-3.0703125l3.4580078,10.8076172
					c-7.5976562,2.5878906-15.3242188,3.9296875-22.5625,3.9296875c-16.7861328,0-25.4169922-6.2451172-25.4169922-15
					c0-6.4384766,5.2617188-12.1289062,13.0410156-13.0527344V830.8720703z"/>
				<path d="M539.5390625,680.7197266c-8.2255859-1.9960938-12.4140625-6.8818359-12.4140625-12.4277344
					c0-7.0214844,8.5078125-13.1669922,24.1669922-13.1669922c6.6025391,0,13.8974609,1.2939453,20.7998047,3.8603516
					l-2.9335938,9.1123047C562.9902344,665.7773438,557.1777344,664.625,552.625,664.625
					c-9.1445312,0-12.3339844,2.2666016-12.3339844,5.6669922c0,3.9033203,4.5537109,6.3330078,18.8339844,6.3330078h3.8339844
					v8.8662109H559.125c-15.3095703,0-19.5,2.5732422-19.5,6.9667969c0,4.2460938,3.6962891,6.8339844,12.3339844,6.8339844
					c6.0742188,0,11.2304688-0.8886719,18.0410156-3.1425781l2.9160156,9.1171875
					c-7.2109375,2.53125-14.6640625,3.8583984-21.6240234,3.8583984c-16.4638672,0-24.8330078-6.2158203-24.8330078-15
					c0-6.4404297,5.1777344-12.0917969,13.0800781-13.2050781V680.7197266z"/>
				<path d="M540.2460938,530.7675781v-0.1992188C532.2119141,528.7089844,527.875,523.5039062,527.875,518.125
					c0-7.0917969,8.2207031-13,23.5-13c6.4042969,0,13.4609375,1.296875,19.9492188,3.7910156l-2.3984375,7.4179688
					C563.0664062,514.0585938,557.1552734,512.875,552.375,512.875c-10.0605469,0-14,2.7246094-14,6.75
					c0,4.4160156,5.1953125,7.25,20,7.25h4v7.7988281h-4c-16.0732422,0-20.75,3.0097656-20.75,8.2011719
					c0,5.0976562,4.4042969,8.25,14.25,8.25c5.9560547,0,11.34375-0.9707031,17.8115234-3.2128906l2.3759766,7.4257812
					C565.2353516,557.8125,558.0585938,559.125,551.375,559.125c-16.140625,0-24.25-6.1875-24.25-15
					C527.125,537.6816406,532.2207031,532.0703125,540.2460938,530.7675781z"/>
				<path d="M527.7910156,394.125c0-5.8540039,4.1474609-11.9697266,13.828125-13.7094727v-0.1992188
					c-8.7890625-1.940918-12.9941406-7.0668945-12.9941406-12.2583008c0-7.3374023,8.1591797-12.8330078,22.8330078-12.8330078
					c6.2060547,0,13.0244141,1.2988281,19.0986328,3.7211914l-1.8642578,5.5571289
					c-5.5498047-2.2304688-11.5595703-3.4453125-16.5673828-3.4453125c-10.7773438,0-15.8339844,3.125-15.8339844,8
					c0,5.2055664,6.4648438,8.5,21.1669922,8.5h4.3330078v5.8662109h-4.3330078c-16.0576172,0-22,3.5620117-22,9.9672852
					c0,6.1923828,5.3623047,9.8330078,16.3330078,9.8330078c5.8378906,0,11.4570312-1.0522461,17.5820312-3.284668
					l1.8359375,5.5688477c-6.4433594,2.4179688-13.34375,3.7163086-19.7509766,3.7163086
					C535.9316406,409.125,527.7910156,403.1777344,527.7910156,394.125z"/>
				<path d="M528.4589844,244.125c0-5.2636719,3.1972656-11.8842773,14.5351562-14.0605469v-0.1992188
					c-9.5449219-2.0234375-13.6191406-7.0698242-13.6191406-12.0737305c0-7.5825195,8.0986328-12.6665039,22.1660156-12.6665039
					c6.0078125,0,12.5878906,1.3022461,18.25,3.6518555l-1.3310547,3.6967773
					c-5.2412109-2.1860352-11.3486328-3.4321289-16.5849609-3.4321289c-11.4941406,0-17.6660156,3.5253906-17.6660156,9.25
					c0,5.9956055,7.734375,9.7504883,22.3320312,9.7504883h4.6679688v3.9326172h-4.6679688
					c-16.0419922,0-23.2490234,4.1152344-23.2490234,11.7338867c0,7.2875977,6.3212891,11.4165039,18.4169922,11.4165039
					c5.71875,0,11.5703125-1.1347656,17.3515625-3.355957l1.2949219,3.7109375
					C564.296875,257.8413086,557.671875,259.125,551.5410156,259.125
					C536.6289062,259.125,528.4589844,253.4179688,528.4589844,244.125z"/>
				<path d="M544.3681641,79.7128906C531.375,82.3261719,529.125,89.4511719,529.125,94.125c0,9.5332031,8.2011719,15,22.5,15
					c5.8535156,0,12.2021484-1.2695312,17.8769531-3.5742188l-0.7539062-1.8535156
					C563.3085938,105.9082031,557.2265625,107.125,551.625,107.125c-13.2207031,0-20.5-4.6171875-20.5-13
					c0-8.8320312,8.4726562-13.5,24.5-13.5h5v-2h-5c-14.4960938,0-23.5-4.2148438-23.5-11c0-6.5742188,7.2890625-10.5,19.5-10.5
					c5.4638672,0,11.6699219,1.2773438,16.6015625,3.4179688l0.796875-1.8359375
					C563.7753906,56.4296875,557.4345703,55.125,551.625,55.125c-13.4628906,0-21.5,4.671875-21.5,12.5
					c0,4.8164062,3.9423828,9.7832031,14.2431641,11.8886719V79.7128906z"/>
			</g>
			<g>
				<g>
					<path d="M227.125,931.125c0,9.4736328-0.5390625,12.2871094-3,18.0009766l13-0.0009766c6.2734375-5.6464844,9-11.2978516,9-18
						H227.125z"/>
					<polygon points="263.625,949.125 247.625,931.125 268.625,931.125 278.625,949.125 "/>
				</g>
				<g>
					<path d="M229.4580078,781.4580078c0,8.4716797-0.8300781,12.1025391-3.5,17.6669922H237.375
						c5.7075195-5.3935547,8.4165039-11.2910156,8.4165039-17.6669922H229.4580078z"/>
					<polygon points="265.9580078,781.4580078 276.2915039,799.125 263.2080078,799.125 247.7080078,781.4580078 "/>
				</g>
				<g>
					<path d="M231.7915039,631.7919922c0,7.4697266-1.1210938,11.9169922-4,17.3330078H237.625
						c5.1425781-5.1396484,7.8334961-11.2841797,7.8334961-17.3330078H231.7915039z"/>
					<polygon points="263.2919922,631.7919922 273.9584961,649.125 262.7915039,649.125 247.7919922,631.7919922 "/>
				</g>
				<g>
					<path d="M234.125,482.125c0,6.46875-1.4121094,11.7324219-4.5,17h8.25c4.5771484-4.8867188,7.25-11.2773438,7.25-17H234.125z"
						/>
					<polygon points="260.625,482.125 271.625,499.125 262.375,499.125 247.875,482.125 "/>
				</g>
				<g>
					<path d="M236.625,332.4580078c0,5.8730469-1.8710938,11.8339844-5,16.6669922h6.2998047
						c4.1347656-4.7651367,6.699707-11.3212891,6.699707-16.6669922H236.625z"/>
					<polygon points="257.7915039,332.4580078 269.125,349.125 262.1245117,349.125 248.4580078,332.4580078 "/>
				</g>
				<g>
					<path d="M239.125,182.7915039c0,5.2773438-2.3291016,11.9360352-5.5,16.3334961h4.3505859
						c3.6918945-4.6430664,6.1494141-11.3647461,6.1494141-16.3334961H239.125z"/>
					<polygon points="254.9584961,182.7915039 266.625,199.125 261.875,199.125 249.0415039,182.7915039 "/>
				</g>
				<g>
					<path d="M241.625,33.125c0,4.6816406-2.7880859,12.0371094-6,16h2.4003906c3.25-4.5214844,5.5996094-11.4082031,5.5996094-16
						H241.625z"/>
					<polygon points="252.125,33.125 249.625,33.125 261.625,49.125 264.125,49.125 "/>
				</g>
			</g>
			<g>
				<g>
					<path d="M427.625,931.125c0,9.4736328-0.5390625,12.2871094-3,18.0009766l13-0.0009766c6.2734375-5.6464844,9-11.2978516,9-18
						H427.625z"/>
					<polygon points="463.125,949.125 479.125,931.125 458.125,931.125 448.125,949.125 "/>
				</g>
				<g>
					<path d="M429.9580078,781.4580078c0,8.4716797-0.8300781,12.1025391-3.5,17.6669922H437.875
						c5.7080078-5.3935547,8.4160156-11.2910156,8.4160156-17.6669922H429.9580078z"/>
					<polygon points="458.5410156,781.4580078 448.2080078,799.125 461.2910156,799.125 476.7910156,781.4580078 "/>
				</g>
				<g>
					<path d="M432.2919922,631.7919922c0,7.4697266-1.1210938,11.9169922-4,17.3330078H438.125
						c5.1425781-5.1396484,7.8330078-11.2841797,7.8330078-17.3330078H432.2919922z"/>
					<polygon points="458.9580078,631.7919922 448.2919922,649.125 459.4580078,649.125 474.4580078,631.7919922 "/>
				</g>
				<g>
					<path d="M434.625,482.125c0,6.46875-1.4121094,11.7324219-4.5,17h8.25c4.5771484-4.8867188,7.25-11.2773438,7.25-17H434.625z"
						/>
					<polygon points="459.375,482.125 448.375,499.125 457.625,499.125 472.125,482.125 "/>
				</g>
				<g>
					<path d="M437.125,332.4580078c0,5.8730469-1.8710938,11.8339844-5,16.6669922h6.2998047
						c4.1347656-4.7651367,6.7001953-11.3212891,6.7001953-16.6669922H437.125z"/>
					<polygon points="460.2910156,332.4580078 469.625,332.4580078 455.9580078,349.125 448.9580078,349.125 "/>
				</g>
				<g>
					<path d="M439.625,182.7915039c0,5.2773438-2.3291016,11.9360352-5.5,16.3334961h4.3505859
						c3.6923828-4.6430664,6.1494141-11.3647461,6.1494141-16.3334961H439.625z"/>
					<polygon points="461.2080078,182.7915039 467.125,182.7915039 454.2919922,199.125 449.5419922,199.125 "/>
				</g>
				<g>
					<path d="M442.125,33.125c0,4.6816406-2.7880859,12.0371094-6,16h2.4003906c3.25-4.5214844,5.5996094-11.4082031,5.5996094-16
						H442.125z"/>
					<polygon points="462.125,33.125 464.625,33.125 452.625,49.125 450.125,49.125 "/>
				</g>
			</g>
			<g>
				<g>
					<path d="M342.625,931.125c0,9.4736328,0.5390625,12.2871094,3,18.0009766l-13-0.0009766
						c-6.2734375-5.6464844-9-11.2978516-9-18H342.625z"/>
					<polygon points="362.125,949.125 346.125,931.125 367.125,931.125 377.125,949.125 "/>
				</g>
				<g>
					<path d="M341.8745117,781.4580078c0,8.4716797,0.8300781,12.1025391,3.5,17.6669922h-11.4165039
						c-5.7080078-5.3935547-8.4165039-11.2910156-8.4165039-17.6669922H341.8745117z"/>
					<polygon points="364.5410156,781.4580078 374.875,799.125 361.7910156,799.125 346.2915039,781.4580078 "/>
				</g>
				<g>
					<path d="M341.125,631.7919922c0,7.4697266,1.1210938,11.9169922,4,17.3330078h-9.8334961
						c-5.1420898-5.1396484-7.8330078-11.2841797-7.8330078-17.3330078H341.125z"/>
					<polygon points="361.9580078,631.7919922 372.625,649.125 361.4580078,649.125 346.4584961,631.7919922 "/>
				</g>
				<g>
					<path d="M340.375,482.125c0,6.46875,1.4121094,11.7324219,4.5,17h-8.25c-4.5771484-4.8867188-7.25-11.2773438-7.25-17H340.375z
						"/>
					<polygon points="359.375,482.125 370.375,499.125 361.125,499.125 346.625,482.125 "/>
				</g>
				<g>
					<path d="M339.4580078,332.4580078c0,5.8730469,1.8706055,11.8339844,5,16.6669922h-6.300293
						c-4.1347656-4.7651367-6.699707-11.3212891-6.699707-16.6669922H339.4580078z"/>
					<polygon points="356.625,332.4580078 367.9580078,349.125 360.9580078,349.125 347.2915039,332.4580078 "/>
				</g>
				<g>
					<path d="M338.5415039,182.7915039c0,5.2773438,2.3295898,11.9360352,5.5,16.3334961h-4.3500977
						c-3.6923828-4.6430664-6.1494141-11.3647461-6.1494141-16.3334961H338.5415039z"/>
					<polygon points="353.875,182.7915039 365.5419922,199.125 360.7919922,199.125 347.9584961,182.7915039 "/>
				</g>
				<g>
					<path d="M337.625,33.125c0,4.6816406,2.7880859,12.0371094,6,16h-2.4003906c-3.25-4.5214844-5.5996094-11.4082031-5.5996094-16
						H337.625z"/>
					<polygon points="351.125,33.125 348.625,33.125 360.625,49.125 363.125,49.125 "/>
				</g>
			</g>
			<g>
				<path d="M41.125,931.125c0,9.4736328-0.5390625,12.2871094-3,18.0009766l14-0.0009766c6.2734375-5.6464844,9-11.2978516,9-18
					H41.125z"/>
				<path d="M42.5410156,781.4580078c0,8.4716797-0.8300781,12.1025391-3.5,17.6669922h12.2504883
					c5.7075195-5.3935547,8.4165039-11.2910156,8.4165039-17.6669922H42.5410156z"/>
				<path d="M43.9584961,631.7919922c0,7.4697266-1.1210938,11.9169922-4,17.3330078h10.5
					c5.1425781-5.1396484,7.8330078-11.2841797,7.8330078-17.3330078H43.9584961z"/>
				<path d="M45.375,482.125c0,6.46875-1.4121094,11.7324219-4.5,17h8.75c4.5771484-4.8867188,7.25-11.2773438,7.25-17H45.375z"/>
				<path d="M46.9580078,332.4580078c0,5.8730469-1.8706055,11.8339844-5,16.6669922h6.6337891
					c4.1342773-4.7651367,6.6992188-11.3212891,6.6992188-16.6669922H46.9580078z"/>
				<path d="M48.5415039,182.7915039c0,5.2773438-2.3291016,11.9360352-5.5,16.3334961h4.5170898
					c3.6923828-4.6430664,6.1499023-11.3647461,6.1499023-16.3334961H48.5415039z"/>
				<path d="M50.125,33.125c0,4.6816406-2.7880859,12.0371094-6,16h2.4003906c3.25-4.5214844,5.5996094-11.4082031,5.5996094-16
					H50.125z"/>
			</g>
			<g>
				<path d="M159.125,931.125c0,9.4736328,0.5390625,12.2871094,3,18.0009766l-14-0.0009766c-6.2734375-5.6464844-9-11.2978516-9-18
					H159.125z"/>
				<path d="M157.7080078,781.4580078c0,8.4716797,0.8300781,12.1025391,3.5,17.6669922h-12.25
					c-5.7080078-5.3935547-8.4165039-11.2910156-8.4165039-17.6669922H157.7080078z"/>
				<path d="M156.2919922,631.7919922c0,7.4697266,1.1210938,11.9169922,4,17.3330078h-10.5004883
					c-5.1420898-5.1396484-7.8330078-11.2841797-7.8330078-17.3330078H156.2919922z"/>
				<path d="M154.875,482.125c0,6.46875,1.4121094,11.7324219,4.5,17h-8.75c-4.5771484-4.8867188-7.25-11.2773438-7.25-17H154.875z"
					/>
				<path d="M153.2915039,332.4580078c0,5.8730469,1.8706055,11.8339844,5,16.6669922h-6.6337891
					c-4.1347656-4.7651367-6.699707-11.3212891-6.699707-16.6669922H153.2915039z"/>
				<path d="M151.7084961,182.7915039c0,5.2773438,2.3291016,11.9360352,5.5,16.3334961h-4.5170898
					c-3.6923828-4.6430664-6.1494141-11.3647461-6.1494141-16.3334961H151.7084961z"/>
				<path d="M150.125,33.125c0,4.6816406,2.7880859,12.0371094,6,16h-2.4003906c-3.25-4.5214844-5.5996094-11.4082031-5.5996094-16
					H150.125z"/>
			</g>
			<g>
				<g>
					<path d="M543.125,931.125c0,9.4736328,0.5390625,12.2871094,3,18.0009766l-13-0.0009766
						c-6.2734375-5.6464844-9-11.2978516-9-18H543.125z"/>
					<polygon points="562.625,949.125 578.625,931.125 557.625,931.125 547.625,949.125 "/>
				</g>
				<g>
					<path d="M542.375,781.4580078c0,8.4716797,0.8300781,12.1025391,3.5,17.6669922h-11.4169922
						c-5.7080078-5.3935547-8.4169922-11.2910156-8.4169922-17.6669922H542.375z"/>
					<polygon points="558.0410156,781.4580078 547.7080078,799.125 560.7919922,799.125 576.2910156,781.4580078 "/>
				</g>
				<g>
					<path d="M541.625,631.7919922c0,7.4697266,1.1210938,11.9169922,4,17.3330078h-9.8330078
						c-5.1425781-5.1396484-7.8339844-11.2841797-7.8339844-17.3330078H541.625z"/>
					<polygon points="558.4580078,631.7919922 547.7919922,649.125 558.9580078,649.125 573.9580078,631.7919922 "/>
				</g>
				<g>
					<path d="M540.875,482.125c0,6.46875,1.4121094,11.7324219,4.5,17h-8.25c-4.5771484-4.8867188-7.25-11.2773438-7.25-17H540.875z
						"/>
					<polygon points="558.875,482.125 547.875,499.125 557.125,499.125 571.625,482.125 "/>
				</g>
				<g>
					<path d="M539.9580078,332.4580078c0,5.8730469,1.8710938,11.8339844,5,16.6669922h-6.2998047
						c-4.1347656-4.7651367-6.7001953-11.3212891-6.7001953-16.6669922H539.9580078z"/>
					<polygon points="559.7919922,332.4580078 569.125,332.4580078 555.4580078,349.125 548.4580078,349.125 "/>
				</g>
				<g>
					<path d="M539.0419922,182.7915039c0,5.2773438,2.3291016,11.9360352,5.5,16.3334961h-4.3505859
						c-3.6923828-4.6430664-6.1494141-11.3647461-6.1494141-16.3334961H539.0419922z"/>
					<polygon points="560.7080078,182.7915039 566.625,182.7915039 553.7919922,199.125 549.0419922,199.125 "/>
				</g>
				<g>
					<path d="M538.125,33.125c0,4.6816406,2.7880859,12.0371094,6,16h-2.4003906c-3.25-4.5214844-5.5996094-11.4082031-5.5996094-16
						H538.125z"/>
					<polygon points="561.625,33.125 564.125,33.125 552.125,49.125 549.625,49.125 "/>
				</g>
			</g>
		</g>
	</svg>
