<?xml version="1.0" encoding="utf-8"?>
<!-- Generator: Adobe Illustrator 15.0.2, SVG Export Plug-In . SVG Version: 6.00 Build 0)  -->
<!DOCTYPE svg PUBLIC "-//W3C//DTD SVG 1.1//EN" "http://www.w3.org/Graphics/SVG/1.1/DTD/svg11.dtd">
<svg version="1.1" id="レイヤー1" xmlns="http://www.w3.org/2000/svg" xmlns:xlink="http://www.w3.org/1999/xlink" x="0px"
	 y="0px" width="841.8896484px" height="595.2753906px" viewBox="0 0 841.8896484 595.2753906"
	 enable-background="new 0 0 841.8896484 595.2753906" xml:space="preserve">
<g>
	<rect x="71.5" y="-226.5" fill="none" stroke="#000000" stroke-width="0.25" width="100" height="150"/>
	<rect x="171.5" y="-226.5" fill="none" stroke="#000000" stroke-width="0.25" width="100" height="150"/>
	<rect x="271.5" y="-226.5" fill="none" stroke="#000000" stroke-width="0.25" width="100" height="150"/>
	<rect x="371.5" y="-226.5" fill="none" stroke="#000000" stroke-width="0.25" width="125" height="150"/>
	<rect x="496.5" y="-226.5" fill="none" stroke="#000000" stroke-width="0.25" width="125" height="150"/>
	<rect x="621.5" y="-226.5" fill="none" stroke="#000000" stroke-width="0.25" width="100" height="150"/>
	<rect x="721.5" y="-226.5" fill="none" stroke="#000000" stroke-width="0.25" width="100" height="150"/>
	<rect x="71.5" y="-76.5" fill="none" stroke="#000000" stroke-width="0.25" width="100" height="150"/>
	<rect x="171.5" y="-76.5" fill="none" stroke="#000000" stroke-width="0.25" width="100" height="150"/>
	<rect x="271.5" y="-76.5" fill="none" stroke="#000000" stroke-width="0.25" width="100" height="150"/>
	<rect x="371.5" y="-76.5" fill="none" stroke="#000000" stroke-width="0.25" width="125" height="150"/>
	<rect x="496.5" y="-76.5" fill="none" stroke="#000000" stroke-width="0.25" width="125" height="150"/>
	<rect x="621.5" y="-76.5" fill="none" stroke="#000000" stroke-width="0.25" width="100" height="150"/>
	<rect x="721.5" y="-76.5" fill="none" stroke="#000000" stroke-width="0.25" width="100" height="150"/>
	<rect x="71.5" y="73.5" fill="none" stroke="#000000" stroke-width="0.25" width="100" height="150"/>
	<rect x="171.5" y="73.5" fill="none" stroke="#000000" stroke-width="0.25" width="100" height="150"/>
	<rect x="271.5" y="73.5" fill="none" stroke="#000000" stroke-width="0.25" width="100" height="150"/>
	<rect x="371.5" y="73.5" fill="none" stroke="#000000" stroke-width="0.25" width="125" height="150"/>
	<rect x="496.5" y="73.5" fill="none" stroke="#000000" stroke-width="0.25" width="125" height="150"/>
	<rect x="621.5" y="73.5" fill="none" stroke="#000000" stroke-width="0.25" width="100" height="150"/>
	<rect x="721.5" y="73.5" fill="none" stroke="#000000" stroke-width="0.25" width="100" height="150"/>
	<rect x="71.5" y="223.5" fill="none" stroke="#000000" stroke-width="0.25" width="100" height="150"/>
	<rect x="171.5" y="223.5" fill="none" stroke="#000000" stroke-width="0.25" width="100" height="150"/>
	<rect x="271.5" y="223.5" fill="none" stroke="#000000" stroke-width="0.25" width="100" height="150"/>
	<rect x="371.5" y="223.5" fill="none" stroke="#000000" stroke-width="0.25" width="125" height="150"/>
	<rect x="496.5" y="223.5" fill="none" stroke="#000000" stroke-width="0.25" width="125" height="150"/>
	<rect x="621.5" y="223.5" fill="none" stroke="#000000" stroke-width="0.25" width="100" height="150"/>
	<rect x="721.5" y="223.5" fill="none" stroke="#000000" stroke-width="0.25" width="100" height="150"/>
	<rect x="71.5" y="373.5" fill="none" stroke="#000000" stroke-width="0.25" width="100" height="150"/>
	<rect x="171.5" y="373.5" fill="none" stroke="#000000" stroke-width="0.25" width="100" height="150"/>
	<rect x="271.5" y="373.5" fill="none" stroke="#000000" stroke-width="0.25" width="100" height="150"/>
	<rect x="371.5" y="373.5" fill="none" stroke="#000000" stroke-width="0.25" width="125" height="150"/>
	<rect x="496.5" y="373.5" fill="none" stroke="#000000" stroke-width="0.25" width="125" height="150"/>
	<rect x="621.5" y="373.5" fill="none" stroke="#000000" stroke-width="0.25" width="100" height="150"/>
	<rect x="721.5" y="373.5" fill="none" stroke="#000000" stroke-width="0.25" width="100" height="150"/>
	<rect x="71.5" y="523.5" fill="none" stroke="#000000" stroke-width="0.25" width="100" height="150"/>
	<rect x="171.5" y="523.5" fill="none" stroke="#000000" stroke-width="0.25" width="100" height="150"/>
	<rect x="271.5" y="523.5" fill="none" stroke="#000000" stroke-width="0.25" width="100" height="150"/>
	<rect x="371.5" y="523.5" fill="none" stroke="#000000" stroke-width="0.25" width="125" height="150"/>
	<rect x="496.5" y="523.5" fill="none" stroke="#000000" stroke-width="0.25" width="125" height="150"/>
	<rect x="621.5" y="523.5" fill="none" stroke="#000000" stroke-width="0.25" width="100" height="150"/>
	<rect x="721.5" y="523.5" fill="none" stroke="#000000" stroke-width="0.25" width="100" height="150"/>
	<rect x="71.5" y="673.5" fill="none" stroke="#000000" stroke-width="0.25" width="100" height="150"/>
	<rect x="171.5" y="673.5" fill="none" stroke="#000000" stroke-width="0.25" width="100" height="150"/>
	<rect x="271.5" y="673.5" fill="none" stroke="#000000" stroke-width="0.25" width="100" height="150"/>
	<rect x="371.5" y="673.5" fill="none" stroke="#000000" stroke-width="0.25" width="125" height="150"/>
	<rect x="496.5" y="673.5" fill="none" stroke="#000000" stroke-width="0.25" width="125" height="150"/>
	<rect x="621.5" y="673.5" fill="none" stroke="#000000" stroke-width="0.25" width="100" height="150"/>
	<rect x="721.5" y="673.5" fill="none" stroke="#000000" stroke-width="0.25" width="100" height="150"/>
	<rect x="821.5" y="-226.5" fill="none" stroke="#000000" stroke-width="0.25" width="100" height="150"/>
	<rect x="821.5" y="-76.5" fill="none" stroke="#000000" stroke-width="0.25" width="100" height="150"/>
	<rect x="821.5" y="73.5" fill="none" stroke="#000000" stroke-width="0.25" width="100" height="150"/>
	<rect x="821.5" y="223.5" fill="none" stroke="#000000" stroke-width="0.25" width="100" height="150"/>
	<rect x="821.5" y="373.5" fill="none" stroke="#000000" stroke-width="0.25" width="100" height="150"/>
	<rect x="821.5" y="523.5" fill="none" stroke="#000000" stroke-width="0.25" width="100" height="150"/>
	<rect x="821.5" y="673.5" fill="none" stroke="#000000" stroke-width="0.25" width="100" height="150"/>
</g>
<g>
	<path d="M109.9003906,744.5v37H90.5v-37H81v-13h9.5v-2c0-14.3378906,7.9863281-22,22-22c4.6933594,0,8.8007812,0.4511719,13.5,1.5
		l-2.5,14c-2.40625-0.9863281-4.9746094-1.5-7.5-1.5c-4.6152344,0-6.0996094,1.6582031-6.0996094,8v2H128.5v-2
		c0-14.3378906,7.9863281-22,22-22c4.6933594,0,8.8007812,0.4511719,13.5,1.5l-2.5,14c-2.40625-0.9863281-4.9746094-1.5-7.5-1.5
		c-4.6152344,0-6.0996094,1.6582031-6.0996094,8v2H163v13h-15.0996094v37H128.5v-37H109.9003906z"/>
	<path d="M109.0332031,592.8330078V631.5H92.699707v-38.6669922h-9.6669922V581.5h9.6669922v-3.1669922
		c0-13.6376953,7.3613281-20.8330078,20.6665039-20.8330078c4.3671875,0,8.0175781,0.4375,12.3330078,1.5l-2.3330078,12
		c-2.3564453-0.9863281-4.8779297-1.5-7.3330078-1.5c-5.2324219,0-7,1.9902344-7,8.8330078V581.5h19.6333008v-3.1669922
		c0-13.6376953,7.3613281-20.8330078,20.6665039-20.8330078c4.3671875,0,8.0175781,0.4375,12.3334961,1.5l-2.3334961,12
		c-2.3569336-0.9863281-4.8779297-1.5-7.3330078-1.5c-5.2329102,0-7,1.9902344-7,8.8330078V581.5h15.6665039v11.3330078H145V631.5
		h-16.3334961v-38.6669922H109.0332031z"/>
	<path d="M108.1660156,441.1660156V481.5H94.8999023v-40.3339844h-9.8334961V431.5h9.8334961v-4.3339844
		c0-12.9375,6.7363281-19.6660156,19.3334961-19.6660156c4.0410156,0,7.234375,0.4248047,11.1660156,1.5l-2.1665039,10
		c-2.3071289-0.9863281-4.7817383-1.5-7.1665039-1.5c-5.8496094,0-7.9003906,2.3222656-7.9003906,9.6660156V431.5h20.6669922
		v-4.3339844c0-12.9375,6.7363281-19.6660156,19.3334961-19.6660156c4.0410156,0,7.234375,0.4248047,11.1669922,1.5l-2.1665039,10
		c-2.3076172-0.9863281-4.7822266-1.5-7.1669922-1.5c-5.8496094,0-7.9003906,2.3222656-7.9003906,9.6660156V431.5h16.2333984
		v9.6660156h-16.2333984V481.5h-13.2666016v-40.3339844H108.1660156z"/>
	<path d="M107.2988281,289.5v42H97.0996094v-42h-10v-8h10V276c0-12.2382812,6.1113281-18.5,18-18.5
		c3.7148438,0,6.4511719,0.4121094,10,1.5l-2,8c-2.2578125-0.9863281-4.6855469-1.5-7-1.5
		c-6.4667969,0-8.8007812,2.6542969-8.8007812,10.5v5.5H129V276c0-12.2382812,6.1113281-18.5,18-18.5
		c3.7148438,0,6.4511719,0.4121094,10,1.5l-2,8c-2.2578125-0.9863281-4.6855469-1.5-7-1.5
		c-6.4667969,0-8.8007812,2.6542969-8.8007812,10.5v5.5H156v8h-16.8007812v42H129v-42H107.2988281z"/>
</g>
<g>
	<path d="M575.6992188,265.5c-7.6816406,0-10.3007812,2.8798828-10.3007812,10.5v5.5h15.2021484v8h-15.2021484v42h-10.1992188v-42
		h-21.7001953v42h-10.1992188v-42h-10v-8h10V276c0-12.2382812,6.1113281-18.5,18-18.5c3.7138672,0,6.4521484,0.4121094,10,1.5l-2,8
		c-2.2568359-0.9863281-4.6855469-1.5-7-1.5c-6.4658203,0-8.8007812,2.6542969-8.8007812,10.5v5.5h21.7001953V276
		c0-11.6757812,6.8554688-18.5,20.5-18.5c8.2402344,0,15.7177734,1.0712891,22,3v71h-10.5986328v-64.75
		C582.7148438,265.8554688,579.3261719,265.5,575.6992188,265.5z"/>
	<path d="M576.7988281,417.5c-7.4121094,0-9.7001953,2.4726562-9.7001953,9.6660156V431.5h14.4677734v9.6660156h-14.4677734V481.5
		h-13.1328125v-40.3339844h-20.1337891V481.5h-13.1328125v-40.3339844h-9.3330078V431.5h9.3330078v-4.3339844
		c0-12.9384766,6.7363281-19.6660156,19-19.6660156c4.0410156,0,7.2353516,0.4248047,11.1669922,1.5l-2.2998047,10
		c-2.3066406-0.9863281-4.7822266-1.5-7.1669922-1.5c-5.515625,0-7.5673828,2.3222656-7.5673828,9.6660156V431.5h20.1337891
		v-4.3339844c0-12.109375,7.8144531-19.6660156,22.8330078-19.6660156c9.2480469,0,17.3183594,1.2041016,23.8339844,3.3330078V481.5
		h-13.3994141v-62.8339844C583.0351562,417.8144531,580.0869141,417.5,576.7988281,417.5z"/>
	<path d="M577.8994141,569.5c-7.1435547,0-9.0996094,2.0673828-9.0996094,8.8330078V581.5h13.7333984v11.3330078h-13.7333984V631.5
		h-16.0664062v-38.6669922h-18.5673828V631.5h-16.0664062v-38.6669922h-8.6660156V581.5h8.6660156v-3.1669922
		c0-13.6396484,7.3613281-20.8330078,20-20.8330078c4.3671875,0,8.0185547,0.4384766,12.3339844,1.5l-2.6005859,12
		c-2.3564453-0.9863281-4.8779297-1.5-7.3330078-1.5c-4.5654297,0-6.3339844,1.9912109-6.3339844,8.8330078V581.5h18.5673828
		v-3.1669922c0-12.5419922,8.7734375-20.8330078,25.1660156-20.8330078c10.2568359,0,18.9189453,1.3378906,25.6669922,3.6669922
		V631.5h-16.1992188v-60.9160156C583.3564453,569.7734375,580.8486328,569.5,577.8994141,569.5z"/>
	<path d="M606.5,711.5v70h-19v-59c-3.8222656-0.7675781-5.890625-1-8.5-1c-6.875,0-8.5,1.6611328-8.5,8v2h13v13h-13v37h-19v-37h-17
		v37h-19v-37h-8v-13h8v-2c0-14.3398438,7.9863281-22,21-22c4.6933594,0,8.8007812,0.4511719,13.5,1.5l-2.9003906,14
		c-2.40625-0.9863281-4.9746094-1.5-7.5-1.5c-3.6152344,0-5.0996094,1.6601562-5.0996094,8v2h17v-2
		c0-12.9765625,9.7324219-22,27.5-22C590.2646484,707.5,599.5195312,708.9707031,606.5,711.5z"/>
</g>
<g>
	<path d="M334.9003906,266.75c-4.6884766-0.8945312-8.2734375-1.25-12.1503906-1.25
		c-8.2128906,0-11.0507812,2.8798828-11.0507812,10.5v5.5h16.7011719v8h-16.7011719v42H301.5v-42h-10v-8h10V276
		c0-11.7226562,7.1660156-18.5,21.25-18.5c8.53125,0,16.2460938,1.0712891,22.75,3v71h-10.5996094V266.75z"/>
	<path d="M334.2666016,418.6660156C329.75,417.7998047,326.7026367,417.5,323.1665039,417.5
		c-8.0410156,0-10.5668945,2.5234375-10.5668945,9.6660156V431.5h16v9.6660156h-16V481.5h-13.2666016v-40.3339844H289.5V431.5
		h9.8330078v-4.3339844c0-12.140625,8.1982422-19.6660156,23.8334961-19.6660156
		c9.6469727,0,18.043457,1.2041016,24.8334961,3.3330078V481.5h-13.7333984V418.6660156z"/>
	<path d="M333.6333008,570.5839844C329.2880859,569.7441406,326.7788086,569.5,323.5830078,569.5
		C315.7148438,569.5,313.5,571.6689453,313.5,578.3330078V581.5h15.2998047v11.3330078H313.5V631.5h-16.3330078v-38.6669922H287.5
		V581.5h9.6669922v-3.1669922c0-12.5576172,9.2304688-20.8330078,26.4160156-20.8330078
		c10.7636719,0,19.8413086,1.3378906,26.9169922,3.6669922V631.5h-16.8666992V570.5839844z"/>
	<path d="M333,722.5c-4.1738281-0.8115234-6.1455078-1-9-1c-7.6962891,0-9.5996094,1.8134766-9.5996094,8v2H329v13h-14.5996094v37
		H295v-37h-9.5v-13h9.5v-2c0-12.9765625,10.2636719-22,29-22c11.8789062,0,21.6386719,1.4707031,29,4v70h-20V722.5z"/>
</g>
<g>
	<path d="M654.6992188,276v55.5H644.5V276c0-11.7226562,6.8115234-18.5,20-18.5c7.9882812,0,15.109375,1.0712891,21.1992188,3v21
		H704.5v8h-18.8007812v24c0,8.8154297,2.046875,11,7.8007812,11c3.3623047,0,6.1210938-0.5410156,9-1.8007812L704,330.5
		c-3.3779297,1.2128906-8.15625,2-12,2c-11.703125,0-16.5-4.5917969-16.5-17v-26h-11v-8h11v-14.75
		c-4.2041016-0.8945312-7.4248047-1.25-10.9003906-1.25C657.2363281,265.5,654.6992188,268.3798828,654.6992188,276z"/>
	<path d="M655.5996094,427.1660156V481.5h-13.2666016v-54.3339844C642.3330078,415.0253906,650.234375,407.5,665,407.5
		c9.0341797,0,16.7412109,1.2041016,23.0996094,3.3330078V431.5H706v9.6660156h-17.9003906V462.5
		c0,8.0839844,1.8046875,10,6.9003906,10c3.1621094,0,5.9541016-0.5078125,9-1.7011719L705.6660156,480.5
		c-3.9707031,1.2607422-8.8486328,2-13.3330078,2c-12.1845703,0-17.5-4.9677734-17.5-17.6669922v-23.6669922H664V431.5h10.8330078
		v-12.8339844C670.9375,417.8242188,668.1386719,417.5,665.0664062,417.5
		C657.9365234,417.5,655.5996094,420.0234375,655.5996094,427.1660156z"/>
	<path d="M656.5,578.3330078V631.5h-16.3330078v-53.1669922C640.1669922,565.7753906,649.1572266,557.5,665.5,557.5
		c10.0800781,0,18.3730469,1.3378906,25,3.6669922V581.5h17v11.3330078h-17V611.5c0,7.3525391,1.5625,9,6,9
		c2.9628906,0,5.7880859-0.4746094,9-1.6005859L707.3339844,630.5c-4.5664062,1.3085938-9.5429688,2-14.6679688,2
		c-12.6650391,0-18.5-5.3427734-18.5-18.3339844v-21.3330078H663.5V581.5h10.6660156v-10.9160156
		C670.578125,569.7939453,668.2011719,569.5,665.5332031,569.5C658.6367188,569.5,656.5,571.6689453,656.5,578.3330078z"/>
	<path d="M673.5,722.5c-3.2802734-0.7363281-5.2353516-1-7.5-1c-6.6621094,0-8.5996094,1.8134766-8.5996094,8v52H638v-52
		c0-12.9765625,10.0800781-22,28-22c11.1259766,0,20.0048828,1.4707031,26.9003906,4v20H709v13h-16.0996094v16
		c0,6.6210938,1.3203125,8,5.0996094,8c2.7636719,0,5.6220703-0.4414062,9-1.5l2,13.5c-5.1591797,1.3574219-10.234375,2-16,2
		c-13.1464844,0-19.5-5.71875-19.5-19v-19H663v-13h10.5V722.5z"/>
</g>
<g>
	<g>
		<path d="M750.5,741.9003906c-6.0996094,0-7.5,1.1445312-7.5,3.0996094c0,1.8769531,1.2792969,2.8974609,6,3.5
			c16.765625,2.1289062,23,7.9394531,23,17.5c0,9.9023438-8.0019531,16.5-23.5,16.5c-9.1699219,0-16.9511719-1.6054688-24.5-5
			l3.5-13.4003906c5.9765625,3.2402344,12.1474609,4.8007812,19,4.8007812c4.5078125,0,6.5-1.390625,6.5-3.4003906
			c0-1.7265625-0.4746094-2.1289062-6-3c-16.5498047-2.6054688-22.5-8.3867188-22.5-18c0-9.5546875,7.53125-16,24-16
			c7.8417969,0,15.1601562,1.1152344,22.5,3.5l-3.5,13.1992188C760.8964844,742.8105469,756.0058594,741.9003906,750.5,741.9003906z
			"/>
		<path d="M783.5,722.5c-3.2802734-0.7363281-5.2353516-1-7.5-1c-7.6611328,0-9.5996094,1.8125-9.5996094,8v2H748v-2
			c0-12.9765625,10.0800781-22,28-22c11.1259766,0,20.0048828,1.4707031,26.9003906,4v20H819v13h-16.0996094v16
			c0,6.6210938,1.3203125,8,5.0996094,8c2.7636719,0,5.6220703-0.4414062,9-1.5l2,13.5c-5.1591797,1.3574219-10.234375,2-16,2
			c-13.1464844,0-19.5-5.71875-19.5-19v-19H773v-13h10.5V722.5z"/>
	</g>
	<g>
		<path d="M742.25,594.3330078c0,2.5966797,1.6796875,4.0244141,7.5,4.8330078
			c15.9316406,2.1425781,21.8330078,7.7773438,21.8330078,17.3339844c0,9.6728516-7.7333984,16-22.3330078,16
			c-8.6152344,0-16.0078125-1.6230469-23-5l3-11.6005859c5.8476562,3.28125,11.9970703,4.8671875,18.6660156,4.8671875
			c5.2001953,0,7.5996094-1.7607422,7.5996094-4.6005859c0-2.6308594-1.0820312-3.6484375-7.4326172-4.6660156
			c-15.703125-2.5009766-21.5-8.0898438-21.5-17.5c0-9.2451172,7.3066406-15.5,22.6669922-15.5
			c7.4912109,0,14.2197266,1.1591797,21,3.6660156l-3,11.4667969c-6.1367188-2.5117188-11.0322266-3.5332031-16.6669922-3.5332031
			C744.1523438,590.0996094,742.25,591.6679688,742.25,594.3330078z"/>
		<path d="M765.75,578.3330078V581.5h-15.5v-3.1669922C750.25,565.7744141,759.2402344,557.5,775.5830078,557.5
			c10.0800781,0,18.3730469,1.3378906,25,3.6660156V581.5h17v11.3330078h-17V611.5c0,7.3515625,1.5625,9,6,9
			c2.9638672,0,5.7880859-0.4746094,9-1.6005859L817.4160156,630.5c-4.5654297,1.3085938-9.5410156,2-14.6660156,2
			c-12.6660156,0-18.5-5.34375-18.5-18.3339844v-21.3330078h-10.6669922V581.5H784.25v-10.9169922
			C780.6611328,569.7939453,778.2851562,569.5,775.6162109,569.5C767.8886719,569.5,765.75,571.6679688,765.75,578.3330078z"/>
	</g>
	<g>
		<path d="M741.5,443.6669922c0,3.3164062,2.0800781,5.1513672,9,6.1660156
			c15.0966797,2.1572266,20.6669922,7.6152344,20.6669922,17.1669922c0,9.4443359-7.4648438,15.5-21.1669922,15.5
			c-8.0595703,0-15.0644531-1.6396484-21.5-5l2.5-9.8007812c5.7197266,3.3222656,11.8466797,4.9345703,18.3330078,4.9345703
			c5.8925781,0,8.6992188-2.1318359,8.6992188-5.7998047c0-3.5361328-1.6894531-5.1699219-8.8652344-6.3339844
			c-14.8564453-2.3955078-20.5-7.7919922-20.5-17c0-8.9345703,7.0810547-15,21.3330078-15
			c7.140625,0,13.2792969,1.2041016,19.5,3.8330078l-2.5,9.7333984c-5.6708984-2.6337891-10.5693359-3.7666016-16.3339844-3.7666016
			C743.9042969,438.2998047,741.5,440.2919922,741.5,443.6669922z"/>
		<path d="M765.0996094,427.1660156V431.5H752.5v-4.3339844C752.5,415.0263672,760.4013672,407.5,775.1660156,407.5
			c9.0351562,0,16.7421875,1.2041016,23.0996094,3.3339844V431.5h17.9013672v9.6660156H798.265625V462.5
			c0,8.0839844,1.8056641,10,6.9013672,10c3.1630859,0,5.9541016-0.5078125,9-1.7011719L815.8330078,480.5
			c-3.9716797,1.2607422-8.8486328,2-13.3330078,2c-12.1845703,0-17.5-4.9677734-17.5-17.6669922v-23.6669922h-10.8339844V431.5H785
			v-12.8330078C781.1035156,417.8251953,778.3046875,417.5,775.2324219,417.5
			C767.4375,417.5,765.0996094,420.0234375,765.0996094,427.1660156z"/>
	</g>
	<g>
		<path d="M740.75,293c0,4.0371094,2.4804688,6.2792969,10.5,7.5c14.2626953,2.1699219,19.5,7.453125,19.5,17
			c0,9.2148438-7.1953125,15-20,15c-7.5048828,0-14.1210938-1.65625-20-5l2-8c5.5908203,3.3632812,11.6962891,5,18,5
			c6.5839844,0,9.7988281-2.5019531,9.7988281-7c0-4.4394531-2.296875-6.6894531-10.2988281-8
			c-14.0097656-2.2910156-19.5-7.4941406-19.5-16.5c0-8.625,6.8574219-14.5,20-14.5c6.7910156,0,12.3398438,1.2480469,18,4l-2,8
			c-5.2041016-2.7558594-10.1064453-4-16-4C743.65625,286.5,740.75,288.9160156,740.75,293z"/>
		<path d="M764.4492188,276v5.5H754.75V276c0-11.7226562,6.8115234-18.5,20-18.5c7.9882812,0,15.109375,1.0712891,21.1992188,3v21
			H814.75v8h-18.8007812v24c0,8.8154297,2.046875,11,7.8007812,11c3.3623047,0,6.1210938-0.5410156,9-1.8007812L814.25,330.5
			c-3.3779297,1.2128906-8.15625,2-12,2c-11.703125,0-16.5-4.5917969-16.5-17v-26h-11v-8h11v-14.75
			c-4.2041016-0.8945312-7.4248047-1.25-10.9003906-1.25C766.9873047,265.5,764.4492188,268.3798828,764.4492188,276z"/>
	</g>
</g>
<path d="M105.8657227,137.4995117v44h-7.4663086v-44H88.065918V131.5h10.3334961v-6.6669922
	c0-11.6171875,5.5136719-17.3330078,16.6669922-17.3330078c3.3886719,0,6.1582031,0.4506836,9.3330078,1.5l-1.5805664,5.9511719
	c-2.2358398-0.9487305-4.7138672-1.4516602-7.0859375-1.4516602c-7.1523438,0-9.8671875,3.0249023-9.8671875,11.3334961V131.5
	h23.6337891v-6.6669922c0-11.6171875,5.5131836-17.3330078,16.6665039-17.3330078c3.3886719,0,6.1586914,0.4506836,9.3339844,1.5
	l-1.5805664,5.9511719c-2.2368164-0.9487305-4.7138672-1.4516602-7.0864258-1.4516602
	c-7.1523438,0-9.8671875,3.0249023-9.8671875,11.3334961V131.5h17.8671875v5.9995117h-17.8671875v44h-7.4663086v-44H105.8657227z"/>
<path d="M104.4331055-14.5v46h-4.7329102v-46H89.0332031v-4h10.6669922v-7.8334961
	c0-10.9960938,4.9150391-16.1665039,15.3330078-16.1665039c3.0625,0,5.8662109,0.4902344,8.6665039,1.5l-1.1606445,3.9038086
	C120.3242188-38.0083008,117.796875-38.5,115.3666992-38.5c-7.8378906,0-10.9335938,3.3950195-10.9335938,12.1665039V-18.5H130
	v-7.8334961C130-37.3295898,134.9155273-42.5,145.3334961-42.5c3.0625,0,5.8657227,0.4902344,8.6665039,1.5l-1.1606445,3.9038086
	C150.6245117-38.0083008,148.097168-38.5,145.6669922-38.5c-7.8383789,0-10.9335938,3.3950195-10.9335938,12.1665039V-18.5
	h18.9331055v4h-18.9331055v46H130v-46H104.4331055z"/>
<path d="M103-166.5v48h-2v-48H90v-2h11v-9c0-10.375,4.3173828-15,14-15c2.7363281,0,5.5732422,0.5292969,8,1.5l-0.7412109,1.8554688
	C120.0654297-190.0195312,117.4882812-190.5,115-190.5c-8.5234375,0-12,3.765625-12,13v9h27.5v-9c0-10.375,4.3173828-15,14-15
	c2.7363281,0,5.5732422,0.5292969,8,1.5l-0.7412109,1.8554688C149.5654297-190.0195312,146.9882812-190.5,144.5-190.5
	c-8.5234375,0-12,3.765625-12,13v9h20v2h-20v48h-2v-48H103z"/>
<path d="M589.5-190.5v72h-2v-70.3935547C582.53125-189.9560547,577.6591797-190.5,573-190.5c-8.5234375,0-12,3.765625-12,13v9h17.5
	v2H561v48h-2v-48h-26.5v48h-2v-48h-11v-2h11v-9c0-10.375,4.3173828-15,14-15c2.7363281,0,5.5732422,0.5292969,8,1.5
	l-0.7412109,1.8554688C549.5654297-190.0195312,546.9882812-190.5,544.5-190.5c-8.5234375,0-12,3.765625-12,13v9H559v-9
	c0-10.375,4.3173828-15,14-15C578.3125-192.5,583.8417969-191.828125,589.5-190.5z"/>
<path d="M573.8994141-38.5004883c-8.2431641,0-11.4335938,3.4707031-11.4335938,12.1669922V-18.5h16.734375v3.9995117h-16.734375v46
	h-4.7324219v-46h-24.9003906v46h-4.7333984v-46h-10.6669922V-18.5h10.6669922v-7.8334961
	c0-10.996582,4.9150391-16.1665039,15.3330078-16.1665039c3.0625,0,5.8671875,0.4897461,8.6669922,1.5l-1.1611328,3.9033203
	c-2.2138672-0.9121094-4.7412109-1.4038086-7.171875-1.4038086c-7.8378906,0-10.9335938,3.3955078-10.9335938,12.1669922V-18.5
	h24.9003906v-7.8334961c0-10.809082,5.1630859-16.1665039,16.1660156-16.1665039
	c6.2890625,0,12.4667969,0.8046875,18.3330078,2.3330078v71.6665039h-4.8652344v-68.512207
	C582.5927734-38.019043,578.2148438-38.5004883,573.8994141-38.5004883z"/>
<path d="M574.7998047,113.5c-7.9628906,0-10.8671875,3.175293-10.8671875,11.3334961V131.5h15.9677734v6h-15.9677734v44h-7.4667969
	v-44h-23.2998047v44h-7.4658203v-44h-10.3339844v-6h10.3339844v-6.6665039c0-11.6171875,5.5126953-17.3334961,16.6660156-17.3334961
	c3.3886719,0,6.1591797,0.4511719,9.3339844,1.5l-1.5810547,5.9516602C547.8837891,114.0024414,545.4052734,113.5,543.0332031,113.5
	c-7.1513672,0-9.8671875,3.0249023-9.8671875,11.3334961V131.5h23.2998047v-6.6665039
	c0-11.2421875,6.0097656-17.3334961,18.3339844-17.3334961c7.2636719,0,14.0917969,0.9379883,20.1660156,2.6665039V181.5h-7.7324219
	v-66.6308594C582.6533203,113.918457,578.7705078,113.5,574.7998047,113.5z"/>
<path d="M679.5-166.5v34c0,11.0361328,3.0136719,13,11.5,13c2.6796875,0,6.0244141-0.5566406,8.3232422-1.3828125L700-119
	c-2.5234375,0.9082031-6.1279297,1.5-9,1.5c-10.3457031,0-13.5-3.5058594-13.5-15v-34H665v-2h12.5v-20.3994141
	C672.8261719-189.90625,667.703125-190.5,663.5-190.5c-7.8125,0-11,3.7666016-11,13v59h-2v-59c0-10.375,4.0859375-15,13-15
	c4.6796875,0,10.6074219,0.7021484,16,2v22H701v2H679.5z"/>
<path d="M681.5664062-14.5004883v30.6669922c0,10.2958984,2.6914062,12.3334961,10.2666016,12.3334961
	c2.9072266,0,6.0566406-0.5517578,8.5488281-1.5224609l0.9511719,3.855957c-2.8085938,1.0097656-6.8037109,1.6665039-10,1.6665039
	c-10.7978516,0-14.5-3.8681641-14.5-15.6665039v-31.3339844h-12V-18.5h12v-18.5166016
	c-4.5175781-0.9692383-9.0058594-1.4838867-12.9667969-1.4838867c-7.6630859,0-10.6337891,3.4711914-10.6337891,12.1669922
	v57.8330078H648.5v-57.8330078C648.5-37.1582031,653.4941406-42.5,663.8330078-42.5
	c5.7822266,0,12.1083984,0.824707,17.7333984,2.3330078V-18.5h20.5996094v3.9995117H681.5664062z"/>
<path d="M683.6328125,137.5v27.3334961c0,9.5556641,2.3691406,11.6665039,9.0341797,11.6665039
	c3.1347656,0,6.0888672-0.5463867,8.7744141-1.6616211l1.2255859,5.828125c-3.09375,1.1113281-7.4804688,1.8334961-11,1.8334961
	c-11.2509766,0-15.5-4.2299805-15.5-16.3334961V137.5h-11.5v-6h11.5v-16.6328125
	C671.8056641,113.9350586,667.9511719,113.5,664.2333984,113.5c-7.5136719,0-10.2675781,3.175293-10.2675781,11.3334961V181.5H646.5
	v-56.6665039C646.5,113.5600586,652.4033203,107.5,664.1669922,107.5c6.8847656,0,13.6083984,0.9482422,19.4658203,2.6665039V131.5
	h19.7001953v6H683.6328125z"/>
<path d="M794.1328125,137.4995117v27.3334961c0,9.5556641,2.3691406,11.6665039,9.0332031,11.6665039
	c3.1357422,0,6.0888672-0.5463867,8.7744141-1.6616211l1.2255859,5.8286133c-3.0927734,1.1113281-7.4794922,1.8334961-11,1.8334961
	c-11.25,0-15.5-4.2304688-15.5-16.3334961v-28.6669922h-11.5V131.5h11.5v-16.6333008
	c-4.3603516-0.9321289-8.2148438-1.3671875-11.9335938-1.3671875c-7.8447266,0-10.5996094,3.175293-10.5996094,11.3334961v5.6762695
	c1.6210938,0.5473633,3.234375,1.1992188,4.8671875,1.9902344l-1.6220703,5.934082
	c-5.2919922-2.7133789-10.21875-3.934082-16.0449219-3.934082c-7.8681641,0-11.8330078,3.0498047-11.8330078,8
	c0,4.4892578,2.5429688,7.3530273,12.2294922,9.0063477c13.7861328,2.2705078,19.1035156,7.2861328,19.1035156,16.3271484
	c0,9.0214844-7.1601562,14.6669922-19.5,14.6669922c-7.1123047,0-13.3251953-1.6044922-19.1660156-5.0004883l1.6787109-5.9038086
	c5.5166016,3.328125,11.2783203,4.9038086,17.4873047,4.9038086c7.7822266,0,12.0322266-3.2001953,12.0322266-8.6665039
	c0-5.2807617-3.1425781-8.0380859-12.4287109-9.6733398c-13.4375-2.3193359-18.7695312-7.1386719-18.7695312-15.6601562
	c0-8.3823242,6.8603516-13.9995117,19.1660156-13.9995117c1.9755859,0,3.8476562,0.1289062,5.6669922,0.3652344v-4.0322266
	C757,113.5595703,762.9033203,107.5,774.6660156,107.5c6.8857422,0,13.609375,0.9477539,19.4667969,2.6665039V131.5h19.7001953
	v5.9995117H794.1328125z"/>
<path d="M766.1826172,18.1669922c0-6.1220703-3.9892578-9.3862305-14.5585938-11.3466797
	C738.7568359,4.472168,733.5830078,0.0371094,733.5830078-8c0-8.1401367,6.8652344-13.5,18.3339844-13.5
	c2.5605469,0,4.9736328,0.2207031,7.3330078,0.6586914v-5.4921875C759.25-37.1577148,764.2441406-42.5,774.5830078-42.5
	c5.7832031,0,12.1083984,0.8251953,17.7333984,2.3334961V-18.5h20.6005859v4h-20.6005859v30.6665039
	c0,10.2958984,2.6914062,12.3334961,10.2666016,12.3334961c2.9072266,0,6.0566406-0.5512695,8.5488281-1.5219727
	l0.9511719,3.8554688c-2.8076172,1.0097656-6.8037109,1.6665039-10,1.6665039c-10.7978516,0-14.5-3.8676758-14.5-15.6665039V-14.5
	h-12v-4h12v-18.5161133C783.0664062-37.9853516,778.5771484-38.5,774.6162109-38.5
	c-7.8291016,0-10.7998047,3.4711914-10.7998047,12.1665039v6.6538086C765.6142578-19.0991211,767.4111328-18.3876953,769.25-17.5
	l-1.2451172,3.8681641C762.6269531-16.3027344,757.6757812-17.5,751.9169922-17.5C743.2744141-17.5,738.25-13.8168945,738.25-8
	c0,4.940918,2.6054688,8.4262695,13.9589844,10.512207c13.3105469,2.371582,18.7080078,7.1191406,18.7080078,15.6547852
	c0,8.8276367-7.125,14.3330078-19,14.3330078c-6.7207031,0-12.5292969-1.5522461-18.3339844-5l1.3583984-3.8071289
	C740.3828125,26.9858398,745.8027344,28.5,751.9169922,28.5C760.8964844,28.5,766.1826172,24.6010742,766.1826172,18.1669922z"/>
<path d="M769-131.5c0-6.9628906-4.8359375-10.734375-16.6894531-13.0195312C740.015625-146.8964844,735-150.9472656,735-158.5
	c0-7.8974609,6.8691406-13,17.5-13c3.1240234,0,6.0654297,0.3461914,9,1.0727539V-177.5c0-10.375,4.0859375-15,13-15
	c4.6796875,0,10.6074219,0.7021484,16,2v22H812v2h-21.5v34c0,11.0361328,3.0136719,13,11.5,13
	c2.6796875,0,6.0244141-0.5566406,8.3232422-1.3828125L811-119c-2.5234375,0.9082031-6.1279297,1.5-9,1.5
	c-10.3457031,0-13.5-3.5058594-13.5-15v-34H776v-2h12.5v-20.3994141C783.8261719-189.90625,778.703125-190.5,774.5-190.5
	c-7.8125,0-11,3.7666016-11,13v7.6274414c1.9677734,0.6074219,3.9492188,1.3857422,6,2.3725586l-0.8671875,1.8017578
	C763.1679688-168.3261719,758.1923828-169.5,752.5-169.5c-9.4160156,0-15.5,4.3164062-15.5,11
	c0,5.3925781,2.6679688,9.5,15.6884766,12.0185547C765.5234375-144.0097656,771-139.5292969,771-131.5
	c0,8.6347656-7.0888672,14-18.5,14c-6.328125,0-11.7324219-1.5-17.5-5l1.0371094-1.7109375
	C741.4042969-120.953125,746.4804688-119.5,752.5-119.5C762.6777344-119.5,769-124.0976562,769-131.5z"/>
<path d="M307.5-166.5h-11v-2h11v-9c0-10.375,4.3173828-15,14-15c5.0830078,0,11.6425781,0.7021484,17.5,2v72h-2v-70.3710938
	C331.8652344-189.8945312,326.1875-190.5,321.5-190.5c-8.5234375,0-12,3.765625-12,13v9H328v2h-18.5v48h-2V-166.5z"/>
<path d="M305.4995117-14.5004883h-10.6665039V-18.5h10.6665039v-7.8334961c0-10.824707,5.2670898-16.1665039,16.4169922-16.1665039
	c6.2324219,0,13.1767578,0.824707,19.2495117,2.3330078v71.6665039h-4.8662109v-68.4975586
	c-4.9858398-0.9799805-9.9663086-1.5024414-14.3833008-1.5024414c-8.4199219,0-11.6835938,3.4707031-11.6835938,12.1669922V-18.5
	h17.9003906v3.9995117h-17.9003906v46h-4.7333984V-14.5004883z"/>
<path d="M322.3334961,107.5c7.3818359,0,14.7114258,0.9482422,21,2.6665039V181.5h-7.7329102v-66.6235352
	c-4.8374023-0.9375-9.1201172-1.3764648-13.2670898-1.3764648c-8.3164062,0-11.3671875,3.175293-11.3671875,11.3334961V131.5
	h17.3007812v6h-17.3007812v44H303.5v-44h-10.3330078v-6H303.5v-6.6665039C303.5,113.5600586,309.7163086,107.5,322.3334961,107.5z"
	/>
<g>
	<g>
		<path d="M214.4003906,731.5v-2c0-6.3408203,1.484375-8,6.0996094-8c2.5253906,0,5.09375,0.5136719,7.5,1.5l2.5-14
			c-4.6992188-1.0488281-8.8066406-1.5-13.5-1.5c-14.0136719,0-22,7.6621094-22,22v2h-9.5v13h9.5v37h19.4003906v-37H233v37h20v-50
			H214.4003906z"/>
		<rect x="233" y="706.5" width="20" height="14"/>
	</g>
	<g>
		<path d="M213.4995117,581.5v-3.1669922c0-6.8417969,1.7680664-8.8330078,7-8.8330078
			c2.4550781,0,4.9770508,0.5136719,7.3334961,1.5l2.3334961-12c-4.315918-1.0625-7.9663086-1.5-12.3334961-1.5
			c-13.3056641,0-20.6669922,7.1953125-20.6669922,20.8330078V581.5H187.5v11.3330078h9.6660156V631.5h16.3334961v-38.6669922
			h20.1337891V631.5H250.5v-50H213.4995117z"/>
		<rect x="233.6333008" y="556.5" width="16.8666992" height="13"/>
	</g>
	<g>
		<path d="M212.5996094,431.5v-4.3339844c0-7.3427734,2.0507812-9.6660156,7.9003906-9.6660156
			c2.3847656,0,4.859375,0.5136719,7.1669922,1.5l2.1660156-10c-3.9316406-1.0751953-7.125-1.5-11.1660156-1.5
			c-12.5976562,0-19.3339844,6.7285156-19.3339844,19.6660156V431.5H189.5v9.6660156h9.8330078V481.5h13.2666016v-40.3339844
			h21.6674805V481.5H248v-50H212.5996094z"/>
		<rect x="234.2670898" y="406.5" width="13.7329102" height="12"/>
	</g>
	<g>
		<path d="M211.6992188,281.5V276c0-7.8447266,2.3339844-10.5,8.8007812-10.5c2.3144531,0,4.7421875,0.5136719,7,1.5l2-8
			c-3.5488281-1.0878906-6.2851562-1.5-10-1.5c-11.8886719,0-18,6.2617188-18,18.5v5.5h-10v8h10v42h10.1992188v-42h23.2011719v42
			H245.5v-50H211.6992188z"/>
		<rect x="234.9003906" y="256.5" width="10.5996094" height="11"/>
	</g>
	<g>
		<path d="M210.9658203,131.5v-6.6669922c0-8.3076172,2.7148438-11.3334961,9.8671875-11.3334961
			c2.3720703,0,4.8500977,0.5029297,7.0864258,1.4516602L229.4995117,109c-3.1743164-1.0493164-5.9443359-1.5-9.3330078-1.5
			C209.0131836,107.5,203.5,113.2158203,203.5,124.8330078V131.5h-10.3334961v5.9995117H203.5v44h7.4658203v-44h24.6342773v44
			h7.7329102V131.5H210.9658203z"/>
		<rect x="235.6000977" y="106.4995117" width="7.7329102" height="11.0004883"/>
	</g>
	<g>
		<path d="M210.2333984-18.5v-7.8330078c0-8.7714844,3.0952148-12.1669922,10.9335938-12.1669922
			c2.4296875,0,4.9575195,0.4912109,7.171875,1.4033203L229.5-41c-2.8007812-1.0097656-5.6040039-1.5-8.6665039-1.5
			C210.4155273-42.5,205.5-37.3295898,205.5-26.3330078V-18.5h-10.6669922v4H205.5v46h4.7333984v-46h26.0664062v46h4.8671875v-50
			H210.2333984z"/>
		<rect x="236.2998047" y="-43.5" width="4.8671875" height="11"/>
	</g>
	<g>
		<path d="M209.5-168.5v-9c0-9.234375,3.4765625-13,12-13c2.4882812,0,5.0654297,0.4804688,7.2587891,1.3554688L229.5-191
			c-2.4267578-0.9707031-5.2636719-1.5-8-1.5c-9.6826172,0-14,4.625-14,15v9h-11v2h11v48h2v-48H237v48h2v-50H209.5z"/>
		<rect x="237" y="-193.5" width="2" height="11"/>
	</g>
</g>
<g>
	<g>
		<path d="M436-168.5v-9c0-9.234375,3.4765625-13,12-13c2.4882812,0,5.0654297,0.4804688,7.2587891,1.3554688L456-191
			c-2.4267578-0.9707031-5.2636719-1.5-8-1.5c-9.6826172,0-14,4.625-14,15v9h-26.5v-9c0-9.234375,3.4765625-13,12-13
			c2.4882812,0,5.0654297,0.4804688,7.2587891,1.3554688L427.5-191c-2.4267578-0.9707031-5.2636719-1.5-8-1.5
			c-9.6826172,0-14,4.625-14,15v9h-11v2h11v48h2v-48H434v48h2v-48h26.5v48h2v-50H436z"/>
		<rect x="462.5" y="-193.5" width="2" height="11"/>
	</g>
	<g>
		<path d="M437.4658203-18.5v-7.8334961c0-8.7709961,3.0957031-12.1669922,10.9335938-12.1669922
			c2.4306641,0,4.9580078,0.4916992,7.1728516,1.4038086L456.7324219-41c-2.8007812-1.0102539-5.6035156-1.5-8.6660156-1.5
			c-10.4179688,0-15.3339844,5.1699219-15.3339844,16.1665039V-18.5h-24.8994141v-7.8334961
			c0-8.7709961,3.0957031-12.1669922,10.9335938-12.1669922c2.4301758,0,4.9580078,0.4916992,7.171875,1.4038086L427.0996094-41
			c-2.8007812-1.0102539-5.6044922-1.5-8.6665039-1.5c-10.4179688,0-15.3334961,5.1699219-15.3334961,16.1665039V-18.5h-10.6669922
			v3.9995117h10.6669922v46h4.7333984v-46h24.8994141v46h4.7333984v-46h24.9013672v46h4.8652344V-18.5H437.4658203z"/>
		<rect x="462.3671875" y="-43.5004883" width="4.8652344" height="11.0004883"/>
	</g>
	<g>
		<path d="M438.9326172,131.5v-6.6669922c0-8.3076172,2.7148438-11.3330078,9.8671875-11.3330078
			c2.3720703,0,4.8505859,0.5029297,7.0859375,1.4516602L457.4658203,109c-3.1748047-1.0488281-5.9433594-1.5-9.3330078-1.5
			c-11.1523438,0-16.6660156,5.7158203-16.6660156,17.3330078V131.5h-23.3007812v-6.6669922
			c0-8.3076172,2.7158203-11.3330078,9.8671875-11.3330078c2.3725586,0,4.8505859,0.5029297,7.0859375,1.4516602L426.7001953,109
			c-3.1748047-1.0488281-5.9453125-1.5-9.3339844-1.5c-11.1533203,0-16.6665039,5.7158203-16.6665039,17.3330078V131.5h-10.3334961
			v6h10.3334961v44h7.4663086v-44h23.3007812v44h7.4658203v-44h23.3017578v44h7.7314453v-50H438.9326172z"/>
		<rect x="462.234375" y="106.5" width="7.7314453" height="11"/>
	</g>
	<g>
		<path d="M440.3984375,281.5V276c0-7.8447266,2.3349609-10.5,8.8007812-10.5c2.3144531,0,4.7431641,0.5136719,7,1.5l2-8
			c-3.5488281-1.0878906-6.2841797-1.5-10-1.5c-11.8876953,0-18,6.2617188-18,18.5v5.5h-21.7001953V276
			c0-7.8447266,2.3349609-10.5,8.8007812-10.5c2.3144531,0,4.7431641,0.5136719,7,1.5l2-8
			c-3.5478516-1.0878906-6.2861328-1.5-10-1.5c-11.8886719,0-18,6.2617188-18,18.5v5.5h-10v8h10v42h10.1992188v-42h21.7001953v42
			h10.1992188v-42h21.7021484v42h10.5986328v-50H440.3984375z"/>
		<rect x="462.1005859" y="256.5" width="10.5986328" height="11"/>
	</g>
	<g>
		<path d="M442.0986328,431.5v-4.3339844c0-7.3427734,2.0517578-9.6660156,7.5673828-9.6660156
			c2.3847656,0,4.859375,0.5136719,7.1660156,1.5l2.3007812-10c-3.9326172-1.0751953-7-1.5-11.0419922-1.5
			c-12.5966797,0-19.125,6.7285156-19.125,19.6660156V431.5h-20.1333008v-4.3339844
			c0-7.3427734,2.0512695-9.6660156,7.5668945-9.6660156c2.3847656,0,4.8603516,0.5136719,7.1669922,1.5l2.2998047-10
			c-3.9316406-1.0751953-7.1259766-1.5-11.1669922-1.5c-12.2636719,0-19,6.7275391-19,19.6660156V431.5h-9.3330078v9.6660156
			h9.3330078V481.5h13.1333008v-40.3339844h20.1333008V481.5h13.1328125v-40.3339844h20.1347656V481.5h13.3994141v-50H442.0986328z"
			/>
		<rect x="462.2333984" y="406.5" width="13.3994141" height="12"/>
	</g>
	<g>
		<path d="M443.7988281,581.5v-3.1669922c0-6.8408203,1.7685547-8.8330078,6.3339844-8.8330078
			c2.4550781,0,4.9765625,0.5136719,7.3330078,1.5l2.6005859-12c-4.3154297-1.0615234-7.7158203-1.5-12.0830078-1.5
			c-13.3056641,0-20.25,7.1953125-20.25,20.8330078V581.5h-18.5673828v-3.1669922
			c0-6.8408203,1.7685547-8.8330078,6.3339844-8.8330078c2.4550781,0,4.9765625,0.5136719,7.3330078,1.5l2.6005859-12
			c-4.3154297-1.0615234-7.9667969-1.5-12.3339844-1.5c-12.6386719,0-20,7.1933594-20,20.8330078V581.5h-8.6665039v11.3330078
			h8.6665039V631.5h16.0664062v-38.6669922h18.5673828V631.5h16.0654297v-38.6669922h18.5683594V631.5h16.1992188v-50H443.7988281z"
			/>
		<rect x="462.3671875" y="556.5" width="16.1992188" height="13"/>
	</g>
	<g>
		<path d="M445.5,731.5v-2c0-6.3398438,1.484375-8,5.0996094-8c2.5253906,0,5.09375,0.5136719,7.5,1.5L461,709
			c-4.6992188-1.0488281-8.4316406-1.5-13.125-1.5c-14.0136719,0-21.375,7.6621094-21.375,22v2h-17v-2
			c0-6.3398438,1.484375-8,5.0996094-8c2.5253906,0,5.09375,0.5136719,7.5,1.5L425,709c-4.6992188-1.0488281-8.8066406-1.5-13.5-1.5
			c-13.0136719,0-21,7.6601562-21,22v2h-8v13h8v37h19v-37h17v37h19v-37h17v37h19v-50H445.5z"/>
		<rect x="462.5" y="706.5" width="19" height="14"/>
	</g>
</g>
</svg>
