<?xml version="1.0" encoding="utf-8"?>
<!-- Generator: Adobe Illustrator 15.0.2, SVG Export Plug-In . SVG Version: 6.00 Build 0)  -->
<!DOCTYPE svg PUBLIC "-//W3C//DTD SVG 1.1//EN" "http://www.w3.org/Graphics/SVG/1.1/DTD/svg11.dtd">
<svg version="1.1" id="レイヤー1" xmlns="http://www.w3.org/2000/svg" xmlns:xlink="http://www.w3.org/1999/xlink" x="0px"
	 y="0px" width="841.8896484px" height="595.2753906px" viewBox="0 0 841.8896484 595.2753906"
	 enable-background="new 0 0 841.8896484 595.2753906" xml:space="preserve">
<g>
	<rect x="71.5" y="-226.5" fill="none" stroke="#000000" stroke-width="0.25" width="100" height="150"/>
	<rect x="171.5" y="-226.5" fill="none" stroke="#000000" stroke-width="0.25" width="100" height="150"/>
	<rect x="271.5" y="-226.5" fill="none" stroke="#000000" stroke-width="0.25" width="100" height="150"/>
	<rect x="371.5" y="-226.5" fill="none" stroke="#000000" stroke-width="0.25" width="125" height="150"/>
	<rect x="496.5" y="-226.5" fill="none" stroke="#000000" stroke-width="0.25" width="125" height="150"/>
	<rect x="621.5" y="-226.5" fill="none" stroke="#000000" stroke-width="0.25" width="100" height="150"/>
	<rect x="721.5" y="-226.5" fill="none" stroke="#000000" stroke-width="0.25" width="100" height="150"/>
	<rect x="71.5" y="-76.5" fill="none" stroke="#000000" stroke-width="0.25" width="100" height="150"/>
	<rect x="171.5" y="-76.5" fill="none" stroke="#000000" stroke-width="0.25" width="100" height="150"/>
	<rect x="271.5" y="-76.5" fill="none" stroke="#000000" stroke-width="0.25" width="100" height="150"/>
	<rect x="371.5" y="-76.5" fill="none" stroke="#000000" stroke-width="0.25" width="125" height="150"/>
	<rect x="496.5" y="-76.5" fill="none" stroke="#000000" stroke-width="0.25" width="125" height="150"/>
	<rect x="621.5" y="-76.5" fill="none" stroke="#000000" stroke-width="0.25" width="100" height="150"/>
	<rect x="721.5" y="-76.5" fill="none" stroke="#000000" stroke-width="0.25" width="100" height="150"/>
	<rect x="71.5" y="73.5" fill="none" stroke="#000000" stroke-width="0.25" width="100" height="150"/>
	<rect x="171.5" y="73.5" fill="none" stroke="#000000" stroke-width="0.25" width="100" height="150"/>
	<rect x="271.5" y="73.5" fill="none" stroke="#000000" stroke-width="0.25" width="100" height="150"/>
	<rect x="371.5" y="73.5" fill="none" stroke="#000000" stroke-width="0.25" width="125" height="150"/>
	<rect x="496.5" y="73.5" fill="none" stroke="#000000" stroke-width="0.25" width="125" height="150"/>
	<rect x="621.5" y="73.5" fill="none" stroke="#000000" stroke-width="0.25" width="100" height="150"/>
	<rect x="721.5" y="73.5" fill="none" stroke="#000000" stroke-width="0.25" width="100" height="150"/>
	<rect x="71.5" y="223.5" fill="none" stroke="#000000" stroke-width="0.25" width="100" height="150"/>
	<rect x="171.5" y="223.5" fill="none" stroke="#000000" stroke-width="0.25" width="100" height="150"/>
	<rect x="271.5" y="223.5" fill="none" stroke="#000000" stroke-width="0.25" width="100" height="150"/>
	<rect x="371.5" y="223.5" fill="none" stroke="#000000" stroke-width="0.25" width="125" height="150"/>
	<rect x="496.5" y="223.5" fill="none" stroke="#000000" stroke-width="0.25" width="125" height="150"/>
	<rect x="621.5" y="223.5" fill="none" stroke="#000000" stroke-width="0.25" width="100" height="150"/>
	<rect x="721.5" y="223.5" fill="none" stroke="#000000" stroke-width="0.25" width="100" height="150"/>
	<rect x="71.5" y="373.5" fill="none" stroke="#000000" stroke-width="0.25" width="100" height="150"/>
	<rect x="171.5" y="373.5" fill="none" stroke="#000000" stroke-width="0.25" width="100" height="150"/>
	<rect x="271.5" y="373.5" fill="none" stroke="#000000" stroke-width="0.25" width="100" height="150"/>
	<rect x="371.5" y="373.5" fill="none" stroke="#000000" stroke-width="0.25" width="125" height="150"/>
	<rect x="496.5" y="373.5" fill="none" stroke="#000000" stroke-width="0.25" width="125" height="150"/>
	<rect x="621.5" y="373.5" fill="none" stroke="#000000" stroke-width="0.25" width="100" height="150"/>
	<rect x="721.5" y="373.5" fill="none" stroke="#000000" stroke-width="0.25" width="100" height="150"/>
	<rect x="71.5" y="523.5" fill="none" stroke="#000000" stroke-width="0.25" width="100" height="150"/>
	<rect x="171.5" y="523.5" fill="none" stroke="#000000" stroke-width="0.25" width="100" height="150"/>
	<rect x="271.5" y="523.5" fill="none" stroke="#000000" stroke-width="0.25" width="100" height="150"/>
	<rect x="371.5" y="523.5" fill="none" stroke="#000000" stroke-width="0.25" width="125" height="150"/>
	<rect x="496.5" y="523.5" fill="none" stroke="#000000" stroke-width="0.25" width="125" height="150"/>
	<rect x="621.5" y="523.5" fill="none" stroke="#000000" stroke-width="0.25" width="100" height="150"/>
	<rect x="721.5" y="523.5" fill="none" stroke="#000000" stroke-width="0.25" width="100" height="150"/>
	<rect x="71.5" y="673.5" fill="none" stroke="#000000" stroke-width="0.25" width="100" height="150"/>
	<rect x="171.5" y="673.5" fill="none" stroke="#000000" stroke-width="0.25" width="100" height="150"/>
	<rect x="271.5" y="673.5" fill="none" stroke="#000000" stroke-width="0.25" width="100" height="150"/>
	<rect x="371.5" y="673.5" fill="none" stroke="#000000" stroke-width="0.25" width="125" height="150"/>
	<rect x="496.5" y="673.5" fill="none" stroke="#000000" stroke-width="0.25" width="125" height="150"/>
	<rect x="621.5" y="673.5" fill="none" stroke="#000000" stroke-width="0.25" width="100" height="150"/>
	<rect x="721.5" y="673.5" fill="none" stroke="#000000" stroke-width="0.25" width="100" height="150"/>
	<rect x="821.5" y="-226.5" fill="none" stroke="#000000" stroke-width="0.25" width="100" height="150"/>
	<rect x="821.5" y="-76.5" fill="none" stroke="#000000" stroke-width="0.25" width="100" height="150"/>
	<rect x="821.5" y="73.5" fill="none" stroke="#000000" stroke-width="0.25" width="100" height="150"/>
	<rect x="821.5" y="223.5" fill="none" stroke="#000000" stroke-width="0.25" width="100" height="150"/>
	<rect x="821.5" y="373.5" fill="none" stroke="#000000" stroke-width="0.25" width="100" height="150"/>
	<rect x="821.5" y="523.5" fill="none" stroke="#000000" stroke-width="0.25" width="100" height="150"/>
	<rect x="821.5" y="673.5" fill="none" stroke="#000000" stroke-width="0.25" width="100" height="150"/>
</g>
<g>
	<path d="M109.9003906,744.5v37H90.5v-37H81v-13h9.5v-2c0-14.3378906,7.9863281-22,22-22c4.6933594,0,8.8007812,0.4511719,13.5,1.5
		l-2.5,14c-2.40625-0.9863281-4.9746094-1.5-7.5-1.5c-4.6152344,0-6.0996094,1.6582031-6.0996094,8v2H128.5v-2
		c0-14.3378906,7.9863281-22,22-22c4.6933594,0,8.8007812,0.4511719,13.5,1.5l-2.5,14c-2.40625-0.9863281-4.9746094-1.5-7.5-1.5
		c-4.6152344,0-6.0996094,1.6582031-6.0996094,8v2H163v13h-15.0996094v37H128.5v-37H109.9003906z"/>
	<path d="M109.0327148,592.8330078V631.5H92.699707v-38.6669922h-9.6669922V581.5h9.6669922v-3.1669922
		c0-13.6376953,7.3613281-20.8330078,20.6665039-20.8330078c4.3671875,0,8.0175781,0.4384766,12.3330078,1.5l-2.3330078,12
		c-2.3564453-0.9863281-4.878418-1.5-7.3334961-1.5c-5.2319336,0-7,1.9902344-7,8.8330078V581.5h19.6337891v-3.1669922
		c0-13.6376953,7.3613281-20.8330078,20.6665039-20.8330078c4.3671875,0,8.0175781,0.4384766,12.3334961,1.5l-2.3334961,12
		c-2.3569336-0.9863281-4.8779297-1.5-7.3330078-1.5c-5.2329102,0-7,1.9902344-7,8.8330078V581.5h15.6665039v11.3330078H145V631.5
		h-16.3334961v-38.6669922H109.0327148z"/>
	<path d="M108.1660156,441.1669922V481.5H94.8999023v-40.3330078h-9.8334961V431.5h9.8334961v-4.3330078
		c0-12.9384766,6.7363281-19.6669922,19.3330078-19.6669922c4.0410156,0,7.234375,0.4248047,11.1669922,1.5l-2.1669922,10
		c-2.3071289-0.9863281-4.7817383-1.5-7.1665039-1.5c-5.8496094,0-7.9003906,2.3222656-7.9003906,9.6669922V431.5h20.6674805
		v-4.3330078c0-12.9384766,6.7363281-19.6669922,19.3330078-19.6669922c4.0410156,0,7.234375,0.4248047,11.1669922,1.5
		l-2.1665039,10c-2.3076172-0.9863281-4.7822266-1.5-7.1669922-1.5c-5.8496094,0-7.9003906,2.3222656-7.9003906,9.6669922V431.5
		h16.2338867v9.6669922h-16.2338867V481.5h-13.2661133v-40.3330078H108.1660156z"/>
	<path d="M107.2988281,289.5v42H97.0996094v-42h-10v-8h10V276c0-12.2382812,6.1113281-18.5,18-18.5
		c3.7148438,0,6.4511719,0.4121094,10,1.5l-2,8c-2.2578125-0.9863281-4.6855469-1.5-7-1.5
		c-6.4667969,0-8.8007812,2.6542969-8.8007812,10.5v5.5H129V276c0-12.2382812,6.1113281-18.5,18-18.5
		c3.7148438,0,6.4511719,0.4121094,10,1.5l-2,8c-2.2578125-0.9863281-4.6855469-1.5-7-1.5
		c-6.4667969,0-8.8007812,2.6542969-8.8007812,10.5v5.5H156v8h-16.8007812v42H129v-42H107.2988281z"/>
	<path d="M105.8657227,137.4995117v44h-7.4663086v-44H88.065918V131.5h10.3334961v-6.6669922
		c0-11.6171875,5.5136719-17.3330078,16.6669922-17.3330078c3.3886719,0,6.1582031,0.4506836,9.3330078,1.5l-1.5805664,5.9511719
		c-2.2358398-0.9487305-4.7138672-1.4516602-7.0859375-1.4516602c-7.1523438,0-9.8671875,3.0249023-9.8671875,11.3334961V131.5
		h23.6337891v-6.6669922c0-11.6171875,5.5131836-17.3330078,16.6665039-17.3330078c3.3886719,0,6.1586914,0.4506836,9.3339844,1.5
		l-1.5805664,5.9511719c-2.2368164-0.9487305-4.7138672-1.4516602-7.0864258-1.4516602
		c-7.1523438,0-9.8671875,3.0249023-9.8671875,11.3334961V131.5h17.8671875v5.9995117h-17.8671875v44h-7.4663086v-44H105.8657227z"
		/>
	<path d="M104.4331055-14.5v46h-4.7329102v-46H89.0332031v-4h10.6669922v-7.8334961
		c0-10.9960938,4.9150391-16.1665039,15.3330078-16.1665039c3.0625,0,5.8662109,0.4902344,8.6665039,1.5l-1.1606445,3.9038086
		C120.3242188-38.0083008,117.796875-38.5,115.3666992-38.5c-7.8378906,0-10.9335938,3.3950195-10.9335938,12.1665039V-18.5H130
		v-7.8334961C130-37.3295898,134.9155273-42.5,145.3334961-42.5c3.0625,0,5.8657227,0.4902344,8.6665039,1.5l-1.1606445,3.9038086
		C150.6245117-38.0083008,148.097168-38.5,145.6669922-38.5c-7.8383789,0-10.9335938,3.3950195-10.9335938,12.1665039V-18.5
		h18.9331055v4h-18.9331055v46H130v-46H104.4331055z"/>
	<path d="M103-166.5v48h-2v-48H90v-2h11v-9c0-10.375,4.3173828-15,14-15c2.7363281,0,5.5732422,0.5292969,8,1.5
		l-0.7412109,1.8554688C120.0654297-190.0195312,117.4882812-190.5,115-190.5c-8.5234375,0-12,3.765625-12,13v9h27.5v-9
		c0-10.375,4.3173828-15,14-15c2.7363281,0,5.5732422,0.5292969,8,1.5l-0.7412109,1.8554688
		C149.5654297-190.0195312,146.9882812-190.5,144.5-190.5c-8.5234375,0-12,3.765625-12,13v9h20v2h-20v48h-2v-48H103z"/>
</g>
<g>
	<g>
		<path d="M237-168.5v-2h2v52h-2v-48h-27.5v48h-2v-48h-11v-2h11v-9c0-10.375,4.3173828-15,14-15
			c2.7363281,0,5.5732422,0.5292969,8,1.5l-0.7412109,1.8554688C226.5654297-190.0195312,223.9882812-190.5,221.5-190.5
			c-8.5234375,0-12,3.765625-12,13v9H237z"/>
		<rect x="237" y="-193.5" width="2" height="11"/>
	</g>
	<g>
		<path d="M236.2998047-14.5004883h-26.0668945v46h-4.7333984v-46h-10.6665039V-18.5h10.6665039v-7.8334961
			c0-10.996582,4.9155273-16.1665039,15.3334961-16.1665039c3.0625,0,5.8657227,0.4897461,8.6665039,1.5l-1.1606445,3.9033203
			c-2.2148438-0.9121094-4.7421875-1.4038086-7.1723633-1.4038086c-7.8383789,0-10.9335938,3.3955078-10.9335938,12.1669922V-18.5
			h26.0668945v-2.0004883h4.8666992v52h-4.8666992V-14.5004883z"/>
		<rect x="236.2998047" y="-43.5004883" width="4.8666992" height="11"/>
	</g>
	<g>
		<path d="M235.6000977,137.5h-24.6337891v44H203.5v-44h-10.3334961v-6H203.5v-6.6665039
			C203.5,113.2163086,209.0136719,107.5,220.1669922,107.5c3.3886719,0,6.1582031,0.4511719,9.3330078,1.5l-1.5805664,5.9516602
			C225.6835938,114.0024414,223.2055664,113.5,220.8334961,113.5c-7.1523438,0-9.8671875,3.0249023-9.8671875,11.3334961V131.5
			h24.6337891v-2h7.7333984v52h-7.7333984V137.5z"/>
		<rect x="235.6000977" y="106.5" width="7.7333984" height="11"/>
	</g>
	<g>
		<path d="M234.9003906,289.5h-23.2011719v42H201.5v-42h-10v-8h10V276c0-12.2382812,6.1113281-18.5,18-18.5
			c3.7148438,0,6.4511719,0.4121094,10,1.5l-2,8c-2.2578125-0.9863281-4.6855469-1.5-7-1.5
			c-6.4667969,0-8.8007812,2.6542969-8.8007812,10.5v5.5h23.2011719v-2H245.5v52h-10.5996094V289.5z"/>
		<rect x="234.9003906" y="256.5" width="10.5996094" height="11"/>
	</g>
	<g>
		<path d="M234.2666016,441.1660156h-21.6674805V481.5h-13.2661133v-40.3339844H189.5V431.5h9.8330078v-4.3339844
			c0-12.9375,6.7363281-19.6660156,19.3334961-19.6660156c4.0410156,0,7.234375,0.4248047,11.1665039,1.5l-2.1665039,10
			c-2.3076172-0.9863281-4.7822266-1.5-7.1669922-1.5c-5.8496094,0-7.9003906,2.3222656-7.9003906,9.6660156V431.5h21.6674805v-2
			H248v52h-13.7333984V441.1660156z"/>
		<rect x="234.2666016" y="406.5" width="13.7333984" height="12"/>
	</g>
	<g>
		<path d="M233.6337891,592.8330078H213.5V631.5h-16.3334961v-38.6669922H187.5V581.5h9.6665039v-3.1669922
			c0-13.6376953,7.3613281-20.8330078,20.6669922-20.8330078c4.3671875,0,8.0175781,0.4384766,12.3330078,1.5l-2.3330078,12
			c-2.3569336-0.9863281-4.878418-1.5-7.3334961-1.5c-5.2324219,0-7,1.9902344-7,8.8330078V581.5h20.1337891v-2H250.5v52
			h-16.8662109V592.8330078z"/>
		<rect x="233.6337891" y="556.5" width="16.8662109" height="13"/>
	</g>
	<g>
		<path d="M233,731.5v-2h20v52h-20v-37h-18.5996094v37H195v-37h-9.5v-13h9.5v-2c0-14.3378906,7.9863281-22,22-22
			c4.6933594,0,8.8007812,0.4511719,13.5,1.5l-2.5,14c-2.40625-0.9863281-4.9746094-1.5-7.5-1.5
			c-4.6152344,0-6.0996094,1.6582031-6.0996094,8v2H233z"/>
		<rect x="233" y="706.5" width="20" height="14"/>
	</g>
</g>
<g>
	<g>
		<path d="M436-168.5h26.5v-2h2v52h-2v-48H436v48h-2v-48h-26.5v48h-2v-48h-11v-2h11v-9c0-10.375,4.3173828-15,14-15
			c2.7363281,0,5.5732422,0.5292969,8,1.5l-0.7412109,1.8554688C424.5654297-190.0195312,421.9882812-190.5,419.5-190.5
			c-8.5234375,0-12,3.765625-12,13v9H434v-9c0-10.375,4.3173828-15,14-15c2.7363281,0,5.5732422,0.5292969,8,1.5
			l-0.7412109,1.8554688C453.0654297-190.0195312,450.4882812-190.5,448-190.5c-8.5234375,0-12,3.765625-12,13V-168.5z"/>
		<rect x="462.5" y="-193.5" width="2" height="11"/>
	</g>
	<g>
		<path d="M467.2333984-20.5004883v52h-4.8671875v-46h-24.9003906v46h-4.7333984v-46h-24.8994141v46h-4.7333984v-46h-10.6669922
			V-18.5h10.6669922v-7.8334961c0-10.996582,4.9155273-16.1665039,15.3334961-16.1665039
			c3.0620117,0,5.8657227,0.4897461,8.6665039,1.5l-1.1611328,3.9033203
			c-2.2138672-0.9121094-4.7416992-1.4038086-7.171875-1.4038086c-7.8378906,0-10.9335938,3.3955078-10.9335938,12.1669922V-18.5
			h24.8994141v-7.8334961c0-10.996582,4.9160156-16.1665039,15.3339844-16.1665039c3.0625,0,5.8652344,0.4897461,8.6660156,1.5
			l-1.1601562,3.9033203c-2.2148438-0.9121094-4.7421875-1.4038086-7.1728516-1.4038086
			c-7.8378906,0-10.9335938,3.3955078-10.9335938,12.1669922V-18.5h24.9003906v-2.0004883H467.2333984z"/>
		<rect x="462.3662109" y="-43.5004883" width="4.8671875" height="11"/>
	</g>
	<g>
		<path d="M469.9658203,129.5v52h-7.7324219v-44h-23.3007812v44h-7.4667969v-44h-23.2998047v44h-7.4663086v-44h-10.3330078v-6
			h10.3330078v-6.6665039c0-11.6171875,5.5136719-17.3334961,16.6669922-17.3334961c3.3881836,0,6.1586914,0.4511719,9.3334961,1.5
			l-1.5810547,5.9516602C422.8837891,114.0024414,420.4057617,113.5,418.0332031,113.5
			c-7.1518555,0-9.8671875,3.0249023-9.8671875,11.3334961V131.5h23.2998047v-6.6665039
			c0-11.6171875,5.5146484-17.3334961,16.6669922-17.3334961c3.3896484,0,6.1582031,0.4511719,9.3330078,1.5l-1.5800781,5.9516602
			C453.6503906,114.0024414,451.171875,113.5,448.7998047,113.5c-7.1523438,0-9.8671875,3.0249023-9.8671875,11.3334961V131.5
			h23.3007812v-2H469.9658203z"/>
		<rect x="462.2333984" y="106.5" width="7.7324219" height="11"/>
	</g>
	<g>
		<path d="M472.6992188,279.5v52h-10.5986328v-42h-21.7021484v42h-10.1992188v-42h-21.7001953v42h-10.1992188v-42h-10v-8h10V276
			c0-12.2382812,6.1113281-18.5,18-18.5c3.7138672,0,6.4521484,0.4121094,10,1.5l-2,8c-2.2568359-0.9863281-4.6855469-1.5-7-1.5
			c-6.4658203,0-8.8007812,2.6542969-8.8007812,10.5v5.5h21.7001953V276c0-12.2382812,6.1123047-18.5,18-18.5
			c3.7158203,0,6.4511719,0.4121094,10,1.5l-2,8c-2.2568359-0.9863281-4.6855469-1.5-7-1.5
			c-6.4658203,0-8.8007812,2.6542969-8.8007812,10.5v5.5h21.7021484v-2H472.6992188z"/>
		<rect x="462.1005859" y="256.5" width="10.5986328" height="11"/>
	</g>
	<g>
		<path d="M442.0986328,441.1660156V481.5h-13.1328125v-40.3339844h-20.1333008V481.5h-13.1333008v-40.3339844h-9.3330078V431.5
			h9.3330078v-4.3339844c0-12.9384766,6.7363281-19.6660156,19-19.6660156c4.0405273,0,7.2353516,0.4248047,11.1669922,1.5
			l-2.2998047,10c-2.3066406-0.9863281-4.7822266-1.5-7.1669922-1.5c-5.515625,0-7.5668945,2.3222656-7.5668945,9.6660156V431.5
			h20.1333008v-4.3339844c0-12.9375,6.5283203-19.6660156,19.125-19.6660156c4.0419922,0,7.109375,0.4248047,11.0419922,1.5
			l-2.3007812,10c-2.3066406-0.9863281-4.78125-1.5-7.1660156-1.5c-5.515625,0-7.5673828,2.3222656-7.5673828,9.6660156V431.5
			h20.1347656v-2h13.3994141v52h-13.3994141v-40.3339844H442.0986328z"/>
		<rect x="462.2333984" y="406.5" width="13.3994141" height="12"/>
	</g>
	<g>
		<path d="M443.7998047,592.8330078V631.5h-16.0664062v-38.6669922h-18.5668945V631.5h-16.0664062v-38.6669922h-8.6669922V581.5
			h8.6669922v-3.1669922c0-13.6386719,7.3613281-20.8330078,20-20.8330078c4.3666992,0,8.0180664,0.4384766,12.3334961,1.5
			l-2.6005859,12c-2.3564453-0.9863281-4.8779297-1.5-7.3330078-1.5c-4.5654297,0-6.3334961,1.9912109-6.3334961,8.8330078V581.5
			h18.5668945v-3.1669922c0-13.6376953,6.9443359-20.8330078,20.25-20.8330078c4.3671875,0,7.7675781,0.4384766,12.0830078,1.5
			l-2.6005859,12c-2.3564453-0.9863281-4.8779297-1.5-7.3330078-1.5c-4.5654297,0-6.3330078,1.9912109-6.3330078,8.8330078V581.5
			h18.5673828v-2h16.1992188v52h-16.1992188v-38.6669922H443.7998047z"/>
		<rect x="462.3671875" y="556.5" width="16.1992188" height="13"/>
	</g>
	<g>
		<path d="M445.5,744.5v37h-19v-37h-17v37h-19v-37h-8v-13h8v-2c0-14.3398438,7.9863281-22,21-22
			c4.6933594,0,8.8007812,0.4511719,13.5,1.5l-2.9003906,14c-2.40625-0.9863281-4.9746094-1.5-7.5-1.5
			c-3.6152344,0-5.0996094,1.6601562-5.0996094,8v2h17v-2c0-14.3378906,7.3613281-22,21.375-22
			c4.6933594,0,8.4257812,0.4511719,13.125,1.5l-2.9003906,14c-2.40625-0.9863281-4.9746094-1.5-7.5-1.5
			c-3.6152344,0-5.0996094,1.6601562-5.0996094,8v2h17v-2h19v52h-19v-37H445.5z"/>
		<rect x="462.5" y="706.5" width="19" height="14"/>
	</g>
</g>
<g>
	<path d="M589.5-190.5v72h-2v-70.3935547C582.53125-189.9560547,577.6591797-190.5,573-190.5c-8.5234375,0-12,3.765625-12,13v9h17.5
		v2H561v48h-2v-48h-26.5v48h-2v-48h-11v-2h11v-9c0-10.375,4.3173828-15,14-15c2.7363281,0,5.5732422,0.5292969,8,1.5
		l-0.7412109,1.8554688C549.5654297-190.0195312,546.9882812-190.5,544.5-190.5c-8.5234375,0-12,3.765625-12,13v9H559v-9
		c0-10.375,4.3173828-15,14-15C578.3125-192.5,583.8417969-191.828125,589.5-190.5z"/>
	<path d="M573.8994141-38.5004883c-8.2431641,0-11.4335938,3.4707031-11.4335938,12.1669922V-18.5h16.734375v3.9995117h-16.734375
		v46h-4.7324219v-46h-24.9003906v46h-4.7333984v-46h-10.6669922V-18.5h10.6669922v-7.8334961
		c0-10.996582,4.9150391-16.1665039,15.3330078-16.1665039c3.0625,0,5.8671875,0.4897461,8.6669922,1.5l-1.1611328,3.9033203
		c-2.2138672-0.9121094-4.7412109-1.4038086-7.171875-1.4038086c-7.8378906,0-10.9335938,3.3955078-10.9335938,12.1669922V-18.5
		h24.9003906v-7.8334961c0-10.809082,5.1630859-16.1665039,16.1660156-16.1665039
		c6.2890625,0,12.4667969,0.8046875,18.3330078,2.3330078v71.6665039h-4.8652344v-68.512207
		C582.5927734-38.019043,578.2148438-38.5004883,573.8994141-38.5004883z"/>
	<path d="M574.7998047,113.5c-7.9628906,0-10.8671875,3.175293-10.8671875,11.3334961V131.5h15.9677734v6h-15.9677734v44h-7.4667969
		v-44h-23.2998047v44h-7.4658203v-44h-10.3339844v-6h10.3339844v-6.6665039
		c0-11.6171875,5.5126953-17.3334961,16.6660156-17.3334961c3.3886719,0,6.1591797,0.4511719,9.3339844,1.5l-1.5810547,5.9516602
		C547.8837891,114.0024414,545.4052734,113.5,543.0332031,113.5c-7.1513672,0-9.8671875,3.0249023-9.8671875,11.3334961V131.5
		h23.2998047v-6.6665039c0-11.2421875,6.0097656-17.3334961,18.3339844-17.3334961
		c7.2636719,0,14.0917969,0.9379883,20.1660156,2.6665039V181.5h-7.7324219v-66.6308594
		C582.6533203,113.918457,578.7705078,113.5,574.7998047,113.5z"/>
	<path d="M575.6992188,265.5c-7.6816406,0-10.3007812,2.8798828-10.3007812,10.5v5.5h15.2021484v8h-15.2021484v42h-10.1992188v-42
		h-21.7001953v42h-10.1992188v-42h-10v-8h10V276c0-12.2382812,6.1113281-18.5,18-18.5c3.7138672,0,6.4521484,0.4121094,10,1.5l-2,8
		c-2.2568359-0.9863281-4.6855469-1.5-7-1.5c-6.4658203,0-8.8007812,2.6542969-8.8007812,10.5v5.5h21.7001953V276
		c0-11.6757812,6.8554688-18.5,20.5-18.5c8.2402344,0,15.7177734,1.0712891,22,3v71h-10.5986328v-64.75
		C582.7148438,265.8554688,579.3261719,265.5,575.6992188,265.5z"/>
	<path d="M576.7998047,417.5c-7.4130859,0-9.7011719,2.4736328-9.7011719,9.6660156V431.5h14.46875v9.6660156h-14.46875V481.5
		h-13.1328125v-40.3339844h-20.1337891V481.5h-13.1328125v-40.3339844h-9.3330078V431.5h9.3330078v-4.3339844
		c0-12.9384766,6.7363281-19.6660156,19-19.6660156c4.0410156,0,7.2353516,0.4248047,11.1669922,1.5l-2.2998047,10
		c-2.3066406-0.9863281-4.7822266-1.5-7.1669922-1.5c-5.515625,0-7.5673828,2.3222656-7.5673828,9.6660156V431.5h20.1337891
		v-4.3339844c0-12.109375,7.8144531-19.6660156,22.8339844-19.6660156c9.2480469,0,17.3183594,1.2041016,23.8330078,3.3330078V481.5
		h-13.3994141v-62.8339844C583.0351562,417.8144531,580.0869141,417.5,576.7998047,417.5z"/>
	<path d="M577.8994141,569.5c-7.1435547,0-9.0996094,2.0673828-9.0996094,8.8330078V581.5h13.7333984v11.3330078h-13.7333984V631.5
		h-16.0664062v-38.6669922h-18.5673828V631.5h-16.0664062v-38.6669922h-8.6660156V581.5h8.6660156v-3.1669922
		c0-13.6386719,7.3613281-20.8330078,20-20.8330078c4.3671875,0,8.0185547,0.4384766,12.3339844,1.5l-2.6005859,12
		c-2.3564453-0.9863281-4.8779297-1.5-7.3330078-1.5c-4.5654297,0-6.3339844,1.9912109-6.3339844,8.8330078V581.5h18.5673828
		v-3.1669922c0-12.5429688,8.7734375-20.8330078,25.1660156-20.8330078c10.2568359,0,18.9189453,1.3378906,25.6669922,3.6669922
		V631.5h-16.1992188v-60.9169922C583.3564453,569.7734375,580.8486328,569.5,577.8994141,569.5z"/>
	<path d="M606.5,711.5v70h-19v-59c-3.8222656-0.7675781-5.890625-1-8.5-1c-6.875,0-8.5,1.6611328-8.5,8v2h13v13h-13v37h-19v-37h-17
		v37h-19v-37h-8v-13h8v-2c0-14.3398438,7.9863281-22,21-22c4.6933594,0,8.8007812,0.4511719,13.5,1.5l-2.9003906,14
		c-2.40625-0.9863281-4.9746094-1.5-7.5-1.5c-3.6152344,0-5.0996094,1.6601562-5.0996094,8v2h17v-2
		c0-12.9765625,9.7324219-22,27.5-22C590.2646484,707.5,599.5195312,708.9707031,606.5,711.5z"/>
</g>
<g>
	<path d="M339-190.5v72h-2v-70.3710938C331.8652344-189.8945312,326.1875-190.5,321.5-190.5c-8.5234375,0-12,3.765625-12,13v9H328v2
		h-18.5v48h-2v-48h-11v-2h11v-9c0-10.375,4.3173828-15,14-15C326.5830078-192.5,333.1425781-191.7978516,339-190.5z"/>
	<path d="M336.2998047-36.9980469c-4.9858398-0.9799805-9.9663086-1.5024414-14.3833008-1.5024414
		c-8.4199219,0-11.6835938,3.4707031-11.6835938,12.1669922V-18.5h17.9003906v3.9995117h-17.9003906v46h-4.7333984v-46h-10.6665039
		V-18.5h10.6665039v-7.8334961c0-10.824707,5.2670898-16.1665039,16.4169922-16.1665039
		c6.2324219,0,13.1767578,0.824707,19.2495117,2.3330078v71.6665039h-4.8662109V-36.9980469z"/>
	<path d="M335.6005859,114.8764648c-4.8374023-0.9375-9.1201172-1.3764648-13.2670898-1.3764648
		c-8.3164062,0-11.3671875,3.175293-11.3671875,11.3334961V131.5h17.3007812v6h-17.3007812v44H303.5v-44h-10.3330078v-6H303.5
		v-6.6665039C303.5,113.5600586,309.7163086,107.5,322.3334961,107.5c7.3818359,0,14.7114258,0.9482422,21,2.6665039V181.5
		h-7.7329102V114.8764648z"/>
	<path d="M334.9003906,266.75c-4.6884766-0.8945312-8.2734375-1.25-12.1503906-1.25
		c-8.2128906,0-11.0507812,2.8798828-11.0507812,10.5v5.5h16.7011719v8h-16.7011719v42H301.5v-42h-10v-8h10V276
		c0-11.7226562,7.1660156-18.5,21.25-18.5c8.53125,0,16.2460938,1.0712891,22.75,3v71h-10.5996094V266.75z"/>
	<path d="M334.2666016,418.6660156C329.75,417.7998047,326.7026367,417.5,323.1665039,417.5
		c-8.0410156,0-10.5668945,2.5244141-10.5668945,9.6660156V431.5h16v9.6660156h-16V481.5h-13.2666016v-40.3339844h-9.8334961V431.5
		h9.8334961v-4.3339844c0-12.140625,8.1982422-19.6660156,23.8334961-19.6660156
		c9.6469727,0,18.043457,1.2041016,24.8330078,3.3330078V481.5h-13.7329102V418.6660156z"/>
	<path d="M333.6333008,570.5830078C329.2880859,569.7441406,326.7788086,569.5,323.5834961,569.5
		C315.7148438,569.5,313.5,571.6689453,313.5,578.3330078V581.5h15.300293v11.3330078H313.5V631.5h-16.3334961v-38.6669922H287.5
		V581.5h9.6665039v-3.1669922c0-12.5585938,9.2314453-20.8330078,26.4169922-20.8330078
		c10.7631836,0,19.8408203,1.3378906,26.9165039,3.6669922V631.5h-16.8666992V570.5830078z"/>
	<path d="M333,722.5c-4.1738281-0.8115234-6.1455078-1-9-1c-7.6962891,0-9.5996094,1.8134766-9.5996094,8v2H329v13h-14.5996094v37
		H295v-37h-9.5v-13h9.5v-2c0-12.9765625,10.2636719-22,29-22c11.8789062,0,21.6386719,1.4707031,29,4v70h-20V722.5z"/>
</g>
<g>
	<path d="M679.5-166.5v34c0,11.0361328,3.0136719,13,11.5,13c2.6796875,0,6.0244141-0.5566406,8.3232422-1.3828125L700-119
		c-2.5234375,0.9082031-6.1279297,1.5-9,1.5c-10.3457031,0-13.5-3.5058594-13.5-15v-34H665v-2h12.5v-20.3994141
		C672.8261719-189.90625,667.703125-190.5,663.5-190.5c-7.8125,0-11,3.7666016-11,13v59h-2v-59c0-10.375,4.0859375-15,13-15
		c4.6796875,0,10.6074219,0.7021484,16,2v22H701v2H679.5z"/>
	<path d="M681.5664062-14.5004883v30.6669922c0,10.2958984,2.6914062,12.3334961,10.2666016,12.3334961
		c2.9072266,0,6.0566406-0.5517578,8.5488281-1.5224609l0.9511719,3.855957c-2.8085938,1.0097656-6.8037109,1.6665039-10,1.6665039
		c-10.7978516,0-14.5-3.8681641-14.5-15.6665039v-31.3339844h-12V-18.5h12v-18.5166016
		c-4.5175781-0.9692383-9.0058594-1.4838867-12.9667969-1.4838867c-7.6630859,0-10.6337891,3.4711914-10.6337891,12.1669922
		v57.8330078H648.5v-57.8330078C648.5-37.1582031,653.4941406-42.5,663.8330078-42.5
		c5.7822266,0,12.1083984,0.824707,17.7333984,2.3330078V-18.5h20.5996094v3.9995117H681.5664062z"/>
	<path d="M683.6328125,137.5v27.3334961c0,9.5556641,2.3691406,11.6665039,9.0341797,11.6665039
		c3.1347656,0,6.0888672-0.5463867,8.7744141-1.6616211l1.2255859,5.828125c-3.09375,1.1113281-7.4804688,1.8334961-11,1.8334961
		c-11.2509766,0-15.5-4.2299805-15.5-16.3334961V137.5h-11.5v-6h11.5v-16.6328125
		C671.8056641,113.9350586,667.9511719,113.5,664.2333984,113.5c-7.5136719,0-10.2675781,3.175293-10.2675781,11.3334961V181.5
		H646.5v-56.6665039C646.5,113.5600586,652.4033203,107.5,664.1669922,107.5c6.8847656,0,13.6083984,0.9482422,19.4658203,2.6665039
		V131.5h19.7001953v6H683.6328125z"/>
	<path d="M654.6992188,276v55.5H644.5V276c0-11.7226562,6.8115234-18.5,20-18.5c7.9882812,0,15.109375,1.0712891,21.1992188,3v21
		H704.5v8h-18.8007812v24c0,8.8154297,2.046875,11,7.8007812,11c3.3623047,0,6.1210938-0.5410156,9-1.8007812L704,330.5
		c-3.3779297,1.2128906-8.15625,2-12,2c-11.703125,0-16.5-4.5917969-16.5-17v-26h-11v-8h11v-14.75
		c-4.2041016-0.8945312-7.4248047-1.25-10.9003906-1.25C657.2363281,265.5,654.6992188,268.3798828,654.6992188,276z"/>
	<path d="M655.5996094,427.1660156V481.5h-13.2666016v-54.3339844C642.3330078,415.0253906,650.234375,407.5,665,407.5
		c9.0341797,0,16.7412109,1.2041016,23.0996094,3.3330078V431.5H706v9.6660156h-17.9003906V462.5
		c0,8.0839844,1.8046875,10,6.9003906,10c3.1630859,0,5.9541016-0.5078125,9-1.7011719L705.6660156,480.5
		c-3.9716797,1.2607422-8.8486328,2-13.3330078,2c-12.1845703,0-17.5-4.9677734-17.5-17.6669922v-23.6669922H664V431.5h10.8330078
		v-12.8339844C670.9365234,417.8251953,668.1386719,417.5,665.0664062,417.5
		C657.9365234,417.5,655.5996094,420.0244141,655.5996094,427.1660156z"/>
	<path d="M656.5,578.3330078V631.5h-16.3330078v-53.1669922C640.1669922,565.7744141,649.1572266,557.5,665.5,557.5
		c10.0800781,0,18.3730469,1.3378906,25,3.6669922V581.5h17v11.3330078h-17V611.5c0,7.3525391,1.5625,9,6,9
		c2.9628906,0,5.7880859-0.4746094,9-1.6005859L707.3330078,630.5c-4.5654297,1.3095703-9.5410156,2-14.6660156,2
		c-12.6660156,0-18.5-5.3427734-18.5-18.3330078v-21.3339844H663.5V581.5h10.6669922v-10.9169922
		C670.578125,569.7939453,668.2011719,569.5,665.5332031,569.5C658.6376953,569.5,656.5,571.6689453,656.5,578.3330078z"/>
	<path d="M673.5,722.5c-3.2802734-0.7363281-5.2353516-1-7.5-1c-6.6621094,0-8.5996094,1.8134766-8.5996094,8v52H638v-52
		c0-12.9765625,10.0800781-22,28-22c11.1259766,0,20.0048828,1.4707031,26.9003906,4v20H709v13h-16.0996094v16
		c0,6.6210938,1.3203125,8,5.0996094,8c2.7636719,0,5.6220703-0.4414062,9-1.5l2,13.5c-5.1591797,1.3574219-10.234375,2-16,2
		c-13.1464844,0-19.5-5.71875-19.5-19v-19H663v-13h10.5V722.5z"/>
</g>
<g>
	<g>
		<path d="M750.5,741.9003906c-6.0996094,0-7.5,1.1445312-7.5,3.0996094c0,1.8769531,1.2792969,2.8974609,6,3.5
			c16.765625,2.1289062,23,7.9394531,23,17.5c0,9.9023438-8.0019531,16.5-23.5,16.5c-9.1699219,0-16.9511719-1.6054688-24.5-5
			l3.5-13.4003906c5.9765625,3.2402344,12.1474609,4.8007812,19,4.8007812c4.5078125,0,6.5-1.390625,6.5-3.4003906
			c0-1.7265625-0.4746094-2.1289062-6-3c-16.5498047-2.6054688-22.5-8.3867188-22.5-18c0-9.5546875,7.53125-16,24-16
			c7.8417969,0,15.1601562,1.1152344,22.5,3.5l-3.5,13.1992188C760.8964844,742.8105469,756.0058594,741.9003906,750.5,741.9003906z
			"/>
		<path d="M783.5,722.5c-3.2802734-0.7363281-5.2353516-1-7.5-1c-7.6611328,0-9.5996094,1.8125-9.5996094,8v2H748v-2
			c0-12.9765625,10.0800781-22,28-22c11.1259766,0,20.0048828,1.4707031,26.9003906,4v20H819v13h-16.0996094v16
			c0,6.6210938,1.3203125,8,5.0996094,8c2.7636719,0,5.6220703-0.4414062,9-1.5l2,13.5c-5.1591797,1.3574219-10.234375,2-16,2
			c-13.1464844,0-19.5-5.71875-19.5-19v-19H773v-13h10.5V722.5z"/>
	</g>
	<g>
		<path d="M742.25,594.3330078c0,2.5966797,1.6796875,4.0253906,7.5,4.8330078
			c15.9316406,2.1425781,21.8330078,7.7773438,21.8330078,17.3339844c0,9.6728516-7.7333984,16-22.3330078,16
			c-8.6152344,0-16.0078125-1.6220703-23-5l3-11.6005859c5.8476562,3.28125,11.9970703,4.8671875,18.6669922,4.8671875
			c5.1992188,0,7.5986328-1.7607422,7.5986328-4.6005859c0-2.6298828-1.0820312-3.6484375-7.4326172-4.6660156
			c-15.703125-2.5009766-21.5-8.0898438-21.5-17.5c0-9.2451172,7.3066406-15.5,22.6669922-15.5
			c7.4912109,0,14.2197266,1.1591797,21,3.6660156l-3,11.4667969c-6.1367188-2.5117188-11.0322266-3.5322266-16.6669922-3.5322266
			C744.1523438,590.1005859,742.25,591.6679688,742.25,594.3330078z"/>
		<path d="M765.75,578.3330078V581.5h-15.5v-3.1669922C750.25,565.7744141,759.2402344,557.5,775.5830078,557.5
			c10.0800781,0,18.3730469,1.3378906,25,3.6660156V581.5h17v11.3330078h-17V611.5c0,7.3525391,1.5625,9,6,9
			c2.9628906,0,5.7890625-0.4746094,9-1.6005859L817.4160156,630.5c-4.5654297,1.3085938-9.5410156,2-14.6660156,2
			c-12.6650391,0-18.5-5.3427734-18.5-18.3339844v-21.3330078h-10.6669922V581.5H784.25v-10.9169922
			C780.6611328,569.7939453,778.2841797,569.5,775.6162109,569.5C767.8876953,569.5,765.75,571.6679688,765.75,578.3330078z"/>
	</g>
	<g>
		<path d="M741.5,443.6669922c0,3.3164062,2.0800781,5.1513672,9,6.1660156
			c15.0966797,2.15625,20.6669922,7.6152344,20.6669922,17.1669922c0,9.4443359-7.4648438,15.5-21.1669922,15.5
			c-8.0595703,0-15.0644531-1.6396484-21.5-5l2.5-9.7998047c5.7197266,3.3222656,11.8466797,4.9335938,18.3330078,4.9335938
			c5.8925781,0,8.6992188-2.1318359,8.6992188-5.8007812c0-3.5351562-1.6894531-5.1689453-8.8652344-6.3330078
			c-14.8564453-2.3955078-20.5-7.7919922-20.5-17c0-8.9345703,7.0820312-15,21.3330078-15
			c7.1416016,0,13.2802734,1.2041016,19.5,3.8330078l-2.5,9.7333984
			c-5.6708984-2.6337891-10.5693359-3.7666016-16.3330078-3.7666016C743.9042969,438.2998047,741.5,440.2919922,741.5,443.6669922z"
			/>
		<path d="M765.0996094,427.1669922V431.5H752.5v-4.3330078C752.5,415.0263672,760.4013672,407.5,775.1669922,407.5
			c9.0341797,0,16.7412109,1.2041016,23.0996094,3.3330078V431.5h17.9003906v9.6669922h-17.9003906V462.5
			c0,8.0839844,1.8046875,10,6.9003906,10c3.1621094,0,5.9541016-0.5078125,9-1.7001953L815.8330078,480.5
			c-3.9716797,1.2607422-8.8486328,2-13.3330078,2c-12.1845703,0-17.5-4.9677734-17.5-17.6669922v-23.6660156h-10.8330078V431.5H785
			v-12.8330078C781.1035156,417.8251953,778.3046875,417.5,775.2333984,417.5
			C767.4375,417.5,765.0996094,420.0244141,765.0996094,427.1669922z"/>
	</g>
	<g>
		<path d="M740.75,293c0,4.0371094,2.4804688,6.2792969,10.5,7.5c14.2626953,2.1699219,19.5,7.453125,19.5,17
			c0,9.2148438-7.1953125,15-20,15c-7.5048828,0-14.1210938-1.65625-20-5l2-8c5.5908203,3.3632812,11.6962891,5,18,5
			c6.5839844,0,9.7988281-2.5019531,9.7988281-7c0-4.4394531-2.296875-6.6894531-10.2988281-8
			c-14.0097656-2.2910156-19.5-7.4941406-19.5-16.5c0-8.625,6.8574219-14.5,20-14.5c6.7910156,0,12.3398438,1.2480469,18,4l-2,8
			c-5.2041016-2.7558594-10.1064453-4-16-4C743.65625,286.5,740.75,288.9160156,740.75,293z"/>
		<path d="M764.4492188,276v5.5H754.75V276c0-11.7226562,6.8115234-18.5,20-18.5c7.9882812,0,15.109375,1.0712891,21.1992188,3v21
			H814.75v8h-18.8007812v24c0,8.8154297,2.046875,11,7.8007812,11c3.3623047,0,6.1210938-0.5410156,9-1.8007812L814.25,330.5
			c-3.3779297,1.2128906-8.15625,2-12,2c-11.703125,0-16.5-4.5917969-16.5-17v-26h-11v-8h11v-14.75
			c-4.2041016-0.8945312-7.4248047-1.25-10.9003906-1.25C766.9873047,265.5,764.4492188,268.3798828,764.4492188,276z"/>
	</g>
	<g>
		<path d="M739.5,142.4995117c0,4.4892578,2.5429688,7.3530273,12.2294922,9.0063477
			c13.7861328,2.2705078,19.1035156,7.2861328,19.1035156,16.3271484c0,9.0214844-7.1601562,14.6669922-19.5,14.6669922
			c-7.1123047,0-13.3251953-1.6044922-19.1660156-5.0004883l1.6787109-5.9038086
			c5.5166016,3.328125,11.2783203,4.9038086,17.4873047,4.9038086c7.7822266,0,12.0322266-3.2001953,12.0322266-8.6665039
			c0-5.2807617-3.1425781-8.0380859-12.4287109-9.6733398c-13.4375-2.3193359-18.7695312-7.1386719-18.7695312-15.6601562
			c0-8.3823242,6.8603516-13.9995117,19.1660156-13.9995117c6.5019531,0,11.9560547,1.2329102,17.6669922,3.9995117
			l-1.6220703,5.934082c-5.2919922-2.7133789-10.21875-3.934082-16.0449219-3.934082
			C743.4648438,134.4995117,739.5,137.5493164,739.5,142.4995117z"/>
		<path d="M794.1328125,137.4995117v27.3334961c0,9.5556641,2.3691406,11.6665039,9.0332031,11.6665039
			c3.1357422,0,6.0888672-0.5463867,8.7744141-1.6616211l1.2255859,5.8286133
			c-3.0927734,1.1113281-7.4794922,1.8334961-11,1.8334961c-11.25,0-15.5-4.2304688-15.5-16.3334961v-28.6669922h-11.5V131.5h11.5
			v-16.6333008c-4.3603516-0.9321289-8.2148438-1.3671875-11.9335938-1.3671875
			c-7.8447266,0-10.5996094,3.175293-10.5996094,11.3334961V131.5H757v-6.6669922
			C757,113.5595703,762.9033203,107.5,774.6660156,107.5c6.8857422,0,13.609375,0.9477539,19.4667969,2.6665039V131.5h19.7001953
			v5.9995117H794.1328125z"/>
	</g>
	<g>
		<path d="M738.25-8c0,4.940918,2.6054688,8.4262695,13.9589844,10.512207
			c13.3105469,2.371582,18.7080078,7.1191406,18.7080078,15.6547852c0,8.8276367-7.125,14.3330078-19,14.3330078
			c-6.7207031,0-12.5292969-1.5522461-18.3339844-5l1.3583984-3.8071289C740.3828125,26.9858398,745.8027344,28.5,751.9169922,28.5
			c8.9794922,0,14.265625-3.8989258,14.265625-10.3330078c0-6.1220703-3.9892578-9.3862305-14.5585938-11.3466797
			C738.7568359,4.472168,733.5830078,0.0371094,733.5830078-8c0-8.1401367,6.8652344-13.5,18.3339844-13.5
			c6.2119141,0,11.5712891,1.2182617,17.3330078,4l-1.2451172,3.8681641C762.6269531-16.3027344,757.6757812-17.5,751.9169922-17.5
			C743.2744141-17.5,738.25-13.8168945,738.25-8z"/>
		<path d="M792.3164062-14.5v30.6665039c0,10.2958984,2.6914062,12.3334961,10.2666016,12.3334961
			c2.9072266,0,6.0566406-0.5512695,8.5488281-1.5219727l0.9511719,3.8554688
			c-2.8076172,1.0097656-6.8037109,1.6665039-10,1.6665039c-10.7978516,0-14.5-3.8676758-14.5-15.6665039V-14.5h-12v-4h12
			v-18.5161133C783.0664062-37.9853516,778.5771484-38.5,774.6162109-38.5c-7.8291016,0-10.7998047,3.4711914-10.7998047,12.1665039
			V-18.5H759.25v-7.8334961C759.25-37.1577148,764.2441406-42.5,774.5830078-42.5
			c5.7832031,0,12.1083984,0.8251953,17.7333984,2.3334961V-18.5h20.6005859v4H792.3164062z"/>
	</g>
	<g>
		<path d="M768.6328125-165.6982422C763.1679688-168.3261719,758.1923828-169.5,752.5-169.5c-9.4160156,0-15.5,4.3164062-15.5,11
			c0,5.3925781,2.6679688,9.5,15.6884766,12.0185547C765.5234375-144.0097656,771-139.5292969,771-131.5
			c0,8.6347656-7.0888672,14-18.5,14c-6.328125,0-11.7324219-1.5-17.5-5l1.0371094-1.7109375
			C741.4042969-120.953125,746.4804688-119.5,752.5-119.5c10.1777344,0,16.5-4.5976562,16.5-12
			c0-6.9628906-4.8359375-10.734375-16.6894531-13.0195312C740.015625-146.8964844,735-150.9472656,735-158.5
			c0-7.8974609,6.8691406-13,17.5-13c5.9228516,0,11.1875,1.203125,17,4L768.6328125-165.6982422z"/>
		<path d="M790.5-166.5v34c0,11.0361328,3.0136719,13,11.5,13c2.6796875,0,6.0244141-0.5566406,8.3232422-1.3828125L811-119
			c-2.5234375,0.9082031-6.1279297,1.5-9,1.5c-10.3457031,0-13.5-3.5058594-13.5-15v-34H776v-2h12.5v-20.3994141
			C783.8261719-189.90625,778.703125-190.5,774.5-190.5c-7.8125,0-11,3.7666016-11,13v9h-2v-9c0-10.375,4.0859375-15,13-15
			c4.6796875,0,10.6074219,0.7021484,16,2v22H812v2H790.5z"/>
	</g>
</g>
</svg>
