<?xml version="1.0" encoding="utf-8"?>
<!-- Generator: Adobe Illustrator 15.0.2, SVG Export Plug-In . SVG Version: 6.00 Build 0)  -->
<!DOCTYPE svg PUBLIC "-//W3C//DTD SVG 1.1//EN" "http://www.w3.org/Graphics/SVG/1.1/DTD/svg11.dtd">
<svg version="1.1" id="レイヤー1" xmlns="http://www.w3.org/2000/svg" xmlns:xlink="http://www.w3.org/1999/xlink" x="0px"
	 y="0px" width="841.8896484px" height="595.2753906px" viewBox="0 0 841.8896484 595.2753906"
	 enable-background="new 0 0 841.8896484 595.2753906" xml:space="preserve">
<g>
	<rect x="71.5" y="-226.5" fill="none" stroke="#000000" stroke-width="0.25" width="100" height="150"/>
	<rect x="171.5" y="-226.5" fill="none" stroke="#000000" stroke-width="0.25" width="100" height="150"/>
	<rect x="271.5" y="-226.5" fill="none" stroke="#000000" stroke-width="0.25" width="100" height="150"/>
	<rect x="371.5" y="-226.5" fill="none" stroke="#000000" stroke-width="0.25" width="125" height="150"/>
	<rect x="496.5" y="-226.5" fill="none" stroke="#000000" stroke-width="0.25" width="125" height="150"/>
	<rect x="621.5" y="-226.5" fill="none" stroke="#000000" stroke-width="0.25" width="100" height="150"/>
	<rect x="721.5" y="-226.5" fill="none" stroke="#000000" stroke-width="0.25" width="100" height="150"/>
	<rect x="71.5" y="-76.5" fill="none" stroke="#000000" stroke-width="0.25" width="100" height="150"/>
	<rect x="171.5" y="-76.5" fill="none" stroke="#000000" stroke-width="0.25" width="100" height="150"/>
	<rect x="271.5" y="-76.5" fill="none" stroke="#000000" stroke-width="0.25" width="100" height="150"/>
	<rect x="371.5" y="-76.5" fill="none" stroke="#000000" stroke-width="0.25" width="125" height="150"/>
	<rect x="496.5" y="-76.5" fill="none" stroke="#000000" stroke-width="0.25" width="125" height="150"/>
	<rect x="621.5" y="-76.5" fill="none" stroke="#000000" stroke-width="0.25" width="100" height="150"/>
	<rect x="721.5" y="-76.5" fill="none" stroke="#000000" stroke-width="0.25" width="100" height="150"/>
	<rect x="71.5" y="73.5" fill="none" stroke="#000000" stroke-width="0.25" width="100" height="150"/>
	<rect x="171.5" y="73.5" fill="none" stroke="#000000" stroke-width="0.25" width="100" height="150"/>
	<rect x="271.5" y="73.5" fill="none" stroke="#000000" stroke-width="0.25" width="100" height="150"/>
	<rect x="371.5" y="73.5" fill="none" stroke="#000000" stroke-width="0.25" width="125" height="150"/>
	<rect x="496.5" y="73.5" fill="none" stroke="#000000" stroke-width="0.25" width="125" height="150"/>
	<rect x="621.5" y="73.5" fill="none" stroke="#000000" stroke-width="0.25" width="100" height="150"/>
	<rect x="721.5" y="73.5" fill="none" stroke="#000000" stroke-width="0.25" width="100" height="150"/>
	<rect x="71.5" y="223.5" fill="none" stroke="#000000" stroke-width="0.25" width="100" height="150"/>
	<rect x="171.5" y="223.5" fill="none" stroke="#000000" stroke-width="0.25" width="100" height="150"/>
	<rect x="271.5" y="223.5" fill="none" stroke="#000000" stroke-width="0.25" width="100" height="150"/>
	<rect x="371.5" y="223.5" fill="none" stroke="#000000" stroke-width="0.25" width="125" height="150"/>
	<rect x="496.5" y="223.5" fill="none" stroke="#000000" stroke-width="0.25" width="125" height="150"/>
	<rect x="621.5" y="223.5" fill="none" stroke="#000000" stroke-width="0.25" width="100" height="150"/>
	<rect x="721.5" y="223.5" fill="none" stroke="#000000" stroke-width="0.25" width="100" height="150"/>
	<rect x="71.5" y="373.5" fill="none" stroke="#000000" stroke-width="0.25" width="100" height="150"/>
	<rect x="171.5" y="373.5" fill="none" stroke="#000000" stroke-width="0.25" width="100" height="150"/>
	<rect x="271.5" y="373.5" fill="none" stroke="#000000" stroke-width="0.25" width="100" height="150"/>
	<rect x="371.5" y="373.5" fill="none" stroke="#000000" stroke-width="0.25" width="125" height="150"/>
	<rect x="496.5" y="373.5" fill="none" stroke="#000000" stroke-width="0.25" width="125" height="150"/>
	<rect x="621.5" y="373.5" fill="none" stroke="#000000" stroke-width="0.25" width="100" height="150"/>
	<rect x="721.5" y="373.5" fill="none" stroke="#000000" stroke-width="0.25" width="100" height="150"/>
	<rect x="71.5" y="523.5" fill="none" stroke="#000000" stroke-width="0.25" width="100" height="150"/>
	<rect x="171.5" y="523.5" fill="none" stroke="#000000" stroke-width="0.25" width="100" height="150"/>
	<rect x="271.5" y="523.5" fill="none" stroke="#000000" stroke-width="0.25" width="100" height="150"/>
	<rect x="371.5" y="523.5" fill="none" stroke="#000000" stroke-width="0.25" width="125" height="150"/>
	<rect x="496.5" y="523.5" fill="none" stroke="#000000" stroke-width="0.25" width="125" height="150"/>
	<rect x="621.5" y="523.5" fill="none" stroke="#000000" stroke-width="0.25" width="100" height="150"/>
	<rect x="721.5" y="523.5" fill="none" stroke="#000000" stroke-width="0.25" width="100" height="150"/>
	<rect x="71.5" y="673.5" fill="none" stroke="#000000" stroke-width="0.25" width="100" height="150"/>
	<rect x="171.5" y="673.5" fill="none" stroke="#000000" stroke-width="0.25" width="100" height="150"/>
	<rect x="271.5" y="673.5" fill="none" stroke="#000000" stroke-width="0.25" width="100" height="150"/>
	<rect x="371.5" y="673.5" fill="none" stroke="#000000" stroke-width="0.25" width="125" height="150"/>
	<rect x="496.5" y="673.5" fill="none" stroke="#000000" stroke-width="0.25" width="125" height="150"/>
	<rect x="621.5" y="673.5" fill="none" stroke="#000000" stroke-width="0.25" width="100" height="150"/>
	<rect x="721.5" y="673.5" fill="none" stroke="#000000" stroke-width="0.25" width="100" height="150"/>
	<rect x="821.5" y="-226.5" fill="none" stroke="#000000" stroke-width="0.25" width="100" height="150"/>
	<rect x="821.5" y="-76.5" fill="none" stroke="#000000" stroke-width="0.25" width="100" height="150"/>
	<rect x="821.5" y="73.5" fill="none" stroke="#000000" stroke-width="0.25" width="100" height="150"/>
	<rect x="821.5" y="223.5" fill="none" stroke="#000000" stroke-width="0.25" width="100" height="150"/>
	<rect x="821.5" y="373.5" fill="none" stroke="#000000" stroke-width="0.25" width="100" height="150"/>
	<rect x="821.5" y="523.5" fill="none" stroke="#000000" stroke-width="0.25" width="100" height="150"/>
	<rect x="821.5" y="673.5" fill="none" stroke="#000000" stroke-width="0.25" width="100" height="150"/>
</g>
<g>
	<path d="M109.9003906,744.5v37H90.5v-37H81v-13h9.5v-2c0-14.3378906,7.9863281-22,22-22c4.6933594,0,8.8007812,0.4511719,13.5,1.5
		l-2.5,14c-2.40625-0.9863281-4.9746094-1.5-7.5-1.5c-4.6152344,0-6.0996094,1.6582031-6.0996094,8v2H128.5v-2
		c0-14.3378906,7.9863281-22,22-22c4.6933594,0,8.8007812,0.4511719,13.5,1.5l-2.5,14c-2.40625-0.9863281-4.9746094-1.5-7.5-1.5
		c-4.6152344,0-6.0996094,1.6582031-6.0996094,8v2H163v13h-15.0996094v37H128.5v-37H109.9003906z"/>
	<path d="M109.0332031,592.8330078V631.5H92.699707v-38.6669922h-9.6669922V581.5h9.6669922v-3.1669922
		c0-13.6376953,7.3613281-20.8330078,20.6665039-20.8330078c4.3671875,0,8.0175781,0.4375,12.3330078,1.5l-2.3330078,12
		c-2.3564453-0.9863281-4.8779297-1.5-7.3330078-1.5c-5.2324219,0-7,1.9902344-7,8.8330078V581.5h19.6333008v-3.1669922
		c0-13.6376953,7.3613281-20.8330078,20.6665039-20.8330078c4.3671875,0,8.0175781,0.4375,12.3334961,1.5l-2.3334961,12
		c-2.3569336-0.9863281-4.8779297-1.5-7.3330078-1.5c-5.2329102,0-7,1.9902344-7,8.8330078V581.5h15.6665039v11.3330078H145V631.5
		h-16.3334961v-38.6669922H109.0332031z"/>
	<path d="M108.1660156,441.1660156V481.5H94.8999023v-40.3339844h-9.8334961V431.5h9.8334961v-4.3339844
		c0-12.9375,6.7363281-19.6660156,19.3334961-19.6660156c4.0410156,0,7.234375,0.4248047,11.1660156,1.5l-2.1665039,10
		c-2.3071289-0.9863281-4.7817383-1.5-7.1665039-1.5c-5.8496094,0-7.9003906,2.3222656-7.9003906,9.6660156V431.5h20.6669922
		v-4.3339844c0-12.9375,6.7363281-19.6660156,19.3334961-19.6660156c4.0410156,0,7.234375,0.4248047,11.1669922,1.5l-2.1665039,10
		c-2.3076172-0.9863281-4.7822266-1.5-7.1669922-1.5c-5.8496094,0-7.9003906,2.3222656-7.9003906,9.6660156V431.5h16.2333984
		v9.6660156h-16.2333984V481.5h-13.2666016v-40.3339844H108.1660156z"/>
	<path d="M107.2988281,289.5v42H97.0996094v-42h-10v-8h10V276c0-12.2382812,6.1113281-18.5,18-18.5
		c3.7148438,0,6.4511719,0.4121094,10,1.5l-2,8c-2.2578125-0.9863281-4.6855469-1.5-7-1.5
		c-6.4667969,0-8.8007812,2.6542969-8.8007812,10.5v5.5H129V276c0-12.2382812,6.1113281-18.5,18-18.5
		c3.7148438,0,6.4511719,0.4121094,10,1.5l-2,8c-2.2578125-0.9863281-4.6855469-1.5-7-1.5
		c-6.4667969,0-8.8007812,2.6542969-8.8007812,10.5v5.5H156v8h-16.8007812v42H129v-42H107.2988281z"/>
</g>
<g>
	<path d="M575.6992188,265.5c-7.6816406,0-10.3007812,2.8798828-10.3007812,10.5v5.5h15.2021484v8h-15.2021484v42h-10.1992188v-42
		h-21.7001953v42h-10.1992188v-42h-10v-8h10V276c0-12.2382812,6.1113281-18.5,18-18.5c3.7138672,0,6.4521484,0.4121094,10,1.5l-2,8
		c-2.2568359-0.9863281-4.6855469-1.5-7-1.5c-6.4658203,0-8.8007812,2.6542969-8.8007812,10.5v5.5h21.7001953V276
		c0-11.6757812,6.8554688-18.5,20.5-18.5c8.2402344,0,15.7177734,1.0712891,22,3v71h-10.5986328v-64.75
		C582.7148438,265.8554688,579.3261719,265.5,575.6992188,265.5z"/>
	<path d="M576.7988281,417.5c-7.4121094,0-9.7001953,2.4726562-9.7001953,9.6660156V431.5h14.4677734v9.6660156h-14.4677734V481.5
		h-13.1328125v-40.3339844h-20.1337891V481.5h-13.1328125v-40.3339844h-9.3330078V431.5h9.3330078v-4.3339844
		c0-12.9384766,6.7363281-19.6660156,19-19.6660156c4.0410156,0,7.2353516,0.4248047,11.1669922,1.5l-2.2998047,10
		c-2.3066406-0.9863281-4.7822266-1.5-7.1669922-1.5c-5.515625,0-7.5673828,2.3222656-7.5673828,9.6660156V431.5h20.1337891
		v-4.3339844c0-12.109375,7.8144531-19.6660156,22.8330078-19.6660156c9.2480469,0,17.3183594,1.2041016,23.8339844,3.3330078V481.5
		h-13.3994141v-62.8339844C583.0351562,417.8144531,580.0869141,417.5,576.7988281,417.5z"/>
	<path d="M577.8994141,569.5c-7.1435547,0-9.0996094,2.0673828-9.0996094,8.8330078V581.5h13.7333984v11.3330078h-13.7333984V631.5
		h-16.0664062v-38.6669922h-18.5673828V631.5h-16.0664062v-38.6669922h-8.6660156V581.5h8.6660156v-3.1669922
		c0-13.6396484,7.3613281-20.8330078,20-20.8330078c4.3671875,0,8.0185547,0.4384766,12.3339844,1.5l-2.6005859,12
		c-2.3564453-0.9863281-4.8779297-1.5-7.3330078-1.5c-4.5654297,0-6.3339844,1.9912109-6.3339844,8.8330078V581.5h18.5673828
		v-3.1669922c0-12.5419922,8.7734375-20.8330078,25.1660156-20.8330078c10.2568359,0,18.9189453,1.3378906,25.6669922,3.6669922
		V631.5h-16.1992188v-60.9160156C583.3564453,569.7734375,580.8486328,569.5,577.8994141,569.5z"/>
	<path d="M606.5,711.5v70h-19v-59c-3.8222656-0.7675781-5.890625-1-8.5-1c-6.875,0-8.5,1.6611328-8.5,8v2h13v13h-13v37h-19v-37h-17
		v37h-19v-37h-8v-13h8v-2c0-14.3398438,7.9863281-22,21-22c4.6933594,0,8.8007812,0.4511719,13.5,1.5l-2.9003906,14
		c-2.40625-0.9863281-4.9746094-1.5-7.5-1.5c-3.6152344,0-5.0996094,1.6601562-5.0996094,8v2h17v-2
		c0-12.9765625,9.7324219-22,27.5-22C590.2646484,707.5,599.5195312,708.9707031,606.5,711.5z"/>
</g>
<g>
	<path d="M334.9003906,266.75c-4.6884766-0.8945312-8.2734375-1.25-12.1503906-1.25
		c-8.2128906,0-11.0507812,2.8798828-11.0507812,10.5v5.5h16.7011719v8h-16.7011719v42H301.5v-42h-10v-8h10V276
		c0-11.7226562,7.1660156-18.5,21.25-18.5c8.53125,0,16.2460938,1.0712891,22.75,3v71h-10.5996094V266.75z"/>
	<path d="M334.2666016,418.6660156C329.75,417.7998047,326.7026367,417.5,323.1665039,417.5
		c-8.0410156,0-10.5668945,2.5234375-10.5668945,9.6660156V431.5h16v9.6660156h-16V481.5h-13.2666016v-40.3339844H289.5V431.5
		h9.8330078v-4.3339844c0-12.140625,8.1982422-19.6660156,23.8334961-19.6660156
		c9.6469727,0,18.043457,1.2041016,24.8334961,3.3330078V481.5h-13.7333984V418.6660156z"/>
	<path d="M333.6333008,570.5839844C329.2880859,569.7441406,326.7788086,569.5,323.5830078,569.5
		C315.7148438,569.5,313.5,571.6689453,313.5,578.3330078V581.5h15.2998047v11.3330078H313.5V631.5h-16.3330078v-38.6669922H287.5
		V581.5h9.6669922v-3.1669922c0-12.5576172,9.2304688-20.8330078,26.4160156-20.8330078
		c10.7636719,0,19.8413086,1.3378906,26.9169922,3.6669922V631.5h-16.8666992V570.5839844z"/>
	<path d="M333,722.5c-4.1738281-0.8115234-6.1455078-1-9-1c-7.6962891,0-9.5996094,1.8134766-9.5996094,8v2H329v13h-14.5996094v37
		H295v-37h-9.5v-13h9.5v-2c0-12.9765625,10.2636719-22,29-22c11.8789062,0,21.6386719,1.4707031,29,4v70h-20V722.5z"/>
</g>
<g>
	<path d="M654.6992188,276v55.5H644.5V276c0-11.7226562,6.8115234-18.5,20-18.5c7.9882812,0,15.109375,1.0712891,21.1992188,3v21
		H704.5v8h-18.8007812v24c0,8.8154297,2.046875,11,7.8007812,11c3.3623047,0,6.1210938-0.5410156,9-1.8007812L704,330.5
		c-3.3779297,1.2128906-8.15625,2-12,2c-11.703125,0-16.5-4.5917969-16.5-17v-26h-11v-8h11v-14.75
		c-4.2041016-0.8945312-7.4248047-1.25-10.9003906-1.25C657.2363281,265.5,654.6992188,268.3798828,654.6992188,276z"/>
	<path d="M655.5996094,427.1660156V481.5h-13.2666016v-54.3339844C642.3330078,415.0253906,650.234375,407.5,665,407.5
		c9.0341797,0,16.7412109,1.2041016,23.0996094,3.3330078V431.5H706v9.6660156h-17.9003906V462.5
		c0,8.0839844,1.8046875,10,6.9003906,10c3.1621094,0,5.9541016-0.5078125,9-1.7011719L705.6660156,480.5
		c-3.9707031,1.2607422-8.8486328,2-13.3330078,2c-12.1845703,0-17.5-4.9677734-17.5-17.6669922v-23.6669922H664V431.5h10.8330078
		v-12.8339844C670.9375,417.8242188,668.1386719,417.5,665.0664062,417.5
		C657.9365234,417.5,655.5996094,420.0234375,655.5996094,427.1660156z"/>
	<path d="M656.5,578.3330078V631.5h-16.3330078v-53.1669922C640.1669922,565.7753906,649.1572266,557.5,665.5,557.5
		c10.0800781,0,18.3730469,1.3378906,25,3.6669922V581.5h17v11.3330078h-17V611.5c0,7.3525391,1.5625,9,6,9
		c2.9628906,0,5.7880859-0.4746094,9-1.6005859L707.3339844,630.5c-4.5664062,1.3085938-9.5429688,2-14.6679688,2
		c-12.6650391,0-18.5-5.3427734-18.5-18.3339844v-21.3330078H663.5V581.5h10.6660156v-10.9160156
		C670.578125,569.7939453,668.2011719,569.5,665.5332031,569.5C658.6367188,569.5,656.5,571.6689453,656.5,578.3330078z"/>
	<path d="M673.5,722.5c-3.2802734-0.7363281-5.2353516-1-7.5-1c-6.6621094,0-8.5996094,1.8134766-8.5996094,8v52H638v-52
		c0-12.9765625,10.0800781-22,28-22c11.1259766,0,20.0048828,1.4707031,26.9003906,4v20H709v13h-16.0996094v16
		c0,6.6210938,1.3203125,8,5.0996094,8c2.7636719,0,5.6220703-0.4414062,9-1.5l2,13.5c-5.1591797,1.3574219-10.234375,2-16,2
		c-13.1464844,0-19.5-5.71875-19.5-19v-19H663v-13h10.5V722.5z"/>
</g>
<g>
	<g>
		<path d="M750.5,741.9003906c-6.0996094,0-7.5,1.1445312-7.5,3.0996094c0,1.8769531,1.2792969,2.8974609,6,3.5
			c16.765625,2.1289062,23,7.9394531,23,17.5c0,9.9023438-8.0019531,16.5-23.5,16.5c-9.1699219,0-16.9511719-1.6054688-24.5-5
			l3.5-13.4003906c5.9765625,3.2402344,12.1474609,4.8007812,19,4.8007812c4.5078125,0,6.5-1.390625,6.5-3.4003906
			c0-1.7265625-0.4746094-2.1289062-6-3c-16.5498047-2.6054688-22.5-8.3867188-22.5-18c0-9.5546875,7.53125-16,24-16
			c7.8417969,0,15.1601562,1.1152344,22.5,3.5l-3.5,13.1992188C760.8964844,742.8105469,756.0058594,741.9003906,750.5,741.9003906z
			"/>
		<path d="M783.5,722.5c-3.2802734-0.7363281-5.2353516-1-7.5-1c-7.6611328,0-9.5996094,1.8125-9.5996094,8v2H748v-2
			c0-12.9765625,10.0800781-22,28-22c11.1259766,0,20.0048828,1.4707031,26.9003906,4v20H819v13h-16.0996094v16
			c0,6.6210938,1.3203125,8,5.0996094,8c2.7636719,0,5.6220703-0.4414062,9-1.5l2,13.5c-5.1591797,1.3574219-10.234375,2-16,2
			c-13.1464844,0-19.5-5.71875-19.5-19v-19H773v-13h10.5V722.5z"/>
	</g>
	<g>
		<path d="M742.25,594.3330078c0,2.5966797,1.6796875,4.0244141,7.5,4.8330078
			c15.9316406,2.1425781,21.8330078,7.7773438,21.8330078,17.3339844c0,9.6728516-7.7333984,16-22.3330078,16
			c-8.6152344,0-16.0078125-1.6230469-23-5l3-11.6005859c5.8476562,3.28125,11.9970703,4.8671875,18.6660156,4.8671875
			c5.2001953,0,7.5996094-1.7607422,7.5996094-4.6005859c0-2.6308594-1.0820312-3.6484375-7.4326172-4.6660156
			c-15.703125-2.5009766-21.5-8.0898438-21.5-17.5c0-9.2451172,7.3066406-15.5,22.6669922-15.5
			c7.4912109,0,14.2197266,1.1591797,21,3.6660156l-3,11.4667969c-6.1367188-2.5117188-11.0322266-3.5332031-16.6669922-3.5332031
			C744.1523438,590.0996094,742.25,591.6679688,742.25,594.3330078z"/>
		<path d="M765.75,578.3330078V581.5h-15.5v-3.1669922C750.25,565.7744141,759.2402344,557.5,775.5830078,557.5
			c10.0800781,0,18.3730469,1.3378906,25,3.6660156V581.5h17v11.3330078h-17V611.5c0,7.3515625,1.5625,9,6,9
			c2.9638672,0,5.7880859-0.4746094,9-1.6005859L817.4160156,630.5c-4.5654297,1.3085938-9.5410156,2-14.6660156,2
			c-12.6660156,0-18.5-5.34375-18.5-18.3339844v-21.3330078h-10.6669922V581.5H784.25v-10.9169922
			C780.6611328,569.7939453,778.2851562,569.5,775.6162109,569.5C767.8886719,569.5,765.75,571.6679688,765.75,578.3330078z"/>
	</g>
	<g>
		<path d="M741.5,443.6669922c0,3.3164062,2.0800781,5.1513672,9,6.1660156
			c15.0966797,2.1572266,20.6669922,7.6152344,20.6669922,17.1669922c0,9.4443359-7.4648438,15.5-21.1669922,15.5
			c-8.0595703,0-15.0644531-1.6396484-21.5-5l2.5-9.8007812c5.7197266,3.3222656,11.8466797,4.9345703,18.3330078,4.9345703
			c5.8925781,0,8.6992188-2.1318359,8.6992188-5.7998047c0-3.5361328-1.6894531-5.1699219-8.8652344-6.3339844
			c-14.8564453-2.3955078-20.5-7.7919922-20.5-17c0-8.9345703,7.0810547-15,21.3330078-15
			c7.140625,0,13.2792969,1.2041016,19.5,3.8330078l-2.5,9.7333984c-5.6708984-2.6337891-10.5693359-3.7666016-16.3339844-3.7666016
			C743.9042969,438.2998047,741.5,440.2919922,741.5,443.6669922z"/>
		<path d="M765.0996094,427.1660156V431.5H752.5v-4.3339844C752.5,415.0263672,760.4013672,407.5,775.1660156,407.5
			c9.0351562,0,16.7421875,1.2041016,23.0996094,3.3339844V431.5h17.9013672v9.6660156H798.265625V462.5
			c0,8.0839844,1.8056641,10,6.9013672,10c3.1630859,0,5.9541016-0.5078125,9-1.7011719L815.8330078,480.5
			c-3.9716797,1.2607422-8.8486328,2-13.3330078,2c-12.1845703,0-17.5-4.9677734-17.5-17.6669922v-23.6669922h-10.8339844V431.5H785
			v-12.8330078C781.1035156,417.8251953,778.3046875,417.5,775.2324219,417.5
			C767.4375,417.5,765.0996094,420.0234375,765.0996094,427.1660156z"/>
	</g>
	<g>
		<path d="M740.75,293c0,4.0371094,2.4804688,6.2792969,10.5,7.5c14.2626953,2.1699219,19.5,7.453125,19.5,17
			c0,9.2148438-7.1953125,15-20,15c-7.5048828,0-14.1210938-1.65625-20-5l2-8c5.5908203,3.3632812,11.6962891,5,18,5
			c6.5839844,0,9.7988281-2.5019531,9.7988281-7c0-4.4394531-2.296875-6.6894531-10.2988281-8
			c-14.0097656-2.2910156-19.5-7.4941406-19.5-16.5c0-8.625,6.8574219-14.5,20-14.5c6.7910156,0,12.3398438,1.2480469,18,4l-2,8
			c-5.2041016-2.7558594-10.1064453-4-16-4C743.65625,286.5,740.75,288.9160156,740.75,293z"/>
		<path d="M764.4492188,276v5.5H754.75V276c0-11.7226562,6.8115234-18.5,20-18.5c7.9882812,0,15.109375,1.0712891,21.1992188,3v21
			H814.75v8h-18.8007812v24c0,8.8154297,2.046875,11,7.8007812,11c3.3623047,0,6.1210938-0.5410156,9-1.8007812L814.25,330.5
			c-3.3779297,1.2128906-8.15625,2-12,2c-11.703125,0-16.5-4.5917969-16.5-17v-26h-11v-8h11v-14.75
			c-4.2041016-0.8945312-7.4248047-1.25-10.9003906-1.25C766.9873047,265.5,764.4492188,268.3798828,764.4492188,276z"/>
	</g>
</g>
<g>
	<g>
		<path d="M214.4003906,781.5H195v-52c0-14.3378906,7.9863281-22,22-22c4.6933594,0,8.8007812,0.4511719,13.5,1.5l-2.5,14
			c-2.40625-0.9863281-4.9746094-1.5-7.5-1.5c-4.6152344,0-6.0996094,1.6591797-6.0996094,8V781.5z"/>
		<path d="M185.5,744.5c17.828125,0,33.6699219-0.3935547,47.5-1v38h20v-52c-17.1347656,1.2197266-39.828125,2-67.5,2V744.5z"/>
		<rect x="233" y="706.5" width="20" height="14"/>
	</g>
	<g>
		<path d="M197.1660156,578.3330078c0-13.6376953,7.3613281-20.8330078,20.6669922-20.8330078
			c4.3671875,0,8.0175781,0.4375,12.3334961,1.5l-2.3334961,12c-2.3564453-0.9863281-4.878418-1.5-7.3334961-1.5
			c-5.2319336,0-7,1.9912109-7,8.8330078V631.5h-16.3334961V578.3330078z"/>
		<path d="M187.5,592.8330078c17.4892578,0,32.9033203-0.421875,46.1333008-1.0830078v39.75H250.5v-52
			c-15.9916992,1.234375-37.1772461,2-63,2V592.8330078z"/>
		<rect x="233.6333008" y="556.5" width="16.8666992" height="13"/>
	</g>
	<g>
		<path d="M199.3330078,427.1660156c0-12.9375,6.7363281-19.6660156,19.3339844-19.6660156
			c4.0410156,0,7.234375,0.4248047,11.1660156,1.5l-2.1660156,10c-2.3076172-0.9863281-4.7822266-1.5-7.1669922-1.5
			c-5.8496094,0-7.9003906,2.3232422-7.9003906,9.6660156V481.5h-13.2666016V427.1660156z"/>
		<path d="M189.5,441.1660156c17.1508789,0,32.1376953-0.4492188,44.7670898-1.1660156v41.5H248v-52
			c-14.8481445,1.25-34.5258789,2-58.5,2V441.1660156z"/>
		<rect x="234.2670898" y="406.5" width="13.7329102" height="12"/>
	</g>
	<g>
		<path d="M201.5,276c0-12.2382812,6.1113281-18.5,18-18.5c3.7148438,0,6.4511719,0.4121094,10,1.5l-2,8
			c-2.2578125-0.9863281-4.6855469-1.5-7-1.5c-6.4667969,0-8.8007812,2.6552734-8.8007812,10.5v55.5H201.5V276z"/>
		<path d="M191.5,281.5v8c16.8125,0,31.3710938-0.4785156,43.4003906-1.25v43.25H245.5v-52
			C231.7949219,280.765625,213.625,281.5,191.5,281.5z"/>
		<rect x="234.9003906" y="256.5" width="10.5996094" height="11"/>
	</g>
</g>
<g>
	<g>
		<path d="M409.5,729.5c0-6.3398438,1.484375-8,5.0996094-8c2.5253906,0,5.09375,0.5136719,7.5,1.5L425,709
			c-4.6992188-1.0488281-8.8066406-1.5-13.5-1.5c-13.0136719,0-21,7.6601562-21,22v52h19V729.5z"/>
		<path d="M445.5,729.5c0-6.3398438,1.484375-8,5.0996094-8c2.5253906,0,5.09375,0.5136719,7.5,1.5L461,709
			c-4.6992188-1.0488281-8.4316406-1.5-13.125-1.5c-14.0136719,0-21.375,7.6621094-21.375,22v52h19V729.5z"/>
		<path d="M382.5,744.5c30.0253906,0,56.7070312-0.3935547,80-1v38h19v-52c-25.1308594,1.2197266-58.4140625,2-99,2V744.5z"/>
		<rect x="462.5" y="706.5" width="19" height="14"/>
	</g>
	<g>
		<path d="M409.1660156,578.3330078c0-6.8408203,1.7680664-8.8330078,6.3334961-8.8330078
			c2.4550781,0,4.9770508,0.5136719,7.3334961,1.5l2.6005859-12c-4.315918-1.0625-7.9667969-1.5-12.3339844-1.5
			c-12.6386719,0-20,7.1933594-20,20.8330078V631.5h16.0664062V578.3330078z"/>
		<path d="M443.7988281,578.3330078c0-6.8408203,1.7685547-8.8330078,6.3339844-8.8330078
			c2.4550781,0,4.9765625,0.5136719,7.3330078,1.5l2.6005859-12c-4.3164062-1.0625-7.7158203-1.5-12.0839844-1.5
			c-13.3046875,0-20.25,7.1953125-20.25,20.8330078V631.5h16.0664062V578.3330078z"/>
		<path d="M462.3671875,591.75v39.75h16.1992188v-52c-23.8945312,1.234375-55.5488281,2-94.1337891,2v11.3330078
			C413.9794922,592.8330078,440.0185547,592.4111328,462.3671875,591.75z"/>
		<rect x="462.3671875" y="556.5" width="16.1992188" height="13"/>
	</g>
	<g>
		<path d="M408.8330078,427.1660156c0-7.3417969,2.0512695-9.6660156,7.5668945-9.6660156
			c2.3847656,0,4.8598633,0.5136719,7.1665039,1.5l2.3007812-10c-3.9321289-1.0751953-7.1269531-1.5-11.1674805-1.5
			c-12.2636719,0-19,6.7275391-19,19.6660156V481.5h13.1333008V427.1660156z"/>
		<path d="M442.0986328,427.1660156c0-7.3417969,2.0517578-9.6660156,7.5673828-9.6660156
			c2.3847656,0,4.8603516,0.5136719,7.1660156,1.5l2.3007812-10c-3.9316406-1.0751953-7-1.5-11.0410156-1.5
			c-12.5966797,0-19.125,6.7285156-19.125,19.6660156V481.5h13.1318359V427.1660156z"/>
		<path d="M462.234375,440v41.5h13.3984375v-52c-22.6572266,1.25-52.6845703,2-89.2666016,2v9.6660156
			C415.4335938,441.1660156,440.8310547,440.7167969,462.234375,440z"/>
		<rect x="462.234375" y="406.5" width="13.3984375" height="12"/>
	</g>
	<g>
		<path d="M408.4990234,276c0-7.8447266,2.3349609-10.5,8.8007812-10.5c2.3144531,0,4.7431641,0.5136719,7,1.5l2-8
			c-3.5478516-1.0878906-6.2861328-1.5-10-1.5c-11.8886719,0-18,6.2617188-18,18.5v55.5h10.1992188V276z"/>
		<path d="M440.3984375,276c0-7.8447266,2.3349609-10.5,8.8007812-10.5c2.3144531,0,4.7431641,0.5136719,7,1.5l2-8
			c-3.5488281-1.0878906-6.2841797-1.5-10-1.5c-11.8876953,0-18,6.2617188-18,18.5v55.5h10.1992188V276z"/>
		<path d="M462.1005859,288.25v43.25h10.5986328v-52c-21.4208984,1.265625-49.8193359,2-84.3994141,2v8
			C416.8876953,289.5,441.6435547,289.0214844,462.1005859,288.25z"/>
		<rect x="462.1005859" y="256.5" width="10.5986328" height="11"/>
	</g>
</g>
<path d="M105.8657227,137.4995117v44h-7.4663086v-44H88.065918V131.5h10.3334961v-6.6669922
	c0-11.6171875,5.5136719-17.3330078,16.6669922-17.3330078c3.3886719,0,6.1582031,0.4506836,9.3330078,1.5l-1.5805664,5.9511719
	c-2.2358398-0.9487305-4.7138672-1.4516602-7.0859375-1.4516602c-7.1523438,0-9.8671875,3.0249023-9.8671875,11.3334961V131.5
	h23.6337891v-6.6669922c0-11.6171875,5.5131836-17.3330078,16.6665039-17.3330078c3.3886719,0,6.1586914,0.4506836,9.3339844,1.5
	l-1.5805664,5.9511719c-2.2368164-0.9487305-4.7138672-1.4516602-7.0864258-1.4516602
	c-7.1523438,0-9.8671875,3.0249023-9.8671875,11.3334961V131.5h17.8671875v5.9995117h-17.8671875v44h-7.4663086v-44H105.8657227z"/>
<path d="M104.4331055-14.5v46h-4.7329102v-46H89.0332031v-4h10.6669922v-7.8334961
	c0-10.9960938,4.9150391-16.1665039,15.3330078-16.1665039c3.0625,0,5.8662109,0.4902344,8.6665039,1.5l-1.1606445,3.9038086
	C120.3242188-38.0083008,117.796875-38.5,115.3666992-38.5c-7.8378906,0-10.9335938,3.3950195-10.9335938,12.1665039V-18.5H130
	v-7.8334961C130-37.3295898,134.9155273-42.5,145.3334961-42.5c3.0625,0,5.8657227,0.4902344,8.6665039,1.5l-1.1606445,3.9038086
	C150.6245117-38.0083008,148.097168-38.5,145.6669922-38.5c-7.8383789,0-10.9335938,3.3950195-10.9335938,12.1665039V-18.5
	h18.9331055v4h-18.9331055v46H130v-46H104.4331055z"/>
<path d="M103-166.5v48h-2v-48H90v-2h11v-9c0-10.375,4.3173828-15,14-15c2.7363281,0,5.5732422,0.5292969,8,1.5l-0.7412109,1.8554688
	C120.0654297-190.0195312,117.4882812-190.5,115-190.5c-8.5234375,0-12,3.765625-12,13v9h27.5v-9c0-10.375,4.3173828-15,14-15
	c2.7363281,0,5.5732422,0.5292969,8,1.5l-0.7412109,1.8554688C149.5654297-190.0195312,146.9882812-190.5,144.5-190.5
	c-8.5234375,0-12,3.765625-12,13v9h20v2h-20v48h-2v-48H103z"/>
<path d="M589.5-190.5v72h-2v-70.3935547C582.53125-189.9560547,577.6591797-190.5,573-190.5c-8.5234375,0-12,3.765625-12,13v9h17.5
	v2H561v48h-2v-48h-26.5v48h-2v-48h-11v-2h11v-9c0-10.375,4.3173828-15,14-15c2.7363281,0,5.5732422,0.5292969,8,1.5
	l-0.7412109,1.8554688C549.5654297-190.0195312,546.9882812-190.5,544.5-190.5c-8.5234375,0-12,3.765625-12,13v9H559v-9
	c0-10.375,4.3173828-15,14-15C578.3125-192.5,583.8417969-191.828125,589.5-190.5z"/>
<path d="M573.8994141-38.5004883c-8.2431641,0-11.4335938,3.4707031-11.4335938,12.1669922V-18.5h16.734375v3.9995117h-16.734375v46
	h-4.7324219v-46h-24.9003906v46h-4.7333984v-46h-10.6669922V-18.5h10.6669922v-7.8334961
	c0-10.996582,4.9150391-16.1665039,15.3330078-16.1665039c3.0625,0,5.8671875,0.4897461,8.6669922,1.5l-1.1611328,3.9033203
	c-2.2138672-0.9121094-4.7412109-1.4038086-7.171875-1.4038086c-7.8378906,0-10.9335938,3.3955078-10.9335938,12.1669922V-18.5
	h24.9003906v-7.8334961c0-10.809082,5.1630859-16.1665039,16.1660156-16.1665039
	c6.2890625,0,12.4667969,0.8046875,18.3330078,2.3330078v71.6665039h-4.8652344v-68.512207
	C582.5927734-38.019043,578.2148438-38.5004883,573.8994141-38.5004883z"/>
<path d="M574.7998047,113.5c-7.9628906,0-10.8671875,3.175293-10.8671875,11.3334961V131.5h15.9677734v6h-15.9677734v44h-7.4667969
	v-44h-23.2998047v44h-7.4658203v-44h-10.3339844v-6h10.3339844v-6.6665039c0-11.6171875,5.5126953-17.3334961,16.6660156-17.3334961
	c3.3886719,0,6.1591797,0.4511719,9.3339844,1.5l-1.5810547,5.9516602C547.8837891,114.0024414,545.4052734,113.5,543.0332031,113.5
	c-7.1513672,0-9.8671875,3.0249023-9.8671875,11.3334961V131.5h23.2998047v-6.6665039
	c0-11.2421875,6.0097656-17.3334961,18.3339844-17.3334961c7.2636719,0,14.0917969,0.9379883,20.1660156,2.6665039V181.5h-7.7324219
	v-66.6308594C582.6533203,113.918457,578.7705078,113.5,574.7998047,113.5z"/>
<path d="M679.5-166.5v34c0,11.0361328,3.0136719,13,11.5,13c2.6796875,0,6.0244141-0.5566406,8.3232422-1.3828125L700-119
	c-2.5234375,0.9082031-6.1279297,1.5-9,1.5c-10.3457031,0-13.5-3.5058594-13.5-15v-34H665v-2h12.5v-20.3994141
	C672.8261719-189.90625,667.703125-190.5,663.5-190.5c-7.8125,0-11,3.7666016-11,13v59h-2v-59c0-10.375,4.0859375-15,13-15
	c4.6796875,0,10.6074219,0.7021484,16,2v22H701v2H679.5z"/>
<path d="M681.5664062-14.5004883v30.6669922c0,10.2958984,2.6914062,12.3334961,10.2666016,12.3334961
	c2.9072266,0,6.0566406-0.5517578,8.5488281-1.5224609l0.9511719,3.855957c-2.8085938,1.0097656-6.8037109,1.6665039-10,1.6665039
	c-10.7978516,0-14.5-3.8681641-14.5-15.6665039v-31.3339844h-12V-18.5h12v-18.5166016
	c-4.5175781-0.9692383-9.0058594-1.4838867-12.9667969-1.4838867c-7.6630859,0-10.6337891,3.4711914-10.6337891,12.1669922
	v57.8330078H648.5v-57.8330078C648.5-37.1582031,653.4941406-42.5,663.8330078-42.5
	c5.7822266,0,12.1083984,0.824707,17.7333984,2.3330078V-18.5h20.5996094v3.9995117H681.5664062z"/>
<path d="M683.6328125,137.5v27.3334961c0,9.5556641,2.3691406,11.6665039,9.0341797,11.6665039
	c3.1347656,0,6.0888672-0.5463867,8.7744141-1.6616211l1.2255859,5.828125c-3.09375,1.1113281-7.4804688,1.8334961-11,1.8334961
	c-11.2509766,0-15.5-4.2299805-15.5-16.3334961V137.5h-11.5v-6h11.5v-16.6328125
	C671.8056641,113.9350586,667.9511719,113.5,664.2333984,113.5c-7.5136719,0-10.2675781,3.175293-10.2675781,11.3334961V181.5H646.5
	v-56.6665039C646.5,113.5600586,652.4033203,107.5,664.1669922,107.5c6.8847656,0,13.6083984,0.9482422,19.4658203,2.6665039V131.5
	h19.7001953v6H683.6328125z"/>
<path d="M794.1328125,137.4995117v27.3334961c0,9.5556641,2.3691406,11.6665039,9.0332031,11.6665039
	c3.1357422,0,6.0888672-0.5463867,8.7744141-1.6616211l1.2255859,5.8286133c-3.0927734,1.1113281-7.4794922,1.8334961-11,1.8334961
	c-11.25,0-15.5-4.2304688-15.5-16.3334961v-28.6669922h-11.5V131.5h11.5v-16.6333008
	c-4.3603516-0.9321289-8.2148438-1.3671875-11.9335938-1.3671875c-7.8447266,0-10.5996094,3.175293-10.5996094,11.3334961v5.6762695
	c1.6210938,0.5473633,3.234375,1.1992188,4.8671875,1.9902344l-1.6220703,5.934082
	c-5.2919922-2.7133789-10.21875-3.934082-16.0449219-3.934082c-7.8681641,0-11.8330078,3.0498047-11.8330078,8
	c0,4.4892578,2.5429688,7.3530273,12.2294922,9.0063477c13.7861328,2.2705078,19.1035156,7.2861328,19.1035156,16.3271484
	c0,9.0214844-7.1601562,14.6669922-19.5,14.6669922c-7.1123047,0-13.3251953-1.6044922-19.1660156-5.0004883l1.6787109-5.9038086
	c5.5166016,3.328125,11.2783203,4.9038086,17.4873047,4.9038086c7.7822266,0,12.0322266-3.2001953,12.0322266-8.6665039
	c0-5.2807617-3.1425781-8.0380859-12.4287109-9.6733398c-13.4375-2.3193359-18.7695312-7.1386719-18.7695312-15.6601562
	c0-8.3823242,6.8603516-13.9995117,19.1660156-13.9995117c1.9755859,0,3.8476562,0.1289062,5.6669922,0.3652344v-4.0322266
	C757,113.5595703,762.9033203,107.5,774.6660156,107.5c6.8857422,0,13.609375,0.9477539,19.4667969,2.6665039V131.5h19.7001953
	v5.9995117H794.1328125z"/>
<path d="M766.1826172,18.1669922c0-6.1220703-3.9892578-9.3862305-14.5585938-11.3466797
	C738.7568359,4.472168,733.5830078,0.0371094,733.5830078-8c0-8.1401367,6.8652344-13.5,18.3339844-13.5
	c2.5605469,0,4.9736328,0.2207031,7.3330078,0.6586914v-5.4921875C759.25-37.1577148,764.2441406-42.5,774.5830078-42.5
	c5.7832031,0,12.1083984,0.8251953,17.7333984,2.3334961V-18.5h20.6005859v4h-20.6005859v30.6665039
	c0,10.2958984,2.6914062,12.3334961,10.2666016,12.3334961c2.9072266,0,6.0566406-0.5512695,8.5488281-1.5219727
	l0.9511719,3.8554688c-2.8076172,1.0097656-6.8037109,1.6665039-10,1.6665039c-10.7978516,0-14.5-3.8676758-14.5-15.6665039V-14.5
	h-12v-4h12v-18.5161133C783.0664062-37.9853516,778.5771484-38.5,774.6162109-38.5
	c-7.8291016,0-10.7998047,3.4711914-10.7998047,12.1665039v6.6538086C765.6142578-19.0991211,767.4111328-18.3876953,769.25-17.5
	l-1.2451172,3.8681641C762.6269531-16.3027344,757.6757812-17.5,751.9169922-17.5C743.2744141-17.5,738.25-13.8168945,738.25-8
	c0,4.940918,2.6054688,8.4262695,13.9589844,10.512207c13.3105469,2.371582,18.7080078,7.1191406,18.7080078,15.6547852
	c0,8.8276367-7.125,14.3330078-19,14.3330078c-6.7207031,0-12.5292969-1.5522461-18.3339844-5l1.3583984-3.8071289
	C740.3828125,26.9858398,745.8027344,28.5,751.9169922,28.5C760.8964844,28.5,766.1826172,24.6010742,766.1826172,18.1669922z"/>
<path d="M769-131.5c0-6.9628906-4.8359375-10.734375-16.6894531-13.0195312C740.015625-146.8964844,735-150.9472656,735-158.5
	c0-7.8974609,6.8691406-13,17.5-13c3.1240234,0,6.0654297,0.3461914,9,1.0727539V-177.5c0-10.375,4.0859375-15,13-15
	c4.6796875,0,10.6074219,0.7021484,16,2v22H812v2h-21.5v34c0,11.0361328,3.0136719,13,11.5,13
	c2.6796875,0,6.0244141-0.5566406,8.3232422-1.3828125L811-119c-2.5234375,0.9082031-6.1279297,1.5-9,1.5
	c-10.3457031,0-13.5-3.5058594-13.5-15v-34H776v-2h12.5v-20.3994141C783.8261719-189.90625,778.703125-190.5,774.5-190.5
	c-7.8125,0-11,3.7666016-11,13v7.6274414c1.9677734,0.6074219,3.9492188,1.3857422,6,2.3725586l-0.8671875,1.8017578
	C763.1679688-168.3261719,758.1923828-169.5,752.5-169.5c-9.4160156,0-15.5,4.3164062-15.5,11
	c0,5.3925781,2.6679688,9.5,15.6884766,12.0185547C765.5234375-144.0097656,771-139.5292969,771-131.5
	c0,8.6347656-7.0888672,14-18.5,14c-6.328125,0-11.7324219-1.5-17.5-5l1.0371094-1.7109375
	C741.4042969-120.953125,746.4804688-119.5,752.5-119.5C762.6777344-119.5,769-124.0976562,769-131.5z"/>
<path d="M210.9658203,131.2973633c12.6796875-0.3007812,23.5263672-0.925293,32.3671875-1.7973633v51.9995117h-7.7329102
	v-45.4233398c-7.2583008,0.5571289-15.5200195,0.9692383-24.6342773,1.2026367v44.2207031H203.5v-44.0737305
	c-3.3486328,0.0478516-6.7910156,0.0737305-10.3334961,0.0737305V131.5c3.5576172,0,6.9980469-0.0239258,10.3334961-0.0673828
	v-6.5996094C203.5,113.2158203,209.0131836,107.5,220.1665039,107.5c3.3886719,0,6.1586914,0.4506836,9.3330078,1.5
	l-1.5800781,5.9511719c-2.2363281-0.9487305-4.7143555-1.4516602-7.0864258-1.4516602
	c-7.1523438,0-9.8671875,3.0258789-9.8671875,11.3334961V131.2973633z"/>
<rect x="235.6000977" y="106.4995117" width="7.7329102" height="11.0004883"/>
<path d="M205.5-14.5898438C202.0424805-14.53125,198.4863281-14.5,194.8330078-14.5v-4
	c3.6850586,0,7.2392578-0.0292969,10.6669922-0.0839844v-7.7490234C205.5-37.3295898,210.4155273-42.5,220.8334961-42.5
	c3.0625,0,5.8657227,0.4902344,8.6665039,1.5l-1.1611328,3.9033203C226.1245117-38.0087891,223.5966797-38.5,221.1669922-38.5
	c-7.8383789,0-10.9335938,3.3955078-10.9335938,12.1669922v7.652832C222.3867188-18.972168,232.7626953-19.609375,241.1669922-20.5
	v52h-4.8671875v-47.5976562c-7.5893555,0.684082-16.3754883,1.1621094-26.0664062,1.4077148V31.5H205.5V-14.5898438z"/>
<rect x="236.2998047" y="-43.5" width="4.8671875" height="11"/>
<path d="M207.5-166.6088867c-3.565918,0.0717773-7.237793,0.1088867-11,0.1088867v-2c3.8193359,0,7.4814453-0.0390625,11-0.109375
	V-177.5c0-10.375,4.3173828-15,14-15c2.7363281,0,5.5732422,0.5292969,8,1.5l-0.7412109,1.8554688
	C226.5654297-190.0195312,223.9882812-190.5,221.5-190.5c-8.5234375,0-12,3.765625-12,13v8.8476562
	c11.6333008-0.2802734,21.5317383-0.934082,29.5-1.8476562v52h-2v-49.7714844
	c-7.9125977,0.8237305-17.2382812,1.3691406-27.5,1.6171875V-118.5h-2V-166.6088867z"/>
<rect x="237" y="-193.5" width="2" height="11"/>
<path d="M307.5-166.5h-11v-2h11v-9c0-10.375,4.3173828-15,14-15c5.0830078,0,11.6425781,0.7021484,17.5,2v72h-2v-70.3710938
	C331.8652344-189.8945312,326.1875-190.5,321.5-190.5c-8.5234375,0-12,3.765625-12,13v9H328v2h-18.5v48h-2V-166.5z"/>
<path d="M305.4995117-14.5004883h-10.6665039V-18.5h10.6665039v-7.8334961c0-10.824707,5.2670898-16.1665039,16.4169922-16.1665039
	c6.2324219,0,13.1767578,0.824707,19.2495117,2.3330078v71.6665039h-4.8662109v-68.4975586
	c-4.9858398-0.9799805-9.9663086-1.5024414-14.3833008-1.5024414c-8.4199219,0-11.6835938,3.4707031-11.6835938,12.1669922V-18.5
	h17.9003906v3.9995117h-17.9003906v46h-4.7333984V-14.5004883z"/>
<path d="M322.3334961,107.5c7.3818359,0,14.7114258,0.9482422,21,2.6665039V181.5h-7.7329102v-66.6235352
	c-4.8374023-0.9375-9.1201172-1.3764648-13.2670898-1.3764648c-8.3164062,0-11.3671875,3.175293-11.3671875,11.3334961V131.5
	h17.3007812v6h-17.3007812v44H303.5v-44h-10.3330078v-6H303.5v-6.6665039C303.5,113.5600586,309.7163086,107.5,322.3334961,107.5z"
	/>
<path d="M438.9316406,130.8569336c11.6152344-0.3359375,21.9902344-0.7949219,31.0341797-1.3569336v51.9995117h-7.7324219
	v-45.4536133c-7.1884766,0.3339844-14.9785156,0.6162109-23.3017578,0.8413086v44.6123047h-7.4658203v-44.4301758
	c-7.3925781,0.1630859-15.1689453,0.2822266-23.2998047,0.3525391v44.0776367h-7.4667969v-44.0253906
	c-3.3886719,0.0166016-6.8330078,0.0253906-10.3330078,0.0253906V131.5c3.5166016,0,6.9521484-0.0102539,10.3330078-0.0273438
	v-6.6396484c0-11.6171875,5.5136719-17.3330078,16.6669922-17.3330078c3.3881836,0,6.1591797,0.4506836,9.3330078,1.5
	l-1.5800781,5.9511719c-2.2353516-0.9487305-4.7138672-1.4516602-7.0859375-1.4516602
	c-7.1518555,0-9.8671875,3.0258789-9.8671875,11.3334961v6.5893555c8.2119141-0.0737305,15.9736328-0.199707,23.2998047-0.3710938
	v-6.2182617c0-11.6171875,5.5146484-17.3330078,16.6669922-17.3330078c3.3886719,0,6.1582031,0.4506836,9.3330078,1.5
	l-1.5810547,5.9511719c-2.234375-0.9487305-4.7128906-1.4516602-7.0859375-1.4516602
	c-7.1513672,0-9.8671875,3.0258789-9.8671875,11.3334961V130.8569336z"/>
<rect x="462.2333984" y="106.4995117" width="7.7324219" height="11.0004883"/>
<path d="M403.0996094-14.5322266c-3.5,0.0209961-7.0537109,0.0322266-10.6665039,0.0322266v-4
	c3.6342773,0,7.1865234-0.0112305,10.6665039-0.0322266v-7.8007812c0-10.996582,4.9160156-16.1669922,15.3339844-16.1669922
	c3.0620117,0,5.8662109,0.4902344,8.6660156,1.5l-1.1601562,3.9033203C423.7246094-38.0087891,421.1972656-38.5,418.7666016-38.5
	c-7.8378906,0-10.9335938,3.3955078-10.9335938,12.1669922v7.7651367
	c8.8354492-0.0776367,17.1416016-0.2226562,24.9003906-0.4272461v-7.3378906
	c0-10.996582,4.9150391-16.1669922,15.3330078-16.1669922c3.0625,0,5.8662109,0.4902344,8.6660156,1.5l-1.1601562,3.9033203
	C453.3574219-38.0087891,450.8300781-38.5,448.4003906-38.5c-7.8378906,0-10.9335938,3.3955078-10.9335938,12.1669922v7.2041016
	c11.1572266-0.3388672,21.1132812-0.8027344,29.7666016-1.3710938v52h-4.8662109v-47.6572266
	c-7.5927734,0.4233398-15.9345703,0.7700195-24.9003906,1.0361328V31.5h-4.7333984v-46.4902344
	c-7.8720703,0.203125-16.1904297,0.3461914-24.9003906,0.4228516V31.5h-4.7333984V-14.5322266z"/>
<rect x="462.3671875" y="-43.5" width="4.8662109" height="11"/>
<path d="M405.5-166.5410156c-3.6113281,0.0263672-7.2753906,0.0410156-11,0.0410156v-2
	c3.7558594,0,7.4199219-0.0136719,11-0.0395508V-177.5c0-10.375,4.3173828-15,14-15c2.7363281,0,5.5732422,0.5292969,8,1.5
	l-0.7412109,1.8554688C424.5654297-190.0195312,421.9882812-190.5,419.5-190.5c-8.5234375,0-12,3.765625-12,13v8.9433594
	c9.4765625-0.0805664,18.3271484-0.2480469,26.5-0.4926758V-177.5c0-10.375,4.3173828-15,14-15
	c2.7363281,0,5.5732422,0.5292969,8,1.5l-0.7412109,1.8554688C453.0654297-190.0195312,450.4882812-190.5,448-190.5
	c-8.5234375,0-12,3.765625-12,13v8.387207c10.7011719-0.3408203,20.2363281-0.8120117,28.5-1.387207v52h-2v-49.8613281
	c-7.9804688,0.5249023-16.8789062,0.9423828-26.5,1.2480469V-118.5h-2v-48.5527344
	c-8.3466797,0.2495117-17.2167969,0.4160156-26.5,0.4960938V-118.5h-2V-166.5410156z"/>
<rect x="462.5" y="-193.5" width="2" height="11"/>
<g>
	<path d="M957.2988281,289.5v42h-10.1992188v-42h-10v-8h10V276c0-12.2382812,6.1113281-18.5,18-18.5
		c3.7148438,0,6.4511719,0.4121094,10,1.5l-2,8c-2.2578125-0.9863281-4.6855469-1.5-7-1.5
		c-6.4667969,0-8.8007812,2.6542969-8.8007812,10.5v5.5H979V276c0-12.2382812,6.1113281-18.5,18-18.5
		c3.7148438,0,6.4511719,0.4121094,10,1.5l-2,8c-2.2578125-0.9863281-4.6855469-1.5-7-1.5
		c-6.4667969,0-8.8007812,2.6542969-8.8007812,10.5v5.5H1006v8h-16.8007812v42H979v-42H957.2988281z"/>
	<path d="M955.8652344,137.4995117v44h-7.4658203v-44h-10.3330078V131.5h10.3330078v-6.6669922
		c0-11.6171875,5.5136719-17.3330078,16.6669922-17.3330078c3.3886719,0,6.1582031,0.4506836,9.3330078,1.5l-1.5800781,5.9511719
		c-2.2363281-0.9487305-4.7138672-1.4516602-7.0869141-1.4516602c-7.1523438,0-9.8671875,3.0249023-9.8671875,11.3334961V131.5
		H979.5v-6.6669922C979.5,113.2158203,985.0136719,107.5,996.1660156,107.5c3.3886719,0,6.1591797,0.4506836,9.3339844,1.5
		l-1.5810547,5.9511719c-2.2353516-0.9487305-4.7138672-1.4516602-7.0859375-1.4516602
		c-7.1523438,0-9.8671875,3.0249023-9.8671875,11.3334961V131.5h17.8671875v5.9995117h-17.8671875v44H979.5v-44H955.8652344z"/>
	<path d="M954.4326172-14.5v46h-4.7333984v-46h-10.6660156v-4h10.6660156v-7.8330078
		c0-10.996582,4.9160156-16.1669922,15.3339844-16.1669922c3.0625,0,5.8652344,0.4902344,8.6669922,1.5l-1.1611328,3.9033203
		C970.3242188-38.0087891,967.796875-38.5,965.3662109-38.5c-7.8369141,0-10.9335938,3.3955078-10.9335938,12.1669922V-18.5H980
		v-7.8330078C980-37.3295898,984.9150391-42.5,995.3330078-42.5c3.0625,0,5.8662109,0.4902344,8.6669922,1.5l-1.1611328,3.9033203
		C1000.6240234-38.0087891,998.0976562-38.5,995.6660156-38.5c-7.8369141,0-10.9335938,3.3955078-10.9335938,12.1669922V-18.5
		h18.9345703v4h-18.9345703v46H980v-46H954.4326172z"/>
	<path d="M953-166.5v48h-2v-48h-11v-2h11v-9c0-10.375,4.3173828-15,14-15c2.7363281,0,5.5732422,0.5292969,8,1.5
		l-0.7412109,1.8554688C970.0654297-190.0195312,967.4882812-190.5,965-190.5c-8.5234375,0-12,3.765625-12,13v9h27.5v-9
		c0-10.375,4.3173828-15,14-15c2.7363281,0,5.5732422,0.5292969,8,1.5l-0.7412109,1.8554688
		C999.5654297-190.0195312,996.9882812-190.5,994.5-190.5c-8.5234375,0-12,3.765625-12,13v9h20v2h-20v48h-2v-48H953z"/>
</g>
<g>
	<path d="M1439.5-190.5v72h-2v-70.3935547c-4.96875-1.0625-9.8408203-1.6064453-14.5-1.6064453c-8.5234375,0-12,3.765625-12,13v9
		h17.5v2H1411v48h-2v-48h-26.5v48h-2v-48h-11v-2h11v-9c0-10.375,4.3173828-15,14-15c2.7363281,0,5.5732422,0.5292969,8,1.5
		l-0.7412109,1.8554688c-2.1933594-0.875-4.7705078-1.3554688-7.2587891-1.3554688c-8.5234375,0-12,3.765625-12,13v9h26.5v-9
		c0-10.375,4.3173828-15,14-15C1428.3125-192.5,1433.8417969-191.828125,1439.5-190.5z"/>
	<path d="M1423.8994141-38.5004883c-8.2431641,0-11.4335938,3.4707031-11.4335938,12.1669922V-18.5h16.734375v3.9995117h-16.734375
		v46h-4.7333984v-46h-24.8994141v46h-4.7333984v-46h-10.6669922V-18.5h10.6669922v-7.8334961
		c0-10.996582,4.9160156-16.1665039,15.3339844-16.1665039c3.0615234,0,5.8652344,0.4897461,8.6660156,1.5l-1.1611328,3.9033203
		c-2.2138672-0.9121094-4.7412109-1.4038086-7.171875-1.4038086c-7.8378906,0-10.9335938,3.3955078-10.9335938,12.1669922V-18.5
		h24.8994141v-7.8334961c0-10.809082,5.1640625-16.1665039,16.1669922-16.1665039
		c6.2880859,0,12.4667969,0.8046875,18.3330078,2.3330078v71.6665039h-4.8652344v-68.512207
		C1432.5917969-38.019043,1428.2148438-38.5004883,1423.8994141-38.5004883z"/>
	<path d="M1424.7998047,113.5c-7.9628906,0-10.8671875,3.1748047-10.8671875,11.3330078V131.5h15.9677734v6h-15.9677734v44
		h-7.4658203v-44h-23.3007812v44h-7.4667969v-44h-10.3330078v-6h10.3330078v-6.6669922
		c0-11.6171875,5.5136719-17.3330078,16.6669922-17.3330078c3.3886719,0,6.1591797,0.4511719,9.3339844,1.5l-1.5810547,5.9516602
		c-2.2353516-0.9487305-4.7128906-1.4516602-7.0859375-1.4516602c-7.1513672,0-9.8671875,3.0244141-9.8671875,11.3330078V131.5
		h23.3007812v-6.6669922c0-11.2421875,6.0087891-17.3330078,18.3330078-17.3330078
		c7.2646484,0,14.0917969,0.9379883,20.1660156,2.6669922V181.5h-7.7314453v-66.6308594
		C1432.6542969,113.918457,1428.7705078,113.5,1424.7998047,113.5z"/>
	<path d="M1425.6992188,265.5c-7.6816406,0-10.3007812,2.8798828-10.3007812,10.5v5.5h15.2021484v8h-15.2021484v42h-10.1992188v-42
		h-21.7001953v42h-10.1992188v-42h-10v-8h10V276c0-12.2382812,6.1113281-18.5,18-18.5c3.7138672,0,6.4521484,0.4121094,10,1.5l-2,8
		c-2.2568359-0.9863281-4.6855469-1.5-7-1.5c-6.4658203,0-8.8007812,2.6542969-8.8007812,10.5v5.5h21.7001953V276
		c0-11.6757812,6.8554688-18.5,20.5-18.5c8.2402344,0,15.7177734,1.0712891,22,3v71h-10.5986328v-64.75
		C1432.7148438,265.8554688,1429.3261719,265.5,1425.6992188,265.5z"/>
</g>
<g>
	<path d="M1189-190.5v72h-2v-70.3710938c-5.1347656-1.0234375-10.8125-1.6289062-15.5-1.6289062c-8.5234375,0-12,3.765625-12,13v9
		h18.5v2h-18.5v48h-2v-48h-11v-2h11v-9c0-10.375,4.3173828-15,14-15C1176.5830078-192.5,1183.1425781-191.7978516,1189-190.5z"/>
	<path d="M1186.2998047-36.9980469c-4.9863281-0.9799805-9.9658203-1.5024414-14.3837891-1.5024414
		c-8.4199219,0-11.6835938,3.4707031-11.6835938,12.1669922V-18.5h17.9003906v3.9995117h-17.9003906v46H1155.5v-46h-10.6669922
		V-18.5H1155.5v-7.8334961C1155.5-37.1582031,1160.7666016-42.5,1171.9160156-42.5c6.2324219,0,13.1777344,0.824707,19.25,2.3330078
		v71.6665039h-4.8662109V-36.9980469z"/>
	<path d="M1185.5996094,114.8759766c-4.8369141-0.9370117-9.1191406-1.3759766-13.2666016-1.3759766
		c-8.3154297,0-11.3671875,3.1748047-11.3671875,11.3330078V131.5h17.3017578v6h-17.3017578v44H1153.5v-44h-10.3339844v-6H1153.5
		v-6.6669922c0-11.2734375,6.2167969-17.3330078,18.8330078-17.3330078c7.3818359,0,14.7119141,0.9482422,21,2.6669922V181.5
		h-7.7333984V114.8759766z"/>
	<path d="M1184.9003906,266.75c-4.6884766-0.8945312-8.2734375-1.25-12.1503906-1.25
		c-8.2128906,0-11.0507812,2.8798828-11.0507812,10.5v5.5h16.7011719v8h-16.7011719v42H1151.5v-42h-10v-8h10V276
		c0-11.7226562,7.1660156-18.5,21.25-18.5c8.53125,0,16.2460938,1.0712891,22.75,3v71h-10.5996094V266.75z"/>
</g>
<g>
	<path d="M1529.5-166.5v34c0,11.0361328,3.0136719,13,11.5,13c2.6796875,0,6.0244141-0.5566406,8.3232422-1.3828125L1550-119
		c-2.5234375,0.9082031-6.1279297,1.5-9,1.5c-10.3457031,0-13.5-3.5058594-13.5-15v-34H1515v-2h12.5v-20.3994141
		c-4.6738281-1.0068359-9.796875-1.6005859-14-1.6005859c-7.8125,0-11,3.7666016-11,13v59h-2v-59c0-10.375,4.0859375-15,13-15
		c4.6796875,0,10.6074219,0.7021484,16,2v22h21.5v2H1529.5z"/>
	<path d="M1531.5664062-14.5004883v30.6669922c0,10.2958984,2.6914062,12.3334961,10.2666016,12.3334961
		c2.9072266,0,6.0566406-0.5517578,8.5488281-1.5224609l0.9511719,3.8554688c-2.8076172,1.0097656-6.8037109,1.6669922-10,1.6669922
		c-10.7978516,0-14.5-3.8681641-14.5-15.6669922v-31.3334961h-12V-18.5h12v-18.5166016
		c-4.5166016-0.9692383-9.0058594-1.4838867-12.9667969-1.4838867c-7.6630859,0-10.6337891,3.4711914-10.6337891,12.1669922
		v57.8330078H1498.5v-57.8330078C1498.5-37.1582031,1503.4941406-42.5,1513.8330078-42.5
		c5.7822266,0,12.1083984,0.824707,17.7333984,2.3330078V-18.5h20.5996094v3.9995117H1531.5664062z"/>
	<path d="M1533.6328125,137.5v27.3330078c0,9.5556641,2.3691406,11.6669922,9.0332031,11.6669922
		c3.1357422,0,6.0898438-0.5463867,8.7753906-1.6616211l1.2246094,5.8286133c-3.0927734,1.1113281-7.4794922,1.8330078-11,1.8330078
		c-11.25,0-15.5-4.2299805-15.5-16.3330078V137.5h-11.4990234v-6h11.4990234v-16.6328125
		c-4.3603516-0.9321289-8.2148438-1.3671875-11.9326172-1.3671875c-7.5136719,0-10.2675781,3.175293-10.2675781,11.3330078V181.5
		H1496.5v-56.6669922c0-11.2734375,5.9033203-17.3330078,17.6669922-17.3330078
		c6.8847656,0,13.6083984,0.9482422,19.4658203,2.6669922V131.5h19.7011719v6H1533.6328125z"/>
	<path d="M1504.6992188,276v55.5H1494.5V276c0-11.7226562,6.8115234-18.5,20-18.5c7.9882812,0,15.109375,1.0712891,21.1992188,3v21
		H1554.5v8h-18.8007812v24c0,8.8154297,2.046875,11,7.8007812,11c3.3623047,0,6.1210938-0.5410156,9-1.8007812L1554,330.5
		c-3.3779297,1.2128906-8.15625,2-12,2c-11.703125,0-16.5-4.5917969-16.5-17v-26h-11v-8h11v-14.75
		c-4.2041016-0.8945312-7.4248047-1.25-10.9003906-1.25C1507.2363281,265.5,1504.6992188,268.3798828,1504.6992188,276z"/>
</g>
<g>
	<g>
		<path d="M1590.75,293c0,4.0371094,2.4804688,6.2792969,10.5,7.5c14.2626953,2.1699219,19.5,7.453125,19.5,17
			c0,9.2148438-7.1953125,15-20,15c-7.5048828,0-14.1210938-1.65625-20-5l2-8c5.5908203,3.3632812,11.6962891,5,18,5
			c6.5839844,0,9.7988281-2.5019531,9.7988281-7c0-4.4394531-2.296875-6.6894531-10.2988281-8
			c-14.0097656-2.2910156-19.5-7.4941406-19.5-16.5c0-8.625,6.8574219-14.5,20-14.5c6.7910156,0,12.3398438,1.2480469,18,4l-2,8
			c-5.2041016-2.7558594-10.1064453-4-16-4C1593.65625,286.5,1590.75,288.9160156,1590.75,293z"/>
		<path d="M1614.4492188,276v5.5H1604.75V276c0-11.7226562,6.8115234-18.5,20-18.5c7.9882812,0,15.109375,1.0712891,21.1992188,3v21
			H1664.75v8h-18.8007812v24c0,8.8154297,2.046875,11,7.8007812,11c3.3623047,0,6.1210938-0.5410156,9-1.8007812l1.5,7.8007812
			c-3.3779297,1.2128906-8.15625,2-12,2c-11.703125,0-16.5-4.5917969-16.5-17v-26h-11v-8h11v-14.75
			c-4.2041016-0.8945312-7.4248047-1.25-10.9003906-1.25C1616.9873047,265.5,1614.4492188,268.3798828,1614.4492188,276z"/>
	</g>
	<g>
		<path d="M1589.5,142.5c0,4.4887695,2.5429688,7.3525391,12.2285156,9.0058594
			c13.7871094,2.2705078,19.1044922,7.2861328,19.1044922,16.3271484c0,9.0214844-7.1601562,14.6669922-19.5,14.6669922
			c-7.1123047,0-13.3251953-1.6044922-19.1669922-5l1.6796875-5.9042969
			c5.515625,3.328125,11.2783203,4.9042969,17.4873047,4.9042969c7.7822266,0,12.0322266-3.2006836,12.0322266-8.6669922
			c0-5.2807617-3.1425781-8.0380859-12.4287109-9.6728516c-13.4384766-2.3198242-18.7705078-7.1386719-18.7705078-15.6601562
			c0-8.3828125,6.8613281-14,19.1669922-14c6.5019531,0,11.9560547,1.2329102,17.6669922,4l-1.6230469,5.9335938
			c-5.2910156-2.7128906-10.2177734-3.934082-16.0439453-3.934082C1593.4648438,134.4995117,1589.5,137.5493164,1589.5,142.5z"/>
		<path d="M1644.1328125,137.4995117v27.3334961c0,9.5556641,2.3691406,11.6669922,9.0332031,11.6669922
			c3.1347656,0,6.0898438-0.546875,8.7744141-1.6621094l1.2255859,5.8286133c-3.0927734,1.1113281-7.4804688,1.8334961-11,1.8334961
			c-11.25,0-15.5-4.2304688-15.5-16.3334961v-28.6669922h-11.5V131.5h11.5v-16.6333008
			c-4.3603516-0.9321289-8.2148438-1.3671875-11.9335938-1.3671875c-7.8457031,0-10.5996094,3.175293-10.5996094,11.3334961V131.5
			H1607v-6.6669922C1607,113.5595703,1612.9023438,107.5,1624.6660156,107.5c6.8857422,0,13.609375,0.9477539,19.4667969,2.6665039
			V131.5h19.7001953v5.9995117H1644.1328125z"/>
	</g>
	<g>
		<path d="M1588.25-8c0,4.940918,2.6054688,8.4267578,13.9589844,10.512207
			c13.3105469,2.371582,18.7080078,7.1191406,18.7080078,15.6547852c0,8.8276367-7.1240234,14.3330078-19,14.3330078
			c-6.7207031,0-12.5292969-1.5517578-18.3330078-5l1.3574219-3.8076172
			C1590.3828125,26.9853516,1595.8027344,28.5,1601.9169922,28.5c8.9794922,0,14.2666016-3.8989258,14.2666016-10.3330078
			c0-6.1220703-3.9902344-9.3867188-14.5605469-11.3466797C1588.7578125,4.472168,1583.5839844,0.0371094,1583.5839844-8
			c0-8.1401367,6.8642578-13.5,18.3330078-13.5c6.2119141,0,11.5712891,1.2177734,17.3330078,4l-1.2441406,3.8681641
			C1612.6269531-16.3027344,1607.6757812-17.5,1601.9169922-17.5C1593.2753906-17.5,1588.25-13.8168945,1588.25-8z"/>
		<path d="M1642.3164062-14.5v30.6669922c0,10.2958984,2.6914062,12.3330078,10.2675781,12.3330078
			c2.90625,0,6.0556641-0.5517578,8.5488281-1.5224609l0.9511719,3.855957c-2.8085938,1.0097656-6.8046875,1.6665039-10,1.6665039
			c-10.7988281,0-14.5-3.8681641-14.5-15.6665039V-14.5h-12.0009766v-4h12.0009766v-18.5161133
			C1633.0664062-37.9853516,1628.5771484-38.5,1624.6162109-38.5c-7.8291016,0-10.7998047,3.4707031-10.7998047,12.1669922V-18.5
			H1609.25v-7.8330078c0-10.824707,4.9941406-16.1669922,15.3330078-16.1669922
			c5.7832031,0,12.1083984,0.8251953,17.7333984,2.3330078V-18.5h20.5996094v4H1642.3164062z"/>
	</g>
	<g>
		<path d="M1618.6328125-165.6982422C1613.1679688-168.3261719,1608.1923828-169.5,1602.5-169.5
			c-9.4160156,0-15.5,4.3164062-15.5,11c0,5.3925781,2.6679688,9.5,15.6884766,12.0185547
			C1615.5234375-144.0097656,1621-139.5292969,1621-131.5c0,8.6347656-7.0888672,14-18.5,14c-6.328125,0-11.7324219-1.5-17.5-5
			l1.0371094-1.7109375C1591.4042969-120.953125,1596.4804688-119.5,1602.5-119.5c10.1777344,0,16.5-4.5976562,16.5-12
			c0-6.9628906-4.8359375-10.734375-16.6894531-13.0195312C1590.015625-146.8964844,1585-150.9472656,1585-158.5
			c0-7.8974609,6.8691406-13,17.5-13c5.9228516,0,11.1875,1.203125,17,4L1618.6328125-165.6982422z"/>
		<path d="M1640.5-166.5v34c0,11.0361328,3.0136719,13,11.5,13c2.6796875,0,6.0244141-0.5566406,8.3232422-1.3828125L1661-119
			c-2.5234375,0.9082031-6.1279297,1.5-9,1.5c-10.3457031,0-13.5-3.5058594-13.5-15v-34H1626v-2h12.5v-20.3994141
			c-4.6738281-1.0068359-9.796875-1.6005859-14-1.6005859c-7.8125,0-11,3.7666016-11,13v9h-2v-9c0-10.375,4.0859375-15,13-15
			c4.6796875,0,10.6074219,0.7021484,16,2v22h21.5v2H1640.5z"/>
	</g>
</g>
<g>
	<g>
		<path d="M1051.5,276c0-12.2382812,6.1113281-18.5,18-18.5c3.7148438,0,6.4511719,0.4121094,10,1.5l-2,8
			c-2.2578125-0.9863281-4.6855469-1.5-7-1.5c-6.4667969,0-8.8007812,2.6552734-8.8007812,10.5v55.5H1051.5V276z"/>
		<path d="M1041.5,281.5v8c16.8125,0,31.3710938-0.4785156,43.4003906-1.25v43.25H1095.5v-52
			C1081.7949219,280.765625,1063.625,281.5,1041.5,281.5z"/>
		<rect x="1084.9003906" y="256.5" width="10.5996094" height="11"/>
	</g>
	<g>
		<path d="M1053.5,124.8330078c0-11.6171875,5.5126953-17.3330078,16.6660156-17.3330078
			c3.3886719,0,6.1582031,0.4506836,9.3339844,1.5l-1.5800781,5.9511719
			c-2.2373047-0.9487305-4.7148438-1.4516602-7.0869141-1.4516602c-7.1523438,0-9.8671875,3.0258789-9.8671875,11.3334961
			v56.6665039H1053.5V124.8330078z"/>
		<path d="M1043.1660156,131.5v5.9995117c16.3496094,0,30.7001953-0.5224609,42.4335938-1.4233398v45.4233398h7.7333984V129.5
			C1080.5996094,130.7558594,1063.7128906,131.5,1043.1660156,131.5z"/>
		<rect x="1085.5996094" y="106.4995117" width="7.7333984" height="11.0004883"/>
	</g>
	<g>
		<path d="M1055.5-26.3330078C1055.5-37.3295898,1060.4150391-42.5,1070.8330078-42.5c3.0625,0,5.8662109,0.4902344,8.6669922,1.5
			l-1.1601562,3.9033203C1076.1240234-38.0087891,1073.5966797-38.5,1071.1669922-38.5
			c-7.8378906,0-10.9335938,3.3955078-10.9335938,12.1669922V31.5H1055.5V-26.3330078z"/>
		<path d="M1044.8339844-18.5v4c15.8857422,0,30.0273438-0.5668945,41.4667969-1.5976562V31.5h4.8652344v-52
			C1079.4042969-19.253418,1063.8027344-18.5,1044.8339844-18.5z"/>
		<rect x="1086.3007812" y="-43.5" width="4.8652344" height="11"/>
	</g>
	<g>
		<path d="M1059.5-118.5h-2v-59c0-10.375,4.3173828-15,14-15c2.7363281,0,5.5732422,0.5292969,8,1.5l-0.7412109,1.8554688
			c-2.1933594-0.875-4.7705078-1.3554688-7.2587891-1.3554688c-8.5234375,0-12,3.765625-12,13V-118.5z"/>
		<path d="M1046.5-168.5v2c15.4228516,0,29.3574219-0.6113281,40.5-1.7714844V-118.5h2v-52
			C1078.2099609-169.2626953,1063.890625-168.5,1046.5-168.5z"/>
		<rect x="1087" y="-193.5" width="2" height="11"/>
	</g>
</g>
<g>
	<g>
		<path d="M1258.4990234,276c0-7.8447266,2.3349609-10.5,8.8007812-10.5c2.3144531,0,4.7431641,0.5136719,7,1.5l2-8
			c-3.5478516-1.0878906-6.2861328-1.5-10-1.5c-11.8886719,0-18,6.2617188-18,18.5v55.5h10.1992188V276z"/>
		<path d="M1290.3984375,276c0-7.8447266,2.3349609-10.5,8.8007812-10.5c2.3144531,0,4.7431641,0.5136719,7,1.5l2-8
			c-3.5488281-1.0878906-6.2841797-1.5-10-1.5c-11.8876953,0-18,6.2617188-18,18.5v55.5h10.1992188V276z"/>
		<path d="M1312.1005859,288.25v43.25h10.5986328v-52c-21.4208984,1.265625-49.8193359,2-84.3994141,2v8
			C1266.8876953,289.5,1291.6435547,289.0214844,1312.1005859,288.25z"/>
		<rect x="1312.1005859" y="256.5" width="10.5986328" height="11"/>
	</g>
	<g>
		<path d="M1258.1660156,181.4995117h-7.4667969v-56.6665039c0-11.6171875,5.5136719-17.3330078,16.6669922-17.3330078
			c3.3876953,0,6.1591797,0.4506836,9.3330078,1.5l-1.5800781,5.9511719
			c-2.2353516-0.9487305-4.7138672-1.4516602-7.0859375-1.4516602c-7.1523438,0-9.8671875,3.0258789-9.8671875,11.3334961
			V181.4995117z"/>
		<path d="M1288.9316406,181.4995117h-7.4658203v-56.6665039c0-11.6171875,5.5136719-17.3330078,16.6669922-17.3330078
			c3.3886719,0,6.1582031,0.4506836,9.3330078,1.5l-1.5800781,5.9511719
			c-2.2363281-0.9487305-4.7138672-1.4516602-7.0869141-1.4516602c-7.1513672,0-9.8671875,3.0258789-9.8671875,11.3334961
			V181.4995117z"/>
		<path d="M1312.2333984,136.0458984v45.4536133h7.7324219V129.5c-20.2041016,1.2558594-46.9980469,2-79.5996094,2v5.9995117
			C1268.1044922,137.4995117,1292.421875,136.9663086,1312.2333984,136.0458984z"/>
		<rect x="1312.2333984" y="106.4995117" width="7.7324219" height="11.0004883"/>
	</g>
	<g>
		<path d="M1257.8330078,31.5h-4.7333984v-57.8330078c0-10.996582,4.9160156-16.1669922,15.3339844-16.1669922
			c3.0615234,0,5.8652344,0.4902344,8.6660156,1.5l-1.1601562,3.9033203
			C1273.7246094-38.0087891,1271.1972656-38.5,1268.7666016-38.5c-7.8369141,0-10.9335938,3.3955078-10.9335938,12.1669922V31.5z"/>
		<path d="M1287.4658203,31.5h-4.7333984v-57.8330078c0-10.996582,4.9160156-16.1669922,15.3339844-16.1669922
			c3.0625,0,5.8652344,0.4902344,8.6669922,1.5l-1.1611328,3.9033203C1303.3574219-38.0087891,1300.8300781-38.5,1298.3994141-38.5
			c-7.8369141,0-10.9335938,3.3955078-10.9335938,12.1669922V31.5z"/>
		<path d="M1312.3671875-16.1572266V31.5h4.8662109v-52c-18.9882812,1.246582-44.1767578,2-74.7998047,2v4
			C1269.3222656-14.5,1293.2001953-15.0883789,1312.3671875-16.1572266z"/>
		<rect x="1312.3671875" y="-43.5" width="4.8662109" height="11"/>
	</g>
	<g>
		<path d="M1257.5-118.5h-2v-59c0-10.375,4.3173828-15,14-15c2.7363281,0,5.5732422,0.5292969,8,1.5l-0.7412109,1.8554688
			c-2.1933594-0.875-4.7705078-1.3554688-7.2587891-1.3554688c-8.5234375,0-12,3.765625-12,13V-118.5z"/>
		<path d="M1286-118.5h-2v-59c0-10.375,4.3173828-15,14-15c2.7363281,0,5.5732422,0.5292969,8,1.5l-0.7412109,1.8554688
			C1303.0654297-190.0195312,1300.4882812-190.5,1298-190.5c-8.5234375,0-12,3.765625-12,13V-118.5z"/>
		<path d="M1244.5-168.5v2c26.0390625,0,49.4785156-0.6435547,68-1.8613281V-118.5h2v-52
			C1296.7285156-169.2626953,1273.1445312-168.5,1244.5-168.5z"/>
		<rect x="1312.5" y="-193.5" width="2" height="11"/>
	</g>
</g>
</svg>
