<?xml version="1.0" encoding="utf-8"?>
<!-- Generator: Adobe Illustrator 11.0, SVG Export Plug-In . SVG Version: 6.0.0 Build 78)  -->
<!DOCTYPE svg PUBLIC "-//W3C//DTD SVG 1.0//EN"    "http://www.w3.org/TR/2001/REC-SVG-20010904/DTD/svg10.dtd" [
	<!ENTITY ns_flows "http://ns.adobe.com/Flows/1.0/">
	<!ENTITY ns_svg "http://www.w3.org/2000/svg">
	<!ENTITY ns_xlink "http://www.w3.org/1999/xlink">
]>
<svg  xmlns="&ns_svg;" xmlns:xlink="&ns_xlink;" xmlns:a="http://ns.adobe.com/AdobeSVGViewerExtensions/3.0/"
	 width="800" height="1050" viewBox="0 0 800 1050" overflow="visible" enable-background="new 0 0 800 1050" xml:space="preserve">
	<metadata>
<?xpacket begin='﻿' id='W5M0MpCehiHzreSzNTczkc9d'?><x:xmpmeta xmlns:x='adobe:ns:meta/' x:xmptk='XMP toolkit 3.0-29, framework 1.6'>
<rdf:RDF xmlns:rdf='http://www.w3.org/1999/02/22-rdf-syntax-ns#' xmlns:iX='http://ns.adobe.com/iX/1.0/'>

 <rdf:Description rdf:about=''
  xmlns:pdf='http://ns.adobe.com/pdf/1.3/'>
 </rdf:Description>

 <rdf:Description rdf:about=''
  xmlns:tiff='http://ns.adobe.com/tiff/1.0/'>
 </rdf:Description>

 <rdf:Description rdf:about=''
  xmlns:xap='http://ns.adobe.com/xap/1.0/'
  xmlns:xapGImg='http://ns.adobe.com/xap/1.0/g/img/'>
  <xap:CreateDate>2005-10-18T06:55:18Z</xap:CreateDate>
  <xap:ModifyDate>2005-10-18T06:55:18Z</xap:ModifyDate>
  <xap:CreatorTool>Illustrator</xap:CreatorTool>
  <xap:Thumbnails>
   <rdf:Alt>
    <rdf:li rdf:parseType='Resource'>
     <xapGImg:format>JPEG</xapGImg:format>
     <xapGImg:width>196</xapGImg:width>
     <xapGImg:height>256</xapGImg:height>
     <xapGImg:image>/9j/4AAQSkZJRgABAgEASABIAAD/7QAsUGhvdG9zaG9wIDMuMAA4QklNA+0AAAAAABAASAAAAAEA&#xA;AQBIAAAAAQAB/+4ADkFkb2JlAGTAAAAAAf/bAIQABgQEBAUEBgUFBgkGBQYJCwgGBggLDAoKCwoK&#xA;DBAMDAwMDAwQDA4PEA8ODBMTFBQTExwbGxscHx8fHx8fHx8fHwEHBwcNDA0YEBAYGhURFRofHx8f&#xA;Hx8fHx8fHx8fHx8fHx8fHx8fHx8fHx8fHx8fHx8fHx8fHx8fHx8fHx8fHx8f/8AAEQgBAADEAwER&#xA;AAIRAQMRAf/EAaIAAAAHAQEBAQEAAAAAAAAAAAQFAwIGAQAHCAkKCwEAAgIDAQEBAQEAAAAAAAAA&#xA;AQACAwQFBgcICQoLEAACAQMDAgQCBgcDBAIGAnMBAgMRBAAFIRIxQVEGE2EicYEUMpGhBxWxQiPB&#xA;UtHhMxZi8CRygvElQzRTkqKyY3PCNUQnk6OzNhdUZHTD0uIIJoMJChgZhJRFRqS0VtNVKBry4/PE&#xA;1OT0ZXWFlaW1xdXl9WZ2hpamtsbW5vY3R1dnd4eXp7fH1+f3OEhYaHiImKi4yNjo+Ck5SVlpeYmZ&#xA;qbnJ2en5KjpKWmp6ipqqusra6voRAAICAQIDBQUEBQYECAMDbQEAAhEDBCESMUEFURNhIgZxgZEy&#xA;obHwFMHR4SNCFVJicvEzJDRDghaSUyWiY7LCB3PSNeJEgxdUkwgJChgZJjZFGidkdFU38qOzwygp&#xA;0+PzhJSktMTU5PRldYWVpbXF1eX1RlZmdoaWprbG1ub2R1dnd4eXp7fH1+f3OEhYaHiImKi4yNjo&#xA;+DlJWWl5iZmpucnZ6fkqOkpaanqKmqq6ytrq+v/aAAwDAQACEQMRAD8A9Pahq+l6d6H166jtjdSr&#xA;b2qyMFaWV/sxxr1Zj4DFUXirsVQlhq2mag9ylldR3EllMbe8SNgWimUAmOReqtRgaHtiqLxV2Kux&#xA;V2KuxV2KuxV2KuxV2KuxV2KuxV2KuxV2KuxV2KuxV2KuxVhPk6yTX9cvvO1+BM6z3OneXEbdbayt&#xA;5DBLKgOwku5Ymdm6+nwXsaqs2xV2KsL87Wq6HqNn53sv3MttLBZ68i7Lc6dPKIi0gHV7VpPWRuoU&#xA;Oo+1irNMVdiryf8AN7zp5i0DTEXUtF9exOrWFzY3Ol3KzXElvp17FqE4ltZlt2Vha2shYozqOrFV&#xA;qQqz/wAtal5g1GGS71SwtrC1lEb6ekF19bldGBLNKyRpEtfh4iN3H+Viqc4qsnmSCCSaT7ESl2pu&#xA;aKKnFVDStStdU0uz1O0JNrfQR3MBYcWMcyB1qOxo2KorFXYq7FXYq7FXYq7FXYq7FXYq7FWF+Ynk&#xA;8z+ZYvKVuzDSdO9K+8zzIaB9+drp9R/v4j1ZR/vsBTtJirNMVdirFPytdR5Js7XpNYS3VjcqftCa&#xA;1upIZOXuzJy9616YqyvFXYqxP81WB8gavbDea/SOwtk7tPeSpbwqKV6ySjFWWYq7FUuk8v6ZLrq6&#xA;5NGZdQjtjZwM7Fkiid+cnpofhVpTxDt1IVR2xVvQdC0/QtLi0vTlZLGAv9XhZi4jR3LiNK9I05cU&#xA;X9lQB2xVMMVYn5jn/MIQ6itjZaS+niOT0pJ7u5SYpwO7Its6hvYNiqVflzP+YX+EvLCvZaSNM+oW&#xA;IaUXdyZ/Q9FKsI/q3D1OH7POle/fFXoOKuxV2KuxVIdWm8+LfOukWelTWNF9OS7uriKUmnxVSO3l&#xA;Ub9PixVV0SXzk9xINdtdOgtwn7prG4nmcvUbMssEIC0rvXFU5xV2KuxV2KpH5x8yHQdHM9vD9b1W&#xA;7kW00iwBobi8mqIkJ7IKF5G/ZRWbtiq7yh5bHl/RltJJvrWoXEj3eq35HFrm8mPKaYjsCdkX9lQq&#xA;jYYqnWKuxViraRrei+a5dT0eEXmja3Ih1nT+axvBcqojF9AXIVg8aKs0dQfhDLVuQZVlWKuxViUm&#xA;ja3rvmyG91iBbTQNCl9XSLLmskl1ecSn1yfhyVI4lY+jHUnkebUIUBVluKuxV2KuxV2KqdxAk9vL&#xA;A5ISVGRiOtGFDSuKofRtLt9J0ex0q2Z3t9Pt4rWF5CC5SFBGpYqFHKi70AxVGYqkOmWnmI+bdbvr&#xA;+Yro3p2tro1mGBUhEMtxcsBuGeSX09+0fgcVT7FXYq7FXYq7FULDYvHqNzem6nkW4jijWzdlMERi&#xA;LkvEoUMGk9T46sfsrSm9VUVirsVSufy7ZXHmO116d5Zbmxt5Leyt2K+hEZjWWZF419V1AQsW2XYU&#xA;q1VU0xV2KuxV2KuxV2KuxV2KuxV2KuxV2KuxV2KuxV2KuxV2KuxV2KuxV2KuxV2KuxV2KuxV2KsK&#xA;1nztq9x53g8neVraG5vLVY7rzJqFzza3sLaSvpR8UZC9xN1ROQ+H4jtirNcVdirCz531TSfPkXlr&#xA;zJbwx2Otcm8s6xbh1jlkjHJ7O5Vy/CcL8SMG4yDoAdsVZpirsVSXzh5ps/K2gS61eRSTwQzW0DRw&#xA;8eZa7uY7ZCORUUDTAn2xVOsVdirsVdirsVdirsVdirsVdirsVdirsVdirsVY/wCdfOmn+U9Lgu7m&#xA;GW8ur25hsdN0624m4ubmduKRxB2RelWJJ2AOKsgBJAJFD3GKuxV5r+QsS3flbVPM7nneeZtZ1K+n&#xA;lNS3CK6e1hj3AIWOOABV7Yq9KxV2KvOf+cgrYH8rNU1OIhNQ0J7fVtMnpUxXNpOjow+a8lPsTir0&#xA;K1nFxbRTgcRKiuFPUBhWmKqmKvCvzc/K278w+Yhofk577SNQ1VW1fX9Sa4uv0WfRk526tAzNC1xJ&#xA;cxqR6dCigsQdsVZr+Tug6fbaCdXex1G08yXn+ja82rXFzc3DXFqxRwJJ2KvFyqY2jAUqfnir0DFU&#xA;v8w3U9poGp3du3C4t7SeWF6A8XSNmU0IINCO+Kpf+XuqX+r+QfLWq6hL69/qGlWN1eTcVTnNNbJJ&#xA;I3FAqryZiaKAMVZBirsVdirsVdirsVdirsVdirsVcSFBJNANyT0AxV5d5JD+ffO0/wCYNwCfLuj+&#xA;rp3kuJvsymvC81Kn/FpHpRH+QHbFXqOKuxV5j+Uc40HWvM/5fXp9O703ULjVdHRv93aVqMpmjdCf&#xA;t+lM7xyEdDTFXp2KuxV5p+eV1+lNEsvy/sW56z5wuYrQRqfihsYpFlvLpx2RIkK/M7Yq9KREjRY0&#xA;AVEAVVHQAbADFW8VdirsVdirzvzz+T35banZa3rN15ctbnWZ7eeZroqxlaYRHi2x+1UDFUs/Kz8m&#xA;/wAuYfKHlDW5vLdtH5gj0/Tr2S6dHWZbxYY5TIwJ2cS79OuKvV8VSQecNGbzk3lBDK+sR2I1KYKh&#xA;MUcDSGJecnQOzDZetN8VTvFXYqxHzD+Un5b+Y9Vk1bXPL9rf6jMFWW5lVi7BFCqDQjoopiqt5X/L&#xA;DyB5V1CTUPLuh22m3ssRt5J4AwYxMyuUNSdiyKfoxVlGKpVH5ksJPM83lxY5xfQWi3zymJhbmN39&#xA;MKJvsl6/s9aYqmuKuxV55+alzrGtXGn/AJe6L60MvmAM+u6nGCBZ6RGQLgh6cRLcf3UY9ycVZ1pm&#xA;m2Ol6dbabYQrb2NnEkFtAgoqRxqFVR8gMVROKuxVIfMXkrRNev8ATNTuVkg1bR5DLp2pWrmKePkK&#xA;PHyFQ8bjZ0cFT4Yqn2KuxVI9L8naNp+v6h5hUSXOs6kBHLe3LmV44FNVt4K0EUIO/FRudzU4qnmK&#xA;uxV2KuxV2KuxV2KuxVKdO8raRp/mDV9ft0b9J62Ldb2V2LDhaR+nEiA/ZUAkkDqTXFU2xV2KuxV2&#xA;KuxV2KuxV2KuxV2KuxV2KqN3e2dlAZ7yeO2gBAMszrGgJ2A5MQMVVgQwBBqDuCOhGKuxVQtb+xuz&#xA;ILW4iuDCxjmETq/Bx1VuJND7HFVfFXYq7FXYq7FXYq7FXYq7FXYq7FXYq7FXYq7FXYq7FXYq7FXY&#xA;q7FXiWl24/Nb82dYutVBn8k+QroWOm6Y28F1qyV9a4lX7L+jQhVO1Cp7sCq9txV2KvE/zdtG/Ljz&#xA;NYfmxoSejaS3EVh52sY1/d3NpO3FLplH+7onoAw3JI7cqqva0dJEWRCGRwGVh0IO4IxVvFXhn55/&#xA;nTLonl3WdGWx1ry/q6XNtHpmtGBltLhI7yJpTBdRM32oFeqsAabd8Veh+SPzIt/ON1OdO0TVLTSI&#xA;4hLbaxf231a3uSWpS3Dn1GFDXkVGKswxVSurq2tLWa7upFhtrdGlnmc0VEQFmZiegAFTiqzTtRsd&#xA;SsYL+wnS6srpFlt7iJgySIwqrKw2IIxVEYq7FXYq7FXYq7FXYq7FXYq7FXYq8m/NjzPr+q+adG/L&#xA;HyffSWOs6kVvte1W2YiSw0yFgSQw+zJKRRfoB2euKvVoIlhgjhVmZY1CBnYu5CilWZqlj4k4qvxV&#xA;41/zi5+78qeZ7aUj69B5m1Fb4U4t6vGIEke9MVey4q7FXmH/ADkxJBH+SHmf1ioDR26oG7ubuHiB&#xA;71xVm3kuK5h8naFFdV+sx6daJPXrzWBA1a074qnOKsH85fldZ+cvNOmX3mG5F75Z0u3l9Ly20ZEU&#xA;l7LVPrMzhvj4xMVRePwncHcjFUx/LnyhfeUPLSaBcapJq1rZzSjS5Zk4yw2RNYLd2qfUMQ25bbbA&#xA;ADFWT4q8q/NDzx5xg0TzPpcPke/udOFjdwjWUubRYTG0DAzemz+pxUGtKV2xVKvyY88ecV8k+T9K&#xA;XyNfvpn1Wztv02Lm09D0SFU3Ppl/U4BfipSuKvasVdirsVdirCvM/njzjpWsS2WmeRr/AFuzjVCm&#xA;o29zaRRuWUFgFldX+Emm4xVX8oecfNWtalLa6v5OvfL1skLSpe3VxbTI7h1URBYXdqkMWr02xVl2&#xA;KuxV2KuxVIfPfnLSvJnlPUfMmpt/o1hEXWIGjSyn4Yok/wAqRyF/HpirDvyN8m6tYaZfecvM45ec&#xA;fN8gvtQLA1t7citvaKDuojQ7r8lP2Rir0/FXYq8budO1b8tfzYvPMFpZXF/5I87Oh1lbSJ55NP1J&#xA;QaXBiiVnMUtSXYDqTXooZV7ICCAR0O4xV2KvG/Ptjq/5n+d7DydDZXFv5H0C6S+8y6lPG8Md7PFX&#xA;0rO25hfVStfUZdu/ZeSr2TFXYq7FXYq7FUv8w6T+mPL+p6R6vofpG0ntPX48+HrxtHz41Xlx5VpU&#xA;YqhfJPlv/DHlHR/L31j63+irSK0+tcPS9T0lC8+HJ+NadORxVOsVeaQXPnbVfz4u4Umu7PyZ5d0y&#xA;ESw8SlteX90GZaMy/vAkcm/A/CyAHFXpeKuxV2KuxV2Ksbk8t+Y28+ReYF8xSroKWht38teiPSaa&#xA;p/0j1uda7jbh264qyTFXYqwjzz+Wn+MfMnl681PUv+dd0KY3kmgCGq3d2tfSklmMlOEe3wema/Fv&#xA;vsqzfFXYq7FXYq7FXYq7FXYq7FXYq7FXYq7FXYq7FXYq7FXYq7FXYq7FXYq7FXYq7FXYq7FXYq87&#xA;/MP8308s+ZNH8paJpLeY/NusNyj0uOcWywwb/vppikvEfCTTj0BJptVV6DCZjDGZ1VJioMqIxdVa&#xA;nxBWKoWAPQ8R8sVX4q84H5wPp/5nr5E80aN+hm1AcvLurrci4t774iFQ1ihMUh6cTy+LbupZV6Pi&#xA;rsVSrzT5p0LyroV1r2vXX1PSbPh9ZueEkvH1ZFiT4IldzV3UbLiqZwyxzRJLGeUcih0bcVDCoO+K&#xA;rsVdirsVdirsVdirsVdirsVdirsVdirsVdiqR+cfO/lXyZpH6X8zX66dp5kWBZWSSQtI9SqqkSyO&#xA;xopOy9BXFU3s7qG8tILuDkYbiNZYuaNG3F1DLyRwrqaHcMAR3xVVxV89/wDOOoHmf8y/zG8+3ret&#xA;dte/o7TyaMYrYOxCg/8AGOKJRTw98VfQmKuxV4r/AM5a6FFdflW2vxsYdS8t3lteWVym0ierMluw&#xA;Vuo3lVvmoxV6f5H1x9f8maFrklPV1PT7W7lC0oJJoVdxt4MSMVTvFXy3/wA5H6R51XVW8qaH5pvd&#xA;dm86TGc+TJIYpfQgt3E4kjmJ5RRq8I4qAKgNUmhxVnf/ADjlLr+v6WfN2recbvWrh4m0668vPClt&#xA;b2E8TqSpiQ7yKq/C9FqrbiuKvacVSbzrrdxoPk3Xtcto0luNK067voYpK8Ge2geVVbiQeJKb0OKo&#xA;L8tPNN55r8h6L5ivIo4LrU7cTyww8vTViSKLyLGm3c4qybFXYq7FXYq7FXYq7FXYq7FXYq7FXzuh&#xA;H51fnbzr635e+QH+EjeK91At49GXknuOC/8AFmKvojFXYq+e/wDnHUjyx+Zf5jeQr1fRu1vf0jp4&#xA;NFMtsXYBgP8AjHLEwp4+2KvoTFXYq8V/5y112K1/KttAjUzal5kvLazsrZN5H9KZLhiq9TvEq/Nh&#xA;ir0/yPob6B5M0LQ5Kerpmn2tpKVpQyQwqjnbxYE4qneKoRtI0ptVTV2s4TqkcLWyXxjX1xC7BmjE&#xA;lOXAsoNK4q7T9I0rTTcHT7OG0N3M9zdGGNYzLNIavJJxA5O3cnFUXirwz85PyX+s6L5w82f4u12L&#xA;jYXt9+h0uqWJ9K2Z/R9Kn923GjDwOKpT+Rv5L/WfKnlHzZ/i7XYuIgvv0PHdUsT6UvP0fSp/dtxo&#xA;w8Dir6JxVhvmH81fLWh+etH8k3EV1ca7rarJax20auiRu7JzlYupVV9J2NAdgcVZlirsVeZ+d/yS&#xA;/wAVeYp9a/xhr+keusa/UdPuvSt09NAlVShoWpU++Kq/kD8m/wDB+utq3+LNc1rlA8H1PU7n1oBz&#xA;KnnxoPiHHY4q9FxVhmp/mx5X038xdP8AIFwlydd1OITW7pGpt+JWRvicuGBpC37OKszxV2KvJf8A&#xA;nIj8wtQ8v+Wrbyz5d5S+b/Nkn6P0uGI/vUjkISWYfyn4giHbc1/ZOKss/Kn8vbDyD5I0/wAvW3F5&#xA;4l9XUblRT1rqQAyyfKvwrXooAxVl2KuxV53+Yf5QJ5m8yaP5t0TVm8uebdHbjHqkcAuVmg3/AHM0&#xA;JeLkPiIry6Eg12oq9BhEwhjE7K8wUCV0UorNT4iqlnKgnoOR+eKr8VecD8n31D8z189+aNZ/TLae&#xA;OPl3SFthb29j8RKuayzGWQdeR4/Fv2UKq9HxV2KuxV2KuxVTuLe3ubeW2uYknt50aOaGRQ6Ojjiy&#xA;srVBUg0IOKrbOys7K1jtLOCO2tYRxighRY40XwVVAAHyxVWxVgdp+VUCfm9e/mPe6h9bnksksdL0&#xA;4w8RaAIqyOJebc2ej/sLQORv1xVnmKuxV2KuxV2KoGXQtDm1OPVZtOtpNUhHGG/eGNrhF3FFlI5g&#xA;fEeh74qjsVdiqDn0XRp9Sh1Oewt5dSt14W988SNPGu/wpKRzUfEeh7nFUZirsVdirsVdirsVdirs&#xA;VdirsVdirsVdirsVdirsVdirsVdirsVdirsVdirsVdirsVdirsVfNnnTX9d/Nb88Y/y40fUJ9P8A&#xA;Knltmm1+e0kaKSZ4CFnHNaH4XcQqOzcm32xV9HWlrb2lrDa2yenbwIscSCp4ogooqanoMVVcVfNv&#xA;51t5g/KTz9pX5j+X7i4l8u6rObbX9GeV3tzI37xhGrkhPVRWZKfZdfA8cVfRWnahaalp9rqNnIJb&#xA;O8hjuLaUdGjlUOjD5qcVRGKvFfzd/wCcivLOg6B5l0/y3q8K+d9Glhhis54XZWf6xEk4Qkem/GNn&#xA;qA1QR0xVlfkP86PIvmzULXQNN1VL7XxYrd3iRRyLEGUIJVWRlCMwaTopO1cVZ/irTukaF5GCIoqz&#xA;MaADxJOKtRSxSoJInWSNvsupBB+RGKrsVdirsVdirsVdirsVdirsVdirsVeM/n1+cOv+V9R0Pyj5&#xA;KSK685a1MhEToJRHAxMaAoaCsr9CeiqxPbFXrekw6jDpdpFqdwt1qKQot5cxp6aSTBRzZE/ZUtWg&#xA;8MVReKvl/wD5xJ/f/mB+Y11dj/ci06cu/wDeXNw0vxbftqvbFX1BirsVeOf85aRQv+SupNIAXjur&#xA;NoSeoYzqtR/sWbFWTfkM8r/k75SMpJYafGoJ68VqF/4UCmKs9xV4j+dn5Oa5+Y3nbQbFbO0sPK8K&#xA;Pcatr8SxHUGkHwi3BZefHjTjuV6lvsqMVTj/AJx88g+ZPJPl/UNF1/TbCCS0u5ItO1a0WNZ721LE&#xA;iSfgOXX7PNuVNiBQEqvVsVfO355f85GeSIdL83fl+1jqZ1k28+nfWBFb/VfVkjoG5+v6nH4v5K+2&#xA;KpV+Qf8AzkZ5I0zy15T/AC+nsdTbWZJk04XEcVubX1bu6YRtzM6ycR6o5fBX2OKvp7FXYq7FXYq8&#xA;k/ML/nJryH5E803PlrV7DVJ761SJ5JLSK3eIiaMSLQyXETdG3+HFVT8uP+ck/I3n/wAzJ5d0ax1O&#xA;3vZIpJxJeRW6RcYhVhWOeVq+Hw4q9XxV2KuxV2KpX5p8yaX5Y8u6hr+qyenYabC08x2qeP2UWvVn&#xA;YhVHcnFXgn/OOPlvVfOfm7WPzm8zxkz3sskGgRPuqIP3bvHX9mJB6KH/AFsVfR+KuxV8vX4f8lv+&#xA;ciptdvl9PyT52MqyXYB4QSTussnKmwMU+/8AxjbbcUxV9PxyRyxrJGweNwGR1IKspFQQR1BxVdir&#xA;5s/5yU12789+ZtE/KDyqwudQkulu9blTeO34qQiykdo0dpJB2+Hvtir6E8v6LZ6FoOnaLZAi00y2&#xA;htIK9SkKBFJ9yF3xVH4q7FXYq7FWOfmNoF95i8h6/oVgUF7qdjPbW5lJVOciFV5MAxAr7Yqgfyg8&#xA;p6p5R/LfRPLuqmJtQ0+KRJzAxeOrzPIOLEKTs47YqzHFXzz+YnmLzp5h/wCcjtD8i+XNYvNN0qxt&#xA;4Z9dW0leIFKtcTF+H80JjRa/tNir6GxV2KuxV2KuxV5L548m/nFqP5saHrXl/XPqfk21ksTqmm/W&#xA;pYvVWG4L3I9FVKNzi+Hc74q9axV2KvIvz9/Lnz9+YaaP5e0a4tbHyws63Gt3EsriZyG4qqRqhDCN&#xA;OT0LfE1OnGuKvT9C0TTdC0ay0bTIRBp+nwpb20Q7JGKCp7k9Se53xVHYq7FUJqekaTqtsLXVLKC/&#xA;tgwcQXMSTJyFQG4uGFRXriqva2ttaW8VtawpBbQqEhgiUIiIooFVVoAAOwxVUxVAWPl/QbC8nvbH&#xA;TbW0vLqpubmCCOOWQs3JubqoZqtuanriqPxV2KuxV2KuxV2KuxV2KoSLR9Ii1KbVIrG3j1O4UR3F&#xA;8sSLPIgCgK8oHNgOC7E9hiqLxV2KuxV2KuxV2KuxV2KuxV2KuxV2KsC/ND86fJv5cfUY9aFzd3uo&#xA;k/VtPsEjluOA29RlkkiATl8I3qT0GxoqzPS72S+062vJLSewe4jWQ2d0EE8XIV4SCNpEDDuAxxVF&#xA;Yq85k/PbyhafmN/gHVrTUNI1eRwlrc3sUK2k5f8AujFLHNI1Jf2Cyjf4TRtsVejYq7FULqmraVpF&#xA;hLqGq3kGn2EHH1ry6lSGFObBF5SSFVXkzBRU9TiqraXdreWsN5ZzR3NpcxrNb3ELB45I3AZHR1JV&#xA;lZTUEdcVVcVdirsVdirsVdirsVdirsVdirsVdirsVdiqA1rzBoOhWi3mt6la6XaM4iW5vZ47eMyM&#xA;CQgeVlXkQpNPbFVfTtS07U7KK/026hvbGccoLq3kWWJ1rSqOhZWFR2OKojFXyH+Xo/5WX/zlXqus&#xA;an+/stBe5urOFxVBHYyLa2goehV3WX/WBOKvrzFXYq+dP+cz/KlvceUNJ81wqE1HSbtbV5l+Fjb3&#xA;AYj4hueEqLx8ORxV6z+Tnmu481/lh5d126YyXd1ahLqQ9Xnt2aCVz/rSRE4qzLFXyZ/zlF5o/NzS&#xA;LfV9C1qXTJvJnmS4VdJjjKm7iitZIp1oB6UleUa+oWV1BagP2cVZZ/zjH5m/NrzLaaZc3dxpqeQt&#xA;HshpCWcPH6yZbWJI4pGAEsgcBByDOikNUL0xV9D4qkfnfzVb+U/Kep+Y7iB7mDTITPJBGQruAQKA&#xA;nbviqG/Lfzxa+efJeneabS2ks7fUfW4W0rBnX0J5IDUrtuYq4qyXFXYq7FXYq7FXYq7FXYq7FXYq&#xA;7FXyT+a2pX350fnhp35e6PMw8u6FK639xGaryjI+u3G1VPAD0Yqj7Xs2Kvq3TdNsdM06106whW3s&#xA;rOJILaBBRUjjUKij5AYqicVfIX/OOVPLH/ORvmjy3efupbhNQs7ZTWrPBcrOlCTWjQxu2Kvr3FXY&#xA;q8J/5zI1W1tfyphsZGH1nUNRgWCOu9IleR2p4CgH0jFWX/8AOOmk3Wlfkr5WtblSkr28l0FIoeF3&#xA;cSXMf/CSjFXo+KsP8wflR5O1/wA7aT5x1S3e41bR09O1jdy1uQCWjLxNVeUbuWUim/Wu1FV3kP8A&#xA;Kzyh5GudYn8vQywHWrj6xcxNIWiSlSkcMY4oiJzbjtXelaUoqy7FXzT+f3kX85v0Z5s13/F0X+C+&#xA;DTfoLlJz+r1UelT0+PX/ACsVSr/nHryN+c135b8qa7pnm6K08lreGaTQi0gc28N84uYqCMr+9KP+&#xA;1+1ir6rxV57+ZX55+Sfy81Oy0zXVu5by/iM8MVnEspCc+ALcnT7TA0+WKs/t5TNBHKY2iMiq5ikA&#xA;DryFeLAEio774qvxV45+ZH5e/ntrPm261Dyl51i0bQ5EiFvp7tKCjLGFkNFicfE4J64qqfll5A/P&#xA;DRPNMd/5w85Ra3oqwyI9ijSEmRh8DfFEg+H54q9fxV5152/PjyT5N83WnlXV471tTvFheFoIkeKl&#xA;xIY0qxkU/aXfbFXouKuxV5h/zkP+aA8g+QLia0l4a9q3Ky0gA0ZHZf3lwO/7lDUH+Yr44qx7/nFT&#xA;8rz5W8lHzFqUXHXPMirOeY+OKz6wpvuDJX1G+a13XFXuGKuxV4b+cf5F+ZNZ88aV+YHkG6t7HzPa&#xA;SRm8S6Zo4pfRFI5aor1PEem6nZlp71Ve0aXLqMunW0mpQR22oNGpu4IXMsaS0+II5Cllr0JAxVFY&#xA;q8G/MP8AJPzv+Zf5n2V95muLW08h6SStpYwSvJcyx8gz8hwQI9wVAYhvhUClSN1Xu0MMUEMcMKLH&#xA;DEoSONQAqqooFAHQAYqvxV2KuxV2KoHXNE0rXdJutI1a3F1p16npXNuxZQ6E1oSpVu3Y4qp+W/Le&#xA;ieWtFt9E0O1Wy0u05/V7ZWZgnqSNK+7lm3dydziqZYq8Q80fkn5j80/n/p/nPV2tW8paSlv9Ut+b&#xA;NO5tkMqK8ZUKF+tOxPxGq/PFXt+KuxV2KuxV2KsT8xflT+X3mTXYNe1vR473V7ZY1gu2kmVlELF4&#xA;xRHVfhYk9MVZZirsVYt5u/K/yH5wvba98y6Smp3Fmnp2xlkmCopbkRwR1Tc9ajfFWUgBQABQDYAd&#xA;AMVdirsVdirsVdirsVdirsVdirsVdirsVdirsVdirsVdirsVdirsVdirsVdirsVdirsVdir5i/PX&#xA;85PO19+Zen/lv+Xt81jeJPFb3t5EQGku56UjLkNxjhVqvTvWv2cVfRvl7TLnS9EstPu76bU7q3iV&#xA;LjULg1lmk6vI3hViaDsNsVTDFXzF+efnT8z/AMqvzJ0zXbPWLjUfKGqO0y6RcsGiVkoLi2qBVRxc&#xA;NE1dvfjuq+jfL+u6fr+h2Gt6dJ6ljqMEdzbv34SKGAI7MK0I7HFUwxV5x+aX50eX/KHlrXrnTb2x&#xA;1DzJoZtxLokk6rLWeaJDVAeZ4xzcqqPniqY/l/8Amn5b806XoitqNknmPVLFL2bRoJlkliqgdwVB&#xA;LLxr+1virNsVdirsVdirsVdirsVdirsVdirsVdirsVdirx78/Pz+j/LJtMsNPs4tS1q+5Ty20rsi&#xA;xWy1UO3Hervsv+q3tir0fyXqWv6n5W03Utfs49O1a8hWe4sI+REPqfEsbc/i5hSOXgajFU6xV8T/&#xA;AJAV1j/nJm61G+DNcrPqt58f2hK/qKeQ33AlOKvtjFXYq8F/5zOtYJfyqs53WssGrQGJ+45wzKw+&#xA;RxVOP+cTb6e5/JXTI5TUWdzdwRHvw9ZpP1yHFXsWKvkX/nJP8qodS/MzR9O8paBdjXPMsjzX2qyP&#xA;K1lLKxqwBfmEMSKZJONAq0ouKpn/AM4m/l5ZWWv61ca/5fvLbzT5cuXt4NUd5FtVLoYpYFVSsbyA&#xA;EmvxAqwO3UqvqfFXgv59fn55RsPLXmXyppOs3Vl5yt+EEJtkuIXSVZY2fhcIFC/u67hvbFUt/wCc&#xA;fv8AnIHyt/hbQ/LPmbXLy9833t41qrXS3Ny7vc3JW3Vrhg4pR1G7bYq+jMVdirsVdirzvzj+f/5Y&#xA;eT9fn0HXtRlt9Tt1R5Yktp5QBKgdfiRWX7LYq7yd+f8A+WHnDX4NB0HUZbjU7hXeKJ7aeIERIXb4&#xA;nVV+yuKvRMVdirsVdiqC1rWNO0XSLzV9SmEFhYQvcXMp/ZjjUs3zO2w74q+Pvym0fUvzq/PG+856&#xA;7CW0TTJVvJYHq0YCHjZWY7bceTdm4tX7WKvs7FXYq+KNYhf8nv8AnJ6PVb2Mx6Fd3kl3FNT4PqOo&#xA;h0kK/wDMO0jCn+T74q+1kdJEWSNg6OAyOpqCDuCCMVbxV8uf85o+c4podD8iWLGa9eYajewx1Zh8&#xA;LQ20dF6lzI7cfZT3GKvbvyY8mz+Tfyy0LQbocb2CAzXq/wAs9w7TSJ/sGk4fRirNcVdirsVdirx/&#xA;87vyU8t675R8w6joflyC686XgSS3uUos7y+qnM8nZUr6YPXFUv8AyG/IvQtI8naRe+bPLMMHnGyu&#xA;pLj6xLR5kaO4L278o3ZfhAUjFXuGKvln/nJr8wvPkX5oaH5O8mard2NxJbwo8NnK8Rlur2YrGr8e&#xA;tFVKf62KvpfQNOuNM0Sw0+5u5b+5tYI4p76di0s0iKA8rliTV2qcVR+KsR8w/lJ+W/mPVZNW1zy/&#xA;a3+ozBVluZVYuwRQqg0I6KKYq7y9+Un5b+XNVj1bQ/L9rYajCGWK5iVg6h1KsBUnqppirLsVfOn5&#xA;/aN/zkJeeeo5fIEmproX1KFWFldpBF9YDyc/gaRDy48d6Yq+hbETCytxPX1xGglqannxHKp+eKq2&#xA;KvEP+coNK/M3zJoFn5V8naNPe2N24uNZuo5Io1KxN+6t6SOharjm3+quKsz/ACT/AC2g/L/yBY6M&#xA;yr+lJv8AStXmXfndSgclr/LGoEa/KvfFWeYq7FWNed/y28keeba2tvNOlpqMdm7SWxMksLozCjcZ&#xA;IXjejUFVrQ0HgMVTbQdC0zQdHtNG0uN4dOsYxFawySyzlIx0X1JmkkIXoKtsNhtiqPxVhcf5Nfls&#xA;nnE+cm0f1vMhmNz9fuLi6nImpQOscsrxLw24UX4KDjSgxVmmKuxV2KuxV2KuxV2KuxVicv5VeQZv&#xA;PC+eZtKEnmlSpXUHmuGAKQiBSITJ6ApGKD4Ou/XfFWWYq7FXYq7FXYq7FXYq7FXYq7FXYq7FX//Z</xapGImg:image>
    </rdf:li>
   </rdf:Alt>
  </xap:Thumbnails>
 </rdf:Description>

 <rdf:Description rdf:about=''
  xmlns:dc='http://purl.org/dc/elements/1.1/'>
  <dc:format>image/svg+xml</dc:format>
 </rdf:Description>

</rdf:RDF>
</x:xmpmeta>
                                                                                                                                                                                                                                                                                                                                                                                                                                                                                                                                                                                                                                                                                                                                                                                                                                                                                                                                                                                                                                                                                                                                                                                                                                                                                                                                                                                                                                                                                                                                                                                                                                                                                                                                                                                                                                                                                                                                                                                                                                                                                                                                <?xpacket end='w'?>
			</metadata>
		<g id="レイヤー1">
			<g>
				<rect fill="none" width="100" height="150"/> 
				<rect x="100" fill="none" width="100" height="150"/> 
				<rect x="200" fill="none" width="100" height="150"/> 
				<rect x="300" fill="none" width="100" height="150"/> 
				<rect x="400" fill="none" width="100" height="150"/> 
				<rect x="500" fill="none" width="100" height="150"/> 
				<rect x="600" fill="none" width="100" height="150"/> 
				<rect x="700" fill="none" width="100" height="150"/> 
				<rect y="150" fill="none" width="100" height="150"/> 
				<rect x="100" y="150" fill="none" width="100" height="150"/> 
				<rect x="200" y="150" fill="none" width="100" height="150"/> 
				<rect x="300" y="150" fill="none" width="100" height="150"/> 
				<rect x="400" y="150" fill="none" width="100" height="150"/> 
				<rect x="500" y="150" fill="none" width="100" height="150"/> 
				<rect x="600" y="150" fill="none" width="100" height="150"/> 
				<rect x="700" y="150" fill="none" width="100" height="150"/> 
				<rect y="300" fill="none" width="100" height="150"/> 
				<rect x="100" y="300" fill="none" width="100" height="150"/> 
				<rect x="200" y="300" fill="none" width="100" height="150"/> 
				<rect x="300" y="300" fill="none" width="100" height="150"/> 
				<rect x="400" y="300" fill="none" width="100" height="150"/> 
				<rect x="500" y="300" fill="none" width="100" height="150"/> 
				<rect x="600" y="300" fill="none" width="100" height="150"/> 
				<rect x="700" y="300" fill="none" width="100" height="150"/> 
				<rect y="450" fill="none" width="100" height="150"/> 
				<rect x="100" y="450" fill="none" width="100" height="150"/> 
				<rect x="200" y="450" fill="none" width="100" height="150"/> 
				<rect x="300" y="450" fill="none" width="100" height="150"/> 
				<rect x="400" y="450" fill="none" width="100" height="150"/> 
				<rect x="500" y="450" fill="none" width="100" height="150"/> 
				<rect x="600" y="450" fill="none" width="100" height="150"/> 
				<rect x="700" y="450" fill="none" width="100" height="150"/> 
				<rect y="600" fill="none" width="100" height="150"/> 
				<rect x="100" y="600" fill="none" width="100" height="150"/> 
				<rect x="200" y="600" fill="none" width="100" height="150"/> 
				<rect x="300" y="600" fill="none" width="100" height="150"/> 
				<rect x="400" y="600" fill="none" width="100" height="150"/> 
				<rect x="500" y="600" fill="none" width="100" height="150"/> 
				<rect x="600" y="600" fill="none" width="100" height="150"/> 
				<rect x="700" y="600" fill="none" width="100" height="150"/> 
				<rect y="750" fill="none" width="100" height="150"/> 
				<rect x="100" y="750" fill="none" width="100" height="150"/> 
				<rect x="200" y="750" fill="none" width="100" height="150"/> 
				<rect x="300" y="750" fill="none" width="100" height="150"/> 
				<rect x="400" y="750" fill="none" width="100" height="150"/> 
				<rect x="500" y="750" fill="none" width="100" height="150"/> 
				<rect x="600" y="750" fill="none" width="100" height="150"/> 
				<rect x="700" y="750" fill="none" width="100" height="150"/> 
				<rect y="900" fill="none" width="100" height="150"/> 
				<rect x="100" y="900" fill="none" width="100" height="150"/> 
				<rect x="200" y="900" fill="none" width="100" height="150"/> 
				<rect x="300" y="900" fill="none" width="100" height="150"/> 
				<rect x="400" y="900" fill="none" width="100" height="150"/> 
				<rect x="500" y="900" fill="none" width="100" height="150"/> 
				<rect x="600" y="900" fill="none" width="100" height="150"/> 
				<rect x="700" y="900" fill="none" width="100" height="150"/> 
			</g>
			<rect x="602" y="105" width="5" height="5"/> 
			<polygon points="405,122 412,105 407,105 402,122 "/>
			<polygon points="356,81.5 330.5,81.5 330.5,56 327.5,56 327.5,81.5 302,81.5 302,84.5 327.5,84.5 327.5,110 330.5,110 
				330.5,84.5 356,84.5 "/>
			<rect x="502" y="81.5" width="42" height="3"/> 
			<polygon points="245.7646484,50.9638672 244.8374023,48.1105957 225.3642578,54.4375 225.3642578,34 222.3642578,34 
				222.3642578,54.4760742 202.9272461,48.1604004 202,51.0136719 221.4736328,57.3410645 209.4609375,73.8747559 
				211.8876953,75.6381836 223.9233398,59.0732422 235.9355469,75.6071777 238.362793,73.8439941 226.3276367,57.2785645 "/>
			<polygon points="702,110 705.5498047,110 754,34 750.4501953,34 "/>
			<path d="M30,28h-5.1000977C9.5026855,39.9643555,2,55.3989258,2,75s7.5026855,35.0356445,22.8999023,47H30
				C13.111084,110.262207,5,94.8713379,5,75S13.111084,39.737793,30,28z"/>
			<path d="M127,75c0,19.8713379-8.111084,35.262207-25,47h5.1000977C122.4973145,110.0356445,130,94.6010742,130,75
				s-7.5026855-35.0356445-22.8999023-47H102C118.888916,39.737793,127,55.1286621,127,75z"/>
			<rect x="602" y="252.5043945" width="7.8334961" height="7.5002441"/> 
			<rect x="602" y="400.0087891" width="10.6669922" height="10.0004883"/> 
			<rect x="602" y="547.5" width="13.5" height="12.5"/> 
			<rect x="602" y="695.0043945" width="16.3334961" height="15"/> 
			<rect x="602" y="842.4956055" width="19.1665039" height="17.5"/> 
			<rect x="602" y="990" width="22" height="20"/> 
			<polygon points="407,272.5046387 415.3334961,252.5043945 407.5,252.5043945 402,272.5046387 "/>
			<polygon points="409,423.0092773 418.6669922,400.0087891 408,400.0087891 402,423.0092773 "/>
			<polygon points="411,573.5 422,547.5 408.5,547.5 402,573.5 "/>
			<polygon points="413,724.0043945 425.3334961,695.0043945 409,695.0043945 402,724.0043945 "/>
			<polygon points="415,874.4956055 428.6665039,842.4956055 409.5,842.4956055 402,874.4956055 "/>
			<polygon points="417,1025 432,990 410,990 402,1025 "/>
			<path d="M31.8334961,177.5046387h-7.2668457C9.4709473,189.6416016,2,205.4033203,2,225.0046387
				s7.4709473,35.3630371,22.5666504,47.5h7.2668457c-16.2722168-12.2712402-24-27.6286621-24-47.5
				S15.5612793,189.7756348,31.8334961,177.5046387z"/>
			<path d="M33.666748,327.0092773h-9.4333496C9.439209,339.3188477,2,355.4082031,2,375.0092773s7.439209,35.6904297,22.2333984,48
				h9.4333496c-15.6550293-12.8041992-23-28.1289063-23-48C10.666748,355.1376953,18.0117188,339.8134766,33.666748,327.0092773z"/>
			<path d="M35.5,476.5H23.8999023C9.4074707,488.9824219,2,505.3989258,2,525s7.4074707,36.0175781,21.8999023,48.5H35.5
				c-15.0383301-13.3374023-22-28.628418-22-48.5C13.5,505.1289063,20.4616699,489.8378906,35.5,476.5z"/>
			<path d="M37.3334961,626.0043945H23.5666504C9.3759766,638.6591797,2,655.4033203,2,675.0043945
				c0,19.6015625,7.3759766,36.3452148,21.5666504,49h13.7668457c-14.4213867-13.8706055-21-29.128418-21-49
				C16.3334961,655.1333008,22.9121094,639.8754883,37.3334961,626.0043945z"/>
			<path d="M39.1665039,775.4956055H23.2333984C9.3442383,788.3227539,2,805.394043,2,824.9956055
				c0,19.6010742,7.3442383,36.6723633,21.2333984,49.5h15.9331055c-13.8041992-14.4042969-20-29.6289063-20-49.5
				C19.1665039,805.1240234,25.3623047,789.8994141,39.1665039,775.4956055z"/>
			<path d="M41,925H22.8999023C9.3125,938,2,955.3989258,2,975s7.3125,37,20.8999023,50H41c-13.1875-14.9375-19-30.1289063-19-50
				C22,955.128418,27.8125,939.9375,41,925z"/>
			<path d="M126,225.0046387c0,19.8713379-7.7280273,35.2287598-24,47.5h7.2666016
				c15.0959473-12.1369629,22.5668945-27.8986816,22.5668945-47.5s-7.4709473-35.3630371-22.5668945-47.5H102
				C118.2719727,189.7756348,126,205.1333008,126,225.0046387z"/>
			<path d="M125,375.0092773c0,19.8710938-7.3449707,35.1958008-23,48h9.4335938
				c14.7939453-12.3095703,22.2331543-28.3989258,22.2331543-48s-7.439209-35.6904297-22.2331543-48H102
				C117.6550293,339.8134766,125,355.1376953,125,375.0092773z"/>
			<path d="M124,525c0,19.871582-6.9619141,35.1625977-22,48.5h11.6000977C128.0922852,561.0175781,135.5,544.6010742,135.5,525
				s-7.4077148-36.0175781-21.8999023-48.5H102C117.0380859,489.8378906,124,505.1289063,124,525z"/>
			<path d="M123,675.0043945c0,19.871582-6.5786133,35.1293945-21,49h13.7666016
				c14.190918-12.6547852,21.5668945-29.3984375,21.5668945-49c0-19.6010742-7.3759766-36.3452148-21.5668945-49H102
				C116.4213867,639.8754883,123,655.1333008,123,675.0043945z"/>
			<path d="M122,824.9956055c0,19.8710938-6.1955566,35.0957031-20,49.5h15.9333496
				c13.8891602-12.8276367,21.2331543-29.8989258,21.2331543-49.5c0-19.6015625-7.3439941-36.6728516-21.2331543-49.5H102
				C115.8044434,789.8994141,122,805.1240234,122,824.9956055z"/>
			<path d="M121,975c0,19.8710938-5.8125,35.0625-19,50h18.1000977C133.6875,1012,141,994.6010742,141,975s-7.3125-37-20.8999023-50
				H102C115.1875,939.9375,121,955.128418,121,975z"/>
			<polygon points="247.2368164,202.1088867 245.7949219,197.6706543 226.9335938,203.798584 226.9335938,184.0046387 
				222.2670898,184.0046387 222.2670898,203.8364258 203.4423828,197.7197266 202,202.1582031 220.8613281,208.2866211 
				209.2265625,224.2995605 213.0019531,227.0427246 224.6586914,210.9985352 236.2929688,227.012207 240.0683594,224.2692871 
				228.4121094,208.2248535 "/>
			<polygon points="248.7089844,353.2539063 246.7519531,347.2304688 228.503418,353.159668 228.503418,334.0092773 
				222.1699219,334.0092773 222.1699219,353.1967773 203.9570313,347.2792969 202,353.3027344 220.2485352,359.2319336 
				208.9921875,374.7246094 214.1162109,378.4472656 225.3945313,362.9243164 236.6503906,378.4169922 241.7739258,374.6943359 
				230.4960938,359.1713867 "/>
			<polygon points="250.1806641,504.3857422 247.7089844,496.7773438 230.0732422,502.5068359 230.0732422,484 222.0732422,484 
				222.0732422,502.5439453 204.472168,496.824707 202,504.4331055 219.6362305,510.1635742 208.7583008,525.1357422 
				215.2299805,529.8378906 226.1298828,514.8359375 237.0073242,529.8081055 243.4794922,525.105957 232.5800781,510.1040039 "/>
			<polygon points="251.652832,655.5307617 248.6660156,646.3369141 231.6425781,651.8681641 231.6425781,634.0043945 
				221.9760742,634.0043945 221.9760742,651.9042969 204.9873047,646.3842773 202,655.5776367 219.0234375,661.1088867 
				208.5239258,675.5600586 216.3442383,681.2421875 226.8652344,666.7612305 237.3647461,681.2128906 245.1850586,675.53125 
				234.6645508,661.050293 "/>
			<polygon points="253.125,806.6621094 249.6230469,795.8833008 233.2124023,801.215332 233.2124023,783.9956055 
				221.8789063,783.9956055 221.8789063,801.2509766 205.5024414,795.9296875 202,806.7084961 218.4111328,812.0405273 
				208.2895508,825.9711914 217.4580078,832.6328125 227.6005859,818.6733398 237.7216797,832.6040039 246.890625,825.9428711 
				236.7485352,811.9829102 "/>
			<polygon points="254.597168,957.8071289 250.5800781,945.4433594 234.7817383,950.5761719 234.7817383,934 221.7817383,934 
				221.7817383,950.6113281 206.0170898,945.4892578 202,957.8530273 217.7983398,962.9863281 208.0551758,976.3959961 
				218.5722656,984.0375977 228.3364258,970.5986328 238.0791016,984.0087891 248.5961914,976.3681641 238.8325195,962.9291992 "/>
			<polygon points="331.5,230.5046387 331.5,206.0046387 326.5,206.0046387 326.5,230.5046387 302,230.5046387 302,235.5046387 
				326.5,235.5046387 326.5,260.0046387 331.5,260.0046387 331.5,235.5046387 356,235.5046387 356,230.5046387 "/>
			<polygon points="332.5,379.5092773 332.5,356.0092773 325.5,356.0092773 325.5,379.5092773 302,379.5092773 302,386.5092773 
				325.5,386.5092773 325.5,410.0092773 332.5,410.0092773 332.5,386.5092773 356,386.5092773 356,379.5092773 "/>
			<polygon points="333.5,528.5 333.5,506 324.5,506 324.5,528.5 302,528.5 302,537.5 324.5,537.5 324.5,560 333.5,560 333.5,537.5 
				356,537.5 356,528.5 "/>
			<polygon points="334.5,677.5043945 334.5,656.0043945 323.5,656.0043945 323.5,677.5043945 302,677.5043945 302,688.5043945 
				323.5,688.5043945 323.5,710.0043945 334.5,710.0043945 334.5,688.5043945 356,688.5043945 356,677.5043945 "/>
			<polygon points="335.5,826.4956055 335.5,805.9956055 322.5,805.9956055 322.5,826.4956055 302,826.4956055 302,839.4956055 
				322.5,839.4956055 322.5,859.9956055 335.5,859.9956055 335.5,839.4956055 356,839.4956055 356,826.4956055 "/>
			<polygon points="336.5,975.5 336.5,956 321.5,956 321.5,975.5 302,975.5 302,990.5 321.5,990.5 321.5,1010 336.5,1010 
				336.5,990.5 356,990.5 356,975.5 "/>
			<rect x="502" y="230.5046387" width="42.6665039" height="5"/> 
			<rect x="502" y="379.5092773" width="43.3334961" height="7"/> 
			<rect x="502" y="528.5" width="44" height="9"/> 
			<rect x="502" y="677.5043945" width="44.6665039" height="11"/> 
			<rect x="502" y="826.4956055" width="45.3334961" height="13"/> 
			<rect x="502" y="975.5" width="46" height="15"/> 
			<polygon points="702,260.0046387 708.2167969,260.0046387 755.5,184.0046387 749.2832031,184.0046387 "/>
			<polygon points="702,410.0092773 710.8833008,410.0092773 757,334.0092773 748.1166992,334.0092773 "/>
			<polygon points="702,560 713.5498047,560 758.5,484 746.9501953,484 "/>
			<polygon points="702,710.0043945 716.2167969,710.0043945 760,634.0043945 745.7832031,634.0043945 "/>
			<polygon points="702,859.9956055 718.8833008,859.9956055 761.5,783.9956055 744.6166992,783.9956055 "/>
			<polygon points="702,1010 721.5498047,1010 763,934 743.4501953,934 "/>
		</g>
	</svg>
