<?xml version="1.0" encoding="utf-8"?>
<!-- Generator: Adobe Illustrator 11.0, SVG Export Plug-In . SVG Version: 6.0.0 Build 78)  -->
<!DOCTYPE svg PUBLIC "-//W3C//DTD SVG 1.0//EN"    "http://www.w3.org/TR/2001/REC-SVG-20010904/DTD/svg10.dtd" [
	<!ENTITY ns_flows "http://ns.adobe.com/Flows/1.0/">
	<!ENTITY ns_svg "http://www.w3.org/2000/svg">
	<!ENTITY ns_xlink "http://www.w3.org/1999/xlink">
]>
<svg  xmlns="&ns_svg;" xmlns:xlink="&ns_xlink;" xmlns:a="http://ns.adobe.com/AdobeSVGViewerExtensions/3.0/"
	 width="800" height="1050" viewBox="0 0 800 1050" overflow="visible" enable-background="new 0 0 800 1050" xml:space="preserve">
	<metadata>
<?xpacket begin='﻿' id='W5M0MpCehiHzreSzNTczkc9d'?><x:xmpmeta xmlns:x='adobe:ns:meta/' x:xmptk='XMP toolkit 3.0-29, framework 1.6'>
<rdf:RDF xmlns:rdf='http://www.w3.org/1999/02/22-rdf-syntax-ns#' xmlns:iX='http://ns.adobe.com/iX/1.0/'>

 <rdf:Description rdf:about=''
  xmlns:pdf='http://ns.adobe.com/pdf/1.3/'>
 </rdf:Description>

 <rdf:Description rdf:about=''
  xmlns:tiff='http://ns.adobe.com/tiff/1.0/'>
 </rdf:Description>

 <rdf:Description rdf:about=''
  xmlns:xap='http://ns.adobe.com/xap/1.0/'
  xmlns:xapGImg='http://ns.adobe.com/xap/1.0/g/img/'>
  <xap:CreateDate>2005-10-18T06:57:38Z</xap:CreateDate>
  <xap:ModifyDate>2005-10-18T06:57:38Z</xap:ModifyDate>
  <xap:CreatorTool>Illustrator</xap:CreatorTool>
  <xap:Thumbnails>
   <rdf:Alt>
    <rdf:li rdf:parseType='Resource'>
     <xapGImg:format>JPEG</xapGImg:format>
     <xapGImg:width>196</xapGImg:width>
     <xapGImg:height>256</xapGImg:height>
     <xapGImg:image>/9j/4AAQSkZJRgABAgEASABIAAD/7QAsUGhvdG9zaG9wIDMuMAA4QklNA+0AAAAAABAASAAAAAEA&#xA;AQBIAAAAAQAB/+4ADkFkb2JlAGTAAAAAAf/bAIQABgQEBAUEBgUFBgkGBQYJCwgGBggLDAoKCwoK&#xA;DBAMDAwMDAwQDA4PEA8ODBMTFBQTExwbGxscHx8fHx8fHx8fHwEHBwcNDA0YEBAYGhURFRofHx8f&#xA;Hx8fHx8fHx8fHx8fHx8fHx8fHx8fHx8fHx8fHx8fHx8fHx8fHx8fHx8fHx8f/8AAEQgBAADEAwER&#xA;AAIRAQMRAf/EAaIAAAAHAQEBAQEAAAAAAAAAAAQFAwIGAQAHCAkKCwEAAgIDAQEBAQEAAAAAAAAA&#xA;AQACAwQFBgcICQoLEAACAQMDAgQCBgcDBAIGAnMBAgMRBAAFIRIxQVEGE2EicYEUMpGhBxWxQiPB&#xA;UtHhMxZi8CRygvElQzRTkqKyY3PCNUQnk6OzNhdUZHTD0uIIJoMJChgZhJRFRqS0VtNVKBry4/PE&#xA;1OT0ZXWFlaW1xdXl9WZ2hpamtsbW5vY3R1dnd4eXp7fH1+f3OEhYaHiImKi4yNjo+Ck5SVlpeYmZ&#xA;qbnJ2en5KjpKWmp6ipqqusra6voRAAICAQIDBQUEBQYECAMDbQEAAhEDBCESMUEFURNhIgZxgZEy&#xA;obHwFMHR4SNCFVJicvEzJDRDghaSUyWiY7LCB3PSNeJEgxdUkwgJChgZJjZFGidkdFU38qOzwygp&#xA;0+PzhJSktMTU5PRldYWVpbXF1eX1RlZmdoaWprbG1ub2R1dnd4eXp7fH1+f3OEhYaHiImKi4yNjo&#xA;+DlJWWl5iZmpucnZ6fkqOkpaanqKmqq6ytrq+v/aAAwDAQACEQMRAD8A9U4q7FXYq7FXYq7FXYq7&#xA;FXYq7FXYq7FXYq7FXYq7FXYq7FXYq7FXYq7FXYq7FXYq820Dy/5U80635gPmy1t9a1+y1G4h/Rmp&#xA;Ik6Wlkjn6kYLaUFFSW3ZJDKEqzMw5GmKorRbDRND/MePRfKwW3099OuLjXdItifqlrKJYRZyLED6&#xA;dvJKGmHBAOarWnw1xVn+KvPfLnlXQ/OMV55h812kOuSzX99b2VlfItxa2dvZ3ctrHHFbycohIRDy&#xA;kfjyLEivEABVXg0ix8oeddGs9CX6nouvrdQXOixEi1int4vrEdxbw14wfCjpIIwFaqmlRXFWd4qg&#xA;9M1NNQS4dLe4t/q9xLbEXMTwlzC5QyRhwOcb0qjjZhuMVRmKuxVBxamkmqz6aLe4V7eKOY3LROtu&#xA;4lLAJHMRwZ14fEo3FR44qjMVdirsVSHVPO/l7T9Wh0Uztd61OyAaZZI1zcIjkD1ZkjB9GIVqXk4r&#xA;iqfYq7FXYq7FUj1Xzp5e0fVYtN1e4bTnuAv1W7uUeO0ldiR6a3JHoiTb7DMGPYHFU8BBFRuD0OKu&#xA;xVIdd8keXtf1CK61yBtSghj9OPTLl2ew5ciTK9qf3UkhrTlIGoBtTeqrGdV8t+W/KvmXyw/lazh0&#xA;a+1LUDa3Gn6eiwQXVoLeWSdpbeMLGfS4K4k48gaLWjUKr0TFXYq828seS/LfnO1j83+abVdY1W7e&#xA;4FtHcktDZQJM8aW0ENeCMirSRqcmetTSgCqIt/Lml+R/N2hW/lpfqGkeY7m5tL/Q0Ym3EqWc12l5&#xA;DGSfSYfVfScJRW5io5AHFXoOKsRbyz5n0fUr658rXtoLDUp3u7nStRjkaOK5l3llt5omDIJW+N42&#xA;VhyJZStSCqx/QbHXtX/Nk6jq2oRXv+GrCa3khsY2isra6v2jZYFLu7yzCCIvMzbUeOirvyVenYq7&#xA;FXYq7FXYq7FXYq8485XPmtPMU6a1Ne2PkIKnpXWgoXuGJQeqL+VOV3BHzrxa1QUXd5F6Yqyvyda+&#xA;TYtGjl8pLZnSrg8xPYlHWV/2neRSTI/8zMS1euKp5irAvNlzoya3Mt1qPmm3mCpyi0mx1Se0Hwin&#xA;CS1tJ4if5qP164qlUV55e9VKav53J5CgfTNbC9f2ibACmKvUsVUb23srmzmgvoo5rORCLiKdVaJk&#xA;p8QdWqpXxriryiK4eC6Fv+UE815HHIEubSXlN5bjAajhLiRlaJlGwSyd1B+1Hir13FXYqw78u9Cl&#xA;NjF5s1uCQ+a9cgWe8a5VhLaQTH1Y9PjR94EgDBXQAcnBZqtirMcVdirFZ/IQhv7m+0DWr/QJL2Rp&#xA;ru1tfq81pJM5q8pt7qKdY3Y7sYuHI7tXfFUTonky10/Ujq97fXeta16ZhTUdQaItFExBdIIoI4II&#xA;gxUcuEYLUHImgxVkOKpPr/l+71d4lTW7/TLVQRPb2DQRGav80zxSTpT/AIqdD74qidD0HR9C06PT&#xA;tJtUtLOMlhGlSWdzV3d2Jd3c7s7Esx3JxVH4qg9M097FLhXvLi99e4luA1yyMYxK5YQx8FSkcdeK&#xA;A1NOpOKozFXYqkOh2fmEeYNfv9TmYWE00MOi2IcMiW8MK+pMQvR5p3eoP7KriqfYq7FXYqxy58ha&#xA;C2sfpvT/AFdH1ZnV7m609/RFzxIJW6ho0M/IbcnQsB9lgd8VZHirsVdirsVSDW/JWka9fCfWnm1C&#xA;xRVWPRpZKWHIEkySQKFEzGv+7i6j9kA74qnkMMMESQwxrFDGoWONAFVVAoAoGwAxVfirsVQuk6f+&#xA;jtKs9P8ArM959Tgit/rl2/q3E3pIE9SaSg5yPTk7U3OKorFXYq7FXYq7FXYq7FXYq7FXYq7FXYq7&#xA;FXYq7FXYq7FXYq7FXYq7FXYq7FXYq7FXYq7FWBal+arNr99oPlXy7qHmjUNLcRanNatb29nBKRyM&#xA;LXN1JEhlA6qtafPFUX5V/Mu11jXZfLWq6Te+XfMsUBuhpt+IyJoAwVpbaeF5IpVVjQ0NfbFWZYqw&#xA;XWPzT4eYbvy75Y0C+806tp3Ean9TaCC1tmdeQilurmSKP1Cu/Ba+++Koryn+ZNnretXHl3UdMvPL&#xA;3ma2hFy+k6gI6yQV4ma2mhaSKaMN8JKnr2xVmGKuxV2KuxV2KuxV2KuxV2KuxV2KuxV2KuxV2Kux&#xA;Vifmvz/+hNTh0XTtD1LzBrc8IuEtLCICKOJmZFee6maKCIM0bD7Rb2piqXaX+asg8w2Xl/zV5cv/&#xA;ACvqGqMY9Llumt7m0uJFXl6K3NtJIiykdFbr89sVZ7irsVeG+W/NWseVvPPnDQ/LGhzectHuNWn1&#xA;O9udPYRSWF9d8WubSV7gR28pVhyASXkvRh4Kovyxr2o+bPzltLnzPYt5Vv8Ay9YXK6F5fueTXV2L&#xA;zgtzdeuFWB40WMKI42cg1Jpir2fFXkv5R63pOgax5t8n61cR2HmEa7famkdywja8tL6T1ILmIuR6&#xA;nw/C1CSpFDiqG8xebNB1z8//ACBpmiXUd9c6RFq82qz27CSOOOez4JEzpyHLmqsy12+HxGKvY8VS&#xA;Ty3pvmeym1Ztc1hdViur6WfSkW3jg+qWbn91bEoB6pT+dtziqd4q7FUkj03zOPOMmovrCt5Zax9C&#xA;PQvq8YZbz1Q31n6xT1CPTBTh03riqd4q7FWLebfzM8neVpUtNRvfW1aan1bRbJGur+UkVHC2iDSb&#xA;/wAxAHviqR219+b3mq4hlhtYPJGgc1djdhL3V54wa8fSU/V7bmvwnkXdcVei4qxHzD+ZFnoeqyad&#xA;LoOv3zxBWNzp+lXV3btzUNRZolKEitD4HFUu/wCVyad/1K3mv/uBX3/NGKs/xVh/my3/ADPtdTGq&#xA;+VLqx1CxESrceW9QQwc2UktJb3sfJkkcUXjIrJ8sVQWj/nH5elv49H8zW9x5Q1+TZLDWAsUUpHX6&#xA;tdqTbTDw4vU+GKs9BBFRuD0OKuxV5XqV/L+ZHnHSLTQ4yfK3lDV1v9U15qCO4vrNHRLSzB3kCvJ+&#xA;9k+z2BPdV6pirsVeL+Q/N1h+WdnfeU/O1tdaZJDqF7dWeui2nntNQiurhp0l9a3SRVlAfiyMBSgx&#xA;VFNrA/MT8yvKWp+W7G6OgeVpLy6vfMVzbyWsUrXNuYFtrX1ljkl5E1kIHEADrtir17FWA/mhqf5Z&#xA;wfVLLzdon6fvp1Z9N0+PTX1G4fiQG9IrG4Tc71dcVSz8qvI17Drt55x1TRbfy361uNP8veW7ZY0F&#xA;lYc/VkecRAR/WLhwrPT7IAFfBV6jiqT+X/NOna7LqkVnFcRtpN5Lp9ybiFoQ0sJozRFvtp4MNjiq&#xA;cYq7FUktfOGj3Xm6+8qwGR9U022iu70hP3MaTmkamT+dhuF8MVTvFXYqwDzF+VTzeZ7vzj5U1qfy&#xA;75qvUjjvZuC3dldLCixos9rL4IiqGjZSOvXFVG1/MPzfoVzDY+ffLrwxyukUfmPRA97prM54gzR0&#xA;+s21WIHxKy/5WKvRcVYj5h0D8yLzVZJ9D822uk6cwURWUukreOpCgMTMbmHlybf7O2Kpd/hT85f+&#xA;p/sf+4Cv/ZbirP8AFWH+bPzAutK1QaFoWgX3mLX3iWb6vAvoWkKOSEa5vZuMMYYqdl5N/k4qx2+/&#xA;K/zX55jC/mXq8f6HLiQeVNFDRWtUNUM944+szHxC8BXpir1CKJIokijHGONQqL4ACgGKrLwhbSdi&#xA;WUCNiWj+2PhO6+/hirGvyr0vSNL/AC70Gz0gXI01bVZLf66ix3JExMpMyLsHLOS3virKsVdirsVd&#xA;irsVdirsVdirsVdirsVSjSPK2kaTq2s6vaox1DXpo59RuHbkzGCIQxIPBERfhHucVTfFXYq7FXYq&#xA;7FXYq7FXYq7FXYq7FXYq7FXYq7FXYq7FXYq7FXYq7FXYq7FXYq7FXYq7FXYq7FXYq7FXYq7FXYq7&#xA;FXYq7FXYq7FXYq8G0hPOf5qeevONtc+bdQ8teXvK+oyaVa6Voki2t1IY2ZfXln4s9JPTqKgjrSlN&#xA;1UVoF/5y8i/nRo3kK78yXPmny/5jsri5gOpFZL6ze3jkfk8wHJ0f0eIrtv0BG6r2/FXhOkt51/Nz&#xA;zb5mceZdQ8r+TPLmoS6RZ22iuLa7uZ4D+8lkuSGZeqnjSlCBQEElVGaPfedfy8/NXQvJ2q69c+Z/&#xA;K3myG5/Rd1qNHvrW5tE9R1eYAGVGBXr/ADdBQ8lXtWKpXpPmjy7rF7qFjpWpW97eaTJ6Gp28Eiu9&#xA;vLyZeEqj7J5RsKHwOKppirsVS2bzL5fh16Dy/LqECa5cwm4t9NaRRO8I5VkWPqV/dtv7HFUyxV2K&#xA;uxVKvMPmry35ctVutd1K306GRuERuJFQux/ZjU/E7eygnFU1xV2KuxV2KpW3mny4mv8A+Hn1K3j1&#xA;z0lnXTnkVZ2ickB0RiC4+E/ZrTviqaYq7FWDeevJvnrzLrNtHpvm2by35ajt/wDS4dPjUX01zzO4&#xA;uGH7tAlOnft3CrznzHa+dvyn81+UJbDzfqnmXRvMGqxaTe6Prcgu5uM7AepDLQNVa9gN6VqDTFXv&#xA;+KuxV82+TvJVx+bXnLzH5+i1a78oWMF9Lo9unl+Q2l9dLbBSZrqcFhyYMu3D9QJVRmk+WLn8qPzr&#xA;0MT3snma189LPZLq2pky6ray24V+Prk/HG/JK7D/AIUVVfQ2KvF28lfml5B85a7q/kO0s/MHlzzL&#xA;cNf3mh3c/wBUmt7xyTI8UhHDgxP3UFNqlViWgXHn3zl/zktpL+Zo7S2PlGxmup9M0+QzxWZuEaNI&#xA;ppzs87tIjNx24gdw2KvpXFUr0nyv5d0e91C+0rTbeyvNWk9fU7iCNUe4l5M3OVh9o8pGNT4nFU0x&#xA;V2KpbN5a8vza9B5gl0+B9ctoTb2+pNGpnSE8qxrJ1C/vG29ziqZYq7FXgf5qfm15xs/zDl8kpqdr&#xA;5E0Nki9Dzbf209w10ZIkdxbMU+rJwZyjF22K/aB2xVlvkz8kPy8t5ofMl7PJ501mYCRNf1WcXwah&#xA;2aFatCoBHwmhI/mxV6firyP8wpZF803IX847XygOEX+4KYadzi/dj4j9YkST959rcd8VY5603/sR&#xA;Nj92j/8AVbFXu+nf8c+2/wBJF5+6T/SxSk3wj94OPw/H12xVjnnf8rPInnaNf8Q6VHcXcahYNQjr&#xA;DdxAHkvCePi9AdwpJHtirxLzD528yflVq0Oj+V/OiefFaQQp5Qv0kvdTiANOKXdorHkv8svGg6Kc&#xA;VfSNhcTXNjbXE0Jtppokklt2NWjZlBZCaDdSadMVbvLqKzs57uavpW8byycRVuKKWNB3NBirx38n&#xA;9Cv/AD5c2/5sec+cuoPLcL5X0Vqi2022SQw81jIHKZyh+Nu1D4UVe0Yq7FXktz+S3mbRfMOpax+X&#xA;Pm5/LUGsTNc6jo1xaR31mZ33eWJZGX0yT4D2rxoMVRXlf8m9UTzlb+dPPPmWXzTr9gjR6TGIEs7O&#xA;0DgqzJBGWDPQ/a28SCQCFXqGKsM/MDyn588wy20Hl7ze3ljTeDLqKwWkc9xKSdjFM7K0W21VxVEf&#xA;l3+WvlvyHpMtjpCyTXN3J6+pandN6l1dTGp5zSUFacjQdBU9ySVWV4qxfyl5Y8zaPrXmG+1bzLLr&#xA;dlqtz6+l6fJAIl0+L1JW9FHEknqDjIi1ov2PfFWUYq7FXmmg3PnbV/zt8wyzTXdp5L0G0gtLO0dD&#xA;HBd3kyh3mUsPjEdXUkHrxxV6XirsVQup6Vpmq2UljqdpDfWUwpLa3MayxMP8pHBU4q8xm/IS20XU&#xA;Dqn5ca9eeULlpBJPp0bG60yahHIPayk0LUpyB+HsMVesYqkOrfl/5D1i+e/1fy3peo30gUSXd3ZW&#xA;88rBRxUGSRGY0AoN8VQf/Kp/ys/6k3Q/+4bZ/wDVPFWUQwxQxJDCixxRqEjjQBVVVFAqgbAAYqwL&#xA;zz+WOr+ctbX9Ieab+w8pLCiSaBppW3aeWrGRp7kVdkYcRwp22IOKp75P/LzyV5OtPq3lvSLfTlIC&#xA;yTIvKeQD/fkz8pX/ANk2KsixVRvoJp7K4ggmNtPLG6RXAHIxuykK4FRXid+uKpd5S0jVtH8u2Wm6&#xA;vqz65qNurLcarLGIXmJdmBKBpONFIX7R6Yqm+KuxV2KuxV2KuxV2KuxV2KuxV2KuxV2KuxV2KuxV&#xA;2KuxV2KuxV2KuxV2KuxV2KuxV2KsC86/nn+V/kzUv0XrutLHqSgGSzgjluJIww5D1PSVwlRQ0Yg0&#xA;INKYqifIv5x/lz55nktfLmrpc3sSl3spEkgn4DYsqSqhdRUVK1p3xVmmKsI88fnT+Wvki7Wx8w6w&#xA;kGoMA31KJJLiZVO4Z0iV+AI3HKle2KojyJ+bX5f+e/WTy1qyXdzbjlPaOjwzqlac/TlVGK7j4lqN&#xA;/HFWX4q7FXYq7FXYq7FXYq7FXYq7FXYq7FXYq7FXYq7FWJeefzW/L/yN6a+ZtXisriZfUhtArzTu&#xA;hJAYRRK78SVI5EUr3xVJ/KX/ADkF+U/mvV4tH0nWx+krg8ba3uIZrf1W/lRpUVC3gtantir0XFXY&#xA;q+TNN8zeVPym/PLzs/n20XUZNbnN5pWqQLDdyW8U8skxSSLlziMiyKDsD8AoOJriqL8pat5f/Mr/&#xA;AJyT0vzL5JtV0vS9DtGfVJ5PRt57tuMsfNbdSWcMJVQtTZftU+HFX1Rir5n/ACQm8vR/nn+YzebG&#xA;iXzcL9zpMl8VDC3E0vP6uX7+n6VKb8Kcdq4qp+ebvy5B/wA5UeSW8pvbpqUlI9eNmQEb1DIGWX0/&#xA;hMhhJrXenGuKvpzFXn3krzX+Zup+e/MGleYfLqab5asXuBo2qqHDXKx3HpwklnZfjh+PZRir0HFX&#xA;Yq8+81+a/wAzbD8x9D0bRPLqX/lK8SA6trLBy1u0k8iSgEOq/BGqNup64q9BxV2KpD5s8++TfKNr&#xA;9Z8yavbaZGRyRJn/AHrgf77hXlLJ/sVOKvKJ/wDnIPzf5tla0/KfybdauhYode1NTb2KkGhoOShv&#xA;9lKrf5OKvdcVed+cfz//ACw8n6/PoOvajLb6nbqjyxJbTygCVA6/Eisv2WxVJP8AobD8kv8Aq7z/&#xA;APSHc/8ANGKvU9G1ax1jSLHV7BzJY6jbxXdpIVKlop0EkZKtQiqsNjirz38xvzC/Mnyd5hS5s/KD&#xA;+Y/JbQIZ7mwYm9gn5N6lYx6hZAoUj4AP8rFUV5I/P78r/N7Jb2OrLY6m54nTNRpa3HL+VeZ9ORvZ&#xA;HbFXomKpNqXkzypqmtW2t6lpNte6rZxGC1uriNZWjQtyIQPVQa/tUr9+KvAfzag0T8wfzX8seWfI&#xA;1lFcax5evBc+Y9bto1SK1hjkQ+lJMoHNkKMaV2b4R8Rair6XxV2KvlP8ovN3lT8vvzK862v5kj9H&#xA;eaL6/aa01m6hd1eJpJCfTkAkaNZOQcN9lh1PwjFVbVvMflzz5/zkf5Pv/wAuIWuH0xvV8w6zbwvD&#xA;FJDyJf1CyoTSPknNh8XIKK7Yq+psVeJfn7Y/849RXMV1+YkJj1yWHnayWa3C3c8aHiByhHpvSlB6&#xA;p29sVYR/zjp+VsV/+YEv5iW2iS+X/KdjG0fliyumd553lQxNcO0hYsODOSfs8mATZcVfUmKsI8pf&#xA;m95U80+ctb8o6Yl0uq6A06XzTRqkJNvP9Xf02DsW+PpUDbFWb4q7FWG6p+a3lrT/AMxNP8gNFdXG&#xA;v6jEJ4xBGrQxoRIxMrl1K8UiLH4TtTFWZYq7FXz5+af5Deb7z8x7z8xfLSaTr89wITJ5c1qCsR9C&#xA;COEBGZvTct6VfiKUr1xVM9I/5yTsNDuINE/Mfyze+Sr1QI4pvSaawYKKVjZFDcfDgrgfzYq9wxV5&#xA;X581r85LXzNcQ+WfIFhr2jqsZh1O4u7WGR2KAuCksqMOLVXpirHv8S/85F/+Wn0r/pPsv+q+KvZ9&#xA;Bl1GXQtOl1O0Sw1KS1ha+sY2V0gnMamWFWUsrKj1UEGmKsI/Mn88/KHkXUItGuIbvVPMdzGstro1&#xA;hC0krq5IQljRACVPQlvbFXknmf8ALb80/wA6LyK81TytpXkXTOXP69cx+rq8ifyuVCO1P5XEfffF&#xA;X0joGlDSNB03SRKZxp9rDaicjiX9CNY+RWppy41pXFVnmacW/lvVrhrtrAQ2dxIb5UMjQBYmPqhF&#xA;KlilOXEHfFXnf/ONflvypo35cJL5c1I61b6hdTzzas9q1nJM6N6XFopGkcBOFB8Xie+KvVsVdiqX&#xA;ax5c8va3GsWs6XaanGleCXkEVwor1oJFbriqppWiaLpEBt9JsLbT7cmphtYY4EJ8eMYUYqjcVQN7&#xA;oWh391Bd32nW11d2tRbXE8MckkYO54OwLLX2xVHYq7FUBZ6BoNjfT39lptra310WN1dwwxxzSl25&#xA;sZJFUM3JtzU9cVR+KuxVgehflXDp/wCamvfmHeah9evtWgitbG19H01s4UVEYB/Uf1C/pLvxWm/j&#xA;irPMVdirsVQup6Vpeq2UljqlnDfWUopLbXMayxMP8pHDKcVRWKuxV2KuxVDLpemLqD6ktpCNRkQR&#xA;SXojX1mjWpVDJTlxFTQVpiqJxV2KrJoYZ4ZIJ41lhlUpLE4DKysKMrKdiCOoxVR07TNN021W0060&#xA;hsrRCSlvbxrFGCxqSEQKoqcVROKuxV2KuxV2KuxV2KuxV2KuxV2KuxV2KuxV2KuxV2KuxV2KuxV2&#xA;KuxV2KuxV2KuxV2Kvm3VPzk/OPzx+Y+seUfywt7Oxs9DkljudQvFVmb0JPRaR2kDqqvJ9hFQtTc9&#xA;6Kojyn+cn5seWvzS078vvzOtrS5fWOAs9RtFVW/fMyQuPTojRtIhQgorDr23VfRWKvnXzF+c/wCa&#xA;vnD8ydS8j/lXb2lvFozSJfaveKr1aB/Tkarc41j9T4FARmb7XToqq+T/AM5/zO8ufmfZfl5+adta&#xA;yTar6a6dqtooSrzErCfgojxvIvp/YVlbrir6FxVSjvLSSVoY543mWvKNWUsKGhqAa7Yqq4q7FVKW&#xA;8tIXWOaeON2+yjsqk9tgTiqrirsVdiqncXFvbQPPcSpDBEC0ksjBEVR1LMaADFV6srKGUhlYVVhu&#xA;CD3GKt4q7FXYqprdWzXD2yyo1xGqvJCGBdVevFmXqAaGmKqmKuxV5b+beu/nhBrWnaP+XOkWs9te&#xA;W7S3esXIBEEiPxKkuyRL8JUioYtvQbYq8u1783vz/wDys1/Sj+Yi2Gq6FqTlWktUjB4RlfW9JohC&#xA;yyIHBAdKHt7KvqPFXYq+M9KsvN/mz89fNOpfkvN/h70HlOp393MrW0rvKQ7+l6M3wzSoXVCj9K1X&#xA;oFVfR7fzF5T/AOcj9Ef832bW9Zv/AEU0fVLeYG1jed2hgkEXpR/AkpK8aJwPx0PdV9i4q+Wrzy3+&#xA;af5Qfm3rvmny35am81+W/MUksj29oJJJFE83r+mREsskbxOSAxRlKnx6KsQTzP5t/Mz/AJyX8qvr&#xA;Ojvol1pVzbMukty9W3gs2N83rF1RuZ3Jqq9hTFX2piryvyV+Q1p5X/NLWvP0esSXU2sveyNp7QBF&#xA;j+u3AnIEgdi3ClPs74q9UxV2KvKvzS/Ia08/ecdG8yzaxJp76OkUa2yQLKJPSnM1SxdONeVOmKvV&#xA;cVdir55/Nr/nIXzlpX5hXX5eeUdP0+DUYPRQ6vqlzHHGTcW6TgoJWgiQqJafG7cj0XFVK1/5xw89&#xA;edJItR/NPzxPqML0lXS9Mb9wA3xAozKsKdf2IPk2KvoiCFIII4Y/sRKEWu5oooMVeT/mF5b/AOck&#xA;b7zTc3PkjzVpel+XGSIW1ldxI0qsIwJCS1lcn4nqR8ZxVjf+Df8AnMn/AKnvQ/8AkTF/3jMVe1+V&#xA;7fX7fy7psHmK5jvNdit411O7gAEUlwF/eOgCRChbp8A+WKvOvzW/IK387a/F5p0vzBe+XvM1tAtv&#xA;b3VuaxcYyzLshilVqv8AaWT6MVeYa5+an55/k3dw2Xm690nzdprELETcRpfcKVGw9O4+bvC4/wAr&#xA;pir6V8ra4mv+WdI12OI26atZW98sDHkYxcxLKELACvHnSuKonVtTtNK0q91S8bhZ2EEt1cuNyI4U&#xA;Luf+BXFXzP5A0nWP+cgfOJ89eayLbyf5cujb6PocW4eQcZmSRuvT0zK1Pj2UUA2VfUWKuxV833v5&#xA;Efm35J87ap5k/KrWLMWWrOz3GmXvwsA7l/SIdHjdUZjxbkrAbeNVVby3+Q/5neY/zG07zx+aesWs&#xA;76TJFLZ6dZ/Ea27+rFGeKRxJGsh5GnItuD1rir6KxV5h+buh/nfq99ZWv5e61a6PpcsDpqc1xxWQ&#xA;ScvhKP6M0oqp/Yp0xVT/ACa/InTPy+e61e+vX1vzZqIIvdVlB+FXbm6RhizfG27uxq3tir1PFXkv&#xA;kfyb+cWnfmxrmteYNc+ueTbqS+Ol6b9all9JZrgPbD0WUIvCL4djtir1rFXYq+evMHmHzp5o/wCc&#xA;n7bylomsXlh5e0GCCfW4LWV44pFjAuH5hSK+o08cJxV9C4q7FWEeevyX/Lfzuzz69o8T6g4AOp29&#xA;YLr4QFXlLHTnxVQAH5ADFXlUv/OPv5r+R2a4/KvztMbRasNF1Mjge9BVZLZ2PiYk+eKvoi29f6vF&#xA;69BPwX1QOnOnxUp74q8o/ML/AJxl8h+e/NNz5l1e/wBUgvrpIkkjtJbdIgIYxGtBJbyt0Xf4sVY3&#xA;/wBCVflZ/wBXXXP+kiz/AOyTFXtflfy9ZeW/Lum6BYvJJZ6Xbx2tvJOVaVkiXipcqqKTtvRRirzb&#xA;81PJP51ebfM6WPlzzMnlryaLaP6xNESLp5yz+pw9ILKRx47GVF+eKofyd/zip+WGhSi81aKbzNqZ&#xA;PN59SasJc9T6C0Rq/wDFnPFXsNtbW1rbRW1tEkFtAixQQRKEREQcVRFWgVVAoAMVQXmSHV5/LuqQ&#xA;6M0aaxLZzpprzgGIXLRMITICGBUPTlUHbtiqQ/lbp/n6w8tPB55ms59aNzIyvp6IkPoFV4CiRwjl&#xA;UNX4cVZfirsVdirsVdirsVdirsVdirsVdiqDttF0e1vp9QtrC3gv7r/eq7jiRJpe/wC8kUBm+k4q&#xA;jMVdirsVdirsVdirsVdirsVdirsVdirsVdirsVSbzD508oeXAn6f1qy0oyCsSXdxHC7itKorsGb6&#xA;Birfl/zj5T8xo7aBrNlqoj3kFpcRzMn+uqMSv04qnGKpVr/mzyv5dhSbXtXs9Kjkr6TXk8cPMjqE&#xA;DkFvoxV2gebPK/mKF5tB1ez1WOOnqtZzxzcCegcISV+nFU1xV2KuxV2KuxV2KuxV2KuxV2KuxV2K&#xA;uxV2KuxV2KoDWNf0LRLcXOs6la6ZbE0E15NHboT4cpGUYqlehfmP5A1+7FnovmLTtQvDXjawXMTy&#xA;kAVJWMNyNPYYqyPFXYq+FL+x8t3f/OQ+vQfm/c3Vppr3d0ySsZFDL6n+hqWQM6wGGnEr2puBiqt5&#xA;bsvLtp/zkhoMP5S3N3eaKl5am4lHMgW5YfXlDOFZoRDyqX/HbFX3Lir4m0rSNO/M3/nJjWtM89Xk&#xA;qWsd3fQ21oZDGXFnKY4LRGO6jgKnjuaHua4qt1zStL/K7/nJTRbHyReuLNrmyjurf1fV9NbuURXF&#xA;pI1asCnxUbcVHcA4q+28VeReXv8AnIvRda/NiX8uYtIuYb2K8vrE37SRmItYLKzNxHxUf0DT54q9&#xA;dxV2KvJ/zf8A+chNG/LPXLLSb7SbjUJL22+trLBIiKq+o0fEhu/wYq9UtZxcW0U4HESorhT1AYVp&#xA;iqpiqA1vzBoWhWTX2tahb6bZrWs91KkSVArQFyKn2GKvGPOH/OYP5baQXg0GK58x3g2Qwqbe2LeB&#xA;llHPr/LGRir2zSrx73S7O9kj9F7qCOZ4uvAyIGK706VpirDPNn57flV5S1ubQ/MGufUtUt1Rprf6&#xA;reS0Eih0+OGGRDVWB2OKpP8A9DR/kT/1M3/TjqH/AGT4q9D8t+ZNF8y6Ja65olx9b0u9VmtrjhJH&#xA;zCsUPwSqjj4lI3GKvM/zJ/5yN0P8vfPMflzXNJuZbKW1iul1K1ZHYGR3UqYX9PZeFah6+2Kst8nf&#xA;m/8Alv5wVF0LXbae6kpSxlb0Lqp7ejLwdvmoIxVmOKvMfzR/ILyt+Y/mTS9Z1q7uIE0+3e2mt7Xi&#xA;rTqX5xAyMG4BGZ6gLU8uopuq+YPzt/Lzyf5Z/MLRvLf5aTXVzr5IF1aRymZ4bsyKbcI6gFZOpYV+&#xA;HY7Yq+6bdZlt4lnYPOEUSsOhenxEbDviqpir4S8v33lHXPzz1x/znuJfqiSXkaxzyTrHHcxzgRQs&#xA;0XF0iROfECgrTFV9ze+V9G/P/RB+TVxOdOkubOF44nmaKSR5eNxErS1keAx05cqj7VNgMVfdWKvm&#xA;n/nI38vPyKXXTrHmLXbjy55i1CIztDaQtci64/AJDCEIDVWleag9998VeW/846fls3mj81rbWdMg&#xA;uB5S8u3S3hvboKHaSD47aM8Pg9RpArsq14r3OxKr7oxV455c/Mf8kr383pvLeleXI7fzul7fwSas&#xA;NOtY2NzbrMbqT60p9U+oI5Pi6tXfrir2PFXYq8h/Nz8wvyZ0TzVYaN5y8uJr+u3FvG1n/uOtr91j&#xA;lldI4w0x5As6tRR/HFXrkaqsaqq8FUAKgoAoA6bbbYquxV8df85Gflr56l/NfUPN0vl2817ynL9V&#xA;MaWkhY8IrWKOVGEXqywr6iMS3CneuKsg/KP86/8AnHLRGjgHlg+UtSU8TfTxG/IY7EfW6PcDfrVF&#xA;XFX1Db3ENzbxXEDiSCZFkikHRkYVUj5g4q+Y/wA8/PH5JaV+ZGoWXmryNLretRxW5n1FLl4g6tCp&#xA;QcQ6j4VIHTFWAf8AKzf+caP/AC2E/wD0mSf9VcVfV35Qaj5e1L8t9EvfLunNpOizRSGz05nMhiUT&#xA;OGBYliasCevfFUj/ADe/Nb8ofLMZ0bztGmp3MkYnTRjaC7do3JAakgEK1Kn7TjFXybruh2P5kavX&#xA;8q/y9vtOjWQiWeOd5YGJ3+MOPQt/kJaYq+3Py30nVtH8g+X9L1gEarZWEEN6C4lIlRAHBcFg2/cH&#xA;FUZ5xnuLfyjrc9tex6bcQ6fdSQ6jNX0rd1hYrPJQMeMZ+I0B2GKvFf8AnFv8tfLmkLrPmRNZ0/zR&#xA;q8s4t01OzMsnoKU5yLymRGEkperGnSm/XFX0DirsVYZ5w/Jv8svON59d8xaBBeXtAGu0aW3mYKKD&#xA;nJbvE70Gw5E4qu8nfk/+Wvk26N35c0GCyvKFRds0k86htmCyzvK6gjrxOKsxxVivm/8AK3yD5xv7&#xA;K/8AMukR6ldaerJaNJJMqqrkMVZEdEcVH7YOKp/pWkaVpFjFp+lWcNhYwikVrbRrFEtdzREAUYqi&#xA;8VYjp/5Sfl3p3mx/N1loscPmN5p7l9QEkxYy3QcTPxLlPjErfs98VZdirsVeIXH5J+Yta/5yGP5g&#xA;a61q3lywEb6XapIzzGS3iVIeaFAFpLyl+11AGKvb8VdirsVYp5w/Kv8AL3zgjf4h0K1vJ2FPrgX0&#xA;rkeFJ4ikv0cqYqyWxs4bKyt7OAEQW0aQxAmp4RqFWp+QxVqbT7CZzJNbRSSHq7orHb3IxVZ+idK/&#xA;5YoP+RSf0xVERRRRII4kWONfsooAA+QGKsV1r8qfy+13zMvmXW9Fg1PVkhS3jku+UsSxxlmUegxM&#xA;R3c7lScVZRb29vbQJBbxJDBEAscUahEVR0CqKADFVTFUNqem2Oqabd6ZfxCexvoZLa7gJIDxTIUk&#xA;QlSD8SsRscVSryf5E8p+TbGax8tacmm2lxL680SNI4aTiF5VkZz9lRiqfYq7FXYq7FXYq7FXYq7F&#xA;XYq7FXYq7FXYq7FXYq7FXYq7FXYq7FXYq7FXYq7FXYq7FXYq+cPzF/5y4l0jzVd+WfKOgDVrmyme&#xA;1ku53fjJPGSrpFBEObBXFOXLfsO+Ktfl9/zlzLqXmq18t+ctBGj3F3Mlql3C0gEU8hCqs0Eo5qrM&#xA;ftcvh7im+KvpDFXz9+av/OVUXlrzTP5U8qaN+nNVtZPq9zPIziMXINDDHFGpeVlOx3G+wriqH/Lj&#xA;/nLJtW812/lbznoX6DvrqVbWO6jZwiXDkKsc0MwDxhm25cjSoqKb4q+icVdirsVdirsVdirsVdir&#xA;sVdirsVdirsVdirsVdirx789Pz8vPyzv9O0218vtqlxqkLS291JMYoQyvwMYVUdnYVUkVHUYq8z0&#xA;/wD5zO8yWGqpb+avKSW9q7cnWBpYbhImNAwScESEUPdQfbFX1PY3trfWVve2kgltbqNJoJR0aORQ&#xA;ysPmDiqtir4F1bULzyv/AM5A6hefle0mtX8V9dfU4RamYGSYOLmBI0JaSOPk6hxx2Fem5Vas9Svv&#xA;M/5/afd/mj6mh3st9ai8hFq0PF4uAt4mRyGjjk4qDIeVAa9N8VffeKvhXzXF5m/Jz8/J/Nd7pRvr&#xA;P9IXd7p7SVSG6gvRKKLMFcLIiynsSrCtCOqqQa752vPzO/OrS9bi05LCfUb7T7eCyjf1SPTeONS8&#xA;nFOZ23PEbfLFX6E4q+ZrTyT/AM5Ir+drarNcap/gj9Py3AjOrobb9Gm6ZkH1X6zX0/Sp+79PptTF&#xA;X0zirsVeEf8AORflX88da1rSJfy5n1CKyitpFvxY6klgplMlV5K08HM8e9Dir13yRbaza+S9Atdc&#xA;Mja1BptpFqjTSCaQ3SQIs5eUM/NvUBq3I161xVOsVeAfm/8A85O6l5R843nkvy75d/SOt2xhQXE7&#xA;s0bPcQpMix28I9STaUD7a74qwaXSP+cvfzIJ+uSzeW9Lm/3VI40uNVP7LRx8rxh/rhsVfU3lnTbj&#xA;SvLmlaZcyCW4sbO3tppVqVd4YlRmBahoStd8VeL/AJsat/zk7bed7yLyHZ+t5aCQ/VZPSsWq5iUy&#xA;7zHn9uvXFWH/AKf/AOc2/wDq3f8AJDTP64q+gPytuPO9x5E0ybzxH6PmhvX/AEhHxiWlLiQRbQ/u&#xA;/wC54dP14q8v/O38ufzvvvOqebPy61Y28aWcVtJp0V21vI8kTOxLRyBbZ1PIfbbFWDw/85Jfnj5E&#xA;kjtfzF8rG7hLcVu5YmsZJCOvCaJXtn/2CYq+l/JXmm182eVNM8x2sL29vqcInjglILoCSKErUdsV&#xA;ROuzaFp1pL5h1aOFU0aCef69IitJBFx5TemxBZeSoKhetBir4+uo/Mf/ADkt+aLSWcS6V5Y0WNY2&#xA;uHAMkNo8hIL0rznmIYqv2RTrsSVX2ZYWNrYWNtY2iena2kSQQRjoscahFX6AMVV8VfG2tfkp+dX5&#xA;dfmXP5m8iWZ1S2M88mn3cXpSkRXPINDcQSMGqqvQtSh6gg9FVum/kr+d35k/mLB5i89WR0y2EsJv&#xA;ruf0ov3MFKRQQRkvUqKA0pXcnFX2XirxX8/rj89zqOn6d+XNuZ9MvbdlvnSG2cpMsm1ZLn4UBUin&#xA;y64qkf5Df8436t5a8wDzr54uUuvMI5vaWSuZ/SllBDzTzHZ5aMQAtQOtSaUVfQ2Kvmaz0T/nJEfn&#xA;c11NJqv+CP0/LIFN4htv0abpig9L1a+n6NPh49O2KvpnFXYq+U/+cgPPn5g3v526d5H8l61eadIY&#xA;rSzlhtZniU3V0xlMknEjZYZEJ8AMVfUmnWhstPtbNp5Lk20McJuZ2LyyGNQvORjuzNSrHxxVEYq8&#xA;R/Nr/nFzQPPnmC88zW2sXOl65eiP1iyJcWzGGJIUpH+6dfhjFTzPyxV5tJ5C/wCcsfy5q/l/Vpde&#xA;0uEVEUEwvVCD9kWl4Oak+EQPzxV9TeWrrUbvy5pV1qcZh1K4s7eW9hZDGUneJWkUo260ckUPTFXh&#xA;35u/ld+f2v8Anq91Pyf5ol0zQZY4Ft7NNUvLUKyRKsh9KEFBVwTt1xVhv/Kj/wDnK/8A6nif/uN6&#xA;h/zTir6H/KjQ/NmheQNL0rzbfNqXmC39f67evPJdF+dzJJHWaX424xMq79KUxV5l+dt3/wA5D3/n&#xA;WPy/+Xcc9vobWcUk9/GkMKes7SBwbuYChVQvwxtyxViWj/8AOIHmrXbpdS/MTzdJcXLbyRWzSXcx&#xA;B7G6uacT/wA82GKvpLyp5a07yx5c0/y/ppkNjpsIgtzMweQqN6swCgk18MVQ3nyLUpfJetRaXYQa&#xA;pqL2cy2mm3SJLBPIUPGKSNyqMrHYgmmKsD/5x/0/zvZ2mtf4q8o6X5UkeS3+qppVrb2gnUCTmZBA&#xA;8nLhUUr0qcVetYq7FXYq7FXYq7FXYq7FXYq7FXYqxO3/ACq8gwedpPPEelD/ABTIWZtRee4c1eP0&#xA;SVieRol/d/DsmwxVlmKuxV2KuxV2KuxV2KuxV2KuxV2KuxV2KuxV2Kv/2Q==</xapGImg:image>
    </rdf:li>
   </rdf:Alt>
  </xap:Thumbnails>
 </rdf:Description>

 <rdf:Description rdf:about=''
  xmlns:dc='http://purl.org/dc/elements/1.1/'>
  <dc:format>image/svg+xml</dc:format>
 </rdf:Description>

</rdf:RDF>
</x:xmpmeta>
                                                                                                                                                                                                                                                                                                                                                                                                                                                                                                                                                                                                                                                                                                                                                                                                                                                                                                                                                                                                                                                                                                                                                                                                                                                                                                                                                                                                                                                                                                                                                                                                                                                                                                                                                                                                                                                                                                                                                                                                                                                                                                                                <?xpacket end='w'?>
			</metadata>
		<g id="レイヤー1">
			<g>
				<rect fill="none" width="100" height="150"/> 
				<rect x="100" fill="none" width="100" height="150"/> 
				<rect x="200" fill="none" width="100" height="150"/> 
				<rect x="300" fill="none" width="100" height="150"/> 
				<rect x="400" fill="none" width="100" height="150"/> 
				<rect x="500" fill="none" width="100" height="150"/> 
				<rect x="600" fill="none" width="100" height="150"/> 
				<rect x="700" fill="none" width="100" height="150"/> 
				<rect y="150" fill="none" width="100" height="150"/> 
				<rect x="100" y="150" fill="none" width="100" height="150"/> 
				<rect x="200" y="150" fill="none" width="100" height="150"/> 
				<rect x="300" y="150" fill="none" width="100" height="150"/> 
				<rect x="400" y="150" fill="none" width="100" height="150"/> 
				<rect x="500" y="150" fill="none" width="100" height="150"/> 
				<rect x="600" y="150" fill="none" width="100" height="150"/> 
				<rect x="700" y="150" fill="none" width="100" height="150"/> 
				<rect y="300" fill="none" width="100" height="150"/> 
				<rect x="100" y="300" fill="none" width="100" height="150"/> 
				<rect x="200" y="300" fill="none" width="100" height="150"/> 
				<rect x="300" y="300" fill="none" width="100" height="150"/> 
				<rect x="400" y="300" fill="none" width="100" height="150"/> 
				<rect x="500" y="300" fill="none" width="100" height="150"/> 
				<rect x="600" y="300" fill="none" width="100" height="150"/> 
				<rect x="700" y="300" fill="none" width="100" height="150"/> 
				<rect y="450" fill="none" width="100" height="150"/> 
				<rect x="100" y="450" fill="none" width="100" height="150"/> 
				<rect x="200" y="450" fill="none" width="100" height="150"/> 
				<rect x="300" y="450" fill="none" width="100" height="150"/> 
				<rect x="400" y="450" fill="none" width="100" height="150"/> 
				<rect x="500" y="450" fill="none" width="100" height="150"/> 
				<rect x="600" y="450" fill="none" width="100" height="150"/> 
				<rect x="700" y="450" fill="none" width="100" height="150"/> 
				<rect y="600" fill="none" width="100" height="150"/> 
				<rect x="100" y="600" fill="none" width="100" height="150"/> 
				<rect x="200" y="600" fill="none" width="100" height="150"/> 
				<rect x="300" y="600" fill="none" width="100" height="150"/> 
				<rect x="400" y="600" fill="none" width="100" height="150"/> 
				<rect x="500" y="600" fill="none" width="100" height="150"/> 
				<rect x="600" y="600" fill="none" width="100" height="150"/> 
				<rect x="700" y="600" fill="none" width="100" height="150"/> 
				<rect y="750" fill="none" width="100" height="150"/> 
				<rect x="100" y="750" fill="none" width="100" height="150"/> 
				<rect x="200" y="750" fill="none" width="100" height="150"/> 
				<rect x="300" y="750" fill="none" width="100" height="150"/> 
				<rect x="400" y="750" fill="none" width="100" height="150"/> 
				<rect x="500" y="750" fill="none" width="100" height="150"/> 
				<rect x="600" y="750" fill="none" width="100" height="150"/> 
				<rect x="700" y="750" fill="none" width="100" height="150"/> 
				<rect y="900" fill="none" width="100" height="150"/> 
				<rect x="100" y="900" fill="none" width="100" height="150"/> 
				<rect x="200" y="900" fill="none" width="100" height="150"/> 
				<rect x="300" y="900" fill="none" width="100" height="150"/> 
				<rect x="400" y="900" fill="none" width="100" height="150"/> 
				<rect x="500" y="900" fill="none" width="100" height="150"/> 
				<rect x="600" y="900" fill="none" width="100" height="150"/> 
				<rect x="700" y="900" fill="none" width="100" height="150"/> 
			</g>
			<path d="M745,51c0,20.9375-23,14.375-23,43h3c0-27,23-20,23-43c0-10.7224121-8.2504883-18-24-18c-8.1323242,0-16.1875,3-22,8l1,3
				c6.1494141-5.2895508,13.1943359-8,21-8C737.8457031,36,745,41.8007813,745,51z"/>
			<path d="M149.8999023,73c-3.9521484,21.8500977-16.6630859,33.8208008-36.2998047,35L114,111
				c24.6083984-1.7209473,40-18.7719727,40-54c0-14.0788574-10.5739746-24-26-24s-26,9.9211426-26,24
				c0,17.2119141,11.5739746,27,26,27v-3c-13.1870117,0-23-8.746582-23-24c0-12.394043,9.076416-21,23-21s23,8.605957,23,21
				c0,15.253418-8.8129883,24-23,24v3c9.267334,0,17.1062012-3.9724121,21.6999512-11H149.8999023z"/>
			<path d="M51,51c0,9.6853027-7.7041016,16-21.5,16v3C45.1743164,70,54,77.8100586,54,90c0,10.2648926-9.5749512,18-24.5,18v3
				c16.519043,0,27.5-8.967041,27.5-21c0-11.2807617-6.6875-19.6875-18.5-21.4499512v-0.1999512C48.375,66.5625,54,60.0056152,54,51
				c0-10.2265625-9.25-18-24.5-18S5,40.7734375,5,51c0,9.0056152,5.625,15.5625,15.5,17.3500977v0.1999512
				C8.6875,70.3125,2,78.7192383,2,90c0,12.032959,10.980957,21,27.5,21v-3C14.5749512,108,5,100.2648926,5,90
				c0-12.1899414,8.8256836-20,24.5-20v-3C15.7041016,67,8,60.6853027,8,51c0-8.472168,7.9736328-15,21.5-15S51,42.527832,51,51z"/>
			<rect x="202" y="56" width="5" height="5"/> 
			<rect x="202" y="105" width="5" height="5"/> 
			<rect x="722" y="103" width="3" height="7"/> 
			<rect x="307" y="56" width="5" height="5"/> 
			<polygon points="305,122 312,105 307,105 302,122 "/>
			<polygon points="405.6000977,82.8999023 456,58.3601074 456,55 402,81.3300781 402,84.6699219 456,111 456,107.6401367 
				405.6000977,83.1000977 "/>
			<polygon points="652.3999023,83.1000977 602,107.6401367 602,111 656,84.6699219 656,81.3300781 602,55 602,58.3601074 
				652.3999023,82.8999023 "/>
			<rect x="502" y="72" width="54" height="3"/> 
			<rect x="502" y="91" width="54" height="3"/> 
			<path d="M743.6665039,201.6713867c0,19.4477539-22.5,14.4790039-22.5,41.333252H727c0-25.458252,22.5-19.291748,22.5-42
				c0-10.6945801-8.3120117-18-24.5-18c-8.2822266,0-16.8041992,2.8781738-23,7.6665039l1.6665039,5.2001953
				c6.4106445-5.1254883,13.3232422-7.6999512,20.8334961-7.6999512
				C737.2875977,188.1713867,743.6665039,193.3479004,743.6665039,201.6713867z"/>
			<path d="M742.3330078,352.3427734c0,17.9580078-22,14.5830078-22,39.6665039H729c0-23.9165039,22-18.5834961,22-41
				c0-10.6669922-8.3735352-18-25-18c-8.4321289,0-17.4208984,2.7568359-24,7.3334961l2.3334961,7.3999023
				c6.6708984-4.9614258,13.4521484-7.3999023,20.6665039-7.3999023
				C736.7294922,340.3427734,742.3330078,344.8950195,742.3330078,352.3427734z"/>
			<path d="M741,503c0,16.46875-21.5,14.6875-21.5,38H731c0-22.375,21.5-17.875,21.5-40c0-10.6391602-8.4355469-18-25.5-18
				c-8.5820313,0-18.0375977,2.6352539-25,7l3,9.6000977C711.9321289,494.8027344,718.581543,492.5,725.5,492.5
				C736.171875,492.5,741,496.4282227,741,503z"/>
			<path d="M739.6665039,653.6713867c0,14.9790039-21,14.7915039-21,36.3330078H733c0-20.8330078,21-17.1665039,21-39
				c0-10.6108398-8.4970703-18-26-18c-8.7319336,0-18.6542969,2.5141602-26,6.6669922l3.6665039,11.7998047
				c7.1933594-4.6328125,13.7104492-6.7998047,20.3334961-6.7998047
				C735.6137695,644.6713867,739.6665039,647.9750977,739.6665039,653.6713867z"/>
			<path d="M738.3334961,804.3286133c0,13.4897461-20.5,14.8959961-20.5,34.6669922H735c0-19.2919922,20.5-16.4584961,20.5-38
				c0-10.5834961-8.559082-18-26.5-18c-8.8818359,0-19.2709961,2.3920898-27,6.3330078l4.3330078,14
				c7.4545898-4.4682617,13.8398438-6.5,20.1669922-6.5C735.0556641,796.8286133,738.3334961,799.5087891,738.3334961,804.3286133z"
				/>
			<path d="M717,988h20c0-17.75,20-15.75,20-37c0-10.5556641-8.6206055-18-27-18c-9.0317383,0-19.887207,2.2709961-28,6
				l5,16.2001953C714.715332,950.8955078,720.96875,949,727,949c7.4975586,0,10,2.0556641,10,6C737,967,717,970,717,988z"/>
			<path d="M30.0834961,183.0046387c-16.0773926,0-25.416748,7.8850098-25.416748,18.5
				c0,9.0263672,5.46875,15.53125,14.9165039,17.3249512v0.1999512C8.385498,220.7546387,2,228.8601074,2,239.8378906
				c0,12.2553711,10.8681641,21.166748,28.0834961,21.166748v-5.0666504c-13.5393066,0-22.1772461-6.9614258-22.1772461-16.4001465
				c0-11.0351563,7.8601074-18.0498047,22.1772461-18.0498047v-5.0002441C17.5168457,216.487793,10.5,210.7172852,10.5,201.8046875
				c0-7.8286133,7.2006836-13.7333984,19.5834961-13.7333984c12.3825684,0,19.5830078,5.9047852,19.5830078,13.7333984
				c0,8.9125977-7.0166016,14.6831055-19.5830078,14.6831055v5.0002441c14.3168945,0,22.177002,7.0146484,22.177002,18.0498047
				c0,9.4387207-8.6381836,16.4001465-22.177002,16.4001465v5.0666504c17.2150879,0,28.083252-8.911377,28.083252-21.166748
				c0-10.9777832-6.385498-19.083252-17.583252-20.8083496v-0.1999512C50.03125,217.0358887,55.5,210.5310059,55.5,201.5046387
				C55.5,190.8896484,46.1604004,183.0046387,30.0834961,183.0046387z"/>
			<path d="M30.666748,333.0092773c-16.9042969,0-26.3334961,7.9970703-26.3334961,19c0,9.046875,5.3125,15.5,14.333252,17.2998047
				v0.2001953C8.083252,371.1967773,2,379.0009766,2,389.6757813c0,12.4775391,10.7553711,21.3334961,28.666748,21.3334961
				v-7.1333008c-12.152832,0-19.8540039-6.1875-19.8540039-14.800293c0-9.8803711,6.894043-16.0996094,19.8540039-16.0996094
				v-7.0004883C19.3293457,365.9755859,13,360.7495117,13,352.609375c0-7.1850586,6.4277344-12.4667969,17.666748-12.4667969
				s17.6665039,5.2817383,17.6665039,12.4667969c0,8.1401367-6.3293457,13.3662109-17.6665039,13.3662109v7.0004883
				c12.9599609,0,19.8540039,6.2192383,19.8540039,16.0996094c0,8.612793-7.7011719,14.800293-19.8540039,14.800293v7.1333008
				c17.911377,0,28.666748-8.855957,28.666748-21.3334961c0-10.6748047-6.0834961-18.4790039-16.666748-20.1665039v-0.2001953
				C51.6875,367.5092773,57,361.0561523,57,352.0092773C57,341.0063477,47.5710449,333.0092773,30.666748,333.0092773z"/>
			<path d="M31.25,483C13.5187988,483,4,491.1088867,4,502.5c0,9.0678711,5.15625,15.46875,13.75,17.2749023v0.2001953
				C7.78125,521.625,2,529.1279297,2,539.5C2,552.199707,12.6425781,561,31.25,561v-9.2001953
				c-10.7670898,0-17.53125-5.4135742-17.53125-13.199707c0-8.7255859,5.9282227-14.1499023,17.53125-14.1499023v-9
				c-10.1081543,0-15.75-4.6821289-15.75-12.050293c0-6.5415039,5.654541-11.199707,15.75-11.199707
				c10.0952148,0,15.75,4.6582031,15.75,11.199707c0,7.3681641-5.6420898,12.050293-15.75,12.050293v9
				c11.6027832,0,17.53125,5.4243164,17.53125,14.1499023c0,7.7861328-6.7644043,13.199707-17.53125,13.199707V561
				c18.6074219,0,29.25-8.800293,29.25-21.5c0-10.3720703-5.78125-17.875-15.75-19.5249023v-0.2001953
				C53.34375,517.96875,58.5,511.5678711,58.5,502.5C58.5,491.1088867,48.9812012,483,31.25,483z"/>
			<path d="M31.8334961,633.0043945c-18.5585938,0-28.166748,8.2207031-28.166748,20c0,9.0888672,5,15.4375,13.1665039,17.25
				v0.2001953C7.479248,672.0668945,2,679.2685547,2,689.3378906c0,12.921875,10.5297852,21.6665039,29.8334961,21.6665039
				V699.737793c-9.3811035,0-15.2084961-4.6396484-15.2084961-11.6000977c0-7.5708008,4.9624023-12.199707,15.2084961-12.199707v-11
				C22.9545898,664.9379883,18,660.800293,18,654.2045898c0-5.8979492,4.8815918-9.9331055,13.8334961-9.9331055
				c8.951416,0,13.8330078,4.0351563,13.8330078,9.9331055c0,6.5957031-4.9543457,10.7333984-13.8330078,10.7333984v11
				c10.2456055,0,15.2080078,4.6289063,15.2080078,12.199707c0,6.9604492-5.8273926,11.6000977-15.2080078,11.6000977v11.2666016
				c19.3034668,0,29.833252-8.7446289,29.833252-21.6665039c0-10.0693359-5.479248-17.2709961-14.833252-18.8833008v-0.2001953
				C55,668.4418945,60,662.0932617,60,653.0043945C60,641.2250977,50.3918457,633.0043945,31.8334961,633.0043945z"/>
			<path d="M32.416748,782.9956055c-19.385498,0-29.083252,8.3325195-29.083252,20.5
				c0,9.109375,4.8435059,15.40625,12.583252,17.2246094v0.2001953C7.177002,822.4956055,2,829.3959961,2,839.1621094
				c0,13.144043,10.4169922,21.8334961,30.416748,21.8334961v-13.3334961c-7.9951172,0-12.885498-3.8662109-12.885498-10
				c0-6.4160156,3.996582-10.25,12.885498-10.25v-13c-7.6496582,0-11.916748-3.5932617-11.916748-9.4165039
				c0-5.2548828,4.1083984-8.6669922,11.916748-8.6669922c7.8078613,0,11.916748,3.4121094,11.916748,8.6669922
				c0,5.8232422-4.267334,9.4165039-11.916748,9.4165039v13c8.8884277,0,12.8852539,3.8339844,12.8852539,10.25
				c0,6.1337891-4.8903809,10-12.8852539,10v13.3334961c19.9997559,0,30.4165039-8.6894531,30.4165039-21.8334961
				c0-9.7661133-5.177002-16.6665039-13.916748-18.2416992v-0.2001953C56.65625,818.9018555,61.5,812.6049805,61.5,803.4956055
				C61.5,791.328125,51.802002,782.9956055,32.416748,782.9956055z"/>
			<path d="M33,933c-20.2126465,0-30,8.4443359-30,21c0,9.1303711,4.6875,15.375,12,17.2001953v0.199707
				C6.875,972.9375,2,979.5366211,2,989c0,13.3662109,10.3041992,22,31,22v-15.3999023
				c-6.6088867,0-10.5625-3.0922852-10.5625-8.3999023c0-5.2617188,3.0307617-8.300293,10.5625-8.300293v-15
				c-6.4204102,0-10-3.0488281-10-8.1000977c0-4.6108398,3.3356934-7.3999023,10-7.3999023s10,2.7890625,10,7.3999023
				c0,5.0512695-3.5795898,8.1000977-10,8.1000977v15c7.5314941,0,10.5625,3.0385742,10.5625,8.300293
				c0,5.3076172-3.9536133,8.3999023-10.5625,8.3999023V1011c20.6958008,0,31-8.6337891,31-22
				c0-9.4633789-4.875-16.0625-13-17.6000977v-0.199707C58.3125,969.375,63,963.1303711,63,954
				C63,941.4443359,53.2126465,933,33,933z"/>
			<path d="M147.8935547,224.8212891c-3.7490234,19.2709961-15.6318359,29.8959961-34.6123047,31.0373535l0.7956543,5.1459961
				c25.6774902-1.7475586,41.2565918-18.7177734,41.2565918-53.666748c0-14.2802734-10.6621094-24.333252-26.666748-24.333252
				c-16.0048828,0-26.666748,10.0529785-26.666748,24.333252c0,17.1015625,11.4562988,26.8334961,26.666748,26.8334961v-5.1669922
				c-12.0168457,0-20.833252-7.8525391-20.833252-21.6665039c0-11.4643555,8.2026367-19.333252,20.833252-19.333252
				c12.6303711,0,20.833252,7.8688965,20.833252,19.333252c0,13.8139648-7.9833984,21.6665039-20.833252,21.6665039v5.1669922
				c8.0200195,0,14.953125-3.3937988,19.0600586-9.3833008L147.8935547,224.8212891z"/>
			<path d="M145.887207,376.6425781c-3.5458984,16.6918945-14.6003418,25.9716797-32.9248047,27.074707l1.1914063,7.2919922
				c26.746582-1.7739258,42.5129395-18.6635742,42.5129395-53.3334961c0-14.4819336-10.7497559-24.6665039-27.333252-24.6665039
				C112.7497559,333.0092773,102,343.1938477,102,357.6757813c0,16.9912109,11.338623,26.6669922,27.3334961,26.6669922v-7.3339844
				c-10.8466797,0-18.666748-6.9584961-18.666748-19.3330078c0-10.534668,7.3288574-17.6665039,18.666748-17.6665039
				c11.3374023,0,18.6665039,7.1318359,18.6665039,17.6665039c0,12.3745117-7.1535645,19.3330078-18.6665039,19.3330078v7.3339844
				c6.7729492,0,12.7998047-2.8154297,16.420166-7.7666016L145.887207,376.6425781z"/>
			<path d="M143.8808594,528.4501953c-3.3427734,14.112793-13.5688477,22.046875-31.2373047,23.1123047L114.2307129,561
				C142.0463867,559.199707,158,542.3911133,158,508c0-14.6831055-10.8376465-25-28-25s-28,10.3168945-28,25
				c0,16.8803711,11.2209473,26.5,28,26.5V525c-9.6765137,0-16.5-6.0654297-16.5-17c0-9.6054688,6.4550781-16,16.5-16
				s16.5,6.3945313,16.5,16c0,10.9345703-6.3237305,17-16.5,17v9.5c5.5258789,0,10.6469727-2.2363281,13.7807617-6.1499023
				L143.8808594,528.4501953z"/>
			<path d="M141.8742676,680.2714844c-3.1391602,11.5341797-12.5373535,18.1220703-29.5495605,19.1499023l1.9829102,11.5830078
				c28.8847656-1.8266602,45.0258789-18.5541992,45.0258789-52.6665039c0-14.8847656-10.9257813-25.3334961-28.666748-25.3334961
				C112.9255371,633.0043945,102,643.453125,102,658.3378906c0,16.7700195,11.1032715,26.3334961,28.666748,26.3334961v-11.6669922
				c-8.5063477,0-14.333252-5.1713867-14.333252-14.6665039c0-8.6757813,5.5812988-14.3334961,14.333252-14.3334961
				c8.751709,0,14.333252,5.6577148,14.333252,14.3334961c0,9.4951172-5.4938965,14.6665039-14.333252,14.6665039v11.6669922
				c4.2788086,0,8.4936523-1.6577148,11.1408691-4.5332031L141.8742676,680.2714844z"/>
			<path d="M139.8679199,832.0786133c-2.9360352,8.9550781-11.5058594,14.1982422-27.8618164,15.1875l2.3786621,13.7294922
				c29.9536133-1.8540039,46.2817383-18.5004883,46.2817383-52.3334961c0-15.0864258-11.0134277-25.6665039-29.333252-25.6665039
				S102,793.5756836,102,808.6621094c0,16.659668,10.9855957,26.1665039,29.333252,26.1665039v-13.8330078
				c-7.3359375,0-12.166748-4.277832-12.166748-12.3334961c0-7.746582,4.7077637-12.6665039,12.166748-12.6665039
				S143.5,800.9155273,143.5,808.6621094c0,8.0556641-4.6638184,12.3334961-12.166748,12.3334961v13.8330078
				c3.0317383,0,6.3408203-1.0786133,8.5014648-2.9165039L139.8679199,832.0786133z"/>
			<path d="M137.8615723,983.8999023c-2.7329102,6.3759766-10.4746094,10.2739258-26.1743164,11.2250977l2.7744141,15.875
				C145.484375,1009.1196289,162,992.5541992,162,959c0-15.2880859-11.1013184-26-30-26s-30,10.7119141-30,26
				c0,16.5488281,10.8679199,26,30,26v-16c-6.1660156,0-10-3.3837891-10-10c0-6.8168945,3.8339844-11,10-11s10,4.1831055,10,11
				c0,6.6162109-3.8339844,10-10,10v16c1.784668,0,4.1875-0.5,5.8615723-1.2998047V983.8999023z"/>
			<rect x="502" y="220.1711426" width="55.6665039" height="5.166748"/> 
			<rect x="502" y="368.3422852" width="57.3334961" height="7.3334961"/> 
			<rect x="502" y="516.5" width="59" height="9.5"/> 
			<rect x="502" y="664.6713867" width="60.6665039" height="11.6665039"/> 
			<rect x="502" y="812.8286133" width="62.3334961" height="13.8334961"/> 
			<rect x="502" y="961" width="64" height="16"/> 
			<rect x="502" y="240.6711426" width="55.6665039" height="5.166748"/> 
			<rect x="502" y="390.3427734" width="57.3334961" height="7.3330078"/> 
			<rect x="502" y="540" width="59" height="9.5"/> 
			<rect x="502" y="689.6713867" width="60.6665039" height="11.6665039"/> 
			<rect x="502" y="839.3286133" width="62.3334961" height="13.8334961"/> 
			<rect x="502" y="989" width="64" height="16"/> 
			<rect x="202" y="206.0046387" width="7.8334961" height="7.5"/> 
			<rect x="202" y="356.0092773" width="10.6669922" height="10"/> 
			<rect x="202" y="506" width="13.5" height="12.5"/> 
			<rect x="202" y="656.0043945" width="16.3334961" height="15.0004883"/> 
			<rect x="202" y="805.9956055" width="19.1665039" height="17.5"/> 
			<rect x="202" y="956" width="22" height="20"/> 
			<rect x="202" y="252.5043945" width="7.8334961" height="7.5002441"/> 
			<rect x="202" y="400.0087891" width="10.6669922" height="10.0004883"/> 
			<rect x="202" y="547.5" width="13.5" height="12.5"/> 
			<rect x="202" y="695.0043945" width="16.3334961" height="15"/> 
			<rect x="202" y="842.4956055" width="19.1665039" height="17.5"/> 
			<rect x="202" y="990" width="22" height="20"/> 
			<rect x="307.5" y="206.0046387" width="7.8334961" height="7.5"/> 
			<rect x="308" y="356.0092773" width="10.6669922" height="10"/> 
			<rect x="308.5" y="506" width="13.5" height="12.5"/> 
			<rect x="309" y="656.0043945" width="16.3334961" height="15.0004883"/> 
			<rect x="309.5" y="805.9956055" width="19.1665039" height="17.5"/> 
			<rect x="310" y="956" width="22" height="20"/> 
			<polygon points="307,272.5046387 315.3334961,252.5043945 307.5,252.5043945 302,272.5046387 "/>
			<polygon points="309,423.0092773 318.6669922,400.0087891 308,400.0087891 302,423.0092773 "/>
			<polygon points="311,573.5 322,547.5 308.5,547.5 302,573.5 "/>
			<polygon points="313,724.0043945 325.3334961,695.0043945 309,695.0043945 302,724.0043945 "/>
			<polygon points="315,874.4956055 328.6665039,842.4956055 309.5,842.4956055 302,874.4956055 "/>
			<polygon points="317,1025 332,990 310,990 302,1025 "/>
			<polygon points="407.5,232.904541 457,210.3046875 457,204.6711426 402,229.779541 402,236.2294922 457,261.3378906 
				457,255.7045898 407.5,233.1044922 "/>
			<polygon points="409.3999023,382.9091797 458,362.2495117 458,354.3427734 402,378.2290039 402,387.7890625 458,411.6757813 
				458,403.769043 409.3999023,383.109375 "/>
			<polygon points="411.2998047,532.8999023 459,514.1801758 459,504 402,526.6650391 402,539.3349609 459,562 459,551.8198242 
				411.2998047,533.1000977 "/>
			<polygon points="413.2001953,682.9047852 460,666.1245117 460,653.6713867 402,675.1142578 402,690.8945313 460,712.3378906 
				460,699.8847656 413.2001953,683.1044922 "/>
			<polygon points="415.1000977,832.8955078 461,818.0551758 461,803.3286133 402,823.550293 402,842.4404297 461,862.6621094 
				461,847.9355469 415.1000977,833.0952148 "/>
			<polygon points="402,994 462,1013 462,996 417,983.1000977 417,982.8999023 462,970 462,953 402,972 "/>
			<polygon points="651.5,233.1044922 602,255.7045898 602,261.3378906 657,236.2294922 657,229.779541 602,204.6711426 
				602,210.3046875 651.5,232.904541 "/>
			<polygon points="650.5996094,383.109375 602,403.769043 602,411.6757813 658,387.7890625 658,378.2290039 602,354.3427734 
				602,362.2495117 650.5996094,382.9091797 "/>
			<polygon points="649.7001953,533.1000977 602,551.8198242 602,562 659,539.3349609 659,526.6650391 602,504 602,514.1801758 
				649.7001953,532.8999023 "/>
			<polygon points="648.7998047,683.1044922 602,699.8847656 602,712.3378906 660,690.8945313 660,675.1142578 602,653.6713867 
				602,666.1245117 648.7998047,682.9047852 "/>
			<polygon points="647.8999023,833.0952148 602,847.9355469 602,862.6621094 661,842.4404297 661,823.550293 602,803.3286133 
				602,818.0551758 647.8999023,832.8955078 "/>
			<polygon points="662,972 602,953 602,970 647,982.8999023 647,983.1000977 602,996 602,1013 662,994 "/>
			<rect x="721.1665039" y="251.8378906" width="5.8334961" height="8.166748"/> 
			<rect x="720.3330078" y="400.6757813" width="8.6669922" height="9.3334961"/> 
			<rect x="719.5" y="549.5" width="11.5" height="10.5"/> 
			<rect x="718.6665039" y="698.3378906" width="14.3334961" height="11.6665039"/> 
			<rect x="717.8334961" y="847.1621094" width="17.1665039" height="12.8334961"/> 
			<rect x="717" y="996" width="20" height="14"/> 
		</g>
	</svg>
