<?xml version="1.0" encoding="utf-8"?>
<!-- Generator: Adobe Illustrator 11.0, SVG Export Plug-In . SVG Version: 6.0.0 Build 78)  -->
<!DOCTYPE svg PUBLIC "-//W3C//DTD SVG 1.0//EN"    "http://www.w3.org/TR/2001/REC-SVG-20010904/DTD/svg10.dtd" [
	<!ENTITY ns_flows "http://ns.adobe.com/Flows/1.0/">
	<!ENTITY ns_svg "http://www.w3.org/2000/svg">
	<!ENTITY ns_xlink "http://www.w3.org/1999/xlink">
]>
<svg  xmlns="&ns_svg;" xmlns:xlink="&ns_xlink;" xmlns:a="http://ns.adobe.com/AdobeSVGViewerExtensions/3.0/"
	 width="800" height="1050" viewBox="0 0 800 1050" overflow="visible" enable-background="new 0 0 800 1050" xml:space="preserve">
	<metadata>
<?xpacket begin='﻿' id='W5M0MpCehiHzreSzNTczkc9d'?><x:xmpmeta xmlns:x='adobe:ns:meta/' x:xmptk='XMP toolkit 3.0-29, framework 1.6'>
<rdf:RDF xmlns:rdf='http://www.w3.org/1999/02/22-rdf-syntax-ns#' xmlns:iX='http://ns.adobe.com/iX/1.0/'>

 <rdf:Description rdf:about=''
  xmlns:pdf='http://ns.adobe.com/pdf/1.3/'>
 </rdf:Description>

 <rdf:Description rdf:about=''
  xmlns:tiff='http://ns.adobe.com/tiff/1.0/'>
 </rdf:Description>

 <rdf:Description rdf:about=''
  xmlns:xap='http://ns.adobe.com/xap/1.0/'
  xmlns:xapGImg='http://ns.adobe.com/xap/1.0/g/img/'>
  <xap:CreateDate>2005-10-18T06:58:04Z</xap:CreateDate>
  <xap:ModifyDate>2005-10-18T06:58:04Z</xap:ModifyDate>
  <xap:CreatorTool>Illustrator</xap:CreatorTool>
  <xap:Thumbnails>
   <rdf:Alt>
    <rdf:li rdf:parseType='Resource'>
     <xapGImg:format>JPEG</xapGImg:format>
     <xapGImg:width>196</xapGImg:width>
     <xapGImg:height>256</xapGImg:height>
     <xapGImg:image>/9j/4AAQSkZJRgABAgEASABIAAD/7QAsUGhvdG9zaG9wIDMuMAA4QklNA+0AAAAAABAASAAAAAEA&#xA;AQBIAAAAAQAB/+4ADkFkb2JlAGTAAAAAAf/bAIQABgQEBAUEBgUFBgkGBQYJCwgGBggLDAoKCwoK&#xA;DBAMDAwMDAwQDA4PEA8ODBMTFBQTExwbGxscHx8fHx8fHx8fHwEHBwcNDA0YEBAYGhURFRofHx8f&#xA;Hx8fHx8fHx8fHx8fHx8fHx8fHx8fHx8fHx8fHx8fHx8fHx8fHx8fHx8fHx8f/8AAEQgBAADEAwER&#xA;AAIRAQMRAf/EAaIAAAAHAQEBAQEAAAAAAAAAAAQFAwIGAQAHCAkKCwEAAgIDAQEBAQEAAAAAAAAA&#xA;AQACAwQFBgcICQoLEAACAQMDAgQCBgcDBAIGAnMBAgMRBAAFIRIxQVEGE2EicYEUMpGhBxWxQiPB&#xA;UtHhMxZi8CRygvElQzRTkqKyY3PCNUQnk6OzNhdUZHTD0uIIJoMJChgZhJRFRqS0VtNVKBry4/PE&#xA;1OT0ZXWFlaW1xdXl9WZ2hpamtsbW5vY3R1dnd4eXp7fH1+f3OEhYaHiImKi4yNjo+Ck5SVlpeYmZ&#xA;qbnJ2en5KjpKWmp6ipqqusra6voRAAICAQIDBQUEBQYECAMDbQEAAhEDBCESMUEFURNhIgZxgZEy&#xA;obHwFMHR4SNCFVJicvEzJDRDghaSUyWiY7LCB3PSNeJEgxdUkwgJChgZJjZFGidkdFU38qOzwygp&#xA;0+PzhJSktMTU5PRldYWVpbXF1eX1RlZmdoaWprbG1ub2R1dnd4eXp7fH1+f3OEhYaHiImKi4yNjo&#xA;+DlJWWl5iZmpucnZ6fkqOkpaanqKmqq6ytrq+v/aAAwDAQACEQMRAD8A9U4q7FXYq7FXYq7FXYq7&#xA;FXYq7FXYq7FXYq7FXYq7FXYq7FXYq7FXYq7FXYq7FXYq8n13Wr3zDMLmT61Ppd1fTaX5Z8uWNy9k&#xA;dRktiy3F7e3UVJEtkMT8VU8eA5EOzqoVS5NE17TvN9h5esbRdE1y9tZ9RtdW0u/u57FIrUBXjvbO&#xA;6HGdfWlhStFJVyVZGWjKvUfKGvvr/l201OWD6pdP6kN7aV5ejdW0rW9zFyoOXpzROte9MVUPPeuX&#xA;Wj+Wrmaw4tq92yWOjxtuGvbthDBUfyq783/yQTiqR/l9Yf4U1W+8jtPLcWkUMep6JPcO0kjwSUiv&#xA;ELNUlo7oGRvaZRirO8VebeS/IPkzWdM1DUdV0a1vb6bW9dEtzNGHdhHrN3GgJP8AKiBR7DFUZpmm&#xA;6b5e/Me00fy87QWF5pl1c6poySM9tA8U0C21wkZJEDS+pItFoHpWnwk4qz3FWD3NpL508yapp95N&#xA;LF5V0GSO0ls4JHhN9fPEk8nryRlXMEMc0aiMGjuW5VCgYqi2/Kb8uAFaz8v2emXKEGO+0yMWF0rA&#xA;1BFxa+lL1H82/fFWW4qwS08k+Utc8y+arvWNJtr+5TUoYkmnQOwQaXZMFBParE4qoeYNEHkW2HmX&#xA;y7cT22j6eyvrmhPLJNZvZFqTSwRyM/1eWBT6g9LirBeLDeoVehYq88sfJ/lfX/OvnCfWtMt9Qlgu&#xA;7SKF7hA5RP0fbtxWvQcmJxVkOn/lz5F069hvrHQ7O2u4G5wzxxBXVvEHFWRYq8/fyp5c1/8AMjzD&#xA;+mtOg1D6tYaWLf6wofhza75ca9OXEVxVPLH8t/IdjeQ3lnoVnBdW7iSCZIgGR1NQwPiMVZJirEPN&#xA;M+pax5itPKFhdS2Fq1s2oa7fW7GO4W25+lBbwSD4o2uJA/KQbqqHiQxBCq5fyk/LEJRvK+myy97u&#xA;W2jluSf5jcyBpy3+UXr74qyHR9JtNI0+LT7RpmtoeXpfWJpbhwGYtx9SZpH4rWignYbDbFUZirxr&#xA;y1qJ0DzFY2+pWd3c/wCGrbUdIuFsraa8mg+s3UVxa3Zt4Elnkju7aNf3qIeLqyt3OKphF5wvbHzh&#xA;rPmfX9B1S1sG023g8uRpaSyk26STSXT3LoDBZvI/ptS4kSiBSaHkAqzPyDpd9YeW4zqHpjUNQuLr&#xA;UruOFxJHHJf3El16SONmEQlCch9qle+Ksf8AMB8ya5+YFvDoX1RrbylH69yb0yekdRvomSNQIhXn&#xA;BaMzfKYfQqg/N6+f9Ol0zzdqC6Ybby3MZ7/6kLkzNps4Ed8oD7EJHSen80a4q9NR0dFdGDIwBVga&#xA;gg7ggjFXm3knyD5T1XS9Rv7+x9a7m1zXvUk9WZa8davEGyOq/ZUdsVVv8MaP5F8y6HJ5ZVrK18xa&#xA;g9lqul+o8kU5+pzzrcIJC7RyRG3FeJ4lSaitCFXomKsQ8mziz8x+atCuPguxf/pS1B2M1nexJSVf&#xA;EJOksTeHEeOKsvxV2Ksf8s/8drzb/wBtWL/ulWOKoD82LiNvI2paMhB1DzHC+i6dAN3ea/UwVVep&#xA;ESO0r+CqSdhirL8Ved2Hk7y5rnnfzjcapafWJoryzjRvUlSi/o63NKIyjqcVZJpXkHynpV/Ff2Fj&#xA;6N3Dy9OT1ZmpyUodndl+yx7YqyDFXnz+U9A138yvMT6ra/WWgsNKER9SRKBmu6/3bLXp3xVkGm/l&#xA;/wCUdMvor6ysPSuoCTFJ6szUJBB2Z2HQ+GKshxViEtwml/mmHuSI4fMekwWlnK2ym50ue5mMIP8A&#xA;O8V+zqO4RqdDiqZ6z5J8sa1eC81Oy+sXIQRh/VlT4VJIFEdR3xVKfy8sLXTdS85abZq0dlaa3Glt&#xA;Czu4jV9H06VlUuWNDJIzdepxVmWKpJr/AJO0TXJ4Ly5SW31O1Ura6nZzSWt1GrfaQSxFWZCdzG9U&#xA;PcYql6/lvpE80Umt32oeYFt2WSC21O452yum6s1tCsMErKdwZEYg7jfFWV4qluheX7LRYrxbZpJJ&#xA;L+8nv7ueUqZHmuGqalVQcUQLGm2yKo364qj54IZ4JIJkEkMqlJY2FVZWFGBHgRiqE0HR4NF0Wy0i&#xA;3mlnt7CFLeCW4YPKY4l4pzYBeRCgCtKnvvirHrf8v7+za5XTPN+s6faXN3dXos4Y9JeOOS9uJLqY&#xA;I09hNLx9WZiOTmnjiqN0byRY2GqDWLy+vda1dI2igvtSkRzCj09QQQwpDbxF+I5FIwT0rTbFWRYq&#xA;kvmLyjpGvNbT3BmtdRsSWsNUs5DBdQc6cwki9Uenxo4KN3U4qlh8jatcAQ6n5w1m9slIrbIbOyMg&#xA;HaWeytref/kW6e+KstxVi935Kvn1XUNQsPNGq6UupSpcXFnappjwiRIIrfkpurK4lFUgWv7zr0pi&#xA;qI0XyRpGmai2rSTXWqayUMQ1LUZjPKkbULJCvwxQqxHxCJF5d64qyDFWLXfka6fWdQ1XTvM2qaQ+&#xA;pvHJd21ommyRF4oUgVh9bs7qQfBGK/HTFVfT/K2uWt7DcT+cNXv4o25PZ3EWkLFIP5XMFhDLT/Vc&#xA;HFWRYql9rolrba3f6wjyG51GK3gnRiPTC2plKFAADU+u3KpPbFUwxV2Kpdr3l/SNf05tP1W3E9uW&#xA;WVCGZJI5YzVJYpEKvHIh3V0IIxVJF8leYI0EEPnXWUtAKBWj0yWYD+UTyWbuR7vyb/KxVN/LvlrT&#xA;9Bt7mO1knuJr2c3V9eXczzzzzmNIebsxoKRwogVQFAUUGKprirsVdirsVdirsVdirsVdirsVdirs&#xA;VdirsVdirsVdirsVdirsVdirsVdirsVdirsVYt5v/Mjy35XubfT7r6xf63eLzstD02Frq+lQGhdY&#xA;k+ygofjcqu3XFUnT86NFtrqCHzHoeteVre5dYodR1i1SOzMjmio9xby3EcZJ6eoVGKvQQQRUbg9D&#xA;iqje3trY2c97dyrDaWsbzXEzbKkcalnY+wUVxVi35Zfmbon5haHNqulwXFn9Xm9Ga0u1VJl5RrLG&#xA;/FWb4JI5FZT3xVl+KvN7f84NRv77VrfRfJer6rb6RqFzpc95A9isbT2knpycRLcRvTuKjFU28q/m&#xA;dp2t67L5cvdL1Dy/5hihNyum6pEkZmgVgrS28sTyxSqrGho1fbbFWZYqxfzr+Yvl/wAo/VYL0XF7&#xA;q2oErpmi6fEbi9uWX7XpxAjZe7MQo8cVSN/zS8z2UYvNZ/L3W7PSjubq3azvpUSv25LW2medQBu1&#xA;FJGKvRAaiuKsB1L80r+LzPrGgaT5S1TW5NEeCO9urR7NIg9xbpcoB688TfYkHbFURoH5s6FqOtw+&#xA;X9TsdQ8ta9cgmz0/WIBAbngPi+rTI0sMtPBX5e2Ks2xVgOq/mrdW/mzVvLWk+VdT1270VLZ7+aza&#xA;0SNReRmSL+/miY1Ct27YqiNL8/eZ7zUba0uPImsWEE8ipJezyWBiiVjQu4juHfivfipOKs2xVg/m&#xA;D8y7rTvNVx5b0zyzqOvXtrawXlzJZNaoiR3DSJGD9YmhNawt0xVbZ/mF5quLyCCX8v8AWraKWREe&#xA;5kl08pGrMAXbjcs1F6mgrirOsVSbzb5v8v8AlLRpNY126FrZoyxpsXkllf7EUUags7tTZVHv0BxV&#xA;icX5n+crmH69a/lvrbaYdxJNLYQXRXx+pyXAl+jFWY+WfMEOv6PFqcVneaeJGdGs9Qga2uY2jYoy&#xA;vG1e46gkHscVTTFXzr5c/SfmG5sUtbyax1v8w9S1W98waxAeF3a6Lo1w1rFY20nWLkQiBhutW70x&#xA;VOrL8vPL6fnE/liwnvZfK9toL3Wt6Lc3lzd2sl1eO1rF6i3Ekp5NDzalaDipAxVmX5G3VxL+XFjb&#xA;Tztd/ou4vdMgu2PIywWN5LbwNXv+6jUfRiqD/O26uNS0/R/INjIyX3nS8FncOho8emwD1tQlX5RA&#xA;Jv8AzYqhru1t/I/5xaVd2sa2/l/zraJo9yiiiRalpyFrFj/xlt+UKj/JxV6nirwv8tPOGv6Rc+d7&#xA;Sw8o6nrkB83a05vbJ7NYgxuAClJ54n5Cn8tN8VRWjeZrvzV+dejzeYdLm8pS6HZXyaBpuoBhc6jJ&#xA;drGLiRJFU25SGOP7CSs1d+laKvasVeX/AJd28Wrfmn+YPmS7AkvbC7g0LT+W/wBXtbe3SV1jr09a&#xA;WTm3uMVeoYq7FWAeRP8AyZn5mf8AMdpf/dJt8VUvz+0uC7/K3Wb+oi1DQ0XVdKvBtJBdWbCRHjbs&#xA;SAV+nFWeabdNeada3bIY2uIY5ShFCpdQ1CD0pXFXjtn5l1fRPzt/MT9HeXL7zB9Yg0P1fqL2yejw&#xA;tZuPP6xLD9vkaca9DXFWcaJ558y6jqlvZXfkjVtLt5iRJf3Mli0UQCk1cRXEj7kU2U4qzLFXkWo+&#xA;abjQPzt194dB1TXTcaJpYZNKihlaLjPd7yetNBQNXalcVZPpf5lX9/qNtZP5I8yWK3EixteXVvZr&#xA;BEGNOcjJduwUd6KcVZtirzHWLePWv+cgdH0+/Hq2Xl3QJNZsYD9j67dXf1USkdCY44jxqNiajFWT&#xA;eaPN2u6NqEdrp/lPUtdheIStd2T2ixqxZlMZE80L8gFDbCm4xV3kDz3D5xsdTuE0650q40nUJdLv&#xA;bO8MRkWeCOOR94XkSn74DrirKMVeBecPIPmHyp5lOraQmpnQxeXOoabqWhRxXV/pc2oU+vW0lhMH&#xA;W6s5nUSDitYzXbxVSmHS799Quj+Xk/m6613zAkcPmTUr+2XT4JuDuRPLe3ttytmSOVlRbaMniAFA&#xA;O+KvoLy5oGl+X9DstF0u3W1sLGIRQQKSwUDc1Y7sSxJLHcnfFXl9p5K0r8yfzD8y695o0+WfRdEZ&#xA;NB8vQSPNbhmgrJe3I9NoyweVwiNWhA+5VU87/wDOP/kw+V7+fypprWPmeyQXmiXaXFy7JeWxE0NF&#xA;kkdfiZOO698VeieTPMX+I/Kmla4YWtpL+2SWa2kVkaKUiksZV6N8EgK4q8o/Lv8AMXyt5SufOmm6&#xA;+95aXk3mvWLqFE07ULhWglnojrJBBKhDcT+1iqY6nrkn5kecfKUXl3TL9NE8v6l+l9Q8x3lrNZRE&#xA;QwyRpbW/1hY5JDK0v7wBdhTFXr+KvK9ci8weQfP+p+brHTLjWvKfmSOA6/a2CGW7sru1T0kuo4Bv&#xA;JE8VBIE3FOXzVTB/z58gzRhNI/SOtak/wx6VY6deG5LVpxYSxRJHTuXYYq9EBqK4q8gsfPflzyj+&#xA;Z/5gLrz3dt9fu9Nls3isL26SRE0uBGIe2hmXZhTc4q15n1PW/wA2IIvK2h6Tf6b5PupY38w+YNSg&#xA;eyM1rG4k+rWMUoWV2lKcWcqFUeNcVevoiIioihUUAKoFAANgABirxq285aF5Q/Ofz/ca+bq2g1OH&#xA;RRYyxWN5dJJ9XtpRLRraGYDj6i9cVZhpf5y/l/qmo22nWV3ePd3ciwwK+manEpdzQAyS2yIo92YD&#xA;FWbYqwPR7e4X86vMtw0TiB9E0pEmKkIzLPdllDdCRUVxVnmKuxV53+Y2h+Y7DzLo/wCYHlezOp6j&#xA;pMMthrGjowWW80ydlkZYSxC+rDIgkRf2ungCq1H+f35a+iPrV1e2N6NpNMudNv1u0f8AkMSwvU/6&#xA;pI98VUvyOhv2sfN2qXVhdafBrfmW+1LTo76F7eZ7WaGBY5DE4DKGKGlcVelYq7FXYq7FXYq7FXYq&#xA;7FXYq7FXYq7FXYq7FXYq7FXYq7FXYq7FXYq7FXYq7FXYq7FXYq7FXYq7FXYq7FXYq7FXYq7FXYq7&#xA;FXYq7FXYq7FXYq7FXYq7FXYq7FXYq7FXYq8F/MT82/MF/qWuWmga1B5V8n+WZlstc82SQ/W7ie+b&#xA;rZWEBBDyL0buOtQKVVYbp/5med7LV4IfKfmnV/MWs+nJc3HlPzHpYt3ntYIjM0kU6HknKMH0wPtH&#xA;6AVX0h5I83aZ5w8qab5k0yotNShEqxsQWjcErJE1NuUcisp+WKoD81POsXkvyBrPmJmAntLciyU0&#xA;PK6l/dwLQ9R6jAn2rirzL/nHjzV55tNe1TyN5+vZrzWXs7TXNLmupGkkNvcxJ60XJ9/3Tso4/wAw&#xA;ftir3jFXzt5G0Lzb5983fmB9Z89a/pVvovmC8srG1sLkLEsImk4qFdXoFCgADtiqdaJfefvIn5we&#xA;X/JWp+ZZfNeg+Z7a6kgN6iC8tJLSJpCxkXd1bhTc9ztUVKr2/FXjnn3zp558x/mL/wAqy8gXkeky&#xA;2dut35m8xPGJXtY5OJSKFG+Hmyup8Ty2K8WOKqsn5I+d7OEXWi/mj5hXWVo3PUZVvbJmHb6q9AoP&#xA;zP04q9cjVljVXbmwADOQAWIG5oNt8VeESaT5o85fnf580RfOOtaHpuiR6Y9lbabcenGDc2aNJ8LB&#xA;h9octu5OKr/Meo/mn+T7Wuvap5hfzn5EaeK31eO8gSO/slmbgJ45Y6+oA1B8R78eIryCr3OGaKeG&#xA;OaFxJFKoeN13DKwqCD7jFXg2p2fmnzb/AM5BeZfK8fm7WNC0nTtMtby3g0y49NebJCrDiwZaH1CT&#xA;t1xVmWk/k9rVhqtlfyfmH5lvY7SeKd7O4ukaGYRuHMUqhBVHpxYeGKvSsVeH+a7PzL5n/P8An8p2&#xA;/mrVtA0q38uJqYj0uf0qzi7EJqrBl3WTfauwxVkFp+S+t291DO35j+aJ1ikVzDJdRlHCkHiw4dD0&#xA;OKvUMVeY/nH+YfmPRbvRPKHkyKKbzn5nkeOyknHKK1gjFZbl13rxG4qCNiaGlCql9v8Akb5vkhFz&#xA;qP5o+ZX1girSWs6wWYY1rS0+JaVI/a/sVeg+StI8y6ToMdj5j1n9P6jFJJTUvRW3Z4uX7oOibcgv&#xA;U4qnuKvjqx1TT/L2s6JaeaI5W0zyh5t1i781qsZkZZbhEbS76SNF5NGXDUfj2p3XFWWWf5v+V5Pz&#xA;rv8AzzrNpfWmnDQRp/k+OSzn9fUQLgvI0CBT8TSc0WpGx3pir1T8gPLOseXvyysLTWLY2V9dTXN8&#xA;+ntWtstzM0iQkHdSqEEg7gkjFXn3/ORHmCbWPP3lXyPa6Ve69Y6Y6+YPMOmabF680kUb+nBGy1AC&#xA;7tzqejr3piqR/mf+YmrRecvKf5ijyXr2gjy7ObbWby/thHDLp90wRo2dGf4l5vwqKcm8aYq+n4J4&#xA;Z4I54XEkMqh4pFNVZWFVIPgRir5o/LHyBqPmfzp+Z09r5r1jy8tv5nvkaHSpliSUmeU8pAytUjpi&#xA;qYSeVtQ/KT81fLWtT6pJ5sg833cehS3mrky6natMwWNoZyxrHVviHAbbdxir6KxV4j+WM0Olf85D&#xA;fmbpGoME1HVhY3+ml+sltHG3MIT14+ugIH8p8MVe3Yq7FXkHkD/1ov8ANT/jBon/AFBLiqL/AOcn&#xA;NVsLL8mdcguSGn1H0LOxg/alnedGAQAgkqqF/oxVn3lCxutP8paJYXYpdWlhawXAO5EkcKo//DDF&#xA;XhF55SvPM3/OTvm20tdf1Hy88OkWcrXOlyLFLIOFuvpuWDVX4q/MYq9I8v8A5S6xpOs2mpTefvMe&#xA;pxWsgd7C8uUe3lAFOMihBVcVei4q+fPOHlTU/M//ADkxc2GneYL3y5PF5Vjna+05uMrot6qGJjUf&#xA;AS4b5qMVZfo35NebNP1ixv5/zK1+/gtLiKeWxnkBinSJw7RSDl9hwOLe2KvVMVeJec5o9K/5yi8l&#xA;6lqLelYano1xpljK+yC8WSZytT0ZxMi+5IGKs487flzqXmXVYr+184a35fjigWA2elzrFC5V3f1W&#xA;Vlb4zz4k+AGKsT/5xu1fX77T/N9prOrXesPpOv3Nha3N7IZZfRgVVUVPj1274q9hxVgPnv8AKDSv&#xA;MusQeY9N1G78tebbVPSi1vTWCvJHtSO5jPwzIKdCRttWm2KpGPyR8z6zc2/+O/P+o+Y9NtZEmj0y&#xA;2gi0qGR4mDJ6/wBXZmk4sta1BruCMVetAAAAdBsMVYT5N/LU6D5z80+bb7Uv0pqvmSaPgxh9EWtr&#xA;CCIrdP3kvKi8QW2rxGwxVP8Azf5ZsfNHlfVPL19ta6nbyW7vSpQuPhkA2+JGow9xiqG8geWr/wAr&#xA;+TtL8vX2pfpabS4RbLf+l6BeJCREDGXmpwj4p9remKvOrT8kfzC0bX/MWqeVvzF/Qtv5j1K41S5s&#xA;/wBDW11xeeRnC+pPKxPAPxqAK+GKpjon5J6lJ5t0/wA1eevNt15u1LSCX0mB7aKxtIJDT94LeJnU&#xA;uKA1FNwK1oMVeqYqwL8y/wAodJ863Fjq0N7PoXmnSj/uM1+y2mjFSeDrVfUSpO1R1O9CQVWPzfln&#xA;+d2owDT9U/NFk05vhnk0/TILW7kTwWdGDRkj9pfxxV63GhSNULFyoALtTk1B1NABU/LFXlWs/k95&#xA;3P5ga/5w8q+ev8OyeYFtUu7T9FW99QWkCQoPUnl/yS2yDrTemKqmh/kZy8x2nmXzz5kvPOer6cwk&#xA;01LmNLayt5Aa+pHaRlkDggU3p7VAoq9TxV5P5h/JvzhcfmNqfnjyv52/w5eapbQ2k8H6Lgvv3cKI&#xA;tOU8vH4mjDbIDiqO0nyJ+c9tqtnc6h+aP6QsIJ4pLyw/QVjD68KOGkh9VHLR+ooK8l3Fa4q9KxVi&#xA;EP5fel+bE/5gfX6+vow0b9GejSlLhZ/W9bn/AJHHjw+nFWX4q7FWL/mH+XXl3z5oX6J1lHQxuJrG&#xA;+gPC4tp1+zLE9DQ+IOxxVhVv+W/57Wdsun2n5oq9lHRIbm50mCa7WPb7Uju3Nh/MxqfbFWT/AJV/&#xA;ljb+QNKv7UanPq97qt4+oahe3CpHznkADFUT7IPGu7HfFWbYq7FXYq7FXYq7FXYq7FXYq7FXYq7F&#xA;XYq7FXYq7FXYq7FXYq7FXYq7FXYq7FXYq7FUl81+dfKnlLTxqHmTVINMtXPGNpm+KRhuVjRau5Hg&#xA;oOKsa8tfn1+UXmXUo9M0jzJBLfTELDDPHPal2PRUNzHCGY9lBrirP8VUru7trO1mu7qQRW1vG0s8&#xA;rfZVEBZmPsAK4qxzyN+Z3kbz1HdyeVdUGorYFFux6U8DIZQxT4Z0iJDcDuPDFWUYq811b/nI/wDJ&#xA;jSNVvNK1DzD6F/p88treQ/U75+E0LmOReSQMrcWUiqkjFU58mfnD+W3nS7ey8ta5FfXsalzask1v&#xA;KVHVljuEiZgO5UGmKsxxVJ/NPm/yz5U0ttU8xajDptip4iWYmrMRXiiKC7tQfZUE4q8/tP8AnKX8&#xA;kbm6W3GvNEXPFZZrW6SOvarGP4R7nFXqsE8NxBHPA6ywyqHikQhlZWFVZSOoIxVgfmn8+/yn8q67&#xA;daDr2u/U9Ws+H1m2+q3kvH1Y1lT44oXQ1R1OzYqjvJ/5w/lp5xuvqnl3X7e8vKEraMJLedgu5KRX&#xA;CxO1B14jFWY4qwLzZ+e35VeUtbm0PzBrn1LVLdUaa3+q3ktBIodPjhhkQ1VgdjiqX6d/zkp+Smo6&#xA;hbafZ+Y/VvLyVLe2i+pX68pJWCIvJoAoqx6k0xV6birCPOX51/ll5M1caP5l1n6hqLRLcCD6tdzf&#xA;u3JCtyhikTcodq1xVJIv+cnvyNmlSKPzLykkYKi/UdQFSxoOtvir1LFUNqeqadpVhPqOpXMVnYWy&#xA;mS4up3EcaKO7M1AMVeXTf85U/khFctD+nZHCtxMyWd0yeBIPp1I+QxV6H5X82+W/NWlLq3l7UItS&#xA;09mMfrwk/C6gEo6sAysAwPFgDviqb4q+K9c8xy+afM9/5xuLGDX9e1XXW8s+RdHvh6llbR2/Bmnk&#xA;hqEk4i5ioG+Dk7MwNMVTbU/IHnDzT+ZY/LLzO+jSz2Wlz6iNX0qwgtZlZo2+rq0iRxMESeRAUoAy&#xA;9fiNcVe5f845eb9S81flLpF9qcjTahbGWynuHNWl+ruVR2J3LGPjyJ6mpxVJ/wDnKjzjNon5atot&#xA;jVtW80zLpltEm8hib4pyq9+S0i/2eKvOvJnl2b8kfzu8uaTNKW0XzjpkNldTE/uxqKqqvxrT/j5V&#xA;aeCy4q+qcVfHPkr8xPy88mfnB+Z0vnO39eK91i6WyH1ZbqjR3twX2b7OzDFU28uav5P/ADD/AOcj&#xA;vL+r+QrKPR7HRoHm1OdxFZyXZVZAfStkbk9VcIxpWleWwFVX1hir5mutIg/NP/nKHU9K8wE3Plry&#xA;ba8rfTHJ9KR19JWDrWnxzSlmP7SqqnbFXv2o+R/JupaWdJvtEsZ9NK8Batbx8FFKDgAo4EditCO2&#xA;Kp0iJGixxqERAFRFFAANgABir558tadp9/8A85ieeob62iu4l0SB1jnRZFDCLTRyAYEVoTiqp/zk&#xA;9+WnlzTfJj+fvL1rHonmPQLi2mW8sFFu0iyzpCOQjCguryKyv12pir2nyRrkmv8AkzQtclAE2qaf&#xA;a3cqr0Dzwq7gfJmIxV83ecvOXk7yl/zlPrmq+bYfX0ptLggVPQFz+9eCAqeB9lO+Ks+8s/nv+Qmt&#xA;+YdO0jSrADU764jgs2OnJGBK7AIedPh374q9txV8v/mt5l8q+W/+cpNJ1fzVxOiw6KFn5wm4HKRb&#xA;hU/dhXr8RHbFWa6X+en/ADjpqOp2mn2SQNeXk0dvbL+i3WssrhEHIxAD4iN8Ve14q+d/+cgUvPOX&#xA;5t+R/wArGnkg0e+U6nqixEgyopl2+aR2snHwLVxVlnnD8wPyR/KyW28oanpcdpHJaLcxWltYrNEY&#xA;Xd4quf2mLQty5VJ6nFWQfk95r/LnzF5fu5fIVoLHSbe7dZ7dbf6qgnkVZGKxjYAhh0xVnmKvjD81&#xA;/Imr+Q/N80txPd6d5ak1WTXPLPma0h+sJY3lzwM0M8alSAxijFa1ogIDVYBVLU1lIvNn1ryh5/1D&#xA;zR5n82w/o7zBc2uiyNcpDK6l2txcNBTgkaqoWlANiu3FV9gfl/5I0nyR5SsPLelcmtrJTymkp6kk&#xA;jsXkkem1WZj8htir5+87aRqn5xf85Cz6HpmqSaVpnka2FNThT1DHeLIrOUHJaS+sQvX/AHVXFVL8&#xA;5/yG87WPky48z3HnrUfMl15cpe21tdxkNGodfWkik9VyhRRzO37OKvoD8s/OMPnLyHovmOMr6l9b&#xA;KbpF6Jcp+7nQf6sqsB7Yq+b/AMtfzC/L7yb+cX5py+cbxLSK91e5WzMltNc8mjvrkvQQxy8ach1p&#xA;iqr5682+UvzE/N7yIn5XWzXGqadeLPqes29tJbKLcSxH95zWKRkiVH5FwBvxFeWKvrLFXzV5+/S/&#xA;5Q/nnJ+ZIsprzyZ5kiFtrL268jA7BA4IqAG5wrIpanKrKDirO7//AJym/JW10w3sWtSXspUFLC3t&#xA;bj6wxP7IEiRoD/rOB74q9WtbiK5tormE1inRZIyRQlXHIbfI4q+ZH8++U/JH/OWnnbVfM99+j7Cf&#xA;Sre1im9Kaasz2+nyKvGBJW+zExrSm2KrvzZ/NVPzgtYvy3/LK2uNUXUJ4X1fVnhkhtooIpA68vUV&#xA;XVRIoZmZR9mi8icVfRvl3RbfQ/L+maJbMXt9LtILKFm6lLeNYlJ69lxV836/5x8n+U/+cr9c1TzZ&#xA;cra6W2kwwLK8MtwPVeG3KjhEkrdFO9MVelaX/wA5A/kHe6laWWn6xC1/dTRwWirp94hMsjBEAZrd&#xA;QtWI3JxV6tir591+GGb/AJzG0KOaNZIzob1RwGG0Vz2OKveV0vTFYMtpCrKaqwjQEEdxtiqJxV4J&#xA;/wA5F+XPMmk+aPLH5seXbM6hP5ZPparaIKubQOXDbAnhSWRWIB48uXSuKp3af85L/kTqWmxajfao&#xA;lvcGP95Z3VpM9xGRvw+CORW3P7LEYqx7/nDVhJ5N8yToD6M2tSNExBAKmGM7Yq+gcVWyxRSxtFKi&#xA;yRuCrowBUg9QQeuKoax0fSbAsbCyt7Qvs5giSMsB48AK4qi8VQVhoei6dPcT6fp9tZz3jc7uW3hj&#xA;ieVgSeUjIAXNWJ38cVRU0MM8MkE8aywyqUlicBlZWFGVlOxBHUYqoabpWl6Xai00yzgsbUEsILaN&#xA;IYwzdTxQKKnFUtuPInki5uJbm58vaZPcTu0k00lnbu7u55MzMyEliTUk4qmOnaRpOmQmHTbKCxhN&#xA;Kx20SRKaCg2QKMVReKrZYopY2ilRZI3BV0YAqQeoIPXFUlsvInkexvfr1j5e0y1vahvrUNnbxy1A&#xA;oDzVA23zxVPMVSe/8m+UNRu5LzUND0+8vJaerc3FrBLI3FQq8ndSxooAHtiqYWOnafYQCCxtorSA&#xA;biKBFjSv+qoAxVEYqlGo+T/KWpXTXeo6JYXt24Ae4uLWGWQhRQAu6sxoMVUYfIXkaCaOeDy7pkU0&#xA;TB4pUs7dWVlNVZWCVBB6HFU9xVBto2jvqaaq1jbtqkaenHfmJDcKm44iWnML8R2riqMxV2KuxVIZ&#xA;/IHkO4vDez+W9LmvCSTcyWVu0tT1PMpy/HFU7ggggiWGCNYoUFEjQBVUeAA2GKr8VdirsVdirsVd&#xA;irsVdirsVdirsVdirsVdirsVdirsVdirsVdirsVdirsVdirsVdirw381f+cgNa07zRL5J/LzTItY&#xA;8xWqGTVb64NLOzUAFg7FokHDkObu6ohopqagKsBb/nI/82vKV1Z3fmWTy75i0e6oZItJvbSW5VQS&#xA;GKfV5nYUKmrGNl2pUYq+nPK3mbSPNHl6w1/SJfW07UYhNA5FGG5DKw3oyMCrDsRiqW/mX5xh8m+R&#xA;Na8yScS9hbM1sjdHuHpHAh9mldQfbFXi3/OOX/OQvmrzp5vu/Lnm2S3M09r9Y0toohCS8R5SJsfi&#xA;5RtzHspxV9H4q+XoPzY/5yB8zfmb5r8qeT5NNZNCvb1I0uokSltb3ZgSrk/E32cVTLy/+d/5veWv&#xA;zP0jyP8AmZplnx1uSKK1u7QAOPrMhhhkRo3eNkMo4srKGHX5qvo/FXin54fn/e+T9ZtPJ/lLT11f&#xA;zhfhKRurSJD6x4xII0IaSV+oWopsTWtMVY7Jef8AOZum2S6vLDpmpKo9SXRkS3aYL1KkR+kWIHZJ&#xA;Sfnir6F06S9k0+1kv41ivnhja6ijJKJKVBdVJ6gNUDFXzt56/Nj86JPzz1P8vPJMlhSJYXs47uJO&#xA;hsY7qXlIx8WamKqc357/AJz/AJda1ZW/5reX7d9DvZOCapYAchT7TI0byRsVG/psFYjFX0fZXlre&#xA;2cF7aSrNa3MaTW8yGqvHIoZGU+BU1xV88fmN+bH5xR/nhJ+XnkmSxrLFG9nHdxL1Fn9al5SMfBWp&#xA;iqbad/0N7+kLb69+hfqXqp9a4ely9LkOfH341xV7vir56/OP82PzV0n839N8jeS5LMHUrWB7dLqJ&#xA;WrNK0oNZGOwpGMVVv+syf+1H/wAksVe/4q82/PD86NO/LHQYLg24v9a1FnTTLEtxQ+mBzllYbhE5&#xA;DYbsTTbchV5zpl//AM5k61YLrcK6ZpsM4EsGkzxwRyFGFQOLiR0+UkgbFXrv5U6t+Yup+WpJfP8A&#xA;pkGla7DdSQCC3rweFFQrL9uVasxYfC1NvoxVmWKvzu8wX88D+ZtO1JpIri68yk+ZmTaZoY5JSq/F&#xA;uR6pkYg7cghO/HFU+0bVvybsvzT8w6jpgaz8mW+jXsWlW9wJZJLm4msxasiiUu4MrTSFeR6eHQKv&#xA;pP8A5xS0vV9P/JvThqKNELq4uLmyjcEMLaRhwND2dgzjxBrirz3/AJzS86J6eg+SIZxGJ3/Septu&#xA;eKAmG35BakivqMR7DFXnHnnz7+XejeffJXmr8urp7gaBbW9pqEDQy27SJZ0jqxkVORngZo2oe2Kv&#xA;uKwvrW/sbe+tJBNaXcST28q9HjkUMjD5qa4q+M/J+l/mlqP59/mJF+XWsWmjaol/qbXc98iuj2/6&#xA;RI4KGt7v4uZU/ZHzxVF31t5x8gfnb5a8w/nIw8xG7Pp6ZqdrODDC0bheaxelDtA0wfhxUfFyFTti&#xA;r7IxV8o+XzBH/wA5qan+maC4Z5hp5l2+NrFfQ49q+hsv9cVfV2KuxV8wWf8A63Hff8YF/wC6LFir&#xA;M/8AnL6XTl/J2ZLrj9Ykv7UWAalfWDMW417+j6nTtirNPyPS7T8ofKK3YYS/oyAqG6+mVrF/yT40&#xA;xV88fmTZecr3/nLf6t5Lv4NM8yyQR/UL66UNDHx0tml5BorgfFEHUfuzue3XFXqHl7yn/wA5YQa/&#xA;pk+uedNGutFiu4H1S1hhjEktqsimeNCNPjozR1A+NfmMVe34q+SPz6i8zS/85N+Xo/K80UHmBrO0&#xA;GnTXABiWXnPQuCrilP8AJOKs/wBO0f8A5y9XULZr7XNFeyEqG6VEi5GIMOYX/Rhvxrir3jFXyz/z&#xA;ka1vD/zkN+Xk+sUGgqtj6jPT0wV1BzMWrtxCmPl7Yq9X/NrSPz1utQhvPy98xafo+kW9oTe295Gj&#xA;yPOrMxZOdpdbcOI+0PlirH/+cWPzI86eedA1y7806j+kbizu4orZ/Rgg4o0fIikEcQO/jir2/FXh&#xA;/wCb3/OOB8z6+3m3yhfw6N5llAF7Dcpzs7sgABpF4ycSQBz+BlbutakqsY0v8g/zr1jWtIuPNmv6&#xA;NY6dosqyWq6bY2pkHEliFjW1t4uLFm+2SATXgcVfS4FAB4bYq8J078jfMWr/AJ76n5886x2F5oVJ&#xA;V0nT+RuKhVFvbCWGSMRgCHk56/H9+Ksp/NX8kfLHmnyLqWkaJo+m6brLqsunXkVvFAVmiYMFZ405&#xA;BXAKN7HFU2/Jny55s8s/l5pvl/zQ0EmoaZzt4pbaRpVa2DVhqWVKFFbhSnRRirxpPyW/P3y/+ZHm&#xA;nzZ5Nv8ASrQa9e3kiNO/qMba4ujcIGR4HVW+zWmKou0/5x7/ADX84ebtL1381/MlrfWelurxWFmK&#xA;syq4cxUSG3ijVyo5MOTEe+4VfSOKvG/zv/5x9HnvULXzL5e1AaL5vsQix3R5LFMIm5Rl3jrJHJGf&#xA;syKCabU6UVYr/hL/AJzF1C1/Q915m0+ytCBHLqUbRLMUG1Vkhg9YN3qOLe+KvobToryHT7WK9mW4&#xA;vI4Y0uZ1XiskqqA7hSTQM1TTFXz356/Jr85H/OzUvzD8k3em2rTrClnJdOS4Aso7WXlG0UiblGpi&#xA;q22/5x0/Mvzpr1lqf5veao9TsbE8o9KsahXBpyT4Y7aOHnT42RCxHcdQq+i7e3gt4I7e3jWKCFVj&#xA;iiQBVVFFFVQNgABQYq+evzF/Jr83rr86ZfzD8lXWnWskcUaWUl25Lqfqn1aXlGYpE3VmpiqYado/&#xA;/OXq6hbNfa5or2QlQ3SokXIxBhzC/wCjDfjXFXvGKvF/OP5Q+a9Y/P7y959tHtRoelxQJcrJIwnr&#xA;EZS3FAhB/vB+1ir2jFXYq89/Oj8ndJ/M3y9FY3E5sdUsWaXTNQC8+DOKPG67co3oOVDWoB9iq8tt&#xA;fJX/ADl/pWnDQLTzBpt3pyIYYr2ZopXERHEAvPAZjQfzAnFWff8AOPX5P6x+Wfl/UbLV763vLzUb&#xA;hJ2W0DmKMInCgeQIzV/1Bir1bFXYq7FXYq7FXYq7FXYq7FXYq7FXYq7FXYq7FXYq7FXYq7FXYq7F&#xA;XYq7FXYq7FXYqo3t9ZWNrJd3txHa2sQrLPM6xxqPFmYgDFUt0bzn5P1yZoNF13T9UnSpaKzu4Lhw&#xA;B1qsbscVTjFVk88FvBJPPIsUESl5ZXIVERRVmZjsABuScVSrRPOfk/X55INC13T9WnhXnLFY3cFy&#xA;6JWnJlidyBXapxVOMVY1d/mb+W1ndTWd55s0a2u7aRobi3m1C1SSORCVdHRpAysrChB6Yqj9F83e&#xA;VNdZ10TWrDVWjFXFlcw3BUdKn0mamKptiqld3lpZ20l1eTx21tEOUs8zLHGo8WZiAMVYxbfm3+Vt&#xA;1d/VLfzbpElwTRUF7B8RrSinnRj8sVZYCGAINQdwR0IxVj+qfmF5B0i/l0/VfMulaffwcfWs7q+t&#xA;oZk5qHXlHI6svJWDCo6HFUZovmryxroY6JrFlqgQVY2VzFcUFaVPpM3fFU0xVIdW/MDyHo989hq/&#xA;mTS9OvowpktLu9t4JVDDkpMcjqwqDUbYqg/+VsflZ/1OWh/9xKz/AOqmKsqxVI9Z89eSNDuxZa15&#xA;h0zS7woJBbXt5b28vBiQG4SurUNDvTFUD/ytj8rP+py0P/uJWf8A1UxVlKOjorowZGAKsDUEHcEE&#xA;Yq2SFBJNANyT0AxVidx+bf5W212bSfzbpEdwpoyNewDifBjzop+ZxVktjf2N/apd2NzFd2sm8c8D&#xA;rJGw/wAlkJBxVXxV8Rfmn57Xzx5p1vWfMk11L5N8v336M0Dy9Zyei15c1cBi5VwlVjMksnBmAZUX&#xA;rUKsduPLdzqPm2HQvL/lOfyP5q0u0m1GVje3Ukn+jWz3SkCYF42kVUVSG2Y+GwVfXv5C+fr3zx+W&#xA;WmazqLB9VjMlnqMi0AeaBuPqEDYGRCrkUG522xVIP+cqfOv+G/yovLOCThf+YHXTYKHcROC9w3y9&#xA;JSn+yGKvmr8ktS1b8tvzY8sXWrqbXT/MtpEGJNFex1LaCUk0oqzIrH2XFX3tir4Em03yBqP5/wDm&#xA;628938um+Xzq2rtJcwkhxKLqT0x8KSnc/wCTiqM0fQ/LkP5++XLX8ob++1XT4rm0mmu3VlaMLL/p&#xA;dWMcRMIh+0WWhqV37qvu/FXx1+fWt+ZPzJ/O+1/LPTrs2+lWlxFZxx1b0jO0YluLmVAfjMSlgo8F&#xA;2pU4q9Kn/wCcM/yvfRxaw3epRaiEoNS9VGJkp9poSnDjX9kUNO/fFXt2iaTa6Po1hpFoKWmnW0Np&#xA;bjwjgjEaf8KuKvj78xfKel+bv+cvbvy7qplXT9QltUnMDBJKJpMUg4sQwG6Dtiqr+eX5GQ/lNaab&#xA;518j6tfQCK6S3lEki+vDI6MySRyxrF8B4FWUg9fDFX1D+V/m2Xzd+X+heY50CXOoWqvcqoovrITH&#xA;LxHZTIjU9sVfJX/OQNtoFz/zkq9v5ina10KVtOTU7lKho7cwRiRlormoX/JOKsitfy+/5w9urmK2&#xA;t/Nt/JPO6xRIHkHJ3PFRvadycVfXeKvjX/nJ2z0i9/5yG0Cz1mf6to9zBpsOpXPIR+nbSXUizPzY&#xA;ELxjJNSNsVZEn5Pf84lSOqJ50LO5Cqo1O2qSdgP7rFX1LbwpBBHAleESqi160UUFcVfM3/OYvn3W&#xA;4JNH8g6PK8X6Vj+taisTFXnSSQwQQGlPgZ0csO+3hiqW3n5Gf849+R9PstL/ADE8w3MXmS7txcSy&#xA;RtIiDkSp9FY4ZBxV1IHOpPX2xV6p/wA466b+Wmk+XtX0vyJrr69arffWrq4ljZJIzNGqRxsSkQai&#xA;wncKPlir1rFXwJ+aPlDVvJPni/0C7lGm2kmpNrPlrVJEJt2R26MUR91HBT8NFZdxxbkFUZc695qs&#xA;fOr+YJ/OXl3VPMXm+zk0u6vFeeWOxS4RYg7ehCI4yqIqrQNSpqvU4q+vPyg/Lu3/AC/8iWPl2O4F&#xA;5Ohe4vLtRxWSeY8mKj+VRRV9hir5l/5yd1TWfP35yWHkfy9C19PpMQtbe1VkUPeTqJ5yHdlQcY1R&#xA;W5EU4nFWM/nD5S/Po6RYa75+0mO207RkSwtLmBrD91G5AjjK2kjPxBHwkjb6cVfYP5PedB5z/LjQ&#xA;9eZ+d3NbiG/8frUH7qYnw5OpYexxV8gWkP5cS/8AORPm1PzDKjy3+ldYMhdrhB631qT097UiTr9G&#xA;Kob8xdQ/LvSPzC0S7/JCW6juISgJha5ZGuzJxjSH6yfXfn9lwfhatB3xV99Yq+Mvzki1T8sf+cjr&#xA;bz09o0+k3lxHqFuw6SKYhDdwhjsJBViPCqnFXutz/wA5R/ktBow1Ndbad2UsmnxW8xuiwFeHBlVF&#xA;PuzBffFXqGm6haalp1rqNm/q2l7DHcW8g6NHKodG+lTir5C85+YNH8vf85lzazrNytnplnNbNc3L&#xA;BmCBtHjQEhAzfaYDYYqiv+ckvzy8tee9IsPJfklptWa4vI5rm5jhlQO6gpFBDG6rI7M71+zTYUrX&#xA;FX0Z+UXlW88qflr5f0C+2vbO1H1pag8JpWMsiVGx4NIVr7Yq+Vvz3Ty4/wDzk8E8zUHl5pNNGqlj&#xA;Io+rehH6lTFSQfD/AC74qz60t/8AnCO0uobu3lgS4t5Flhf19ZPF0IZTQuQaEd8VfTWKvj//AJyJ&#xA;0mx1j/nJjyrpF+hksdRGk2l3GGKlop7145AGWhFVY7jFXskP/OKn5KwzJNHpE4eNg6H65cndTUft&#xA;4q9cxV8q/wDOZXlfWbXXfLvn2wiL29nEtlczAFlhlhmae3Mg6cXaVhXxFD1GKonzr+Y3/OOX5k+U&#xA;JPMPmOkPnG30yW3s7KZ75JIbkI7xoogIhlX1jVWIP+VTpiq7/nBz/jl+bv8AjPZf8QmxV9P4qlXm&#xA;Pyr5b8y2H6P1/TbfU7OvJYrmNZArUpyQndGp3Ug4qx/y5+Sv5V+XNQTUdH8t2lvfRmsVw4ed42H7&#xA;UZmaTg3utDirNcVYnpn5U/l9pfmmXzXY6NHF5hmkmmk1EyTPIZLmvqtR3ZQW5noO+Kp55g8v6N5h&#xA;0e50bWrVb3TLxQtzbOSFcKwdd1IIoygihxVCeUfJPlfyfpsmmeW7FdPsJZTO9ujyOvqsqqWHqM5F&#xA;Qg6YqxnU/wAgPyf1TUrvU7/y3DPfX00lzdzmW4BeWZy8jkLIB8TMTsMVTDyx+T35Y+V71b/Q/Ltp&#xA;a3ybx3RVppUJ2rG8xkZP9jTFWY4ql3mDy3oPmLTZNM1ywg1Kwk3a3uEDrUdGFfssOzDcYqwK3/5x&#xA;o/I+C6FynleIyBuQWS5vJI61r/dPM0dPbjTFXpVra21pbQ2trClva26LFBBEoSOONBxVEVaBVUCg&#xA;AxVhfmT8kvyt8y61ca3rmgRXuqXfD6xctLOpf041iTZJFXZEA2GKozyr+VH5c+VLn635f8v2ljeb&#xA;hbsIZJ1BFCFllLuoPcA4qyzFWFeZ/wAl/wAsPNGsS6zr2gxX2pzqiy3LyTqWEahFFEkVdlFOmKpV&#xA;/wBC3fkl/wBStB/yOuv+quKvSsVYxrP5ZeRda8zWfmjU9Jjude09oWs75nlDRm2k9WIhVcIeL77j&#xA;FWT4q7FVG8srO9tZbS9gjubSdSk9vMiyRujbFXRgVYHwOKvN5/8AnGf8j57o3L+V4xIzcisdzeRx&#xA;19okmWMD240xVm3ljyd5W8rWTWXl3S7fS7aQhpUt0Cl2AoGkb7TmndicVTjFXYq7FXYq7FXYq7FX&#xA;Yq7FXYq7FXYq7FXYq7FXYq7FXYq7FXYq7FXYq7FXYq7FXYq8p/NX/nILQ/JOqx+XNN0+fzH5unCm&#xA;PSLSvwcxVBK6rI3NhuqKhNOtKg4qw6P/AJyh82aDeW//ACsPyBfaDpN3Jwj1FBL8Fe3CaNA5A3NH&#xA;Bp+zir37S9TsNV0621LTp1ubC8iSe1uIzVXjkHJWHzBxVJvzE842/k3yTq/madRINNtzJFEx4iSZ&#xA;iEhjJ7c5GVcVeM/k5/zlPfeePPVr5Z1bSbbTkvopfqtxDK7Ezxr6gQ89qMiN9NMVfRGKvlrzb/zl&#xA;95p0Xzlrfl618uWl0ul6hdWMMhkm5yLbTPEGKqOpCVNMVRnkv/nMyK+1600nzR5eGmxXMqwPf287&#xA;MIWduIaSGRFPHccjzqOtD0xV9M4q8w/Ob8+/Lf5Zww200Dapr92nq22lxuI+MVSvqzSENwQkEL8J&#xA;JPbqQq8Yi/5zO87xgahc+T7dtHdgqSK9xHXsVE7K8ZP+xxV9SeWtYbW/Lumay1s9mdStYbv6rIQz&#xA;x+tGJODEbVHLFXgf5s/85SeYvJP5i6p5TsdBtb6KwNuIp5JJRI5uLaKenFdvtS0FMVQHln/nNWzf&#xA;UY7PzZ5cfToGIWW8tJTKYye7W7ojce5o5PgDir6Wsb6zv7K3vrKZbizuo0mtp4zyR45FDI6nuCDX&#xA;FXz7+cX/ADk/r/kPz/e+WLLQ7W+htkgdJ5ZJFdjNEshHFdti1MVYn/0OT5+/6k6D/grn+mKvrCzm&#xA;ae0gnZeLSxq7L4FlBpirwf8APD/nJHXPy686R+XrHRra/ieziuvWmkkV+UruvGi7fsYqwf8A6HJ8&#xA;/f8AUnQf8Fc/0xV9VaPeyX2k2V7InpyXVvFM8YrRWkQMV38K4qxv8z/zQ8t/l15dOsa0zSPK3pWN&#xA;jFT1riWleKV2AUbsx2A9yAVXzz/0Ob53upZrrTvJ9u+mQn958dxMyA/Z5zIqIP8AgMVe4/kl+bbf&#xA;md5butYOkNpRs7n6pIvqieN5AiyMUfjGdg61BXavU4q9ExV+fWqeZNTS/wDM98bxrDX9d197HU9U&#xA;5ES2lnydniVxRkSRjRqEVWLj9nkMVTfS/KX5cH81fMGnJrf6Z8naHot7NFqV5IjhpDacD6TgKjFL&#xA;q5LR8R9oClTuVX0V/wA4lSak/wCS+ni8B9FLq7WwJ7weqSae3qmTFWEf85r+dPq+kaJ5Ot3pJfSH&#xA;Ub5QaH0YaxwqR3V5GZvmmKvnvUIbLyTq/lDXvL+qwajfJbWuqXawSrJ9XvklMj20gQ7cVCKfHfFX&#xA;6JaHrFlrWi2GsWLc7PUbeK6t28Y5kDr+BxV8EahqvmjSv+citd1DyrZ/X9ft/MGqmwtPTab1GM86&#xA;sPTQqzUQsdjires6vq+qfnHp2q/nBa3WjiSa3e+jSzMDfV4jxjpG5RjGeNGcFjStKkUxV+gSOkiL&#xA;JGwdHAZHU1BB3BBGKvhL81Ik13/nKCbT9dY/ULjWrCwnDEqFsyYYtiT8I9M1r71xV9yforTP0aNL&#xA;+qQnTBELcWJjUweiBxEfp048OO3GlMVRKIkaLHGoREAVEUUAA2AAGKviz8y//WybP/tueX/+TVli&#xA;r0X/AJzZ0jSD5J0TWGhjGsR6mtpHcUAlNtJbzSSIe7KHjQ+304qzn/nF27vLr8kPL7XRLekbqGF2&#xA;rUxR3Uqp1/lpxHsMVfNf/OTU13B/zkFeTWSereRfo57aOhblKsERRaDrVqbYq9FtPzb/AOcsnuoU&#xA;m8mcYWdRI36MuRRSQCa+p4Yq+pcVfEv/ADl9LJF+c1nLGvOSPTbRkTc1YTSkDbFWYf8AQzH5+/8A&#xA;lvf+nDUf+asVfVWKvjX/AJzavbx/P+hWTk/UoNKE0K/siWa5lWUj34wx1xVn35g+bfzF/LHy/oFn&#xA;+W2gwT+T7XRorq9vzaSTxpJ8ReSSWN0WrKA7E9a1xVPf+cYPzQ13z5Y+Y5tWtLC0a0uIHUafB9XE&#xA;jzo/qPL8T8mPpLvir2/FXzR+dP8Azjfr135mu/Nnkm2tdTi1NxNrHlq7b0llmrVpIn5xU5kktSRH&#xA;BJ4t8VAqxDTvyO/MXzBrOjQy/lvonlnTdNkDXU809y6TxlizJMFvJppvb9roC4XFX1/YWFlp9lBY&#xA;2MEdrZ2yCOC3hQRxoiigVEXYDFXyf+YX5M/mZ+Y355TX+q6RcWPlKW7jtBqAlgqmn23wmSMF3YNK&#xA;FZ1qhozbjtiqO/Mv/nDvSdN8qy3vkWbU9T16KWLjYXc1qyyRM3GTjxit6MtQ27dAdsVesf8AOOOm&#xA;edtF/LeDQPN2myade6VPLFZiRo39S1c+qhrGz/Zd3SngBir59138p/z30v8AODW/OPlfQJfU/TGo&#xA;Xml3ha1dWjuJpeL8JJP2o5P2hiq/VPyW/wCcjPzP8021551gWyWJFt21C5a1SOGAMWIjgtiWc1Yn&#xA;7O56sMVfZNhZxWNjbWUNfRtYkhjrueMahRX6Bir56/5yQ/5x01nzdq484eUAkmstGkepac7iJp/S&#xA;ULHLFIxC+oEUIQxAIAoa9VWGRan/AM5nzaRHoEdneoAvoi+aO1juSgFAGunIodvt1Df5WKvqvysu&#xA;tr5Z0lNdCjWls4F1Pg3NfrIjUSkMOtXrir5Y/Of8qfzgvfzz1Dzl5U0OS5hhuNPu9MvQ9vxMtpbW&#xA;4B4SuK8ZYiKMN6YqhNQ/J3/nJP8ANPXLQ+e5BYWFpVUuLl7ZYoVYgv6NtamrOwA3IFaAFtsVfWHl&#xA;Pyzpnlfy3p3l/TFK2OmwLBFy+03H7Tt/lOxLN7nFXy5+fv5Rfmrrn5w3nmTyzoct5ZqLN7W7V4Ap&#xA;kghQH4ZHU/C69xiqP/T/APzm3/1bv+SGmf1xV9S2hnNrCbgUnMa+qNvt0HLp74q+Xv8AnIz8pPzE&#xA;80/mxY6zoGiyX2mRWlpFJcpJCoDxzSM4o7q2wYdsVfU2KuxV5H/zkP8Akk/5k6Haz6XLHb+Y9J5m&#xA;yMpKxzxSULwOwrxNVBRqbHboahV4RFpP/OV+m+T7ryE2j3VxoUkLWfpvHb3BSBwQ0cVwrN8FDQfE&#xA;ePamKvXv+cVfyw85+RtH10+Z7JbCXVJbZ7aD1Y5XCxLIGL+kzqv2xtWuKvdcVdirsVdirsVdirsV&#xA;dirsVdirsVdirsVdirsVdirsVdirsVdirsVdirsVdirsVdir/9k=</xapGImg:image>
    </rdf:li>
   </rdf:Alt>
  </xap:Thumbnails>
 </rdf:Description>

 <rdf:Description rdf:about=''
  xmlns:dc='http://purl.org/dc/elements/1.1/'>
  <dc:format>image/svg+xml</dc:format>
 </rdf:Description>

</rdf:RDF>
</x:xmpmeta>
                                                                                                                                                                                                                                                                                                                                                                                                                                                                                                                                                                                                                                                                                                                                                                                                                                                                                                                                                                                                                                                                                                                                                                                                                                                                                                                                                                                                                                                                                                                                                                                                                                                                                                                                                                                                                                                                                                                                                                                                                                                                                                                                <?xpacket end='w'?>
			</metadata>
		<g id="レイヤー1">
			<g>
				<rect fill="none" width="100" height="150"/> 
				<rect x="100" fill="none" width="100" height="150"/> 
				<rect x="200" fill="none" width="100" height="150"/> 
				<rect x="300" fill="none" width="100" height="150"/> 
				<rect x="400" fill="none" width="100" height="150"/> 
				<rect x="500" fill="none" width="100" height="150"/> 
				<rect x="600" fill="none" width="100" height="150"/> 
				<rect x="700" fill="none" width="100" height="150"/> 
				<rect y="150" fill="none" width="100" height="150"/> 
				<rect x="100" y="150" fill="none" width="100" height="150"/> 
				<rect x="200" y="150" fill="none" width="100" height="150"/> 
				<rect x="300" y="150" fill="none" width="100" height="150"/> 
				<rect x="400" y="150" fill="none" width="100" height="150"/> 
				<rect x="500" y="150" fill="none" width="100" height="150"/> 
				<rect x="600" y="150" fill="none" width="100" height="150"/> 
				<rect x="700" y="150" fill="none" width="100" height="150"/> 
				<rect y="300" fill="none" width="100" height="150"/> 
				<rect x="100" y="300" fill="none" width="100" height="150"/> 
				<rect x="200" y="300" fill="none" width="100" height="150"/> 
				<rect x="300" y="300" fill="none" width="100" height="150"/> 
				<rect x="400" y="300" fill="none" width="100" height="150"/> 
				<rect x="500" y="300" fill="none" width="100" height="150"/> 
				<rect x="600" y="300" fill="none" width="100" height="150"/> 
				<rect x="700" y="300" fill="none" width="100" height="150"/> 
				<rect y="450" fill="none" width="100" height="150"/> 
				<rect x="100" y="450" fill="none" width="100" height="150"/> 
				<rect x="200" y="450" fill="none" width="100" height="150"/> 
				<rect x="300" y="450" fill="none" width="100" height="150"/> 
				<rect x="400" y="450" fill="none" width="100" height="150"/> 
				<rect x="500" y="450" fill="none" width="100" height="150"/> 
				<rect x="600" y="450" fill="none" width="100" height="150"/> 
				<rect x="700" y="450" fill="none" width="100" height="150"/> 
				<rect y="600" fill="none" width="100" height="150"/> 
				<rect x="100" y="600" fill="none" width="100" height="150"/> 
				<rect x="200" y="600" fill="none" width="100" height="150"/> 
				<rect x="300" y="600" fill="none" width="100" height="150"/> 
				<rect x="400" y="600" fill="none" width="100" height="150"/> 
				<rect x="500" y="600" fill="none" width="100" height="150"/> 
				<rect x="600" y="600" fill="none" width="100" height="150"/> 
				<rect x="700" y="600" fill="none" width="100" height="150"/> 
				<rect y="750" fill="none" width="100" height="150"/> 
				<rect x="100" y="750" fill="none" width="100" height="150"/> 
				<rect x="200" y="750" fill="none" width="100" height="150"/> 
				<rect x="300" y="750" fill="none" width="100" height="150"/> 
				<rect x="400" y="750" fill="none" width="100" height="150"/> 
				<rect x="500" y="750" fill="none" width="100" height="150"/> 
				<rect x="600" y="750" fill="none" width="100" height="150"/> 
				<rect x="700" y="750" fill="none" width="100" height="150"/> 
				<rect y="900" fill="none" width="100" height="150"/> 
				<rect x="100" y="900" fill="none" width="100" height="150"/> 
				<rect x="200" y="900" fill="none" width="100" height="150"/> 
				<rect x="300" y="900" fill="none" width="100" height="150"/> 
				<rect x="400" y="900" fill="none" width="100" height="150"/> 
				<rect x="500" y="900" fill="none" width="100" height="150"/> 
				<rect x="600" y="900" fill="none" width="100" height="150"/> 
				<rect x="700" y="900" fill="none" width="100" height="150"/> 
			</g>
			<polygon points="136.1000977,37 166.6999512,110 170,110 138,34 134,34 102,110 105.3000488,110 135.8999023,37 "/>
			<rect x="115" y="81" width="42" height="3"/> 
			<path d="M205,68v3h22l0,0c17.206543,0,25,6.3259277,25,17c0,12.5073242-7.6269531,19-25,19h-22v3h22
				c18.9130859,0,28-7.5683594,28-22c0-9.7329102-6.1875-16.9375-18.2001953-18.6000977v-0.1999512
				C246.125,67.625,251,61.2304688,251,52.5c0-11.5756836-7.9511719-18.5-24-18.5h-25v76h3V37h22c14.2973633,0,21,5.7397461,21,15.5
				c0,9.9265137-6.8691406,15.5-21,15.5l0,0H205z"/>
			<polygon points="549,68 549,68 505,68 505,37 551,37 551,34 502,34 502,110 551,110 551,107 505,107 505,71 549,71 "/>
			<polygon points="649,68 649,68 605,68 605,37 651,37 651,34 602,34 602,110 605,110 605,71 649,71 "/>
			<path d="M419,107h-14v3h14c25.6523438,0,40-14.347168,40-38c0-24.7197266-13.2802734-38-40-38h-17v76h3V37h14
				c24.5512695,0,37,11.7756348,37,35C456,94.2429199,442.5141602,107,419,107z"/>
			<path d="M71,71c0,11.3144531-7.579834,19.8999023-17.0952148,19.8999023c-5.8625488,0-8.1574707-3.425293-5.4987793-12.6970215
				l8.1154785-28.3029785h-3l-2.0634766,7.1962891h-0.1999512c-0.9462891-6.217041-4.4494629-9.1962891-11.1628418-9.1962891
				c-10.2756348,0-19.2072754,7.6977539-23.5952148,23c-3.9575195,13.8015137,2.2724609,23,12.4047852,23v-3
				c-8.2788086,0-12.8793945-7.4611816-9.5209961-19.1728516c3.795166-13.2358398,11.3442383-20.8271484,20.7114258-20.8271484
				c7.7424316,0,11.2792969,6.0664063,7.5209961,19.1733398c-4.1777344,14.5688477-11.1289063,20.8266602-18.7114258,20.8266602v3
				c5.9575195,0,12.0288086-3.9377441,15.5285645-10.3664551h0.1999512
				c-1.4645996,6.012207,2.5551758,10.3664551,9.2714844,10.3664551C64.5917969,93.8999023,74,84.1821289,74,71
				c0-20.7675781-14.8994141-36-35-36C18.565918,35,2,51.565918,2,72s16.565918,37,37,37
				c10.6166992,0,20.6647949-4.5598145,27.8000488-12.6000977l-3.1999512-0.7998047C57.1762695,102.3017578,48.2875977,106,39,106
				C20.2226563,106,5,90.7773438,5,72s15.2226563-34,34-34S71,52.2226563,71,71z"/>
			<path d="M766,105V68h-32v3h29v32.0952148C756.2211914,106.2133789,747.6049805,108,739,108c-20.1699219,0-34-14.3007813-34-36
				s13.8300781-36,34-36c9.2001953,0,14.9013672,1.4538574,23,5.8999023L763,39c-7.5893555-4.166748-14.7495117-6-24-6
				c-21.9287109,0-37,15.4951172-37,39s15.0712891,39,37,39C749.1782227,111,758.8452148,108.6875,766,105z"/>
			<path d="M360,105l-1-2.8999023C352.2148438,106.3781738,346.203125,108,339,108c-20.1699219,0-34-14.3007813-34-36
				s13.8300781-36,34-36c7.203125,0,13.2148438,1.6220703,20,5.8999023L360,39c-6.4863281-4.0893555-13.296875-6-21-6
				c-21.9287109,0-37,15.4951172-37,39s15.0712891,39,37,39C346.703125,111,353.5136719,109.0895996,360,105z"/>
			<polygon points="136.7666016,190.6713867 165.083252,260.0046387 171.3334961,260.0046387 140.166748,184.0046387 
				133.166748,184.0046387 102,260.0046387 108.25,260.0046387 136.5666504,190.6713867 "/>
			<polygon points="137.4333496,344.3427734 163.4665527,410.0092773 172.6665039,410.0092773 142.3334961,334.0092773 
				132.333252,334.0092773 102,410.0092773 111.2001953,410.0092773 137.2333984,344.3427734 "/>
			<polygon points="138.1000977,498 161.8500977,560 174,560 144.5,484 131.5,484 102,560 114.1499023,560 137.8999023,498 "/>
			<polygon points="138.7666016,651.6713867 160.2333984,710.0043945 175.3334961,710.0043945 146.666748,634.0043945 
				130.666748,634.0043945 102,710.0043945 117.1000977,710.0043945 138.5666504,651.6713867 "/>
			<polygon points="139.4333496,805.3286133 158.6166992,859.9956055 176.6665039,859.9956055 148.833252,783.9956055 
				129.8334961,783.9956055 102,859.9956055 120.0498047,859.9956055 139.2333984,805.3286133 "/>
			<polygon points="140.1000977,959 157,1010 178,1010 151,934 129,934 102,1010 123,1010 139.8999023,959 "/>
			<rect x="115.3334961" y="230.8378906" width="42.6665039" height="5.166748"/> 
			<rect x="115.666748" y="380.6757813" width="43.333252" height="7.3334961"/> 
			<rect x="116" y="530.5" width="44" height="9.5"/> 
			<rect x="116.3334961" y="680.3378906" width="44.6665039" height="11.6665039"/> 
			<rect x="116.666748" y="830.1621094" width="45.333252" height="13.8334961"/> 
			<rect x="117" y="980" width="46" height="16"/> 
			<path d="M207.8334961,217.1711426v5.166748h20l0,0c15.7841797,0,22.8330078,5.7126465,22.8330078,15.333252
				c0,11.3144531-6.9291992,17.166748-22.8330078,17.166748h-20v5.166748h20c19.5517578,0,28.6665039-7.5407715,28.6665039-22
				c0-9.5688477-6.2709961-16.9348145-17.7001953-18.5168457v-0.1999512
				c8.9086914-1.5046387,13.8666992-8.0119629,13.8666992-16.7832031c0-11.6037598-7.9511719-18.5-24.6665039-18.5h-26v76h5.8334961
				v-70.833252h19.5c13.5068359,0,19.5,5.0698242,19.5,14c0,8.9956055-6.1923828,13.9997559-19.5,13.9997559l0,0H207.8334961z"/>
			<path d="M210.6669922,366.3422852v7.3334961h17.9995117l0,0c14.3618164,0,20.6665039,5.0991211,20.6665039,13.6669922
				c0,10.1210938-6.2314453,15.3330078-20.6665039,15.3330078h-17.9995117v7.3334961h17.9995117
				c20.190918,0,29.3334961-7.5131836,29.3334961-22c0-9.4047852-6.3540039-16.9321289-17.199707-18.4335938v-0.199707
				c8.4912109-1.4345703,13.5332031-8.0551758,13.5332031-16.8666992c0-11.6313477-7.9516602-18.5-25.3334961-18.5h-27v76h8.6669922
				v-68.6665039h16.9995117c12.7172852,0,18,4.4003906,18,12.5c0,8.0649414-5.515625,12.4995117-18,12.4995117l0,0H210.6669922z"/>
			<path d="M213.5,515.5v9.5h16l0,0c12.9394531,0,18.5,4.4858398,18.5,12c0,8.9287109-5.5336914,13.5-18.5,13.5h-16v9.5h16
				c20.8291016,0,30-7.4853516,30-22c0-9.2407227-6.4375-16.9296875-16.7001953-18.3500977v-0.199707
				C250.875,518.0864258,256,511.3525391,256,502.5c0-11.6591797-7.9511719-18.5-26-18.5h-28v76h11.5v-66.5H228
				c11.9267578,0,16.5,3.7304688,16.5,11c0,7.1342773-4.8388672,11-16.5,11l0,0H213.5z"/>
			<path d="M216.3334961,664.6713867v11.6665039h14l0,0c11.5170898,0,16.3330078,3.8720703,16.3330078,10.3334961
				c0,7.7353516-4.8359375,11.6665039-16.3330078,11.6665039h-14v11.6665039h14c21.4677734,0,30.6665039-7.4575195,30.6665039-22
				c0-9.0766602-6.5209961-16.9267578-16.2001953-18.2666016v-0.199707
				c7.6582031-1.293457,12.8666992-8.1401367,12.8666992-17.0336914c0-11.6870117-7.9511719-18.5-26.6665039-18.5h-29v76h14.3334961
				v-64.3330078h12c11.1367188,0,15,3.0610352,15,9.5c0,6.2036133-4.1625977,9.5-15,9.5l0,0H216.3334961z"/>
			<path d="M219.1665039,813.8286133v13.8334961h12l0,0c10.0952148,0,14.1669922,3.2587891,14.1669922,8.6665039
				c0,6.5429688-4.1386719,9.8334961-14.1669922,9.8334961h-12v13.8334961h12c22.1069336,0,31.3334961-7.4301758,31.3334961-22
				c0-8.9130859-6.6044922-16.9248047-15.7001953-18.1835938v-0.199707
				c7.2416992-1.2231445,12.5336914-8.1831055,12.5336914-17.1166992c0-11.7148438-7.9516602-18.5-27.3334961-18.5h-30v76
				h17.1665039v-62.1669922h9.5c10.3466797,0,13.5,2.3916016,13.5,8c0,5.2729492-3.4853516,8-13.5,8l0,0H219.1665039z"/>
			<path d="M229,963h-7v16h10l0,0c8.6723633,0,12,2.6455078,12,7c0,5.3496094-3.440918,8-12,8h-10v16h10
				c22.7456055,0,32-7.4023438,32-22c0-8.7490234-6.6875-16.921875-15.2001953-18.1000977v-0.199707
				C255.6245117,968.5473633,261,961.4746094,261,952.5c0-11.7426758-7.9516602-18.5-28-18.5h-31v76h20v-60h7
				c9.5561523,0,12,1.7216797,12,6.5C241,960.8422852,238.1914063,963,229,963L229,963z"/>
			<polygon points="550.1665039,217.1711426 550.1665039,217.1711426 507.8334961,217.1711426 507.8334961,189.1713867 
				552.1665039,189.1713867 552.1665039,184.0046387 502,184.0046387 502,260.0046387 552.1665039,260.0046387 
				552.1665039,254.8378906 507.8334961,254.8378906 507.8334961,222.3378906 550.1665039,222.3378906 "/>
			<polygon points="551.3334961,366.3422852 551.3334961,366.3422852 510.6669922,366.3422852 510.6669922,341.3427734 
				553.3334961,341.3427734 553.3334961,334.0092773 502,334.0092773 502,410.0092773 553.3334961,410.0092773 
				553.3334961,402.6757813 510.6669922,402.6757813 510.6669922,373.6757813 551.3334961,373.6757813 "/>
			<polygon points="552.5,515.5 552.5,515.5 513.5,515.5 513.5,493.5 554.5,493.5 554.5,484 502,484 502,560 554.5,560 554.5,550.5 
				513.5,550.5 513.5,525 552.5,525 "/>
			<polygon points="553.6665039,664.6713867 553.6665039,664.6713867 516.3334961,664.6713867 516.3334961,645.6713867 
				555.6665039,645.6713867 555.6665039,634.0043945 502,634.0043945 502,710.0043945 555.6665039,710.0043945 
				555.6665039,698.3378906 516.3334961,698.3378906 516.3334961,676.3378906 553.6665039,676.3378906 "/>
			<polygon points="554.8334961,813.8286133 554.8334961,813.8286133 519.1665039,813.8286133 519.1665039,797.8286133 
				556.8334961,797.8286133 556.8334961,783.9956055 502,783.9956055 502,859.9956055 556.8334961,859.9956055 
				556.8334961,846.1621094 519.1665039,846.1621094 519.1665039,827.6621094 554.8334961,827.6621094 "/>
			<polygon points="556,963 556,963 522,963 522,950 558,950 558,934 502,934 502,1010 558,1010 558,994 522,994 522,979 556,979 
				"/>
			<polygon points="650.1665039,217.5046387 650.1665039,217.5046387 607.8334961,217.5046387 607.8334961,189.1713867 
				652.1665039,189.1713867 652.1665039,184.0046387 602,184.0046387 602,260.0046387 607.8334961,260.0046387 
				607.8334961,222.6713867 650.1665039,222.6713867 "/>
			<polygon points="651.3334961,367.0092773 651.3334961,367.0092773 610.6669922,367.0092773 610.6669922,341.3427734 
				653.3334961,341.3427734 653.3334961,334.0092773 602,334.0092773 602,410.0092773 610.6669922,410.0092773 
				610.6669922,374.3427734 651.3334961,374.3427734 "/>
			<polygon points="652.5,516.5 652.5,516.5 613.5,516.5 613.5,493.5 654.5,493.5 654.5,484 602,484 602,560 613.5,560 613.5,526 
				652.5,526 "/>
			<polygon points="653.6665039,666.0043945 653.6665039,666.0043945 616.3334961,666.0043945 616.3334961,645.6713867 
				655.6665039,645.6713867 655.6665039,634.0043945 602,634.0043945 602,710.0043945 616.3334961,710.0043945 
				616.3334961,677.6713867 653.6665039,677.6713867 "/>
			<polygon points="654.8334961,815.4956055 654.8334961,815.4956055 619.1665039,815.4956055 619.1665039,797.8286133 
				656.8334961,797.8286133 656.8334961,783.9956055 602,783.9956055 602,859.9956055 619.1665039,859.9956055 
				619.1665039,829.3286133 654.8334961,829.3286133 "/>
			<polygon points="656,965 656,965 622,965 622,950 658,950 658,934 602,934 602,1010 622,1010 622,981 656,981 "/>
			<path d="M361,255.0046387l-1.6665039-5.0834961c-6.6962891,4.2526855-12.7119141,5.916748-19.8334961,5.916748
				c-18.5488281,0-31.5-13.5195313-31.5-33.833252s12.9511719-33.833252,31.5-33.833252
				c7.121582,0,13.137207,1.6640625,19.8334961,5.9165039L361,189.0046387c-6.4418945-4.0617676-13.4521484-6-21.6665039-6
				c-22.2436523,0-37.3334961,15.4580078-37.3334961,39c0,23.541748,15.0898438,39,37.3334961,39
				C347.4589844,261.0046387,354.5581055,259.0664063,361,255.0046387z"/>
			<path d="M362,405.0092773l-2.3334961-7.2670898c-6.6069336,4.2270508-12.6269531,5.9335938-19.6665039,5.9335938
				c-16.9277344,0-29-12.7387695-29-31.6665039c0-18.9282227,12.0722656-31.6665039,29-31.6665039
				c7.0395508,0,13.0595703,1.7060547,19.6665039,5.9331055L362,339.0092773c-6.3979492-4.0341797-13.6074219-6-22.3334961-6
				c-22.5576172,0-37.6665039,15.4208984-37.6665039,39c0,23.5786133,15.1088867,39,37.6665039,39
				C348.2148438,411.0092773,355.6020508,409.0429688,362,405.0092773z"/>
			<path d="M363,555l-3-9.4501953C353.4824219,549.7514648,347.4580078,551.5,340.5,551.5c-15.3071289,0-26.5-11.9575195-26.5-29.5
				s11.1928711-29.5,26.5-29.5c6.9580078,0,12.9824219,1.7485352,19.5,5.9501953L363,489c-6.3540039-4.0063477-13.7626953-6-23-6
				c-22.8725586,0-38,15.3842773-38,39s15.1274414,39,38,39C348.9707031,561,356.6459961,559.0063477,363,555z"/>
			<path d="M364,705.0043945l-3.6665039-11.6333008c-6.4287109,4.1762695-12.4575195,5.9667969-19.3334961,5.9667969
				c-13.6860352,0-24-11.1767578-24-27.3334961s10.3139648-27.3330078,24-27.3330078
				c6.8759766,0,12.9047852,1.7905273,19.3334961,5.9667969L364,639.0043945c-6.3100586-3.9780273-13.9174805-6-23.6665039-6
				c-23.1875,0-38.3334961,15.347168-38.3334961,39s15.1459961,39,38.3334961,39
				C349.7265625,711.0043945,357.6899414,708.9829102,364,705.0043945z"/>
			<path d="M365,854.9956055l-4.3334961-13.8168945c-6.3393555,4.1503906-12.3720703,5.9833984-19.1665039,5.9833984
				c-12.0654297,0-21.5-10.3955078-21.5-25.1665039c0-14.7714844,9.4345703-25.1669922,21.5-25.1669922
				c6.7944336,0,12.8271484,1.8330078,19.1665039,5.9833984L365,788.9956055c-6.2661133-3.9506836-14.0732422-6-24.3334961-6
				c-23.5019531,0-38.6665039,15.3100586-38.6665039,39c0,23.6894531,15.1645508,39,38.6665039,39
				C350.4824219,860.9956055,358.7338867,858.9458008,365,854.9956055z"/>
			<path d="M302,972c0,23.7265625,15.1831055,39,39,39c10.2382813,0,18.7783203-2.0771484,25-6l-5-16c-6.25,4.125-12.2871094,6-19,6
				c-10.4443359,0-19-9.6147461-19-23s8.5556641-23,19-23c6.7128906,0,12.75,1.875,19,6l5-16
				c-6.2216797-3.9228516-14.2280273-6-25-6C317.1831055,933,302,948.2734375,302,972z"/>
			<path d="M420.5,254.8378906h-12.6665039v5.166748H420.5c25.5415039,0,40-14.236084,40-38c0-24.7475586-13.3081055-38-40-38H402
				v76h5.8334961v-70.833252H420.5c22.7905273,0,34.1665039,10.8745117,34.1665039,32.833252
				C454.6665039,243.0310059,442.2705078,254.8378906,420.5,254.8378906z"/>
			<path d="M422,402.6757813h-11.3330078v7.3334961H422c25.4306641,0,40-14.125,40-38c0-24.7753906-13.3359375-38-40-38h-20v76
				h8.6669922v-68.6665039H422c21.0292969,0,31.3330078,9.9731445,31.3330078,30.6665039
				C453.3330078,391.8188477,442.0268555,402.6757813,422,402.6757813z"/>
			<path d="M423.5,550.5h-10v9.5h10c25.3193359,0,40-14.0141602,40-38c0-24.8032227-13.3637695-38-40-38H402v76h11.5v-66.5h10
				c19.2685547,0,28.5,9.0722656,28.5,28.5C452,540.5932617,441.7832031,550.5,423.5,550.5z"/>
			<path d="M425,698.3378906h-8.6665039v11.6665039H425c25.2080078,0,40-13.902832,40-38c0-24.8305664-13.3916016-38-40-38h-23v76
				h14.3334961v-64.3330078H425c17.5073242,0,25.6665039,8.1708984,25.6665039,26.3330078
				C450.6665039,689.3813477,441.5395508,698.3378906,425,698.3378906z"/>
			<path d="M426.5,846.1621094h-7.3334961v13.8334961H426.5c25.097168,0,40-13.7919922,40-38c0-24.8588867-13.4194336-38-40-38H402
				v76h17.1665039v-62.1669922H426.5c15.746582,0,22.8334961,7.2700195,22.8334961,24.1669922
				C449.3334961,838.1557617,441.2958984,846.1621094,426.5,846.1621094z"/>
			<path d="M428,994h-6v16h6c24.9858398,0,40-13.6806641,40-38c0-24.8862305-13.4472656-38-40-38h-26v76h20v-60h6
				c13.9853516,0,20,6.3686523,20,22C448,986.9433594,441.0522461,994,428,994z"/>
			<path d="M734.3334961,222.3378906h26.4995117v29.293457c-6.1699219,2.6760254-13.9360352,4.206543-21.4995117,4.206543
				c-18.5488281,0-31.5-13.5195313-31.5-33.833252c0-20.3415527,12.9511719-33.833252,31.6665039-33.833252
				c8.8754883,0,15.1962891,1.6142578,23,5.9165039l1.5-5.083252c-7.4599609-4.0661621-15.3291016-6-24.8334961-6
				c-22.0766602,0-37.1665039,15.4580078-37.1665039,39c0,23.541748,15.0898438,39,37.1665039,39
				c10.3330078,0,20.3813477-2.3334961,27.5-6v-37.8334961h-32.3330078V222.3378906z"/>
			<path d="M734.6665039,373.6757813h24v26.4912109c-5.5610352,2.234375-12.4770508,3.5087891-19,3.5087891
				c-16.9277344,0-28.9995117-12.7387695-28.9995117-31.6665039c0-18.9833984,12.0717773-31.6665039,29.3330078-31.6665039
				c8.5507813,0,15.4907227,1.7744141,23,5.9331055l2-7.2666016c-7.3300781-3.965332-15.9091797-6-25.6669922-6
				c-22.2241211,0-37.3330078,15.4208984-37.3330078,39c0,23.5786133,15.1088867,39,37.3330078,39
				c10.4873047,0,20.9179688-2.3544922,28.0004883-6v-38.6669922h-32.6669922V373.6757813z"/>
			<path d="M735,525h21.5v23.6894531C751.5478516,550.4819336,745.4814453,551.5,740,551.5c-15.3071289,0-26.5-11.9575195-26.5-29.5
				c0-17.6254883,11.1928711-29.5,27-29.5c8.2260742,0,15.7856445,1.9355469,23,5.9501953L766,489
				c-7.2011719-3.8647461-16.4887695-6-26.5-6c-22.3725586,0-37.5,15.3842773-37.5,39s15.1274414,39,37.5,39
				c10.6416016,0,21.4536133-2.375,28.5-6v-39.5h-33V525z"/>
			<path d="M735.3334961,676.3378906h18.9995117v20.8876953c-4.3427734,1.3500977-9.559082,2.1123047-13.9995117,2.1123047
				c-13.6865234,0-24-11.1767578-24-27.3334961c0-16.2675781,10.3134766-27.3330078,24.6665039-27.3330078
				c7.9008789,0,16.0800781,2.0957031,23,5.9667969l3-11.6337891c-7.0712891-3.7636719-17.0683594-6-27.3334961-6
				c-22.5205078,0-37.6665039,15.347168-37.6665039,39s15.1459961,39,37.6665039,39c10.7963867,0,21.9902344-2.3955078,29-6
				v-40.3330078h-33.3330078V676.3378906z"/>
			<path d="M735.6665039,827.6621094h16.5v18.0859375c-3.7338867,0.9082031-8.1005859,1.4140625-11.5,1.4140625
				c-12.0654297,0-21.5-10.3955078-21.5-25.1665039c0-14.9101563,9.4345703-25.1669922,22.3334961-25.1669922
				c7.5761719,0,16.375,2.2563477,23,5.9833984l3.5-13.8164063c-6.9418945-3.6635742-17.6484375-6-28.1669922-6
				c-22.668457,0-37.8330078,15.3100586-37.8330078,39c0,23.6894531,15.1645508,39,37.8330078,39
				c10.9506836,0,22.5263672-2.4169922,29.5-6v-41.1669922h-33.6665039V827.6621094z"/>
			<path d="M736,979h14v15.2836914C746.875,994.75,743.3583984,995,741,995c-10.4443359,0-19-9.6147461-19-23
				c0-13.5522461,8.5556641-23,20-23c7.2514648,0,16.6694336,2.4165039,23,6l4-16c-6.8125-3.5625-18.2280273-6-29-6
				c-22.8168945,0-38,15.2734375-38,39s15.1831055,39,38,39c11.1049805,0,23.0625-2.4375,30-6v-42h-34V979z"/>
			<path d="M56.1425781,992.9760742c-4.6350098,3.5263672-10.3713379,5.472168-16.1425781,5.472168
				c-14.5834961,0-26.447998-11.8647461-26.447998-26.4482422S25.4165039,945.5517578,40,945.5517578
				c14.0380859,0,24.6240234,10.5864258,24.6240234,24.6240234c0,8.3823242-3.940918,13.6992188-9.0441895,13.6992188
				c-2.0126953,0-2.9645996-1.6049805-1.845459-7.9516602l4.1254883-23.3984375H45.5100098l-0.4750977,2.4702148h-0.1899414
				c-1.4963379-1.5795898-3.6540527-2.4702148-6.3649902-2.4702148c-10.3237305,0-18.3637695,7.2470703-20.5200195,19.4750977
				c-1.8811035,10.6689453,5.7001953,20.1401367,13.4899902,20.1401367l3.3374023-11.590332
				c-3.4289551,0-5.6396484-3.0361328-4.6672363-8.5498047c0.972168-5.5136719,3.9741211-8.5498047,7.6826172-8.5498047
				c3.6152344,0,5.6115723,3.1943359,4.6672363,8.5498047c-1.0002441,5.671875-3.9467773,8.5498047-7.6826172,8.5498047
				l-3.3374023,11.590332c6.1901855,0,9.8027344-1.4487305,12.5400391-4.75h0.1899414c1.4145508,3.1328125,4.6374512,4.75,9.5,4.75
				C67.3508301,992.1401367,76,984.0097656,76,970c0-20.4873047-15.1401367-36-36-36c-20.9533691,0-38,17.046875-38,38
				s17.0466309,38,38,38c9.4909668,0,18.6723633-3.5898438,25.6999512-10L56.1425781,992.9760742z"/>
			<path d="M69.4060059,220.7939453c0,10.5812988-6.670166,18.3498535-15.0825195,18.3498535
				c-4.9001465,0-6.8591309-2.9702148-4.5854492-11.5107422l7.1181641-27.0769043h-5.3374023l-1.6665039,6.0146484h-0.1975098
				c-1.0839844-5.0576172-4.2507324-7.5144043-9.9633789-7.5144043c-10.2875977,0-18.9963379,7.5847168-22.826416,22.1186523
				c-3.4384766,13.0183105,3.1293945,22.2849121,12.6762695,22.2849121l0.8342285-5.1474609
				c-7.0664063,0-11.0693359-6.3549805-8.3076172-16.517334c3.0893555-11.3051758,9.501709-17.7575684,17.4541016-17.7575684
				c6.7106934,0,9.8623047,5.3483887,6.8076172,16.5170898C42.9462891,232.8994141,36.9963379,238.3125,30.3754883,238.3125
				l-0.8342285,5.1474609c6.015625,0,11.472168-3.3154297,14.78125-8.9624023h0.1975098
				c-0.744873,5.2924805,3.0756836,8.9624023,9.3286133,8.9624023C65.2814941,243.4599609,74.5,234.1391602,74.5,220.75
				c0-20.6972656-14.9597168-36-35.25-36C18.6860352,184.75,2,201.4360352,2,222s16.6860352,37.25,37.25,37.25
				c10.3352051,0,20.166748-4.3173828,27.2749023-11.9499512l-4.7893066-2.3562012
				c-5.9765625,5.9082031-14.0769043,9.1679688-22.4855957,9.1679688c-17.7290039,0-32.1120605-14.3828125-32.1120605-32.1118164
				S21.5209961,189.8879395,39.25,189.8879395C56.8425293,189.8879395,69.4060059,203.2016602,69.4060059,220.7939453z"/>
			<path d="M67.8120117,370.5878906c0,9.8481445-5.760498,16.7998047-13.0695801,16.7998047
				c-3.9377441,0-5.5610352-2.5151367-3.6723633-10.3242188l6.1206055-25.8510742h-7.6748047l-1.2692871,4.8330078h-0.1950684
				c-1.2214355-3.8979492-4.0517578-5.8325195-8.763916-5.8325195c-10.2995605,0-18.7854004,7.4716797-22.0576172,21.2373047
				c-2.9191895,12.2348633,3.9863281,21.5698242,12.9475098,21.5698242l1.6687012-7.2949219
				c-5.8540039,0-9.2595215-5.2490234-7.0942383-13.8618164c2.3835449-9.3745117,7.6591797-14.6884766,14.1970215-14.6884766
				c5.6787109,0,8.4453125,4.6308594,6.0942383,13.8618164c-2.5891113,10.1206055-7.5378418,14.6884766-13.1970215,14.6884766
				l-1.6687012,7.2949219c6.0737305,0,10.9157715-2.6928711,14.0341797-7.5581055h0.1948242
				c-0.0249023,4.5722656,3.5964355,7.5581055,9.3859863,7.5581055C65.9714355,393.0200195,75,384.0961914,75,370.5
				c0-20.6274414-15.0197754-36-35.5-36C18.8061523,334.5,2,351.3061523,2,372s16.8061523,37.5,37.5,37.5
				c10.0537109,0,19.6687012-4.074707,26.75-11.2998047l-6.3789063-3.9121094
				c-5.5292969,5.1137695-12.8417969,7.9360352-20.3710938,7.9360352c-16.6804199,0-30.2241211-13.543457-30.2241211-30.2241211
				S22.8195801,341.7758789,39.5,341.7758789C55.9077148,341.7758789,67.8120117,354.1801758,67.8120117,370.5878906z"/>
			<path d="M66.2180176,520.3818359c0,9.1152344-4.8505859,15.2495117-11.0568848,15.2495117
				c-2.9753418,0-4.2629395-2.0600586-2.7590332-9.1381836l5.123291-24.6245117H47.5129395l-0.8720703,3.6518555h-0.192627
				c-1.3588867-2.7392578-3.8530273-4.1518555-7.5644531-4.1518555c-10.3117676,0-18.574707,7.3598633-21.2888184,20.3564453
				c-2.4003906,11.4516602,4.8432617,20.8549805,13.21875,20.8549805l2.5029297-9.4423828
				c-4.6413574,0-7.4494629-4.1425781-5.8808594-11.2060547c1.6782227-7.4443359,5.8168945-11.6191406,10.9399414-11.6191406
				c4.6469727,0,7.0285645,3.9125977,5.3808594,11.2060547c-1.7946777,7.8959961-5.7421875,11.6191406-10.4399414,11.6191406
				l-2.5029297,9.4423828c6.1320801,0,10.359375-2.0708008,13.2871094-6.1542969h0.1923828
				c0.6948242,3.8525391,4.1169434,6.1542969,9.4428711,6.1542969C66.6611328,542.5800781,75.5,534.0527344,75.5,520.25
				c0-20.5571289-15.0800781-36-35.75-36C18.9265137,484.25,2,501.1767578,2,522s16.9265137,37.75,37.75,37.75
				c9.7724609,0,19.1704102-3.8325195,26.2250977-10.6499023l-7.9682617-5.4677734
				c-5.0820313,4.3198242-11.6064453,6.7036133-18.2568359,6.7036133c-15.6320801,0-28.3361816-12.7041016-28.3361816-28.3359375
				S24.1179199,493.6640625,39.75,493.6640625C54.9729004,493.6640625,66.2180176,505.1591797,66.2180176,520.3818359z"/>
			<path d="M56.1425781,692.9760742c-4.6350098,3.5258789-10.3713379,5.472168-16.1425781,5.472168
				c-14.5834961,0-26.447998-11.8647461-26.447998-26.4482422S25.4165039,645.5517578,40,645.5517578
				c14.0380859,0,24.6240234,10.5864258,24.6240234,24.6240234c0,8.3823242-3.940918,13.6992188-9.0441895,13.6992188
				c-2.0126953,0-2.9645996-1.6049805-1.845459-7.9516602l4.1254883-23.3984375H45.5100098l-0.4750977,2.4702148h-0.1899414
				c-1.4963379-1.5795898-3.6540527-2.4702148-6.3649902-2.4702148c-10.3237305,0-18.3637695,7.2470703-20.5200195,19.4750977
				c-1.8811035,10.6689453,5.7001953,20.1401367,13.4899902,20.1401367l3.3374023-11.590332
				c-3.4289551,0-5.6396484-3.0361328-4.6672363-8.5498047c0.972168-5.5136719,3.9741211-8.5498047,7.6826172-8.5498047
				c3.6152344,0,5.6115723,3.1943359,4.6672363,8.5498047c-1.0002441,5.671875-3.9467773,8.5498047-7.6826172,8.5498047
				l-3.3374023,11.590332c6.1901855,0,9.8027344-1.4487305,12.5400391-4.75h0.1899414c1.4145508,3.1328125,4.6374512,4.75,9.5,4.75
				C67.3508301,692.1401367,76,684.0097656,76,670c0-20.4873047-15.1401367-36-36-36c-20.9533691,0-38,17.046875-38,38
				s17.0466309,38,38,38c9.4909668,0,18.6723633-3.5898438,25.6999512-10L56.1425781,692.9760742z"/>
			<path d="M56.1425781,842.9760742c-4.6350098,3.5263672-10.3713379,5.472168-16.1425781,5.472168
				c-14.5834961,0-26.447998-11.8647461-26.447998-26.4482422S25.4165039,795.5517578,40,795.5517578
				c14.0380859,0,24.6240234,10.5864258,24.6240234,24.6240234c0,8.3823242-3.940918,13.6992188-9.0441895,13.6992188
				c-2.0126953,0-2.9645996-1.6049805-1.845459-7.9516602l4.1254883-23.3984375H45.5100098l-0.4750977,2.4702148h-0.1899414
				c-1.4963379-1.5795898-3.6540527-2.4702148-6.3649902-2.4702148c-10.3237305,0-18.3637695,7.2470703-20.5200195,19.4750977
				c-1.8811035,10.6689453,5.7001953,20.1401367,13.4899902,20.1401367l3.3374023-11.590332
				c-3.4289551,0-5.6396484-3.0361328-4.6672363-8.5498047c0.972168-5.5136719,3.9741211-8.5498047,7.6826172-8.5498047
				c3.6152344,0,5.6115723,3.1943359,4.6672363,8.5498047c-1.0002441,5.671875-3.9467773,8.5498047-7.6826172,8.5498047
				l-3.3374023,11.590332c6.1901855,0,9.8027344-1.4487305,12.5400391-4.75h0.1899414c1.4145508,3.1328125,4.6374512,4.75,9.5,4.75
				C67.3508301,842.1401367,76,834.0097656,76,820c0-20.4873047-15.1401367-36-36-36c-20.9533691,0-38,17.046875-38,38
				s17.0466309,38,38,38c9.4909668,0,18.6723633-3.5898438,25.6999512-10L56.1425781,842.9760742z"/>
		</g>
	</svg>
