<?xml version="1.0" encoding="utf-8"?>
<!-- Generator: Adobe Illustrator 11.0, SVG Export Plug-In . SVG Version: 6.0.0 Build 78)  -->
<!DOCTYPE svg PUBLIC "-//W3C//DTD SVG 1.0//EN"    "http://www.w3.org/TR/2001/REC-SVG-20010904/DTD/svg10.dtd" [
	<!ENTITY ns_flows "http://ns.adobe.com/Flows/1.0/">
	<!ENTITY ns_svg "http://www.w3.org/2000/svg">
	<!ENTITY ns_xlink "http://www.w3.org/1999/xlink">
]>
<svg  xmlns="&ns_svg;" xmlns:xlink="&ns_xlink;" xmlns:a="http://ns.adobe.com/AdobeSVGViewerExtensions/3.0/"
	 width="800" height="1050" viewBox="0 0 800 1050" overflow="visible" enable-background="new 0 0 800 1050" xml:space="preserve">
	<metadata>
<?xpacket begin='﻿' id='W5M0MpCehiHzreSzNTczkc9d'?><x:xmpmeta xmlns:x='adobe:ns:meta/' x:xmptk='XMP toolkit 3.0-29, framework 1.6'>
<rdf:RDF xmlns:rdf='http://www.w3.org/1999/02/22-rdf-syntax-ns#' xmlns:iX='http://ns.adobe.com/iX/1.0/'>

 <rdf:Description rdf:about=''
  xmlns:pdf='http://ns.adobe.com/pdf/1.3/'>
 </rdf:Description>

 <rdf:Description rdf:about=''
  xmlns:tiff='http://ns.adobe.com/tiff/1.0/'>
 </rdf:Description>

 <rdf:Description rdf:about=''
  xmlns:xap='http://ns.adobe.com/xap/1.0/'
  xmlns:xapGImg='http://ns.adobe.com/xap/1.0/g/img/'>
  <xap:CreateDate>2005-10-18T07:01:17Z</xap:CreateDate>
  <xap:ModifyDate>2005-10-18T07:01:17Z</xap:ModifyDate>
  <xap:CreatorTool>Illustrator</xap:CreatorTool>
  <xap:Thumbnails>
   <rdf:Alt>
    <rdf:li rdf:parseType='Resource'>
     <xapGImg:format>JPEG</xapGImg:format>
     <xapGImg:width>196</xapGImg:width>
     <xapGImg:height>256</xapGImg:height>
     <xapGImg:image>/9j/4AAQSkZJRgABAgEASABIAAD/7QAsUGhvdG9zaG9wIDMuMAA4QklNA+0AAAAAABAASAAAAAEA&#xA;AQBIAAAAAQAB/+4ADkFkb2JlAGTAAAAAAf/bAIQABgQEBAUEBgUFBgkGBQYJCwgGBggLDAoKCwoK&#xA;DBAMDAwMDAwQDA4PEA8ODBMTFBQTExwbGxscHx8fHx8fHx8fHwEHBwcNDA0YEBAYGhURFRofHx8f&#xA;Hx8fHx8fHx8fHx8fHx8fHx8fHx8fHx8fHx8fHx8fHx8fHx8fHx8fHx8fHx8f/8AAEQgBAADEAwER&#xA;AAIRAQMRAf/EAaIAAAAHAQEBAQEAAAAAAAAAAAQFAwIGAQAHCAkKCwEAAgIDAQEBAQEAAAAAAAAA&#xA;AQACAwQFBgcICQoLEAACAQMDAgQCBgcDBAIGAnMBAgMRBAAFIRIxQVEGE2EicYEUMpGhBxWxQiPB&#xA;UtHhMxZi8CRygvElQzRTkqKyY3PCNUQnk6OzNhdUZHTD0uIIJoMJChgZhJRFRqS0VtNVKBry4/PE&#xA;1OT0ZXWFlaW1xdXl9WZ2hpamtsbW5vY3R1dnd4eXp7fH1+f3OEhYaHiImKi4yNjo+Ck5SVlpeYmZ&#xA;qbnJ2en5KjpKWmp6ipqqusra6voRAAICAQIDBQUEBQYECAMDbQEAAhEDBCESMUEFURNhIgZxgZEy&#xA;obHwFMHR4SNCFVJicvEzJDRDghaSUyWiY7LCB3PSNeJEgxdUkwgJChgZJjZFGidkdFU38qOzwygp&#xA;0+PzhJSktMTU5PRldYWVpbXF1eX1RlZmdoaWprbG1ub2R1dnd4eXp7fH1+f3OEhYaHiImKi4yNjo&#xA;+DlJWWl5iZmpucnZ6fkqOkpaanqKmqq6ytrq+v/aAAwDAQACEQMRAD8A9U4q7FXYq7FXYq7FXYq7&#xA;FXYqkX+O/Jv6YOi/pi1/SwlFubL1B6omP7HH+bfpiqe4q7FXYq7FXYqkWp+e/Julaj+jdR1i1tL8&#xA;FAbaWQK9ZKcNj/NUUxVPcVdirsVdirsVdirsVdirsVYTG8nk3zT6EjH/AAr5juCbVmNVsdVmapiq&#xA;fsw3jGqeE1V/3YoCrtLkfzj5lGs8j/hbQpXj0dRXhe3y1jmvD/NFBVooezNyfshxVm2KsKLv5O80&#xA;nmzf4W8yXOzHdbHVZj0JP2Yb1unZZv8AjJsq7zJLN5q15vJ9m7JpNn6c3mu6QkEo45w6cjCnxTij&#xA;zU6Rbf7sBxVmoAUAAUA2AHQDFWNXf5aeQLy6mu7rQLKa5uJGlnmeJSzyOSzMx8STXFWL+RPKPlu9&#xA;82S+b9G0+DT9FsFmsNDFugj+tuTwub1yv2o6r6UHagZ/2lxV6birFfIH/TR/9ty9/wCNMVZVirsV&#xA;YX5gkk8q+Z4vMwY/oHVjFZeYkr8ME1RHaX++yoK+jN/klGOyHFWaYq7FWK/ml/ygmp/88P8AqIjx&#xA;VlWKuxVjnnjXb7TtMhstJ4t5h1mUWOjqw5BJXUs9w6/77tolaVvHjx6sMVSTyxp48jeYIPLAlll0&#xA;DWY/U0ee4dpHj1CCIfWoGdiSfrKIblf8oS+2Ks+xV2KuxV2KuxVg3n4f4ouP+VfWg5JexpP5juwA&#xA;fqmnl/hVCagXFy8ZWLb4QGfqoqqify/vJ9OjbyTqQVNS0CGNLOVEWNLzTR+7t7mNFAVSoX05kX7L&#xA;jsrLirMMVQmsaTp+saXdaXqMK3FjeRtDcQt0ZWFOo3BHUEbg7jFWNflBaRQ/ln5cuQWkutT0+21L&#xA;ULmRi8s93eQpPPNI7EszM7nr226DFWYYqw7zpcXOt30XkjTZWie+i9fzBeREq9rppYqURh9ma7Kt&#xA;FH3C836qKqsstLS2s7WG0tYlgtbeNYoIUAVEjQBVVQOgUCgxVVxVivkD/po/+25e/wDGmKsqxV2K&#xA;qF9Y2d/ZXFjewrcWd1G8NzBIOSPHIpV0YdwQaYqxfyPfXmnXV15L1aVpr/SEWXTLuQktd6Wx4QSs&#xA;x+1LCR6M3uFf9sYqy/FWK/ml/wAoJqf/ADw/6iI8VZVirsVSr/D1q3mb/EM0jzXUdp9StIX4+nAj&#xA;SepM0YpXnMQgck9EWlN6qu8zeXbXX9Kaxnke3kSSO4tLyHj6sFxA4khmj5Bl5I69xQioOxxVNcVd&#xA;irsVdirsVSvQPLllosd36DyXF1f3El3fXtwVaaaWQ0HMoqLxjQLGihQFVQMVa1fy5Y6nf6ZqEjy2&#xA;9/pMxmtLmBgrlXHGWB+SsGilXZ1p2BFGUEKprirsVS/y9olroOgaZodm8klppVpBZW7zEGRo7eNY&#xA;kLlQqliq70A+WKphirDIfy3urXU9V1DTvNus2MmsXTXl2kaaTKOZAREV7iwml9ONFCIpc0A+eKpr&#xA;pPlvWbG+S5uvNWqapCoYNZXcWlrE1RQEm1sraX4eoo498VT7FWIeWl1zSdS1a0n0S7kt7/VZ7qHU&#xA;YpLMwCGfjxZla4Wfam4ERPzxVl+KuxV2KpXq3l2x1LUNL1GR5IL7SJmltZ4SFYrInCWF+QYNFKtO&#xA;S+IBBBAOKppirEPzAXXNU0i80LT9Eu7hrgwhNQElmlsKSpIxPqXCTfCFP+6vlirL8VdirsVdirsV&#xA;SXW/8afWk/Qf6N+qemOf131/U9SprT0vh48afjiqX/8AIVP+1H/0+YqyiH1fST1uPq8R6nCvHlTf&#xA;jXelcVXYq7FXYq7FXYq7FXYq7FXYq7FXYq7FXYq7FXYq7FXYq7FXYq7FXYq7FXYq7FXYq7FWN+Wv&#xA;POn63rmuaCYJbDWdBmWO6s7jjykhkXlDdQlSwaKUdD1H7QGKu8w+edP0fzFonlxbea/1nXJH9G1t&#xA;+JMNvEKy3U5YqEiTp4sdlBxVkmKsb8u+edP1nzDrfl17eaw1nQ5FE9pc8azW8orFdQMhYPE/TxU7&#xA;MAcVVPPPnbS/J+h/pS+jluXlmitLGwtgGuLq5nbjHDCpK8mO569ATiqe28kkkEcksZhkdVZ4WIYo&#xA;xFSpKkqadNjirCtR/MDzTa6hc2sPkLWbyGCV4oruGXTxHMqMVWRA9yr8XA5DkAfHFUHo/wCb8t55&#xA;40/ydqHlbU9I1PUIJbpGuGtJEjghVj6sv1eaVkVnXgpI3Y0xV6Jirz3QvM/5h6/5h12LTxpEGi6H&#xA;rDaVIJ47lrqRIooZndWSQRhis9B8PUYq9CxV2Kseg86ae/ne68n3EMtrqMdpHf2UsvH0ruBjwkMD&#xA;Ak8oX+F1YA71G2KshxV2KvPfzT8z/mJ5U0TV/MmlDSJtG0yATi2uo7k3LUoHHKORY/tHbbpir0LF&#xA;XYqpXl3a2VpPeXcqwWttG01xM5oqRxqWdmPYACpxViP5dfmnovnlb1bK0u9OuLMQzC1v0WKSW0uV&#xA;5291GoZqxSgGhxVmeKuxV2KuxV2KvLfzttR5fgtPzO0yWO217y1SKWORuCahYTuFlsHoCSzM3KHr&#xA;R/nUKrvyRshrVhc/mZqU8d5r/mvcGI847GxicrDYREgEenxrL0q/XpXFXqGKvPfzT8rasZLHz15W&#xA;j5ebfLYZltlqP0hYE8riwkpWvIVaLY0fpuahVJvy9+sfmT5li/MvU7aW20CwV7fyXpdwAG+L4bjU&#xA;ZFBI5yEGOPwUV8Dir1vFUj86+cNI8oeWr3X9VYi2tE+CJN5JpW+GKGMd3kchR952xVjn5U+UNXso&#xA;b7zb5pAfzn5mZZ9QXtZ24H+j2EVeiwp9rxbrWgOKs/xVgH5T/wDHR/MH/wACu6/6gbPFWf4q7FWE&#xA;/mn5R1LWdKtdY8vlYvN/luU3+gynYSOFpNaOdv3dzHWNhXrTwxVO/JXm3TvNvlmx16wDJFdp+9t3&#xA;2kgmQlJoJAQCHjkUqdsVTvFWAfn9/wCSa82f8wLf8SXFWf4q7FXmv5nm68067pX5bWfqLZ6iv6R8&#xA;1XSVUR6XA4Atw/8APdSgJsa8Q3bFWvzP0yby3eaT+Yuh2paXy6v1PW7G2WjXGhykCVFRRubVqTRr&#xA;sBRsVej21zBdW8VzbuJIJ0WSKRejI45Kw+YOKqmKuxV2KuxV5Zb2l3+Yv5hfpC+gePyR5OuSul28&#xA;ylBqGrx/au+LD4obYGkR6M29T0xVwtLv8ufzD9a0hkk8jec7n/SoYlZl03WHH9/RQeMF0BRz0V99&#xA;h1Vep4q7FWB/kTb3Ft+UPlaC4ieGeOyUSRSKVdTybYqaEYqzzFXgmveffLusfm5I3mt7y08teS5i&#xA;mj6f+jr+4W81RSUkvXMEEqcLehWGp6/GNsVel6B+bXkbX9Wg0nS7q7kvrnn6KS6dqFuh9NGkass9&#xA;vHGvwoftMK9OuKswxVgH5T/8dH8wf/Aruv8AqBs8VZ/irsVdirzJrW68ifmaLm1hkk8o+eJwt9HE&#xA;hZbLWuNFnIUHjHdqvFz/ADipIGKvTcVYB+f3/kmvNn/MC3/ElxVn+KuxV2KuxV2KuxV2KuxV2Kux&#xA;V2KuxV2KuxV2KuxV2KuxVh8f5YaPBrl3rFnqerWUt/efpC8tLa9kitZJ6IpLwr8JDLEqsO4xVmGK&#xA;uxV2KuxV2KsP83/lho/mxrtNV1PVlsr1FiuNNt72SK0ZVAFPRHw70qffFWYYq7FXYq7FXYqx7zD+&#xA;XnkbzJepfa/oVlql5HGII7i6hSV1iVmYIGYHYM7GnviqV/8AKlPyj/6lDSv+kWL+mKswtbW2tLWG&#xA;0tY1htrdFighQUVEQBVVQOgAFBiqrirsVdirsVdirsVdirsVdirsVS648yeXbaZ4LjVLOGeM0kik&#xA;niV1PgVLAjFUxxV2KuxV2KuxVAXfmDQbOc295qVrbTrQtFNPGjgEVFVZgd8VRsckcsayRsHjcBkd&#xA;SCrKRUEEdQcVXYq7FXYq7FXYq7FXYq7FXi9z5l8x/lz+by2fmHULi/8AIXnOQJpF5dyGQadf1r9W&#xA;Lt9mJ+VFr2p/K+Kuv/M3mL8wvzdTy35Y1GfT/KHlBxJ5n1OzkaM3d3WgslkQg8QVKtQ/z+C4q9ox&#xA;V4zqPmbzD+XP5uxxa9qNxe+QfObiPTri6dpBpmo1r6HNieMUldvb2RsVV/zj85+Y7/X9L/LDyNdP&#xA;beZtXK3Oq6nDWunaejAtIWBHFn7b1pt1dcVer6bZfUdPtrL15bn6tEkX1m4cyTScFC85HP2nalSf&#xA;HFXnurfk9rV/qt7fx/mH5lso7ueWdLO3ukWGESOXEUSlDRErxUeGKvOPy5t/N+sfnPc2mh+c9b1f&#xA;yV5VbjrF5qFz6sV1eUZfq8QQIrIG6nf7JPdcVfSOKvBvJH5ceRvNn5h/mXceY9Gt9TnttaSOCScE&#xA;lEaAEgUI74q95xV2KvJPzB8xa/8Al/8AmNpPmm7vp5/IOucNL1q1kdnh066NPQu41/YR+NHpt9r9&#xA;plxV62CGAINQdwR0IxV2KvHv+ch/y88k3XkLzR5puNIgk8wxWQaPUmB9UGPiiEGtNl2xV6D+Xn/K&#xA;AeWf+2VY/wDUMmKsgxVi35nee7PyP5L1DzBcASTQr6Wn2vee7l+GGIDqatu1OigntiryryJrX5je&#xA;Q/OOgWH5h6vPqlh56tV9KW4Ykafq4Yv9UAOyqySqm3Vumy4q9+xV2KuxV2KuxV4x/wA5MapZ6j5d&#xA;sfy8s7KPVPNXmu4jTSrVyf8ARlifk94xXdAgBAPhyrVVYYqo/wDONV5BoNnrH5Z6paJYebPL11LP&#xA;eFSf9PhnYFL1S3xN8JRT/k8PGgVe24qxn8yvJ+j+b/JWqaHq0fK3mhaSORac4powWjlQnoysPp6H&#xA;Y4q8z/5xN0GB/I03nS9mlvvMXmCaSO9v7ljJL6No5hiiDNU8fgqfo8Bir3LFXkv56+fNXtksfy98&#xA;nn1PO3musMJUlfqlm1RLcsw3X4VbiewDN+yKqs1/LryHo/kXyjZeXNLHKO2XlcXBADzzvvJM9O7H&#xA;p4Cg7YqyXFXlX5Pf8p3+aX/bcj/6hxir1XFXYqlXmryzpXmjy7f6Bq0Xq2GowtDMNqrX7LrXo6NR&#xA;lPYjFXnn5GeZtUtl1H8s/M8vLzN5QIhgmb/j80w0+rXCV68UKqfAca/FXFXrGKsA/P7/AMk15s/5&#xA;gW/4kuKp/wDl5/ygHln/ALZVj/1DJirIMVYH5u/Lm980+fvLur6neRt5Y8ucruHR+LFptRO0c0rV&#xA;48Ytio8a9mOKph+aPkC089+TbzQZpPq90xW40293rb3cW8UopQ7bqafsk4qnvl+DWLfRLGDWriO7&#xA;1aGFI726hUrHLKoo0iqfs86Vp2xVH4q7FXYq7FWBeVPysbS/Put+edb1X9Oa7qYEFgxg9COwswai&#xA;CFDJN7AtUV/2TVVa88/lX+n/ADZoPnDRtU/QXmXRH4teCD6wl1aGvK2mjEkBK7mh5bBm9iFWfYqp&#xA;XcH1i1mt+XH1o2j5UrTkCK02xViv5T/l9/yr/wAkWflf6/8ApP6pJNJ9c9H0OXrStJT0+ctKcqfa&#xA;xVl+KvFZvyG89w/mBrfnbRfzC/R2p6zJIKyaPb3jw2pcGK2R55m+GNFRKqq14iuKsl0DyR+cFlrN&#xA;pd6v+Zf6X0yGQNdab+hLK29dKfY9aNy6fMYq9FxV4R5Y86Q+SvP/AOYS6vousypqmrrcWU9lp1xc&#xA;xPGsIUkOi8euKvd8VdirsVYT5u/LY6z5y8vecdL1L9D65obNFPMIfXS8sZK87SVfUi23PFqnjUml&#xA;aUVZtirx78/fOttJ5S8x+TLbSdXvNWu7QRwSWunzzWzNJxcD10UrsOvgcVeieQoZoPI3l2CeNopo&#xA;tMs0licFWVlt0DKyncEHqMVT3FXYq7FXYqxHzf5x81aLqUVrpHk698w2zwrK97a3FtCiOXZTEVmd&#xA;GqAoavTfFUj/AOVnfmJ/5bDVf+kyw/6qYqz/AEi8u73S7W7u7N9Oup4lkmsZWV3hdhUxsyEqSvTY&#xA;4qi8VdirsVdirsVdirsVdirsVdirsVdirsVdirsVdirsVdirsVdirsVdirsVdirsVdirGNC/MvyT&#xA;rvmXUPLGm6l6mv6Vy+vafLDPBIgjYIxX1o4w4BI3Qkbg9DirvOH5l+SfJ1xp9r5i1H6pdaqxTT7a&#xA;OC4uZZWUqtFjt45W6uAKjc9MVZODUVxVjGj/AJl+SdY81X/lOw1Hn5i0wObzTpYLiB1CMFYqZo40&#xA;kHxA1QmoNRtviqN83+dPLHk7Rm1rzJfLp+mrIkXrMskhMkh+FVjiV3Y7E/CvQE9BiqO0bV7DWdKt&#xA;NV092ksb6JZ7WR45IWaNxVW9OVUcchuKrirAdW/5yP8AyY0jVbzStQ8w+hf6fPLa3kP1O+fhNC5j&#xA;kXkkDK3FlIqpIxVfon/ORX5Oa3q9npGl+YPrGo38qW9pB9Tvk5ySHiq8ngVBU9yaYq9HxV4xe/nx&#xA;5zm87+YPK3ljyA/mCTy9MsV1cx6nHb1Dj4GKSQGlaHYMcVew2cs81nBNcQ/V55I0eW3LBjG7KCyc&#xA;hSvE7VxVWxVjp/MLyePOn+Cn1D0/Mxi+sJYSRTJzj48+UcrIIZPhrsrk7HwNFWRYq7FXl/5k/mr5&#xA;98n3eozWfkGTWPLunQC4l1wajFboUEYeT9yYpHHA1HvirNvJPmT/ABP5R0fzD9X+qfpW0iu/qvP1&#xA;fT9VQ3DnxTlSvXiMVTrFXEhQSTQDck9AMVYZ5P8Azj/LXzlq8+j+W9aS/wBRt42mkgENxF+7RgjM&#xA;jTRxo4BYfZJ8emKszxV2KuxV2KuxV4F/zkZ5S1Hy9qen/nL5V4w63oDxprMZPFbm1YiJSwFORo/p&#xA;P3KH/JxVLvyR0i+/NHz/AKh+cXmWNRZ2cpsvK+mk81h9IfbP/GIPsabyMzbUGKvo7FXg3/ORnkjW&#xA;NMv9P/N7yevDzD5bKtqkarUT2a1BdwKFuCMUk8Yz1HHFWJ6ffXX/ADkX+ZNhPJbS2v5deV44ri6t&#xA;Zafv7yRQzRNTYlmHD2jUnYvir6kRERFRFCooAVQKAAbAADFWK+dZPIXlnQdS8za9p1kLW0Vp7iVr&#xA;eJpJZGPwqKr8UkjkAV6k4q8X/wCcffIlz5w813n5w+ZLKK1imldfLGlxoEiiRap6yqoUUjA4Iabt&#xA;yfrQ4q+k8VeFfk1/5Pn82v8AjPafrkxV7rirsVeO/wDORnkTUdQ0az89eWgYvN3k5/rtrJGKvLbI&#xA;ecsRA+1xpzCn/KX9rFWd/lt5703z15N07zJYUQXScbq3rUw3CbSxH/Vboe60PfFWT4qwr86//JR+&#xA;b/8AtlXX/Jo4q78lP/JR+UP+2Va/8mhirNcVeO/85I+dtQsPL1n5I8vfvPNPnSX9HWsSmjJbSEJN&#xA;ISPs8uQSp7Fj+zirDPzJ/Kk/lf5Z8peefJ0YOq+RwketMoIN7bTMfXeTqd5JXB8Ec9kFFX0H5a8w&#xA;6Z5k8v6frulyerYalAlxA21QHFSrAVoyn4WHYimKplirsVdirsVfN/5qanffm7+aVp+VWhzsvlnR&#xA;ZBdebL6I7F4iA8Yb/ivl6aj/AH4dx8GKofR2P5Cfm+2izs0f5becn56fK7MyWdyCFozMT/dlgjkn&#xA;eMqxPwnFX0xiqE1hVbSL5WAZWt5QyncEFDscVeKf84aqo/KW4IABbVrnkfH91D1xV7tir5A/Oz8z&#xA;fLfnb82bfyf5g1RtG8g+WruRNVl9OeR7m7t2KTAJAkjjcGKM0oPiau4GKvcfK/5+/kje3emeW/L+&#xA;tr60zRWWmWMdlexJXZIo1LwKijoNyBir07FXhX5Nf+T5/Nr/AIz2n65MVe64q7FXEAih3B6jFXzv&#xA;olfyY/OyTQn/AHPkDz5J62lt0itL+oHp77KOTBP9VkqfhOKvojFWFfnX/wCSj83/APbKuv8Ak0cV&#xA;d+Sn/ko/KH/bKtf+TQxVmuKpVP5V8t3GvweYp9MtpddtY/RttSeNWnjjow4pIRUD943TxOKphd2l&#xA;reWs1pdxJPa3MbRXEEihkeNwVdGU7FWU0IxVC6HoGi6DpyabotlDp+nxlmjtbdBHGpc8mIUbCpNc&#xA;VR+KuxV2KuxVA6boGhaXJPJpmnWtjJckG5e2hjhaQgkguUVeVOR6+OKt6romi6vCkGrWFtqEMbc4&#xA;4rqGOZValOQWQMAaHriqMREjRY41CIgCoiigAGwAAxVzKrKVYBlYUZTuCD2OKoXTNI0nSrY2ul2U&#xA;FhbFi5gtokhTkaAtxQKKmnXFUXiqR3HkTyRc3Etzc+XtMnuJ3aSaaSzt3d3c8mZmZCSxJqScVbtf&#xA;I/kq0uY7q08v6bb3MLB4Z4rOBHRhuGVlQEEeIxVO8VeMXv5D+c4fO/mDzT5Y8/v5fk8wzLLdW0em&#xA;R3FAg+BS8k4rSp3CjFXsNnFPDZwQ3E31ieONEluCoUyOqgM/EVpyO9MVVsVdiqC1TRNF1aJItVsL&#xA;bUIom5xx3UMcyq1KclEgYA074qjcVeX/AJk/lV5984Xeow2fn6TR/LuowC3l0MadFcIEMYST98ZY&#xA;3PM1PtirNvJPlv8Awx5R0fy99Y+t/oq0itPrXD0vU9JQvPhyfjWnTkcVTrFXYq7FXYqwrzr+WP8A&#xA;irVYtQ/xZ5j0H0oFt/qeiah9Tt24u7+o8fpvWQ8+JavQDwxVj/8AyoL/AMyP55/7jX/XnFXoflvR&#xA;P0HolrpX6QvNU+qqy/X9Sm+sXcvJi1ZZaLyI5UG3TFUyxV2KuxV2KuxV2KuxV2KuxV2KuxV2KuxV&#xA;2KuxV2KuxV2KuxV2KuxV2KuxV2KuxV2KvAPMn5yeevy//Oi20HzjLby+RtXYnT9QWERNFFKaIzuN&#xA;iYHosn+T8XcDFW/zF/Ojzvefm1p/5c/lqbd7pDw1i+miE8ccjUZ+9AtvGKuepY8eo3Ve+Qq6RIsj&#xA;+o6qA8hABYgbtQbCuKvAfOH5y+e/y7/OSz0jzbJBN5C1Zi1lfLAI5I4ZDxqzqd2t5CBJ4p8VNxiq&#xA;a/8AOQn536n5L/RPl/yiI7vzZrEiPHGU9cJbs3BKID8TzyfCnsD7Yq9U8ow+ZIvLlgvma4judeMQ&#xA;bUJIEEcQlb4iiKvZK8a96VxV5P5h/wChsP0/qf6D/Q36F+tz/ov1vT9T6r6jehzrvy9OlcVYB5S/&#xA;O/8APW//ADb0/wAj3Uun37RahFDrX1GFHRLeN1N4RMCAPTj5An+bYb4q+rsVfJ1p5KuPzC/5yE89&#xA;aHe+YNU0yy08vcwCxuCm4eKPjxbkoWjnoMVfT/lrRE0Ly/p+jR3E12mnwJbrdXDcppBGvHnIwpVj&#xA;3xVMsVeJfm5+a3nX8uPzF0K5vjFcfl1qzLFc0h/fW8ijjKPUBqaVEq1+18S9sVe1QzRTwxzQuskM&#xA;qh45FIKsrCoYEdQRiq/FXhn5+flJFd6d5k8+xeYtWs72zsGuItOtpxHa8raGi/CBy+LjVt8VZJ/z&#xA;jNd3V3+SPlu4u5pLi4f67zmlYu7Uv7gCrMSTQCmKvT8VSbzl5r0vyn5X1LzFqbcbPTYWldQaF26R&#xA;xr/lSOQi+5xV83eUP+cj/wA0LXWvLOr+eLe1g8j+aJp4be5jiEXphJPSMnOpPGJ2BPLqtTir6qBB&#xA;FRuD0OKuxV2KuxV2KvA/+cx7zynH+XNtbaonqa9NdK2g8CBIhWn1h2PX0vTPFh3Yr4VCrDv+cM5P&#xA;LtnrnmXTdTge3881p/pXwyG1Qj1okVgGV1m+KUE1Pw7fCcVfVuKvPvzy/LSw8/eQr3T5OMep2Std&#xA;6TdN/uueNSeJI34SL8Dff1AxV4T/AM4j+SG8za7d+f8AX7l7+bQ/S07SUmZpGWRIVUOeXaGHikY9&#xA;69hir63xV4x/zkp+cv8Agjy6ND0WWvmzW0KWoTd7a3aqNcUG/Mn4Yv8AKqf2aYqrf843/k0PIfln&#xA;9KatEP8AFetIr3xbdreE/ElsCe/7Uni22/EHFXsOKvnX8o//AFqT8yf+MD/8noMVfRWKuxVin5oe&#xA;QbDz55J1Hy5d8UkuE52Nw3+6bqPeGToTQNs1OqkjvirzH/nFvz9qE+mX/wCXHmPlD5k8pu8MUUp+&#xA;NrRH9Mp13+rv8HhxKUxV7zirCvzr/wDJR+b/APtlXX/Jo4qx/wD5xc/8kT5Z/wCj7/uoXGKvVcVe&#xA;Jf8AOQXkf8yPzB1XQPKuj2Zg8miZLnXdX9eBfi5FeIhLiV/SjqwHAhmYfy1xVkv5sflFpfmr8rJP&#xA;Kel20cE+lwo/l1RRRHNbJxjTkdgJFrGxP81eoxVG/kpH59tvIFjpnnnT2sdb0z/RFdpoJ/Xt4wPR&#xA;l5QPKAwT4G5GpK174qzvFXYq7FXYq8Em/JHzp5t/OxfOnnqSzPlvTm5aRpUErzHjA1baORWRVALE&#xA;yy7mrfD0Oyqt+bH5H+bL38yNJ/MP8vJ7Wy12BlbUo7p3jjleIBUf4Ffl6kVY5F2qoHicVe4Wj3L2&#xA;sL3Uaw3LRqZ4Ub1FSQgFlV6LyAO1aCuKrb+F57G4gSnOWJ0WvSrKQK4q8s/5xw/K3zL+XXlbU9L1&#xA;9rZ7m7vvrMRtZGkXh6KJuWVN6ocVetYq+V/NP5A/nhffmvqHnrT7zSppxqEtzo73srSmKBHItAYn&#xA;hdAYo+NOtCK9d8VZx5e0n/nLCPX9MfXNa0aXRVu4G1SKJIxI1qJFM6pS3U8jHWm4xV7hir5S8s/m&#xA;F5P8j/8AOSn5hah5o1D9H2dyr28Evozz8pPUhfjxgSVh8KncimKvqDRNa03W9Is9Y0ub6xp1/Elx&#xA;aT8XTnHIKq3Fwrio7EVxVG4q7FXin5kfk75sk/NPRfzI8gSWkGqwUXWrW6kaGO4VAE6oklfVhJjf&#xA;wopG+KvawSQCRQ9xirxr8/Pzc/L3TfKvmnyXe6t6XmWfTZYorD6vctV7iHlEPVWIwjkGHV9u+Kph&#xA;/wA4uf8AkifLP/R9/wB1C4xV6rirsVdirsVee/mH+e3kDyBrUOjeYpbmO9uLZbyMQQGVfSeR4xVg&#xA;RvyibbFWL/8AQ3v5N/8ALTff9Ijf1xV6h5M836N5w8tWfmPRWkfTL71Pq7SoY3PoyvC9VPT44ziq&#xA;dYq7FXYq7FXYq7FXYq7FXYq7FUlvPJPky9upLu80DTrm6mPKWea0gkkdvFmZCSfniqa2tra2ltHa&#xA;2kKW9tCoSGCJQiIo2CqqgAAeAxVVxV2KuxV2KpRqPk/ylqV013qOiWF7duAHuLi1hlkIUUALurMa&#xA;DFUfYadp+nWkdnp9tFZ2cVfStrdFijXkxZuKIAoqxJPviqIxV2KuxV2KuxV2KuxV2KpHZ+evJF7q&#xA;36Hs/MOmXOr83j/R0N5byXPOIEyL6KuX5JxPIU2piqtrnm/ynoDwpr2t2GkvcBjAt9dQ2xkC0DFB&#xA;KycqVFaYqmNneWl7aw3dnPHc2lwiywXELLJHIjCqujqSrKRuCMVSi189eSLvV/0La+YdMuNYEjwn&#xA;TYry3e59SKvqJ6KuZOScTyFNqHFUdrOvaHoln9d1rUbXTLPkI/rN5NHbxc2qQvOQqtTQ7VxVvR9c&#xA;0TW7MX2jahbanZFigurOaO4i5L9pecZZajuK4qk93+Zv5bWd1NZ3nmzRra7tpGhuLebULVJI5EJV&#xA;0dGkDKysKEHpirVv+aH5aXNxFbW3m3RZriZ1jhhj1G1d3dzRVVRISSSaADFWTYq8Y83/APOVv5d+&#xA;VfM2o+XdQ07V5b3TZTBPJbw2zRFgAaoXuUYjfuoxV6P5C866V538p2PmfSop4LDUPV9GK6VEmHoz&#xA;PA3JY3lX7URpRjtirIMVSiXzj5Rh1saDLrmnx64zKq6U91Ct2WdQ6gQFvUqykMPh6Yqm+KuxV5J+&#xA;YX/OTXkPyJ5pufLWr2GqT31qkTySWkVu8RE0YkWhkuIm6Nv8OKsv/LT8ytC/MPy62v6LBdW9mlw9&#xA;qY71I0l5xqrE0ikmXj8Y/axVlmKuxVIbL8wPId9qa6VZeZNLutUd2jSwhvbeS4LpUsoiVy9V4mop&#xA;iqfYq7FXYq7FXYq+UP8AnKL8vtR8p+atP/NnysDbv9ZibUzGNorxCDFOQP2JuPF67cuteeKsb8r2&#xA;us/85D/nN+mNYgNv5Z0qOJru2UkxxW8Z/d2ytT7VxLyZvblToMVfaMUUUUSRRIscUahY41AVVVRQ&#xA;AAbAAYq+Vf8AnKr8ub/y75hsfzX8scraVJ4TqrxD+5u4yPq91TpSSgR+3KnUscVYf578/wDmD8//&#xA;ADh5W8q6JA9naJFG11EamNLt0Bu7lqE1ihWqx13692pir7H8qeWdJ8r+XbDQNJi9Kw06FYYR3am7&#xA;OxHVnYlmPicVeN/mJ/zjl+S9sNe87+Zb3UrWKSW41LUZEuIwvqTyGRljUxE1Z34otak0GKvBvyC/&#xA;LGTzx+ZqalpsM1j5W0K8S+klkYSSKscnqW1vzoqvI/AciANqnbYYq+8sVfLn5dW8E/8Azl95ySeN&#xA;ZU9G7PF1DCvK33ocVfUMUMUMYjiRY41+yiAKBU12AxVdir5z/wCctfy7u3s7D8ytADQ6zoLxrfyw&#xA;7P6CvygnFP2oJe/8rb7Lir1n8ofzEtPP/kTT9fiKreFfq+qQL/uq7iAEq08GqHX/ACWGKszxVgn5&#xA;22dm35U+bp2gjacaVckSlFL1ERp8VK4qwX/nDb/yUc3/AG1bn/k1Dir3XFXlv/ORn5nf4E/L24ez&#xA;l4a7rHKx0riaOhZf3twO/wC6Q7H+Yrir5n1f8lvMPk78p/LX5n2UksWvRXSX99GOtvBMyNYygdir&#xA;KC9e8gH7OKvsL8s/Pdh558laZ5ktOKtdx0vLdTX0blPhmiPf4W+zXqtD3xVlGKuxV2KuxV8tf85V&#xA;/mPf63rNl+U/ljlcXVxND+lliNTJPIQbe0+QqJH9+PgcVYn+Xuqa3+QH5xSeWvMsytoGrpCl5dLU&#xA;QmOSvoXiV3/cuWR/bl1oMVfaCsrKGUhlYVVhuCD3GKpJ57sLO/8AJWvWd5Cs9tNp9yskTioI9JiP&#xA;pB3B7HFXzV/zg3Y2b3vnC+eFWvLeOwhhnI+NI5muGkRT4OYUJ/1Rir6xxV8V/wDOTn5sTeb/ADqP&#xA;I9lciw8v6LeG2vZ5uSxyXiP6Us0oUM3pwHkqgAnqd6jFXtX5VfmL+QXlLQNL8n+X/MkM87ukZk9C&#xA;4WS6vJ2CmRiY6VdyAKn4RQdBir2rFXzB+Wn/AK2B5y/4wXf/ABK3xV9P4q7FVC/sbS/srixvYlns&#xA;7qN4biBxVXjkUq6sPAg0xV8m/lvfXn5IfnpfeSNVlYeVvMDotncyH4eMjH6lcVNBUEmGXoK1PRRi&#xA;r65xVhX51/8Ako/N/wD2yrr/AJNHFXn/APzht/5KOb/tq3P/ACahxV7rirBfPP5MeSPPGu2OseY4&#xA;ri7m05Vjt7YTFbfir+oQ0QFDzOzeI27Yqy7VtI07V9Iu9Iv4Vm0++he2uYDsGikUow26bHFWOfl1&#xA;+Vvlj8vrO7svLpuUtL2RZpYLiYzKJFXjzSoHEstA3jQYqy/FXYq7FXYqw/S/yg/LfS/Mx8z2WiRJ&#xA;r7SSznUHkmlk9WevqP8AvHdeTczvTFUT5y/LLyJ5zktZPM+kRalJZB1tpHaRGVZCCwrGyEj4RscV&#xA;T7TNNs9M06206yQxWdnGsFtEWZ+McY4qvJyzGgFNziqrdW0F1bS21wnqQTo0UqGoDI44sNvEHFWP&#xA;eTPy28keSvrn+F9KTTPr/p/XPTeV/U9Hn6dfUd6cfUbp44qyXFXn2p/kB+T+qald6nf+W4Z76+mk&#xA;ubucy3ALyzOXkchZAPiZidhiq2w/5x7/ACcsL63vrTy1DFd2kqT28omuSVkjYMjUMpGzDvir0PFX&#xA;zP5g/JT887P82de87+SNS07Tm1OSQQTTOsknoScCytHLbzICSgxV7t+Xtt50tfJ+nwedruK+8zp6&#xA;36QurcIsb1ncxcRHHCu0JQGiDf78VZFirsVYx5x/LLyJ5zltZvM2kRajNZBltpXaSN1VyCw5RMhI&#xA;qvQ9MVZLDEkUSRJXhGoVeTFmoooKsxLE+5OKvEfzi8lf85C+ZtV1XTvLOtWEHkrUbdbc6fcCESFX&#xA;iCzgubaSUcmr0k+7FWR/849/l15g8geQ5NC11oGvXvproG2dpE4SJGq/Eyoa1Q9sVem4q7FXYq7F&#xA;XmH5oaB+f2o6/bz/AJeeZdN0bRVtES4tb2NHka6EkheQFrO6+ExmMfb7HbxVYf8A4N/5zJ/6nvQ/&#xA;+RMX/eMxV6v+XGn+f7Dyylv571K21bzAJZGe8s1CRGIn92tFhthUDr8GKsoxV2KuxV2KuxV2KuxV&#xA;2KuxV2KuxV2KuxV2KuxV2KuxV2KuxV2KuxV2KuxV2KuxV2Kvnbzt/wA5NeafI/5kv5X8x+X7aPSk&#xA;uIz+kIZJS72ErfDcIpFCwStV/mBXFUT+b3/OUUvlHzjD5b8s6Zb65L6MT3ExkenrXHxRRRiOvL92&#xA;yt/sqYq9x8vzazPoljPrUEVrq0sKPe20BLRxSsKtGrH7XCtK98VeDfmB/wA5M+a/IX5iyeW9f8u2&#xA;/wCiUmjkjv4ZJfUlsJG2mjVvhLhagr05givfFWS/nj/zkLZfl9Y6N+h4INY1HWE+txRvIVjWyK/D&#xA;NVN/3jGieNG8MVZn+U/mrzN5s8l2fmLX9Oh0ubUazWdpCzsfqxp6cjl+8n2h/k0xV4j5v/5yw87a&#xA;H5s1vRbbypDc2+l391ZQ3BM9ZEt5miVzQU+ILXbFUr0n/nM7zVea1Z6dN5as4vrNzFbyH1ZuS+pI&#xA;EOxHUVxV9ZYq+P8AzT5x/ObXvz+1byJ5W80yab6t5PHYRzSFLeNILdp2BKRyuPhjNPhO+KvpL8rN&#xA;E886L5TjsfO2qR6xromld72F3kQxMR6a8njhb4R/k4qy7FXhv5yfn/5n/LTzrZadd6DBdeW79Y5o&#xA;NQEjiZo1KrcoB9j1IyageBXFXtWnahZ6lp9tqNjKs9leRJPbTL9l45FDIw+anFURirwT87vLf59R&#xA;ajrvmvyx5sg0zyrp1ibz9HetKs4W0t+c/FBbunJyjFayfOmKov8A5xO85+afNfkzWLzzFqU2p3UG&#xA;omGGWcgssfoRtxFANqsTir3DFUHrWsadoukXmralMILCwhe4uZm6Kkalj9O2wxV8sW//ADmzrZv4&#xA;nuPLEC6Q0/CSRJZDL6QYFuJI4GQIa08cVfVtje2l/ZW99ZyrPaXUaT28ybq8cihkZT4Mpriqtirs&#xA;VdirsVfO/wDzmfofliXyRp2s3kog8w2t0LfSwoq08Um80Tb/AGUA58j0O37eKvH/APnEzR/Lerfm&#xA;vFLrc/O/sLdrnRbWTdZbmKgrUndoY6uq+1f2cVfdGKvG/wDnJ78q086eRpNUsYwdf8vJJdWpFKy2&#xA;4HKeAn/VXmn+UKftHFXzF+RnkC+/M7z/AGNlq08lxouiwJJfGRySLSBqRWqV6B2bjQdF5EYq+/44&#xA;44o1jjUJGgCoigBVUCgAA6AYq8j/AOcivzph/L3y19Q02RT5r1aNl09NibeI/C104/ydxHXq3iFO&#xA;KvKv+cVPyWl1K8T8yPM0bSxpI0mhwz1YzTgnlePy68Wrwr1b4uwqq+s8VfIHln/1tqb/AJjtQ/7p&#xA;k2Kvr/FXYq83/P38sl8//l9d2FvGG1qwre6O23IzRqaw1PaZar1pWhPTFXmv/OHv5mvfaRdeQNUk&#xA;IvtIDXGlCSoZrZn/AHsW/eGRqgfyt4Lir6SxViv5sf8AkrPOX/bD1L/qDkxV4/8A84S/8oDrv/bV&#xA;P/UNFir6KxV88f8AOXGuebrvSLHyV5c0q/vYtQpdavcWltNKnpxv+4g5orLVpF5sOo4r44qv1r/n&#xA;HK3j/wCceU8s20Cv5qsV/TPqrQtJqHD99CCOoaMeivbZTiqM/wCcTvMPmj/Clx5R8x6XfWM2jH1N&#xA;MuLu3mhWS1lYkxBpFUExSHx+ywA+zir3jFXYq7FXYq+TPzf/AC2/OP8ANH80oGn0WfT/ACnbTLZW&#xA;FzLJAVhteY9a6MYkLcpKc6UrTivbFUP+Z3/OPPnfyz+YWm69+VWmSS2UEcE8AikiDW91bgIwb1XT&#xA;mJAoc+JZgdsVfVXly/1HUNCsb3U7F9M1GeFWvNPkKsYZqUdOSlgwDdDXcYq7zJbzXPl3VLeBDJPN&#xA;ZzxxRjqztEwUD5k4q+df+cSvy488+U/MWvXHmPRrjTILmzijgknAAd1lqQKE9sVfTeKviP8ANb8m&#xA;Pzx8zfmT5g1r9BXGoWkt/OunTtNbhTZRystsqqZFIX0gu1B774qzfy7qX/OYdpdaZYyaUtto8EkE&#xA;LxRwaaiR2ysqlVCmoCp4Yq+pcVfFq+ZNE8tf85gX2t65dLZaXaX179YuWVmCepYSxJsgZt3cDYYq&#xA;+u/K3m3y75r0ldX8v3q3+nM7RLcIrqC6GjCkio23yxVN8Vdir5a/Mr8m/wAwvLn50Wvnz8ttKa+t&#xA;5pVv7i2ikiiVLgkrcwsHZD6dwpJNP5m8Bir6gtJ3ntYZ3he3eWNXaCSnOMsASjcSRyXoaHFXlv52&#xA;fmt+X2l+VvNnlO/1iODzDPo95BDp5jmLNJdWjiFeSoU+PmP2sVYZ/wA4S/8AKA67/wBtU/8AUNFi&#xA;r6KxV2KuxV2KsX80fmf5A8q6hHp/mLXLbTb2WIXEcE5YMYmZkDigOxZGH0YqlH/K/vya/wCpssf+&#xA;Cb/mnFWT+V/N/lnzVp8moeXdRi1KyilNvJPASVEqqrlDUDcK6n6cVTjFXYq7FXYq7FXYq7FXYq7F&#xA;XYq861//AJx6/J/zBrN3rWr6B9Z1O+kMt1cfW72Pm5FK8I50QdOwxVlflDyZ5a8n6Mui+XLP6jpi&#xA;SPKtv6ks1HkNWPOZ5H3+eKp1irsVdirsVYF5s/In8qvNutza55g0P67qlwqLNcfWryKojUInwQzR&#xA;oKKoGwxVO/JP5e+T/I+nz6f5X0/9H2dzL9Yni9aeflJxCcuU7ysPhUbA0xVkWKuxV2KuxViPm/8A&#xA;KT8u/OOpRan5l0WPUb6GFbaOd5JkIiV2cJSN0GzSMenfFUj/AOhbvyS/6laD/kddf9VcVZd5Q8k+&#xA;VvJ2my6Z5asE06xmma5kgRpHBlZFQvWRnO6xqOvbFU8xV//Z</xapGImg:image>
    </rdf:li>
   </rdf:Alt>
  </xap:Thumbnails>
 </rdf:Description>

 <rdf:Description rdf:about=''
  xmlns:dc='http://purl.org/dc/elements/1.1/'>
  <dc:format>image/svg+xml</dc:format>
 </rdf:Description>

</rdf:RDF>
</x:xmpmeta>
                                                                                                                                                                                                                                                                                                                                                                                                                                                                                                                                                                                                                                                                                                                                                                                                                                                                                                                                                                                                                                                                                                                                                                                                                                                                                                                                                                                                                                                                                                                                                                                                                                                                                                                                                                                                                                                                                                                                                                                                                                                                                                                                <?xpacket end='w'?>
			</metadata>
		<g id="レイヤー1">
			<g>
				<rect fill="none" width="100" height="150"/> 
				<rect x="100" fill="none" width="100" height="150"/> 
				<rect x="200" fill="none" width="100" height="150"/> 
				<rect x="300" fill="none" width="100" height="150"/> 
				<rect x="400" fill="none" width="100" height="150"/> 
				<rect x="500" fill="none" width="100" height="150"/> 
				<rect x="600" fill="none" width="100" height="150"/> 
				<rect x="700" fill="none" width="100" height="150"/> 
				<rect y="150" fill="none" width="100" height="150"/> 
				<rect x="100" y="150" fill="none" width="100" height="150"/> 
				<rect x="200" y="150" fill="none" width="100" height="150"/> 
				<rect x="300" y="150" fill="none" width="100" height="150"/> 
				<rect x="400" y="150" fill="none" width="100" height="150"/> 
				<rect x="500" y="150" fill="none" width="100" height="150"/> 
				<rect x="600" y="150" fill="none" width="100" height="150"/> 
				<rect x="700" y="150" fill="none" width="100" height="150"/> 
				<rect y="300" fill="none" width="100" height="150"/> 
				<rect x="100" y="300" fill="none" width="100" height="150"/> 
				<rect x="200" y="300" fill="none" width="100" height="150"/> 
				<rect x="300" y="300" fill="none" width="100" height="150"/> 
				<rect x="400" y="300" fill="none" width="100" height="150"/> 
				<rect x="500" y="300" fill="none" width="100" height="150"/> 
				<rect x="600" y="300" fill="none" width="100" height="150"/> 
				<rect x="700" y="300" fill="none" width="100" height="150"/> 
				<rect y="450" fill="none" width="100" height="150"/> 
				<rect x="100" y="450" fill="none" width="100" height="150"/> 
				<rect x="200" y="450" fill="none" width="100" height="150"/> 
				<rect x="300" y="450" fill="none" width="100" height="150"/> 
				<rect x="400" y="450" fill="none" width="100" height="150"/> 
				<rect x="500" y="450" fill="none" width="100" height="150"/> 
				<rect x="600" y="450" fill="none" width="100" height="150"/> 
				<rect x="700" y="450" fill="none" width="100" height="150"/> 
				<rect y="600" fill="none" width="100" height="150"/> 
				<rect x="100" y="600" fill="none" width="100" height="150"/> 
				<rect x="200" y="600" fill="none" width="100" height="150"/> 
				<rect x="300" y="600" fill="none" width="100" height="150"/> 
				<rect x="400" y="600" fill="none" width="100" height="150"/> 
				<rect x="500" y="600" fill="none" width="100" height="150"/> 
				<rect x="600" y="600" fill="none" width="100" height="150"/> 
				<rect x="700" y="600" fill="none" width="100" height="150"/> 
				<rect y="750" fill="none" width="100" height="150"/> 
				<rect x="100" y="750" fill="none" width="100" height="150"/> 
				<rect x="200" y="750" fill="none" width="100" height="150"/> 
				<rect x="300" y="750" fill="none" width="100" height="150"/> 
				<rect x="400" y="750" fill="none" width="100" height="150"/> 
				<rect x="500" y="750" fill="none" width="100" height="150"/> 
				<rect x="600" y="750" fill="none" width="100" height="150"/> 
				<rect x="700" y="750" fill="none" width="100" height="150"/> 
				<rect y="900" fill="none" width="100" height="150"/> 
				<rect x="100" y="900" fill="none" width="100" height="150"/> 
				<rect x="200" y="900" fill="none" width="100" height="150"/> 
				<rect x="300" y="900" fill="none" width="100" height="150"/> 
				<rect x="400" y="900" fill="none" width="100" height="150"/> 
				<rect x="500" y="900" fill="none" width="100" height="150"/> 
				<rect x="600" y="900" fill="none" width="100" height="150"/> 
				<rect x="700" y="900" fill="none" width="100" height="150"/> 
			</g>
			<polygon points="305,31 322,31 322,28 302,28 302,122 322,122 322,119 305,119 "/>
			<polygon points="519,119 502,119 502,122 522,122 522,28 502,28 502,31 519,31 "/>
			<polygon points="61,110 33.3249512,71.3007813 60,34 56.3500977,34 31.5,68.7487793 6.6499023,34 3,34 29.6750488,71.3007813 
				2,110 5.6499023,110 31.5,73.8527832 57.3500977,110 "/>
			<polygon points="405.5498047,34 402,34 450.4501953,110 454,110 "/>
			<polygon points="629.1000977,36.5 652.6000977,78 656,78 631,34 627,34 602,78 605.3999023,78 628.8999023,36.5 "/>
			<polygon points="165,34 161.3500977,34 133.5,73.1999512 105.6499023,34 102,34 132,76 132,110 135,110 135,76 "/>
			<polygon points="205.7001953,106.8000488 253,37 253,34 202,34 202,37 249.2998047,37 249.2998047,37.1999512 202,107 202,110 
				253,110 253,107 205.7001953,107 "/>
			<rect x="702" y="113" width="54" height="3"/> 
			<polygon points="307.3334961,182.3378906 324.6665039,182.3378906 324.6665039,177.5046387 302,177.5046387 302,272.5046387 
				324.6665039,272.5046387 324.6665039,267.6711426 307.3334961,267.6711426 "/>
			<polygon points="309.6669922,333.6757813 327.3334961,333.6757813 327.3334961,327.0092773 302,327.0092773 302,423.0092773 
				327.3334961,423.0092773 327.3334961,416.3422852 309.6669922,416.3422852 "/>
			<polygon points="312,485 330,485 330,476.5 302,476.5 302,573.5 330,573.5 330,565 312,565 "/>
			<polygon points="314.3334961,636.3378906 332.6665039,636.3378906 332.6665039,626.0043945 302,626.0043945 302,724.0043945 
				332.6665039,724.0043945 332.6665039,713.6713867 314.3334961,713.6713867 "/>
			<polygon points="316.6665039,787.6621094 335.3330078,787.6621094 335.3330078,775.4956055 302,775.4956055 302,874.4956055 
				335.3330078,874.4956055 335.3330078,862.3286133 316.6665039,862.3286133 "/>
			<polygon points="319,939 338,939 338,925 302,925 302,1025 338,1025 338,1011 319,1011 "/>
			<polygon points="519.3334961,267.6711426 502,267.6711426 502,272.5046387 524.6665039,272.5046387 524.6665039,177.5046387 
				502,177.5046387 502,182.3378906 519.3334961,182.3378906 "/>
			<polygon points="519.6665039,416.3422852 502,416.3422852 502,423.0092773 527.3334961,423.0092773 527.3334961,327.0092773 
				502,327.0092773 502,333.6757813 519.6665039,333.6757813 "/>
			<polygon points="520,565 502,565 502,573.5 530,573.5 530,476.5 502,476.5 502,485 520,485 "/>
			<polygon points="520.3334961,713.6713867 502,713.6713867 502,724.0043945 532.6665039,724.0043945 532.6665039,626.0043945 
				502,626.0043945 502,636.3378906 520.3334961,636.3378906 "/>
			<polygon points="520.6665039,862.3286133 502,862.3286133 502,874.4956055 535.3330078,874.4956055 535.3330078,775.4956055 
				502,775.4956055 502,787.6621094 520.6665039,787.6621094 "/>
			<polygon points="521,1011 502,1011 502,1025 538,1025 538,925 502,925 502,939 521,939 "/>
			<polygon points="63,260.0046387 35.9916992,221.3054199 62,184.0046387 55.083252,184.0046387 32.5,216.5952148 
				9.916748,184.0046387 3,184.0046387 29.0083008,221.3054199 2,260.0046387 8.916748,260.0046387 32.5,226.0153809 
				56.083252,260.0046387 "/>
			<polygon points="65,410.0092773 38.6584473,371.3100586 64,334.0092773 53.8166504,334.0092773 33.5,364.4414063 
				13.1835938,334.0092773 3,334.0092773 28.3415527,371.3100586 2,410.0092773 12.1835938,410.0092773 33.5,378.1777344 
				54.8166504,410.0092773 "/>
			<polygon points="67,560 41.3249512,521.3007813 66,484 52.5500488,484 34.5,512.2744141 16.4499512,484 3,484 
				27.6750488,521.3007813 2,560 15.4499512,560 34.5,530.3261719 53.5500488,560 "/>
			<polygon points="69,710.0043945 43.9916992,671.3056641 68,634.0043945 51.2832031,634.0043945 35.5,660.1206055 
				19.7167969,634.0043945 3,634.0043945 27.0083008,671.3056641 2,710.0043945 18.7167969,710.0043945 35.5,682.4887695 
				52.2832031,710.0043945 "/>
			<polygon points="71,859.9956055 46.6582031,821.2963867 70,783.9956055 50.0166016,783.9956055 36.5,807.9536133 
				22.9831543,783.9956055 3,783.9956055 26.3417969,821.2963867 2,859.9956055 21.9831543,859.9956055 36.5,834.6376953 
				51.0166016,859.9956055 "/>
			<polygon points="73,1010 49.3249512,971.3007813 72,934 48.75,934 37.5,955.7998047 26.25,934 3,934 25.6750488,971.3007813 
				2,1010 25.25,1010 37.5,986.7998047 49.75,1010 "/>
			<polygon points="408.2167969,184.0046387 402,184.0046387 449.2832031,260.0046387 455.5,260.0046387 "/>
			<polygon points="410.8833008,334.0092773 402,334.0092773 448.1166992,410.0092773 457,410.0092773 "/>
			<polygon points="413.5498047,484 402,484 446.9501953,560 458.5,560 "/>
			<polygon points="416.2167969,634.0043945 402,634.0043945 445.7832031,710.0043945 460,710.0043945 "/>
			<polygon points="418.8833008,783.9956055 402,783.9956055 444.6166992,859.9956055 461.5,859.9956055 "/>
			<polygon points="421.5498047,934 402,934 443.4501953,1010 463,1010 "/>
			<polygon points="630.7666016,188.1713867 653.2666016,228.5046387 659.3334961,228.5046387 634.3334961,184.0046387 
				627,184.0046387 602,228.5046387 608.0668945,228.5046387 630.5668945,188.1713867 "/>
			<polygon points="632.4335938,339.8427734 653.9335938,379.0092773 662.6669922,379.0092773 637.6669922,334.0092773 
				627,334.0092773 602,379.0092773 610.7333984,379.0092773 632.2333984,339.8427734 "/>
			<polygon points="634.1000977,491.5 654.6000977,529.5 666,529.5 641,484 627,484 602,529.5 613.3999023,529.5 633.8999023,491.5 
				"/>
			<polygon points="635.7666016,643.1713867 655.2666016,680.0043945 669.3334961,680.0043945 644.3334961,634.0043945 
				627,634.0043945 602,680.0043945 616.0668945,680.0043945 635.5668945,643.1713867 "/>
			<polygon points="637.4331055,794.8286133 655.9331055,830.4956055 672.6665039,830.4956055 647.6665039,783.9956055 
				627,783.9956055 602,830.4956055 618.7333984,830.4956055 637.2333984,794.8286133 "/>
			<polygon points="639.1000977,946.5 656.6000977,981 676,981 651,934 627,934 602,981 621.3999023,981 638.8999023,946.5 "/>
			<polygon points="209.2001953,254.6379395 254.1665039,189.1713867 254.1665039,184.0046387 202,184.0046387 202,189.1713867 
				246.9667969,189.1713867 246.9667969,189.3713379 202,254.8378906 202,260.0046387 254.1665039,260.0046387 
				254.1665039,254.8378906 209.2001953,254.8378906 "/>
			<polygon points="212.7001953,402.4755859 255.3334961,341.3427734 255.3334961,334.0092773 202,334.0092773 202,341.3427734 
				244.6333008,341.3427734 244.6333008,341.5424805 202,402.6757813 202,410.0092773 255.3334961,410.0092773 
				255.3334961,402.6757813 212.7001953,402.6757813 "/>
			<polygon points="216.2001953,550.2998047 256.5,493.5 256.5,484 202,484 202,493.5 242.2998047,493.5 242.2998047,493.7001953 
				202,550.5 202,560 256.5,560 256.5,550.5 216.2001953,550.5 "/>
			<polygon points="219.7001953,698.1376953 257.6665039,645.6713867 257.6665039,634.0043945 202,634.0043945 202,645.6713867 
				239.9667969,645.6713867 239.9667969,645.8710938 202,698.3378906 202,710.0043945 257.6665039,710.0043945 
				257.6665039,698.3378906 219.7001953,698.3378906 "/>
			<polygon points="223.199707,845.9619141 258.8334961,797.8286133 258.8334961,783.9956055 202,783.9956055 202,797.8286133 
				237.6333008,797.8286133 237.6333008,798.0288086 202,846.1621094 202,859.9956055 258.8334961,859.9956055 
				258.8334961,846.1621094 223.199707,846.1621094 "/>
			<polygon points="226.7001953,993.7998047 260,950 260,934 202,934 202,950 235.2998047,950 235.2998047,950.2001953 202,994 
				202,1010 260,1010 260,994 226.7001953,994 "/>
			<rect x="702" y="262.8378906" width="55.6665039" height="4.5"/> 
			<rect x="702" y="412.6757813" width="57.3334961" height="6"/> 
			<rect x="702" y="562.5" width="59" height="7.5"/> 
			<rect x="702" y="712.3378906" width="60.6665039" height="9"/> 
			<rect x="702" y="862.1621094" width="62.3330078" height="10.5"/> 
			<rect x="702" y="1012" width="64" height="12"/> 
			<polygon points="166.9333496,184.0046387 160.0166016,184.0046387 134.4667969,221.0043945 108.916748,184.0046387 
				102,184.0046387 131.5568848,226.5339355 131.5568848,260.0114746 137.3903809,260.0114746 137.3903809,226.5114746 "/>
			<polygon points="168.8666992,334.0092773 158.6831055,334.0092773 135.4333496,368.809082 112.1835938,334.0092773 
				102,334.0092773 131.1137695,377.0678711 131.1137695,410.0229492 139.7807617,410.0229492 139.7807617,377.0229492 "/>
			<polygon points="170.7998047,484 157.3500977,484 136.3999023,516.6000977 115.4499512,484 102,484 130.6708984,527.5878906 
				130.6708984,560.0209961 142.1708984,560.0209961 142.1708984,527.5209961 "/>
			<polygon points="172.7333984,634.0043945 156.0166016,634.0043945 137.3666992,664.4042969 118.7167969,634.0043945 
				102,634.0043945 130.2277832,678.1220703 130.2277832,710.0322266 144.5610352,710.0322266 144.5610352,678.0322266 "/>
			<polygon points="174.6665039,783.9956055 154.6833496,783.9956055 138.333252,812.1953125 121.9831543,783.9956055 
				102,783.9956055 129.784668,828.6420898 129.784668,860.0302734 146.9511719,860.0302734 146.9511719,828.5302734 "/>
			<polygon points="176.6000977,934 153.3500977,934 139.3000488,960 125.25,934 102,934 129.3415527,979.1762695 
				129.3415527,1010.0415039 149.3415527,1010.0415039 149.3415527,979.0415039 "/>
		</g>
	</svg>
