<?xml version="1.0" encoding="utf-8"?>
<!-- Generator: Adobe Illustrator 15.0.2, SVG Export Plug-In . SVG Version: 6.00 Build 0)  -->
<!DOCTYPE svg PUBLIC "-//W3C//DTD SVG 1.1//EN" "http://www.w3.org/Graphics/SVG/1.1/DTD/svg11.dtd">
<svg version="1.1" id="レイヤー1" xmlns="http://www.w3.org/2000/svg" xmlns:xlink="http://www.w3.org/1999/xlink" x="0px"
	 y="0px" width="841.8896484px" height="595.2753906px" viewBox="0 0 841.8896484 595.2753906"
	 enable-background="new 0 0 841.8896484 595.2753906" xml:space="preserve">
<g>
	<rect x="195.5" y="147.5" fill="none" stroke="#999999" stroke-width="0.1" width="50" height="100"/>
	<rect x="295.5" y="147.5" fill="none" stroke="#999999" stroke-width="0.1" width="50" height="100"/>
	<rect x="395.5" y="147.5" fill="none" stroke="#999999" stroke-width="0.1" width="50" height="100"/>
	<rect x="495.5" y="147.5" fill="none" stroke="#999999" stroke-width="0.1" width="50" height="100"/>
	<rect x="595.5" y="147.5" fill="none" stroke="#999999" stroke-width="0.1" width="50" height="100"/>
	<rect x="195.5" y="247.5" fill="none" stroke="#999999" stroke-width="0.1" width="50" height="100"/>
	<rect x="295.5" y="247.5" fill="none" stroke="#999999" stroke-width="0.1" width="50" height="100"/>
	<rect x="395.5" y="247.5" fill="none" stroke="#999999" stroke-width="0.1" width="50" height="100"/>
	<rect x="495.5" y="247.5" fill="none" stroke="#999999" stroke-width="0.1" width="50" height="100"/>
	<rect x="595.5" y="247.5" fill="none" stroke="#999999" stroke-width="0.1" width="50" height="100"/>
	<rect x="195.5" y="-52.5" fill="none" stroke="#999999" stroke-width="0.1" width="50" height="100"/>
	<rect x="295.5" y="-52.5" fill="none" stroke="#999999" stroke-width="0.1" width="50" height="100"/>
	<rect x="395.5" y="-52.5" fill="none" stroke="#999999" stroke-width="0.1" width="50" height="100"/>
	<rect x="495.5" y="-52.5" fill="none" stroke="#999999" stroke-width="0.1" width="50" height="100"/>
	<rect x="595.5" y="-52.5" fill="none" stroke="#999999" stroke-width="0.1" width="50" height="100"/>
	<rect x="195.5" y="47.5" fill="none" stroke="#999999" stroke-width="0.1" width="50" height="100"/>
	<rect x="295.5" y="47.5" fill="none" stroke="#999999" stroke-width="0.1" width="50" height="100"/>
	<rect x="395.5" y="47.5" fill="none" stroke="#999999" stroke-width="0.1" width="50" height="100"/>
	<rect x="495.5" y="47.5" fill="none" stroke="#999999" stroke-width="0.1" width="50" height="100"/>
	<rect x="595.5" y="47.5" fill="none" stroke="#999999" stroke-width="0.1" width="50" height="100"/>
	<rect x="195.5" y="347.5" fill="none" stroke="#999999" stroke-width="0.1" width="50" height="100"/>
	<rect x="295.5" y="347.5" fill="none" stroke="#999999" stroke-width="0.1" width="50" height="100"/>
	<rect x="395.5" y="347.5" fill="none" stroke="#999999" stroke-width="0.1" width="50" height="100"/>
	<rect x="495.5" y="347.5" fill="none" stroke="#999999" stroke-width="0.1" width="50" height="100"/>
	<rect x="595.5" y="347.5" fill="none" stroke="#999999" stroke-width="0.1" width="50" height="100"/>
	<rect x="195.5" y="447.5" fill="none" stroke="#999999" stroke-width="0.1" width="50" height="100"/>
	<rect x="295.5" y="447.5" fill="none" stroke="#999999" stroke-width="0.1" width="50" height="100"/>
	<rect x="395.5" y="447.5" fill="none" stroke="#999999" stroke-width="0.1" width="50" height="100"/>
	<rect x="495.5" y="447.5" fill="none" stroke="#999999" stroke-width="0.1" width="50" height="100"/>
	<rect x="595.5" y="447.5" fill="none" stroke="#999999" stroke-width="0.1" width="50" height="100"/>
	<rect x="195.5" y="547.5" fill="none" stroke="#999999" stroke-width="0.1" width="50" height="100"/>
	<rect x="295.5" y="547.5" fill="none" stroke="#999999" stroke-width="0.1" width="50" height="100"/>
	<rect x="395.5" y="547.5" fill="none" stroke="#999999" stroke-width="0.1" width="50" height="100"/>
	<rect x="495.5" y="547.5" fill="none" stroke="#999999" stroke-width="0.1" width="50" height="100"/>
	<rect x="595.5" y="547.5" fill="none" stroke="#999999" stroke-width="0.1" width="50" height="100"/>
</g>
<g>
	<path d="M211.2158203,35.4765625l-0.4316406-1.953125C228.9150391,29.5166016,237,12.2382812,237-22.5v-12h-32.5v29h-2v-31H239v14
		C239,13.3496094,230.4306641,31.2304688,211.2158203,35.4765625z"/>
	<path d="M211.0126953,135.9804688l-1.4423828-4.5444336c17.6123047-3.8706055,25.1791992-19.421875,25.1791992-52.7700195
		V67.4995117h-28.1665039v27.8334961h-4.4169922v-32.5H239.25v15.8330078
		C239.25,114.6586914,230.5341797,131.7958984,211.0126953,135.9804688z"/>
	<path d="M210.8105469,236.484375l-2.4541016-7.1352539C225.4511719,225.6152344,232.5,211.7900391,232.5,179.8330078V169.5
		h-23.8334961v26.6665039h-6.8334961v-33.9995117H239.5v17.6660156
		C239.5,215.9682617,230.6376953,232.3623047,210.8105469,236.484375z"/>
	<path d="M201.5,261.5h38.25V281c0,36.2773438-9.0087891,51.9277344-29.1425781,55.9882812l-3.4648438-9.7265625
		C223.71875,323.6640625,230.25,311.5664062,230.25,281v-9.5h-19.5V297h-9.25V261.5z"/>
	<path d="M201.1665039,360.8330078H240v21.3330078c0,36.4208984-9.1552734,51.3271484-29.5952148,55.3261719l-3.9765625-12.3183594
		c16.0585938-3.4609375,22.0712891-13.8320312,22.0712891-43.0078125V373.5h-16.1665039v24.3330078h-11.1665039V360.8330078z"/>
	<path d="M200.8334961,460.1660156H240.25v23.1679688c0,36.5625-9.3017578,50.7255859-30.0478516,54.6621094l-4.487793-14.9091797
		C221.2553711,519.7626953,226.75,511.1181641,226.75,483.3339844V475.5h-12.8330078v23.1669922h-13.0834961V460.1660156z"/>
	<path d="M200.5,559.5v40h15v-22h9.5v7c0,26.3935547-4.9765625,33.3115234-20,36.5l5,17.5c21.0517578-3.875,30.5-17.2939453,30.5-54
		v-25H200.5z"/>
</g>
<g>
	<g>
		<path d="M418.1962891-17.9042969c-4.9365234-6.6601562-9.8173828-12.5175781-14.9228516-17.9082031l1.453125-1.375
			c5.1601562,5.4492188,10.0917969,11.3671875,15.0771484,18.0917969L418.1962891-17.9042969z"/>
		<path d="M405.2910156,33.4570312l-0.5820312-1.9140625c20.109375-6.1191406,31.8164062-26.3496094,34.7949219-60.1308594
			l1.9921875,0.1757812C438.4394531,6.2607422,426.2578125,27.0761719,405.2910156,33.4570312z"/>
	</g>
	<g>
		<path d="M417.621582,83.1630859c-4.9213867-6.4150391-9.8637695-12.15625-14.9770508-17.4238281l2.7109375-3.9790039
			c5.206543,5.3339844,10.1855469,11.1079102,15.1474609,17.5761719L417.621582,83.1630859z"/>
		<path d="M437.3359375,70.5927734l4.4941406,0.8134766c-3.1230469,35.6796875-15.3554688,56.0766602-36.4208984,62.5576172
			l-1.3183594-4.6782227C423.2480469,123.2353516,434.3818359,104.2529297,437.3359375,70.5927734z"/>
	</g>
	<g>
		<path d="M417.046875,184.2304688c-4.9052734-6.1699219-9.9101562-11.7939453-15.03125-16.9384766l3.96875-6.5834961
			c5.2539062,5.21875,10.2802734,10.8486328,15.21875,17.0610352L417.046875,184.2304688z"/>
		<path d="M435.1689453,169.7744141l6.9951172,1.4511719c-3.1884766,36.6865234-15.4716797,56.6650391-36.6367188,63.2460938
			l-2.0546875-7.4428711C421.6791992,221.0478516,432.2382812,203.3129883,435.1689453,169.7744141z"/>
	</g>
	<g>
		<path d="M421.9023438,276.2021484l-5.4296875,9.0957031c-4.890625-5.9248047-9.9570312-11.4326172-15.0859375-16.4541016
			l5.2265625-9.1875C411.9140625,264.7597656,416.9873047,270.2460938,421.9023438,276.2021484z"/>
		<path d="M433.0019531,268.9560547l9.4960938,2.0878906c-3.2539062,37.6943359-15.5888672,57.2539062-36.8525391,63.9345703
			l-2.7910156-10.2070312C420.109375,318.859375,430.0947266,302.3730469,433.0019531,268.9560547z"/>
	</g>
	<g>
		<path d="M422.1015625,374.6347656l-6.2036133,11.7304688c-4.8754883-5.6796875-10.003418-11.0712891-15.1401367-15.9697266
			l5.984375-11.7919922C412.0888672,363.5927734,417.2099609,368.9345703,422.1015625,374.6347656z"/>
		<path d="M431.3339844,368.1367188l11.4980469,2.7255859c-3.3203125,38.7021484-15.7060547,57.8427734-37.0683594,64.6230469
			l-3.5273438-12.9716797C418.8261719,416.671875,428.4023438,401.4326172,431.3339844,368.1367188z"/>
	</g>
	<g>
		<path d="M422.3007812,473.0673828l-6.9765625,14.3652344c-4.8613281-5.4355469-10.0507812-10.7099609-15.1953125-15.484375
			l6.7421875-14.3964844C412.2646484,462.4257812,417.4331055,467.6240234,422.3007812,473.0673828z"/>
		<path d="M429.6669922,467.3183594l13.4990234,3.3632812c-3.3867188,39.7089844-15.8222656,58.4306641-37.2841797,65.3115234
			l-4.2636719-15.7363281C417.5439453,514.4833984,426.7109375,500.4931641,429.6669922,467.3183594z"/>
	</g>
	<g>
		<path d="M422.5,571.5c-4.84375-5.1875-10.0595703-10.2412109-15.5-15l-7.5,17c5.1523438,4.6513672,10.4033203,9.8095703,15.25,15
			L422.5,571.5z"/>
		<path d="M428,566.5c-2.9804688,33.0537109-11.7392578,45.7958984-27,51.5l5,18.5
			c21.5605469-6.9804688,34.0478516-25.2841797,37.5-66L428,566.5z"/>
	</g>
</g>
<g>
	<g>
		<path d="M303-36.5v2h33.9804688c-0.6044922,40.3730469-9.8261719,61.4042969-29.8007812,68.0527344l0.6318359,1.8974609
			C329.0556641,28.3789062,338.6767578,6.1884766,339.0078125-36.5H303z"/>
		<rect x="305" y="-9.5" width="31" height="2"/>
	</g>
	<g>
		<path d="M302.6660156,62.8330078v4.5h31.9008789c-0.7036133,39.3818359-9.0839844,57.8896484-28.0839844,64.2109375
			l1.6098633,4.4140625c21.5151367-6.9902344,30.8041992-27.5996094,31.0800781-73.125H302.6660156z"/>
		<rect x="304.75" y="89.9165039" width="31.1660156" height="4.4165039"/>
	</g>
	<g>
		<path d="M302.3330078,162.1669922v7h29.8208008c-0.8032227,38.3896484-8.3417969,54.3740234-26.3671875,60.3681641
			l2.5883789,6.9316406c21.7856445-6.9101562,30.7426758-25.9375,30.9633789-74.2998047H302.3330078z"/>
		<rect x="304.5" y="189.3330078" width="31.3330078" height="6.8339844"/>
	</g>
	<g>
		<path d="M302,261.5v9.5h27.7402344c-0.9023438,37.3984375-7.5996094,50.859375-24.6503906,56.5263672l3.5664062,9.4482422
			c22.0566406-6.8291016,30.6816406-24.2753906,30.8476562-75.4746094H302z"/>
		<rect x="304.25" y="288.75" width="31.5" height="9.25"/>
	</g>
	<g>
		<path d="M301.6665039,360.8330078v12h26.1601562c-1.0019531,36.4072266-6.8569336,47.3447266-22.9335938,52.6845703
			l4.0444336,11.9648438c22.328125-6.7480469,30.6210938-22.6132812,30.7314453-76.6494141H301.6665039z"/>
		<rect x="304" y="388.1660156" width="31.6665039" height="11.6669922"/>
	</g>
	<g>
		<path d="M301.3334961,460.1660156v14.5009766h24.5795898c-1.1015625,35.4150391-6.1142578,43.8300781-21.2167969,48.8417969
			l4.5224609,14.4833984c22.5996094-6.6689453,30.5605469-20.953125,30.6162109-77.8261719H301.3334961z"/>
		<rect x="303.75" y="487.5830078" width="31.8334961" height="14.0839844"/>
	</g>
	<g>
		<path d="M309.5,638.5c22.8710938-6.5878906,30.5-19.2910156,30.5-79h-39v17h23
			c-1.2011719,34.4228516-5.3720703,40.3154297-19.5,45L309.5,638.5z"/>
		<rect x="303.5" y="587" width="32" height="16.5"/>
	</g>
</g>
</svg>
