<?xml version="1.0" encoding="utf-8"?>
<!-- Generator: Adobe Illustrator 15.0.2, SVG Export Plug-In . SVG Version: 6.00 Build 0)  -->
<!DOCTYPE svg PUBLIC "-//W3C//DTD SVG 1.1//EN" "http://www.w3.org/Graphics/SVG/1.1/DTD/svg11.dtd">
<svg version="1.1" id="レイヤー1" xmlns="http://www.w3.org/2000/svg" xmlns:xlink="http://www.w3.org/1999/xlink" x="0px"
	 y="0px" width="841.8896484px" height="595.2753906px" viewBox="0 0 841.8896484 595.2753906"
	 enable-background="new 0 0 841.8896484 595.2753906" xml:space="preserve">
<g>
	<rect x="71.5" y="-226.5" fill="none" stroke="#000000" stroke-width="0.25" width="100" height="150"/>
	<rect x="71.5" y="-76.5" fill="none" stroke="#000000" stroke-width="0.25" width="100" height="150"/>
	<rect x="71.5" y="73.5" fill="none" stroke="#000000" stroke-width="0.25" width="100" height="150"/>
	<rect x="71.5" y="223.5" fill="none" stroke="#000000" stroke-width="0.25" width="100" height="150"/>
	<rect x="71.5" y="373.5" fill="none" stroke="#000000" stroke-width="0.25" width="100" height="150"/>
	<rect x="71.5" y="523.5" fill="none" stroke="#000000" stroke-width="0.25" width="100" height="150"/>
	<rect x="71.5" y="673.5" fill="none" stroke="#000000" stroke-width="0.25" width="100" height="150"/>
	<rect x="171.5" y="-226.5" fill="none" stroke="#000000" stroke-width="0.25" width="100" height="150"/>
	<rect x="171.5" y="-76.5" fill="none" stroke="#000000" stroke-width="0.25" width="100" height="150"/>
	<rect x="171.5" y="73.5" fill="none" stroke="#000000" stroke-width="0.25" width="100" height="150"/>
	<rect x="171.5" y="223.5" fill="none" stroke="#000000" stroke-width="0.25" width="100" height="150"/>
	<rect x="171.5" y="373.5" fill="none" stroke="#000000" stroke-width="0.25" width="100" height="150"/>
	<rect x="171.5" y="523.5" fill="none" stroke="#000000" stroke-width="0.25" width="100" height="150"/>
	<rect x="171.5" y="673.5" fill="none" stroke="#000000" stroke-width="0.25" width="100" height="150"/>
	<rect x="271.5" y="-226.5" fill="none" stroke="#000000" stroke-width="0.25" width="100" height="150"/>
	<rect x="271.5" y="-76.5" fill="none" stroke="#000000" stroke-width="0.25" width="100" height="150"/>
	<rect x="271.5" y="73.5" fill="none" stroke="#000000" stroke-width="0.25" width="100" height="150"/>
	<rect x="271.5" y="223.5" fill="none" stroke="#000000" stroke-width="0.25" width="100" height="150"/>
	<rect x="271.5" y="373.5" fill="none" stroke="#000000" stroke-width="0.25" width="100" height="150"/>
	<rect x="271.5" y="523.5" fill="none" stroke="#000000" stroke-width="0.25" width="100" height="150"/>
	<rect x="271.5" y="673.5" fill="none" stroke="#000000" stroke-width="0.25" width="100" height="150"/>
</g>
<g>
	<rect x="192.5" y="742.5" width="58" height="11"/>
	<rect x="193.3330078" y="593.5" width="56.3330078" height="9.6660156"/>
	<rect x="194.1665039" y="444.5" width="54.6665039" height="8.3339844"/>
	<rect x="195" y="295.5" width="53" height="7"/>
	<rect x="195.8330078" y="146.1660156" width="51.3334961" height="5.3339844"/>
	<rect x="196.6669922" y="-3.1669922" width="49.6665039" height="3.6669922"/>
	<rect x="197.5" y="-152.5" width="48" height="2"/>
</g>
<g>
	<rect x="192.5" y="759.5" width="58" height="11"/>
	<rect x="193.3330078" y="609.8330078" width="56.3330078" height="9.6669922"/>
	<rect x="194.1665039" y="460.1660156" width="54.6665039" height="8.3339844"/>
	<rect x="195" y="310.5" width="53" height="7"/>
	<rect x="195.8330078" y="160.9995117" width="51.3334961" height="5.3334961"/>
	<rect x="196.6669922" y="11.5" width="49.6665039" height="3.6669922"/>
	<rect x="197.5" y="-138" width="48" height="2"/>
</g>
<g>
	<polygon points="221.5996094,739 207.7001953,708.5 185,708.5 211.25,754.5 211.25,781.5 231.75,781.5 231.75,754.5 258,708.5 
		235.7001953,708.5 221.7998047,739 	"/>
	<polygon points="205.4331055,558.5 186,558.5 212.75,603.5 212.75,631.5 230.2495117,631.5 230.2495117,603.5 256.9995117,558.5 
		237.9667969,558.5 221.7998047,590.3330078 221.5996094,590.3330078 	"/>
	<polygon points="203.1669922,408.5 187,408.5 214.25,452.5 214.25,481.5 228.75,481.5 228.75,452.5 256,408.5 240.2333984,408.5 
		221.800293,441.6669922 221.6005859,441.6669922 	"/>
	<polygon points="200.9003906,258.5 188,258.5 215.75,301.5 215.75,331.5 227.25,331.5 227.25,301.5 255,258.5 242.5,258.5 
		221.8007812,293 221.6005859,293 	"/>
	<polygon points="198.2631836,108.5 188.8330078,108.5 217.3330078,150.6035156 217.3330078,181.4995117 225.6660156,181.4995117 
		225.6660156,150.6035156 254.1660156,108.5 245.0029297,108.5 221.7333984,144.246582 221.5332031,144.246582 	"/>
	<polygon points="195.6269531,-41.5 189.6665039,-41.5 218.9165039,-0.2919922 218.9165039,31.5 224.0830078,31.5 
		224.0830078,-0.2919922 253.3330078,-41.5 247.5068359,-41.5 221.6669922,-4.5063477 221.4663086,-4.5063477 	"/>
	<polygon points="221.3994141,-153.2597656 192.9902344,-191.5 190.5,-191.5 220.5,-151.1884766 220.5,-118.5 222.5,-118.5 
		222.5,-151.1884766 252.5,-191.5 250.0097656,-191.5 221.5996094,-153.2597656 	"/>
</g>
<g>
	<g>
		<polygon points="321.6005859,728.5 328.9995117,781.5 351.9995117,781.5 367.4995117,708.5 347.699707,708.5 340.300293,761.5 
			340.1000977,761.5 333.699707,708.5 309.7001953,708.5 303.3007812,761.5 303.1005859,761.5 295.7001953,708.5 275.5,708.5 
			291,781.5 314,781.5 321.4003906,728.5 		"/>
		<rect x="272" y="728.5" width="98.9995117" height="13"/>
	</g>
	<g>
		<polygon points="321.5996094,575.8330078 330.8325195,631.5 350.6660156,631.5 366.8330078,558.5 350.0200195,558.5 
			340.800293,614.1660156 340.5996094,614.1660156 332.0332031,558.5 311.3662109,558.5 302.8007812,614.1660156 
			302.6005859,614.1660156 293.3789062,558.5 276.1665039,558.5 292.3330078,631.5 312.1665039,631.5 321.3999023,575.8330078 		"/>
		<rect x="272.6665039" y="579.8330078" width="97.6660156" height="11.3330078"/>
	</g>
	<g>
		<polygon points="321.5996094,423.1669922 332.6660156,481.5 349.3330078,481.5 366.1660156,408.5 352.3408203,408.5 
			341.3007812,466.8330078 341.0996094,466.8330078 330.3662109,408.5 313.0332031,408.5 302.3007812,466.8330078 
			302.1005859,466.8330078 291.0585938,408.5 276.8330078,408.5 293.6669922,481.5 310.3334961,481.5 321.3999023,423.1669922 		"/>
		<rect x="273.3334961" y="431.1669922" width="96.3325195" height="9.6669922"/>
	</g>
	<g>
		<polygon points="288.7373047,258.5 277.5,258.5 295,331.5 308.5,331.5 321.3994141,270.5 321.5996094,270.5 334.4995117,331.5 
			347.9995117,331.5 365.4995117,258.5 354.6616211,258.5 341.800293,319.5 341.6000977,319.5 328.699707,258.5 314.7001953,258.5 
			301.8007812,319.5 301.6005859,319.5 		"/>
		<rect x="274" y="282.5" width="94.9995117" height="8"/>
	</g>
	<g>
		<polygon points="321.5996094,117.0732422 336.6328125,181.4995117 346.6992188,181.4995117 364.6660156,108.5 356.7509766,108.5 
			342.0600586,172.9321289 341.859375,172.9321289 326.8325195,108.5 316.4335938,108.5 301.4072266,172.9321289 
			301.2070312,172.9321289 286.5146484,108.5 278.3330078,108.5 296.2998047,181.4995117 306.3666992,181.4995117 
			321.3994141,117.0732422 		"/>
		<rect x="274.6665039" y="132.1665039" width="93.6665039" height="6"/>
	</g>
	<g>
		<polygon points="321.6000977,-36.3535156 338.765625,31.5 345.3994141,31.5 363.8330078,-41.5 358.8398438,-41.5 
			342.3203125,26.3652344 342.1191406,26.3652344 324.9658203,-41.5 318.1669922,-41.5 301.0141602,26.3652344 
			300.8144531,26.3652344 284.2924805,-41.5 279.1669922,-41.5 297.6005859,31.5 304.2333984,31.5 321.4003906,-36.3535156 		"/>
		<rect x="275.3330078" y="-18.1665039" width="92.3330078" height="3.9995117"/>
	</g>
	<g>
		<polygon points="321.6005859,-189.7802734 340.8989258,-118.5 344.0991211,-118.5 362.9995117,-191.5 360.9291992,-191.5 
			342.5795898,-120.2021484 342.3793945,-120.2021484 323.0991211,-191.5 319.9003906,-191.5 300.6210938,-120.2021484 
			300.4208984,-120.2021484 282.0703125,-191.5 280,-191.5 298.9003906,-118.5 302.1005859,-118.5 321.4003906,-189.7802734 		"/>
		<rect x="276" y="-168.5" width="90.9995117" height="2"/>
	</g>
</g>
<g>
	<g>
		<polygon points="129.9995117,721 129.9995117,738 113,738 113,721 113,699.5 129.9995117,699.5 		"/>
		<polygon points="129.9995117,774.5 129.9995117,791.5 113,791.5 113,774.5 113,753 129.9995117,753 		"/>
	</g>
	<g>
		<polygon points="128.8325195,573.3330078 128.8325195,588 114.1665039,588 114.1665039,573.3330078 114.1665039,549.8330078 
			128.8325195,549.8330078 		"/>
		<polygon points="128.8325195,626.5 128.8325195,641.1660156 114.1665039,641.1660156 114.1665039,626.5 114.1665039,603 
			128.8325195,603 		"/>
	</g>
	<g>
		<polygon points="127.6660156,425.6669922 127.6660156,438 115.3334961,438 115.3334961,425.6669922 115.3334961,400.1660156 
			127.6660156,400.1660156 		"/>
		<polygon points="127.6660156,478.5 127.6660156,490.8330078 115.3334961,490.8330078 115.3334961,478.5 115.3334961,453 
			127.6660156,453 		"/>
	</g>
	<g>
		<polygon points="116.5,250.5 126.4995117,250.5 126.4995117,278 126.4995117,288 116.5,288 116.5,278 		"/>
		<polygon points="116.5,303 126.4995117,303 126.4995117,330.5 126.4995117,340.5 116.5,340.5 116.5,330.5 		"/>
	</g>
	<g>
		<polygon points="125.1660156,100.8330078 125.1660156,130.6665039 125.1660156,137.9995117 117.8330078,137.9995117 
			117.8330078,130.6665039 117.8330078,100.8330078 		"/>
		<polygon points="125.1660156,152.9995117 125.1660156,182.8330078 125.1660156,190.1660156 117.8330078,190.1660156 
			117.8330078,182.8330078 117.8330078,152.9995117 		"/>
	</g>
	<g>
		<polygon points="123.8330078,-48.8330078 123.8330078,-16.6665039 123.8330078,-12 119.1669922,-12 119.1669922,-16.6665039 
			119.1669922,-48.8330078 		"/>
		<polygon points="123.8330078,3 123.8330078,35.1665039 123.8330078,39.8330078 119.1669922,39.8330078 119.1669922,35.1665039 
			119.1669922,3 		"/>
	</g>
	<g>
		<polygon points="122.5,-198.5 122.5,-164 122.5,-162 120.5,-162 120.5,-164 120.5,-198.5 		"/>
		<polygon points="122.5,-147 122.5,-112.5 122.5,-110.5 120.5,-110.5 120.5,-112.5 120.5,-147 		"/>
	</g>
</g>
</svg>
