<?xml version="1.0" encoding="utf-8"?>
<!-- Generator: Adobe Illustrator 15.0.2, SVG Export Plug-In . SVG Version: 6.00 Build 0)  -->
<!DOCTYPE svg PUBLIC "-//W3C//DTD SVG 1.1//EN" "http://www.w3.org/Graphics/SVG/1.1/DTD/svg11.dtd">
<svg version="1.1" id="レイヤー1" xmlns="http://www.w3.org/2000/svg" xmlns:xlink="http://www.w3.org/1999/xlink" x="0px"
	 y="0px" width="841.8896484px" height="595.2753906px" viewBox="0 0 841.8896484 595.2753906"
	 enable-background="new 0 0 841.8896484 595.2753906" xml:space="preserve">
<g>
	<rect x="71.5" y="-226.5" fill="none" stroke="#000000" stroke-width="0.25" width="100" height="150"/>
	<rect x="71.5" y="-76.5" fill="none" stroke="#000000" stroke-width="0.25" width="100" height="150"/>
	<rect x="71.5" y="73.5" fill="none" stroke="#000000" stroke-width="0.25" width="100" height="150"/>
	<rect x="71.5" y="223.5" fill="none" stroke="#000000" stroke-width="0.25" width="100" height="150"/>
	<rect x="71.5" y="373.5" fill="none" stroke="#000000" stroke-width="0.25" width="100" height="150"/>
	<rect x="71.5" y="523.5" fill="none" stroke="#000000" stroke-width="0.25" width="100" height="150"/>
	<rect x="71.5" y="673.5" fill="none" stroke="#000000" stroke-width="0.25" width="100" height="150"/>
	<rect x="371.5" y="-226.5" fill="none" stroke="#000000" stroke-width="0.25" width="100" height="150"/>
	<rect x="371.5" y="-76.5" fill="none" stroke="#000000" stroke-width="0.25" width="100" height="150"/>
	<rect x="371.5" y="73.5" fill="none" stroke="#000000" stroke-width="0.25" width="100" height="150"/>
	<rect x="371.5" y="223.5" fill="none" stroke="#000000" stroke-width="0.25" width="100" height="150"/>
	<rect x="371.5" y="373.5" fill="none" stroke="#000000" stroke-width="0.25" width="100" height="150"/>
	<rect x="371.5" y="523.5" fill="none" stroke="#000000" stroke-width="0.25" width="100" height="150"/>
	<rect x="371.5" y="673.5" fill="none" stroke="#000000" stroke-width="0.25" width="100" height="150"/>
	<rect x="171.5" y="-226.5" fill="none" stroke="#000000" stroke-width="0.25" width="100" height="150"/>
	<rect x="171.5" y="-76.5" fill="none" stroke="#000000" stroke-width="0.25" width="100" height="150"/>
	<rect x="171.5" y="73.5" fill="none" stroke="#000000" stroke-width="0.25" width="100" height="150"/>
	<rect x="171.5" y="223.5" fill="none" stroke="#000000" stroke-width="0.25" width="100" height="150"/>
	<rect x="171.5" y="373.5" fill="none" stroke="#000000" stroke-width="0.25" width="100" height="150"/>
	<rect x="171.5" y="523.5" fill="none" stroke="#000000" stroke-width="0.25" width="100" height="150"/>
	<rect x="171.5" y="673.5" fill="none" stroke="#000000" stroke-width="0.25" width="100" height="150"/>
	<rect x="271.5" y="-226.5" fill="none" stroke="#000000" stroke-width="0.25" width="100" height="150"/>
	<rect x="271.5" y="-76.5" fill="none" stroke="#000000" stroke-width="0.25" width="100" height="150"/>
	<rect x="271.5" y="73.5" fill="none" stroke="#000000" stroke-width="0.25" width="100" height="150"/>
	<rect x="271.5" y="223.5" fill="none" stroke="#000000" stroke-width="0.25" width="100" height="150"/>
	<rect x="271.5" y="373.5" fill="none" stroke="#000000" stroke-width="0.25" width="100" height="150"/>
	<rect x="271.5" y="523.5" fill="none" stroke="#000000" stroke-width="0.25" width="100" height="150"/>
	<rect x="271.5" y="673.5" fill="none" stroke="#000000" stroke-width="0.25" width="100" height="150"/>
</g>
<g>
	<rect x="292.5" y="742.5" width="58" height="11"/>
	<rect x="293.3330078" y="593.5" width="56.3334961" height="9.6660156"/>
	<rect x="294.1669922" y="444.5" width="54.6660156" height="8.3339844"/>
	<rect x="295" y="295.5" width="53" height="7"/>
	<rect x="295.8330078" y="146.1660156" width="51.3330078" height="5.3339844"/>
	<rect x="296.6669922" y="-3.1669922" width="49.6660156" height="3.6669922"/>
	<rect x="297.5" y="-152.5" width="48" height="2"/>
</g>
<g>
	<rect x="292.5" y="759.5" width="58" height="11"/>
	<rect x="293.3330078" y="609.8330078" width="56.3334961" height="9.6669922"/>
	<rect x="294.1669922" y="460.1660156" width="54.6660156" height="8.3339844"/>
	<rect x="295" y="310.5" width="53" height="7"/>
	<rect x="295.8330078" y="160.9995117" width="51.3330078" height="5.3334961"/>
	<rect x="296.6669922" y="11.5" width="49.6660156" height="3.6669922"/>
	<rect x="297.5" y="-138" width="48" height="2"/>
</g>
<g>
	<polygon points="321.5996094,739 307.7001953,708.5 285,708.5 311.25,754.5 311.25,781.5 331.75,781.5 331.75,754.5 358,708.5 
		335.7001953,708.5 321.7998047,739 	"/>
	<polygon points="305.4335938,558.5 285.9995117,558.5 312.7495117,603.5 312.7495117,631.5 330.25,631.5 330.25,603.5 357,558.5 
		337.9667969,558.5 321.7998047,590.3330078 321.5996094,590.3330078 	"/>
	<polygon points="303.1669922,408.5 287,408.5 314.25,452.5 314.25,481.5 328.75,481.5 328.75,452.5 356,408.5 340.2333984,408.5 
		321.8007812,441.6669922 321.6000977,441.6669922 	"/>
	<polygon points="300.9003906,258.5 288,258.5 315.75,301.5 315.75,331.5 327.25,331.5 327.25,301.5 355,258.5 342.5,258.5 
		321.8007812,293 321.6005859,293 	"/>
	<polygon points="298.2636719,108.5 288.8330078,108.5 317.3330078,150.6035156 317.3330078,181.4995117 325.6665039,181.4995117 
		325.6665039,150.6035156 354.1665039,108.5 345.0029297,108.5 321.7333984,144.246582 321.5332031,144.246582 	"/>
	<polygon points="295.6269531,-41.5 289.6669922,-41.5 318.9169922,-0.2919922 318.9169922,31.5 324.0830078,31.5 
		324.0830078,-0.2919922 353.3330078,-41.5 347.5063477,-41.5 321.6669922,-4.5063477 321.4667969,-4.5063477 	"/>
	<polygon points="321.3994141,-153.2597656 292.9902344,-191.5 290.5,-191.5 320.5,-151.1884766 320.5,-118.5 322.5,-118.5 
		322.5,-151.1884766 352.5,-191.5 350.0097656,-191.5 321.5996094,-153.2597656 	"/>
</g>
<g>
	<g>
		<polygon points="421.6005859,728.5 429,781.5 452,781.5 467.5,708.5 447.6992188,708.5 440.3007812,761.5 440.0996094,761.5 
			433.6992188,708.5 409.7001953,708.5 403.3007812,761.5 403.1005859,761.5 395.7001953,708.5 375.5,708.5 391,781.5 414,781.5 
			421.4003906,728.5 		"/>
		<rect x="372" y="728.5" width="99" height="13"/>
	</g>
	<g>
		<polygon points="421.6000977,575.8330078 430.8330078,631.5 450.6660156,631.5 466.8330078,558.5 450.0195312,558.5 
			440.8007812,614.1660156 440.5996094,614.1660156 432.0322266,558.5 411.3666992,558.5 402.800293,614.1660156 
			402.6005859,614.1660156 393.3789062,558.5 376.1665039,558.5 392.3330078,631.5 412.1660156,631.5 421.3994141,575.8330078 		"/>
		<rect x="372.6660156" y="579.8330078" width="97.6669922" height="11.3330078"/>
	</g>
	<g>
		<polygon points="421.5996094,423.1669922 432.6669922,481.5 449.3339844,481.5 466.1669922,408.5 452.3417969,408.5 
			441.3007812,466.8330078 441.0996094,466.8330078 430.3662109,408.5 413.0332031,408.5 402.3007812,466.8330078 
			402.1005859,466.8330078 391.0581055,408.5 376.8334961,408.5 393.6669922,481.5 410.3330078,481.5 421.3994141,423.1669922 		"/>
		<rect x="373.3330078" y="431.1669922" width="96.3339844" height="9.6669922"/>
	</g>
	<g>
		<polygon points="388.7373047,258.5 377.5,258.5 395,331.5 408.5,331.5 421.3994141,270.5 421.5996094,270.5 434.5,331.5 
			448,331.5 465.5,258.5 454.6621094,258.5 441.8007812,319.5 441.5996094,319.5 428.6992188,258.5 414.7001953,258.5 
			401.8007812,319.5 401.6005859,319.5 		"/>
		<rect x="374" y="282.5" width="95" height="8"/>
	</g>
	<g>
		<polygon points="421.5996094,117.0732422 436.6328125,181.4995117 446.6992188,181.4995117 464.6660156,108.5 456.7509766,108.5 
			442.0605469,172.9321289 441.859375,172.9321289 426.8320312,108.5 416.4331055,108.5 401.4072266,172.9321289 
			401.2070312,172.9321289 386.5146484,108.5 378.3330078,108.5 396.2998047,181.4995117 406.3666992,181.4995117 
			421.3994141,117.0732422 		"/>
		<rect x="374.6665039" y="132.1665039" width="93.6665039" height="6"/>
	</g>
	<g>
		<polygon points="421.6005859,-36.3535156 438.765625,31.5 445.3994141,31.5 463.8339844,-41.5 458.8408203,-41.5 
			442.3203125,26.3652344 442.1191406,26.3652344 424.9658203,-41.5 418.1669922,-41.5 401.0146484,26.3652344 
			400.8139648,26.3652344 384.2929688,-41.5 379.1669922,-41.5 397.6000977,31.5 404.2338867,31.5 421.3999023,-36.3535156 		"/>
		<rect x="375.3334961" y="-18.1665039" width="92.3334961" height="3.9995117"/>
	</g>
	<g>
		<polygon points="421.6005859,-189.7802734 440.8984375,-118.5 444.0996094,-118.5 463,-191.5 460.9296875,-191.5 
			442.5800781,-120.2021484 442.3789062,-120.2021484 423.0996094,-191.5 419.9003906,-191.5 400.6210938,-120.2021484 
			400.4208984,-120.2021484 382.0703125,-191.5 380,-191.5 398.9003906,-118.5 402.1005859,-118.5 421.4003906,-189.7802734 		"/>
		<rect x="376" y="-168.5" width="91" height="2"/>
	</g>
</g>
<g>
	<g>
		<polygon points="229.9995117,721 229.9995117,738 213,738 213,721 213,699.5 229.9995117,699.5 		"/>
		<polygon points="229.9995117,774.5 229.9995117,791.5 213,791.5 213,774.5 213,753 229.9995117,753 		"/>
	</g>
	<g>
		<polygon points="228.8325195,573.3330078 228.8325195,588 214.1660156,588 214.1660156,573.3330078 214.1660156,549.8330078 
			228.8325195,549.8330078 		"/>
		<polygon points="228.8325195,626.5 228.8325195,641.1660156 214.1660156,641.1660156 214.1660156,626.5 214.1660156,603 
			228.8325195,603 		"/>
	</g>
	<g>
		<polygon points="227.6660156,425.6669922 227.6660156,438 215.3330078,438 215.3330078,425.6669922 215.3330078,400.1660156 
			227.6660156,400.1660156 		"/>
		<polygon points="227.6660156,478.5 227.6660156,490.8330078 215.3330078,490.8330078 215.3330078,478.5 215.3330078,453 
			227.6660156,453 		"/>
	</g>
	<g>
		<polygon points="216.5,250.5 226.4995117,250.5 226.4995117,278 226.4995117,288 216.5,288 216.5,278 		"/>
		<polygon points="216.5,303 226.4995117,303 226.4995117,330.5 226.4995117,340.5 216.5,340.5 216.5,330.5 		"/>
	</g>
	<g>
		<polygon points="225.1660156,100.8330078 225.1660156,130.6665039 225.1660156,137.9995117 217.8330078,137.9995117 
			217.8330078,130.6665039 217.8330078,100.8330078 		"/>
		<polygon points="225.1660156,152.9995117 225.1660156,182.8330078 225.1660156,190.1660156 217.8330078,190.1660156 
			217.8330078,182.8330078 217.8330078,152.9995117 		"/>
	</g>
	<g>
		<polygon points="223.8330078,-48.8330078 223.8330078,-16.6665039 223.8330078,-12 219.1665039,-12 219.1665039,-16.6665039 
			219.1665039,-48.8330078 		"/>
		<polygon points="223.8330078,3 223.8330078,35.1665039 223.8330078,39.8330078 219.1665039,39.8330078 219.1665039,35.1665039 
			219.1665039,3 		"/>
	</g>
	<g>
		<polygon points="222.5,-198.5 222.5,-164 222.5,-162 220.5,-162 220.5,-164 220.5,-198.5 		"/>
		<polygon points="222.5,-147 222.5,-112.5 222.5,-110.5 220.5,-110.5 220.5,-112.5 220.5,-147 		"/>
	</g>
</g>
<g>
	<rect x="81.5" y="695.5" width="79.9995117" height="13"/>
	<rect x="82.1665039" y="547" width="78.6660156" height="11.3339844"/>
	<rect x="82.8334961" y="398.5009766" width="77.3325195" height="9.6669922"/>
	<rect x="83.5" y="250.0009766" width="75.9995117" height="8"/>
	<rect x="84.1665039" y="101.5009766" width="74.6660156" height="6"/>
	<rect x="84.8330078" y="-46.9990234" width="73.3330078" height="4"/>
	<rect x="85.5" y="-195.4990234" width="71.9995117" height="2"/>
</g>
</svg>
