<?xml version="1.0" encoding="utf-8"?>
<!-- Generator: Adobe Illustrator 11 Build 225, SVG Export Plug-In . SVG Version: 6.0.0 Build 78)  -->
<!DOCTYPE svg PUBLIC "-//W3C//DTD SVG 1.0//EN"    "http://www.w3.org/TR/2001/REC-SVG-20010904/DTD/svg10.dtd" [
	<!ENTITY ns_flows "http://ns.adobe.com/Flows/1.0/">
	<!ENTITY ns_svg "http://www.w3.org/2000/svg">
	<!ENTITY ns_xlink "http://www.w3.org/1999/xlink">
]>
<svg  xmlns="&ns_svg;" xmlns:xlink="&ns_xlink;" xmlns:a="http://ns.adobe.com/AdobeSVGViewerExtensions/3.0/"
	 width="100.25" height="1050.25" viewBox="0 0 100.25 1050.25" overflow="visible" enable-background="new 0 0 100.25 1050.25"
	 xml:space="preserve">
	<metadata>
		<x:xmpmeta  x:xmptk="XMP toolkit 3.0-29, framework 1.6" xmlns:x="adobe:ns:meta/">
			<rdf:RDF  xmlns:iX="http://ns.adobe.com/iX/1.0/" xmlns:rdf="http://www.w3.org/1999/02/22-rdf-syntax-ns#">
				<rdf:Description  rdf:about="" xmlns:pdf="http://ns.adobe.com/pdf/1.3/"></rdf:Description>
				<rdf:Description  rdf:about="" xmlns:tiff="http://ns.adobe.com/tiff/1.0/"></rdf:Description>
				<rdf:Description  rdf:about="" xmlns:xapGImg="http://ns.adobe.com/xap/1.0/g/img/" xmlns:xap="http://ns.adobe.com/xap/1.0/">
					<xap:CreateDate>2005-10-18T08:31:30Z</xap:CreateDate>
					<xap:ModifyDate>2005-10-18T08:31:30Z</xap:ModifyDate>
					<xap:CreatorTool>Illustrator</xap:CreatorTool>
					<xap:Thumbnails>
						<rdf:Alt>
							<rdf:li  rdf:parseType="Resource">
								<xapGImg:format>JPEG</xapGImg:format>
								<xapGImg:width>172</xapGImg:width>
								<xapGImg:height>256</xapGImg:height>
								<xapGImg:image>/9j/4AAQSkZJRgABAgEASABIAAD/7QAsUGhvdG9zaG9wIDMuMAA4QklNA+0AAAAAABAASAAAAAEA
AQBIAAAAAQAB/+4ADkFkb2JlAGTAAAAAAf/bAIQABgQEBAUEBgUFBgkGBQYJCwgGBggLDAoKCwoK
DBAMDAwMDAwQDA4PEA8ODBMTFBQTExwbGxscHx8fHx8fHx8fHwEHBwcNDA0YEBAYGhURFRofHx8f
Hx8fHx8fHx8fHx8fHx8fHx8fHx8fHx8fHx8fHx8fHx8fHx8fHx8fHx8fHx8f/8AAEQgBAACsAwER
AAIRAQMRAf/EAaIAAAAHAQEBAQEAAAAAAAAAAAQFAwIGAQAHCAkKCwEAAgIDAQEBAQEAAAAAAAAA
AQACAwQFBgcICQoLEAACAQMDAgQCBgcDBAIGAnMBAgMRBAAFIRIxQVEGE2EicYEUMpGhBxWxQiPB
UtHhMxZi8CRygvElQzRTkqKyY3PCNUQnk6OzNhdUZHTD0uIIJoMJChgZhJRFRqS0VtNVKBry4/PE
1OT0ZXWFlaW1xdXl9WZ2hpamtsbW5vY3R1dnd4eXp7fH1+f3OEhYaHiImKi4yNjo+Ck5SVlpeYmZ
qbnJ2en5KjpKWmp6ipqqusra6voRAAICAQIDBQUEBQYECAMDbQEAAhEDBCESMUEFURNhIgZxgZEy
obHwFMHR4SNCFVJicvEzJDRDghaSUyWiY7LCB3PSNeJEgxdUkwgJChgZJjZFGidkdFU38qOzwygp
0+PzhJSktMTU5PRldYWVpbXF1eX1RlZmdoaWprbG1ub2R1dnd4eXp7fH1+f3OEhYaHiImKi4yNjo
+DlJWWl5iZmpucnZ6fkqOkpaanqKmqq6ytrq+v/aAAwDAQACEQMRAD8A9U4q7FXYq7FXYq7FXYq7
FXYqhtT1Kx0vTbvU7+UQWNjDJc3c5BISKFC8jkKCfhVSdhiqJxV2KuxV2KuxV2KuxV2KuxV2KuxV
2KsW/Kx3f8uvLruxZmsYSWJqSePjirKcVdirzfyzp2tRXXlUz21yiwXmvtdGRJAESW4mMBkqNg6k
FK9R0xV6RirsVedfmP5ovob/AEXTItC1SZf0zaFbiBbb0rj0Fa6KRFp1ev7mvxKv2T2xVS0PzfqF
z+Y+tyny3q6RtZ6VYlGW0pAUlu5mkkpcmgZbpfs1NF6Yq9KxV4n5/i0vWNG/MyPX72WTW9L0+/fS
NGeeSGKGzSwLw3MNurIk3qPyLSsGofg2pTFXp2ieStJ0PUGu9KmvLeB42jk01rqaazLFgwlEMzSC
NxxpWMrWp5V2oqn2KvPrfyx5b81ec/Nb+ZbGDWJNLubax020vY1mit7V7C3ufUhjkDKryTzSgyqO
R4ha/DiqWadrmpxeU18r6HdSSalf6pqOkaBfuxleHT7S5dJrss1eS2UdYkLV5OIwftYq9J0jS7LS
dLtNLskKWdlCkECkliEjUKOTHdjtuTuTirEvzIt7CbUfLia/H63lGW5kg1SJ/wDeY3MyBbH62vRo
DJySjVT1GTl2xVBeWtN8s2v5jPD5KtIbLSbGxuIPMSaeixaebxpYTaxCOICE3MapMXKjkqkBvtCi
r0XFWN6Tb3qefPMU8kUi2ctnpi28rKwjZ0N16gRj8JK8l5U8RXFWSYq7FXYqxr8tLS6s/IGgWt3D
Jb3MNlEk0EqlJEYLurKwBB+eKslxV2KuxV2KuxV5r5x8weY285+V7WPyvdyrZajeXVs63NiouFis
Lm15JymBUcbrlR6H6dsVXeR9c8wXXnHzTLN5buoIp9St7ae4e4s3W3EGn254twmZm+KQmkYYb+NQ
FXpGKsG/OfRtE1T8sfNM1/ZW95NYaRqM1nLNGkjwTR2sjB42YEowKjcYqutbW68q+bdH0mz1C4vN
D1tbmJdOvZXupLSW2i9YSw3Epeb0So9NkdmAJTjx3BVZvirHvMnk3ynqkzarq0TwzwQlJ763urix
c26VcpNLbSQGSJak8XJXrtirzvStPubufRLrTuegWnmeU2Oki2VYpbLy9Y28lzFDCGBEU17IgkkI
HII1PtICFWY6XBf+XvPNroiald6hpGr6fdXkUN9K1zLbXFjLbxsUmespjlW7FQ7EKyjjTliqjqum
nzr5k1fQNTmkj8r6OsEN3pcLGJr+e4jE5NxIhEn1dI2VRGpAduXOqjjiqVfpf/lVWlS6NexmTy3F
DO3le/RSWWRVaRNMuAo+KVj8Nu/WX7J+MVdVn3lu31G38vaXb6nK0+pQ2kEd9MxqzzrEolYkdSzg
nFUxxV2KuxV2KoXStP8A0dpttY/WZ7z6tGI/rV2/qzycf2pHoOTHuaYqisVdirsVdirsVS+60S1u
dasNXkeQXOnR3EUEYI9Mi69PmWBBPIeiONCOpxV2k6JaaXJqEkDyO+pXb3twZCD+8dEjovELRQkS
gfrxVMMVYL57/K601zR/MK6Ncz6TrGtWVzBKYbiSKzuJpoDEpuoKSxEGoDusfqce9aYqnmh+S9L0
q/bVGnutS1d4zAdR1Cdp5ViJDNHEvwxRKzKCwjReRpXoMVT7FUs8yeX7PzBpMmk3skqWVw0Zuo4S
q+tEjh2gclW/dyheEgFCVJFcVWeYvLVlrlnBBLLNZ3FnMtzp9/aMqT206KyCSIusifYdkKurKykg
gg4qhdA8oDTdTm1i/wBTuta1maEWwvbwQp6VuG5mKGK3jhjRWajMeJZiBU7CirWteTo77VBrGn6l
eaJq/pLBNd2JhYTxRlmjjnhuI54ZAhduLcQ4qaMMVS+4/LHTtVP/ADtepXvmZFVhFa3xhitY2deP
Nbe0itkLqCeDycmU7qQcVZLo2nNpml2untd3F/8AVYxELu8ZXuJAuwMjosYZqbcqVPU1O+KozFXY
q7FXYq7FXYq7FXYq7FXYq7FXYq7FXYq7FXYq7FXYq7FXYq7FXYq7FXYq7FXYqkPkXzhY+cPK9p5h
sYZbe1u3nRIZ+PqA21xJbtXiWG7REjfpiqfYq7FWIaT+ZelanJpKRWs6HV9U1DR4OfD4ZdNS4eR2
ox+BhaNxpvuK4qy/FXYqkvmnzVZ+XYdNkuopJv0nqVppUCxcaiW9lEaseRHwr9pqb0xV0Pmqzm85
XflVIZDd2dhBqM1xQeiFuJZIkjrWvP8AclunTFU6xV5t+ZP5y6d5bttd03RrS81jzJpWnzXc6Wds
09tYt6LSQyX0paJEj25MA3Lj26YqmHkX807HzHJZ6Ze6bqWj63cWouUg1C0aCKdVVTJJbyqZYnSr
VHx1p2xVnOKsK1/8yLm08xXHl7y95evfMup6fDHcasLSS3gitUmBMSPLcSRqZXUcljXfjviqZaL5
+8uap5Qk81iV7TS7ZJ31AXS+nLatalluIp034vEyEECvtUUxVMPLOtNrmgWGsGzmsBfwrOlpc8RM
iPunMKWAJWhpXbFUr87+frHyr+jrb6ldarrOszNBpOkWKq087xrzkasjIiRxru7s2wxVAaB+ZU91
5kt/LXmLy/e+WtZvYZLjTY7l7e4guUgoZVintZJU5orBmVqbYqzbFUqs/MVrdeZdU0BInW50q2s7
qaU04Mt806oFoa1X6q1ajuMVTXFXYq7FXmv/ADjj/wCSd0X/AIz6l/3U7nFXpWKuxVhGi/ljBpcm
jOuoNL+h9X1LWVBjC+o2ppcoYj8R4iP659rvx6CuKs3xV2KvH/ze8r3955o8nxJ5k1WFNU8wQtHZ
xmyEFqLW0nm9W35WzSeoGjFPUZ13O3Siqh5O8n6lL+bnnB2826zI2jx6PbtKzWBe4VopLow3FLQL
wHqCgjCNRjU7iir2fFXhX5laB548paV+Y99pNhBrnlfzZZXdzfkTLb3unytYtBLKQ44TwhV5cVIc
dKeKrOPyt/Mjyx5g02z0O3eaz17T7G3N1pF/C9tciMRqvqorikkZ7MhI3HjirPcVeaTS+ZPJ3n7z
Nqi+Xr3XtG8zfVLq3m0sQvNBc2lqlq8E8cskJ4usSsrgkCtDirz71VhS70Xzg66Vo/6Ul82efIEb
6wkbX1wG0zRf3QYyySlUllVF+ILt9rFXtHlf8w/LPmS9uNPsJLiDU7WNZ5tOv7aeyufRc0WZYrlI
2aMnbktRX5jFWGfnlf2+mXnljW9KuBL560q6kfQNDRHml1CG4QR3lt6cQZ0Vo1B9UjihUVxVD/l5
qF75+19fzI1uWLT7Py8t5YaZ5ajLPcWUrEJdy6gzLGwnZI6CPjRVodzuVXqWia1put6RZ6xpc31j
Tr+JLi0n4unOOQVVuLhXFR2IriqDsfLiWnmvV/MInLvqtrY2jW/GgjFi1wwYNXfn9a6U2piqc4q7
FXYqwz8nbLRrH8vNNttG+uDTklvTD+ko1iuqtezNJzRdgPULcPFaHFWZ4q7FXYq7FXYq8e87fl89
5+anlDhq2uehdSave3Ekd7KEtStuqqsDdIAxuOAUdV26A4q3+WXkF083+b9Wm1TWh9V1xILcT3kt
LqO1s7ejXAP9+tWKgn9kU7Yq9gxV5J+b3n++sPK3nPQtW8t6lDbXGl30Ol63axG8splls2VTO8NW
tmDsQfUWlBy5UxVL/Kj3/nLzj5C1jT9CvLDSfKWnzi91rUbdrT6011ZC3jt7VXpJKgYmQuV47be6
r2vFUl85+Y/8OeWr7V0tZb64gQLaWMCs8k9xIQkMSqtT8UjAE9hv2xV5hrfkrUfLHlfyxrWoQNrO
oWPmGLzF50e2iMrySzRSxyXEcagu62byp6aqPsJWm2KprYa/pvnf82NB1fyys1xpPl/T79dU1gwS
QQyPfeiILRGlVGkZTE0jACi7b1JGKofVNVg8k/nFrPmXzPa3B0PW9Os7XSddigluYrI2xf6xay+i
sjxCZ2WSvHiaexoqw38xtU/xNf3Wp/k1DqF55j1K0msvMc1vaywadPZmB1DTyXIgQ3cdR6DIS37J
22xV7V+W91os/kbRU0ZZotPtLSG0iguo2huIvq6CIxzRtusi8fi8eoJG+KskxV2KuxV2KuxV2Kux
V2KuxV2KuxV2KuxVD6jp9lqOn3On30K3FleRPb3UD/ZkilUo6N7MpIxVUt7eG2t4reBBHBCixxRj
oqKKKB8gMVVMVdirsVdirsVdirsVdirsVdirsVdirsVdirsVdirsVdirsVdiqncXFvbW8tzcypBb
wI0k00jBEREHJmZmoAoAqScVdb3Fvc28VzbSpPbzoskM0bB0dHHJWVlqCpBqCMVVMVdirsVdirsV
dirsVdirsVdirsVeS/8AOM/mLXde8h6hea1fz6jdR6xdwJPcOZHESLHxQFv2RU0GKvWsVdirwGy8
3+aH0by9K2q3JkuPzIl0udzK1XsRJdAWzb7xfAvw9NsVe/Yq7FXhH57fnh5Z0i80zy5p3mCWx1ux
12w/xBHCl3GYtPoZLgtIkfGROLJVY2LGuw2xVBaT/wA5F+R7z86LmX/E0x8qTaVBY6ZAYbwQyajJ
chmYQ+jVW4njzdR86Yq+hMVfOH5leaPPfnTUvzM0HTdaTy/5b8laVM17YpBHLc6lztZXdWdzyjjP
plSU7EbEnZVln5I+XPzP03RPKV7N5og1byde6RbSy6TdWqxXNoJLRWgjtp46l1QlVPqH7I6VNcVe
x4q8bvrXzF5//NrzX5ebzNqfl7Q/KFvp6W9voswtZri41CA3Bmml4uzKlOPDp0/yuSqA8v8A5ueY
dJ/LDXP0lMNb82aTr135U0OQKofUryNlW2fiKA7SVbxCnvir1byNomraJ5V07TtZ1KbVtXjj5ahq
E7mRpJ3JeTiT0RWPFB/KBirz/wDPfzL5hs9Z8k+WtO1p/Lem+Zr2e31TXIVHqxCJYzFCkjCkbTNI
QG67eFcVSRG8xfl/+cflLyppnmvVfNOn+YI7k6tpeszre3FrHEnKO5WYKjIpPLt0Ujwoq94xVgGm
6vqkn5463pL3UraZBoNlcQ2ZY+ksz3MqtIF6BmVQCcVZ/irsVdirxj/nFGCeH8utSWaNo2Ot3pCu
CpoVi33xV7PirsVU/qtsAAIkor+oo4jZ/wCYf5XviqpirsVfOf5x/m15bn8/eTtONrqXHy5r0txq
I+pyfvGs1aMG32rN8VT8O1N8Vd+XP5teW7v88PON/wDVtTCeYJNG07SlNnIPTKQmKQ3Ip+6HqsCC
x+zvir6MxV5B+fH5ReTda8t+YvOBjmsPMenaTeTG/sZTC06wWzMIblaMsiMq8G25Fdq0xViX5V+b
vzB8mXv5d+XPMF7DrflXzppcLaHKIxFdWDx2scv1c8f7yNBKiVbcjeooVKr6MxVgfm38odM13zGf
MthrOqeW9cmtxZ3t5pE6wm4gX7Kyq6SAsv7LChH0CirwuN00Z7TW/JlqlxpOnasnlT8vpL9jLHd6
xqLML/WLhl4mT+7McbD4fADjTFXrGleYPzJ8qfmN5f8AK3m/V7XzHpvmqG6+pahFaJYSW11ZRes8
bIjOro6bKTuT4U3VSj83J7/8yPNz/k7pMVtbwW1vFqnmDW7qP1Xtk5KYls46r+9PMVavRiPHFWK+
WtQtvyS1PzLYecbcSa7f211eaB55l9SY6ksUfNbSV5GkMcqsi/ADRjT/ACSyr3D8rdY1/Wvy90HW
Nf4fpbUbRLq49NPTWkxLx0Xt+7ZcVZOIohIZQiiQjiXoORA7VxVdirsVdirHvI/l7zBoOkzWeua/
J5ju5LmSeO+mhEDJE4XjDxDy1CUO9e+KshxV2KuxV2KuxVifmDyIdZ8/eVPNjX3op5WW/Edh6XL1
21CAQFjLzHDgFrTia+2Ku8meQv8ADeu+atXa9F5L5mvxfFBD6XoKqcEi5c5PUp/Nt8sVZZiryH8z
PyV1XUrfzNqnlHzDqWnajrdpcfX9CWVJbG/la2MQj4TlVhaUKsZfl8I6UxVr8p/yNfQ30DzJ5r1O
81bzLpemw2tjY3Lp9W0wGARvBAsZdWMYrHz5UPXrvir1/FUk866Fqmv+V9R0XTNT/Q11qERg/SIi
9do43NJOCc4viZKqG5fDWuKsf8y/lFoWq/l9YeTdPnk0iLR2t59Fv4AGktrm1NY56HiHYkty3Fan
cHfFUD5c/LDzQfOdh5u87eZF17UdGt5bfRbe2tFs4ITcrwnmYBn5ySJ8PYfhRV3nX8pNS1LzhF52
8o+YZPLPmgW31O8m9BLu3uoAQVSWF2UbUG+/QbVFcVSbW/yM80edikH5jecpNU0m3YyW2k6ZZxWE
YmKFFleQmZ3K8jQH+JGKs/8AIHlzXvLflu30bWdb/T8ln+6tb9rf6tL6CgBEl/ezCRlG3Pao6iu5
VZHirsVdirsVdirsVdirsVdirsVdirsVdirsVdirsVdirsVdirsVdirsVdirsVdirsVY75N/MPyf
5zivJfLWofX49Pl+r3bejPDwkIrx/fJHXp1FRirIsVdirD3/ADc/L1NNn1JtWpZW2qnQJpfq9z8O
pChMHH0uR6j4wOH+VirMMVdiqR+bvO3ljyhYW9/5ivfqVpd3KWVvJ6Usxe4lVmRAsKSNuI23pTFW
/wDGnlr/ABd/hD65/wA7ELX6+bH05f8Aeblw5+rw9L7X7PKvtiqd4qw38x/zW8oeQ9KubjVb+3Gq
LbS3Gn6Q0vCe5dFYxxqFWRkWR14cytBiqD/Lf86vI3nmysls9StrfXbiFZLjQ2mrPFIV5PGnNYjL
w7si4qz7FWE+evzl/LzyPfQ6f5h1P0b+eMzJaQxS3EgiFf3jrEr8F+E/a8MVT7y75v8ALXmPQI/M
GjahFdaPKrOLsEoqhPt+oHCtGVp8QYCmKu8p+bvL/m3Rk1ry/cteaZK7xxXJimhDtGeLcRMkbMA2
3ICmKqHnPz55S8l6WNT8y6jHp9qzcIuQZ5JH68Y40DO58aDbvirHPJv5+flX5v1dNH0XWQ+pygmC
2nhmtzLQVIjMqqrNQfZrXFXoWKpOnm7y8/myTykt3XzBFZ/pJ7L05drUyCL1PU4+l9tgOPLl7Yqn
GKuxV2KvnX/nDb/jlecv+2qv/EGxV9FYq7FXhE35D+b38p6jo4vNP+s3fnVvNEbmSb0xZEKPTY+j
X1vh+zTj/lYq93xV2KvmX/nJaz/Mq680eV9KfU9OOiatr1qvlyz4OJorlQsSyXLBfiRXnP2a7HFU
t8t6X+dV5/zkJ5h9PV9I/wAT6Tpttb6nfNA/1VrWcQTKkKcOQk4kfER44q+rMVfHX5z6Vc+V/wAy
/O+u+bvLs2taT5i0y4tfLmshBNDaXM1sIrdjy+BGiYcd6Mv2kr3Venf84/W35Ma9ofla+0yLT288
6BZILoxJ9XvBKYTBM8qUjM4o5HMhgDShrir3fFXz1rfmGy/Lj/nIPzJ5n816fctovmHTrWLRtVgg
e4VHhiijkt/h+yZHiO3+rXY1xV5/5cutdPlK58hWkbeXG8/6vd6xcLcARDTPLYCCSaQNxEYlETIl
aBlX/KU4q+mfIPmL8t59Nt/L3k3V7C9g0m3SKOzs7iOV0hjAQOyqeRqerdyfHFXl/wDzlTotxajy
p5/Vba8tPKd6HvNJu3VFuEmliYBA+zEmHiygE0NaGhxVjUGqy/nZ+Z/lrzboel/oXyh5ImS51LXL
z045ZZImjuTA3FiOKekAN6KrMxpUDFX0zYajp+o2kd5p9zFeWctfSubd1ljbixVuLoSpowIPvirD
LfyHq8f53XPntprc6RNoA0hYAz/WfXF0k/Irw4cOKdeda9sVZ3irsVdirxP/AJxi0nynp2neZ18u
+YH1+OXUA9272Ulj6MnE/uwJHk5/6wpir2zFXYq7FXYq7FXyv+cHlP8AMm4/OXyjpjecPVk1TUL6
+8u1tYwNLRGEiDr++4ooX4v5ffFVP8pPJ35lah+b3nS7h85cLzRb+yttevjZof0kiM4aIA0EXFbf
iePiDir6sxV4T+cP566Fpll528j69pt9pl1cabd2uh37xM9te/WLMopVgAV/fOVrQrtUkdMVeP8A
5XQaZ5j/ADK/LiTyNpU9teaDZ25846nGhhgdo1pKWptVkqhY7yFqb9Sq+1sVSvzT5k0vyx5d1DX9
Vk9Ow02Fp5jtU8fsoterOxCqO5OKvlrzz5W8y3n5N63+ZWtwyfprzdf2d3qNvGSWttBV/wDR7dR2
WvpOfbjy3BxVPmu/y11D87Py1P5UxWwkt47l9bfS4vSRbIxKIxc0UDnx9QNz+LcA7lcVU/zfv9Jt
P+cjtGm/MqN5PIUdoDpAmR5LL1uHxNJGgYPSc/GKHbhy+HFWG/mpr/lHRfMN7e/k1rf1mTzTaXNp
5i8uWMEslv6ckL8riKihFKhmai7oakfCSMVfQX/ONl75al/KDQbLQ79b36hEU1BRUPDdzO1xNG6n
cUeU8T0I3GKvT8VdirsVdiqC0zRNF0pZV0uwtrBZ25zLbQxwh2/mbgFqfc4qjcVdirsVdirsVQs+
k6VPfwahPZQS39qCLW7eJGmiDAhhHIRyWtd6HFXWmlaXZT3M9nZwW094/qXcsMaRvM+/xSMoBdtz
ucVRWKpf5g0LTdf0S+0bUo/VsdQgltp1GzcJkMbFTvxajGh7Yqt8t+XdL8uaFZaJpcZjsbCJIIFY
8m4oAoLN+01BucVTLFUNqOmabqVq1pqNpDe2jkF7e4jWWMlTUEo4ZTQ4qrvDE8TQuitEylGjIBUq
RQqQdqUxVL9H8seWtFaVtG0mz0xp95zZ28UBc9fj9NV5fTiqI1HStL1O2NrqVnBfWxIJguY0lSo6
Hi4YYqhdF8q+V9C5foTR7HS+Y4v9StobeorWh9JV774qq6Z5e0DSXmk0vTbWwe4p9Ye1gjhMnGpH
MxqvKnI9cVR+KuxV2KuxV2KuxV2KuxV2KuxV2KuxV2KuxV2KuxV2KuxV2KuxV2KuxV2KuxV2KuxV
4l/zjf8Amx5v8/X3m6HzDJBImjy2iWXoRCKgma5D8qE8v7lcVe24q7FXzNq35+fmFa+SPPOsRTWw
vdA8xLpWnkwKVFsZHWjrX4moo3xV9JWEzz2NtNJ9uWJHamwqygnFVfFXiH/OQv56P5Os7PT/ACpq
1j/iT68kOpWsvGZ4IDEzVkjr8HxMhqcVQR/5yL05vztGip5h01PIMdl6kl+SnBrn0q8BcFqfaYfd
TFXvmKvnj82Pz585yecNU/L38vtGivb2ytpf0rf3BPwKsXOZogJIlQRK1Obtu2wXpVVjv/OM/n/8
2Y7bR9Jm0JtX8o6nezR/4gZ5XmgcAtJ6snKUBV4fCrotenLfFX1Tirwvzt+YX5r67+bt7+XP5dzW
OlyaLZJe6jqN+nqczIkbhRVJQF/0iNQAla1NaYqv8hf85CzS/lZ5h8x+cYIodY8rTvY3UcB4pdTk
AQKg+LizueDUqBTlsNgqz38oNQ886r5HstY86NENW1Ot1FawxeiILaQAwxstSSxX4zXcVp1GKsN/
5yD/ADj8yeSrjQvLvlW2hk1/zC5WK7uhWKJeaxIFBKqXZ36seKgbg12VYXqn5tfnl+WPm/QrD8xZ
tM1rSNbahaxULIiBlSQoVSA84zIpoyEN0B7hV9NYq8vufzB8xx/85CWvkZXi/QMujm/dPTHq+sC4
r6nWnwjbFXqGKuxV2KvmD/nC3/jqfmF/xnsP+J3uKvp/FXYqxWb8rPy9msNQ0+XQrZ7LVbkX2oQE
NxmuQSfVff7VWOKsojjSONY4xxRAFVR0AAoBiq7FXxp/zkZq35N6j+ZGjfo9ka/j1aWDz5c+neKU
S2lhgZWDJR6KkorBX7PeoxVLfJsf5Aal+emsW93FE3ke9hitfLVrwvwr3shto1oAPWWrerUy0Xf5
Yq+3cVfM/wDzkX+T1xo82s/mx5W1qXTL5I1/S1kKgSCbhbOY3U7c1Yc0cENuajpirGfyI/NHzX+X
N55b8j+Z9HRPL/mgwXmj36keqqamV9KXkrNG8ZZl5KeLJvXwxV9fYq8f8/fkl5mvvPz+fPInmb/D
mv3lsLPU/UhE0cyKqoGFeQHwRoKFTuoYEHFXz1qWm6T5Zvr7TZZZPMflnyTeLqPmac0jj1TXpyIY
bSv7zjFFxYNy5GgmP7SjFXtXlr8+vzDtPNXlfSvP3la30nTfOIRdEvLSRiweUqIxIheXvLGGU8Sv
IH2xVJf+csNV8u+Yb3R/IOm6XNq/n95Fl057dgn1VJ6ckdmBD+qqVK7BQA5YU3VeaaLqC6B+YWqX
n51ve33mzy3YGfyzaX0nOyuZrWNngjaRQ9RIygxsPhZq8qtsVX1Z+UHn698++R7XzPd6cNLN3LMk
NushlVkhkMfMMVTqysOnbFU+byp5cbzInmZrCI69HB9VTUaH1RDueFa0p8RxVNsVdirsVefflVpP
5q6fca23nu406eGZ4TpA0+OOMqqmX1fV4RQ12aOla98Veg4q7FXYq7FXYq8U/MP8hovMX5qeWfMF
jpOlRaBaStc+Y4jFEkl5K8pkYyxiJhPyp8XqHepxVZ+Wv5BQaF+Y3mzzBrej6TLpV5dCbyxbRxxy
/VEWd3VkjaJVgYLwpw6dMVe3Yq+bP+cgvye8/GLzT5p8ueYbq603WBA+reVxHI5l9P0oU9JY+auV
EakVQMAPtHFVP8p/+cdvNN9qXlXzn581s3Uek2dlLo2iBZA8EcKLJbQTeosfp+iackVTVq1Piq+l
8VSTzsnmqTyrqUPlQwr5gmhMVhLcsUijdyFMpIV941JZRTcgV2xV5ev/ADjpbf8AKjJfIS3SRa7d
smoXeqHkyPqIYOSx+0Y6D0gaVp8VK4qkuh/lB+cPmHzb5PvvzCu9Ng0nyKyPpy6eWaa5kiaNkZ6i
g5G3j5H4dhstSTiqYfm5+R3nTU/zCs/zH/L/AFW3svMVsiLNb3dQpaNDEHjbjKp5RHgyOtKd96Yq
xfzL+R356/mheWZ8/ajo+l2mnq6wSWkIlnJYD+QKSrEbgygDqFxV6l+Rnlr8yPKflpfLHm1NPmst
OHHSb2xkYuYyxJiljMcfStQ/U999yq9LxV2KuxV2KuxV2KuxV2KuxV2KuxV2KuxV2KuxV2KuxV2K
uxV2KuxV2KuxV2KuxV2KpPo3nLyhrd1LZ6Lrmn6ndwKXnt7O6huJEUEKWdI2ZlHI03xVOMVdiqRH
z75GWG+mPmLTBDpciw6nKb23420kjFESdudImZ0ZQGpUgjFU4tLu1vLWG8s5o7m0uY1mt7iFg8ck
bgMjo6kqyspqCOuKquKpdrfmTy7oNvHc65qlnpVvK/pxTX08VsjPQnirSsgJoCaYqpnzZ5WGrw6K
dZsRrNwokt9N+sw/WZEKlwyQ8vUYFAWqB03xVNcVQeraxpmkWMl9qVzFa20SlmkmdIwaAmgLlRXb
xxVin5W/m95X/MnTru+0KO5thZTehLb3qwpMfhVuapFLN8HxUqT1xVm+KpP5h84+U/LcccnmDWLP
SlmqIfrc8cJenXgHILU70xVH6dqem6nZRX2m3cN9ZTjlDdW0iyxOK0qroWVvoOKobRvMvlzXBOdE
1Wz1QWzBLk2VxFcCNzWiv6TNxO3Q4qiNT1bS9Ks3vtUvILCyi/vLq6kSGJf9Z3KqPvxVJ9C/MXyF
r939S0XzFp2o3m5Ftb3MUkpA3JCBuRA8QMVZFiqXv5h0CPWY9DfU7Rdalj9WLS2njF00YBPNYC3q
FaKd6dsVTDFXYq7FXx//AM4d/wDk0/NP/MBL/wBRkeKvsDFXYq+Sbn8nPzLfy1+bVouhym48w6tY
3OjR+pDW4ihvrmWR1+Og4pIp+KnXFX0r+XWm32l/l95Y0y/iMF9Y6TY213ASCUlhtkSRCVJHwspG
xxVkOKvjb/nLrzH59vfMVv5d1TS4rby5DdNJ5evUR1lu2EMay8mMjI3BpqbIuKsZtvNf5wT/AJ7R
63B5cgk896ZB6Q0MRzGGONbP0N4zPz/uZeX971P0Yq+67V5ntonmXhMyKZUHQMR8Q798VfD358ag
dV/Py+07z1fXdl5csnEVr6C8zDbG3DxNCh5D97JQuwBO52NOOKph/wA4uflZpnmbUrbzSuuGz1Xy
7qkcsmlIVLT20apIp+FlkVWkqpJBVgCMVfauKvkP80/8ID/nKC9P5oer/hH6hEdP5+sY+H1NePH0
P3nD6z6v2f2+u2KsQ/Ln8xde8ufldr3lzQTPLqXmvVI9P8tQA/GnqJwupU8HKvDGN/tGo+ycVfWf
5O+RNI8ieSbPy5aSxT38Y9fV5o2DGS7kA9VjTfitOC1H2QO+KvFf+c19M8xyx+XNRVJpfLFsZUvB
EfgjuZGXi0goQC6VVGNabjvuq8h842PkPV/OPlu0/JKy1Aai8cTyqzSl1vOSshUysxVoqEyOD6Y6
g0BOKvv23EwgjE5DTBVErL0LU+Ijp3xV49qnknzTN/zk7pHm6OwdvLtvpL202ock4LKY5wE48ufW
Rf2cVeyYq7FXYq+af+cZvJelaH+YPmC8s/NOl65LPaSI9nYNMZYgblG5P6kca0BHHY9cVfS2KuxV
2KuxV2Kvib/nIA/m5f8A5taTpGsNDJI2pS/4IgU24/cXN4I7Yycehb04wTLvtviqG/Ln/ldWofnr
rF7p7QTebrSRovMshNrwWBJ44LhU5fu6jgF+DfbFX3Fir5P/AOcpPzO8i6suv+TLjSCPNOiy2q6Z
rJjR+SN6cs8Yk2kjoJGHHdWpWvTFXjXkwQw/mR5L/wACz3j6nI1h9d5DiVvWb/S44+NOUHD7XLty
rVd8VforirH/ADnoHkbUNLlvvN2m2N7YaZHJcPPfwxyiGNF5yMGcEqKLvTrir5B1mz1TzD5V83/m
7ZWn6H0iwMWj+TbK2jWFLa0e4WKaSJY+KpRJWUlducj03XFUq0+Dy35V1P8AK3WvIetyXXmfVWT/
ABFaxzCQxzPNCvoPEgDKJDJIhRvtBQe9Sqzj/nKLzfq99+amneSdb1CfR/Iw+pyXbwgkSxzPWa5Z
QP3npbqq7gFa0rirzzz2dH/LjXr1Py082RatoXmLT5rO7hjkEs0UUq8XjmdFVK1PKNlow3BFPtKv
pL/nERrE/lOPS1Fb6/mvp7jUYeZeS3duMUcbhviHKOFWHY12xV7ZirsVdirsVYr5U/K3yD5S1K51
Py7pEen314hiuZ0eVy6M4cikjuPtKDsMVZVirsVdirsVdirHta/L7ydrfmHTvMeqaZHda1pPA6de
M0gaIxuZEoqsENHNdxirtC/L3yboOu6lr+kaZHa6xrDO+pXitIzStLIZXJDsyjk55fCBirIcVYJ+
bP5Q+XvzF0J7G7WGz1Osf1fWhbxzXMSI4dkRiUbi4FCOWKon8uvyp8oeRtKtLfTLC2OqQwLBdayI
ES5uCAAzM/xMORFSvKmKsyxVLvMXl3RvMej3Gjazb/W9MugouLYu6BwrBwCY2RqclHfFVOy8q+XL
Hy4nlq20+FNBSE2w04ryhMLV5IytXlyqeVevfFWM+WPyL/KjyxrS63onl6K21OMsYrhpbif0y1am
NJpJEQ79VAxVOfOH5d+SfOVvHB5m0iDUlhqIZJAyyxg9Qk0ZSRQe4DYqx7Q/+ce/ya0S6+tWPle2
aahWt0894oBFDRLqSZR160xVNvKn5T/l95S1KXUvLekLpl5MhjmeGWfi6E14tG0jIRXcfDt2xVlu
KuxV2KuxV2KuxV2KuxV2KuxV2KuxV2KuxV2KuxV2KuxV2KuxV2KuxV2KuxV2KuxV4F+UP/OSWt+e
vzEbyrd6NbWduI7mT6zFJIz1g6Cjbb4q99xV2KvnaT/nKDXkt/zAl/QlqT5OkjS2HqSfvw+orZfv
PD4X5bd8Vev/AJW+cbnzn5B0jzNc26Wk+pRu728RLIpSV49i2/7FcVZViryL8+fz1b8trbTRplva
6pf3k0kdzaySkNCsaKwLBCWBPMUriqRRf85KXb/mnpHk36np/wCj72G0e+1T6yeMTz2i3MoBNE+A
txFTX6cVe9AhgCDUHcEdCMVeL/m9/wA5PeWvy/1l9AtdOk1vW4AjXcKyi3gh9RQyq0pWUl+LBuIT
6cVeV/kx/wA5ReY5fOkmnebmu9XttduYbXSYYFgrayzTFFWnGIup9RVJ5V26HFX15irw382v+cid
Y8ted18jeT/L51/zAkaSXKn1Hozxev6UcMI5uRDRy3LYYqmf5Yf85F6B5t8j655k1e3/AEPL5aRZ
NWhD+ohSRWMTRMQpJlaNlVOvLbeoxVNvyP8AzJ80fmHoN35g1XSIdJ0tpjDpQjd5JJglfVdiwUcV
NFBHUhulMVQX55fn3pv5YxWdpHYnVNc1BGlgtS/pRRxKePqSvRm3bZVA3odxiry+w/5zE806Zqlt
H5z8nmx067pLHJD60Ewt2PwyxpcDjMPkVBxV9P2F7a39jb31pIJbW7iSe3lHRo5FDIwr4qcVeZ+Y
Pzh1LS/zx0T8uY9PhkstVt1nkv2dxKhZJmoFHw/7pH34q9TxV2KuxV8Qf84sf+T5f/jBf4q+38Vd
iryR/wDnGXyG0XmqI3+qcfN7q+pH1besZS7W9Hof6P8AD+8Wnxcvh998VZ/5J8oab5O8rWHlrTJZ
prHTkZIJLlkaUh5GkPMosandz0UYqnmKvhH/AJyhsvKJ/Mu5v9E1pdQ1C/nlj1u1pRbKe29O3EZN
PFGr8sVYxpfk38vrz805fLkvmUw+Ug8iQeYCq1k4xVSi9Pjl+HFX6I2sAt7aKAHkIkVAx6kKKVxV
8Z/85Lfl75o8l/mEfzKsZYpNM1DUIZbSZwkjwXyx+oI5IZAVdT6DMpoRTY+6rGPyN/Mfy35b8+TX
XnHRkvV1i6t7iLUCi+pYXHqNIlzGjDlxPrVPFgePTl0xV974q+dfzX/Jv80Y/wA3E/Mz8upbefUZ
kUSwTtGjQyLa/UyQJv3bo8I8ag9sVfPWreXtW8qTXvkbVL9Y3uJLfUPOL2pEwgitgzQwepVVkkHr
livLi0jRrXkMVe9+Qf8AnK3yJZHR/LX+G7rQfLahbLT9QeRZUREPBXkUIvf+8ZWYg+OKpb/zmrZ+
TZE0e8k1H0vN8KGOHTUXn6tkzkl5CP7rg/LgT9rcUNKqq8L1Hzhq/n3UbFPPmum3stAsTFB+5rO6
QgVhiVQqtcTUHxSso23PQFV9sfkf+YXlvzn5NVvLmn3WnaVobR6TBDd8C3G3gj4gFGcGiMoxVF6r
+UXlvU/zL038w57m8XWtLiEFvbxvELVlVZFq6GJpCf3x6SDtirN8VdirsVeBflDpX5m2/wCYjTa/
+X+h+X9J9O5A1fT7G0t7nkfsL6sUjvR/2tt8Ve+4q7FXYq7FXYq+UPzh/wCccdV1L827K78t6Nc3
GgaxOl55jv8A6xFRJ7u9ka64CQqyhIiGFAeuKoT8vf8AnF+8m/NPWE8yaNd2Xku1e6k0Sczx85PT
ulForGN3aphJY1HbFX11ir40/wCcs/JHnvTdbvvNN5qKz+UtavrZLexjlkAiuYrRo4vUt2+DkIop
KOpPU9K4qhfy/wD+cd/zO893/l/XPNsiW3lhLSy+qzyyxSyyaZFEpt4YIYS/ENHQfvOJFSSCdiq+
1cVSfzjqWuab5Y1G80HT21XWo4T+j7BSq+pO3wpyLsg4KTybfoDTfFXz35Z/5xx8zXn5SebH134P
zD81OLhjcOrFBb3K3KxO6ErW4kQs5rTdf5cVefwfk5+eHm208qeSNX8vDSNH8tPdxrqsnBQsV5OJ
Z3dldllKlaJ6Y3792xVnH/OSX5E+f9c88jzp5Vtl1WKSGAXFmGjE0UtuOIKxykLIjKqmgqa12pir
B/NX5X/n9+aHmKK/1fylbaXfpCIp78KlmkqoPgM3KRy7CnEFVrTboBRV7B/zjRYfmZ5P05/KHmfy
jJY6Y0slxbaxE8DUlfd1uVWVmYHiAjqNtgRTcKvfMVdirsVdirsVdirsVdirsVdirsVdirsVU57e
3nQJPEkqA1CuoYV6VocVXoiIioihUUAKoFAANgABireKuxV2KuxV2KuxV2KuxV2KuxV2Kv8A/9k=
									</xapGImg:image>
							</rdf:li>
						</rdf:Alt>
					</xap:Thumbnails>
				</rdf:Description>
				<rdf:Description  rdf:about="" xmlns:dc="http://purl.org/dc/elements/1.1/">
					<dc:format>image/svg+xml</dc:format>
				</rdf:Description>
			</rdf:RDF>
		</x:xmpmeta>
<?xpacket begin='﻿' id='W5M0MpCehiHzreSzNTczkc9d'?><x:xmpmeta xmlns:x='adobe:ns:meta/' x:xmptk='XMP toolkit 3.0-29, framework 1.6'>
<rdf:RDF xmlns:rdf='http://www.w3.org/1999/02/22-rdf-syntax-ns#' xmlns:iX='http://ns.adobe.com/iX/1.0/'>

 <rdf:Description rdf:about='uuid:939bced2-0d63-11db-af2b-001124808cba'
  xmlns:pdf='http://ns.adobe.com/pdf/1.3/'>
  <pdf:Producer>Adobe PDF library 6.66</pdf:Producer>
 </rdf:Description>

 <rdf:Description rdf:about='uuid:939bced2-0d63-11db-af2b-001124808cba'
  xmlns:tiff='http://ns.adobe.com/tiff/1.0/'>
 </rdf:Description>

 <rdf:Description rdf:about='uuid:939bced2-0d63-11db-af2b-001124808cba'
  xmlns:xap='http://ns.adobe.com/xap/1.0/'
  xmlns:xapGImg='http://ns.adobe.com/xap/1.0/g/img/'>
  <xap:CreateDate>2006-01-17T13:21:15+09:00</xap:CreateDate>
  <xap:ModifyDate>2006-07-07T02:56:33Z</xap:ModifyDate>
  <xap:CreatorTool>Illustrator</xap:CreatorTool>
  <xap:MetadataDate>2006-01-31T01:40:41+09:00</xap:MetadataDate>
  <xap:Thumbnails>
   <rdf:Alt>
    <rdf:li rdf:parseType='Resource'>
     <xapGImg:format>JPEG</xapGImg:format>
     <xapGImg:width>24</xapGImg:width>
     <xapGImg:height>256</xapGImg:height>
     <xapGImg:image>/9j/4AAQSkZJRgABAgEASABIAAD/7QAsUGhvdG9zaG9wIDMuMAA4QklNA+0AAAAAABAASAAAAAEA&#xA;AQBIAAAAAQAB/+4ADkFkb2JlAGTAAAAAAf/bAIQABgQEBAUEBgUFBgkGBQYJCwgGBggLDAoKCwoK&#xA;DBAMDAwMDAwQDA4PEA8ODBMTFBQTExwbGxscHx8fHx8fHx8fHwEHBwcNDA0YEBAYGhURFRofHx8f&#xA;Hx8fHx8fHx8fHx8fHx8fHx8fHx8fHx8fHx8fHx8fHx8fHx8fHx8fHx8fHx8f/8AAEQgBAAAYAwER&#xA;AAIRAQMRAf/EAaIAAAAHAQEBAQEAAAAAAAAAAAQFAwIGAQAHCAkKCwEAAgIDAQEBAQEAAAAAAAAA&#xA;AQACAwQFBgcICQoLEAACAQMDAgQCBgcDBAIGAnMBAgMRBAAFIRIxQVEGE2EicYEUMpGhBxWxQiPB&#xA;UtHhMxZi8CRygvElQzRTkqKyY3PCNUQnk6OzNhdUZHTD0uIIJoMJChgZhJRFRqS0VtNVKBry4/PE&#xA;1OT0ZXWFlaW1xdXl9WZ2hpamtsbW5vY3R1dnd4eXp7fH1+f3OEhYaHiImKi4yNjo+Ck5SVlpeYmZ&#xA;qbnJ2en5KjpKWmp6ipqqusra6voRAAICAQIDBQUEBQYECAMDbQEAAhEDBCESMUEFURNhIgZxgZEy&#xA;obHwFMHR4SNCFVJicvEzJDRDghaSUyWiY7LCB3PSNeJEgxdUkwgJChgZJjZFGidkdFU38qOzwygp&#xA;0+PzhJSktMTU5PRldYWVpbXF1eX1RlZmdoaWprbG1ub2R1dnd4eXp7fH1+f3OEhYaHiImKi4yNjo&#xA;+DlJWWl5iZmpucnZ6fkqOkpaanqKmqq6ytrq+v/aAAwDAQACEQMRAD8A9KaVpWlnS7MmzgJMEdT6&#xA;afyD2xVFfonSv+WKD/kUn9MVd+idK/5YoP8AkUn9MVW6dLFFo1rLK6xxR20bSSMQqqqxgkknYADF&#xA;UkHn+wNqNR/RupDQyvP9Mm3/AHPClfU9Ll9b9Om/qejxpvWm+Kp7pGqWmraTZarZMXs9QgiurZyK&#xA;ExTIJEJH+qwxVLNR0mTWPI1zpEbrFJqOlvaJI4JVWntzGGYDqByxVK9M8/3OqaHb3Vj5d1CS9u4g&#xA;be3ZEW2JYUDm6Len6P7Vft8f2OXw4qn3lfRzonlnSNGLrIdMsrezMiDirfV4ljqq9gePTFUt1241&#xA;O38jxy6cZVnEdmJpLdPVnS2aWJbqSJAGLSJbmRkABNRsCdsVY3aw/kXZ2pFtqunwuWaVp49Udbwy&#xA;uSzt6qzi59RmO+/KvvirLvJUuoy+W7V9Qad5S84gkul4XD2oncWjzLRSJGtxGXqAa1qAdsVa0qfz&#xA;H+i7OljZkehHQm8lH7A/5dsVRX1jzL/ywWf/AEmS/wDZLirvrHmX/lgs/wDpMl/7JcVRGk/8cqy/&#xA;4wRf8QGKovFXYqxrX/MQ8tfl5e+YPS9c6VpjXawVpzaKDkqk9gSKVxVj9vo35mReXl16Xzg1zrAg&#xA;F6+lmzs00pqJ6hthSL62q/s+p6/LvTtiqe/lfrOp63+XXlzV9Um+sajf6fb3F3PxVOckkYZm4oFU&#xA;Vr2FMVVtXv8AQLDyJNc+YJIotFFgsd8bhS8RjljEZRkWrPz58eK7tWg3xV4l5V0/zonkm00fzLae&#xA;eJNHSD0rywsl0x4ZIBtwjkf0tXWFo9vR+2F+GuKvd/KOqeXtU8s6deeXHRtDaFY7ARq0apHD+69P&#xA;gwVkMZTgVIqCKYql3mLylB5r8jxaPJcvZSNHa3FpexBXaG4tmSeGTg3wuFkjFVPUbe+KoIQfnN6P&#xA;1Y3nl/nx4/pL0LzlyrTl9V9Tj9nenrdfbFU48keVIfKvlu20WO5e8eJpprm9lVVea4uZWnnkKrsv&#xA;KSRqKOg2xVvSvL9gdLsyZbzeCM7X14P2B4S4qiv8PWH+/bz/AKTrz/qrirv8PWH+/bz/AKTrz/qr&#xA;iqI0ogaTZk7AQR1P+wGKsYg/OX8qrjUzpkPmrTnvAzL6YnTiWXqFf7DH5HfFWUaXqmnarp8Go6bc&#xA;x3ljcrzt7mFg8br0qrDYjFWKeftK1jVvyj1fTdGbjqd3pDR2wDBCxMO6ciQBzWq1JpviryO1/Mj8&#xA;odW/IuPyvYaZLd6lPpgs7fy7b2E0k7agIeAdHSMoW9X4/VDV7/a2xV7J+Uvl/UfLv5a+XNF1JPT1&#xA;Czso0uoqg8JCOTISCQSpahpiqTfmx5s1Tyr+UF1rGm2cd5OltbwOJ1Z4Yop+MUksqL8TKit0H6q4&#xA;qwvQvy+0Ly95Mhn0n84dQtLW2h5W90t5Zvpabep8FtIr0TevD1em2KvQPyR83a75t/LTSNd11V/S&#xA;VwJklmRPSWZYpnjSYJQceaqDtt4bbYqnenajdyaPbRSaJdyRPborqWsyrKUAIINx0I8cVY9/yrn8&#xA;u/rf1v8A5VvaevWvL6ppdK+PH1eNfemKsrj1K7ijWOPQ7tI0AVEVrIKqgUAAFxsBiqK0n/jlWX/G&#xA;CL/iAxVF4q7FWMeYvNll5R/L248yXsbS2+mWKTGFCA0jcVVEBPTk7AV7Yq8sg/NT8/k8lSef7ry1&#xA;oj+WWtGv4dPimuF1BLUpzjuHLM0ToEo5A4sV/lxV6d+VPnC+84/l9o/mW+hit7vUo5Hlhg5empSZ&#xA;4xx5Fm6J3OKqHnvS7HVPyl1ewvhEYJtIcD15Ut4xIsPKItM/wR0kCnk2wxV8peVvzJutR/L608m6&#xA;/wDmOui6FLEbK7gOkz3NxFbLVRbC5iBVo2QAA1qAafZxV9eflxY+WLDyNotl5WukvdBt7ZY7K8Rg&#xA;4lCkh5GZaDm0nIvsKNXYYqx780/y9vvP/wCVR8uWF2lneSx2s0EkvL0maHi4STjVgreIBod6HFWK&#xA;l/z+byifKR8i6IIzZmw+u/Xo/qfHhw9T6pTlx78a9cVZr+Sv5eXfkD8v7Hy7e3SXd7G8s91JFX0g&#xA;8zlikfIK3FRQVI3O+3TFU90rSr86XZkazeAGCPYJZ7fAPG3xVFfom/8A+r1ef8BZ/wDZPirv0Tf/&#xA;APV6vP8AgLP/ALJ8VRGk/wDHKsv+MEX/ABAYq5dV0tp5rdbyBp7cVuIhIheMDu61qv04qiIpopox&#xA;JE6yRt9l0IYGhpsRirzr84rvzBafkZrVxoDSJqcenQlZISRIsPKMXLKVoQVt+ZqOmKvmNNA/ImP8&#xA;hG1iLVQn5iGJgyC7kF0Z3k4NB9VBC+iYyQW4dP2sVfS//ONenXun/kj5Yt7yFoJzHczem4Kt6c95&#xA;NNE1D/NHIrD54qhfz281WHl38kbx7y3muU1S1j0yNIJPRYPcwkBzJRqKoUkih5fZ6HFXiXlv8rvz&#xA;C8u/lZbedrO58p3Nra2h1WKO706znuPRK+rwN88HNpf2QpfY/CG6Yq+g/wAi/wAyL78wvIEGvX9p&#xA;HaXyTy2lykNRC7xcTzjDFmClXGxJ3riqa3B8r695Xi0jWtOnv9OuLeJZ7aawu3RqKCD/AHXUEVDD&#xA;cdRirz8f849fkMDx/QOp/V+fqfVv9zHpcunTr0261xV6VocnlfQdKt9J0bTriw061XjBawafeKig&#xA;mpP9zuSTUk7k7nFU30n/AI5Vl/xgi/4gMVReKuxVjetebNH8o+RW8xaxI0en6faRSS8BydiwVERB&#xA;tVndgo9zirxqP/nL+I6TNrUvkbVY9DDNFa6ry5W0k4+zE83pCNGanZmIPbvir1z8rfzAh8/eTLTz&#xA;PDZNp8d080YtXkEpX0ZGjrzCp1416Yqxf8+NMtdQ/IPWY7gTEQWNvcxegvN/UheN0qpI+Co+M9lq&#xA;e2KvmTy95084a7+UUX5ai/8ALunaDJKAbzUbxLW6RBd/WeLq0nT1hXl6f2cVfXX5M+T7Tyj+W2ja&#xA;JbX0OprFG80moWzc4JZJ5GlZomGxQF+KnuBXrirHPzz8qed/M/5RQ6b5PlcagDbS3drHIInurVYm&#xA;WSAMSo3ZlehO/GntirwY+V7o/luPKQ/JfUf8XCH0z5h9GUL63P8Av/X41J/4r5cf9jir3/8A5xu8&#xA;ieafJX5bJpXmT93fTXc13HZ8xJ9WilVAIiyllryRnPE9WxVm2lQeY/0XZ0vrMD0I6A2cp/YH/Lzi&#xA;qK+r+Zf+W+z/AOkOX/sqxV31fzL/AMt9n/0hy/8AZViqI0n/AI5Vl/xgi/4gMVReKuxV5X+eHnDX&#xA;vKX5LXGraExh1ExWlul2oqYFnKo0gqCK0PFT2JBxV8xQ3f5g235Sy/mFF+Zd+l7d3psJtEF5P65H&#xA;OvP1TNyEnw86BPsftbkYq+lv+cXdY17WPymtdQ1u+utRvJbu6C3d7LJPKyK/ED1JCzEAgjriqE/5&#xA;yO1zTtN/Im5tbq9ezn1WK2tLIRx+q00g4zGIiq8VZImDPXYeJ+EqvlfRPJ3mLTvI0Pne/wDI1nq3&#xA;lVHJfVLi5uY5HBl9EVit7yJggl+Hl6P098VfYf8Azj9+YGiec/y+hn0rSY9Dj0qU6fLpcJDQxsiL&#xA;IGiNFJV1kB3FeVa16lVMPNnlHyL598lWuheYZ43tgkM0MsM6RzQzJHxDxseQrxYjcEb9MVeX/wDQ&#xA;rHlH6kNJPn7VT5eD+p+ifrMPpcvtcuP91y5b19PFXr3kLyv5G8i+XY9B8vzRRWSO0sjyTo8ssrgB&#xA;pZGqKsQoGwAoABtir//Z</xapGImg:image>
    </rdf:li>
   </rdf:Alt>
  </xap:Thumbnails>
 </rdf:Description>

 <rdf:Description rdf:about='uuid:939bced2-0d63-11db-af2b-001124808cba'
  xmlns:xapMM='http://ns.adobe.com/xap/1.0/mm/'>
  <xapMM:DocumentID>uuid:831aaf18-81ce-11da-9137-001124808cba</xapMM:DocumentID>
 </rdf:Description>

 <rdf:Description rdf:about='uuid:939bced2-0d63-11db-af2b-001124808cba'
  xmlns:dc='http://purl.org/dc/elements/1.1/'>
  <dc:format>image/svg+xml</dc:format>
 </rdf:Description>

</rdf:RDF>
</x:xmpmeta>
                                                                                                                                                                                                                                                                                                                                                                                                                                                                                                                                                                                                                                                                                                                                                                                                                                                                                                                                                                                                                                                                                                                                                                                                                                                                                                                                                                                                                                                                                                                                                                                                                                                                                                                                                                                                                                                                                                                                                                                                                                                                                                                                <?xpacket end='w'?>
			</metadata>
		<g id="レイヤー1">
			<g>
				<rect x="0.125" y="0.125" fill="none" stroke="#000000" stroke-width="0.25" width="100" height="150"/> 
				<rect x="0.125" y="150.125" fill="none" stroke="#000000" stroke-width="0.25" width="100" height="150"/> 
				<rect x="0.125" y="300.125" fill="none" stroke="#000000" stroke-width="0.25" width="100" height="150"/> 
				<rect x="0.125" y="450.125" fill="none" stroke="#000000" stroke-width="0.25" width="100" height="150"/> 
				<rect x="0.125" y="600.125" fill="none" stroke="#000000" stroke-width="0.25" width="100" height="150"/> 
				<rect x="0.125" y="750.125" fill="none" stroke="#000000" stroke-width="0.25" width="100" height="150"/> 
				<rect x="0.125" y="900.125" fill="none" stroke="#000000" stroke-width="0.25" width="100" height="150"/> 
			</g>
			<g>
				<path d="M56.625,975.625c0,5.9306641-2.4936523,8.5-7.5,8.5c-4.9018555,0-7.5-2.5009766-7.5-8.5l-18.5-1
					c0,11.7978516,9.0244141,19,26,19c18.2783203,0,26-6.0009766,26-18.5v-19h-16.5l-0.5,5.5h-0.2001953
					c-3.4584961-4.5-7.9042969-6.5-13.7998047-6.5c-12.7705078,0-21,7.8691406-21,19.5l18.5,1c0-5.6513672,2.5512695-8.5,7.5-8.5
					C54.019043,967.125,56.625,969.9150391,56.625,975.625z"/>
				<path d="M74.125,806.125H60.0415039l-0.4169922,5.7695312h-0.199707
					C56.0161133,807.2666016,51.3022461,805.125,44.7910156,805.125c-12.6274414,0-20.6665039,7.7685547-20.6665039,19.3330078
					l15.75,0.6669922c0-6.2363281,3.1347656-9.5,9.25-9.5c5.9536133,0,9.25,3.3144531,9.25,9.6660156
					c0,6.4736328-3.0932617,9.4169922-9.25,9.4169922c-5.9672852,0-9.25-3.0039062-9.25-9.5830078l-15.75-0.6669922
					c0,11.7412109,8.9301758,18.9169922,25,18.9169922c17.1601562,0,25.0004883-6.1826172,25.0004883-18.5V806.125z"/>
				<path d="M73.125,656.125H61.4584961L61.125,662.1650391h-0.2001953
					c-3.3583984-4.7558594-8.340332-7.0400391-15.4663086-7.0400391c-12.4848633,0-20.3334961,7.6679688-20.3334961,19.1669922
					l13,0.3330078c0-6.8203125,3.71875-10.5,11-10.5c7.0126953,0,11,3.8398438,11,10.8330078
					c0,7.0166016-3.6928711,10.3339844-11,10.3339844c-7.0327148,0-11-3.5078125-11-10.6669922l-13-0.3330078
					c0,11.6835938,8.8359375,18.8330078,24,18.8330078c16.0415039,0,24-6.3652344,24-18.5V656.125z"/>
				<path d="M72.125,506.125h-9.25l-0.25,6.3105469h-0.2001953C59.1162109,507.5517578,53.8662109,505.125,46.125,505.125
					c-12.3417969,0-20,7.5673828-20,19h10.25c0-7.4052734,4.3022461-11.5,12.75-11.5c8.0717773,0,12.75,4.3642578,12.75,12
					c0,7.5595703-4.2924805,11.25-12.75,11.25c-8.0981445,0-12.75-4.0107422-12.75-11.75h-10.25
					c0,11.6269531,8.7412109,18.75,23,18.75c14.9228516,0,23-6.546875,23-18.5V506.125z"/>
				<path d="M47.1245117,355.125c-12.215332,0-20,7.5229492-20,18.8330078h7.5c0-8.2783203,5.2236328-13.1665039,14.5-13.1665039
					c9.0263672,0,14.5,5.0678711,14.5,13.5c0,8.3808594-5.2167969,13-14.5,13c-9.043457,0-14.5-4.8325195-14.5-13.3334961h-7.5
					c0,11.4975586,8.4443359,18.6665039,22,18.6665039c13.9985352,0,22.0004883-6.7851562,22.0004883-18.5v-18h-6.8339844
					l-0.1665039,7.1347656h-0.199707C60.6894531,357.9804688,55.0991211,355.125,47.1245117,355.125z"/>
				<path d="M48.125,205.125c-12.0888672,0-20,7.4790039-20,18.6665039h4.75c0-9.1503906,6.1445312-14.8330078,16.25-14.8330078
					c9.9804688,0,16.25,5.7724609,16.25,15c0,9.2021484-6.1411133,14.75-16.25,14.75c-9.9892578,0-16.25-5.6547852-16.25-14.9169922
					h-4.75c0,11.3681641,8.1474609,18.5834961,21,18.5834961c13.0742188,0,21-7.0234375,21-18.5v-17.75h-4.4165039
					L65.625,214.0834961h-0.2001953C62.2641602,208.409668,56.3334961,205.125,48.125,205.125z"/>
				<path d="M66.9248047,64.9077148C63.8378906,58.8388672,57.5668945,55.125,49.125,55.125c-11.9624023,0-20,7.4345703-20,18.5h2
					c0-10.0234375,7.0654297-16.5,18-16.5s18,6.4765625,18,16.5s-7.0654297,16.5-18,16.5s-18-6.4765625-18-16.5h-2
					c0,11.2382812,7.8505859,18.5,20,18.5s20-7.2617188,20-18.5v-17.5h-2v8.7827148H66.9248047z"/>
			</g>
			<g>
				<g>
					<path d="M31.5454102,1004.1337891C26.5043945,1002.046875,24.125,999.1308594,24.125,996.125
						c0-3.6855469,7.5791016-12.7421875,13-15l12,6c-4.6289062,3.0859375-8,6.8945312-8,8c0,1.53125,1.0917969,2.5,8,2.5
						c21.5883789,0,29,5.5126953,29,17c0,10.1416016-9.1582031,16.5-29,16.5v-9.5c6.5356445,0,9.5-2.3916016,9.5-7
						c0-3.5878906-3.0380859-6.0488281-9.5-6.5c-6.1860352,0-9.5,2.7402344-9.5,6.5c0,4.6005859,2.9580078,7,9.5,7v9.5
						c-20.3789062,0-29-6.0253906-29-15.5c0-4.9316406,3.3974609-8.9453125,11.4204102-11.2910156V1004.1337891z"/>
				</g>
				<g>
					<path d="M32.7070312,853.8310547c-4.6474609-2.0546875-6.9155273-5.0224609-6.9155273-8.0400391
						c0-3.3789062,6.3491211-11.2177734,11.3759766-13.6113281l10.2480469,5.2226562
						c-4.2402344,2.9980469-7.1245117,6.3945312-7.1245117,7.5556641c0,1.8574219,1.4648438,3.25,8.8334961,3.25
						c20.7050781,0,28.1669922,5.6083984,28.1669922,16.6669922c0,9.9951172-9.0078125,16.25-28.1669922,16.25v-8.6669922
						c8.3745117,0,11.5834961-2.6728516,11.5834961-7.5830078c0-4.0664062-3.1914062-6.8583984-11.5834961-7.1640625
						c-7.9311523-0.0039062-11.5834961,2.8808594-11.5834961,7.1640625c0,5.0068359,3.4111328,7.5830078,11.5834961,7.5830078
						V881.125c-19.5957031,0-28.1665039-5.9765625-28.1665039-15.4169922c0-5.1923828,3.5996094-9.3457031,11.7490234-11.6767578
						V853.8310547z"/>
				</g>
				<g>
					<path d="M33.8691406,703.5283203c-4.2529297-2.0234375-6.4106445-5.0419922-6.4106445-8.0703125
						c0-3.0732422,5.1186523-9.6933594,9.7519531-12.2226562l8.4960938,4.4453125
						c-3.8510742,2.9091797-6.2480469,5.8935547-6.2480469,7.1113281c0,2.1816406,1.8374023,4,9.6665039,4
						c19.8222656,0,27.3334961,5.703125,27.3334961,16.3330078c0,9.8476562-8.8579102,16-27.3334961,16v-7.8330078
						c10.2138672,0,13.6669922-2.9541016,13.6669922-8.1669922c0-4.5439453-3.3457031-7.6669922-13.6669922-7.8271484
						c-9.6767578-0.0078125-13.6665039,3.0205078-13.6665039,7.8271484c0,5.4140625,3.8637695,8.1669922,13.6665039,8.1669922
						V731.125c-18.8129883,0-27.3334961-5.9267578-27.3334961-15.3330078c0-5.4541016,3.8017578-9.7460938,12.0776367-12.0634766
						V703.5283203z"/>
				</g>
				<path d="M49.125,556.8847656c-11.4223633-0.0126953-15.75,3.1601562-15.75,8.4902344c0,5.8212891,4.3168945,8.75,15.75,8.75v7
					c-18.0297852,0-26.5-5.8779297-26.5-15.25c0-5.7148438,4.003418-10.1464844,12.4057617-12.4492188v-0.2001953
					C31.171875,551.234375,29.125,548.1640625,29.125,545.125c0-2.7675781,3.8886719-8.1699219,8.1279297-10.8339844
					l6.7441406,3.6679688C40.5351562,540.7792969,38.625,543.3515625,38.625,544.625c0,2.5078125,2.2104492,4.75,10.5,4.75
					c18.9389648,0,26.5,5.7988281,26.5,16c0,9.7011719-8.7075195,15.75-26.5,15.75v-7c12.0527344,0,15.75-3.234375,15.75-8.75
					C64.875,560.3535156,61.3759766,556.8984375,49.125,556.8847656z"/>
				<path d="M66.9580078,415.6245117c0-6.1420898-4.9370117-9.9838867-17.8334961-9.9931641
					c-12.0009766-0.0083008-17.8330078,3.8481445-17.8330078,9.9931641c0,6.675293,5.4819336,10.1669922,17.8330078,10.1669922
					v5.3330078c-18.9804688,0-25.6665039-7.0507812-25.6665039-15.1665039c0-5.8217773,4.2880859-10.7685547,13.4291992-13.0063477
					v-0.199707c-4.5332031-2.0200195-6.0961914-5.4160156-6.0961914-7.9604492c0-2.5854492,2.887207-6.7895508,6.5043945-9.4458008
					l4.9921875,2.8911133c-3.0732422,2.7314453-4.4960938,4.8911133-4.4960938,6.2211914c0,2.3730469,1.8955078,5.5,11.3330078,5.5
					c19.5869141,0,25.6665039,6.9985352,25.6665039,15.6665039c0,8.3349609-6.84375,15.5-25.6665039,15.5v-5.3330078
					C61.8886719,425.7915039,66.9580078,422.0961914,66.9580078,415.6245117z"/>
				<path d="M69.0415039,265.875c0-7.2626953-6.3745117-11.4921875-19.9165039-11.496582
					c-12.5795898-0.0043945-19.9165039,4.5361328-19.9165039,11.496582c0,7.5292969,6.6474609,11.5834961,19.9165039,11.5834961
					V281.125c-19.9311523,0-24.8330078-8.2246094-24.8330078-15.0830078c0-5.9291992,4.5717773-11.390625,14.4516602-13.5629883
					v-0.2001953c-5.2070312-2.0478516-6.2851562-5.7700195-6.2851562-7.8203125c0-2.402832,1.8842773-5.4082031,4.8803711-8.0571289
					l3.2392578,2.1137695c-2.684082,2.6425781-3.6196289,4.3901367-3.6196289,5.7763672
					c0,2.2392578,1.5810547,6.2504883,12.1665039,6.2504883c20.234375,0,24.8334961,8.1977539,24.8334961,15.3330078
					c0,6.9682617-4.9814453,15.25-24.8334961,15.25v-3.6665039C62.6005859,277.4584961,69.0415039,273.3027344,69.0415039,265.875z"
					/>
				<path d="M40.6000977,102.0053711C29.9814453,104.112793,25.125,110.0888672,25.125,116.125c0,5.6020508,3.1181641,15,24,15v-2
					c-14.1870117,0-22-4.6166992-22-13c0-7.7758789,8.8413086-13,22-13c14.1870117,0,22,4.6166992,22,13s-7.8129883,13-22,13v2
					c20.8818359,0,24-9.3979492,24-15s-3.1181641-15-24-15c-11.7333984,0-13-4.8955078-13-7
					c0-1.4433594,0.4487305-2.7783203,2.7436523-5.331543l-1.4873047-1.3369141
					C35.0073242,90.0976562,34.125,91.9047852,34.125,94.125c0,1.5561523,0.5942383,5.6040039,6.4750977,7.6801758V102.0053711z"/>
			</g>
		</g>
	</svg>
