<?xml version="1.0" encoding="utf-8"?>
<!-- Generator: Adobe Illustrator 11 Build 225, SVG Export Plug-In . SVG Version: 6.0.0 Build 78)  -->
<!DOCTYPE svg PUBLIC "-//W3C//DTD SVG 1.0//EN"    "http://www.w3.org/TR/2001/REC-SVG-20010904/DTD/svg10.dtd" [
	<!ENTITY ns_flows "http://ns.adobe.com/Flows/1.0/">
	<!ENTITY ns_svg "http://www.w3.org/2000/svg">
	<!ENTITY ns_xlink "http://www.w3.org/1999/xlink">
]>
<svg  xmlns="&ns_svg;" xmlns:xlink="&ns_xlink;" xmlns:a="http://ns.adobe.com/AdobeSVGViewerExtensions/3.0/"
	 width="100.25" height="1050.25" viewBox="0 0 100.25 1050.25" overflow="visible" enable-background="new 0 0 100.25 1050.25"
	 xml:space="preserve">
	<metadata>
		<x:xmpmeta  x:xmptk="XMP toolkit 3.0-29, framework 1.6" xmlns:x="adobe:ns:meta/">
			<rdf:RDF  xmlns:iX="http://ns.adobe.com/iX/1.0/" xmlns:rdf="http://www.w3.org/1999/02/22-rdf-syntax-ns#">
				<rdf:Description  rdf:about="" xmlns:pdf="http://ns.adobe.com/pdf/1.3/"></rdf:Description>
				<rdf:Description  rdf:about="" xmlns:tiff="http://ns.adobe.com/tiff/1.0/"></rdf:Description>
				<rdf:Description  rdf:about="" xmlns:xapGImg="http://ns.adobe.com/xap/1.0/g/img/" xmlns:xap="http://ns.adobe.com/xap/1.0/">
					<xap:CreateDate>2005-10-18T08:31:30Z</xap:CreateDate>
					<xap:ModifyDate>2005-10-18T08:31:30Z</xap:ModifyDate>
					<xap:CreatorTool>Illustrator</xap:CreatorTool>
					<xap:Thumbnails>
						<rdf:Alt>
							<rdf:li  rdf:parseType="Resource">
								<xapGImg:format>JPEG</xapGImg:format>
								<xapGImg:width>172</xapGImg:width>
								<xapGImg:height>256</xapGImg:height>
								<xapGImg:image>/9j/4AAQSkZJRgABAgEASABIAAD/7QAsUGhvdG9zaG9wIDMuMAA4QklNA+0AAAAAABAASAAAAAEA
AQBIAAAAAQAB/+4ADkFkb2JlAGTAAAAAAf/bAIQABgQEBAUEBgUFBgkGBQYJCwgGBggLDAoKCwoK
DBAMDAwMDAwQDA4PEA8ODBMTFBQTExwbGxscHx8fHx8fHx8fHwEHBwcNDA0YEBAYGhURFRofHx8f
Hx8fHx8fHx8fHx8fHx8fHx8fHx8fHx8fHx8fHx8fHx8fHx8fHx8fHx8fHx8f/8AAEQgBAACsAwER
AAIRAQMRAf/EAaIAAAAHAQEBAQEAAAAAAAAAAAQFAwIGAQAHCAkKCwEAAgIDAQEBAQEAAAAAAAAA
AQACAwQFBgcICQoLEAACAQMDAgQCBgcDBAIGAnMBAgMRBAAFIRIxQVEGE2EicYEUMpGhBxWxQiPB
UtHhMxZi8CRygvElQzRTkqKyY3PCNUQnk6OzNhdUZHTD0uIIJoMJChgZhJRFRqS0VtNVKBry4/PE
1OT0ZXWFlaW1xdXl9WZ2hpamtsbW5vY3R1dnd4eXp7fH1+f3OEhYaHiImKi4yNjo+Ck5SVlpeYmZ
qbnJ2en5KjpKWmp6ipqqusra6voRAAICAQIDBQUEBQYECAMDbQEAAhEDBCESMUEFURNhIgZxgZEy
obHwFMHR4SNCFVJicvEzJDRDghaSUyWiY7LCB3PSNeJEgxdUkwgJChgZJjZFGidkdFU38qOzwygp
0+PzhJSktMTU5PRldYWVpbXF1eX1RlZmdoaWprbG1ub2R1dnd4eXp7fH1+f3OEhYaHiImKi4yNjo
+DlJWWl5iZmpucnZ6fkqOkpaanqKmqq6ytrq+v/aAAwDAQACEQMRAD8A9U4q7FXYq7FXYq7FXYq7
FXYqhtT1Kx0vTbvU7+UQWNjDJc3c5BISKFC8jkKCfhVSdhiqJxV2KuxV2KuxV2KuxV2KuxV2KuxV
2KsW/Kx3f8uvLruxZmsYSWJqSePjirKcVdirzfyzp2tRXXlUz21yiwXmvtdGRJAESW4mMBkqNg6k
FK9R0xV6RirsVedfmP5ovob/AEXTItC1SZf0zaFbiBbb0rj0Fa6KRFp1ev7mvxKv2T2xVS0PzfqF
z+Y+tyny3q6RtZ6VYlGW0pAUlu5mkkpcmgZbpfs1NF6Yq9KxV4n5/i0vWNG/MyPX72WTW9L0+/fS
NGeeSGKGzSwLw3MNurIk3qPyLSsGofg2pTFXp2ieStJ0PUGu9KmvLeB42jk01rqaazLFgwlEMzSC
NxxpWMrWp5V2oqn2KvPrfyx5b81ec/Nb+ZbGDWJNLubax020vY1mit7V7C3ufUhjkDKryTzSgyqO
R4ha/DiqWadrmpxeU18r6HdSSalf6pqOkaBfuxleHT7S5dJrss1eS2UdYkLV5OIwftYq9J0jS7LS
dLtNLskKWdlCkECkliEjUKOTHdjtuTuTirEvzIt7CbUfLia/H63lGW5kg1SJ/wDeY3MyBbH62vRo
DJySjVT1GTl2xVBeWtN8s2v5jPD5KtIbLSbGxuIPMSaeixaebxpYTaxCOICE3MapMXKjkqkBvtCi
r0XFWN6Tb3qefPMU8kUi2ctnpi28rKwjZ0N16gRj8JK8l5U8RXFWSYq7FXYqxr8tLS6s/IGgWt3D
Jb3MNlEk0EqlJEYLurKwBB+eKslxV2KuxV2KuxV5r5x8weY285+V7WPyvdyrZajeXVs63NiouFis
Lm15JymBUcbrlR6H6dsVXeR9c8wXXnHzTLN5buoIp9St7ae4e4s3W3EGn254twmZm+KQmkYYb+NQ
FXpGKsG/OfRtE1T8sfNM1/ZW95NYaRqM1nLNGkjwTR2sjB42YEowKjcYqutbW68q+bdH0mz1C4vN
D1tbmJdOvZXupLSW2i9YSw3Epeb0So9NkdmAJTjx3BVZvirHvMnk3ynqkzarq0TwzwQlJ763urix
c26VcpNLbSQGSJak8XJXrtirzvStPubufRLrTuegWnmeU2Oki2VYpbLy9Y28lzFDCGBEU17IgkkI
HII1PtICFWY6XBf+XvPNroiald6hpGr6fdXkUN9K1zLbXFjLbxsUmespjlW7FQ7EKyjjTliqjqum
nzr5k1fQNTmkj8r6OsEN3pcLGJr+e4jE5NxIhEn1dI2VRGpAduXOqjjiqVfpf/lVWlS6NexmTy3F
DO3le/RSWWRVaRNMuAo+KVj8Nu/WX7J+MVdVn3lu31G38vaXb6nK0+pQ2kEd9MxqzzrEolYkdSzg
nFUxxV2KuxV2KoXStP8A0dpttY/WZ7z6tGI/rV2/qzycf2pHoOTHuaYqisVdirsVdirsVS+60S1u
dasNXkeQXOnR3EUEYI9Mi69PmWBBPIeiONCOpxV2k6JaaXJqEkDyO+pXb3twZCD+8dEjovELRQkS
gfrxVMMVYL57/K601zR/MK6Ncz6TrGtWVzBKYbiSKzuJpoDEpuoKSxEGoDusfqce9aYqnmh+S9L0
q/bVGnutS1d4zAdR1Cdp5ViJDNHEvwxRKzKCwjReRpXoMVT7FUs8yeX7PzBpMmk3skqWVw0Zuo4S
q+tEjh2gclW/dyheEgFCVJFcVWeYvLVlrlnBBLLNZ3FnMtzp9/aMqT206KyCSIusifYdkKurKykg
gg4qhdA8oDTdTm1i/wBTuta1maEWwvbwQp6VuG5mKGK3jhjRWajMeJZiBU7CirWteTo77VBrGn6l
eaJq/pLBNd2JhYTxRlmjjnhuI54ZAhduLcQ4qaMMVS+4/LHTtVP/ADtepXvmZFVhFa3xhitY2deP
Nbe0itkLqCeDycmU7qQcVZLo2nNpml2untd3F/8AVYxELu8ZXuJAuwMjosYZqbcqVPU1O+KozFXY
q7FXYq7FXYq7FXYq7FXYq7FXYq7FXYq7FXYq7FXYq7FXYq7FXYq7FXYq7FXYqkPkXzhY+cPK9p5h
sYZbe1u3nRIZ+PqA21xJbtXiWG7REjfpiqfYq7FWIaT+ZelanJpKRWs6HV9U1DR4OfD4ZdNS4eR2
ox+BhaNxpvuK4qy/FXYqkvmnzVZ+XYdNkuopJv0nqVppUCxcaiW9lEaseRHwr9pqb0xV0Pmqzm85
XflVIZDd2dhBqM1xQeiFuJZIkjrWvP8AclunTFU6xV5t+ZP5y6d5bttd03RrS81jzJpWnzXc6Wds
09tYt6LSQyX0paJEj25MA3Lj26YqmHkX807HzHJZ6Ze6bqWj63cWouUg1C0aCKdVVTJJbyqZYnSr
VHx1p2xVnOKsK1/8yLm08xXHl7y95evfMup6fDHcasLSS3gitUmBMSPLcSRqZXUcljXfjviqZaL5
+8uap5Qk81iV7TS7ZJ31AXS+nLatalluIp034vEyEECvtUUxVMPLOtNrmgWGsGzmsBfwrOlpc8RM
iPunMKWAJWhpXbFUr87+frHyr+jrb6ldarrOszNBpOkWKq087xrzkasjIiRxru7s2wxVAaB+ZU91
5kt/LXmLy/e+WtZvYZLjTY7l7e4guUgoZVintZJU5orBmVqbYqzbFUqs/MVrdeZdU0BInW50q2s7
qaU04Mt806oFoa1X6q1ajuMVTXFXYq7FXmv/ADjj/wCSd0X/AIz6l/3U7nFXpWKuxVhGi/ljBpcm
jOuoNL+h9X1LWVBjC+o2ppcoYj8R4iP659rvx6CuKs3xV2KvH/ze8r3955o8nxJ5k1WFNU8wQtHZ
xmyEFqLW0nm9W35WzSeoGjFPUZ13O3Siqh5O8n6lL+bnnB2826zI2jx6PbtKzWBe4VopLow3FLQL
wHqCgjCNRjU7iir2fFXhX5laB548paV+Y99pNhBrnlfzZZXdzfkTLb3unytYtBLKQ44TwhV5cVIc
dKeKrOPyt/Mjyx5g02z0O3eaz17T7G3N1pF/C9tciMRqvqorikkZ7MhI3HjirPcVeaTS+ZPJ3n7z
Nqi+Xr3XtG8zfVLq3m0sQvNBc2lqlq8E8cskJ4usSsrgkCtDirz71VhS70Xzg66Vo/6Ul82efIEb
6wkbX1wG0zRf3QYyySlUllVF+ILt9rFXtHlf8w/LPmS9uNPsJLiDU7WNZ5tOv7aeyufRc0WZYrlI
2aMnbktRX5jFWGfnlf2+mXnljW9KuBL560q6kfQNDRHml1CG4QR3lt6cQZ0Vo1B9UjihUVxVD/l5
qF75+19fzI1uWLT7Py8t5YaZ5ajLPcWUrEJdy6gzLGwnZI6CPjRVodzuVXqWia1put6RZ6xpc31j
Tr+JLi0n4unOOQVVuLhXFR2IriqDsfLiWnmvV/MInLvqtrY2jW/GgjFi1wwYNXfn9a6U2piqc4q7
FXYqwz8nbLRrH8vNNttG+uDTklvTD+ko1iuqtezNJzRdgPULcPFaHFWZ4q7FXYq7FXYq8e87fl89
5+anlDhq2uehdSave3Ekd7KEtStuqqsDdIAxuOAUdV26A4q3+WXkF083+b9Wm1TWh9V1xILcT3kt
LqO1s7ejXAP9+tWKgn9kU7Yq9gxV5J+b3n++sPK3nPQtW8t6lDbXGl30Ol63axG8splls2VTO8NW
tmDsQfUWlBy5UxVL/Kj3/nLzj5C1jT9CvLDSfKWnzi91rUbdrT6011ZC3jt7VXpJKgYmQuV47be6
r2vFUl85+Y/8OeWr7V0tZb64gQLaWMCs8k9xIQkMSqtT8UjAE9hv2xV5hrfkrUfLHlfyxrWoQNrO
oWPmGLzF50e2iMrySzRSxyXEcagu62byp6aqPsJWm2KprYa/pvnf82NB1fyys1xpPl/T79dU1gwS
QQyPfeiILRGlVGkZTE0jACi7b1JGKofVNVg8k/nFrPmXzPa3B0PW9Os7XSddigluYrI2xf6xay+i
sjxCZ2WSvHiaexoqw38xtU/xNf3Wp/k1DqF55j1K0msvMc1vaywadPZmB1DTyXIgQ3cdR6DIS37J
22xV7V+W91os/kbRU0ZZotPtLSG0iguo2huIvq6CIxzRtusi8fi8eoJG+KskxV2KuxV2KuxV2Kux
V2KuxV2KuxV2KuxVD6jp9lqOn3On30K3FleRPb3UD/ZkilUo6N7MpIxVUt7eG2t4reBBHBCixxRj
oqKKKB8gMVVMVdirsVdirsVdirsVdirsVdirsVdirsVdirsVdirsVdirsVdiqncXFvbW8tzcypBb
wI0k00jBEREHJmZmoAoAqScVdb3Fvc28VzbSpPbzoskM0bB0dHHJWVlqCpBqCMVVMVdirsVdirsV
dirsVdirsVdirsVeS/8AOM/mLXde8h6hea1fz6jdR6xdwJPcOZHESLHxQFv2RU0GKvWsVdirwGy8
3+aH0by9K2q3JkuPzIl0udzK1XsRJdAWzb7xfAvw9NsVe/Yq7FXhH57fnh5Z0i80zy5p3mCWx1ux
12w/xBHCl3GYtPoZLgtIkfGROLJVY2LGuw2xVBaT/wA5F+R7z86LmX/E0x8qTaVBY6ZAYbwQyajJ
chmYQ+jVW4njzdR86Yq+hMVfOH5leaPPfnTUvzM0HTdaTy/5b8laVM17YpBHLc6lztZXdWdzyjjP
plSU7EbEnZVln5I+XPzP03RPKV7N5og1byde6RbSy6TdWqxXNoJLRWgjtp46l1QlVPqH7I6VNcVe
x4q8bvrXzF5//NrzX5ebzNqfl7Q/KFvp6W9voswtZri41CA3Bmml4uzKlOPDp0/yuSqA8v8A5ueY
dJ/LDXP0lMNb82aTr135U0OQKofUryNlW2fiKA7SVbxCnvir1byNomraJ5V07TtZ1KbVtXjj5ahq
E7mRpJ3JeTiT0RWPFB/KBirz/wDPfzL5hs9Z8k+WtO1p/Lem+Zr2e31TXIVHqxCJYzFCkjCkbTNI
QG67eFcVSRG8xfl/+cflLyppnmvVfNOn+YI7k6tpeszre3FrHEnKO5WYKjIpPLt0Ujwoq94xVgGm
6vqkn5463pL3UraZBoNlcQ2ZY+ksz3MqtIF6BmVQCcVZ/irsVdirxj/nFGCeH8utSWaNo2Ot3pCu
CpoVi33xV7PirsVU/qtsAAIkor+oo4jZ/wCYf5XviqpirsVfOf5x/m15bn8/eTtONrqXHy5r0txq
I+pyfvGs1aMG32rN8VT8O1N8Vd+XP5teW7v88PON/wDVtTCeYJNG07SlNnIPTKQmKQ3Ip+6HqsCC
x+zvir6MxV5B+fH5ReTda8t+YvOBjmsPMenaTeTG/sZTC06wWzMIblaMsiMq8G25Fdq0xViX5V+b
vzB8mXv5d+XPMF7DrflXzppcLaHKIxFdWDx2scv1c8f7yNBKiVbcjeooVKr6MxVgfm38odM13zGf
MthrOqeW9cmtxZ3t5pE6wm4gX7Kyq6SAsv7LChH0CirwuN00Z7TW/JlqlxpOnasnlT8vpL9jLHd6
xqLML/WLhl4mT+7McbD4fADjTFXrGleYPzJ8qfmN5f8AK3m/V7XzHpvmqG6+pahFaJYSW11ZRes8
bIjOro6bKTuT4U3VSj83J7/8yPNz/k7pMVtbwW1vFqnmDW7qP1Xtk5KYls46r+9PMVavRiPHFWK+
WtQtvyS1PzLYecbcSa7f211eaB55l9SY6ksUfNbSV5GkMcqsi/ADRjT/ACSyr3D8rdY1/Wvy90HW
Nf4fpbUbRLq49NPTWkxLx0Xt+7ZcVZOIohIZQiiQjiXoORA7VxVdirsVdirHvI/l7zBoOkzWeua/
J5ju5LmSeO+mhEDJE4XjDxDy1CUO9e+KshxV2KuxV2KuxVifmDyIdZ8/eVPNjX3op5WW/Edh6XL1
21CAQFjLzHDgFrTia+2Ku8meQv8ADeu+atXa9F5L5mvxfFBD6XoKqcEi5c5PUp/Nt8sVZZiryH8z
PyV1XUrfzNqnlHzDqWnajrdpcfX9CWVJbG/la2MQj4TlVhaUKsZfl8I6UxVr8p/yNfQ30DzJ5r1O
81bzLpemw2tjY3Lp9W0wGARvBAsZdWMYrHz5UPXrvir1/FUk866Fqmv+V9R0XTNT/Q11qERg/SIi
9do43NJOCc4viZKqG5fDWuKsf8y/lFoWq/l9YeTdPnk0iLR2t59Fv4AGktrm1NY56HiHYkty3Fan
cHfFUD5c/LDzQfOdh5u87eZF17UdGt5bfRbe2tFs4ITcrwnmYBn5ySJ8PYfhRV3nX8pNS1LzhF52
8o+YZPLPmgW31O8m9BLu3uoAQVSWF2UbUG+/QbVFcVSbW/yM80edikH5jecpNU0m3YyW2k6ZZxWE
YmKFFleQmZ3K8jQH+JGKs/8AIHlzXvLflu30bWdb/T8ln+6tb9rf6tL6CgBEl/ezCRlG3Pao6iu5
VZHirsVdirsVdirsVdirsVdirsVdirsVdirsVdirsVdirsVdirsVdirsVdirsVdirsVY75N/MPyf
5zivJfLWofX49Pl+r3bejPDwkIrx/fJHXp1FRirIsVdirD3/ADc/L1NNn1JtWpZW2qnQJpfq9z8O
pChMHH0uR6j4wOH+VirMMVdiqR+bvO3ljyhYW9/5ivfqVpd3KWVvJ6Usxe4lVmRAsKSNuI23pTFW
/wDGnlr/ABd/hD65/wA7ELX6+bH05f8Aeblw5+rw9L7X7PKvtiqd4qw38x/zW8oeQ9KubjVb+3Gq
LbS3Gn6Q0vCe5dFYxxqFWRkWR14cytBiqD/Lf86vI3nmysls9StrfXbiFZLjQ2mrPFIV5PGnNYjL
w7si4qz7FWE+evzl/LzyPfQ6f5h1P0b+eMzJaQxS3EgiFf3jrEr8F+E/a8MVT7y75v8ALXmPQI/M
GjahFdaPKrOLsEoqhPt+oHCtGVp8QYCmKu8p+bvL/m3Rk1ry/cteaZK7xxXJimhDtGeLcRMkbMA2
3ICmKqHnPz55S8l6WNT8y6jHp9qzcIuQZ5JH68Y40DO58aDbvirHPJv5+flX5v1dNH0XWQ+pygmC
2nhmtzLQVIjMqqrNQfZrXFXoWKpOnm7y8/myTykt3XzBFZ/pJ7L05drUyCL1PU4+l9tgOPLl7Yqn
GKuxV2KvnX/nDb/jlecv+2qv/EGxV9FYq7FXhE35D+b38p6jo4vNP+s3fnVvNEbmSb0xZEKPTY+j
X1vh+zTj/lYq93xV2KvmX/nJaz/Mq680eV9KfU9OOiatr1qvlyz4OJorlQsSyXLBfiRXnP2a7HFU
t8t6X+dV5/zkJ5h9PV9I/wAT6Tpttb6nfNA/1VrWcQTKkKcOQk4kfER44q+rMVfHX5z6Vc+V/wAy
/O+u+bvLs2taT5i0y4tfLmshBNDaXM1sIrdjy+BGiYcd6Mv2kr3Venf84/W35Ma9ofla+0yLT288
6BZILoxJ9XvBKYTBM8qUjM4o5HMhgDShrir3fFXz1rfmGy/Lj/nIPzJ5n816fctovmHTrWLRtVgg
e4VHhiijkt/h+yZHiO3+rXY1xV5/5cutdPlK58hWkbeXG8/6vd6xcLcARDTPLYCCSaQNxEYlETIl
aBlX/KU4q+mfIPmL8t59Nt/L3k3V7C9g0m3SKOzs7iOV0hjAQOyqeRqerdyfHFXl/wDzlTotxajy
p5/Vba8tPKd6HvNJu3VFuEmliYBA+zEmHiygE0NaGhxVjUGqy/nZ+Z/lrzboel/oXyh5ImS51LXL
z045ZZImjuTA3FiOKekAN6KrMxpUDFX0zYajp+o2kd5p9zFeWctfSubd1ljbixVuLoSpowIPvirD
LfyHq8f53XPntprc6RNoA0hYAz/WfXF0k/Irw4cOKdeda9sVZ3irsVdirxP/AJxi0nynp2neZ18u
+YH1+OXUA9272Ulj6MnE/uwJHk5/6wpir2zFXYq7FXYq7FXyv+cHlP8AMm4/OXyjpjecPVk1TUL6
+8u1tYwNLRGEiDr++4ooX4v5ffFVP8pPJ35lah+b3nS7h85cLzRb+yttevjZof0kiM4aIA0EXFbf
iePiDir6sxV4T+cP566Fpll528j69pt9pl1cabd2uh37xM9te/WLMopVgAV/fOVrQrtUkdMVeP8A
5XQaZ5j/ADK/LiTyNpU9teaDZ25846nGhhgdo1pKWptVkqhY7yFqb9Sq+1sVSvzT5k0vyx5d1DX9
Vk9Ow02Fp5jtU8fsoterOxCqO5OKvlrzz5W8y3n5N63+ZWtwyfprzdf2d3qNvGSWttBV/wDR7dR2
WvpOfbjy3BxVPmu/y11D87Py1P5UxWwkt47l9bfS4vSRbIxKIxc0UDnx9QNz+LcA7lcVU/zfv9Jt
P+cjtGm/MqN5PIUdoDpAmR5LL1uHxNJGgYPSc/GKHbhy+HFWG/mpr/lHRfMN7e/k1rf1mTzTaXNp
5i8uWMEslv6ckL8riKihFKhmai7oakfCSMVfQX/ONl75al/KDQbLQ79b36hEU1BRUPDdzO1xNG6n
cUeU8T0I3GKvT8VdirsVdiqC0zRNF0pZV0uwtrBZ25zLbQxwh2/mbgFqfc4qjcVdirsVdirsVQs+
k6VPfwahPZQS39qCLW7eJGmiDAhhHIRyWtd6HFXWmlaXZT3M9nZwW094/qXcsMaRvM+/xSMoBdtz
ucVRWKpf5g0LTdf0S+0bUo/VsdQgltp1GzcJkMbFTvxajGh7Yqt8t+XdL8uaFZaJpcZjsbCJIIFY
8m4oAoLN+01BucVTLFUNqOmabqVq1pqNpDe2jkF7e4jWWMlTUEo4ZTQ4qrvDE8TQuitEylGjIBUq
RQqQdqUxVL9H8seWtFaVtG0mz0xp95zZ28UBc9fj9NV5fTiqI1HStL1O2NrqVnBfWxIJguY0lSo6
Hi4YYqhdF8q+V9C5foTR7HS+Y4v9StobeorWh9JV774qq6Z5e0DSXmk0vTbWwe4p9Ye1gjhMnGpH
MxqvKnI9cVR+KuxV2KuxV2KuxV2KuxV2KuxV2KuxV2KuxV2KuxV2KuxV2KuxV2KuxV2KuxV2KuxV
4l/zjf8Amx5v8/X3m6HzDJBImjy2iWXoRCKgma5D8qE8v7lcVe24q7FXzNq35+fmFa+SPPOsRTWw
vdA8xLpWnkwKVFsZHWjrX4moo3xV9JWEzz2NtNJ9uWJHamwqygnFVfFXiH/OQv56P5Os7PT/ACpq
1j/iT68kOpWsvGZ4IDEzVkjr8HxMhqcVQR/5yL05vztGip5h01PIMdl6kl+SnBrn0q8BcFqfaYfd
TFXvmKvnj82Pz585yecNU/L38vtGivb2ytpf0rf3BPwKsXOZogJIlQRK1Obtu2wXpVVjv/OM/n/8
2Y7bR9Jm0JtX8o6nezR/4gZ5XmgcAtJ6snKUBV4fCrotenLfFX1Tirwvzt+YX5r67+bt7+XP5dzW
OlyaLZJe6jqN+nqczIkbhRVJQF/0iNQAla1NaYqv8hf85CzS/lZ5h8x+cYIodY8rTvY3UcB4pdTk
AQKg+LizueDUqBTlsNgqz38oNQ886r5HstY86NENW1Ot1FawxeiILaQAwxstSSxX4zXcVp1GKsN/
5yD/ADj8yeSrjQvLvlW2hk1/zC5WK7uhWKJeaxIFBKqXZ36seKgbg12VYXqn5tfnl+WPm/QrD8xZ
tM1rSNbahaxULIiBlSQoVSA84zIpoyEN0B7hV9NYq8vufzB8xx/85CWvkZXi/QMujm/dPTHq+sC4
r6nWnwjbFXqGKuxV2KvmD/nC3/jqfmF/xnsP+J3uKvp/FXYqxWb8rPy9msNQ0+XQrZ7LVbkX2oQE
NxmuQSfVff7VWOKsojjSONY4xxRAFVR0AAoBiq7FXxp/zkZq35N6j+ZGjfo9ka/j1aWDz5c+neKU
S2lhgZWDJR6KkorBX7PeoxVLfJsf5Aal+emsW93FE3ke9hitfLVrwvwr3shto1oAPWWrerUy0Xf5
Yq+3cVfM/wDzkX+T1xo82s/mx5W1qXTL5I1/S1kKgSCbhbOY3U7c1Yc0cENuajpirGfyI/NHzX+X
N55b8j+Z9HRPL/mgwXmj36keqqamV9KXkrNG8ZZl5KeLJvXwxV9fYq8f8/fkl5mvvPz+fPInmb/D
mv3lsLPU/UhE0cyKqoGFeQHwRoKFTuoYEHFXz1qWm6T5Zvr7TZZZPMflnyTeLqPmac0jj1TXpyIY
bSv7zjFFxYNy5GgmP7SjFXtXlr8+vzDtPNXlfSvP3la30nTfOIRdEvLSRiweUqIxIheXvLGGU8Sv
IH2xVJf+csNV8u+Yb3R/IOm6XNq/n95Fl057dgn1VJ6ckdmBD+qqVK7BQA5YU3VeaaLqC6B+YWqX
n51ve33mzy3YGfyzaX0nOyuZrWNngjaRQ9RIygxsPhZq8qtsVX1Z+UHn698++R7XzPd6cNLN3LMk
NushlVkhkMfMMVTqysOnbFU+byp5cbzInmZrCI69HB9VTUaH1RDueFa0p8RxVNsVdirsVefflVpP
5q6fca23nu406eGZ4TpA0+OOMqqmX1fV4RQ12aOla98Veg4q7FXYq7FXYq8U/MP8hovMX5qeWfMF
jpOlRaBaStc+Y4jFEkl5K8pkYyxiJhPyp8XqHepxVZ+Wv5BQaF+Y3mzzBrej6TLpV5dCbyxbRxxy
/VEWd3VkjaJVgYLwpw6dMVe3Yq+bP+cgvye8/GLzT5p8ueYbq603WBA+reVxHI5l9P0oU9JY+auV
EakVQMAPtHFVP8p/+cdvNN9qXlXzn581s3Uek2dlLo2iBZA8EcKLJbQTeosfp+iackVTVq1Piq+l
8VSTzsnmqTyrqUPlQwr5gmhMVhLcsUijdyFMpIV941JZRTcgV2xV5ev/ADjpbf8AKjJfIS3SRa7d
smoXeqHkyPqIYOSx+0Y6D0gaVp8VK4qkuh/lB+cPmHzb5PvvzCu9Ng0nyKyPpy6eWaa5kiaNkZ6i
g5G3j5H4dhstSTiqYfm5+R3nTU/zCs/zH/L/AFW3svMVsiLNb3dQpaNDEHjbjKp5RHgyOtKd96Yq
xfzL+R356/mheWZ8/ajo+l2mnq6wSWkIlnJYD+QKSrEbgygDqFxV6l+Rnlr8yPKflpfLHm1NPmst
OHHSb2xkYuYyxJiljMcfStQ/U999yq9LxV2KuxV2KuxV2KuxV2KuxV2KuxV2KuxV2KuxV2KuxV2K
uxV2KuxV2KuxV2KuxV2KpPo3nLyhrd1LZ6Lrmn6ndwKXnt7O6huJEUEKWdI2ZlHI03xVOMVdiqRH
z75GWG+mPmLTBDpciw6nKb23420kjFESdudImZ0ZQGpUgjFU4tLu1vLWG8s5o7m0uY1mt7iFg8ck
bgMjo6kqyspqCOuKquKpdrfmTy7oNvHc65qlnpVvK/pxTX08VsjPQnirSsgJoCaYqpnzZ5WGrw6K
dZsRrNwokt9N+sw/WZEKlwyQ8vUYFAWqB03xVNcVQeraxpmkWMl9qVzFa20SlmkmdIwaAmgLlRXb
xxVin5W/m95X/MnTru+0KO5thZTehLb3qwpMfhVuapFLN8HxUqT1xVm+KpP5h84+U/LcccnmDWLP
SlmqIfrc8cJenXgHILU70xVH6dqem6nZRX2m3cN9ZTjlDdW0iyxOK0qroWVvoOKobRvMvlzXBOdE
1Wz1QWzBLk2VxFcCNzWiv6TNxO3Q4qiNT1bS9Ks3vtUvILCyi/vLq6kSGJf9Z3KqPvxVJ9C/MXyF
r939S0XzFp2o3m5Ftb3MUkpA3JCBuRA8QMVZFiqXv5h0CPWY9DfU7Rdalj9WLS2njF00YBPNYC3q
FaKd6dsVTDFXYq7FXx//AM4d/wDk0/NP/MBL/wBRkeKvsDFXYq+Sbn8nPzLfy1+bVouhym48w6tY
3OjR+pDW4ihvrmWR1+Og4pIp+KnXFX0r+XWm32l/l95Y0y/iMF9Y6TY213ASCUlhtkSRCVJHwspG
xxVkOKvjb/nLrzH59vfMVv5d1TS4rby5DdNJ5evUR1lu2EMay8mMjI3BpqbIuKsZtvNf5wT/AJ7R
63B5cgk896ZB6Q0MRzGGONbP0N4zPz/uZeX971P0Yq+67V5ntonmXhMyKZUHQMR8Q798VfD358ag
dV/Py+07z1fXdl5csnEVr6C8zDbG3DxNCh5D97JQuwBO52NOOKph/wA4uflZpnmbUrbzSuuGz1Xy
7qkcsmlIVLT20apIp+FlkVWkqpJBVgCMVfauKvkP80/8ID/nKC9P5oer/hH6hEdP5+sY+H1NePH0
P3nD6z6v2f2+u2KsQ/Ln8xde8ufldr3lzQTPLqXmvVI9P8tQA/GnqJwupU8HKvDGN/tGo+ycVfWf
5O+RNI8ieSbPy5aSxT38Y9fV5o2DGS7kA9VjTfitOC1H2QO+KvFf+c19M8xyx+XNRVJpfLFsZUvB
EfgjuZGXi0goQC6VVGNabjvuq8h842PkPV/OPlu0/JKy1Aai8cTyqzSl1vOSshUysxVoqEyOD6Y6
g0BOKvv23EwgjE5DTBVErL0LU+Ijp3xV49qnknzTN/zk7pHm6OwdvLtvpL202ock4LKY5wE48ufW
Rf2cVeyYq7FXYq+af+cZvJelaH+YPmC8s/NOl65LPaSI9nYNMZYgblG5P6kca0BHHY9cVfS2KuxV
2KuxV2Kvib/nIA/m5f8A5taTpGsNDJI2pS/4IgU24/cXN4I7Yycehb04wTLvtviqG/Ln/ldWofnr
rF7p7QTebrSRovMshNrwWBJ44LhU5fu6jgF+DfbFX3Fir5P/AOcpPzO8i6suv+TLjSCPNOiy2q6Z
rJjR+SN6cs8Yk2kjoJGHHdWpWvTFXjXkwQw/mR5L/wACz3j6nI1h9d5DiVvWb/S44+NOUHD7XLty
rVd8VforirH/ADnoHkbUNLlvvN2m2N7YaZHJcPPfwxyiGNF5yMGcEqKLvTrir5B1mz1TzD5V83/m
7ZWn6H0iwMWj+TbK2jWFLa0e4WKaSJY+KpRJWUlducj03XFUq0+Dy35V1P8AK3WvIetyXXmfVWT/
ABFaxzCQxzPNCvoPEgDKJDJIhRvtBQe9Sqzj/nKLzfq99+amneSdb1CfR/Iw+pyXbwgkSxzPWa5Z
QP3npbqq7gFa0rirzzz2dH/LjXr1Py082RatoXmLT5rO7hjkEs0UUq8XjmdFVK1PKNlow3BFPtKv
pL/nERrE/lOPS1Fb6/mvp7jUYeZeS3duMUcbhviHKOFWHY12xV7ZirsVdirsVYr5U/K3yD5S1K51
Py7pEen314hiuZ0eVy6M4cikjuPtKDsMVZVirsVdirsVdirHta/L7ydrfmHTvMeqaZHda1pPA6de
M0gaIxuZEoqsENHNdxirtC/L3yboOu6lr+kaZHa6xrDO+pXitIzStLIZXJDsyjk55fCBirIcVYJ+
bP5Q+XvzF0J7G7WGz1Osf1fWhbxzXMSI4dkRiUbi4FCOWKon8uvyp8oeRtKtLfTLC2OqQwLBdayI
ES5uCAAzM/xMORFSvKmKsyxVLvMXl3RvMej3Gjazb/W9MugouLYu6BwrBwCY2RqclHfFVOy8q+XL
Hy4nlq20+FNBSE2w04ryhMLV5IytXlyqeVevfFWM+WPyL/KjyxrS63onl6K21OMsYrhpbif0y1am
NJpJEQ79VAxVOfOH5d+SfOVvHB5m0iDUlhqIZJAyyxg9Qk0ZSRQe4DYqx7Q/+ce/ya0S6+tWPle2
aahWt0894oBFDRLqSZR160xVNvKn5T/l95S1KXUvLekLpl5MhjmeGWfi6E14tG0jIRXcfDt2xVlu
KuxV2KuxV2KuxV2KuxV2KuxV2KuxV2KuxV2KuxV2KuxV2KuxV2KuxV2KuxV2KuxV4F+UP/OSWt+e
vzEbyrd6NbWduI7mT6zFJIz1g6Cjbb4q99xV2KvnaT/nKDXkt/zAl/QlqT5OkjS2HqSfvw+orZfv
PD4X5bd8Vev/AJW+cbnzn5B0jzNc26Wk+pRu728RLIpSV49i2/7FcVZViryL8+fz1b8trbTRplva
6pf3k0kdzaySkNCsaKwLBCWBPMUriqRRf85KXb/mnpHk36np/wCj72G0e+1T6yeMTz2i3MoBNE+A
txFTX6cVe9AhgCDUHcEdCMVeL/m9/wA5PeWvy/1l9AtdOk1vW4AjXcKyi3gh9RQyq0pWUl+LBuIT
6cVeV/kx/wA5ReY5fOkmnebmu9XttduYbXSYYFgrayzTFFWnGIup9RVJ5V26HFX15irw382v+cid
Y8ted18jeT/L51/zAkaSXKn1Hozxev6UcMI5uRDRy3LYYqmf5Yf85F6B5t8j655k1e3/AEPL5aRZ
NWhD+ohSRWMTRMQpJlaNlVOvLbeoxVNvyP8AzJ80fmHoN35g1XSIdJ0tpjDpQjd5JJglfVdiwUcV
NFBHUhulMVQX55fn3pv5YxWdpHYnVNc1BGlgtS/pRRxKePqSvRm3bZVA3odxiry+w/5zE806Zqlt
H5z8nmx067pLHJD60Ewt2PwyxpcDjMPkVBxV9P2F7a39jb31pIJbW7iSe3lHRo5FDIwr4qcVeZ+Y
Pzh1LS/zx0T8uY9PhkstVt1nkv2dxKhZJmoFHw/7pH34q9TxV2KuxV8Qf84sf+T5f/jBf4q+38Vd
iryR/wDnGXyG0XmqI3+qcfN7q+pH1besZS7W9Hof6P8AD+8Wnxcvh998VZ/5J8oab5O8rWHlrTJZ
prHTkZIJLlkaUh5GkPMosandz0UYqnmKvhH/AJyhsvKJ/Mu5v9E1pdQ1C/nlj1u1pRbKe29O3EZN
PFGr8sVYxpfk38vrz805fLkvmUw+Ug8iQeYCq1k4xVSi9Pjl+HFX6I2sAt7aKAHkIkVAx6kKKVxV
8Z/85Lfl75o8l/mEfzKsZYpNM1DUIZbSZwkjwXyx+oI5IZAVdT6DMpoRTY+6rGPyN/Mfy35b8+TX
XnHRkvV1i6t7iLUCi+pYXHqNIlzGjDlxPrVPFgePTl0xV974q+dfzX/Jv80Y/wA3E/Mz8upbefUZ
kUSwTtGjQyLa/UyQJv3bo8I8ag9sVfPWreXtW8qTXvkbVL9Y3uJLfUPOL2pEwgitgzQwepVVkkHr
livLi0jRrXkMVe9+Qf8AnK3yJZHR/LX+G7rQfLahbLT9QeRZUREPBXkUIvf+8ZWYg+OKpb/zmrZ+
TZE0e8k1H0vN8KGOHTUXn6tkzkl5CP7rg/LgT9rcUNKqq8L1Hzhq/n3UbFPPmum3stAsTFB+5rO6
QgVhiVQqtcTUHxSso23PQFV9sfkf+YXlvzn5NVvLmn3WnaVobR6TBDd8C3G3gj4gFGcGiMoxVF6r
+UXlvU/zL038w57m8XWtLiEFvbxvELVlVZFq6GJpCf3x6SDtirN8VdirsVeBflDpX5m2/wCYjTa/
+X+h+X9J9O5A1fT7G0t7nkfsL6sUjvR/2tt8Ve+4q7FXYq7FXYq+UPzh/wCccdV1L827K78t6Nc3
GgaxOl55jv8A6xFRJ7u9ka64CQqyhIiGFAeuKoT8vf8AnF+8m/NPWE8yaNd2Xku1e6k0Sczx85PT
ulForGN3aphJY1HbFX11ir40/wCcs/JHnvTdbvvNN5qKz+UtavrZLexjlkAiuYrRo4vUt2+DkIop
KOpPU9K4qhfy/wD+cd/zO893/l/XPNsiW3lhLSy+qzyyxSyyaZFEpt4YIYS/ENHQfvOJFSSCdiq+
1cVSfzjqWuab5Y1G80HT21XWo4T+j7BSq+pO3wpyLsg4KTybfoDTfFXz35Z/5xx8zXn5SebH134P
zD81OLhjcOrFBb3K3KxO6ErW4kQs5rTdf5cVefwfk5+eHm208qeSNX8vDSNH8tPdxrqsnBQsV5OJ
Z3dldllKlaJ6Y3792xVnH/OSX5E+f9c88jzp5Vtl1WKSGAXFmGjE0UtuOIKxykLIjKqmgqa12pir
B/NX5X/n9+aHmKK/1fylbaXfpCIp78KlmkqoPgM3KRy7CnEFVrTboBRV7B/zjRYfmZ5P05/KHmfy
jJY6Y0slxbaxE8DUlfd1uVWVmYHiAjqNtgRTcKvfMVdirsVdirsVdirsVdirsVdirsVdirsVU57e
3nQJPEkqA1CuoYV6VocVXoiIioihUUAKoFAANgABireKuxV2KuxV2KuxV2KuxV2KuxV2Kv8A/9k=
									</xapGImg:image>
							</rdf:li>
						</rdf:Alt>
					</xap:Thumbnails>
				</rdf:Description>
				<rdf:Description  rdf:about="" xmlns:dc="http://purl.org/dc/elements/1.1/">
					<dc:format>image/svg+xml</dc:format>
				</rdf:Description>
			</rdf:RDF>
		</x:xmpmeta>
<?xpacket begin='﻿' id='W5M0MpCehiHzreSzNTczkc9d'?><x:xmpmeta xmlns:x='adobe:ns:meta/' x:xmptk='XMP toolkit 3.0-29, framework 1.6'>
<rdf:RDF xmlns:rdf='http://www.w3.org/1999/02/22-rdf-syntax-ns#' xmlns:iX='http://ns.adobe.com/iX/1.0/'>

 <rdf:Description rdf:about='uuid:94a11fec-3c86-11db-8900-001124808cba'
  xmlns:pdf='http://ns.adobe.com/pdf/1.3/'>
  <pdf:Producer>Adobe PDF library 6.66</pdf:Producer>
 </rdf:Description>

 <rdf:Description rdf:about='uuid:94a11fec-3c86-11db-8900-001124808cba'
  xmlns:tiff='http://ns.adobe.com/tiff/1.0/'>
 </rdf:Description>

 <rdf:Description rdf:about='uuid:94a11fec-3c86-11db-8900-001124808cba'
  xmlns:xap='http://ns.adobe.com/xap/1.0/'
  xmlns:xapGImg='http://ns.adobe.com/xap/1.0/g/img/'>
  <xap:CreateDate>2006-01-17T13:21:15+09:00</xap:CreateDate>
  <xap:ModifyDate>2006-09-05T02:31:28Z</xap:ModifyDate>
  <xap:CreatorTool>Illustrator</xap:CreatorTool>
  <xap:MetadataDate>2006-08-01T16:20:10+09:00</xap:MetadataDate>
  <xap:Thumbnails>
   <rdf:Alt>
    <rdf:li rdf:parseType='Resource'>
     <xapGImg:format>JPEG</xapGImg:format>
     <xapGImg:width>24</xapGImg:width>
     <xapGImg:height>256</xapGImg:height>
     <xapGImg:image>/9j/4AAQSkZJRgABAgEASABIAAD/7QAsUGhvdG9zaG9wIDMuMAA4QklNA+0AAAAAABAASAAAAAEA&#xA;AQBIAAAAAQAB/+4ADkFkb2JlAGTAAAAAAf/bAIQABgQEBAUEBgUFBgkGBQYJCwgGBggLDAoKCwoK&#xA;DBAMDAwMDAwQDA4PEA8ODBMTFBQTExwbGxscHx8fHx8fHx8fHwEHBwcNDA0YEBAYGhURFRofHx8f&#xA;Hx8fHx8fHx8fHx8fHx8fHx8fHx8fHx8fHx8fHx8fHx8fHx8fHx8fHx8fHx8f/8AAEQgBAAAYAwER&#xA;AAIRAQMRAf/EAaIAAAAHAQEBAQEAAAAAAAAAAAQFAwIGAQAHCAkKCwEAAgIDAQEBAQEAAAAAAAAA&#xA;AQACAwQFBgcICQoLEAACAQMDAgQCBgcDBAIGAnMBAgMRBAAFIRIxQVEGE2EicYEUMpGhBxWxQiPB&#xA;UtHhMxZi8CRygvElQzRTkqKyY3PCNUQnk6OzNhdUZHTD0uIIJoMJChgZhJRFRqS0VtNVKBry4/PE&#xA;1OT0ZXWFlaW1xdXl9WZ2hpamtsbW5vY3R1dnd4eXp7fH1+f3OEhYaHiImKi4yNjo+Ck5SVlpeYmZ&#xA;qbnJ2en5KjpKWmp6ipqqusra6voRAAICAQIDBQUEBQYECAMDbQEAAhEDBCESMUEFURNhIgZxgZEy&#xA;obHwFMHR4SNCFVJicvEzJDRDghaSUyWiY7LCB3PSNeJEgxdUkwgJChgZJjZFGidkdFU38qOzwygp&#xA;0+PzhJSktMTU5PRldYWVpbXF1eX1RlZmdoaWprbG1ub2R1dnd4eXp7fH1+f3OEhYaHiImKi4yNjo&#xA;+DlJWWl5iZmpucnZ6fkqOkpaanqKmqq6ytrq+v/aAAwDAQACEQMRAD8A9KaVpWlnS7MmzgJMEdT6&#xA;afyD2xVFfonSv+WKD/kUn9MVd+idK/5YoP8AkUn9MVa0x0TSLR3YKi28ZZiaAAIKknFUhm/MTSoL&#xA;JtUmsb+PQFXn+m2gH1bh/vzjy+sCI9fVMQjp8XLjvirI7G8hvbK3vICTBcxpNESKHhIoZaj5HFUm&#xA;1XTZNU8hXmmRyrBJfaVJbJO5oqGa3KB2PYLyriqSx+fbfXPKam00TUm1DUrPjBpslhdJCXnjoqtd&#xA;tELURfFXn6lOPvtirLtHsW0/SLGwZxI1pbxQM4FAxjQJUD3piqVarcapb+R3n0tWe+jskMQjj9aQ&#xA;DgvNo4qH1HVKsiUPJqChxVh+n235N6bpottN8ztaUBKRWutXKTCQktRbOOcLz5dIRDT9nhT4cVZ3&#xA;5Tm1Wfy3p0urBxqDwqZ/VQRyn+VpY1oEkZaF1H2WqMVUNKn8x/ouzpY2ZHoR0JvJR+wP+XbFUV9Y&#xA;8y/8sFn/ANJkv/ZLirvrHmX/AJYLP/pMl/7JcVRGk/8AHKsv+MEX/EBiqLxV2KpBqmuLoHkK711o&#xA;jOuk6VJfNCDQuLa3MvGvblwpirC7zTvzatvJc/mYebxJriWT376P9SsxpgIiMv1eNuH1kceiytMd&#xA;6FlI+HFWafl/qWo6p5D8t6nqUhl1G+0qyub2UqqFp5rdHkbgoVVq7HYAAYq1qzaevkK7Oovbx2B0&#xA;t1unvCVtxG0BDesVoeFD8VN6Yq8N8uXPmqf8vbTRfMsnm5PLotVt9RaHSoGeS1CcXVLkFrz6u69K&#xA;wCXht74q+gvL95ot5oVhc6HJHLo8tvGdPeD+79AKAgXwAXanbFUq1zyvaeavIUvl+7leCHULOOP1&#xA;46c43Cq6OAdjxdQaHriqVtZfnQ1t9S/Sego5XgdYW1ujL4eoLQy+lzp8X97xr2piqf8Ak3ytZeVP&#xA;LGneXrKR5bfT4vTE0tObszF3dqUFWdidsVWaV5fsDpdmTLebwRna+vB+wPCXFUV/h6w/37ef9J15&#xA;/wBVcVd/h6w/37ef9J15/wBVcVRGlEDSbMnYCCOp/wBgMVYzH+cP5Wy6lLpsfmnTWvIefOMXCU/d&#xA;irAPXgxA7A4qyjTtRsdSsYL+wnS6srpFlt7iJgySIwqrKw2IIxVi3nqHUJ/yi1yLT5BDevoc4hkL&#xA;iKh+qn/dhoE2/aJFPEYq8Tbzr+SOof8AOPSeXbGO1m16XSltLTRYrcvfnWDDxSRUVebN9Y+P1BsR&#xA;37Yq93/LHRr3RPy68taTfp6d9Zabaw3UR6pKsS80NK/ZbbFUs/MjWZtG/J3WNRhsI9UaHSuLWMys&#xA;8UiSoscnqqtCUVHLOKjYHcYq8r0TylYeXPIMGqaT+cckElpZepZymWzmsk4pyWFIJxJL6YPwiPlX&#xA;2rtir2D8pPM2t+aPy40LX9ctxbapf25kuI1XgrUdkSULvQSoqyD/AFsVTDTNTvTpNojaLduhgjB+&#xA;KzII4AdDcYqx9fy9/L9b768Py5tRd8ufq/VdL+115U9anKvelcVZUNVvlAA0S8AGwAezoB/0kYqi&#xA;dJ/45Vl/xgi/4gMVReKuxVjur+ZbLyx5En8wXys9rpeni5kjT7T8IwQi17saKMVeOj85vz5j8kT/&#xA;AJgTeU9Ibys8DXFpbJPN9djhYUiuJfiZZIwSGYKqsV/l64q9e/LTzTeea/Iei+YryKOC61O3E8sM&#xA;PL01Ykii8ixpt3OKoD8wLEX/AOT+uWhhS4MuiTBIpJFhUuLclCZGIVeLAGp28cVfJ3lv81NR1P8A&#xA;Lu28g6x53sdG0KaMWlw8um3c17FbAj9yHhUwslBQGvKnUjFX2R5DsPL+n+TNGsfLtyl5oltaRRWN&#xA;2jK4ljRaepyXYsxqWp3xVJ/Pvky486/lVeeWLa7+o3Go2cCw3JrxDxNHKqvx34OY+LU/ZJxV53+j&#xA;fz8/wN/gNPJmgR2rWn6NOqC7X6n6Zj4GX6px58v2un2t+OKvSvyl8iy+RPy/0ryxPdC8uLJZGnnW&#xA;oQyTytM6xht+CtJQePWgriqZ6VpV+dLsyNZvADBHsEs9vgHjb4qiv0Tf/wDV6vP+As/+yfFXfom/&#xA;/wCr1ef8BZ/9k+KojSf+OVZf8YIv+IDFVy6nprTTQLdwma3HK4iEilox4utar9OKq0UsUqCSJ1kj&#xA;b7LqQQfkRirAfzWvtcsPyT1q70NpE1KLS1MckVRIiFVEzoRQgpEWYEdKVxV8v/4W/JuL/nHw+ZId&#xA;YCfmDIrCQJeEXTSyTGKS1a05/wB2YWNTwqR8VabYq+m/+cd7W5tfyW8qxXEbRSG1eQI4oeEs0kkb&#xA;b9mRgw9sVUfzn1rTNI/I3V7jUoZri1n0+K0MNu4ikL3PGFPjIYKAzgtsdux6Yq+fND/KbzzoH5Xw&#xA;+fFuPKtzZW1mNUitr2xtrmUw8PU9NrhoPjm/ZC8j8WwbFX0r+Svn+78+/l7p/mK8tEsryVpYLiKE&#xA;MIS8DlOUXIk8WA6VNDUVNMVTI3Pl3V/LKaVqtjcXlhdWqRXNtLYXbxupQbH919II+YxV53/0L1+Q&#xA;frep/h7UfT58/q/HWPSr8qV/HFXp2lXfl3SNOt9N0ywuLOwtUEdvaw6fdpGijsFEOKpnpP8AxyrL&#xA;/jBF/wAQGKovFXYqx7VfM+keVvJD+YNXkMWnadZxyzso5MfhVVRBtVnYhV36nFXjMf8Azl4h0efX&#xA;ZPI2qpoIZ4bXVeYNu84+zE8np8ELezNQ4q9a/K38wIfP3ky08zw2TafHdPNGLV5BKV9GRo68wqde&#xA;NemKsc/PGwhvvyC12CVZnUadBMq26c35wSRTJVaj4A6Dmey1OKvl3QfP3mfWfydi/K6OTQ7LSpJa&#xA;/pK+vorWZYvrn1rg6SON/W35U+x274q+vPyZ8mR+Tfy20bQkvItQaKN55b23PKGR7iRpiYm7oOfF&#xA;T3AriqVfnB5a83eZPyeuNI8qSlNVngt6wrIImnhXiZYRISoHNfEgHodjir57fyxcN+XQ8ox/kpqC&#xA;+bfQWFvMLRycfXDUNyLjh3O/p8+I/wBXFX0J/wA48+SPMvkz8s7PRvMTcdQM01x9UDiQWySkEQ8l&#xA;JWtQWPE0qxxVl2lQeY/0XZ0vrMD0I6A2cp/YH/LziqK+r+Zf+W+z/wCkOX/sqxV31fzL/wAt9n/0&#xA;hy/9lWKojSf+OVZf8YIv+IDFUXirsVeZfnN5u1zyl+S17rWht6WpRW9pDDcceXpCd44mkAIIqof4&#xA;a98VfM1pP+Ylt+Tlz+ZcP5j6it7c3p06XSTdTOxDNxP7xpSVmp+8HFahNwcVfRX/ADi5rWuaz+U1&#xA;tf61fXWpXj3l0v1q8lknlZFcADnIWYgbjrirf/OQGq2Nh+QupJd3j2TX9rbWls8UYmZ5XKP6XEsg&#xA;AkSNlZq/CtSKkAFV8maX+Xnm7TfJ8HnXU/JEOpeVVUSvfT3M0TyRSPxRjHBdRyhORFGEXT78VfY3&#xA;5Aed9A83flxa3OiaSuh22myvp8umRHlFFLGqyt6bUBZXWZXqRWpNancqpn5l8teSfO/kmHy/5gmi&#xA;lspYoZAY51jljlRBxkjauzLU9RTsRTFXljf84u+U3sxpMn5gau/l1WDLpBuofSFDy2UgxV5b19PF&#xA;XrvkXy15G8j+XotB8vywwWUbNK7POrySyuAGlkcndm4j2psABir/AP/Z</xapGImg:image>
    </rdf:li>
   </rdf:Alt>
  </xap:Thumbnails>
 </rdf:Description>

 <rdf:Description rdf:about='uuid:94a11fec-3c86-11db-8900-001124808cba'
  xmlns:xapMM='http://ns.adobe.com/xap/1.0/mm/'>
  <xapMM:DocumentID>uuid:831aaf18-81ce-11da-9137-001124808cba</xapMM:DocumentID>
 </rdf:Description>

 <rdf:Description rdf:about='uuid:94a11fec-3c86-11db-8900-001124808cba'
  xmlns:dc='http://purl.org/dc/elements/1.1/'>
  <dc:format>image/svg+xml</dc:format>
 </rdf:Description>

</rdf:RDF>
</x:xmpmeta>
                                                                                                                                                                                                                                                                                                                                                                                                                                                                                                                                                                                                                                                                                                                                                                                                                                                                                                                                                                                                                                                                                                                                                                                                                                                                                                                                                                                                                                                                                                                                                                                                                                                                                                                                                                                                                                                                                                                                                                                                                                                                                                                                <?xpacket end='w'?>
			</metadata>
		<g id="レイヤー1">
			<g>
				<rect x="0.125" y="0.125" fill="none" stroke="#000000" stroke-width="0.25" width="100" height="150"/> 
				<rect x="0.125" y="150.125" fill="none" stroke="#000000" stroke-width="0.25" width="100" height="150"/> 
				<rect x="0.125" y="300.125" fill="none" stroke="#000000" stroke-width="0.25" width="100" height="150"/> 
				<rect x="0.125" y="450.125" fill="none" stroke="#000000" stroke-width="0.25" width="100" height="150"/> 
				<rect x="0.125" y="600.125" fill="none" stroke="#000000" stroke-width="0.25" width="100" height="150"/> 
				<rect x="0.125" y="750.125" fill="none" stroke="#000000" stroke-width="0.25" width="100" height="150"/> 
				<rect x="0.125" y="900.125" fill="none" stroke="#000000" stroke-width="0.25" width="100" height="150"/> 
			</g>
			<g>
				<g>
					<path d="M49.625,1008.4248047c-8.1689453,0-12,2.9111328-12,6.7001953c0,3.9101562,3.7822266,6.5,11,6.5v9.5
						c-17.8203125,0-27-6.0625-27-15c0-4.9912109,4.8017578-10.5888672,11-12.4003906v-0.2001953
						c-5.0410156-2.0869141-8-4.3935547-8-7.3994141c0-3.6855469,7.5791016-12.7421875,13.1503906-15l11,8
						c-7.6425781,4.6289062-8.1503906,5.1689453-8.1503906,6c0,1.2070312,3.0761719,2.5,9,2.5c20.1220703,0,28,6.3076172,28,17
						c0,9.8369141-9.6953125,16.5-29,16.5v-9.5c7.4189453,0,11-2.7255859,11-7
						C59.625,1010.9121094,56.3632812,1008.4248047,49.625,1008.4248047z"/>
				</g>
				<g>
					<path d="M49.4580078,857.9248047c-8.652832-0.0039062-12.9331055,3.2412109-12.9331055,7.3671875
						c0,4.2685547,4.0795898,7.0996094,12.2661133,7.0996094V881.125c-17.1181641,0-26-6.0322266-26-15
						c0-5.0146484,4.6025391-10.6396484,10.6669922-12.5673828v-0.2001953
						c-4.8608398-2.1650391-7.6669922-4.7480469-7.6669922-7.5664062c0-3.46875,5.8427734-10.6445312,11.7670898-13.6660156
						l9.8334961,6.6660156c-6.7480469,4.0253906-7.7666016,5.1601562-7.7666016,6.1669922
						c0,1.4990234,3.6484375,3.1669922,9.8330078,3.1669922c19.168457,0,27,6.2958984,27,16.6660156
						c0,9.6533203-9.3867188,16.3339844-27.6669922,16.3339844v-8.7333984c8.1425781,0,12.2670898-3.0302734,12.2670898-7.6005859
						C61.0581055,860.6630859,57.3798828,857.9287109,49.4580078,857.9248047z"/>
				</g>
				<g>
					<path d="M49.2919922,707.4248047c-9.1367188-0.0068359-13.8666992,3.5722656-13.8666992,8.0332031
						c0,4.6289062,4.3764648,7.7001953,13.5332031,7.7001953V731.125c-16.4165039,0-25-6.0029297-25-15
						c0-5.0371094,4.4033203-10.6904297,10.3330078-12.7333984v-0.2001953
						c-4.6801758-2.2431641-7.3330078-5.1035156-7.3330078-7.7333984c0-3.2519531,4.1064453-8.546875,10.3833008-12.3330078
						l8.6669922,5.3330078c-5.8540039,3.421875-7.3837891,5.1513672-7.3837891,6.3339844
						c0,1.7910156,4.2216797,3.8330078,10.6669922,3.8330078c18.2143555,0,25.9995117,6.2851562,25.9995117,16.3330078
						c0,9.46875-9.0776367,16.1669922-26.3330078,16.1669922v-7.9667969c8.8657227,0,13.5332031-3.3339844,13.5332031-8.2001953
						C62.4916992,710.4140625,58.3974609,707.4326172,49.2919922,707.4248047z"/>
				</g>
				<path d="M49.125,556.9248047c-9.6201172-0.0107422-14.7998047,3.9023438-14.7998047,8.7001953
					c0,4.9882812,4.6738281,8.2998047,14.7998047,8.2998047V581.125c-15.7148438,0-24-5.9726562-24-15
					c0-5.0595703,4.2041016-10.7412109,10-12.8994141v-0.2001953c-4.5-2.3222656-7-5.4589844-7-7.9003906
					c0-3.0351562,2.3701172-6.4501953,9-11l7.5,4c-4.9589844,2.8173828-7,5.1425781-7,6.5c0,2.0830078,4.7939453,4.5,11.5,4.5
					c17.2607422,0,25,6.2734375,25,16c0,9.2841797-8.7695312,16-25,16v-7.2001953
					c9.5888672,0,14.7998047-3.6386719,14.7998047-8.7998047C63.9248047,560.1650391,59.4140625,556.9365234,49.125,556.9248047z"/>
				<path d="M25.7915039,416.2915039c0-5.1450195,4.3134766-10.7524414,11.0131836-12.9145508v-0.199707
					c-4.7524414-2.0620117-7.3466797-5.1259766-7.3466797-7.7192383c0-2.8129883,2.0600586-5.831543,7.4672852-9.6005859
					l5.3984375,3.2011719c-4.1015625,2.4711914-5.8657227,4.6044922-5.8657227,6.065918
					c0,2.4306641,4.9799805,5.1665039,12.3334961,5.1665039c16.3793945,0,24.3330078,5.8837891,24.3330078,15.3339844
					c0,9.2158203-8.7124023,15.4995117-24.3330078,15.4995117v-5.4667969c10.7753906,0,16.8666992-3.9833984,16.8666992-10.0327148
					c0-5.8486328-5.559082-9.4589844-16.8666992-9.4667969c-10.5273438-0.0073242-16.2001953,4.6621094-16.2001953,9.7998047
					c0,5.8955078,5.5429688,9.699707,16.2001953,9.699707v5.4667969
					C34.0625,431.1245117,25.7915039,425.2456055,25.7915039,416.2915039z"/>
				<path d="M26.4584961,266.4584961c0-5.2299805,4.4228516-10.7636719,12.0268555-12.9291992v-0.2001953
					c-5.0053711-1.8012695-7.6938477-4.7924805-7.6938477-7.5375977c0-2.5908203,1.75-5.2124023,5.9350586-8.2011719
					l3.296875,2.402832c-3.2446289,2.125-4.7314453,4.065918-4.7314453,5.6318359
					c0,2.7783203,5.1660156,5.8334961,13.1665039,5.8334961c15.4980469,0,23.6665039,5.4926758,23.6665039,14.6665039
					c0,9.1479492-8.6552734,15-23.6665039,15v-3.7333984c11.9624023,0,18.9331055-4.328125,18.9331055-11.2666016
					c0-6.7373047-6.6064453-10.7294922-18.9331055-10.7333984c-11.434082-0.003418-17.6000977,5.4228516-17.6000977,10.8999023
					c0,6.8032227,6.4116211,11.1000977,17.6000977,11.1000977V281.125
					C34.715332,281.125,26.4584961,275.3398438,26.4584961,266.4584961z"/>
				<path d="M40.1655273,103.6811523C31.6572266,105.8500977,27.125,111.3100586,27.125,116.625c0,8.8085938,8.2431641,14.5,21,14.5
					v-2c-11.7197266,0-19-4.7895508-19-12.5c0-5.8173828,6.6591797-12,19-12c13.3457031,0,21,4.3740234,21,12
					c0,7.8271484-7.8505859,12.5-21,12.5v2c14.4018555,0,23-5.4204102,23-14.5c0-8.8974609-8.3833008-14-23-14
					c-8.6474609,0-14-3.3740234-14-6.5c0-1.6699219,1.2104492-3.4189453,3.5976562-5.1982422l-1.1953125-1.6035156
					C33.5649414,91.53125,32.125,93.7563477,32.125,96.125c0,2.8969727,2.7827148,5.8149414,8.0405273,7.355957V103.6811523z"/>
			</g>
			<g>
				<path d="M57.125,975.625c0,6.5068359-2.9677734,9.5341797-7.5800781,9.5341797
					c-5.1650391,0-7.9199219-2.6425781-7.9199219-9.5341797l-18-1c0,12.1552734,9.5166016,19.5,26,19.5
					c18.2763672,0,26-5.9658203,26-19v-19h-16l-0.2001953,6h-0.2001953c-3.4580078-4.5-8.7041016-7-14.5996094-7
					c-12.7705078,0-21,7.8691406-21,19.5l18,1c0-6.3779297,2.8310547-9.5,8-9.5
					C54.1337891,966.125,57.125,969.2988281,57.125,975.625z"/>
				<path d="M45.1245117,805.125c-12.3095703,0-20.3330078,7.921875-20.3330078,19.6669922l15.2666016,0.6660156
					c0-6.6601562,3.4477539-10.3330078,9.3334961-10.3330078c5.3388672,0,9,3.8066406,9,10.3330078
					c0,7.0029297-3.546875,10.4892578-9.0537109,10.4892578c-5.8837891,0-9.2797852-3.2578125-9.2797852-10.4892578
					l-15.2666016-0.6660156c0,12.0625,9.1533203,19.3330078,24.6000977,19.3330078
					c17.1577148,0,24.7329102-6.171875,24.7329102-19.3339844V806.125H60.2915039l-0.2001953,6.1660156H59.890625
					C56.4829102,807.6630859,51.2773438,805.125,45.1245117,805.125z"/>
				<path d="M45.625,655.125c-11.8486328,0-19.6665039,7.9736328-19.6665039,19.8330078l12.5332031,0.3339844
					c0-6.9423828,4.0654297-11.1669922,10.6665039-11.1669922c6.1699219,0,10.5,4.4404297,10.5,11.1669922
					c0,7.4990234-4.1259766,11.4443359-10.5268555,11.4443359c-6.6015625,0-10.6396484-3.8740234-10.6396484-11.4443359
					l-12.5332031-0.3339844c0,11.9707031,8.7905273,19.1669922,23.199707,19.1669922
					c16.0400391,0,23.4667969-6.3769531,23.4667969-19.6669922V656.125H60.9584961l-0.2001953,6.3330078h-0.2001953
					C57.199707,657.7021484,52.034668,655.125,45.625,655.125z"/>
				<path d="M71.125,506.125h-9.5l-0.2001953,6.5h-0.2001953c-3.3085938-4.8837891-8.4326172-7.5-15.0996094-7.5
					c-11.3876953,0-19,8.0263672-19,20h9.7998047c0-7.2246094,4.6826172-12,12-12c7,0,12,5.0732422,12,12
					c0,7.9951172-4.7050781,12.4003906-12,12.4003906c-7.3203125,0-12-4.4902344-12-12.4003906H27.125
					c0,11.8779297,8.4277344,19,21.7998047,19c14.921875,0,22.2001953-6.5830078,22.2001953-20V506.125z"/>
			</g>
			<path d="M46.9580078,355.125c-11.3798828,0-18.9995117,7.9628906-18.9995117,19.8330078h7.199707
				c0-8.359375,5.3457031-13.8330078,13.6669922-13.8330078c8.0029297,0,13.6665039,5.78125,13.6665039,13.8330078
				c0,9.0917969-5.1494141,14.1005859-13.6665039,14.1005859c-8.3232422,0-13.6669922-5.2832031-13.6669922-14.1005859h-7.199707
				c0,11.8676758,8.1040039,19.1669922,20.8666992,19.1669922c13.9726562,0,21.1328125-6.7578125,21.1328125-19.8330078V356.125
				h-6.9995117l-0.1333008,6.9125977H62.625C59.2197266,357.7978516,54.0136719,355.125,46.9580078,355.125z"/>
			<path d="M47.7915039,205.125c-11.3720703,0-18.9995117,7.8999023-18.9995117,19.6665039h4.5996094
				c0-9.4951172,6.0092773-15.6665039,15.3334961-15.6665039c9.0058594,0,15.3334961,6.4887695,15.3334961,15.6665039
				c0,10.1884766-5.59375,15.800293-15.3334961,15.800293c-9.3251953,0-15.3334961-6.0761719-15.3334961-15.800293h-4.5996094
				c0,11.8569336,7.7807617,19.3334961,19.9331055,19.3334961c13.0234375,0,20.0664062-6.9326172,20.0664062-19.6665039V206.125
				h-4.4995117l-0.0668945,7.3251953h-0.2001953C60.5229492,207.8544922,55.2358398,205.125,47.7915039,205.125z"/>
			<path d="M65.4248047,65.362793C62.4238281,59.0649414,56.4575195,55.125,48.625,55.125c-11.3642578,0-19,7.8364258-19,19.5h2
				c0-10.6308594,6.6728516-17.5,17-17.5c10.0092773,0,17,7.1962891,17,17.5c0,11.2851562-6.0375977,17.5-17,17.5
				c-10.3271484,0-17-6.8691406-17-17.5h-2c0,11.8457031,7.4580078,19.5,19,19.5c12.074707,0,19-7.1074219,19-19.5v-18.5h-2
				v9.237793H65.4248047z"/>
		</g>
	</svg>
