<?xml version="1.0" encoding="utf-8"?>
<!-- Generator: Adobe Illustrator 11 Build 225, SVG Export Plug-In . SVG Version: 6.0.0 Build 78)  -->
<!DOCTYPE svg PUBLIC "-//W3C//DTD SVG 1.0//EN"    "http://www.w3.org/TR/2001/REC-SVG-20010904/DTD/svg10.dtd" [
	<!ENTITY ns_flows "http://ns.adobe.com/Flows/1.0/">
	<!ENTITY ns_svg "http://www.w3.org/2000/svg">
	<!ENTITY ns_xlink "http://www.w3.org/1999/xlink">
]>
<svg  xmlns="&ns_svg;" xmlns:xlink="&ns_xlink;" xmlns:a="http://ns.adobe.com/AdobeSVGViewerExtensions/3.0/"
	 width="100.25" height="1050.25" viewBox="0 0 100.25 1050.25" overflow="visible" enable-background="new 0 0 100.25 1050.25"
	 xml:space="preserve">
	<metadata>
		<x:xmpmeta  x:xmptk="XMP toolkit 3.0-29, framework 1.6" xmlns:x="adobe:ns:meta/">
			<rdf:RDF  xmlns:iX="http://ns.adobe.com/iX/1.0/" xmlns:rdf="http://www.w3.org/1999/02/22-rdf-syntax-ns#">
				<rdf:Description  rdf:about="" xmlns:pdf="http://ns.adobe.com/pdf/1.3/"></rdf:Description>
				<rdf:Description  rdf:about="" xmlns:tiff="http://ns.adobe.com/tiff/1.0/"></rdf:Description>
				<rdf:Description  rdf:about="" xmlns:xapGImg="http://ns.adobe.com/xap/1.0/g/img/" xmlns:xap="http://ns.adobe.com/xap/1.0/">
					<xap:CreateDate>2005-10-18T08:31:30Z</xap:CreateDate>
					<xap:ModifyDate>2005-10-18T08:31:30Z</xap:ModifyDate>
					<xap:CreatorTool>Illustrator</xap:CreatorTool>
					<xap:Thumbnails>
						<rdf:Alt>
							<rdf:li  rdf:parseType="Resource">
								<xapGImg:format>JPEG</xapGImg:format>
								<xapGImg:width>172</xapGImg:width>
								<xapGImg:height>256</xapGImg:height>
								<xapGImg:image>/9j/4AAQSkZJRgABAgEASABIAAD/7QAsUGhvdG9zaG9wIDMuMAA4QklNA+0AAAAAABAASAAAAAEA
AQBIAAAAAQAB/+4ADkFkb2JlAGTAAAAAAf/bAIQABgQEBAUEBgUFBgkGBQYJCwgGBggLDAoKCwoK
DBAMDAwMDAwQDA4PEA8ODBMTFBQTExwbGxscHx8fHx8fHx8fHwEHBwcNDA0YEBAYGhURFRofHx8f
Hx8fHx8fHx8fHx8fHx8fHx8fHx8fHx8fHx8fHx8fHx8fHx8fHx8fHx8fHx8f/8AAEQgBAACsAwER
AAIRAQMRAf/EAaIAAAAHAQEBAQEAAAAAAAAAAAQFAwIGAQAHCAkKCwEAAgIDAQEBAQEAAAAAAAAA
AQACAwQFBgcICQoLEAACAQMDAgQCBgcDBAIGAnMBAgMRBAAFIRIxQVEGE2EicYEUMpGhBxWxQiPB
UtHhMxZi8CRygvElQzRTkqKyY3PCNUQnk6OzNhdUZHTD0uIIJoMJChgZhJRFRqS0VtNVKBry4/PE
1OT0ZXWFlaW1xdXl9WZ2hpamtsbW5vY3R1dnd4eXp7fH1+f3OEhYaHiImKi4yNjo+Ck5SVlpeYmZ
qbnJ2en5KjpKWmp6ipqqusra6voRAAICAQIDBQUEBQYECAMDbQEAAhEDBCESMUEFURNhIgZxgZEy
obHwFMHR4SNCFVJicvEzJDRDghaSUyWiY7LCB3PSNeJEgxdUkwgJChgZJjZFGidkdFU38qOzwygp
0+PzhJSktMTU5PRldYWVpbXF1eX1RlZmdoaWprbG1ub2R1dnd4eXp7fH1+f3OEhYaHiImKi4yNjo
+DlJWWl5iZmpucnZ6fkqOkpaanqKmqq6ytrq+v/aAAwDAQACEQMRAD8A9U4q7FXYq7FXYq7FXYq7
FXYqhtT1Kx0vTbvU7+UQWNjDJc3c5BISKFC8jkKCfhVSdhiqJxV2KuxV2KuxV2KuxV2KuxV2KuxV
2KsW/Kx3f8uvLruxZmsYSWJqSePjirKcVdirzfyzp2tRXXlUz21yiwXmvtdGRJAESW4mMBkqNg6k
FK9R0xV6RirsVedfmP5ovob/AEXTItC1SZf0zaFbiBbb0rj0Fa6KRFp1ev7mvxKv2T2xVS0PzfqF
z+Y+tyny3q6RtZ6VYlGW0pAUlu5mkkpcmgZbpfs1NF6Yq9KxV4n5/i0vWNG/MyPX72WTW9L0+/fS
NGeeSGKGzSwLw3MNurIk3qPyLSsGofg2pTFXp2ieStJ0PUGu9KmvLeB42jk01rqaazLFgwlEMzSC
NxxpWMrWp5V2oqn2KvPrfyx5b81ec/Nb+ZbGDWJNLubax020vY1mit7V7C3ufUhjkDKryTzSgyqO
R4ha/DiqWadrmpxeU18r6HdSSalf6pqOkaBfuxleHT7S5dJrss1eS2UdYkLV5OIwftYq9J0jS7LS
dLtNLskKWdlCkECkliEjUKOTHdjtuTuTirEvzIt7CbUfLia/H63lGW5kg1SJ/wDeY3MyBbH62vRo
DJySjVT1GTl2xVBeWtN8s2v5jPD5KtIbLSbGxuIPMSaeixaebxpYTaxCOICE3MapMXKjkqkBvtCi
r0XFWN6Tb3qefPMU8kUi2ctnpi28rKwjZ0N16gRj8JK8l5U8RXFWSYq7FXYqxr8tLS6s/IGgWt3D
Jb3MNlEk0EqlJEYLurKwBB+eKslxV2KuxV2KuxV5r5x8weY285+V7WPyvdyrZajeXVs63NiouFis
Lm15JymBUcbrlR6H6dsVXeR9c8wXXnHzTLN5buoIp9St7ae4e4s3W3EGn254twmZm+KQmkYYb+NQ
FXpGKsG/OfRtE1T8sfNM1/ZW95NYaRqM1nLNGkjwTR2sjB42YEowKjcYqutbW68q+bdH0mz1C4vN
D1tbmJdOvZXupLSW2i9YSw3Epeb0So9NkdmAJTjx3BVZvirHvMnk3ynqkzarq0TwzwQlJ763urix
c26VcpNLbSQGSJak8XJXrtirzvStPubufRLrTuegWnmeU2Oki2VYpbLy9Y28lzFDCGBEU17IgkkI
HII1PtICFWY6XBf+XvPNroiald6hpGr6fdXkUN9K1zLbXFjLbxsUmespjlW7FQ7EKyjjTliqjqum
nzr5k1fQNTmkj8r6OsEN3pcLGJr+e4jE5NxIhEn1dI2VRGpAduXOqjjiqVfpf/lVWlS6NexmTy3F
DO3le/RSWWRVaRNMuAo+KVj8Nu/WX7J+MVdVn3lu31G38vaXb6nK0+pQ2kEd9MxqzzrEolYkdSzg
nFUxxV2KuxV2KoXStP8A0dpttY/WZ7z6tGI/rV2/qzycf2pHoOTHuaYqisVdirsVdirsVS+60S1u
dasNXkeQXOnR3EUEYI9Mi69PmWBBPIeiONCOpxV2k6JaaXJqEkDyO+pXb3twZCD+8dEjovELRQkS
gfrxVMMVYL57/K601zR/MK6Ncz6TrGtWVzBKYbiSKzuJpoDEpuoKSxEGoDusfqce9aYqnmh+S9L0
q/bVGnutS1d4zAdR1Cdp5ViJDNHEvwxRKzKCwjReRpXoMVT7FUs8yeX7PzBpMmk3skqWVw0Zuo4S
q+tEjh2gclW/dyheEgFCVJFcVWeYvLVlrlnBBLLNZ3FnMtzp9/aMqT206KyCSIusifYdkKurKykg
gg4qhdA8oDTdTm1i/wBTuta1maEWwvbwQp6VuG5mKGK3jhjRWajMeJZiBU7CirWteTo77VBrGn6l
eaJq/pLBNd2JhYTxRlmjjnhuI54ZAhduLcQ4qaMMVS+4/LHTtVP/ADtepXvmZFVhFa3xhitY2deP
Nbe0itkLqCeDycmU7qQcVZLo2nNpml2untd3F/8AVYxELu8ZXuJAuwMjosYZqbcqVPU1O+KozFXY
q7FXYq7FXYq7FXYq7FXYq7FXYq7FXYq7FXYq7FXYq7FXYq7FXYq7FXYq7FXYqkPkXzhY+cPK9p5h
sYZbe1u3nRIZ+PqA21xJbtXiWG7REjfpiqfYq7FWIaT+ZelanJpKRWs6HV9U1DR4OfD4ZdNS4eR2
ox+BhaNxpvuK4qy/FXYqkvmnzVZ+XYdNkuopJv0nqVppUCxcaiW9lEaseRHwr9pqb0xV0Pmqzm85
XflVIZDd2dhBqM1xQeiFuJZIkjrWvP8AclunTFU6xV5t+ZP5y6d5bttd03RrS81jzJpWnzXc6Wds
09tYt6LSQyX0paJEj25MA3Lj26YqmHkX807HzHJZ6Ze6bqWj63cWouUg1C0aCKdVVTJJbyqZYnSr
VHx1p2xVnOKsK1/8yLm08xXHl7y95evfMup6fDHcasLSS3gitUmBMSPLcSRqZXUcljXfjviqZaL5
+8uap5Qk81iV7TS7ZJ31AXS+nLatalluIp034vEyEECvtUUxVMPLOtNrmgWGsGzmsBfwrOlpc8RM
iPunMKWAJWhpXbFUr87+frHyr+jrb6ldarrOszNBpOkWKq087xrzkasjIiRxru7s2wxVAaB+ZU91
5kt/LXmLy/e+WtZvYZLjTY7l7e4guUgoZVintZJU5orBmVqbYqzbFUqs/MVrdeZdU0BInW50q2s7
qaU04Mt806oFoa1X6q1ajuMVTXFXYq7FXmv/ADjj/wCSd0X/AIz6l/3U7nFXpWKuxVhGi/ljBpcm
jOuoNL+h9X1LWVBjC+o2ppcoYj8R4iP659rvx6CuKs3xV2KvH/ze8r3955o8nxJ5k1WFNU8wQtHZ
xmyEFqLW0nm9W35WzSeoGjFPUZ13O3Siqh5O8n6lL+bnnB2826zI2jx6PbtKzWBe4VopLow3FLQL
wHqCgjCNRjU7iir2fFXhX5laB548paV+Y99pNhBrnlfzZZXdzfkTLb3unytYtBLKQ44TwhV5cVIc
dKeKrOPyt/Mjyx5g02z0O3eaz17T7G3N1pF/C9tciMRqvqorikkZ7MhI3HjirPcVeaTS+ZPJ3n7z
Nqi+Xr3XtG8zfVLq3m0sQvNBc2lqlq8E8cskJ4usSsrgkCtDirz71VhS70Xzg66Vo/6Ul82efIEb
6wkbX1wG0zRf3QYyySlUllVF+ILt9rFXtHlf8w/LPmS9uNPsJLiDU7WNZ5tOv7aeyufRc0WZYrlI
2aMnbktRX5jFWGfnlf2+mXnljW9KuBL560q6kfQNDRHml1CG4QR3lt6cQZ0Vo1B9UjihUVxVD/l5
qF75+19fzI1uWLT7Py8t5YaZ5ajLPcWUrEJdy6gzLGwnZI6CPjRVodzuVXqWia1put6RZ6xpc31j
Tr+JLi0n4unOOQVVuLhXFR2IriqDsfLiWnmvV/MInLvqtrY2jW/GgjFi1wwYNXfn9a6U2piqc4q7
FXYqwz8nbLRrH8vNNttG+uDTklvTD+ko1iuqtezNJzRdgPULcPFaHFWZ4q7FXYq7FXYq8e87fl89
5+anlDhq2uehdSave3Ekd7KEtStuqqsDdIAxuOAUdV26A4q3+WXkF083+b9Wm1TWh9V1xILcT3kt
LqO1s7ejXAP9+tWKgn9kU7Yq9gxV5J+b3n++sPK3nPQtW8t6lDbXGl30Ol63axG8splls2VTO8NW
tmDsQfUWlBy5UxVL/Kj3/nLzj5C1jT9CvLDSfKWnzi91rUbdrT6011ZC3jt7VXpJKgYmQuV47be6
r2vFUl85+Y/8OeWr7V0tZb64gQLaWMCs8k9xIQkMSqtT8UjAE9hv2xV5hrfkrUfLHlfyxrWoQNrO
oWPmGLzF50e2iMrySzRSxyXEcagu62byp6aqPsJWm2KprYa/pvnf82NB1fyys1xpPl/T79dU1gwS
QQyPfeiILRGlVGkZTE0jACi7b1JGKofVNVg8k/nFrPmXzPa3B0PW9Os7XSddigluYrI2xf6xay+i
sjxCZ2WSvHiaexoqw38xtU/xNf3Wp/k1DqF55j1K0msvMc1vaywadPZmB1DTyXIgQ3cdR6DIS37J
22xV7V+W91os/kbRU0ZZotPtLSG0iguo2huIvq6CIxzRtusi8fi8eoJG+KskxV2KuxV2KuxV2Kux
V2KuxV2KuxV2KuxVD6jp9lqOn3On30K3FleRPb3UD/ZkilUo6N7MpIxVUt7eG2t4reBBHBCixxRj
oqKKKB8gMVVMVdirsVdirsVdirsVdirsVdirsVdirsVdirsVdirsVdirsVdiqncXFvbW8tzcypBb
wI0k00jBEREHJmZmoAoAqScVdb3Fvc28VzbSpPbzoskM0bB0dHHJWVlqCpBqCMVVMVdirsVdirsV
dirsVdirsVdirsVeS/8AOM/mLXde8h6hea1fz6jdR6xdwJPcOZHESLHxQFv2RU0GKvWsVdirwGy8
3+aH0by9K2q3JkuPzIl0udzK1XsRJdAWzb7xfAvw9NsVe/Yq7FXhH57fnh5Z0i80zy5p3mCWx1ux
12w/xBHCl3GYtPoZLgtIkfGROLJVY2LGuw2xVBaT/wA5F+R7z86LmX/E0x8qTaVBY6ZAYbwQyajJ
chmYQ+jVW4njzdR86Yq+hMVfOH5leaPPfnTUvzM0HTdaTy/5b8laVM17YpBHLc6lztZXdWdzyjjP
plSU7EbEnZVln5I+XPzP03RPKV7N5og1byde6RbSy6TdWqxXNoJLRWgjtp46l1QlVPqH7I6VNcVe
x4q8bvrXzF5//NrzX5ebzNqfl7Q/KFvp6W9voswtZri41CA3Bmml4uzKlOPDp0/yuSqA8v8A5ueY
dJ/LDXP0lMNb82aTr135U0OQKofUryNlW2fiKA7SVbxCnvir1byNomraJ5V07TtZ1KbVtXjj5ahq
E7mRpJ3JeTiT0RWPFB/KBirz/wDPfzL5hs9Z8k+WtO1p/Lem+Zr2e31TXIVHqxCJYzFCkjCkbTNI
QG67eFcVSRG8xfl/+cflLyppnmvVfNOn+YI7k6tpeszre3FrHEnKO5WYKjIpPLt0Ujwoq94xVgGm
6vqkn5463pL3UraZBoNlcQ2ZY+ksz3MqtIF6BmVQCcVZ/irsVdirxj/nFGCeH8utSWaNo2Ot3pCu
CpoVi33xV7PirsVU/qtsAAIkor+oo4jZ/wCYf5XviqpirsVfOf5x/m15bn8/eTtONrqXHy5r0txq
I+pyfvGs1aMG32rN8VT8O1N8Vd+XP5teW7v88PON/wDVtTCeYJNG07SlNnIPTKQmKQ3Ip+6HqsCC
x+zvir6MxV5B+fH5ReTda8t+YvOBjmsPMenaTeTG/sZTC06wWzMIblaMsiMq8G25Fdq0xViX5V+b
vzB8mXv5d+XPMF7DrflXzppcLaHKIxFdWDx2scv1c8f7yNBKiVbcjeooVKr6MxVgfm38odM13zGf
MthrOqeW9cmtxZ3t5pE6wm4gX7Kyq6SAsv7LChH0CirwuN00Z7TW/JlqlxpOnasnlT8vpL9jLHd6
xqLML/WLhl4mT+7McbD4fADjTFXrGleYPzJ8qfmN5f8AK3m/V7XzHpvmqG6+pahFaJYSW11ZRes8
bIjOro6bKTuT4U3VSj83J7/8yPNz/k7pMVtbwW1vFqnmDW7qP1Xtk5KYls46r+9PMVavRiPHFWK+
WtQtvyS1PzLYecbcSa7f211eaB55l9SY6ksUfNbSV5GkMcqsi/ADRjT/ACSyr3D8rdY1/Wvy90HW
Nf4fpbUbRLq49NPTWkxLx0Xt+7ZcVZOIohIZQiiQjiXoORA7VxVdirsVdirHvI/l7zBoOkzWeua/
J5ju5LmSeO+mhEDJE4XjDxDy1CUO9e+KshxV2KuxV2KuxVifmDyIdZ8/eVPNjX3op5WW/Edh6XL1
21CAQFjLzHDgFrTia+2Ku8meQv8ADeu+atXa9F5L5mvxfFBD6XoKqcEi5c5PUp/Nt8sVZZiryH8z
PyV1XUrfzNqnlHzDqWnajrdpcfX9CWVJbG/la2MQj4TlVhaUKsZfl8I6UxVr8p/yNfQ30DzJ5r1O
81bzLpemw2tjY3Lp9W0wGARvBAsZdWMYrHz5UPXrvir1/FUk866Fqmv+V9R0XTNT/Q11qERg/SIi
9do43NJOCc4viZKqG5fDWuKsf8y/lFoWq/l9YeTdPnk0iLR2t59Fv4AGktrm1NY56HiHYkty3Fan
cHfFUD5c/LDzQfOdh5u87eZF17UdGt5bfRbe2tFs4ITcrwnmYBn5ySJ8PYfhRV3nX8pNS1LzhF52
8o+YZPLPmgW31O8m9BLu3uoAQVSWF2UbUG+/QbVFcVSbW/yM80edikH5jecpNU0m3YyW2k6ZZxWE
YmKFFleQmZ3K8jQH+JGKs/8AIHlzXvLflu30bWdb/T8ln+6tb9rf6tL6CgBEl/ezCRlG3Pao6iu5
VZHirsVdirsVdirsVdirsVdirsVdirsVdirsVdirsVdirsVdirsVdirsVdirsVdirsVY75N/MPyf
5zivJfLWofX49Pl+r3bejPDwkIrx/fJHXp1FRirIsVdirD3/ADc/L1NNn1JtWpZW2qnQJpfq9z8O
pChMHH0uR6j4wOH+VirMMVdiqR+bvO3ljyhYW9/5ivfqVpd3KWVvJ6Usxe4lVmRAsKSNuI23pTFW
/wDGnlr/ABd/hD65/wA7ELX6+bH05f8Aeblw5+rw9L7X7PKvtiqd4qw38x/zW8oeQ9KubjVb+3Gq
LbS3Gn6Q0vCe5dFYxxqFWRkWR14cytBiqD/Lf86vI3nmysls9StrfXbiFZLjQ2mrPFIV5PGnNYjL
w7si4qz7FWE+evzl/LzyPfQ6f5h1P0b+eMzJaQxS3EgiFf3jrEr8F+E/a8MVT7y75v8ALXmPQI/M
GjahFdaPKrOLsEoqhPt+oHCtGVp8QYCmKu8p+bvL/m3Rk1ry/cteaZK7xxXJimhDtGeLcRMkbMA2
3ICmKqHnPz55S8l6WNT8y6jHp9qzcIuQZ5JH68Y40DO58aDbvirHPJv5+flX5v1dNH0XWQ+pygmC
2nhmtzLQVIjMqqrNQfZrXFXoWKpOnm7y8/myTykt3XzBFZ/pJ7L05drUyCL1PU4+l9tgOPLl7Yqn
GKuxV2KvnX/nDb/jlecv+2qv/EGxV9FYq7FXhE35D+b38p6jo4vNP+s3fnVvNEbmSb0xZEKPTY+j
X1vh+zTj/lYq93xV2KvmX/nJaz/Mq680eV9KfU9OOiatr1qvlyz4OJorlQsSyXLBfiRXnP2a7HFU
t8t6X+dV5/zkJ5h9PV9I/wAT6Tpttb6nfNA/1VrWcQTKkKcOQk4kfER44q+rMVfHX5z6Vc+V/wAy
/O+u+bvLs2taT5i0y4tfLmshBNDaXM1sIrdjy+BGiYcd6Mv2kr3Venf84/W35Ma9ofla+0yLT288
6BZILoxJ9XvBKYTBM8qUjM4o5HMhgDShrir3fFXz1rfmGy/Lj/nIPzJ5n816fctovmHTrWLRtVgg
e4VHhiijkt/h+yZHiO3+rXY1xV5/5cutdPlK58hWkbeXG8/6vd6xcLcARDTPLYCCSaQNxEYlETIl
aBlX/KU4q+mfIPmL8t59Nt/L3k3V7C9g0m3SKOzs7iOV0hjAQOyqeRqerdyfHFXl/wDzlTotxajy
p5/Vba8tPKd6HvNJu3VFuEmliYBA+zEmHiygE0NaGhxVjUGqy/nZ+Z/lrzboel/oXyh5ImS51LXL
z045ZZImjuTA3FiOKekAN6KrMxpUDFX0zYajp+o2kd5p9zFeWctfSubd1ljbixVuLoSpowIPvirD
LfyHq8f53XPntprc6RNoA0hYAz/WfXF0k/Irw4cOKdeda9sVZ3irsVdirxP/AJxi0nynp2neZ18u
+YH1+OXUA9272Ulj6MnE/uwJHk5/6wpir2zFXYq7FXYq7FXyv+cHlP8AMm4/OXyjpjecPVk1TUL6
+8u1tYwNLRGEiDr++4ooX4v5ffFVP8pPJ35lah+b3nS7h85cLzRb+yttevjZof0kiM4aIA0EXFbf
iePiDir6sxV4T+cP566Fpll528j69pt9pl1cabd2uh37xM9te/WLMopVgAV/fOVrQrtUkdMVeP8A
5XQaZ5j/ADK/LiTyNpU9teaDZ25846nGhhgdo1pKWptVkqhY7yFqb9Sq+1sVSvzT5k0vyx5d1DX9
Vk9Ow02Fp5jtU8fsoterOxCqO5OKvlrzz5W8y3n5N63+ZWtwyfprzdf2d3qNvGSWttBV/wDR7dR2
WvpOfbjy3BxVPmu/y11D87Py1P5UxWwkt47l9bfS4vSRbIxKIxc0UDnx9QNz+LcA7lcVU/zfv9Jt
P+cjtGm/MqN5PIUdoDpAmR5LL1uHxNJGgYPSc/GKHbhy+HFWG/mpr/lHRfMN7e/k1rf1mTzTaXNp
5i8uWMEslv6ckL8riKihFKhmai7oakfCSMVfQX/ONl75al/KDQbLQ79b36hEU1BRUPDdzO1xNG6n
cUeU8T0I3GKvT8VdirsVdiqC0zRNF0pZV0uwtrBZ25zLbQxwh2/mbgFqfc4qjcVdirsVdirsVQs+
k6VPfwahPZQS39qCLW7eJGmiDAhhHIRyWtd6HFXWmlaXZT3M9nZwW094/qXcsMaRvM+/xSMoBdtz
ucVRWKpf5g0LTdf0S+0bUo/VsdQgltp1GzcJkMbFTvxajGh7Yqt8t+XdL8uaFZaJpcZjsbCJIIFY
8m4oAoLN+01BucVTLFUNqOmabqVq1pqNpDe2jkF7e4jWWMlTUEo4ZTQ4qrvDE8TQuitEylGjIBUq
RQqQdqUxVL9H8seWtFaVtG0mz0xp95zZ28UBc9fj9NV5fTiqI1HStL1O2NrqVnBfWxIJguY0lSo6
Hi4YYqhdF8q+V9C5foTR7HS+Y4v9StobeorWh9JV774qq6Z5e0DSXmk0vTbWwe4p9Ye1gjhMnGpH
MxqvKnI9cVR+KuxV2KuxV2KuxV2KuxV2KuxV2KuxV2KuxV2KuxV2KuxV2KuxV2KuxV2KuxV2KuxV
4l/zjf8Amx5v8/X3m6HzDJBImjy2iWXoRCKgma5D8qE8v7lcVe24q7FXzNq35+fmFa+SPPOsRTWw
vdA8xLpWnkwKVFsZHWjrX4moo3xV9JWEzz2NtNJ9uWJHamwqygnFVfFXiH/OQv56P5Os7PT/ACpq
1j/iT68kOpWsvGZ4IDEzVkjr8HxMhqcVQR/5yL05vztGip5h01PIMdl6kl+SnBrn0q8BcFqfaYfd
TFXvmKvnj82Pz585yecNU/L38vtGivb2ytpf0rf3BPwKsXOZogJIlQRK1Obtu2wXpVVjv/OM/n/8
2Y7bR9Jm0JtX8o6nezR/4gZ5XmgcAtJ6snKUBV4fCrotenLfFX1Tirwvzt+YX5r67+bt7+XP5dzW
OlyaLZJe6jqN+nqczIkbhRVJQF/0iNQAla1NaYqv8hf85CzS/lZ5h8x+cYIodY8rTvY3UcB4pdTk
AQKg+LizueDUqBTlsNgqz38oNQ886r5HstY86NENW1Ot1FawxeiILaQAwxstSSxX4zXcVp1GKsN/
5yD/ADj8yeSrjQvLvlW2hk1/zC5WK7uhWKJeaxIFBKqXZ36seKgbg12VYXqn5tfnl+WPm/QrD8xZ
tM1rSNbahaxULIiBlSQoVSA84zIpoyEN0B7hV9NYq8vufzB8xx/85CWvkZXi/QMujm/dPTHq+sC4
r6nWnwjbFXqGKuxV2KvmD/nC3/jqfmF/xnsP+J3uKvp/FXYqxWb8rPy9msNQ0+XQrZ7LVbkX2oQE
NxmuQSfVff7VWOKsojjSONY4xxRAFVR0AAoBiq7FXxp/zkZq35N6j+ZGjfo9ka/j1aWDz5c+neKU
S2lhgZWDJR6KkorBX7PeoxVLfJsf5Aal+emsW93FE3ke9hitfLVrwvwr3shto1oAPWWrerUy0Xf5
Yq+3cVfM/wDzkX+T1xo82s/mx5W1qXTL5I1/S1kKgSCbhbOY3U7c1Yc0cENuajpirGfyI/NHzX+X
N55b8j+Z9HRPL/mgwXmj36keqqamV9KXkrNG8ZZl5KeLJvXwxV9fYq8f8/fkl5mvvPz+fPInmb/D
mv3lsLPU/UhE0cyKqoGFeQHwRoKFTuoYEHFXz1qWm6T5Zvr7TZZZPMflnyTeLqPmac0jj1TXpyIY
bSv7zjFFxYNy5GgmP7SjFXtXlr8+vzDtPNXlfSvP3la30nTfOIRdEvLSRiweUqIxIheXvLGGU8Sv
IH2xVJf+csNV8u+Yb3R/IOm6XNq/n95Fl057dgn1VJ6ckdmBD+qqVK7BQA5YU3VeaaLqC6B+YWqX
n51ve33mzy3YGfyzaX0nOyuZrWNngjaRQ9RIygxsPhZq8qtsVX1Z+UHn698++R7XzPd6cNLN3LMk
NushlVkhkMfMMVTqysOnbFU+byp5cbzInmZrCI69HB9VTUaH1RDueFa0p8RxVNsVdirsVefflVpP
5q6fca23nu406eGZ4TpA0+OOMqqmX1fV4RQ12aOla98Veg4q7FXYq7FXYq8U/MP8hovMX5qeWfMF
jpOlRaBaStc+Y4jFEkl5K8pkYyxiJhPyp8XqHepxVZ+Wv5BQaF+Y3mzzBrej6TLpV5dCbyxbRxxy
/VEWd3VkjaJVgYLwpw6dMVe3Yq+bP+cgvye8/GLzT5p8ueYbq603WBA+reVxHI5l9P0oU9JY+auV
EakVQMAPtHFVP8p/+cdvNN9qXlXzn581s3Uek2dlLo2iBZA8EcKLJbQTeosfp+iackVTVq1Piq+l
8VSTzsnmqTyrqUPlQwr5gmhMVhLcsUijdyFMpIV941JZRTcgV2xV5ev/ADjpbf8AKjJfIS3SRa7d
smoXeqHkyPqIYOSx+0Y6D0gaVp8VK4qkuh/lB+cPmHzb5PvvzCu9Ng0nyKyPpy6eWaa5kiaNkZ6i
g5G3j5H4dhstSTiqYfm5+R3nTU/zCs/zH/L/AFW3svMVsiLNb3dQpaNDEHjbjKp5RHgyOtKd96Yq
xfzL+R356/mheWZ8/ajo+l2mnq6wSWkIlnJYD+QKSrEbgygDqFxV6l+Rnlr8yPKflpfLHm1NPmst
OHHSb2xkYuYyxJiljMcfStQ/U999yq9LxV2KuxV2KuxV2KuxV2KuxV2KuxV2KuxV2KuxV2KuxV2K
uxV2KuxV2KuxV2KuxV2KpPo3nLyhrd1LZ6Lrmn6ndwKXnt7O6huJEUEKWdI2ZlHI03xVOMVdiqRH
z75GWG+mPmLTBDpciw6nKb23420kjFESdudImZ0ZQGpUgjFU4tLu1vLWG8s5o7m0uY1mt7iFg8ck
bgMjo6kqyspqCOuKquKpdrfmTy7oNvHc65qlnpVvK/pxTX08VsjPQnirSsgJoCaYqpnzZ5WGrw6K
dZsRrNwokt9N+sw/WZEKlwyQ8vUYFAWqB03xVNcVQeraxpmkWMl9qVzFa20SlmkmdIwaAmgLlRXb
xxVin5W/m95X/MnTru+0KO5thZTehLb3qwpMfhVuapFLN8HxUqT1xVm+KpP5h84+U/LcccnmDWLP
SlmqIfrc8cJenXgHILU70xVH6dqem6nZRX2m3cN9ZTjlDdW0iyxOK0qroWVvoOKobRvMvlzXBOdE
1Wz1QWzBLk2VxFcCNzWiv6TNxO3Q4qiNT1bS9Ks3vtUvILCyi/vLq6kSGJf9Z3KqPvxVJ9C/MXyF
r939S0XzFp2o3m5Ftb3MUkpA3JCBuRA8QMVZFiqXv5h0CPWY9DfU7Rdalj9WLS2njF00YBPNYC3q
FaKd6dsVTDFXYq7FXx//AM4d/wDk0/NP/MBL/wBRkeKvsDFXYq+Sbn8nPzLfy1+bVouhym48w6tY
3OjR+pDW4ihvrmWR1+Og4pIp+KnXFX0r+XWm32l/l95Y0y/iMF9Y6TY213ASCUlhtkSRCVJHwspG
xxVkOKvjb/nLrzH59vfMVv5d1TS4rby5DdNJ5evUR1lu2EMay8mMjI3BpqbIuKsZtvNf5wT/AJ7R
63B5cgk896ZB6Q0MRzGGONbP0N4zPz/uZeX971P0Yq+67V5ntonmXhMyKZUHQMR8Q798VfD358ag
dV/Py+07z1fXdl5csnEVr6C8zDbG3DxNCh5D97JQuwBO52NOOKph/wA4uflZpnmbUrbzSuuGz1Xy
7qkcsmlIVLT20apIp+FlkVWkqpJBVgCMVfauKvkP80/8ID/nKC9P5oer/hH6hEdP5+sY+H1NePH0
P3nD6z6v2f2+u2KsQ/Ln8xde8ufldr3lzQTPLqXmvVI9P8tQA/GnqJwupU8HKvDGN/tGo+ycVfWf
5O+RNI8ieSbPy5aSxT38Y9fV5o2DGS7kA9VjTfitOC1H2QO+KvFf+c19M8xyx+XNRVJpfLFsZUvB
EfgjuZGXi0goQC6VVGNabjvuq8h842PkPV/OPlu0/JKy1Aai8cTyqzSl1vOSshUysxVoqEyOD6Y6
g0BOKvv23EwgjE5DTBVErL0LU+Ijp3xV49qnknzTN/zk7pHm6OwdvLtvpL202ock4LKY5wE48ufW
Rf2cVeyYq7FXYq+af+cZvJelaH+YPmC8s/NOl65LPaSI9nYNMZYgblG5P6kca0BHHY9cVfS2KuxV
2KuxV2Kvib/nIA/m5f8A5taTpGsNDJI2pS/4IgU24/cXN4I7Yycehb04wTLvtviqG/Ln/ldWofnr
rF7p7QTebrSRovMshNrwWBJ44LhU5fu6jgF+DfbFX3Fir5P/AOcpPzO8i6suv+TLjSCPNOiy2q6Z
rJjR+SN6cs8Yk2kjoJGHHdWpWvTFXjXkwQw/mR5L/wACz3j6nI1h9d5DiVvWb/S44+NOUHD7XLty
rVd8VforirH/ADnoHkbUNLlvvN2m2N7YaZHJcPPfwxyiGNF5yMGcEqKLvTrir5B1mz1TzD5V83/m
7ZWn6H0iwMWj+TbK2jWFLa0e4WKaSJY+KpRJWUlducj03XFUq0+Dy35V1P8AK3WvIetyXXmfVWT/
ABFaxzCQxzPNCvoPEgDKJDJIhRvtBQe9Sqzj/nKLzfq99+amneSdb1CfR/Iw+pyXbwgkSxzPWa5Z
QP3npbqq7gFa0rirzzz2dH/LjXr1Py082RatoXmLT5rO7hjkEs0UUq8XjmdFVK1PKNlow3BFPtKv
pL/nERrE/lOPS1Fb6/mvp7jUYeZeS3duMUcbhviHKOFWHY12xV7ZirsVdirsVYr5U/K3yD5S1K51
Py7pEen314hiuZ0eVy6M4cikjuPtKDsMVZVirsVdirsVdirHta/L7ydrfmHTvMeqaZHda1pPA6de
M0gaIxuZEoqsENHNdxirtC/L3yboOu6lr+kaZHa6xrDO+pXitIzStLIZXJDsyjk55fCBirIcVYJ+
bP5Q+XvzF0J7G7WGz1Osf1fWhbxzXMSI4dkRiUbi4FCOWKon8uvyp8oeRtKtLfTLC2OqQwLBdayI
ES5uCAAzM/xMORFSvKmKsyxVLvMXl3RvMej3Gjazb/W9MugouLYu6BwrBwCY2RqclHfFVOy8q+XL
Hy4nlq20+FNBSE2w04ryhMLV5IytXlyqeVevfFWM+WPyL/KjyxrS63onl6K21OMsYrhpbif0y1am
NJpJEQ79VAxVOfOH5d+SfOVvHB5m0iDUlhqIZJAyyxg9Qk0ZSRQe4DYqx7Q/+ce/ya0S6+tWPle2
aahWt0894oBFDRLqSZR160xVNvKn5T/l95S1KXUvLekLpl5MhjmeGWfi6E14tG0jIRXcfDt2xVlu
KuxV2KuxV2KuxV2KuxV2KuxV2KuxV2KuxV2KuxV2KuxV2KuxV2KuxV2KuxV2KuxV4F+UP/OSWt+e
vzEbyrd6NbWduI7mT6zFJIz1g6Cjbb4q99xV2KvnaT/nKDXkt/zAl/QlqT5OkjS2HqSfvw+orZfv
PD4X5bd8Vev/AJW+cbnzn5B0jzNc26Wk+pRu728RLIpSV49i2/7FcVZViryL8+fz1b8trbTRplva
6pf3k0kdzaySkNCsaKwLBCWBPMUriqRRf85KXb/mnpHk36np/wCj72G0e+1T6yeMTz2i3MoBNE+A
txFTX6cVe9AhgCDUHcEdCMVeL/m9/wA5PeWvy/1l9AtdOk1vW4AjXcKyi3gh9RQyq0pWUl+LBuIT
6cVeV/kx/wA5ReY5fOkmnebmu9XttduYbXSYYFgrayzTFFWnGIup9RVJ5V26HFX15irw382v+cid
Y8ted18jeT/L51/zAkaSXKn1Hozxev6UcMI5uRDRy3LYYqmf5Yf85F6B5t8j655k1e3/AEPL5aRZ
NWhD+ohSRWMTRMQpJlaNlVOvLbeoxVNvyP8AzJ80fmHoN35g1XSIdJ0tpjDpQjd5JJglfVdiwUcV
NFBHUhulMVQX55fn3pv5YxWdpHYnVNc1BGlgtS/pRRxKePqSvRm3bZVA3odxiry+w/5zE806Zqlt
H5z8nmx067pLHJD60Ewt2PwyxpcDjMPkVBxV9P2F7a39jb31pIJbW7iSe3lHRo5FDIwr4qcVeZ+Y
Pzh1LS/zx0T8uY9PhkstVt1nkv2dxKhZJmoFHw/7pH34q9TxV2KuxV8Qf84sf+T5f/jBf4q+38Vd
iryR/wDnGXyG0XmqI3+qcfN7q+pH1besZS7W9Hof6P8AD+8Wnxcvh998VZ/5J8oab5O8rWHlrTJZ
prHTkZIJLlkaUh5GkPMosandz0UYqnmKvhH/AJyhsvKJ/Mu5v9E1pdQ1C/nlj1u1pRbKe29O3EZN
PFGr8sVYxpfk38vrz805fLkvmUw+Ug8iQeYCq1k4xVSi9Pjl+HFX6I2sAt7aKAHkIkVAx6kKKVxV
8Z/85Lfl75o8l/mEfzKsZYpNM1DUIZbSZwkjwXyx+oI5IZAVdT6DMpoRTY+6rGPyN/Mfy35b8+TX
XnHRkvV1i6t7iLUCi+pYXHqNIlzGjDlxPrVPFgePTl0xV974q+dfzX/Jv80Y/wA3E/Mz8upbefUZ
kUSwTtGjQyLa/UyQJv3bo8I8ag9sVfPWreXtW8qTXvkbVL9Y3uJLfUPOL2pEwgitgzQwepVVkkHr
livLi0jRrXkMVe9+Qf8AnK3yJZHR/LX+G7rQfLahbLT9QeRZUREPBXkUIvf+8ZWYg+OKpb/zmrZ+
TZE0e8k1H0vN8KGOHTUXn6tkzkl5CP7rg/LgT9rcUNKqq8L1Hzhq/n3UbFPPmum3stAsTFB+5rO6
QgVhiVQqtcTUHxSso23PQFV9sfkf+YXlvzn5NVvLmn3WnaVobR6TBDd8C3G3gj4gFGcGiMoxVF6r
+UXlvU/zL038w57m8XWtLiEFvbxvELVlVZFq6GJpCf3x6SDtirN8VdirsVeBflDpX5m2/wCYjTa/
+X+h+X9J9O5A1fT7G0t7nkfsL6sUjvR/2tt8Ve+4q7FXYq7FXYq+UPzh/wCccdV1L827K78t6Nc3
GgaxOl55jv8A6xFRJ7u9ka64CQqyhIiGFAeuKoT8vf8AnF+8m/NPWE8yaNd2Xku1e6k0Sczx85PT
ulForGN3aphJY1HbFX11ir40/wCcs/JHnvTdbvvNN5qKz+UtavrZLexjlkAiuYrRo4vUt2+DkIop
KOpPU9K4qhfy/wD+cd/zO893/l/XPNsiW3lhLSy+qzyyxSyyaZFEpt4YIYS/ENHQfvOJFSSCdiq+
1cVSfzjqWuab5Y1G80HT21XWo4T+j7BSq+pO3wpyLsg4KTybfoDTfFXz35Z/5xx8zXn5SebH134P
zD81OLhjcOrFBb3K3KxO6ErW4kQs5rTdf5cVefwfk5+eHm208qeSNX8vDSNH8tPdxrqsnBQsV5OJ
Z3dldllKlaJ6Y3792xVnH/OSX5E+f9c88jzp5Vtl1WKSGAXFmGjE0UtuOIKxykLIjKqmgqa12pir
B/NX5X/n9+aHmKK/1fylbaXfpCIp78KlmkqoPgM3KRy7CnEFVrTboBRV7B/zjRYfmZ5P05/KHmfy
jJY6Y0slxbaxE8DUlfd1uVWVmYHiAjqNtgRTcKvfMVdirsVdirsVdirsVdirsVdirsVdirsVU57e
3nQJPEkqA1CuoYV6VocVXoiIioihUUAKoFAANgABireKuxV2KuxV2KuxV2KuxV2KuxV2Kv8A/9k=
									</xapGImg:image>
							</rdf:li>
						</rdf:Alt>
					</xap:Thumbnails>
				</rdf:Description>
				<rdf:Description  rdf:about="" xmlns:dc="http://purl.org/dc/elements/1.1/">
					<dc:format>image/svg+xml</dc:format>
				</rdf:Description>
			</rdf:RDF>
		</x:xmpmeta>
<?xpacket begin='﻿' id='W5M0MpCehiHzreSzNTczkc9d'?><x:xmpmeta xmlns:x='adobe:ns:meta/' x:xmptk='XMP toolkit 3.0-29, framework 1.6'>
<rdf:RDF xmlns:rdf='http://www.w3.org/1999/02/22-rdf-syntax-ns#' xmlns:iX='http://ns.adobe.com/iX/1.0/'>

 <rdf:Description rdf:about='uuid:71890ad0-5257-11de-8344-001124740a56'
  xmlns:pdf='http://ns.adobe.com/pdf/1.3/'>
  <pdf:Producer>Adobe PDF library 6.66</pdf:Producer>
 </rdf:Description>

 <rdf:Description rdf:about='uuid:71890ad0-5257-11de-8344-001124740a56'
  xmlns:tiff='http://ns.adobe.com/tiff/1.0/'>
 </rdf:Description>

 <rdf:Description rdf:about='uuid:71890ad0-5257-11de-8344-001124740a56'
  xmlns:xap='http://ns.adobe.com/xap/1.0/'
  xmlns:xapGImg='http://ns.adobe.com/xap/1.0/g/img/'>
  <xap:CreateDate>2006-01-17T13:21:15+09:00</xap:CreateDate>
  <xap:ModifyDate>2009-06-06T05:06:14Z</xap:ModifyDate>
  <xap:CreatorTool>Illustrator</xap:CreatorTool>
  <xap:MetadataDate>2009-06-06T11:57:50+09:00</xap:MetadataDate>
  <xap:Thumbnails>
   <rdf:Alt>
    <rdf:li rdf:parseType='Resource'>
     <xapGImg:format>JPEG</xapGImg:format>
     <xapGImg:width>24</xapGImg:width>
     <xapGImg:height>256</xapGImg:height>
     <xapGImg:image>/9j/4AAQSkZJRgABAgEASABIAAD/7QAsUGhvdG9zaG9wIDMuMAA4QklNA+0AAAAAABAASAAAAAEA&#xA;AQBIAAAAAQAB/+4ADkFkb2JlAGTAAAAAAf/bAIQABgQEBAUEBgUFBgkGBQYJCwgGBggLDAoKCwoK&#xA;DBAMDAwMDAwQDA4PEA8ODBMTFBQTExwbGxscHx8fHx8fHx8fHwEHBwcNDA0YEBAYGhURFRofHx8f&#xA;Hx8fHx8fHx8fHx8fHx8fHx8fHx8fHx8fHx8fHx8fHx8fHx8fHx8fHx8fHx8f/8AAEQgBAAAYAwER&#xA;AAIRAQMRAf/EAaIAAAAHAQEBAQEAAAAAAAAAAAQFAwIGAQAHCAkKCwEAAgIDAQEBAQEAAAAAAAAA&#xA;AQACAwQFBgcICQoLEAACAQMDAgQCBgcDBAIGAnMBAgMRBAAFIRIxQVEGE2EicYEUMpGhBxWxQiPB&#xA;UtHhMxZi8CRygvElQzRTkqKyY3PCNUQnk6OzNhdUZHTD0uIIJoMJChgZhJRFRqS0VtNVKBry4/PE&#xA;1OT0ZXWFlaW1xdXl9WZ2hpamtsbW5vY3R1dnd4eXp7fH1+f3OEhYaHiImKi4yNjo+Ck5SVlpeYmZ&#xA;qbnJ2en5KjpKWmp6ipqqusra6voRAAICAQIDBQUEBQYECAMDbQEAAhEDBCESMUEFURNhIgZxgZEy&#xA;obHwFMHR4SNCFVJicvEzJDRDghaSUyWiY7LCB3PSNeJEgxdUkwgJChgZJjZFGidkdFU38qOzwygp&#xA;0+PzhJSktMTU5PRldYWVpbXF1eX1RlZmdoaWprbG1ub2R1dnd4eXp7fH1+f3OEhYaHiImKi4yNjo&#xA;+DlJWWl5iZmpucnZ6fkqOkpaanqKmqq6ytrq+v/aAAwDAQACEQMRAD8A9KaVpWlnS7MmzgJMEdT6&#xA;afyD2xVFfonSv+WKD/kUn9MVd+idK/5YoP8AkUn9MVWWE8NvoltPO6xQxWyPLI5CqqrGCzMT0AGK&#xA;pKfP9gtsNRl0zUodEI5DWJLekPA/7saLkbpI6bl3hCgbk03xVPtK1K21TS7PU7Uk2t9BHcwFhxYx&#xA;zIHWo7GjYqkuvWkd5+XV/ayS+jHPpMiPKUMgUG3NS0a7uPFR1G2KoOy83eadS0O3ntvKlwl7eW6P&#xA;E8t1YPYK8qAgtNFcPM0QJ6rByI/ZxVkHl7Sho+gabpIk9YadawWgmpx5+hGsfKlTSvGuKpP5hOoD&#xA;yH/oPriQw2qztZhjcras8Yu2gCfH6q25kKcPi5U470xVj8UX5AQ2aRWw8vxUULGtubZLyoFKL6dL&#xA;n1e1B8dffFWW+TDqB8uWrX4nErNMYBd8vrItTM5tRPz+P1Rb+nz5fFyry3riq3Sp/Mf6Ls6WNmR6&#xA;EdCbyUfsD/l2xVFfWPMv/LBZ/wDSZL/2S4q76x5l/wCWCz/6TJf+yXFURpP/AByrL/jBF/xAYqi8&#xA;VdirGPMfmX/C/wCXN75hEP1htL0w3KQb0d44qqpIqQpalT2G+KsfutC/NG08sy6x/jYya5DbvdSW&#xA;T2dj+iSyxl/RXjEt0EB2EhuCe5B6YqyD8sNX1TWfy78uavq0pn1K/wBOt7m6mKLHzkljDFuCBVFa&#xA;12FMVUvNl/Y2H5Y6lc30sMVsNKeNmuYzNCWlh9NFeIAmQO7heAHxVp3xV5XonlbzQnkfT9N17y/5&#xA;uutKFtEl9o8OrafKrRiNQ8ZBktrso1P7kPt9mlNsVezeTda0LWvLGnajoK8NIki9O1hKGIxCAmFo&#xA;WjP2DE0ZQr2IxVB6/wCV4vNPkUaJJcyWRuIbWWC8iALxT2zx3EEgVtm4yxKSp6jbFUtNp+dDW/1Q&#xA;6joEb0CnVVtbtpKdC4tWl4B+/wDekV7UxVPfJnle28reWrPQ7eeS6W29R5bqanqSzTytPNK1KAc5&#xA;ZGag6Vpiq3SvL9gdLsyZbzeCM7X14P2B4S4qiv8AD1h/v28/6Trz/qrirv8AD1h/v28/6Trz/qri&#xA;qvpbKukWjMQqrbxlmOwACDc4qxeH85/yom1BtPi816a10pK8frCBCV6hZCeDe1G3xVlWl6pp2q6f&#xA;BqOm3Md5Y3K87e5hYPG69Kqw2IxVh35l6dqOpfkzrdlp0qw3c2jtwd3EalViDSKXYqqh0DLUmm++&#xA;2KvLj57/AC31X8j4/K2meW7651O70oW9joMWlXLMbySCkdws4iMJ+OkvqiQtT4uu2KvX/wApfL2p&#xA;eXfy18u6LqaCPULKyjS6iBB4SGrMlRsSvKhpiqQ/nNrd5o35Hatd2lql28lhDayJIhkjSK64QSyu&#xA;grUIkhb9e2KsPsPJv5faN5NgubD83NXs7S2s09G7j1mN7VfTWtY7Rua0qtPSXf8AZ64qz78jPMfm&#xA;TzH+V+jav5jJk1O4WWtw0YiM8SSukMxQAAc41B2G/XviqfadqN3Jo9tFJol3JE9uiupazKspQAgg&#xA;3HQjxxVII/y8/L6O9+up+XFotzXkJBaaXs38wHq8QduoGKsqGq3ygAaJeADYAPZ0A/6SMVROk/8A&#xA;HKsv+MEX/EBiqLxV2KsW8y+b7Hyd+Xdx5mvo2mt9Mso5TCho0jsFSOME1pzkZVr2xV5aPzU/5yBh&#xA;8kv5/ufLOhv5be1N9Fp8c1wuoJaunOO4dizRMgQh2UUYr2XFXp/5U+cL7zj+X2j+Zb6GK3u9Sjke&#xA;WGDl6alJnjHHkWbonc4qlf5qW9tcfkjr8dxCk8f6GZxHJIIV5xxB0bmSACrqGHiRTFXzLpHne/vf&#xA;y307y1rvnzUdM8qy28dtdj9AtIUgUU+qpeJIecQ4cVYb8diKfDir6w/K2HyhB5B0a28n3gv/AC9b&#xA;wenZXdatJxY+oz1CEOZOXIcRQ9hiqTfmj5AvvPv5USeW7C8WyvJ4rWWCSSvpM0JWQJLxBbi1OoGx&#xA;od6UxViYn/5yOfyuvlaPyhoVt/oo0/8ASTXitarD6Xpchajk1OPRdx/kkbYqzj8nPy7f8vvIVl5c&#xA;mulvLuN5J7udARGZZm5EIDvxUUG/Xrt0xVOtK0q/Ol2ZGs3gBgj2CWe3wDxt8VRX6Jv/APq9Xn/A&#xA;Wf8A2T4q79E3/wD1erz/AICz/wCyfFURpP8AxyrL/jBF/wAQGKtpqemyTTwJdwvPbCtzEsiF4x4u&#xA;oNV+nFVeGaGZBJDIskZ6OhDDb3GKvNvzoutftPyJ1q40BpY9Sj0+3IkgqJFgMkQuWUjccbf1CSOg&#xA;3xV81vof5EQfkIus2mqCP8xHg4yBLuRbxp5H9OaBrQPw9AxsyluG6717Yq+iv+cX9MvdP/JTQUu4&#xA;zDJcG5uY0YEN6UtxI0bEH+daMPYjFVL8/wDzBY6N+RN/9bill/SVrDp8CwtwIlnUFWZqN8K8CSP2&#xA;vs98VeM6H+WPnjy9+WNp51t9Y8qPa2+njUIEvNLsJZgOBlEIvmgaSSYg8fic/F8Ne+KvfPyE/MTW&#xA;PP8A+XsGu6vbR218lxLaSGBWSKX0eNJEVi1K8qHelQfkFU4uT5X1/wAqx6PrWnXF/p1zbxLcW0th&#xA;eMjUVSDtF1BFQQdjuMVefR/847fkClwJv8O6gyhuQhZdXKfLpyIHzxV6hpN15c0fTYNM0rT7iy0+&#xA;1Xhb2sGnXaRota7KIe5NT4nFUz0n/jlWX/GCL/iAxVF4q7FWM6/5w0byd5DbzHrLMthYWsLSLGA0&#xA;jswVEjRSVBZ3YAVNPHbFXkMP/OXCnRpdfn8i6tF5fq8VpqwYNbyTrUJG8npqiciKEhmoexxV6l+U&#xA;/wCY8P5h+UI/MkNi2nJJPLB9WeQSkGIgV5BU618MVYz+f1haXn5AawLppVWCztZ4zCvNvUjkiKAr&#xA;UfCW2Y9lqe2Kvm3RvO3m/Xvyctfy3F75dsdGmkCfXr6/itbpI0uvrKrLG8nw/vQPj4fZ+k4q+rPy&#xA;M8lW3k78ttM0iHUYNWLGW5mv7NudtJJM5J9Fv2kX7Ne9K0HTFUm/PLyx518y/k6NK8osWvnW2e7t&#xA;UcRvcWixn1IUYlRUsVYgn4gCO9MVeC/4d1SfyAnlCD8kbtfMy2y27eZJI5E/fE73PqmJKk9eJl4j&#xA;p0FMVfQH/OOf5d+YfIf5dLpOvuP0jdXct89qriQWyypGgh5AlSf3XI8dqsevXFWaaVB5j/RdnS+s&#xA;wPQjoDZyn9gf8vOKor6v5l/5b7P/AKQ5f+yrFXfV/Mv/AC32f/SHL/2VYqiNJ/45Vl/xgi/4gMVR&#xA;eKuxV5T+efnLX/KP5Ly6roMnoaiyWlsl0ByMKzcVaRaggNT4QT0J8cVfN1tP+Ytl+Tcn5k2/5i6i&#xA;Ly9vG0+40prqVnKs5UkSNKzLN/uzZQQpqDir6C/5xR1zX9b/ACukvtb1C61O7OpXCJdXs0lxJ6ap&#xA;FRQ8pZuINdq4qv8A+cjNatNN/IK+imuBbz6lFZ2VmCnP1JGZJWjAoQKwxSfEenXrir5T0PyTrll5&#xA;Kh856l5FXVPLKFmk1OW7lg9RPU9OpjimSQKHPEMEocVfXn/OOvnry/5s/L9f0Joi+X7bSZ2sn02J&#xA;/UiDcVl5o5Cs3P1KnkOVa1r1xVOPNnlLyP598kW2geYLhGtSkE0UsM6JNDMkfFZI2PIBgrsN1IoT&#xA;tiryxP8AnFHyQYEsLjzzqcuixtzj00XECopJBJAIaME+ITFXsnkjy75G8k+X4dC8vPBbWMTGRuUy&#xA;vJJK9OUkjk1ZmoPooBsAMVf/2Q==</xapGImg:image>
    </rdf:li>
   </rdf:Alt>
  </xap:Thumbnails>
 </rdf:Description>

 <rdf:Description rdf:about='uuid:71890ad0-5257-11de-8344-001124740a56'
  xmlns:xapMM='http://ns.adobe.com/xap/1.0/mm/'>
  <xapMM:DocumentID>uuid:831aaf18-81ce-11da-9137-001124808cba</xapMM:DocumentID>
 </rdf:Description>

 <rdf:Description rdf:about='uuid:71890ad0-5257-11de-8344-001124740a56'
  xmlns:dc='http://purl.org/dc/elements/1.1/'>
  <dc:format>image/svg+xml</dc:format>
 </rdf:Description>

</rdf:RDF>
</x:xmpmeta>
                                                                                                                                                                                                                                                                                                                                                                                                                                                                                                                                                                                                                                                                                                                                                                                                                                                                                                                                                                                                                                                                                                                                                                                                                                                                                                                                                                                                                                                                                                                                                                                                                                                                                                                                                                                                                                                                                                                                                                                                                                                                                                                                <?xpacket end='w'?>
			</metadata>
		<g id="レイヤー1">
			<g>
				<rect x="0.125" y="0.125" fill="none" stroke="#000000" stroke-width="0.25" width="100" height="150"/> 
				<rect x="0.125" y="150.125" fill="none" stroke="#000000" stroke-width="0.25" width="100" height="150"/> 
				<rect x="0.125" y="300.125" fill="none" stroke="#000000" stroke-width="0.25" width="100" height="150"/> 
				<rect x="0.125" y="450.125" fill="none" stroke="#000000" stroke-width="0.25" width="100" height="150"/> 
				<rect x="0.125" y="600.125" fill="none" stroke="#000000" stroke-width="0.25" width="100" height="150"/> 
				<rect x="0.125" y="750.125" fill="none" stroke="#000000" stroke-width="0.25" width="100" height="150"/> 
				<rect x="0.125" y="900.125" fill="none" stroke="#000000" stroke-width="0.25" width="100" height="150"/> 
			</g>
			<g>
				<path d="M49.125,966.125c-5.1689453,0-8,3.1220703-8,9.5l-18.5-1c0-11.6318359,8.2294922-19.5,21-19.5
					c6.2216797,0,12.3466797,2.7666016,15.5996094,7h0.2001953l0.2001953-6h17v19c0,13.0322266-7.7236328,18.9990234-27,18.9990234
					c-17.4833984,0-27-7.3447266-27-19.4990234l18.5,1c0,6.8896484,2.7548828,9.5322266,7.9199219,9.5322266
					c4.6123047,0,7.5800781-3.0273438,7.5800781-9.5322266C56.625,969.2978516,53.6337891,966.125,49.125,966.125z"/>
				<path d="M44.625,1007.1240234c-3.6972656,1.9941406-6,5.3046875-6,8.5c0,3.3300781,2.2216797,5,8.5,5
					c8.7128906,0,12.5-2.6484375,12.5-7c0-2.8320312-2.7021484-4.5-13-4.5c-14.5654297,0-22-5.0800781-22-11
					c0-5.3300781,6.8300781-14.5371094,13-17l11,7c-5.8056641,3.515625-8,6.0253906-8,7.5c0,1.7666016,2.2841797,3,9,3
					c21.8945312,0,29,4.8623047,29,13c0,12.0146484-10.3603516,19.5-32.5,19.5c-17.5615234,0-25.5-5.9511719-25.5-14
					c0-4.7148438,3.4746094-9.7587891,9.5-13L44.625,1007.1240234z"/>
			</g>
			<g>
				<g>
					<path d="M60.625,811.9160156L60.7915039,806.125h14.5v18.6660156c0,12.6083984-7.777832,18.6660156-25.8334961,18.6660156
						c-16.5620117,0-25.8330078-7.2060547-25.8330078-19.0820312l15.7495117,0.7832031
						c0,7.0888672,3.4799805,10.1210938,9.6000977,10.1210938c5.6303711,0,9.3168945-3.3691406,9.3168945-10.1210938
						c0-6.6992188-3.7705078-10.2333984-9.4169922-10.2333984c-5.9067383,0-9.5,3.5605469-9.5,10.2333984L23.625,824.375
						c0-11.4599609,8.2285156-19.25,20.6665039-19.25c6.6157227,0,12.5244141,2.5283203,16.1323242,6.7910156H60.625z"/>
					<path d="M61.4580078,863.7070312c0-3.5947266-3.090332-5.75-14.25-5.75
						c-14.440918,0-21.5834961-4.7939453-21.5834961-10.7490234c0-4.8769531,6.0385742-13.0976562,11.6572266-15.4726562
						l9.3525391,6.1103516c-5.2612305,3.2148438-7.3427734,5.7675781-7.3427734,7.2783203
						c0,2.109375,2.4370117,3.4169922,10.4165039,3.4169922c21.0112305,0,27.9165039,5.03125,27.9165039,13.4169922
						c0,11.7998047-9.8398438,19.1660156-31.1665039,19.1660156c-16.9082031,0-25-6.0273438-25-14.1669922
						c0-5.1220703,3.8989258-10.5664062,10.2011719-13.6591797l12.1811523,2.9023438
						c-4.2109375,2.0068359-7.0488281,5.890625-7.0488281,9.4238281c0,3.7431641,3.1704102,6,10.4995117,6
						C57.2216797,871.6240234,61.4580078,868.46875,61.4580078,863.7070312z"/>
				</g>
				<g>
					<path d="M61.8251953,661.7070312L61.9580078,656.125h12v18.3330078c0,12.1835938-7.831543,18.3330078-24.6665039,18.3330078
						c-15.6401367,0-24.6665039-7.0683594-24.6665039-18.6660156l13,0.5673828
						c0,7.2861328,4.2041016,10.7099609,11.2797852,10.7099609c6.6479492,0,11.0532227-3.7119141,11.0532227-10.7099609
						c0-7.0722656-4.5488281-10.9677734-11.3330078-10.9677734c-6.6455078,0-11,4-11,10.9677734l-13-0.5673828
						c0-11.2871094,8.2275391-19,20.3330078-19c7.0107422,0,12.7021484,2.2910156,16.6660156,6.5820312H61.8251953z"/>
					<path d="M63.2915039,713.7910156c0-4.3583984-3.4790039-7-15.5-7c-14.3168945,0-21.1665039-4.5078125-21.1665039-10.5
						c0-4.421875,5.2460938-11.6582031,10.3134766-13.9433594l7.7060547,5.2197266
						c-4.7177734,2.9150391-6.6865234,5.5107422-6.6865234,7.0576172c0,2.4511719,2.5908203,3.8330078,11.8334961,3.8330078
						c20.1274414,0,26.8334961,5.2001953,26.8334961,13.8330078c0,11.5859375-9.3203125,18.8339844-29.8334961,18.8339844
						c-16.2548828,0-24.5-6.1044922-24.5-14.3339844c0-5.5292969,4.3237305-11.375,10.9023438-14.3183594l9.8618164,2.8037109
						c-4.7246094,2.0205078-8.0976562,6.4765625-8.0976562,10.3486328c0,4.1542969,4.1201172,7,12.5,7
						C58.6064453,722.625,63.2915039,718.9628906,63.2915039,713.7910156z"/>
				</g>
				<g>
					<path d="M63.0253906,511.4990234L63.125,506.125h9.5v18c0,11.7587891-7.8857422,18-23.5,18
						c-14.71875,0-23.5-6.9306641-23.5-18.25l10.25,0.3515625c0,7.484375,4.9287109,11.2978516,12.9599609,11.2978516
						c7.6660156,0,12.7900391-4.0537109,12.7900391-11.2978516c0-7.4453125-5.328125-11.7011719-13.25-11.7011719
						c-7.3837891,0-12.5,4.4384766-12.5,11.7011719L25.625,523.875c0-11.1142578,8.2265625-18.75,20-18.75
						c7.4052734,0,12.8798828,2.0537109,17.1992188,6.3740234H63.0253906z"/>
					<path d="M65.125,563.875c0-5.1220703-3.8671875-8.25-16.75-8.25c-14.1923828,0-20.75-4.2216797-20.75-10.25
						c0-3.96875,4.4541016-10.21875,8.9707031-12.4150391l6.0585938,4.3291016
						C38.480957,539.9033203,36.625,542.5429688,36.625,544.125c0,2.7939453,2.7441406,4.25,13.25,4.25
						c19.2441406,0,25.75,5.3701172,25.75,14.25c0,11.3701172-8.7998047,18.5-28.5,18.5c-15.6015625,0-24-6.1806641-24-14.5
						c0-5.9375,4.7480469-12.1826172,11.6035156-14.9785156l7.5429688,2.7060547
						C37.0332031,556.3857422,33.125,561.4150391,33.125,565.625c0,4.5673828,5.0693359,8,14.5,8
						C59.9912109,573.625,65.125,569.4560547,65.125,563.875z"/>
				</g>
				<g>
					<path d="M64.2255859,362.0644531L64.2919922,356.125h7v17.6669922c0,11.3344727-7.8120117,17.6660156-22.3339844,17.6660156
						c-13.9243164,0-22.3330078-6.7910156-22.3330078-17.8330078l7.5,0.234375
						c0,8.1201172,5.5288086,12.5322266,14.6396484,12.5322266c8.8125,0,14.5273438-4.6191406,14.5273438-12.5322266
						c0-8.203125-6.0380859-13.1337891-15.1669922-13.1337891c-8.2587891,0-14,5.1523438-14,13.1337891l-7.5-0.234375
						c0-10.9423828,8.0888672-18.5,19.6669922-18.5c7.9580078,0,13.5576172,2.2353516,17.7324219,6.9394531H64.2255859z"/>
					<path d="M66.9580078,414.125c0-5.3544922-3.3164062-9.6669922-17.6660156-9.6669922
						c-14.2514648,0-20.6669922-3.7617188-20.6669922-10c0-3.5537109,3.5898438-8.8164062,7.4550781-10.8823242l4.4228516,3.4311523
						c-3.4619141,2.2211914-5.2109375,4.8671875-5.2109375,6.6181641c0,3.0986328,2.5615234,5.3330078,15,5.3330078
						c17.71875,0,24.3330078,5.1162109,24.3330078,14.3339844c0,10.9726562-8.9956055,17.8330078-27.1669922,17.8330078
						c-14.9570312,0-23.5-6.0830078-23.5-14.6665039c0-6.340332,5.0976562-12.9858398,12.1347656-15.637207l5.2314453,2.4399414
						c-5.6621094,2.0478516-10.0322266,7.6508789-10.0322266,12.5307617c0,5.6767578,6.0615234,9.6660156,16.5,9.6660156
						C60.6621094,425.4580078,66.9580078,420.8271484,66.9580078,414.125z"/>
				</g>
				<g>
					<path d="M65.425293,212.6298828L65.4584961,206.125h4.5v17.3334961c0,10.9106445-7.737793,17.3330078-21.1669922,17.3330078
						c-13.1303711,0-21.1665039-6.6523438-21.1665039-17.4165039l4.75,0.1171875
						c0,8.7563477,6.1289062,13.7661133,16.3198242,13.7661133c9.9580078,0,16.2636719-5.1835938,16.2636719-13.7661133
						c0-8.9614258-6.7480469-14.5668945-17.0834961-14.5668945c-9.1337891,0-15.5,5.8662109-15.5,14.5668945L27.625,223.375
						c0-10.7700195,7.9511719-18.25,19.3334961-18.25c8.5117188,0,14.2358398,2.4169922,18.2661133,7.5048828H65.425293z"/>
					<path d="M68.7915039,264.375c0-5.5874023-2.7666016-11.0834961-18.5830078-11.0834961
						c-14.3100586,0-20.5834961-3.3017578-20.5834961-9.75c0-3.1391602,2.7255859-7.4150391,5.9399414-9.3500977
						l2.7871094,2.5336914c-2.7504883,1.8276367-4.3935547,4.4794922-4.3935547,6.3999023
						c0,3.4038086,2.3798828,6.4165039,16.75,6.4165039c16.1933594,0,22.9165039,4.8618164,22.9165039,14.4169922
						c0,10.5751953-9.1914062,17.1665039-25.8334961,17.1665039c-14.3125,0-23-5.9853516-23-14.8330078
						c0-6.7426758,5.4472656-13.7885742,12.6650391-16.2954102l2.9204102,2.1733398
						c-6.0854492,2.0625-10.918457,8.2392578-10.918457,13.7885742c0,6.7866211,7.0541992,11.3330078,18.5,11.3330078
						C61.3330078,277.2915039,68.7915039,272.1977539,68.7915039,264.375z"/>
				</g>
			</g>
			<g>
				<path d="M66.625,64.6953125V56.125h2v17c0,10.4863281-7.6640625,17-20,17c-12.3364258,0-20-6.5136719-20-17h2
					c0,9.3925781,6.7290039,15,18,15c11.1035156,0,18-5.7480469,18-15c0-9.7197266-7.4580078-16-19-16
					c-10.0092773,0-17,6.5800781-17,16h-2c0-10.5976562,7.8129883-18,19-18c9.0654297,0,15.6318359,3.5810547,18.7998047,9.5703125
					H66.625z"/>
				<path d="M70.625,114.625c0-5.8203125-2.2167969-12.5-19.5-12.5c-14.3691406,0-20.5-2.8417969-20.5-9.5
					c0-2.7246094,1.8608398-6.0136719,4.4243164-7.8183594l1.1513672,1.6367188
					C34.1621094,87.8769531,32.625,90.5351562,32.625,92.625c0,3.7089844,2.1977539,7.5,18.5,7.5
					c14.6679688,0,21.5,4.6074219,21.5,14.5c0,10.1777344-9.3876953,16.5-24.5,16.5c-13.6679688,0-22.5-5.8876953-22.5-15
					c0-7.1445312,5.7963867-14.5908203,13.1958008-16.953125l0.6083984,1.90625
					C32.9204102,103.1552734,27.625,109.90625,27.625,116.125c0,7.8964844,8.046875,13,20.5,13
					C62.0039062,129.125,70.625,123.5683594,70.625,114.625z"/>
			</g>
		</g>
	</svg>
