<?xml version="1.0" encoding="utf-8"?>
<!-- Generator: Adobe Illustrator 11 Build 225, SVG Export Plug-In . SVG Version: 6.0.0 Build 78)  -->
<!DOCTYPE svg PUBLIC "-//W3C//DTD SVG 1.0//EN"    "http://www.w3.org/TR/2001/REC-SVG-20010904/DTD/svg10.dtd" [
	<!ENTITY ns_flows "http://ns.adobe.com/Flows/1.0/">
	<!ENTITY ns_svg "http://www.w3.org/2000/svg">
	<!ENTITY ns_xlink "http://www.w3.org/1999/xlink">
]>
<svg  xmlns="&ns_svg;" xmlns:xlink="&ns_xlink;" xmlns:a="http://ns.adobe.com/AdobeSVGViewerExtensions/3.0/"
	 width="100.25" height="1050.25" viewBox="0 0 100.25 1050.25" overflow="visible" enable-background="new 0 0 100.25 1050.25"
	 xml:space="preserve">
	<metadata>
		<x:xmpmeta  x:xmptk="XMP toolkit 3.0-29, framework 1.6" xmlns:x="adobe:ns:meta/">
			<rdf:RDF  xmlns:iX="http://ns.adobe.com/iX/1.0/" xmlns:rdf="http://www.w3.org/1999/02/22-rdf-syntax-ns#">
				<rdf:Description  rdf:about="" xmlns:pdf="http://ns.adobe.com/pdf/1.3/"></rdf:Description>
				<rdf:Description  rdf:about="" xmlns:tiff="http://ns.adobe.com/tiff/1.0/"></rdf:Description>
				<rdf:Description  rdf:about="" xmlns:xapGImg="http://ns.adobe.com/xap/1.0/g/img/" xmlns:xap="http://ns.adobe.com/xap/1.0/">
					<xap:CreateDate>2005-10-18T08:31:30Z</xap:CreateDate>
					<xap:ModifyDate>2005-10-18T08:31:30Z</xap:ModifyDate>
					<xap:CreatorTool>Illustrator</xap:CreatorTool>
					<xap:Thumbnails>
						<rdf:Alt>
							<rdf:li  rdf:parseType="Resource">
								<xapGImg:format>JPEG</xapGImg:format>
								<xapGImg:width>172</xapGImg:width>
								<xapGImg:height>256</xapGImg:height>
								<xapGImg:image>/9j/4AAQSkZJRgABAgEASABIAAD/7QAsUGhvdG9zaG9wIDMuMAA4QklNA+0AAAAAABAASAAAAAEA
AQBIAAAAAQAB/+4ADkFkb2JlAGTAAAAAAf/bAIQABgQEBAUEBgUFBgkGBQYJCwgGBggLDAoKCwoK
DBAMDAwMDAwQDA4PEA8ODBMTFBQTExwbGxscHx8fHx8fHx8fHwEHBwcNDA0YEBAYGhURFRofHx8f
Hx8fHx8fHx8fHx8fHx8fHx8fHx8fHx8fHx8fHx8fHx8fHx8fHx8fHx8fHx8f/8AAEQgBAACsAwER
AAIRAQMRAf/EAaIAAAAHAQEBAQEAAAAAAAAAAAQFAwIGAQAHCAkKCwEAAgIDAQEBAQEAAAAAAAAA
AQACAwQFBgcICQoLEAACAQMDAgQCBgcDBAIGAnMBAgMRBAAFIRIxQVEGE2EicYEUMpGhBxWxQiPB
UtHhMxZi8CRygvElQzRTkqKyY3PCNUQnk6OzNhdUZHTD0uIIJoMJChgZhJRFRqS0VtNVKBry4/PE
1OT0ZXWFlaW1xdXl9WZ2hpamtsbW5vY3R1dnd4eXp7fH1+f3OEhYaHiImKi4yNjo+Ck5SVlpeYmZ
qbnJ2en5KjpKWmp6ipqqusra6voRAAICAQIDBQUEBQYECAMDbQEAAhEDBCESMUEFURNhIgZxgZEy
obHwFMHR4SNCFVJicvEzJDRDghaSUyWiY7LCB3PSNeJEgxdUkwgJChgZJjZFGidkdFU38qOzwygp
0+PzhJSktMTU5PRldYWVpbXF1eX1RlZmdoaWprbG1ub2R1dnd4eXp7fH1+f3OEhYaHiImKi4yNjo
+DlJWWl5iZmpucnZ6fkqOkpaanqKmqq6ytrq+v/aAAwDAQACEQMRAD8A9U4q7FXYq7FXYq7FXYq7
FXYqhtT1Kx0vTbvU7+UQWNjDJc3c5BISKFC8jkKCfhVSdhiqJxV2KuxV2KuxV2KuxV2KuxV2KuxV
2KsW/Kx3f8uvLruxZmsYSWJqSePjirKcVdirzfyzp2tRXXlUz21yiwXmvtdGRJAESW4mMBkqNg6k
FK9R0xV6RirsVedfmP5ovob/AEXTItC1SZf0zaFbiBbb0rj0Fa6KRFp1ev7mvxKv2T2xVS0PzfqF
z+Y+tyny3q6RtZ6VYlGW0pAUlu5mkkpcmgZbpfs1NF6Yq9KxV4n5/i0vWNG/MyPX72WTW9L0+/fS
NGeeSGKGzSwLw3MNurIk3qPyLSsGofg2pTFXp2ieStJ0PUGu9KmvLeB42jk01rqaazLFgwlEMzSC
NxxpWMrWp5V2oqn2KvPrfyx5b81ec/Nb+ZbGDWJNLubax020vY1mit7V7C3ufUhjkDKryTzSgyqO
R4ha/DiqWadrmpxeU18r6HdSSalf6pqOkaBfuxleHT7S5dJrss1eS2UdYkLV5OIwftYq9J0jS7LS
dLtNLskKWdlCkECkliEjUKOTHdjtuTuTirEvzIt7CbUfLia/H63lGW5kg1SJ/wDeY3MyBbH62vRo
DJySjVT1GTl2xVBeWtN8s2v5jPD5KtIbLSbGxuIPMSaeixaebxpYTaxCOICE3MapMXKjkqkBvtCi
r0XFWN6Tb3qefPMU8kUi2ctnpi28rKwjZ0N16gRj8JK8l5U8RXFWSYq7FXYqxr8tLS6s/IGgWt3D
Jb3MNlEk0EqlJEYLurKwBB+eKslxV2KuxV2KuxV5r5x8weY285+V7WPyvdyrZajeXVs63NiouFis
Lm15JymBUcbrlR6H6dsVXeR9c8wXXnHzTLN5buoIp9St7ae4e4s3W3EGn254twmZm+KQmkYYb+NQ
FXpGKsG/OfRtE1T8sfNM1/ZW95NYaRqM1nLNGkjwTR2sjB42YEowKjcYqutbW68q+bdH0mz1C4vN
D1tbmJdOvZXupLSW2i9YSw3Epeb0So9NkdmAJTjx3BVZvirHvMnk3ynqkzarq0TwzwQlJ763urix
c26VcpNLbSQGSJak8XJXrtirzvStPubufRLrTuegWnmeU2Oki2VYpbLy9Y28lzFDCGBEU17IgkkI
HII1PtICFWY6XBf+XvPNroiald6hpGr6fdXkUN9K1zLbXFjLbxsUmespjlW7FQ7EKyjjTliqjqum
nzr5k1fQNTmkj8r6OsEN3pcLGJr+e4jE5NxIhEn1dI2VRGpAduXOqjjiqVfpf/lVWlS6NexmTy3F
DO3le/RSWWRVaRNMuAo+KVj8Nu/WX7J+MVdVn3lu31G38vaXb6nK0+pQ2kEd9MxqzzrEolYkdSzg
nFUxxV2KuxV2KoXStP8A0dpttY/WZ7z6tGI/rV2/qzycf2pHoOTHuaYqisVdirsVdirsVS+60S1u
dasNXkeQXOnR3EUEYI9Mi69PmWBBPIeiONCOpxV2k6JaaXJqEkDyO+pXb3twZCD+8dEjovELRQkS
gfrxVMMVYL57/K601zR/MK6Ncz6TrGtWVzBKYbiSKzuJpoDEpuoKSxEGoDusfqce9aYqnmh+S9L0
q/bVGnutS1d4zAdR1Cdp5ViJDNHEvwxRKzKCwjReRpXoMVT7FUs8yeX7PzBpMmk3skqWVw0Zuo4S
q+tEjh2gclW/dyheEgFCVJFcVWeYvLVlrlnBBLLNZ3FnMtzp9/aMqT206KyCSIusifYdkKurKykg
gg4qhdA8oDTdTm1i/wBTuta1maEWwvbwQp6VuG5mKGK3jhjRWajMeJZiBU7CirWteTo77VBrGn6l
eaJq/pLBNd2JhYTxRlmjjnhuI54ZAhduLcQ4qaMMVS+4/LHTtVP/ADtepXvmZFVhFa3xhitY2deP
Nbe0itkLqCeDycmU7qQcVZLo2nNpml2untd3F/8AVYxELu8ZXuJAuwMjosYZqbcqVPU1O+KozFXY
q7FXYq7FXYq7FXYq7FXYq7FXYq7FXYq7FXYq7FXYq7FXYq7FXYq7FXYq7FXYqkPkXzhY+cPK9p5h
sYZbe1u3nRIZ+PqA21xJbtXiWG7REjfpiqfYq7FWIaT+ZelanJpKRWs6HV9U1DR4OfD4ZdNS4eR2
ox+BhaNxpvuK4qy/FXYqkvmnzVZ+XYdNkuopJv0nqVppUCxcaiW9lEaseRHwr9pqb0xV0Pmqzm85
XflVIZDd2dhBqM1xQeiFuJZIkjrWvP8AclunTFU6xV5t+ZP5y6d5bttd03RrS81jzJpWnzXc6Wds
09tYt6LSQyX0paJEj25MA3Lj26YqmHkX807HzHJZ6Ze6bqWj63cWouUg1C0aCKdVVTJJbyqZYnSr
VHx1p2xVnOKsK1/8yLm08xXHl7y95evfMup6fDHcasLSS3gitUmBMSPLcSRqZXUcljXfjviqZaL5
+8uap5Qk81iV7TS7ZJ31AXS+nLatalluIp034vEyEECvtUUxVMPLOtNrmgWGsGzmsBfwrOlpc8RM
iPunMKWAJWhpXbFUr87+frHyr+jrb6ldarrOszNBpOkWKq087xrzkasjIiRxru7s2wxVAaB+ZU91
5kt/LXmLy/e+WtZvYZLjTY7l7e4guUgoZVintZJU5orBmVqbYqzbFUqs/MVrdeZdU0BInW50q2s7
qaU04Mt806oFoa1X6q1ajuMVTXFXYq7FXmv/ADjj/wCSd0X/AIz6l/3U7nFXpWKuxVhGi/ljBpcm
jOuoNL+h9X1LWVBjC+o2ppcoYj8R4iP659rvx6CuKs3xV2KvH/ze8r3955o8nxJ5k1WFNU8wQtHZ
xmyEFqLW0nm9W35WzSeoGjFPUZ13O3Siqh5O8n6lL+bnnB2826zI2jx6PbtKzWBe4VopLow3FLQL
wHqCgjCNRjU7iir2fFXhX5laB548paV+Y99pNhBrnlfzZZXdzfkTLb3unytYtBLKQ44TwhV5cVIc
dKeKrOPyt/Mjyx5g02z0O3eaz17T7G3N1pF/C9tciMRqvqorikkZ7MhI3HjirPcVeaTS+ZPJ3n7z
Nqi+Xr3XtG8zfVLq3m0sQvNBc2lqlq8E8cskJ4usSsrgkCtDirz71VhS70Xzg66Vo/6Ul82efIEb
6wkbX1wG0zRf3QYyySlUllVF+ILt9rFXtHlf8w/LPmS9uNPsJLiDU7WNZ5tOv7aeyufRc0WZYrlI
2aMnbktRX5jFWGfnlf2+mXnljW9KuBL560q6kfQNDRHml1CG4QR3lt6cQZ0Vo1B9UjihUVxVD/l5
qF75+19fzI1uWLT7Py8t5YaZ5ajLPcWUrEJdy6gzLGwnZI6CPjRVodzuVXqWia1put6RZ6xpc31j
Tr+JLi0n4unOOQVVuLhXFR2IriqDsfLiWnmvV/MInLvqtrY2jW/GgjFi1wwYNXfn9a6U2piqc4q7
FXYqwz8nbLRrH8vNNttG+uDTklvTD+ko1iuqtezNJzRdgPULcPFaHFWZ4q7FXYq7FXYq8e87fl89
5+anlDhq2uehdSave3Ekd7KEtStuqqsDdIAxuOAUdV26A4q3+WXkF083+b9Wm1TWh9V1xILcT3kt
LqO1s7ejXAP9+tWKgn9kU7Yq9gxV5J+b3n++sPK3nPQtW8t6lDbXGl30Ol63axG8splls2VTO8NW
tmDsQfUWlBy5UxVL/Kj3/nLzj5C1jT9CvLDSfKWnzi91rUbdrT6011ZC3jt7VXpJKgYmQuV47be6
r2vFUl85+Y/8OeWr7V0tZb64gQLaWMCs8k9xIQkMSqtT8UjAE9hv2xV5hrfkrUfLHlfyxrWoQNrO
oWPmGLzF50e2iMrySzRSxyXEcagu62byp6aqPsJWm2KprYa/pvnf82NB1fyys1xpPl/T79dU1gwS
QQyPfeiILRGlVGkZTE0jACi7b1JGKofVNVg8k/nFrPmXzPa3B0PW9Os7XSddigluYrI2xf6xay+i
sjxCZ2WSvHiaexoqw38xtU/xNf3Wp/k1DqF55j1K0msvMc1vaywadPZmB1DTyXIgQ3cdR6DIS37J
22xV7V+W91os/kbRU0ZZotPtLSG0iguo2huIvq6CIxzRtusi8fi8eoJG+KskxV2KuxV2KuxV2Kux
V2KuxV2KuxV2KuxVD6jp9lqOn3On30K3FleRPb3UD/ZkilUo6N7MpIxVUt7eG2t4reBBHBCixxRj
oqKKKB8gMVVMVdirsVdirsVdirsVdirsVdirsVdirsVdirsVdirsVdirsVdiqncXFvbW8tzcypBb
wI0k00jBEREHJmZmoAoAqScVdb3Fvc28VzbSpPbzoskM0bB0dHHJWVlqCpBqCMVVMVdirsVdirsV
dirsVdirsVdirsVeS/8AOM/mLXde8h6hea1fz6jdR6xdwJPcOZHESLHxQFv2RU0GKvWsVdirwGy8
3+aH0by9K2q3JkuPzIl0udzK1XsRJdAWzb7xfAvw9NsVe/Yq7FXhH57fnh5Z0i80zy5p3mCWx1ux
12w/xBHCl3GYtPoZLgtIkfGROLJVY2LGuw2xVBaT/wA5F+R7z86LmX/E0x8qTaVBY6ZAYbwQyajJ
chmYQ+jVW4njzdR86Yq+hMVfOH5leaPPfnTUvzM0HTdaTy/5b8laVM17YpBHLc6lztZXdWdzyjjP
plSU7EbEnZVln5I+XPzP03RPKV7N5og1byde6RbSy6TdWqxXNoJLRWgjtp46l1QlVPqH7I6VNcVe
x4q8bvrXzF5//NrzX5ebzNqfl7Q/KFvp6W9voswtZri41CA3Bmml4uzKlOPDp0/yuSqA8v8A5ueY
dJ/LDXP0lMNb82aTr135U0OQKofUryNlW2fiKA7SVbxCnvir1byNomraJ5V07TtZ1KbVtXjj5ahq
E7mRpJ3JeTiT0RWPFB/KBirz/wDPfzL5hs9Z8k+WtO1p/Lem+Zr2e31TXIVHqxCJYzFCkjCkbTNI
QG67eFcVSRG8xfl/+cflLyppnmvVfNOn+YI7k6tpeszre3FrHEnKO5WYKjIpPLt0Ujwoq94xVgGm
6vqkn5463pL3UraZBoNlcQ2ZY+ksz3MqtIF6BmVQCcVZ/irsVdirxj/nFGCeH8utSWaNo2Ot3pCu
CpoVi33xV7PirsVU/qtsAAIkor+oo4jZ/wCYf5XviqpirsVfOf5x/m15bn8/eTtONrqXHy5r0txq
I+pyfvGs1aMG32rN8VT8O1N8Vd+XP5teW7v88PON/wDVtTCeYJNG07SlNnIPTKQmKQ3Ip+6HqsCC
x+zvir6MxV5B+fH5ReTda8t+YvOBjmsPMenaTeTG/sZTC06wWzMIblaMsiMq8G25Fdq0xViX5V+b
vzB8mXv5d+XPMF7DrflXzppcLaHKIxFdWDx2scv1c8f7yNBKiVbcjeooVKr6MxVgfm38odM13zGf
MthrOqeW9cmtxZ3t5pE6wm4gX7Kyq6SAsv7LChH0CirwuN00Z7TW/JlqlxpOnasnlT8vpL9jLHd6
xqLML/WLhl4mT+7McbD4fADjTFXrGleYPzJ8qfmN5f8AK3m/V7XzHpvmqG6+pahFaJYSW11ZRes8
bIjOro6bKTuT4U3VSj83J7/8yPNz/k7pMVtbwW1vFqnmDW7qP1Xtk5KYls46r+9PMVavRiPHFWK+
WtQtvyS1PzLYecbcSa7f211eaB55l9SY6ksUfNbSV5GkMcqsi/ADRjT/ACSyr3D8rdY1/Wvy90HW
Nf4fpbUbRLq49NPTWkxLx0Xt+7ZcVZOIohIZQiiQjiXoORA7VxVdirsVdirHvI/l7zBoOkzWeua/
J5ju5LmSeO+mhEDJE4XjDxDy1CUO9e+KshxV2KuxV2KuxVifmDyIdZ8/eVPNjX3op5WW/Edh6XL1
21CAQFjLzHDgFrTia+2Ku8meQv8ADeu+atXa9F5L5mvxfFBD6XoKqcEi5c5PUp/Nt8sVZZiryH8z
PyV1XUrfzNqnlHzDqWnajrdpcfX9CWVJbG/la2MQj4TlVhaUKsZfl8I6UxVr8p/yNfQ30DzJ5r1O
81bzLpemw2tjY3Lp9W0wGARvBAsZdWMYrHz5UPXrvir1/FUk866Fqmv+V9R0XTNT/Q11qERg/SIi
9do43NJOCc4viZKqG5fDWuKsf8y/lFoWq/l9YeTdPnk0iLR2t59Fv4AGktrm1NY56HiHYkty3Fan
cHfFUD5c/LDzQfOdh5u87eZF17UdGt5bfRbe2tFs4ITcrwnmYBn5ySJ8PYfhRV3nX8pNS1LzhF52
8o+YZPLPmgW31O8m9BLu3uoAQVSWF2UbUG+/QbVFcVSbW/yM80edikH5jecpNU0m3YyW2k6ZZxWE
YmKFFleQmZ3K8jQH+JGKs/8AIHlzXvLflu30bWdb/T8ln+6tb9rf6tL6CgBEl/ezCRlG3Pao6iu5
VZHirsVdirsVdirsVdirsVdirsVdirsVdirsVdirsVdirsVdirsVdirsVdirsVdirsVY75N/MPyf
5zivJfLWofX49Pl+r3bejPDwkIrx/fJHXp1FRirIsVdirD3/ADc/L1NNn1JtWpZW2qnQJpfq9z8O
pChMHH0uR6j4wOH+VirMMVdiqR+bvO3ljyhYW9/5ivfqVpd3KWVvJ6Usxe4lVmRAsKSNuI23pTFW
/wDGnlr/ABd/hD65/wA7ELX6+bH05f8Aeblw5+rw9L7X7PKvtiqd4qw38x/zW8oeQ9KubjVb+3Gq
LbS3Gn6Q0vCe5dFYxxqFWRkWR14cytBiqD/Lf86vI3nmysls9StrfXbiFZLjQ2mrPFIV5PGnNYjL
w7si4qz7FWE+evzl/LzyPfQ6f5h1P0b+eMzJaQxS3EgiFf3jrEr8F+E/a8MVT7y75v8ALXmPQI/M
GjahFdaPKrOLsEoqhPt+oHCtGVp8QYCmKu8p+bvL/m3Rk1ry/cteaZK7xxXJimhDtGeLcRMkbMA2
3ICmKqHnPz55S8l6WNT8y6jHp9qzcIuQZ5JH68Y40DO58aDbvirHPJv5+flX5v1dNH0XWQ+pygmC
2nhmtzLQVIjMqqrNQfZrXFXoWKpOnm7y8/myTykt3XzBFZ/pJ7L05drUyCL1PU4+l9tgOPLl7Yqn
GKuxV2KvnX/nDb/jlecv+2qv/EGxV9FYq7FXhE35D+b38p6jo4vNP+s3fnVvNEbmSb0xZEKPTY+j
X1vh+zTj/lYq93xV2KvmX/nJaz/Mq680eV9KfU9OOiatr1qvlyz4OJorlQsSyXLBfiRXnP2a7HFU
t8t6X+dV5/zkJ5h9PV9I/wAT6Tpttb6nfNA/1VrWcQTKkKcOQk4kfER44q+rMVfHX5z6Vc+V/wAy
/O+u+bvLs2taT5i0y4tfLmshBNDaXM1sIrdjy+BGiYcd6Mv2kr3Venf84/W35Ma9ofla+0yLT288
6BZILoxJ9XvBKYTBM8qUjM4o5HMhgDShrir3fFXz1rfmGy/Lj/nIPzJ5n816fctovmHTrWLRtVgg
e4VHhiijkt/h+yZHiO3+rXY1xV5/5cutdPlK58hWkbeXG8/6vd6xcLcARDTPLYCCSaQNxEYlETIl
aBlX/KU4q+mfIPmL8t59Nt/L3k3V7C9g0m3SKOzs7iOV0hjAQOyqeRqerdyfHFXl/wDzlTotxajy
p5/Vba8tPKd6HvNJu3VFuEmliYBA+zEmHiygE0NaGhxVjUGqy/nZ+Z/lrzboel/oXyh5ImS51LXL
z045ZZImjuTA3FiOKekAN6KrMxpUDFX0zYajp+o2kd5p9zFeWctfSubd1ljbixVuLoSpowIPvirD
LfyHq8f53XPntprc6RNoA0hYAz/WfXF0k/Irw4cOKdeda9sVZ3irsVdirxP/AJxi0nynp2neZ18u
+YH1+OXUA9272Ulj6MnE/uwJHk5/6wpir2zFXYq7FXYq7FXyv+cHlP8AMm4/OXyjpjecPVk1TUL6
+8u1tYwNLRGEiDr++4ooX4v5ffFVP8pPJ35lah+b3nS7h85cLzRb+yttevjZof0kiM4aIA0EXFbf
iePiDir6sxV4T+cP566Fpll528j69pt9pl1cabd2uh37xM9te/WLMopVgAV/fOVrQrtUkdMVeP8A
5XQaZ5j/ADK/LiTyNpU9teaDZ25846nGhhgdo1pKWptVkqhY7yFqb9Sq+1sVSvzT5k0vyx5d1DX9
Vk9Ow02Fp5jtU8fsoterOxCqO5OKvlrzz5W8y3n5N63+ZWtwyfprzdf2d3qNvGSWttBV/wDR7dR2
WvpOfbjy3BxVPmu/y11D87Py1P5UxWwkt47l9bfS4vSRbIxKIxc0UDnx9QNz+LcA7lcVU/zfv9Jt
P+cjtGm/MqN5PIUdoDpAmR5LL1uHxNJGgYPSc/GKHbhy+HFWG/mpr/lHRfMN7e/k1rf1mTzTaXNp
5i8uWMEslv6ckL8riKihFKhmai7oakfCSMVfQX/ONl75al/KDQbLQ79b36hEU1BRUPDdzO1xNG6n
cUeU8T0I3GKvT8VdirsVdiqC0zRNF0pZV0uwtrBZ25zLbQxwh2/mbgFqfc4qjcVdirsVdirsVQs+
k6VPfwahPZQS39qCLW7eJGmiDAhhHIRyWtd6HFXWmlaXZT3M9nZwW094/qXcsMaRvM+/xSMoBdtz
ucVRWKpf5g0LTdf0S+0bUo/VsdQgltp1GzcJkMbFTvxajGh7Yqt8t+XdL8uaFZaJpcZjsbCJIIFY
8m4oAoLN+01BucVTLFUNqOmabqVq1pqNpDe2jkF7e4jWWMlTUEo4ZTQ4qrvDE8TQuitEylGjIBUq
RQqQdqUxVL9H8seWtFaVtG0mz0xp95zZ28UBc9fj9NV5fTiqI1HStL1O2NrqVnBfWxIJguY0lSo6
Hi4YYqhdF8q+V9C5foTR7HS+Y4v9StobeorWh9JV774qq6Z5e0DSXmk0vTbWwe4p9Ye1gjhMnGpH
MxqvKnI9cVR+KuxV2KuxV2KuxV2KuxV2KuxV2KuxV2KuxV2KuxV2KuxV2KuxV2KuxV2KuxV2KuxV
4l/zjf8Amx5v8/X3m6HzDJBImjy2iWXoRCKgma5D8qE8v7lcVe24q7FXzNq35+fmFa+SPPOsRTWw
vdA8xLpWnkwKVFsZHWjrX4moo3xV9JWEzz2NtNJ9uWJHamwqygnFVfFXiH/OQv56P5Os7PT/ACpq
1j/iT68kOpWsvGZ4IDEzVkjr8HxMhqcVQR/5yL05vztGip5h01PIMdl6kl+SnBrn0q8BcFqfaYfd
TFXvmKvnj82Pz585yecNU/L38vtGivb2ytpf0rf3BPwKsXOZogJIlQRK1Obtu2wXpVVjv/OM/n/8
2Y7bR9Jm0JtX8o6nezR/4gZ5XmgcAtJ6snKUBV4fCrotenLfFX1Tirwvzt+YX5r67+bt7+XP5dzW
OlyaLZJe6jqN+nqczIkbhRVJQF/0iNQAla1NaYqv8hf85CzS/lZ5h8x+cYIodY8rTvY3UcB4pdTk
AQKg+LizueDUqBTlsNgqz38oNQ886r5HstY86NENW1Ot1FawxeiILaQAwxstSSxX4zXcVp1GKsN/
5yD/ADj8yeSrjQvLvlW2hk1/zC5WK7uhWKJeaxIFBKqXZ36seKgbg12VYXqn5tfnl+WPm/QrD8xZ
tM1rSNbahaxULIiBlSQoVSA84zIpoyEN0B7hV9NYq8vufzB8xx/85CWvkZXi/QMujm/dPTHq+sC4
r6nWnwjbFXqGKuxV2KvmD/nC3/jqfmF/xnsP+J3uKvp/FXYqxWb8rPy9msNQ0+XQrZ7LVbkX2oQE
NxmuQSfVff7VWOKsojjSONY4xxRAFVR0AAoBiq7FXxp/zkZq35N6j+ZGjfo9ka/j1aWDz5c+neKU
S2lhgZWDJR6KkorBX7PeoxVLfJsf5Aal+emsW93FE3ke9hitfLVrwvwr3shto1oAPWWrerUy0Xf5
Yq+3cVfM/wDzkX+T1xo82s/mx5W1qXTL5I1/S1kKgSCbhbOY3U7c1Yc0cENuajpirGfyI/NHzX+X
N55b8j+Z9HRPL/mgwXmj36keqqamV9KXkrNG8ZZl5KeLJvXwxV9fYq8f8/fkl5mvvPz+fPInmb/D
mv3lsLPU/UhE0cyKqoGFeQHwRoKFTuoYEHFXz1qWm6T5Zvr7TZZZPMflnyTeLqPmac0jj1TXpyIY
bSv7zjFFxYNy5GgmP7SjFXtXlr8+vzDtPNXlfSvP3la30nTfOIRdEvLSRiweUqIxIheXvLGGU8Sv
IH2xVJf+csNV8u+Yb3R/IOm6XNq/n95Fl057dgn1VJ6ckdmBD+qqVK7BQA5YU3VeaaLqC6B+YWqX
n51ve33mzy3YGfyzaX0nOyuZrWNngjaRQ9RIygxsPhZq8qtsVX1Z+UHn698++R7XzPd6cNLN3LMk
NushlVkhkMfMMVTqysOnbFU+byp5cbzInmZrCI69HB9VTUaH1RDueFa0p8RxVNsVdirsVefflVpP
5q6fca23nu406eGZ4TpA0+OOMqqmX1fV4RQ12aOla98Veg4q7FXYq7FXYq8U/MP8hovMX5qeWfMF
jpOlRaBaStc+Y4jFEkl5K8pkYyxiJhPyp8XqHepxVZ+Wv5BQaF+Y3mzzBrej6TLpV5dCbyxbRxxy
/VEWd3VkjaJVgYLwpw6dMVe3Yq+bP+cgvye8/GLzT5p8ueYbq603WBA+reVxHI5l9P0oU9JY+auV
EakVQMAPtHFVP8p/+cdvNN9qXlXzn581s3Uek2dlLo2iBZA8EcKLJbQTeosfp+iackVTVq1Piq+l
8VSTzsnmqTyrqUPlQwr5gmhMVhLcsUijdyFMpIV941JZRTcgV2xV5ev/ADjpbf8AKjJfIS3SRa7d
smoXeqHkyPqIYOSx+0Y6D0gaVp8VK4qkuh/lB+cPmHzb5PvvzCu9Ng0nyKyPpy6eWaa5kiaNkZ6i
g5G3j5H4dhstSTiqYfm5+R3nTU/zCs/zH/L/AFW3svMVsiLNb3dQpaNDEHjbjKp5RHgyOtKd96Yq
xfzL+R356/mheWZ8/ajo+l2mnq6wSWkIlnJYD+QKSrEbgygDqFxV6l+Rnlr8yPKflpfLHm1NPmst
OHHSb2xkYuYyxJiljMcfStQ/U999yq9LxV2KuxV2KuxV2KuxV2KuxV2KuxV2KuxV2KuxV2KuxV2K
uxV2KuxV2KuxV2KuxV2KpPo3nLyhrd1LZ6Lrmn6ndwKXnt7O6huJEUEKWdI2ZlHI03xVOMVdiqRH
z75GWG+mPmLTBDpciw6nKb23420kjFESdudImZ0ZQGpUgjFU4tLu1vLWG8s5o7m0uY1mt7iFg8ck
bgMjo6kqyspqCOuKquKpdrfmTy7oNvHc65qlnpVvK/pxTX08VsjPQnirSsgJoCaYqpnzZ5WGrw6K
dZsRrNwokt9N+sw/WZEKlwyQ8vUYFAWqB03xVNcVQeraxpmkWMl9qVzFa20SlmkmdIwaAmgLlRXb
xxVin5W/m95X/MnTru+0KO5thZTehLb3qwpMfhVuapFLN8HxUqT1xVm+KpP5h84+U/LcccnmDWLP
SlmqIfrc8cJenXgHILU70xVH6dqem6nZRX2m3cN9ZTjlDdW0iyxOK0qroWVvoOKobRvMvlzXBOdE
1Wz1QWzBLk2VxFcCNzWiv6TNxO3Q4qiNT1bS9Ks3vtUvILCyi/vLq6kSGJf9Z3KqPvxVJ9C/MXyF
r939S0XzFp2o3m5Ftb3MUkpA3JCBuRA8QMVZFiqXv5h0CPWY9DfU7Rdalj9WLS2njF00YBPNYC3q
FaKd6dsVTDFXYq7FXx//AM4d/wDk0/NP/MBL/wBRkeKvsDFXYq+Sbn8nPzLfy1+bVouhym48w6tY
3OjR+pDW4ihvrmWR1+Og4pIp+KnXFX0r+XWm32l/l95Y0y/iMF9Y6TY213ASCUlhtkSRCVJHwspG
xxVkOKvjb/nLrzH59vfMVv5d1TS4rby5DdNJ5evUR1lu2EMay8mMjI3BpqbIuKsZtvNf5wT/AJ7R
63B5cgk896ZB6Q0MRzGGONbP0N4zPz/uZeX971P0Yq+67V5ntonmXhMyKZUHQMR8Q798VfD358ag
dV/Py+07z1fXdl5csnEVr6C8zDbG3DxNCh5D97JQuwBO52NOOKph/wA4uflZpnmbUrbzSuuGz1Xy
7qkcsmlIVLT20apIp+FlkVWkqpJBVgCMVfauKvkP80/8ID/nKC9P5oer/hH6hEdP5+sY+H1NePH0
P3nD6z6v2f2+u2KsQ/Ln8xde8ufldr3lzQTPLqXmvVI9P8tQA/GnqJwupU8HKvDGN/tGo+ycVfWf
5O+RNI8ieSbPy5aSxT38Y9fV5o2DGS7kA9VjTfitOC1H2QO+KvFf+c19M8xyx+XNRVJpfLFsZUvB
EfgjuZGXi0goQC6VVGNabjvuq8h842PkPV/OPlu0/JKy1Aai8cTyqzSl1vOSshUysxVoqEyOD6Y6
g0BOKvv23EwgjE5DTBVErL0LU+Ijp3xV49qnknzTN/zk7pHm6OwdvLtvpL202ock4LKY5wE48ufW
Rf2cVeyYq7FXYq+af+cZvJelaH+YPmC8s/NOl65LPaSI9nYNMZYgblG5P6kca0BHHY9cVfS2KuxV
2KuxV2Kvib/nIA/m5f8A5taTpGsNDJI2pS/4IgU24/cXN4I7Yycehb04wTLvtviqG/Ln/ldWofnr
rF7p7QTebrSRovMshNrwWBJ44LhU5fu6jgF+DfbFX3Fir5P/AOcpPzO8i6suv+TLjSCPNOiy2q6Z
rJjR+SN6cs8Yk2kjoJGHHdWpWvTFXjXkwQw/mR5L/wACz3j6nI1h9d5DiVvWb/S44+NOUHD7XLty
rVd8VforirH/ADnoHkbUNLlvvN2m2N7YaZHJcPPfwxyiGNF5yMGcEqKLvTrir5B1mz1TzD5V83/m
7ZWn6H0iwMWj+TbK2jWFLa0e4WKaSJY+KpRJWUlducj03XFUq0+Dy35V1P8AK3WvIetyXXmfVWT/
ABFaxzCQxzPNCvoPEgDKJDJIhRvtBQe9Sqzj/nKLzfq99+amneSdb1CfR/Iw+pyXbwgkSxzPWa5Z
QP3npbqq7gFa0rirzzz2dH/LjXr1Py082RatoXmLT5rO7hjkEs0UUq8XjmdFVK1PKNlow3BFPtKv
pL/nERrE/lOPS1Fb6/mvp7jUYeZeS3duMUcbhviHKOFWHY12xV7ZirsVdirsVYr5U/K3yD5S1K51
Py7pEen314hiuZ0eVy6M4cikjuPtKDsMVZVirsVdirsVdirHta/L7ydrfmHTvMeqaZHda1pPA6de
M0gaIxuZEoqsENHNdxirtC/L3yboOu6lr+kaZHa6xrDO+pXitIzStLIZXJDsyjk55fCBirIcVYJ+
bP5Q+XvzF0J7G7WGz1Osf1fWhbxzXMSI4dkRiUbi4FCOWKon8uvyp8oeRtKtLfTLC2OqQwLBdayI
ES5uCAAzM/xMORFSvKmKsyxVLvMXl3RvMej3Gjazb/W9MugouLYu6BwrBwCY2RqclHfFVOy8q+XL
Hy4nlq20+FNBSE2w04ryhMLV5IytXlyqeVevfFWM+WPyL/KjyxrS63onl6K21OMsYrhpbif0y1am
NJpJEQ79VAxVOfOH5d+SfOVvHB5m0iDUlhqIZJAyyxg9Qk0ZSRQe4DYqx7Q/+ce/ya0S6+tWPle2
aahWt0894oBFDRLqSZR160xVNvKn5T/l95S1KXUvLekLpl5MhjmeGWfi6E14tG0jIRXcfDt2xVlu
KuxV2KuxV2KuxV2KuxV2KuxV2KuxV2KuxV2KuxV2KuxV2KuxV2KuxV2KuxV2KuxV4F+UP/OSWt+e
vzEbyrd6NbWduI7mT6zFJIz1g6Cjbb4q99xV2KvnaT/nKDXkt/zAl/QlqT5OkjS2HqSfvw+orZfv
PD4X5bd8Vev/AJW+cbnzn5B0jzNc26Wk+pRu728RLIpSV49i2/7FcVZViryL8+fz1b8trbTRplva
6pf3k0kdzaySkNCsaKwLBCWBPMUriqRRf85KXb/mnpHk36np/wCj72G0e+1T6yeMTz2i3MoBNE+A
txFTX6cVe9AhgCDUHcEdCMVeL/m9/wA5PeWvy/1l9AtdOk1vW4AjXcKyi3gh9RQyq0pWUl+LBuIT
6cVeV/kx/wA5ReY5fOkmnebmu9XttduYbXSYYFgrayzTFFWnGIup9RVJ5V26HFX15irw382v+cid
Y8ted18jeT/L51/zAkaSXKn1Hozxev6UcMI5uRDRy3LYYqmf5Yf85F6B5t8j655k1e3/AEPL5aRZ
NWhD+ohSRWMTRMQpJlaNlVOvLbeoxVNvyP8AzJ80fmHoN35g1XSIdJ0tpjDpQjd5JJglfVdiwUcV
NFBHUhulMVQX55fn3pv5YxWdpHYnVNc1BGlgtS/pRRxKePqSvRm3bZVA3odxiry+w/5zE806Zqlt
H5z8nmx067pLHJD60Ewt2PwyxpcDjMPkVBxV9P2F7a39jb31pIJbW7iSe3lHRo5FDIwr4qcVeZ+Y
Pzh1LS/zx0T8uY9PhkstVt1nkv2dxKhZJmoFHw/7pH34q9TxV2KuxV8Qf84sf+T5f/jBf4q+38Vd
iryR/wDnGXyG0XmqI3+qcfN7q+pH1besZS7W9Hof6P8AD+8Wnxcvh998VZ/5J8oab5O8rWHlrTJZ
prHTkZIJLlkaUh5GkPMosandz0UYqnmKvhH/AJyhsvKJ/Mu5v9E1pdQ1C/nlj1u1pRbKe29O3EZN
PFGr8sVYxpfk38vrz805fLkvmUw+Ug8iQeYCq1k4xVSi9Pjl+HFX6I2sAt7aKAHkIkVAx6kKKVxV
8Z/85Lfl75o8l/mEfzKsZYpNM1DUIZbSZwkjwXyx+oI5IZAVdT6DMpoRTY+6rGPyN/Mfy35b8+TX
XnHRkvV1i6t7iLUCi+pYXHqNIlzGjDlxPrVPFgePTl0xV974q+dfzX/Jv80Y/wA3E/Mz8upbefUZ
kUSwTtGjQyLa/UyQJv3bo8I8ag9sVfPWreXtW8qTXvkbVL9Y3uJLfUPOL2pEwgitgzQwepVVkkHr
livLi0jRrXkMVe9+Qf8AnK3yJZHR/LX+G7rQfLahbLT9QeRZUREPBXkUIvf+8ZWYg+OKpb/zmrZ+
TZE0e8k1H0vN8KGOHTUXn6tkzkl5CP7rg/LgT9rcUNKqq8L1Hzhq/n3UbFPPmum3stAsTFB+5rO6
QgVhiVQqtcTUHxSso23PQFV9sfkf+YXlvzn5NVvLmn3WnaVobR6TBDd8C3G3gj4gFGcGiMoxVF6r
+UXlvU/zL038w57m8XWtLiEFvbxvELVlVZFq6GJpCf3x6SDtirN8VdirsVeBflDpX5m2/wCYjTa/
+X+h+X9J9O5A1fT7G0t7nkfsL6sUjvR/2tt8Ve+4q7FXYq7FXYq+UPzh/wCccdV1L827K78t6Nc3
GgaxOl55jv8A6xFRJ7u9ka64CQqyhIiGFAeuKoT8vf8AnF+8m/NPWE8yaNd2Xku1e6k0Sczx85PT
ulForGN3aphJY1HbFX11ir40/wCcs/JHnvTdbvvNN5qKz+UtavrZLexjlkAiuYrRo4vUt2+DkIop
KOpPU9K4qhfy/wD+cd/zO893/l/XPNsiW3lhLSy+qzyyxSyyaZFEpt4YIYS/ENHQfvOJFSSCdiq+
1cVSfzjqWuab5Y1G80HT21XWo4T+j7BSq+pO3wpyLsg4KTybfoDTfFXz35Z/5xx8zXn5SebH134P
zD81OLhjcOrFBb3K3KxO6ErW4kQs5rTdf5cVefwfk5+eHm208qeSNX8vDSNH8tPdxrqsnBQsV5OJ
Z3dldllKlaJ6Y3792xVnH/OSX5E+f9c88jzp5Vtl1WKSGAXFmGjE0UtuOIKxykLIjKqmgqa12pir
B/NX5X/n9+aHmKK/1fylbaXfpCIp78KlmkqoPgM3KRy7CnEFVrTboBRV7B/zjRYfmZ5P05/KHmfy
jJY6Y0slxbaxE8DUlfd1uVWVmYHiAjqNtgRTcKvfMVdirsVdirsVdirsVdirsVdirsVdirsVU57e
3nQJPEkqA1CuoYV6VocVXoiIioihUUAKoFAANgABireKuxV2KuxV2KuxV2KuxV2KuxV2Kv8A/9k=
									</xapGImg:image>
							</rdf:li>
						</rdf:Alt>
					</xap:Thumbnails>
				</rdf:Description>
				<rdf:Description  rdf:about="" xmlns:dc="http://purl.org/dc/elements/1.1/">
					<dc:format>image/svg+xml</dc:format>
				</rdf:Description>
			</rdf:RDF>
		</x:xmpmeta>
<?xpacket begin='﻿' id='W5M0MpCehiHzreSzNTczkc9d'?><x:xmpmeta xmlns:x='adobe:ns:meta/' x:xmptk='XMP toolkit 3.0-29, framework 1.6'>
<rdf:RDF xmlns:rdf='http://www.w3.org/1999/02/22-rdf-syntax-ns#' xmlns:iX='http://ns.adobe.com/iX/1.0/'>

 <rdf:Description rdf:about='uuid:842e5f23-9184-11da-afe3-001124808cba'
  xmlns:pdf='http://ns.adobe.com/pdf/1.3/'>
  <pdf:Producer>Adobe PDF library 6.66</pdf:Producer>
 </rdf:Description>

 <rdf:Description rdf:about='uuid:842e5f23-9184-11da-afe3-001124808cba'
  xmlns:tiff='http://ns.adobe.com/tiff/1.0/'>
 </rdf:Description>

 <rdf:Description rdf:about='uuid:842e5f23-9184-11da-afe3-001124808cba'
  xmlns:xap='http://ns.adobe.com/xap/1.0/'
  xmlns:xapGImg='http://ns.adobe.com/xap/1.0/g/img/'>
  <xap:CreateDate>2006-01-17T13:21:15+09:00</xap:CreateDate>
  <xap:ModifyDate>2006-01-30T11:45:29Z</xap:ModifyDate>
  <xap:CreatorTool>Illustrator</xap:CreatorTool>
  <xap:MetadataDate>2006-01-18T21:39:48+09:00</xap:MetadataDate>
  <xap:Thumbnails>
   <rdf:Alt>
    <rdf:li rdf:parseType='Resource'>
     <xapGImg:format>JPEG</xapGImg:format>
     <xapGImg:width>24</xapGImg:width>
     <xapGImg:height>256</xapGImg:height>
     <xapGImg:image>/9j/4AAQSkZJRgABAgEASABIAAD/7QAsUGhvdG9zaG9wIDMuMAA4QklNA+0AAAAAABAASAAAAAEA&#xA;AQBIAAAAAQAB/+4ADkFkb2JlAGTAAAAAAf/bAIQABgQEBAUEBgUFBgkGBQYJCwgGBggLDAoKCwoK&#xA;DBAMDAwMDAwQDA4PEA8ODBMTFBQTExwbGxscHx8fHx8fHx8fHwEHBwcNDA0YEBAYGhURFRofHx8f&#xA;Hx8fHx8fHx8fHx8fHx8fHx8fHx8fHx8fHx8fHx8fHx8fHx8fHx8fHx8fHx8f/8AAEQgBAAAYAwER&#xA;AAIRAQMRAf/EAaIAAAAHAQEBAQEAAAAAAAAAAAQFAwIGAQAHCAkKCwEAAgIDAQEBAQEAAAAAAAAA&#xA;AQACAwQFBgcICQoLEAACAQMDAgQCBgcDBAIGAnMBAgMRBAAFIRIxQVEGE2EicYEUMpGhBxWxQiPB&#xA;UtHhMxZi8CRygvElQzRTkqKyY3PCNUQnk6OzNhdUZHTD0uIIJoMJChgZhJRFRqS0VtNVKBry4/PE&#xA;1OT0ZXWFlaW1xdXl9WZ2hpamtsbW5vY3R1dnd4eXp7fH1+f3OEhYaHiImKi4yNjo+Ck5SVlpeYmZ&#xA;qbnJ2en5KjpKWmp6ipqqusra6voRAAICAQIDBQUEBQYECAMDbQEAAhEDBCESMUEFURNhIgZxgZEy&#xA;obHwFMHR4SNCFVJicvEzJDRDghaSUyWiY7LCB3PSNeJEgxdUkwgJChgZJjZFGidkdFU38qOzwygp&#xA;0+PzhJSktMTU5PRldYWVpbXF1eX1RlZmdoaWprbG1ub2R1dnd4eXp7fH1+f3OEhYaHiImKi4yNjo&#xA;+DlJWWl5iZmpucnZ6fkqOkpaanqKmqq6ytrq+v/aAAwDAQACEQMRAD8A9KaVpWlnS7MmzgJMEdT6&#xA;afyD2xVFfonSv+WKD/kUn9MVd+idK/5YoP8AkUn9MVWWE8NvoltPO6xQxWyPLI5CqqrGCzMT0AGK&#xA;pOfPVqIBenStTGjkcv0p9W/d8evMwcvrgWm/L0KU3riqc6Nq9jrGl2uqWEnq2V5GJbeTsyN0YU8c&#xA;VSzVNJn1jyNPpcDok97p/oxNKCYubxUUSAblCdmA6jFUu0r8wrnVdCtNQsvLuoyXd7Ak9talEWFv&#xA;VQOh+tMwiEZrXkfip+xy+HFU78p6K2h+WdL0hyjSWNtFDIYhxj5qoDemOycq8R4YqlfmKfUYfJED&#xA;2L3EZ42a3c1mnqXMdozxi5khSjEusJYigLDqoLADFWP2kH5E2drws9U022JZpDLDqbJd+o5qzeqs&#xA;4uPUZjv8XKvvirLfJU+ozeX4pL4zOfWuBaSXaGO5e0WdxbNMjBWDtCFJ5DkerANUYq7Sp/Mf6Ls6&#xA;WNmR6EdCbyUfsD/l2xVFfWPMv/LBZ/8ASZL/ANkuKu+seZf+WCz/AOkyX/slxVEaT/xyrL/jBF/x&#xA;AYqi8VdirFfNHmn/AAp+W175jEH1l9L04XEdvWgd1jHBSew5EVPhiqWQeV/zPi04X8nnVrjXAvqm&#xA;ways10kvQn0KLELsR1PH1PX5U3p2xVH/AJS6/q3mH8t9A1vV5PW1HULUT3MnBYwWZjSioFUbU6DF&#xA;VfzDqGg2H5fTza88K6U9isFwLlHlif10ESxtHHV5PUZwvFfiNaDfFXjXlWz87jyXY6V5ktfPh01L&#xA;ZYr+ytRpbq6gUYJK3o6ssTDb0vthfhrir3HyXqnlnUvK+nXPlkoNDWIQWUUaGMRLB+69IxsAyNGU&#xA;4lSKgjFUB5h8pReafJ1lp/1p7C6gNnfaffxqsjQXdoyTQyem3wuAy/Ep6jw64qhPR/OUx+h9a8vB&#xA;uNP0gIL2ta05fVfVp9nenrdcVTbyR5Si8raCNNF09/cyz3F7fX0qqjT3V3K000nBfhUF32UdB49c&#xA;VXaV5fsDpdmTLebwRna+vB+wPCXFUV/h6w/37ef9J15/1VxV3+HrD/ft5/0nXn/VXFVfS2VdItGY&#xA;hVW3jLMdgAEG5xVjNt+cn5V3Wqfou381abJeliixi4TizD9lZK8GJ7UbftirJtI1fS9Y06HUtKuo&#xA;r3T7kFoLqBg8bgEqSrDY7gjFWHfmdpes6r+TGtafoz8NQn0qkdWCckCK0sfI7D1Iwyb7b4q83tvz&#xA;L/JfUvydj8u2GmSXNxPp31e28tQ6dPLO14YuIKssfps/P4/VD+9a4q9P/Jby1qflr8rfLui6rH6W&#xA;oWttW5h6mN5pGm9M0/aT1OJ98VSn84fNeoeWfyhkvrK1juPrEVtY3Mk6NJBBBdARSzyxp8TqqtSg&#xA;7kYqxXQ/y90DQPKMMml/nDqdraWsNLa6+vWUmnRhRz+G3kV/gHXh6vTbFWb/AJG+cNf83fl1Y6zr&#xA;vCS+eWeAXkcZhS6jhlaNLhYyF48wN6ClR0HQKp/Yahcy6PbQy6HdSwvbxq6M1myspQAghrjcH3xV&#xA;j/8Ayrn8u/rf1v8A5VvaevWvL6ppdK+PH1eNfemKsrj1K7ijWOPQ7tI0AVEVrIKqgUAAFxsBiqK0&#xA;n/jlWX/GCL/iAxVF4q7FWJ+avOdj5K/Li48z3sTTwabZxOIEPEySPwiij5EHjzkdVrQ064q83tvz&#xA;K/5yETyk3ni88s6JJ5dNqb9dLhmuE1JbQp6izEszwtxT4yuzEbUBxV6D+T3nbUPPH5c6R5o1CCK2&#xA;vNQ+serBb8vTX0LqWBePMs26xAnfriqC/NSwsL/8k9dtr5EkgOkGRFllSBPWijEkBMjkKtJkUivf&#xA;FXzJ5X/NG/1DyHZ+Utb/ADKXRtFlt/qN3G2jzXFzFbcShthcRqVZTHsGryp7Yq+s/wAsdO8pab5D&#xA;0ew8pXiX+gW0JS0vEdZPUJdmkdmWg5mQsWFBQ1FBirG/zd/LfUfzC/KyHQNNvEs75fq11A03IRSN&#xA;ElPTkKhiFPKtaHcDbFUiF7+f58u/4cPkHQhGbf6p6/12P6hx48a/UwOXCn7FcVZV+R/5a3f5d+Qo&#xA;NAvbtLy+aeS6upIq+kry8Rwj5BWKqEG5Aqa4qyLStKvzpdmRrN4AYI9glnt8A8bfFUV+ib//AKvV&#xA;5/wFn/2T4q79E3//AFerz/gLP/snxVEaT/xyrL/jBF/xAYq3HqmmSTTQx3cLzWw5XEayIWjHi4Bq&#xA;v04qrwzQzIJIZFkjPR0IYbe4xV5l+d135ls/yL1W48utKl+llb+pLBX1Uti0YuWQruKQ8uR7LU4q&#xA;+dI/L/5Aw/kU2sW+sen+YDWbcwl3It2bqT4JLY2vJVMLBihbhuu/I4q+hP8AnF7Tb2w/JXQkvImh&#xA;ec3NxGjihMUtw7RtTwZaMPY4qhP+ch/NVloH5Hyx3VvNcDW44dKhEMnolJJoWlDs9G+FRCarT4vs&#xA;9DiryXy/+Uv5jeXvy1tfNtpd+UZoLSz/AEnEt3ptnNN6JT1uJv2tyzSb8RV+u3OlMVe6/kJ+Z2of&#xA;mL5DGt6jaR2l/bXUljcCAMIZGiSOQSRqxYqCsoFKncHFU4vE8qeYfK0Oka7ps+oadPBF6ttNYXjK&#xA;SqghgRFsQejKa4qwIf8AOPX5DA8f0DqZg9T1Pqx/THp1+VK9Nq1rir0rQm8r6BpUGk6Np1xYadbD&#xA;jBbQ6feKi1NSf7rck7kncnriqb6T/wAcqy/4wRf8QGKovFXYqxjzB5y0TyZ5DPmPWnZbCxtoSyxg&#xA;NJI7hUSONSRVnZgBvTuaDFXkFv8A85eRtpE+uT+RdWi0JecdtqynnavONkieb01jQsdjRmIPY4q9&#xA;U/Kf8x4fzD8oR+ZIbFtOSSeWD6s8glIMRAryCp1r4YqxP/nIfTbS+/IDU2uFlY2dvZ3MHoLzYSLJ&#xA;GoLLUfBRzzP7K1btir500Dz951138pofy5GoeW7DRJaQm91C7S2ukiFx6wV1Z/5x9oRn4fffFX1d&#xA;+SXkmz8m/lxpmj2uoQ6rXnczahbMHglkmYsxhYE1RdlB70rtWmKsa/Pvyf5581flRZ6f5Qlc3SNB&#xA;Le2Mcgha6thCytGGJUNRmVuBNGp4gDFXiT+XJW/LoeUx+SeojzWLYQnX/SlA+sA0+s/WOFSS3xen&#xA;y49vs4q9z/5xo/L7zX5I/L2TT/Mn7q8vLyS8isOYkNvG6InBmUsvJihYhTQV8a4qz3SoPMf6Ls6X&#xA;1mB6EdAbOU/sD/l5xVFfV/Mv/LfZ/wDSHL/2VYq76v5l/wCW+z/6Q5f+yrFURpP/AByrL/jBF/xA&#xA;Yqi8VdiryL8/POfmHyj+TA1HQJGt7+f6pafXEFWgjlX4pFrUAnjwB7ctt6Yq+c7WT8wrP8npvzEt&#xA;vzOvFu7q4NnPoP1uZrihm9OvqNMWWX/dlAleBry7Yq+hf+cUtZ8w6x+VrX+u393qV1JqNwIrq9mk&#xA;uJDEqxqAHlLNxDBtq+OKoP8A5ya13T9P/I76hcXz2lzqwtYLSKOP1DOY+MzRsarwSifE1fahrTFX&#xA;zNo/kfzPp3kaDzpqHkKz1XywlZJNTnurqOWRGkKKzRW97EwQOQvIQ9PvxV9cf848/mJoPnPyKBpG&#xA;jx6CmjyfU5dLgIaFKqJA8Zopo/Ik1Fa1qT1KqZ+b/JfkLz/5NstF8xTRtDGkU1vPDOkc8Moj4842&#xA;PIdGIIYEHuMVeZ/9CteUzZDSG8/6sfLwbmNJ+sw+lWvKoX+6ry3r6eKvWvy+8peQ/IWgLonl6aKK&#xA;2LmaeaWdJJppWAUySNUCtFA2AHgMVf/Z</xapGImg:image>
    </rdf:li>
   </rdf:Alt>
  </xap:Thumbnails>
 </rdf:Description>

 <rdf:Description rdf:about='uuid:842e5f23-9184-11da-afe3-001124808cba'
  xmlns:xapMM='http://ns.adobe.com/xap/1.0/mm/'>
  <xapMM:DocumentID>uuid:831aaf18-81ce-11da-9137-001124808cba</xapMM:DocumentID>
 </rdf:Description>

 <rdf:Description rdf:about='uuid:842e5f23-9184-11da-afe3-001124808cba'
  xmlns:dc='http://purl.org/dc/elements/1.1/'>
  <dc:format>image/svg+xml</dc:format>
 </rdf:Description>

</rdf:RDF>
</x:xmpmeta>
                                                                                                                                                                                                                                                                                                                                                                                                                                                                                                                                                                                                                                                                                                                                                                                                                                                                                                                                                                                                                                                                                                                                                                                                                                                                                                                                                                                                                                                                                                                                                                                                                                                                                                                                                                                                                                                                                                                                                                                                                                                                                                                                <?xpacket end='w'?>
			</metadata>
		<g id="レイヤー1">
			<g>
				<rect x="0.125" y="0.125" fill="none" stroke="#000000" stroke-width="0.25" width="100" height="150"/> 
				<rect x="0.125" y="150.125" fill="none" stroke="#000000" stroke-width="0.25" width="100" height="150"/> 
				<rect x="0.125" y="300.125" fill="none" stroke="#000000" stroke-width="0.25" width="100" height="150"/> 
				<rect x="0.125" y="450.125" fill="none" stroke="#000000" stroke-width="0.25" width="100" height="150"/> 
				<rect x="0.125" y="600.125" fill="none" stroke="#000000" stroke-width="0.25" width="100" height="150"/> 
				<rect x="0.125" y="750.125" fill="none" stroke="#000000" stroke-width="0.25" width="100" height="150"/> 
				<rect x="0.125" y="900.125" fill="none" stroke="#000000" stroke-width="0.25" width="100" height="150"/> 
			</g>
			<g>
				<path d="M57.625,975.625c0,5.5927734-3.1669922,8.5-8.5,8.5s-8.5-2.9072266-8.5-8.5l-18.5-1c0,11.6035156,9.7060547,19,27,19
					c18.7265625,0,27-6.296875,27-18.5v-19h-16.5l-0.5,5.5h-0.0996094c-3.9814453-4.0449219-10.0048828-6.5-15.9003906-6.5
					c-12.7705078,0-21,7.8691406-21,19.5l18.5,1c0-5.2773438,3.1777344-8.5,8.5-8.5S57.625,970.3476562,57.625,975.625z"/>
				<path d="M75.1245117,806.125H61.0415039l-0.4169922,5.7705078h-0.0996094
					C56.6567383,807.6513672,50.6352539,805.125,44.1245117,805.125c-12.7470703,0-21,7.8710938-21,19.3330078L38.875,825.125
					c0-5.8798828,3.7480469-9.5,10.2495117-9.5c6.3735352,0,10.25,3.7158203,10.25,9.6660156
					c0,6.3056641-3.9116211,9.4169922-10.25,9.4169922c-6.4057617,0-10.2495117-3.3974609-10.2495117-9.5830078
					l-15.7504883-0.6669922c0,11.5253906,9.6005859,18.9169922,26,18.9169922c17.6142578,0,26-6.5019531,26-18.5V806.125z"/>
				<path d="M74.125,656.125H62.4584961L62.125,662.1660156h-0.0996094C58.2705078,657.7226562,52.2509766,655.125,45.125,655.125
					c-12.7241211,0-21,7.8740234-21,19.1669922l13,0.3330078c0-6.4824219,4.3198242-10.5,12-10.5
					c7.4248047,0,12,4.2089844,12,10.8330078c0,7.0185547-4.6567383,10.3339844-12,10.3339844
					c-7.4785156,0-12-3.8886719-12-10.6669922l-13-0.3330078c0,11.4462891,9.4951172,18.8330078,25,18.8330078
					c16.5019531,0,25-6.7080078,25-18.5V656.125z"/>
				<path d="M73.125,506.125h-9.25l-0.25,6.3115234h-0.0996094C59.8837891,507.7939453,53.8662109,505.125,46.125,505.125
					c-12.7011719,0-21,7.8759766-21,19h10.25c0-7.0849609,4.890625-11.5,13.75-11.5c8.4755859,0,13.75,4.7021484,13.75,12
					c0,7.7304688-5.4013672,11.25-13.75,11.25c-8.5517578,0-13.75-4.3789062-13.75-11.75h-10.25
					c0,11.3681641,9.3896484,18.75,24,18.75c15.3896484,0,24-6.9130859,24-18.5V506.125z"/>
				<path d="M72.1245117,356.1245117h-6.8330078l-0.1669922,7.2485352h-0.0996094
					C61.5205078,358.2080078,55.2358398,355.125,47.1245117,355.125c-12.5883789,0-21,7.7861328-21,18.8330078H33.625
					c0-8.0126953,5.8051758-13.1665039,15.4995117-13.1665039c9.3793945,0,15.5,5.3964844,15.5,13.5
					c0,8.4428711-6.1459961,13-15.5,13c-9.4296875,0-15.4995117-5.1811523-15.4995117-13.3334961h-7.5004883
					c0,11.2094727,9.1386719,18.6665039,23,18.6665039c14.3813477,0,23-7.1445312,23-18.5V356.1245117z"/>
				<path d="M71.125,206.125h-4.4165039L66.625,214.3110352h-0.0996094C63.1586914,208.6230469,56.6064453,205.125,48.125,205.125
					c-12.4765625,0-21,7.6967773-21,18.6665039h4.75c0-8.940918,6.7207031-14.8330078,17.25-14.8330078
					c10.2827148,0,17.25,6.0908203,17.25,15c0,9.15625-6.890625,14.75-17.25,14.75c-10.3081055,0-17.25-5.9833984-17.25-14.9169922
					h-4.75c0,11.0512695,8.887207,18.5834961,22,18.5834961c13.3725586,0,22-7.3759766,22-18.5V206.125z"/>
				<path d="M68.0253906,65.2480469C64.7958984,59.0371094,57.9765625,55.125,49.125,55.125c-12.3642578,0-21,7.6074219-21,18.5h2
					c0-9.8691406,7.6357422-16.5,19-16.5c11.1865234,0,19,6.7851562,19,16.5c0,9.8691406-7.6357422,16.5-19,16.5
					c-11.1865234,0-19-6.7851562-19-16.5h-2c0,10.8925781,8.6357422,18.5,21,18.5s21-7.6074219,21-18.5v-17.5h-2v9.1230469
					H68.0253906z"/>
			</g>
			<g>
				<path d="M49.125,131.125c15.6542969,0,25-5.6074219,25-15s-9.3457031-15-25-15c-9.6708984,0-14-3.515625-14-7
					c0-1.4433594,0.4487305-2.7783203,2.7436523-5.331543l-1.4873047-1.3369141
					C34.0073242,90.0976562,33.125,91.9047852,33.125,94.125c0,4.1518555,4.1904297,9,16,9c14.4018555,0,23,4.8598633,23,13
					s-8.5981445,13-23,13s-23-4.8598633-23-13c0-6.2612305,7.1972656-13,23-13v-2c-17.1767578,0-25,7.7753906-25,15
					C24.125,125.5175781,33.4707031,131.125,49.125,131.125z"/>
				<path d="M49.1245117,281.125c-16.5463867,0-25.8330078-5.7460938-25.8330078-15.0834961
					c0-7.5620117,7.9663086-14.75,25.8330078-14.75v3.0869141c-14.4848633,0-20.9165039,5.6201172-20.9165039,11.496582
					c0,7.293457,7.3779297,11.5830078,20.9165039,11.5830078c13.6186523,0,20.9169922-4.3173828,20.9169922-11.5830078
					c0-7.1040039-7.2373047-11.4985352-20.9404297-11.4985352c-12.034668,0-17.6430664-5.1450195-17.6430664-9.9179688
					c0-2.402832,1.8842773-5.4086914,4.8803711-8.0571289l3.2392578,2.1137695
					c-2.6835938,2.6420898-3.6196289,4.3896484-3.6196289,5.7763672c0,3.1586914,3.9560547,6.25,13.1665039,6.25
					c16.7480469,0,25.8334961,5.6577148,25.8334961,15.3334961C74.9580078,275.2895508,65.6367188,281.125,49.1245117,281.125z"/>
				<path d="M49.125,431.125c-17.4394531,0-26.6665039-5.8847656-26.6665039-15.1665039c0-7.8994141,8.109375-14.5,26.6665039-14.5
					v4.1728516c-13.1674805,0-18.8334961,4.5029297-18.8334961,9.9936523c0,6.4472656,6.1572266,10.1665039,18.8334961,10.1665039
					c12.8359375,0,18.8334961-3.7753906,18.8334961-10.1665039c0-6.0673828-5.8754883-9.996582-18.8803711-9.996582
					c-12.2597656,0-19.2861328-5.4418945-19.2861328-10.8369141c0-2.5844727,2.8862305-6.7890625,6.5039062-9.4453125
					l4.9916992,2.890625c-3.0727539,2.7314453-4.4960938,4.8916016-4.4960938,6.2216797c0,2.8330078,3.5834961,5.5,12.3334961,5.5
					c17.8422852,0,26.6665039,5.7075195,26.6665039,15.6665039C75.7915039,425.0620117,66.4956055,431.125,49.125,431.125z"/>
				<path d="M76.625,565.375c0,9.4589844-9.2714844,15.75-27.5,15.75c-18.3320312,0-27.5-6.0234375-27.5-15.25
					c0-8.2363281,8.2529297-14.25,27.5-14.25v5.2597656c-11.8496094,0-16.75,3.3847656-16.75,8.4902344
					c0,5.6005859,4.9365234,8.75,16.75,8.75c12.0527344,0,16.75-3.2333984,16.75-8.75
					c0-5.03125-4.5141602-8.4951172-16.8203125-8.4951172c-12.4848633,0-20.9296875-5.7382812-20.9296875-11.7548828
					c0-2.7666016,3.8886719-8.1699219,8.1279297-10.8339844l6.7441406,3.6679688
					C39.5351562,540.7792969,37.625,543.3515625,37.625,544.625c0,2.5078125,3.2104492,4.75,11.5,4.75
					C68.0610352,549.375,76.625,555.1328125,76.625,565.375z"/>
				<path d="M49.1245117,731.125c-19.0854492,0-28.3334961-6.0693359-28.3334961-15.3330078c0-8.0771484,8.2978516-14,28.3334961-14
					v5.5058594c-10.1069336,0-14.6665039,3.2578125-14.6665039,7.8271484c0,5.1826172,4.4853516,8.1669922,14.6665039,8.1669922
					c10.3413086,0,14.6665039-3.0400391,14.6665039-8.1669922c0-4.4580078-4.2001953-7.5966797-14.7133789-7.8300781
					c-14.21875-0.3154297-22.6196289-5.9638672-22.6196289-11.8369141c0-3.0722656,5.1186523-9.6943359,9.7519531-12.2226562
					l8.4960938,4.4453125c-3.8505859,2.9091797-6.2480469,5.8935547-6.2480469,7.1103516
					c0,2.1826172,2.8374023,4.0009766,10.6665039,4.0009766c20.0302734,0,28.3334961,5.8076172,28.3334961,16.3330078
					C77.4580078,724.7207031,68.0629883,731.125,49.1245117,731.125z"/>
				<path d="M49.125,881.125c-19.8398438,0-29.1665039-6.1142578-29.1665039-15.4169922
					c0-7.9160156,8.3427734-13.75,29.1665039-13.75v5.7539062c-8.3647461,0-12.5830078,3.1308594-12.5830078,7.1630859
					c0,4.765625,4.0332031,7.5830078,12.5830078,7.5830078c8.6293945,0,12.5834961-2.8457031,12.5834961-7.5830078
					c0-3.8847656-3.8867188-6.7783203-12.6069336-7.1650391c-15.9536133-0.7080078-24.3100586-6.1884766-24.3100586-11.9179688
					c0-3.3798828,6.3491211-11.21875,11.3759766-13.6113281l10.2480469,5.2226562
					c-4.2397461,2.9970703-7.1235352,6.3945312-7.1235352,7.5546875c0,1.8574219,2.4643555,3.25,9.8330078,3.25
					c21.1240234,0,29.1669922,5.8583984,29.1669922,16.6669922C78.2919922,874.6074219,68.7729492,881.125,49.125,881.125z"/>
				<path d="M49.125,997.625c22.2177734,0,30,5.9082031,30,17c0,9.8691406-9.6425781,16.5-30,16.5c-20.59375,0-30-6.1601562-30-15.5
					c0-7.7568359,8.3876953-13.5,30-13.5v6c-6.6220703,0-10.5,3.0039062-10.5,6.5c0,4.3476562,3.5820312,7,10.5,7
					s10.5-2.6523438,10.5-7c0-3.3115234-3.5693359-6.015625-10.5-6.5c-17.6796875-1.2363281-26-6.4140625-26-12
					c0-3.6855469,7.5791016-12.7421875,13-15l12,6c-4.6289062,3.0859375-8,6.8955078-8,8
					C40.125,996.65625,42.2167969,997.625,49.125,997.625z"/>
			</g>
		</g>
	</svg>
