<?xml version="1.0" encoding="utf-8"?>
<!-- Generator: Adobe Illustrator 11 Build 225, SVG Export Plug-In . SVG Version: 6.0.0 Build 78)  -->
<!DOCTYPE svg PUBLIC "-//W3C//DTD SVG 1.0//EN"    "http://www.w3.org/TR/2001/REC-SVG-20010904/DTD/svg10.dtd" [
	<!ENTITY ns_flows "http://ns.adobe.com/Flows/1.0/">
	<!ENTITY ns_svg "http://www.w3.org/2000/svg">
	<!ENTITY ns_xlink "http://www.w3.org/1999/xlink">
]>
<svg  xmlns="&ns_svg;" xmlns:xlink="&ns_xlink;" xmlns:a="http://ns.adobe.com/AdobeSVGViewerExtensions/3.0/"
	 width="300.25" height="1050.25" viewBox="0 0 300.25 1050.25" overflow="visible" enable-background="new 0 0 300.25 1050.25"
	 xml:space="preserve">
	<metadata>
		<x:xmpmeta  x:xmptk="XMP toolkit 3.0-29, framework 1.6" xmlns:x="adobe:ns:meta/">
			<rdf:RDF  xmlns:rdf="http://www.w3.org/1999/02/22-rdf-syntax-ns#" xmlns:iX="http://ns.adobe.com/iX/1.0/">
				<rdf:Description  rdf:about="" xmlns:pdf="http://ns.adobe.com/pdf/1.3/"></rdf:Description>
				<rdf:Description  rdf:about="" xmlns:tiff="http://ns.adobe.com/tiff/1.0/"></rdf:Description>
				<rdf:Description  rdf:about="" xmlns:xap="http://ns.adobe.com/xap/1.0/" xmlns:xapGImg="http://ns.adobe.com/xap/1.0/g/img/">
					<xap:CreateDate>2005-10-18T08:31:30Z</xap:CreateDate>
					<xap:ModifyDate>2005-10-18T08:31:30Z</xap:ModifyDate>
					<xap:CreatorTool>Illustrator</xap:CreatorTool>
					<xap:Thumbnails>
						<rdf:Alt>
							<rdf:li  rdf:parseType="Resource">
								<xapGImg:format>JPEG</xapGImg:format>
								<xapGImg:width>172</xapGImg:width>
								<xapGImg:height>256</xapGImg:height>
								<xapGImg:image>/9j/4AAQSkZJRgABAgEASABIAAD/7QAsUGhvdG9zaG9wIDMuMAA4QklNA+0AAAAAABAASAAAAAEA
AQBIAAAAAQAB/+4ADkFkb2JlAGTAAAAAAf/bAIQABgQEBAUEBgUFBgkGBQYJCwgGBggLDAoKCwoK
DBAMDAwMDAwQDA4PEA8ODBMTFBQTExwbGxscHx8fHx8fHx8fHwEHBwcNDA0YEBAYGhURFRofHx8f
Hx8fHx8fHx8fHx8fHx8fHx8fHx8fHx8fHx8fHx8fHx8fHx8fHx8fHx8fHx8f/8AAEQgBAACsAwER
AAIRAQMRAf/EAaIAAAAHAQEBAQEAAAAAAAAAAAQFAwIGAQAHCAkKCwEAAgIDAQEBAQEAAAAAAAAA
AQACAwQFBgcICQoLEAACAQMDAgQCBgcDBAIGAnMBAgMRBAAFIRIxQVEGE2EicYEUMpGhBxWxQiPB
UtHhMxZi8CRygvElQzRTkqKyY3PCNUQnk6OzNhdUZHTD0uIIJoMJChgZhJRFRqS0VtNVKBry4/PE
1OT0ZXWFlaW1xdXl9WZ2hpamtsbW5vY3R1dnd4eXp7fH1+f3OEhYaHiImKi4yNjo+Ck5SVlpeYmZ
qbnJ2en5KjpKWmp6ipqqusra6voRAAICAQIDBQUEBQYECAMDbQEAAhEDBCESMUEFURNhIgZxgZEy
obHwFMHR4SNCFVJicvEzJDRDghaSUyWiY7LCB3PSNeJEgxdUkwgJChgZJjZFGidkdFU38qOzwygp
0+PzhJSktMTU5PRldYWVpbXF1eX1RlZmdoaWprbG1ub2R1dnd4eXp7fH1+f3OEhYaHiImKi4yNjo
+DlJWWl5iZmpucnZ6fkqOkpaanqKmqq6ytrq+v/aAAwDAQACEQMRAD8A9U4q7FXYq7FXYq7FXYq7
FXYqhtT1Kx0vTbvU7+UQWNjDJc3c5BISKFC8jkKCfhVSdhiqJxV2KuxV2KuxV2KuxV2KuxV2KuxV
2KsW/Kx3f8uvLruxZmsYSWJqSePjirKcVdirzfyzp2tRXXlUz21yiwXmvtdGRJAESW4mMBkqNg6k
FK9R0xV6RirsVedfmP5ovob/AEXTItC1SZf0zaFbiBbb0rj0Fa6KRFp1ev7mvxKv2T2xVS0PzfqF
z+Y+tyny3q6RtZ6VYlGW0pAUlu5mkkpcmgZbpfs1NF6Yq9KxV4n5/i0vWNG/MyPX72WTW9L0+/fS
NGeeSGKGzSwLw3MNurIk3qPyLSsGofg2pTFXp2ieStJ0PUGu9KmvLeB42jk01rqaazLFgwlEMzSC
NxxpWMrWp5V2oqn2KvPrfyx5b81ec/Nb+ZbGDWJNLubax020vY1mit7V7C3ufUhjkDKryTzSgyqO
R4ha/DiqWadrmpxeU18r6HdSSalf6pqOkaBfuxleHT7S5dJrss1eS2UdYkLV5OIwftYq9J0jS7LS
dLtNLskKWdlCkECkliEjUKOTHdjtuTuTirEvzIt7CbUfLia/H63lGW5kg1SJ/wDeY3MyBbH62vRo
DJySjVT1GTl2xVBeWtN8s2v5jPD5KtIbLSbGxuIPMSaeixaebxpYTaxCOICE3MapMXKjkqkBvtCi
r0XFWN6Tb3qefPMU8kUi2ctnpi28rKwjZ0N16gRj8JK8l5U8RXFWSYq7FXYqxr8tLS6s/IGgWt3D
Jb3MNlEk0EqlJEYLurKwBB+eKslxV2KuxV2KuxV5r5x8weY285+V7WPyvdyrZajeXVs63NiouFis
Lm15JymBUcbrlR6H6dsVXeR9c8wXXnHzTLN5buoIp9St7ae4e4s3W3EGn254twmZm+KQmkYYb+NQ
FXpGKsG/OfRtE1T8sfNM1/ZW95NYaRqM1nLNGkjwTR2sjB42YEowKjcYqutbW68q+bdH0mz1C4vN
D1tbmJdOvZXupLSW2i9YSw3Epeb0So9NkdmAJTjx3BVZvirHvMnk3ynqkzarq0TwzwQlJ763urix
c26VcpNLbSQGSJak8XJXrtirzvStPubufRLrTuegWnmeU2Oki2VYpbLy9Y28lzFDCGBEU17IgkkI
HII1PtICFWY6XBf+XvPNroiald6hpGr6fdXkUN9K1zLbXFjLbxsUmespjlW7FQ7EKyjjTliqjqum
nzr5k1fQNTmkj8r6OsEN3pcLGJr+e4jE5NxIhEn1dI2VRGpAduXOqjjiqVfpf/lVWlS6NexmTy3F
DO3le/RSWWRVaRNMuAo+KVj8Nu/WX7J+MVdVn3lu31G38vaXb6nK0+pQ2kEd9MxqzzrEolYkdSzg
nFUxxV2KuxV2KoXStP8A0dpttY/WZ7z6tGI/rV2/qzycf2pHoOTHuaYqisVdirsVdirsVS+60S1u
dasNXkeQXOnR3EUEYI9Mi69PmWBBPIeiONCOpxV2k6JaaXJqEkDyO+pXb3twZCD+8dEjovELRQkS
gfrxVMMVYL57/K601zR/MK6Ncz6TrGtWVzBKYbiSKzuJpoDEpuoKSxEGoDusfqce9aYqnmh+S9L0
q/bVGnutS1d4zAdR1Cdp5ViJDNHEvwxRKzKCwjReRpXoMVT7FUs8yeX7PzBpMmk3skqWVw0Zuo4S
q+tEjh2gclW/dyheEgFCVJFcVWeYvLVlrlnBBLLNZ3FnMtzp9/aMqT206KyCSIusifYdkKurKykg
gg4qhdA8oDTdTm1i/wBTuta1maEWwvbwQp6VuG5mKGK3jhjRWajMeJZiBU7CirWteTo77VBrGn6l
eaJq/pLBNd2JhYTxRlmjjnhuI54ZAhduLcQ4qaMMVS+4/LHTtVP/ADtepXvmZFVhFa3xhitY2deP
Nbe0itkLqCeDycmU7qQcVZLo2nNpml2untd3F/8AVYxELu8ZXuJAuwMjosYZqbcqVPU1O+KozFXY
q7FXYq7FXYq7FXYq7FXYq7FXYq7FXYq7FXYq7FXYq7FXYq7FXYq7FXYq7FXYqkPkXzhY+cPK9p5h
sYZbe1u3nRIZ+PqA21xJbtXiWG7REjfpiqfYq7FWIaT+ZelanJpKRWs6HV9U1DR4OfD4ZdNS4eR2
ox+BhaNxpvuK4qy/FXYqkvmnzVZ+XYdNkuopJv0nqVppUCxcaiW9lEaseRHwr9pqb0xV0Pmqzm85
XflVIZDd2dhBqM1xQeiFuJZIkjrWvP8AclunTFU6xV5t+ZP5y6d5bttd03RrS81jzJpWnzXc6Wds
09tYt6LSQyX0paJEj25MA3Lj26YqmHkX807HzHJZ6Ze6bqWj63cWouUg1C0aCKdVVTJJbyqZYnSr
VHx1p2xVnOKsK1/8yLm08xXHl7y95evfMup6fDHcasLSS3gitUmBMSPLcSRqZXUcljXfjviqZaL5
+8uap5Qk81iV7TS7ZJ31AXS+nLatalluIp034vEyEECvtUUxVMPLOtNrmgWGsGzmsBfwrOlpc8RM
iPunMKWAJWhpXbFUr87+frHyr+jrb6ldarrOszNBpOkWKq087xrzkasjIiRxru7s2wxVAaB+ZU91
5kt/LXmLy/e+WtZvYZLjTY7l7e4guUgoZVintZJU5orBmVqbYqzbFUqs/MVrdeZdU0BInW50q2s7
qaU04Mt806oFoa1X6q1ajuMVTXFXYq7FXmv/ADjj/wCSd0X/AIz6l/3U7nFXpWKuxVhGi/ljBpcm
jOuoNL+h9X1LWVBjC+o2ppcoYj8R4iP659rvx6CuKs3xV2KvH/ze8r3955o8nxJ5k1WFNU8wQtHZ
xmyEFqLW0nm9W35WzSeoGjFPUZ13O3Siqh5O8n6lL+bnnB2826zI2jx6PbtKzWBe4VopLow3FLQL
wHqCgjCNRjU7iir2fFXhX5laB548paV+Y99pNhBrnlfzZZXdzfkTLb3unytYtBLKQ44TwhV5cVIc
dKeKrOPyt/Mjyx5g02z0O3eaz17T7G3N1pF/C9tciMRqvqorikkZ7MhI3HjirPcVeaTS+ZPJ3n7z
Nqi+Xr3XtG8zfVLq3m0sQvNBc2lqlq8E8cskJ4usSsrgkCtDirz71VhS70Xzg66Vo/6Ul82efIEb
6wkbX1wG0zRf3QYyySlUllVF+ILt9rFXtHlf8w/LPmS9uNPsJLiDU7WNZ5tOv7aeyufRc0WZYrlI
2aMnbktRX5jFWGfnlf2+mXnljW9KuBL560q6kfQNDRHml1CG4QR3lt6cQZ0Vo1B9UjihUVxVD/l5
qF75+19fzI1uWLT7Py8t5YaZ5ajLPcWUrEJdy6gzLGwnZI6CPjRVodzuVXqWia1put6RZ6xpc31j
Tr+JLi0n4unOOQVVuLhXFR2IriqDsfLiWnmvV/MInLvqtrY2jW/GgjFi1wwYNXfn9a6U2piqc4q7
FXYqwz8nbLRrH8vNNttG+uDTklvTD+ko1iuqtezNJzRdgPULcPFaHFWZ4q7FXYq7FXYq8e87fl89
5+anlDhq2uehdSave3Ekd7KEtStuqqsDdIAxuOAUdV26A4q3+WXkF083+b9Wm1TWh9V1xILcT3kt
LqO1s7ejXAP9+tWKgn9kU7Yq9gxV5J+b3n++sPK3nPQtW8t6lDbXGl30Ol63axG8splls2VTO8NW
tmDsQfUWlBy5UxVL/Kj3/nLzj5C1jT9CvLDSfKWnzi91rUbdrT6011ZC3jt7VXpJKgYmQuV47be6
r2vFUl85+Y/8OeWr7V0tZb64gQLaWMCs8k9xIQkMSqtT8UjAE9hv2xV5hrfkrUfLHlfyxrWoQNrO
oWPmGLzF50e2iMrySzRSxyXEcagu62byp6aqPsJWm2KprYa/pvnf82NB1fyys1xpPl/T79dU1gwS
QQyPfeiILRGlVGkZTE0jACi7b1JGKofVNVg8k/nFrPmXzPa3B0PW9Os7XSddigluYrI2xf6xay+i
sjxCZ2WSvHiaexoqw38xtU/xNf3Wp/k1DqF55j1K0msvMc1vaywadPZmB1DTyXIgQ3cdR6DIS37J
22xV7V+W91os/kbRU0ZZotPtLSG0iguo2huIvq6CIxzRtusi8fi8eoJG+KskxV2KuxV2KuxV2Kux
V2KuxV2KuxV2KuxVD6jp9lqOn3On30K3FleRPb3UD/ZkilUo6N7MpIxVUt7eG2t4reBBHBCixxRj
oqKKKB8gMVVMVdirsVdirsVdirsVdirsVdirsVdirsVdirsVdirsVdirsVdiqncXFvbW8tzcypBb
wI0k00jBEREHJmZmoAoAqScVdb3Fvc28VzbSpPbzoskM0bB0dHHJWVlqCpBqCMVVMVdirsVdirsV
dirsVdirsVdirsVeS/8AOM/mLXde8h6hea1fz6jdR6xdwJPcOZHESLHxQFv2RU0GKvWsVdirwGy8
3+aH0by9K2q3JkuPzIl0udzK1XsRJdAWzb7xfAvw9NsVe/Yq7FXhH57fnh5Z0i80zy5p3mCWx1ux
12w/xBHCl3GYtPoZLgtIkfGROLJVY2LGuw2xVBaT/wA5F+R7z86LmX/E0x8qTaVBY6ZAYbwQyajJ
chmYQ+jVW4njzdR86Yq+hMVfOH5leaPPfnTUvzM0HTdaTy/5b8laVM17YpBHLc6lztZXdWdzyjjP
plSU7EbEnZVln5I+XPzP03RPKV7N5og1byde6RbSy6TdWqxXNoJLRWgjtp46l1QlVPqH7I6VNcVe
x4q8bvrXzF5//NrzX5ebzNqfl7Q/KFvp6W9voswtZri41CA3Bmml4uzKlOPDp0/yuSqA8v8A5ueY
dJ/LDXP0lMNb82aTr135U0OQKofUryNlW2fiKA7SVbxCnvir1byNomraJ5V07TtZ1KbVtXjj5ahq
E7mRpJ3JeTiT0RWPFB/KBirz/wDPfzL5hs9Z8k+WtO1p/Lem+Zr2e31TXIVHqxCJYzFCkjCkbTNI
QG67eFcVSRG8xfl/+cflLyppnmvVfNOn+YI7k6tpeszre3FrHEnKO5WYKjIpPLt0Ujwoq94xVgGm
6vqkn5463pL3UraZBoNlcQ2ZY+ksz3MqtIF6BmVQCcVZ/irsVdirxj/nFGCeH8utSWaNo2Ot3pCu
CpoVi33xV7PirsVU/qtsAAIkor+oo4jZ/wCYf5XviqpirsVfOf5x/m15bn8/eTtONrqXHy5r0txq
I+pyfvGs1aMG32rN8VT8O1N8Vd+XP5teW7v88PON/wDVtTCeYJNG07SlNnIPTKQmKQ3Ip+6HqsCC
x+zvir6MxV5B+fH5ReTda8t+YvOBjmsPMenaTeTG/sZTC06wWzMIblaMsiMq8G25Fdq0xViX5V+b
vzB8mXv5d+XPMF7DrflXzppcLaHKIxFdWDx2scv1c8f7yNBKiVbcjeooVKr6MxVgfm38odM13zGf
MthrOqeW9cmtxZ3t5pE6wm4gX7Kyq6SAsv7LChH0CirwuN00Z7TW/JlqlxpOnasnlT8vpL9jLHd6
xqLML/WLhl4mT+7McbD4fADjTFXrGleYPzJ8qfmN5f8AK3m/V7XzHpvmqG6+pahFaJYSW11ZRes8
bIjOro6bKTuT4U3VSj83J7/8yPNz/k7pMVtbwW1vFqnmDW7qP1Xtk5KYls46r+9PMVavRiPHFWK+
WtQtvyS1PzLYecbcSa7f211eaB55l9SY6ksUfNbSV5GkMcqsi/ADRjT/ACSyr3D8rdY1/Wvy90HW
Nf4fpbUbRLq49NPTWkxLx0Xt+7ZcVZOIohIZQiiQjiXoORA7VxVdirsVdirHvI/l7zBoOkzWeua/
J5ju5LmSeO+mhEDJE4XjDxDy1CUO9e+KshxV2KuxV2KuxVifmDyIdZ8/eVPNjX3op5WW/Edh6XL1
21CAQFjLzHDgFrTia+2Ku8meQv8ADeu+atXa9F5L5mvxfFBD6XoKqcEi5c5PUp/Nt8sVZZiryH8z
PyV1XUrfzNqnlHzDqWnajrdpcfX9CWVJbG/la2MQj4TlVhaUKsZfl8I6UxVr8p/yNfQ30DzJ5r1O
81bzLpemw2tjY3Lp9W0wGARvBAsZdWMYrHz5UPXrvir1/FUk866Fqmv+V9R0XTNT/Q11qERg/SIi
9do43NJOCc4viZKqG5fDWuKsf8y/lFoWq/l9YeTdPnk0iLR2t59Fv4AGktrm1NY56HiHYkty3Fan
cHfFUD5c/LDzQfOdh5u87eZF17UdGt5bfRbe2tFs4ITcrwnmYBn5ySJ8PYfhRV3nX8pNS1LzhF52
8o+YZPLPmgW31O8m9BLu3uoAQVSWF2UbUG+/QbVFcVSbW/yM80edikH5jecpNU0m3YyW2k6ZZxWE
YmKFFleQmZ3K8jQH+JGKs/8AIHlzXvLflu30bWdb/T8ln+6tb9rf6tL6CgBEl/ezCRlG3Pao6iu5
VZHirsVdirsVdirsVdirsVdirsVdirsVdirsVdirsVdirsVdirsVdirsVdirsVdirsVY75N/MPyf
5zivJfLWofX49Pl+r3bejPDwkIrx/fJHXp1FRirIsVdirD3/ADc/L1NNn1JtWpZW2qnQJpfq9z8O
pChMHH0uR6j4wOH+VirMMVdiqR+bvO3ljyhYW9/5ivfqVpd3KWVvJ6Usxe4lVmRAsKSNuI23pTFW
/wDGnlr/ABd/hD65/wA7ELX6+bH05f8Aeblw5+rw9L7X7PKvtiqd4qw38x/zW8oeQ9KubjVb+3Gq
LbS3Gn6Q0vCe5dFYxxqFWRkWR14cytBiqD/Lf86vI3nmysls9StrfXbiFZLjQ2mrPFIV5PGnNYjL
w7si4qz7FWE+evzl/LzyPfQ6f5h1P0b+eMzJaQxS3EgiFf3jrEr8F+E/a8MVT7y75v8ALXmPQI/M
GjahFdaPKrOLsEoqhPt+oHCtGVp8QYCmKu8p+bvL/m3Rk1ry/cteaZK7xxXJimhDtGeLcRMkbMA2
3ICmKqHnPz55S8l6WNT8y6jHp9qzcIuQZ5JH68Y40DO58aDbvirHPJv5+flX5v1dNH0XWQ+pygmC
2nhmtzLQVIjMqqrNQfZrXFXoWKpOnm7y8/myTykt3XzBFZ/pJ7L05drUyCL1PU4+l9tgOPLl7Yqn
GKuxV2KvnX/nDb/jlecv+2qv/EGxV9FYq7FXhE35D+b38p6jo4vNP+s3fnVvNEbmSb0xZEKPTY+j
X1vh+zTj/lYq93xV2KvmX/nJaz/Mq680eV9KfU9OOiatr1qvlyz4OJorlQsSyXLBfiRXnP2a7HFU
t8t6X+dV5/zkJ5h9PV9I/wAT6Tpttb6nfNA/1VrWcQTKkKcOQk4kfER44q+rMVfHX5z6Vc+V/wAy
/O+u+bvLs2taT5i0y4tfLmshBNDaXM1sIrdjy+BGiYcd6Mv2kr3Venf84/W35Ma9ofla+0yLT288
6BZILoxJ9XvBKYTBM8qUjM4o5HMhgDShrir3fFXz1rfmGy/Lj/nIPzJ5n816fctovmHTrWLRtVgg
e4VHhiijkt/h+yZHiO3+rXY1xV5/5cutdPlK58hWkbeXG8/6vd6xcLcARDTPLYCCSaQNxEYlETIl
aBlX/KU4q+mfIPmL8t59Nt/L3k3V7C9g0m3SKOzs7iOV0hjAQOyqeRqerdyfHFXl/wDzlTotxajy
p5/Vba8tPKd6HvNJu3VFuEmliYBA+zEmHiygE0NaGhxVjUGqy/nZ+Z/lrzboel/oXyh5ImS51LXL
z045ZZImjuTA3FiOKekAN6KrMxpUDFX0zYajp+o2kd5p9zFeWctfSubd1ljbixVuLoSpowIPvirD
LfyHq8f53XPntprc6RNoA0hYAz/WfXF0k/Irw4cOKdeda9sVZ3irsVdirxP/AJxi0nynp2neZ18u
+YH1+OXUA9272Ulj6MnE/uwJHk5/6wpir2zFXYq7FXYq7FXyv+cHlP8AMm4/OXyjpjecPVk1TUL6
+8u1tYwNLRGEiDr++4ooX4v5ffFVP8pPJ35lah+b3nS7h85cLzRb+yttevjZof0kiM4aIA0EXFbf
iePiDir6sxV4T+cP566Fpll528j69pt9pl1cabd2uh37xM9te/WLMopVgAV/fOVrQrtUkdMVeP8A
5XQaZ5j/ADK/LiTyNpU9teaDZ25846nGhhgdo1pKWptVkqhY7yFqb9Sq+1sVSvzT5k0vyx5d1DX9
Vk9Ow02Fp5jtU8fsoterOxCqO5OKvlrzz5W8y3n5N63+ZWtwyfprzdf2d3qNvGSWttBV/wDR7dR2
WvpOfbjy3BxVPmu/y11D87Py1P5UxWwkt47l9bfS4vSRbIxKIxc0UDnx9QNz+LcA7lcVU/zfv9Jt
P+cjtGm/MqN5PIUdoDpAmR5LL1uHxNJGgYPSc/GKHbhy+HFWG/mpr/lHRfMN7e/k1rf1mTzTaXNp
5i8uWMEslv6ckL8riKihFKhmai7oakfCSMVfQX/ONl75al/KDQbLQ79b36hEU1BRUPDdzO1xNG6n
cUeU8T0I3GKvT8VdirsVdiqC0zRNF0pZV0uwtrBZ25zLbQxwh2/mbgFqfc4qjcVdirsVdirsVQs+
k6VPfwahPZQS39qCLW7eJGmiDAhhHIRyWtd6HFXWmlaXZT3M9nZwW094/qXcsMaRvM+/xSMoBdtz
ucVRWKpf5g0LTdf0S+0bUo/VsdQgltp1GzcJkMbFTvxajGh7Yqt8t+XdL8uaFZaJpcZjsbCJIIFY
8m4oAoLN+01BucVTLFUNqOmabqVq1pqNpDe2jkF7e4jWWMlTUEo4ZTQ4qrvDE8TQuitEylGjIBUq
RQqQdqUxVL9H8seWtFaVtG0mz0xp95zZ28UBc9fj9NV5fTiqI1HStL1O2NrqVnBfWxIJguY0lSo6
Hi4YYqhdF8q+V9C5foTR7HS+Y4v9StobeorWh9JV774qq6Z5e0DSXmk0vTbWwe4p9Ye1gjhMnGpH
MxqvKnI9cVR+KuxV2KuxV2KuxV2KuxV2KuxV2KuxV2KuxV2KuxV2KuxV2KuxV2KuxV2KuxV2KuxV
4l/zjf8Amx5v8/X3m6HzDJBImjy2iWXoRCKgma5D8qE8v7lcVe24q7FXzNq35+fmFa+SPPOsRTWw
vdA8xLpWnkwKVFsZHWjrX4moo3xV9JWEzz2NtNJ9uWJHamwqygnFVfFXiH/OQv56P5Os7PT/ACpq
1j/iT68kOpWsvGZ4IDEzVkjr8HxMhqcVQR/5yL05vztGip5h01PIMdl6kl+SnBrn0q8BcFqfaYfd
TFXvmKvnj82Pz585yecNU/L38vtGivb2ytpf0rf3BPwKsXOZogJIlQRK1Obtu2wXpVVjv/OM/n/8
2Y7bR9Jm0JtX8o6nezR/4gZ5XmgcAtJ6snKUBV4fCrotenLfFX1Tirwvzt+YX5r67+bt7+XP5dzW
OlyaLZJe6jqN+nqczIkbhRVJQF/0iNQAla1NaYqv8hf85CzS/lZ5h8x+cYIodY8rTvY3UcB4pdTk
AQKg+LizueDUqBTlsNgqz38oNQ886r5HstY86NENW1Ot1FawxeiILaQAwxstSSxX4zXcVp1GKsN/
5yD/ADj8yeSrjQvLvlW2hk1/zC5WK7uhWKJeaxIFBKqXZ36seKgbg12VYXqn5tfnl+WPm/QrD8xZ
tM1rSNbahaxULIiBlSQoVSA84zIpoyEN0B7hV9NYq8vufzB8xx/85CWvkZXi/QMujm/dPTHq+sC4
r6nWnwjbFXqGKuxV2KvmD/nC3/jqfmF/xnsP+J3uKvp/FXYqxWb8rPy9msNQ0+XQrZ7LVbkX2oQE
NxmuQSfVff7VWOKsojjSONY4xxRAFVR0AAoBiq7FXxp/zkZq35N6j+ZGjfo9ka/j1aWDz5c+neKU
S2lhgZWDJR6KkorBX7PeoxVLfJsf5Aal+emsW93FE3ke9hitfLVrwvwr3shto1oAPWWrerUy0Xf5
Yq+3cVfM/wDzkX+T1xo82s/mx5W1qXTL5I1/S1kKgSCbhbOY3U7c1Yc0cENuajpirGfyI/NHzX+X
N55b8j+Z9HRPL/mgwXmj36keqqamV9KXkrNG8ZZl5KeLJvXwxV9fYq8f8/fkl5mvvPz+fPInmb/D
mv3lsLPU/UhE0cyKqoGFeQHwRoKFTuoYEHFXz1qWm6T5Zvr7TZZZPMflnyTeLqPmac0jj1TXpyIY
bSv7zjFFxYNy5GgmP7SjFXtXlr8+vzDtPNXlfSvP3la30nTfOIRdEvLSRiweUqIxIheXvLGGU8Sv
IH2xVJf+csNV8u+Yb3R/IOm6XNq/n95Fl057dgn1VJ6ckdmBD+qqVK7BQA5YU3VeaaLqC6B+YWqX
n51ve33mzy3YGfyzaX0nOyuZrWNngjaRQ9RIygxsPhZq8qtsVX1Z+UHn698++R7XzPd6cNLN3LMk
NushlVkhkMfMMVTqysOnbFU+byp5cbzInmZrCI69HB9VTUaH1RDueFa0p8RxVNsVdirsVefflVpP
5q6fca23nu406eGZ4TpA0+OOMqqmX1fV4RQ12aOla98Veg4q7FXYq7FXYq8U/MP8hovMX5qeWfMF
jpOlRaBaStc+Y4jFEkl5K8pkYyxiJhPyp8XqHepxVZ+Wv5BQaF+Y3mzzBrej6TLpV5dCbyxbRxxy
/VEWd3VkjaJVgYLwpw6dMVe3Yq+bP+cgvye8/GLzT5p8ueYbq603WBA+reVxHI5l9P0oU9JY+auV
EakVQMAPtHFVP8p/+cdvNN9qXlXzn581s3Uek2dlLo2iBZA8EcKLJbQTeosfp+iackVTVq1Piq+l
8VSTzsnmqTyrqUPlQwr5gmhMVhLcsUijdyFMpIV941JZRTcgV2xV5ev/ADjpbf8AKjJfIS3SRa7d
smoXeqHkyPqIYOSx+0Y6D0gaVp8VK4qkuh/lB+cPmHzb5PvvzCu9Ng0nyKyPpy6eWaa5kiaNkZ6i
g5G3j5H4dhstSTiqYfm5+R3nTU/zCs/zH/L/AFW3svMVsiLNb3dQpaNDEHjbjKp5RHgyOtKd96Yq
xfzL+R356/mheWZ8/ajo+l2mnq6wSWkIlnJYD+QKSrEbgygDqFxV6l+Rnlr8yPKflpfLHm1NPmst
OHHSb2xkYuYyxJiljMcfStQ/U999yq9LxV2KuxV2KuxV2KuxV2KuxV2KuxV2KuxV2KuxV2KuxV2K
uxV2KuxV2KuxV2KuxV2KpPo3nLyhrd1LZ6Lrmn6ndwKXnt7O6huJEUEKWdI2ZlHI03xVOMVdiqRH
z75GWG+mPmLTBDpciw6nKb23420kjFESdudImZ0ZQGpUgjFU4tLu1vLWG8s5o7m0uY1mt7iFg8ck
bgMjo6kqyspqCOuKquKpdrfmTy7oNvHc65qlnpVvK/pxTX08VsjPQnirSsgJoCaYqpnzZ5WGrw6K
dZsRrNwokt9N+sw/WZEKlwyQ8vUYFAWqB03xVNcVQeraxpmkWMl9qVzFa20SlmkmdIwaAmgLlRXb
xxVin5W/m95X/MnTru+0KO5thZTehLb3qwpMfhVuapFLN8HxUqT1xVm+KpP5h84+U/LcccnmDWLP
SlmqIfrc8cJenXgHILU70xVH6dqem6nZRX2m3cN9ZTjlDdW0iyxOK0qroWVvoOKobRvMvlzXBOdE
1Wz1QWzBLk2VxFcCNzWiv6TNxO3Q4qiNT1bS9Ks3vtUvILCyi/vLq6kSGJf9Z3KqPvxVJ9C/MXyF
r939S0XzFp2o3m5Ftb3MUkpA3JCBuRA8QMVZFiqXv5h0CPWY9DfU7Rdalj9WLS2njF00YBPNYC3q
FaKd6dsVTDFXYq7FXx//AM4d/wDk0/NP/MBL/wBRkeKvsDFXYq+Sbn8nPzLfy1+bVouhym48w6tY
3OjR+pDW4ihvrmWR1+Og4pIp+KnXFX0r+XWm32l/l95Y0y/iMF9Y6TY213ASCUlhtkSRCVJHwspG
xxVkOKvjb/nLrzH59vfMVv5d1TS4rby5DdNJ5evUR1lu2EMay8mMjI3BpqbIuKsZtvNf5wT/AJ7R
63B5cgk896ZB6Q0MRzGGONbP0N4zPz/uZeX971P0Yq+67V5ntonmXhMyKZUHQMR8Q798VfD358ag
dV/Py+07z1fXdl5csnEVr6C8zDbG3DxNCh5D97JQuwBO52NOOKph/wA4uflZpnmbUrbzSuuGz1Xy
7qkcsmlIVLT20apIp+FlkVWkqpJBVgCMVfauKvkP80/8ID/nKC9P5oer/hH6hEdP5+sY+H1NePH0
P3nD6z6v2f2+u2KsQ/Ln8xde8ufldr3lzQTPLqXmvVI9P8tQA/GnqJwupU8HKvDGN/tGo+ycVfWf
5O+RNI8ieSbPy5aSxT38Y9fV5o2DGS7kA9VjTfitOC1H2QO+KvFf+c19M8xyx+XNRVJpfLFsZUvB
EfgjuZGXi0goQC6VVGNabjvuq8h842PkPV/OPlu0/JKy1Aai8cTyqzSl1vOSshUysxVoqEyOD6Y6
g0BOKvv23EwgjE5DTBVErL0LU+Ijp3xV49qnknzTN/zk7pHm6OwdvLtvpL202ock4LKY5wE48ufW
Rf2cVeyYq7FXYq+af+cZvJelaH+YPmC8s/NOl65LPaSI9nYNMZYgblG5P6kca0BHHY9cVfS2KuxV
2KuxV2Kvib/nIA/m5f8A5taTpGsNDJI2pS/4IgU24/cXN4I7Yycehb04wTLvtviqG/Ln/ldWofnr
rF7p7QTebrSRovMshNrwWBJ44LhU5fu6jgF+DfbFX3Fir5P/AOcpPzO8i6suv+TLjSCPNOiy2q6Z
rJjR+SN6cs8Yk2kjoJGHHdWpWvTFXjXkwQw/mR5L/wACz3j6nI1h9d5DiVvWb/S44+NOUHD7XLty
rVd8VforirH/ADnoHkbUNLlvvN2m2N7YaZHJcPPfwxyiGNF5yMGcEqKLvTrir5B1mz1TzD5V83/m
7ZWn6H0iwMWj+TbK2jWFLa0e4WKaSJY+KpRJWUlducj03XFUq0+Dy35V1P8AK3WvIetyXXmfVWT/
ABFaxzCQxzPNCvoPEgDKJDJIhRvtBQe9Sqzj/nKLzfq99+amneSdb1CfR/Iw+pyXbwgkSxzPWa5Z
QP3npbqq7gFa0rirzzz2dH/LjXr1Py082RatoXmLT5rO7hjkEs0UUq8XjmdFVK1PKNlow3BFPtKv
pL/nERrE/lOPS1Fb6/mvp7jUYeZeS3duMUcbhviHKOFWHY12xV7ZirsVdirsVYr5U/K3yD5S1K51
Py7pEen314hiuZ0eVy6M4cikjuPtKDsMVZVirsVdirsVdirHta/L7ydrfmHTvMeqaZHda1pPA6de
M0gaIxuZEoqsENHNdxirtC/L3yboOu6lr+kaZHa6xrDO+pXitIzStLIZXJDsyjk55fCBirIcVYJ+
bP5Q+XvzF0J7G7WGz1Osf1fWhbxzXMSI4dkRiUbi4FCOWKon8uvyp8oeRtKtLfTLC2OqQwLBdayI
ES5uCAAzM/xMORFSvKmKsyxVLvMXl3RvMej3Gjazb/W9MugouLYu6BwrBwCY2RqclHfFVOy8q+XL
Hy4nlq20+FNBSE2w04ryhMLV5IytXlyqeVevfFWM+WPyL/KjyxrS63onl6K21OMsYrhpbif0y1am
NJpJEQ79VAxVOfOH5d+SfOVvHB5m0iDUlhqIZJAyyxg9Qk0ZSRQe4DYqx7Q/+ce/ya0S6+tWPle2
aahWt0894oBFDRLqSZR160xVNvKn5T/l95S1KXUvLekLpl5MhjmeGWfi6E14tG0jIRXcfDt2xVlu
KuxV2KuxV2KuxV2KuxV2KuxV2KuxV2KuxV2KuxV2KuxV2KuxV2KuxV2KuxV2KuxV4F+UP/OSWt+e
vzEbyrd6NbWduI7mT6zFJIz1g6Cjbb4q99xV2KvnaT/nKDXkt/zAl/QlqT5OkjS2HqSfvw+orZfv
PD4X5bd8Vev/AJW+cbnzn5B0jzNc26Wk+pRu728RLIpSV49i2/7FcVZViryL8+fz1b8trbTRplva
6pf3k0kdzaySkNCsaKwLBCWBPMUriqRRf85KXb/mnpHk36np/wCj72G0e+1T6yeMTz2i3MoBNE+A
txFTX6cVe9AhgCDUHcEdCMVeL/m9/wA5PeWvy/1l9AtdOk1vW4AjXcKyi3gh9RQyq0pWUl+LBuIT
6cVeV/kx/wA5ReY5fOkmnebmu9XttduYbXSYYFgrayzTFFWnGIup9RVJ5V26HFX15irw382v+cid
Y8ted18jeT/L51/zAkaSXKn1Hozxev6UcMI5uRDRy3LYYqmf5Yf85F6B5t8j655k1e3/AEPL5aRZ
NWhD+ohSRWMTRMQpJlaNlVOvLbeoxVNvyP8AzJ80fmHoN35g1XSIdJ0tpjDpQjd5JJglfVdiwUcV
NFBHUhulMVQX55fn3pv5YxWdpHYnVNc1BGlgtS/pRRxKePqSvRm3bZVA3odxiry+w/5zE806Zqlt
H5z8nmx067pLHJD60Ewt2PwyxpcDjMPkVBxV9P2F7a39jb31pIJbW7iSe3lHRo5FDIwr4qcVeZ+Y
Pzh1LS/zx0T8uY9PhkstVt1nkv2dxKhZJmoFHw/7pH34q9TxV2KuxV8Qf84sf+T5f/jBf4q+38Vd
iryR/wDnGXyG0XmqI3+qcfN7q+pH1besZS7W9Hof6P8AD+8Wnxcvh998VZ/5J8oab5O8rWHlrTJZ
prHTkZIJLlkaUh5GkPMosandz0UYqnmKvhH/AJyhsvKJ/Mu5v9E1pdQ1C/nlj1u1pRbKe29O3EZN
PFGr8sVYxpfk38vrz805fLkvmUw+Ug8iQeYCq1k4xVSi9Pjl+HFX6I2sAt7aKAHkIkVAx6kKKVxV
8Z/85Lfl75o8l/mEfzKsZYpNM1DUIZbSZwkjwXyx+oI5IZAVdT6DMpoRTY+6rGPyN/Mfy35b8+TX
XnHRkvV1i6t7iLUCi+pYXHqNIlzGjDlxPrVPFgePTl0xV974q+dfzX/Jv80Y/wA3E/Mz8upbefUZ
kUSwTtGjQyLa/UyQJv3bo8I8ag9sVfPWreXtW8qTXvkbVL9Y3uJLfUPOL2pEwgitgzQwepVVkkHr
livLi0jRrXkMVe9+Qf8AnK3yJZHR/LX+G7rQfLahbLT9QeRZUREPBXkUIvf+8ZWYg+OKpb/zmrZ+
TZE0e8k1H0vN8KGOHTUXn6tkzkl5CP7rg/LgT9rcUNKqq8L1Hzhq/n3UbFPPmum3stAsTFB+5rO6
QgVhiVQqtcTUHxSso23PQFV9sfkf+YXlvzn5NVvLmn3WnaVobR6TBDd8C3G3gj4gFGcGiMoxVF6r
+UXlvU/zL038w57m8XWtLiEFvbxvELVlVZFq6GJpCf3x6SDtirN8VdirsVeBflDpX5m2/wCYjTa/
+X+h+X9J9O5A1fT7G0t7nkfsL6sUjvR/2tt8Ve+4q7FXYq7FXYq+UPzh/wCccdV1L827K78t6Nc3
GgaxOl55jv8A6xFRJ7u9ka64CQqyhIiGFAeuKoT8vf8AnF+8m/NPWE8yaNd2Xku1e6k0Sczx85PT
ulForGN3aphJY1HbFX11ir40/wCcs/JHnvTdbvvNN5qKz+UtavrZLexjlkAiuYrRo4vUt2+DkIop
KOpPU9K4qhfy/wD+cd/zO893/l/XPNsiW3lhLSy+qzyyxSyyaZFEpt4YIYS/ENHQfvOJFSSCdiq+
1cVSfzjqWuab5Y1G80HT21XWo4T+j7BSq+pO3wpyLsg4KTybfoDTfFXz35Z/5xx8zXn5SebH134P
zD81OLhjcOrFBb3K3KxO6ErW4kQs5rTdf5cVefwfk5+eHm208qeSNX8vDSNH8tPdxrqsnBQsV5OJ
Z3dldllKlaJ6Y3792xVnH/OSX5E+f9c88jzp5Vtl1WKSGAXFmGjE0UtuOIKxykLIjKqmgqa12pir
B/NX5X/n9+aHmKK/1fylbaXfpCIp78KlmkqoPgM3KRy7CnEFVrTboBRV7B/zjRYfmZ5P05/KHmfy
jJY6Y0slxbaxE8DUlfd1uVWVmYHiAjqNtgRTcKvfMVdirsVdirsVdirsVdirsVdirsVdirsVU57e
3nQJPEkqA1CuoYV6VocVXoiIioihUUAKoFAANgABireKuxV2KuxV2KuxV2KuxV2KuxV2Kv8A/9k=
									</xapGImg:image>
							</rdf:li>
						</rdf:Alt>
					</xap:Thumbnails>
				</rdf:Description>
				<rdf:Description  rdf:about="" xmlns:dc="http://purl.org/dc/elements/1.1/">
					<dc:format>image/svg+xml</dc:format>
				</rdf:Description>
			</rdf:RDF>
		</x:xmpmeta>
<?xpacket begin='﻿' id='W5M0MpCehiHzreSzNTczkc9d'?><x:xmpmeta xmlns:x='adobe:ns:meta/' x:xmptk='XMP toolkit 3.0-29, framework 1.6'>
<rdf:RDF xmlns:rdf='http://www.w3.org/1999/02/22-rdf-syntax-ns#' xmlns:iX='http://ns.adobe.com/iX/1.0/'>

 <rdf:Description rdf:about='uuid:d4325794-8870-11dd-a6b5-001124808cba'
  xmlns:pdf='http://ns.adobe.com/pdf/1.3/'>
  <pdf:Producer>Adobe PDF library 6.66</pdf:Producer>
 </rdf:Description>

 <rdf:Description rdf:about='uuid:d4325794-8870-11dd-a6b5-001124808cba'
  xmlns:tiff='http://ns.adobe.com/tiff/1.0/'>
 </rdf:Description>

 <rdf:Description rdf:about='uuid:d4325794-8870-11dd-a6b5-001124808cba'
  xmlns:xap='http://ns.adobe.com/xap/1.0/'
  xmlns:xapGImg='http://ns.adobe.com/xap/1.0/g/img/'>
  <xap:CreateDate>2006-01-25T10:39:25+09:00</xap:CreateDate>
  <xap:ModifyDate>2008-09-22T06:38:15Z</xap:ModifyDate>
  <xap:CreatorTool>Illustrator</xap:CreatorTool>
  <xap:MetadataDate>2008-09-11T20:04:40+09:00</xap:MetadataDate>
  <xap:Thumbnails>
   <rdf:Alt>
    <rdf:li rdf:parseType='Resource'>
     <xapGImg:format>JPEG</xapGImg:format>
     <xapGImg:width>76</xapGImg:width>
     <xapGImg:height>256</xapGImg:height>
     <xapGImg:image>/9j/4AAQSkZJRgABAgEASABIAAD/7QAsUGhvdG9zaG9wIDMuMAA4QklNA+0AAAAAABAASAAAAAEA&#xA;AQBIAAAAAQAB/+4ADkFkb2JlAGTAAAAAAf/bAIQABgQEBAUEBgUFBgkGBQYJCwgGBggLDAoKCwoK&#xA;DBAMDAwMDAwQDA4PEA8ODBMTFBQTExwbGxscHx8fHx8fHx8fHwEHBwcNDA0YEBAYGhURFRofHx8f&#xA;Hx8fHx8fHx8fHx8fHx8fHx8fHx8fHx8fHx8fHx8fHx8fHx8fHx8fHx8fHx8f/8AAEQgBAABMAwER&#xA;AAIRAQMRAf/EAaIAAAAHAQEBAQEAAAAAAAAAAAQFAwIGAQAHCAkKCwEAAgIDAQEBAQEAAAAAAAAA&#xA;AQACAwQFBgcICQoLEAACAQMDAgQCBgcDBAIGAnMBAgMRBAAFIRIxQVEGE2EicYEUMpGhBxWxQiPB&#xA;UtHhMxZi8CRygvElQzRTkqKyY3PCNUQnk6OzNhdUZHTD0uIIJoMJChgZhJRFRqS0VtNVKBry4/PE&#xA;1OT0ZXWFlaW1xdXl9WZ2hpamtsbW5vY3R1dnd4eXp7fH1+f3OEhYaHiImKi4yNjo+Ck5SVlpeYmZ&#xA;qbnJ2en5KjpKWmp6ipqqusra6voRAAICAQIDBQUEBQYECAMDbQEAAhEDBCESMUEFURNhIgZxgZEy&#xA;obHwFMHR4SNCFVJicvEzJDRDghaSUyWiY7LCB3PSNeJEgxdUkwgJChgZJjZFGidkdFU38qOzwygp&#xA;0+PzhJSktMTU5PRldYWVpbXF1eX1RlZmdoaWprbG1ub2R1dnd4eXp7fH1+f3OEhYaHiImKi4yNjo&#xA;+DlJWWl5iZmpucnZ6fkqOkpaanqKmqq6ytrq+v/aAAwDAQACEQMRAD8A9KaVpWlnS7MmzgJMEdT6&#xA;afyD2xVFfonSv+WKD/kUn9MVd+idK/5YoP8AkUn9MVS3y1pWlny5pRNnASbO3JJjT/fS+2Kpl+id&#xA;K/5YoP8AkUn9MVd+idK/5YoP+RSf0xVLfLOlaWfLmlE2cBJs7ckmNP8AfS+2Kpl+idK/5YoP+RSf&#xA;0xV36J0r/lig/wCRSf0xVBejF+iPR4L6X1zh6dBx4/XacadKUxVj+qaFcamtu1+skuh2+j84Io5j&#xA;HELwD4jPGjK0v7vj6dQVWjV3K4qt0jyj5Mj8o6fqN7EtgRYwTXGpJcSWkiFolLSG4R42Tc9eWKp/&#xA;5MudQufLVnNfvJLM3qCOeZfTllgWVlt5pEAXi8sIR2FBuegxVBu7p+WbOjFXXRSVYGhBFrsQcVQ2&#xA;j+UfIV1Y2vCytJp2hRnCtyYniKk0avXFWV2trb2ltHbW6CKCFQkUa9FUbADFUD5Y/wCUa0n/AJg7&#xA;f/k0uKpb+XupW1x5K8uKbpJrp9LszIPUDSFvq6Fidya+OKslxVKf+ld/0ff9j2Ku/wCmV/6Mf+ZO&#xA;Ksb0H8tfy+vvK+jPceXdOMwtbWZbmO2iinWURKRIk0YWRXB35K1a4qnPkye4NtqVlJcyXsGmX81n&#xA;aXszGSSSJVR+Lud3aF5GgLHc8PiJapxVQm/8li//AGxD/wBQmKqll5L8n3Wj2iXGh2EqmGJvitoS&#xA;eXAfEDxqD7jfFW/I8rnT761FzJd2thqFzaWdzK5lcxRPTg0rEs5hctFyYk/D8RJqcVTDyx/yjWk/&#xA;8wdv/wAmlxVjXkjyf5SvPIHlz63othcGTS7J3MltCxLG3Q8iSvWu9cVTPyTyhXWtMjmknsNK1FrT&#xA;TnldpWEP1aCZo/VYsziKaWSMcjUBePbFUf8A9K7/AKPv+x7FURYQpPoltC/2JbZEamxo0YBxVJ7f&#xA;yLbxWkVk2sarJZQosSW4ujDREAVR6lusMvQU2fFU907TrDTbKKxsIEtrSAcYoIxxVQTU7eJJqT3O&#xA;+Kpdo1nDe+TbGznBMFzp0UMoBoeEkAVqH5HFUKvkiEwLbT6xqs9qqhPQ+tmAcQKAepbLBL0/y8VT&#xA;ywsLLT7KGxsYEtrS3URwwRgKqqOgAGKoTyx/yjWk/wDMHb/8mlxVKrLyFa2lhb6cmsaqdPtYkght&#xA;luvRpFGoVFEkCxTCiimz1xVPtM0yw0uxisdPgW2tIa+nEgoAWYsxPcszMWYnck1O+KoP/pXf9H3/&#xA;AGPYqoaVP5j/AEXZ0sbMj0I6E3ko/YH/AC7YqivrHmX/AJYLP/pMl/7JcVd9Y8y/8sFn/wBJkv8A&#xA;2S4qlvlqfzH/AIc0rjY2ZX6nb8SbuUEj0l6j6scVTL6x5l/5YLP/AKTJf+yXFXfWPMv/ACwWf/SZ&#xA;L/2S4qlvlqfzH/hzSuNjZlfqdvQm7lBp6S9vqxxVMvrHmX/lgs/+kyX/ALJcVd9Y8y/8sFn/ANJk&#xA;v/ZLiqH5XX6E5emn1r63X0uZ9Pn9d+z6nCvGvfh9GKpJrX5kaN5YtdOsJLS91TVJbD67+jtNhE0q&#xA;WsKgPPIXaKKOMNtV3FT0xVB2X5w/WtJtdZTyZ5k/RF5DHdQXqW9nODBKgkST0re7mnoUNdo64qzL&#xA;Qde0nX9HtNZ0i4W7029jEttcKCAynbcMAykEUIIqDscVQmk3sVh5Lsr6YM0VrpsU8ipQsVjgDELU&#xA;gVoPHFWN6Z+a95qmm2mp2HkbzFPY30MdzaThdLAeKZA8bgNfg/ErA7jFWZ6Rfzahp0N5NY3GmyTA&#xA;lrK79ITx0JFH9F5o96V+FziqE0GdIPKenTuCUisIXYDrRYVJpiq/yv5hsvMnl3TdfsUkjs9Ut47q&#xA;3jnCrKqSryUOFZ1B33oxxVNMVSn/AKV3/R9/2PYqx3VvK+njT73zUskq6g3lqTS5IgV9F4VUzozL&#xA;x5c0ZmCkNSjHbpRVhfkvz3+Zen/lb5dXTPy8ur6O30awS1vTf2XpSottGqT+jG8lzxI+PgE59tji&#xA;rN/ycGmp+X9hFY3v18pLdNfSmFrZkvZrqSe6ha3cB4fTmlZeDbgAYqjZv/JYv/2xD/1CYqwv8uvN&#xA;H5hWf5a+VvQ8l/X7GDR7ARS2+pW4nliW1jCusMqRgMy78DJ7VxV6J5U81aV5o0ZNV031FiMkkE9v&#xA;OnpzwTwuY5YJozXhJG6kEfdtviqjp3/KDW3/AGy0/wCocYq85/KjzJ+YVp+V/llbTycuoWUOmW4h&#xA;mi1OCOWZBGKMsUqIqk/ytJ9OKvSfKPm3TPNGlNf2KTQNBNJaXtldJ6VxbXMJpJBMlTR1qOhIIIIN&#xA;MVVf+ld/0ff9j2KofUYZZvI1zDCjSSyaW6RxoCzMzW5AVQNyScVYN5E/MKPRvIHlzSJvLXmSXVdO&#xA;0qytJ7RNGvU/fQWyI6iWaOKH7SkVLgYqyP8AK3Qtc03TNZ1DXLdbHUPMOrXOrvpqusv1VJljijha&#xA;RKozhIQzlduROKo70ZZvy29GFGklk0bhHGgLMzNa0CqBuSTirDvIv5hDR/IHlzR5PLPmSfVtP0qy&#xA;tJ7RNHvIh68Fskbr61wkMAHNaci9MVZP+V+gazpOiX9zrUKWuq67qV3rF1YxuJVtjdMOEHqLs7JG&#xA;i82G3KtNsVTTTEd/JFoiKWdtMjCqBUkm3FABirz38tvPi6D+Xfl7Rbvy15kfVdPsILae1j0a+X97&#xA;GgVlEsscUPXuXA98VZV+WOi67Z2ut6xr1qthqfmTU5NSfTVkEptovRit4YndPgaT04Azldqn2xVP&#xA;v+ld/wBH3/Y9iqL0n/jlWX/GCL/iAxVF4q7FUs8sf8o1pP8AzB2//JpcVTPFXYqlnlj/AJRrSf8A&#xA;mDt/+TS4qmeKuxVKf+ld/wBH3/Y9iqhpXl+wOl2ZMt5vBGdr68H7A8JcVRX+HrD/AH7ef9J15/1V&#xA;xV3+HrD/AH7ef9J15/1VxVLfLWgWLeXNKYy3lTZ25NL28A3iXsJaYqmX+HrD/ft5/wBJ15/1VxV3&#xA;+HrD/ft5/wBJ15/1VxVLfLWgWLeXNKYy3lTZ25NL28A3iXsJcVTL/D1h/v28/wCk68/6q4q7/D1h&#xA;/v28/wCk68/6q4qh/q0f6E+rVf0/rfp8vUf1KfXaf3nL1OX+Vyriryvz1r3n688023lPRdYk8t6V&#xA;aeWH1yXUIIEmmu5oyY/q6SSBljCgBtvi6+2Kpf8Alf5Y/NLzV+X2l+a4vzK1Kz1LUIpJFgmt7e5t&#xA;kaOZ0AZJB8Sn098Veh/kl521jzl+X9prGspF+kVmntJ7i3BEM5t5TH60Y8Hp22rWlOgVR9/eXNl+&#xA;VFzeWshhurbQXmglX7SSR2ZZWHuCK4q8z/LjyR+YfmzyPo3mO4/MrWrafU7cTyQRpAyISSKAkV7Y&#xA;q9j8raPf6NoVrpt/qk+tXcHP1NTugoml5yM45BPh+FWCj2GKoFLia2/LlbiBzHPDo4kikHVXW1qp&#xA;HyIxVJvyJ1zVtd/Kby9q2r3T3uo3UMrXFzLQu5W4kUE0p+yoGKs9xVKf+ld/0ff9j2KoXVv+UAvf&#xA;+2VL/wBQxxV4X+VX5I2fm/8AJnRJrjzV5hslvoJi2nwXxOnrSaROP1R1ZOBpVl774q9H/IXzDe33&#xA;l7VvL97FarP5Q1W50MT2ES29vOltTjMsKfBGzcjyVdu+Kp1rn/knNQ/8B2b/AKgTirzL8pPyU8ta&#xA;z+Vvl7Vo9S1nStWurQSG80/UbiEo5ZqFIyzRKBToFxVm/wCQ/mjX9d8q6pba9djUr/y9rF5oh1QK&#xA;F+tJacCkxA2qRJSvt44qyGb/AMli/wD2xD/1CYq8f/JT8l/LGvflP5f1hr/V9N1W5ilc3mn6jcQF&#xA;GE0iAxx8miXYdlxVnX5GeY/MOoWXmXQtdvm1a58razcaVBq7hQ9xBEAUMvHYyLuGPy6ncqs4/wCl&#xA;d/0ff9j2KrksUv8Aywtg7FEu7IQM43KiSLgSPlXFXmmjfkT5j0jQoPL9h+YusWmi26lI7W2htYXV&#xA;GYuwSYIZFJLHeuKs+8i+RPL/AJI0BNE0ON1thI0880z+pNPPJTnNM9ByduI7DptirrXSo9X/AC/i&#xA;0mSQxR6hpK2ryqAWVZ7b0ywB7jlirA9M/IrzDp+iW/l+D8xdag0K3j9FLS0jtbeRYt/hSdUaRevX&#xA;FXoXk7ydoHk/y/baDoUHoWFtUgMS7u7GrySOd2ZjuT922KtaZYpf+SLSwdiiXemRwM43KiS3CEj5&#xA;VxV57ov5FeZNG0ODQNO/MXWLTRbdTHHbW0NrE6ozF2CTBDIpJY71xVn3kfyPoHkrQI9E0SN1tg7T&#xA;TzTOZJ555Kc5pnNOTtQV29htiqK/6V3/AEff9j2KqGlarfjS7MDRrwgQR7h7Pf4B43GKor9LX/8A&#xA;1Zbz/g7P/soxV36Wv/8Aqy3n/B2f/ZRiqW+WtVvh5c0oDR7xgLO3AYPZ0P7pdxW4BxVMv0tf/wDV&#xA;lvP+Ds/+yjFXfpa//wCrLef8HZ/9lGKpb5a1W+HlzSgNGvGAs7cBg9nQ/ul33uAcVTL9LX//AFZb&#xA;z/g7P/soxV36Wv8A/qy3n/B2f/ZRiqH9aT9Cet6D+p9b5fVqp6lfrteFeXp8u32qe+KpXrP5j+Rv&#xA;J2k6Z/iXWbfTXuLeMwRSEtK4CgFljQO5UHvSmKpKn/OR35Ju6qPNNuCxAFYrlRv4kxADFWf6Zqmm&#xA;6rYQ6hpl1Fe2FyvO3uoHWSN16VV1JB3xVLdM1Kx0vyRaanfyiCxsdMjubucgkJFDbh5HIUE/Cqk7&#xA;DFWIf9DI/kl/1NMH/Im5/wCqWKs28s+adA80aPFrOg3i32mTs6xXKK6hjGxRhRwrbMKdMVWaFcwW&#xA;vlHT7m4f04INPhllc1IVEhDMdvADFV/lnzToHmjR4tZ0G8W+0ydnWK5RXUMY2KMKOFbZhTpiqa4q&#xA;lP8A0rv+j7/sexV5P5o/KOa/84P5+uzaX2kw+WHtBY3Ss8sNwkDlZYVKtHtXuaglvbFXjv5Vfmx+&#xA;VHln8pm0jzR5cfW9Rea5LJ9TheJhIR6aNcykcfmKlfnir3P/AJxa8uXWiflPbCe9gvP0hdT30SWs&#xA;yXEUCSBU9D1IyyllMZLUOzEjFWQecv8AyQ+uf+Atdf8AdObFXhf5N/mx5B8tflbo9nr/AJM1S8+q&#xA;/WTda9HpcE9kQ93K4b6w7hmCKwVvh2II7Yq+lPJPmDyn5g8uW2qeVZIZNGn5el6CekFYH41aOilG&#xA;B6gjFUJN/wCSxf8A7Yh/6hMVfP8A+Q/55aJ5O/K3T9M1Ly9r9xDbS3LzatZ2Sy2IWSdnr6xlT7Na&#xA;N8PXFX0X5M87eWfOehx615dvVvbB2MbMAyPHIoBaORGAZWFRsfmNsVV/+ld/0ff9j2KoXVv+UAvf&#xA;+2VL/wBQxxV82fkL+e/5a+TfysGg6/LPNqQuLmQ6dDbPN6qSkcUBIER5eDNir0L/AJxT0DXdP8ue&#xA;YNTvtPl0jTNb1NrvR9KlUp6UBX7SoQCFIKqNtwtemKs085f+SH1z/wABa6/7pzYq8Z/Jb/nIX8tv&#xA;KP5Q6R5f1KW5utcs1uxJpltbPI0jTXc0qIrsFiPJJF/axVn3/OLPlbXdD8gX1zq1k2mfprUptQst&#xA;McFTDbukaJ8BoV5cDQEfZocVZ7N/5LF/+2If+oTFXz/+RP8AzkD+W3kz8qrHQ9YubhtYtpLl2sYL&#xA;aSRn9WZnRVegjqwYdWxVnn/OLfl3WrDy95h1rUNNfR7bzDqsl7pmmyqUeO3I+E8CF4r8XFdhUCvS&#xA;mKvVv+ld/wBH3/Y9iqK0oBtJswRUG3jBB6EcBiqpDYWMD84baKJ+nJEVTQ+4GKojFUr8toj+WNLR&#xA;1DI1lAGUioIMS1BGKo2CxsoHLwW8cTkULIiqaeFQMVV8VSvy0A3lnSgRUGytwQehHpLiqNhsLGB+&#xA;cFvFE9KckRVNPCoGKq+KpT/0rv8Ao+/7HsVUNK0q/Ol2ZGs3gBgj2CWe3wDxt8VRX6Jv/wDq9Xn/&#xA;AAFn/wBk+Ku/RN//ANXq8/4Cz/7J8VS3y1pV8fLmlEaxeKDZ25ChLOg/dLsK25OKpl+ib/8A6vV5&#xA;/wABZ/8AZPirv0Tf/wDV6vP+As/+yfFUt8taVfHy5pRGs3ig2duQoSzoP3S7b25OKpl+ib//AKvV&#xA;5/wFn/2T4q79E3//AFerz/gLP/snxVD+jJ+hPR9d/U+t8frNE9Sv12nOnH0+Xf7NPbFXi35j/nl5&#xA;80jzGnkzyLpNpdXum6SmpapeXxJCxJbid/TX1IV+GOm5JJJoB3xVj/kv84v+cmvN/lu68y+X9J0X&#xA;UNPsJ3t54CjJKzxRpM4VGuELfBIv2TU9sVewfkd+bH/Ky/KEmry2QsL+zuGtL2BGLRF1RXDxk78W&#xA;VxsdwfHriqO1/X77y7+T1zrtgEN7puii5txKCyc47cMvJQVJFffFXj/kT8x/+cofPGgJr2g2egPp&#xA;7yPCrTK8bc4zRvhMuKvcfy+k8+SeXEbzzFaRa96snNLAkw+lX93SpbenXfFVkup3Olfli+qWoU3N&#xA;hopuYA4qvOG05ryAIqKrvirGv+ce/wAxfMHn/wAhya7rqwLerfTWwFsjRpwjSNl+Fmc1q574q9Nx&#xA;VKf+ld/0ff8AY9irEfN3k7yw3lLV/NJ06H/ECeXrmBdSofV9P6k68a1pShpir5p/JDyP+dHmT8uN&#xA;W/wT5ng0jRXvZ4LnTZGaOSWf6vCXZZUikZecbIv2h0xV7J/ziRr+g3PkrUfL1jpf6M1TQroDWP3n&#xA;rfWJZwyrOX8T6DJxGw4imKsu/MT/ANZ/1n/wHW/6hRirwP8AJD8vfzh1P8uP075K87PpUazTrbaG&#xA;6kwNLGQSSzF4xzPjH88Ve1f843fmtrH5h+TbmfXFQ6xpdx9WubiJQizqyB0kKL8Kt1DBdtqjrTFW&#xA;T65/5JzUP/Adm/6gTir5q/IL8vPzX1vyFPrHk7zw+gwpdzRR6SyO0DzIkbF2NWVeVQCfTPTFXs//&#xA;ADjb+anmTz1oOrWvmVY31nQblLea7iVUWZJFbiWVPh5ho2qVAUilBir0v/pXf9H3/Y9iqH1HS5tX&#xA;8i3WlQOsc2oaXJaxSPXirTW5jUtSpoC2+Kvn/wAq/wDOO/59+WNIn0TQ/PNlpelXcrzXMdsJefqS&#xA;IsbOrmEOrcY1HwuOmKvW/wAmPyd0z8stDurOC8fUdS1GRZtRv3X0w5QEIiJVuKrybqxNSfkFUx1n&#xA;y7deZfykm0C0lSG51TRltYZZa8FaW3CgtxBNN+wxV4xoH/OPn59aR5dPlax892Wm+XpTIZobSN/U&#xA;/ff3lJPRjl+Kn+/Bir2L8o/ys0n8tvKv6Dsbh7yeaU3N9fSKEMszKF+FAW4IFQBVqfniqYnS5tX/&#xA;AC1/RUDrHNqGjfVYpHrxVprX01LUqaAtvirwzyx/zj/+f/lzQn8u6P56sdL0WaV5po7WN/VDyKFZ&#xA;llMCyioUdJBir1v8m/yi0r8s/Lk2mW102oX17L6+oag6iP1HA4qqIC3FEHQFiakmvgqyj/pXf9H3&#xA;/Y9iqhpXmCwGl2YMV5tBGNrG8P7A8IsVRX+IbD/fV5/0g3n/AFSxV3+IbD/fV5/0g3n/AFSxVLfL&#xA;Wv2K+XNKUxXlRZ24NLK8I2iXuIqYqmX+IbD/AH1ef9IN5/1SxV3+IbD/AH1ef9IN5/1SxVLfLWv2&#xA;K+XNKUxXlRZ24NLK8I2iXuIsVTL/ABDYf76vP+kG8/6pYq7/ABDYf76vP+kG8/6pYqh/rMf6E+s0&#xA;f0/rfqcfTf1KfXa/3fH1OX+TxriqrHq+k6XollPqd7BYwGGMCW5lSFK8AacnKjFUPH5+8iSOEj8x&#xA;6W7tsqre25JPsA+Kp6rKyhlIZWFVYbgg9xiqUaFdWtp5S066u5kt7aGxgeaeVgiIoiUlmZiAAPE4&#xA;qh/+VheQP+pm0r/pOtv+a8VTXTNX0nVbY3Wl3sF/bBihntpUmTkKEryQsKivTFUHoNxb23lPTrm5&#xA;lSC3gsIZJppGCIiJCpZmY0AAAqScVRWl63o2rwvPpV/bahDG3CSW1mjmVWpXiWjLAGh6YqjcVSn/&#xA;AKV3/R9/2PYq+X/zV/K7zR5o/MnUdW1u1vW8n2OgGbS76Ar6McltpnrLGxblxVrlX5bb1piryX8v&#xA;dH/J288pa/deddXutP123B/Qlvahm9U+mStVEUin95Qbsu3cdcVfSn/OHVl5vtfy/vTrKTR6RNcr&#xA;JoUdxyB9MpWV4g24iZqcabE8iOuKs0/MT/1n/Wf/AAHW/wCoUYq+R/yn0r8gL7RZh+Yur3+m60bt&#xA;1tltlkMJtvTj4MxjgnoxkL9+mKvsr8n/ACt5H8ueTY7byVftqWg3U0l1FdtMlxydwqOA6Kg29OhF&#xA;Kg9cVUPOX/kh9c/8Ba6/7pzYq+fP+cXPzk/L3yP5X1PSvM+pNYXV5qBuIT6E8yen6CJUtCklPiUj&#xA;FX1d5f8AMeheYtLi1XQ7+HUdPm+xc27h1qOqmm6sO6ncd8VU/wDpXf8AR9/2PYqlXmz/AMlZrP8A&#xA;2w7n/qDbFXxp+TmqfkVZ+VNej/Me1+t6lLIv6NjiiuGuDH6Zr6UsXFEPP+Zx92KvW/8AnCS58xya&#xA;P5khuGlby/DLb/UPU5GNbhhIZ1irt9ngXA9vHFXqf5if+s/6z/4Drf8AUKMVfLf5Y+ZvyQ078o9e&#xA;sPOVhBfea5rq6bS0Fo73XpPaxJCUuwoWNRMrmnqbbmm+6r2D/nCiy1iHyTrlzcB10u5v1+oBtlaS&#xA;OLjO6V7H4Fr4r7Yq9P8AOX/kh9c/8Ba6/wC6c2KvlP8AJvzP+Rml/l9rtp+YFhDf6zLcu9hCLRpL&#xA;toTbqoEV0EpF+8rSsgod6Yq9P/5whstYi0LzRdzrIukXFxarYlq+m08SS/WCg/1WiBP9MVfQn/Su&#xA;/wCj7/sexVWs7W2u9AgtLqNZra4tVinhcVV0eMKysD1BBocVY2n5LflIjqw8oaSSpBFbSJht4gqQ&#xA;cVZZYafYafaR2dhbRWdnCOMNtAixRoPBUQBR9GKpZpOnWOpeTLCwv4EurK60+GK4t5VDJIjQqGVl&#xA;OxBGKpPF+TH5SxyLIvlDSeSmo5WcLD7mUjFWX29vb20EdvbxJDBEoSKGNQiKo2CqooABiqU6NZWl&#xA;/wCTbGxvYUuLO606KC5t5AGSSKSAK6Mp6hlJBGKpKn5L/lKjhx5Q0klTUBrSFh9IKkHFWXWdnZ2V&#xA;tHa2cEdtawjjFBCixxovgqqAAPliqX/9K7/o+/7HsVUNKg8x/ouzpfWYHoR0Bs5T+wP+XnFUV9X8&#xA;y/8ALfZ/9Icv/ZVirvq/mX/lvs/+kOX/ALKsVS3y1B5j/wAOaVxvrML9Tt+INpKSB6S9T9ZGKpl9&#xA;X8y/8t9n/wBIcv8A2VYq76v5l/5b7P8A6Q5f+yrFUt8tQeY/8OaVxvrML9Tt6A2kpNPSXv8AWRiq&#xA;ZfV/Mv8Ay32f/SHL/wBlWKu+r+Zf+W+z/wCkOX/sqxVD8br9CcfUT619bp6vA+nz+u/a9PnXjXtz&#xA;+nFXjv5jf85S6R5E1CLy1YaNJrWp2lrAbyQzi3hieSFZFUEJMzkKwLbCnSta0VYbb/8AObuqtylf&#xA;yYksEf8AemO9daV2FW+ruBv4jFXuX5RfnF5e/M3R7m90yGWzu7B0jv7CfizRmQExsrrsyPxah2Ox&#xA;2xVEa55qk8pflKfMkdsLt9L0uCdbZmKByI0FCwDU6+GKvBYP+c1vMFwCYPJSShdmKXUjAH6IMVe1&#xA;fkl+aeo/mNoF/ql9o/6Gks7v6qsHNpOa+mj86skf89OmKptqXmN/LP5VP5hjgF0+laOl2tuzcA5i&#xA;gDcSwDUrTwxVjP5D/nVdfmhaaxPPpSaWdLkgRVjmM3P1lc1NUjpT08Veq4qlP/Su/wCj7/sexV4t&#xA;56/JDSbeHzV+Z0WozC9m8t3/AD00ohh+LRntSQ5PPf7f4dMVfOP5Wav+aVn5c832PkrS/wBI2GpW&#xA;0UPmCVYPrDww8J1TgCaDkry/st0xV75/zha3k5PLutx6bczyeZJZIH1mGdVjVYkDiD0ArPyQF3qx&#xA;oa9QBSqrPvzX/wDWdtW/7YkP/EI8VfLP5O+ZPzs8ueWdc1jyJapceX7GQT62XS3l4lIieRR2Wcqq&#xA;bn0/pxV9Sf8AOP8A+c8v5m+X72W/tI7PWtJkjjvktyfRdZgxikRWLMvL02HEk9OvgqjfzE/9Z/1n&#xA;/wAB1v8AqFGKvkv8ltb/ADs0XR9f1L8vLZbjTLX0ptcqlvKRwSQpRJWErfDz/uxir6f/AOcevzwu&#xA;PzM0vUIdTs47TW9IMX1k2/L0Jo5uXB0DFmUgxkMpJ7EHegVej/8ASu/6Pv8AsexVLPNOk32sfldq&#xA;+kWCCS+1HRLm0tIywUNLPaNHGCzUAqzDc4q+V/Kn5J/85P8AlOz1Sy8uxx6db60kcepenc2JaRYu&#xA;YSkjFnjp6rboQd8Vey/844fkVq35bw6nqOu3MM2r6oscQt7ZmeOGGMliC7BeTszCtBQU2JrirK/O&#xA;nl7VPMf5JXWh6TGJtRv9IhitomZUDOUQ0LMQo6d8VfNuhfkb/wA5OaNoGpeW9LjisdG1r4dUgW6s&#xA;v3qlfTYNJVpQpQkMqncdjir3v/nHn8mrv8tPLl9HqlzFc61q8sct59XqYo0hUiKJWYKWKl3Jag60&#xA;HSpVT/zNomo69+TF5o2mxiXUNQ0MW9rGzBA0kluFUFmIA38cVfM3lv8AJH/nJ/y3pOp6Poccen6f&#xA;rSqmpJHdWXKRVDKP3hLSp8Lt9hhir3D/AJxz/JG//LXStRuNYuYrjW9XMQmjtyzQwxQ8iiBmClmJ&#xA;kJY0p0A8Sq9M/wCld/0ff9j2Kt6VquljS7MG8gBEEdR6ifyD3xVFfpbSv+W2D/kan9cVd+ltK/5b&#xA;YP8Akan9cVS3y1quljy5pQN5ACLO3BBkT/fS++Kpl+ltK/5bYP8Akan9cVd+ltK/5bYP+Rqf1xVL&#xA;fLOq6WPLmlA3kAIs7cEGRP8AfS++Kpl+ltK/5bYP+Rqf1xV36W0r/ltg/wCRqf1xVBetF+iPW5r6&#xA;X1zn6lRx4/Xa8q9KUxV//9k=</xapGImg:image>
    </rdf:li>
   </rdf:Alt>
  </xap:Thumbnails>
 </rdf:Description>

 <rdf:Description rdf:about='uuid:d4325794-8870-11dd-a6b5-001124808cba'
  xmlns:xapMM='http://ns.adobe.com/xap/1.0/mm/'>
  <xapMM:DocumentID>uuid:831aaf18-81ce-11da-9137-001124808cba</xapMM:DocumentID>
 </rdf:Description>

 <rdf:Description rdf:about='uuid:d4325794-8870-11dd-a6b5-001124808cba'
  xmlns:dc='http://purl.org/dc/elements/1.1/'>
  <dc:format>image/svg+xml</dc:format>
 </rdf:Description>

</rdf:RDF>
</x:xmpmeta>
                                                                                                                                                                                                                                                                                                                                                                                                                                                                                                                                                                                                                                                                                                                                                                                                                                                                                                                                                                                                                                                                                                                                                                                                                                                                                                                                                                                                                                                                                                                                                                                                                                                                                                                                                                                                                                                                                                                                                                                                                                                                                                                                <?xpacket end='w'?>
			</metadata>
		<g id="レイヤー1">
			<g>
				<rect x="0.125" y="0.125" fill="none" stroke="#000000" stroke-width="0.25" width="100" height="150"/> 
				<rect x="0.125" y="150.125" fill="none" stroke="#000000" stroke-width="0.25" width="100" height="150"/> 
				<rect x="0.125" y="300.125" fill="none" stroke="#000000" stroke-width="0.25" width="100" height="150"/> 
				<rect x="0.125" y="450.125" fill="none" stroke="#000000" stroke-width="0.25" width="100" height="150"/> 
				<rect x="0.125" y="600.125" fill="none" stroke="#000000" stroke-width="0.25" width="100" height="150"/> 
				<rect x="0.125" y="750.125" fill="none" stroke="#000000" stroke-width="0.25" width="100" height="150"/> 
				<rect x="0.125" y="900.125" fill="none" stroke="#000000" stroke-width="0.25" width="100" height="150"/> 
				<rect x="100.125" y="0.125" fill="none" stroke="#000000" stroke-width="0.25" width="100" height="150"/> 
				<rect x="100.125" y="150.125" fill="none" stroke="#000000" stroke-width="0.25" width="100" height="150"/> 
				<rect x="100.125" y="300.125" fill="none" stroke="#000000" stroke-width="0.25" width="100" height="150"/> 
				<rect x="100.125" y="450.125" fill="none" stroke="#000000" stroke-width="0.25" width="100" height="150"/> 
				<rect x="100.125" y="600.125" fill="none" stroke="#000000" stroke-width="0.25" width="100" height="150"/> 
				<rect x="100.125" y="750.125" fill="none" stroke="#000000" stroke-width="0.25" width="100" height="150"/> 
				<rect x="100.125" y="900.125" fill="none" stroke="#000000" stroke-width="0.25" width="100" height="150"/> 
				<rect x="200.125" y="0.125" fill="none" stroke="#000000" stroke-width="0.25" width="100" height="150"/> 
				<rect x="200.125" y="150.125" fill="none" stroke="#000000" stroke-width="0.25" width="100" height="150"/> 
				<rect x="200.125" y="300.125" fill="none" stroke="#000000" stroke-width="0.25" width="100" height="150"/> 
				<rect x="200.125" y="450.125" fill="none" stroke="#000000" stroke-width="0.25" width="100" height="150"/> 
				<rect x="200.125" y="600.125" fill="none" stroke="#000000" stroke-width="0.25" width="100" height="150"/> 
				<rect x="200.125" y="750.125" fill="none" stroke="#000000" stroke-width="0.25" width="100" height="150"/> 
				<rect x="200.125" y="900.125" fill="none" stroke="#000000" stroke-width="0.25" width="100" height="150"/> 
			</g>
			<g>
				<path d="M34.125,36.125h-2v72h14c20.1865234,0,30-7.0332031,30-21.5c0-10.4335938-6.2109375-16.4980469-18.9003906-18.5888672
					v-0.2001953C66.8173828,65.5097656,72.125,59.9462891,72.125,51.625c0-11.1025391-8.8320312-16.5-27-16.5h-12
					c-17.1484375,0-19,9.7910156-19,14c0,2.7607422,0.8583984,5.4453125,2.5449219,8H19.125c-2.0332031-2.6113281-3-5.3330078-3-8
					c0-7.1660156,5.4169922-12,17-12h12c22.4082031,0,25,8.2753906,25,14.5c0,9.9951172-8.5234375,15.5-24,15.5h-12v2h12
					c18.8413086,0,28,5.7246094,28,17.5c0,13.3037109-8.8974609,19.5-28,19.5h-12V36.125z"/>
				<path d="M33.2080078,189.3916016c-11.0913086,0-15.5,4.0390625-15.5,11.1499023c0,2.621582,0.8798828,5.2695312,2.75,7.9165039
					h-5.0458984c-1.5859375-2.7260742-2.3710938-5.434082-2.3710938-8.3330078
					c0-6.4780273,3.2509766-15.0004883,20.8339844-15.0004883h12.25c19.1293945,0,27.6665039,5.581543,27.6665039,16.8330078
					c0,8.1723633-5.4946289,13.9604492-14.9335938,16.1074219v0.2001953
					c12.2880859,1.956543,18.6000977,8.2333984,18.6000977,18.359375c0,14.4052734-9.5888672,21.5-30.3334961,21.5H31.7910156
					v-71.0834961h5.0004883v66.8168945h11c16.9487305,0,24.7329102-5.5292969,24.7329102-17.5664062
					c0-10.625-8.012207-15.7006836-26.3999023-15.7006836h-9.3330078v-4.1992188h9.3330078
					c15.4907227,0,22.9003906-4.9238281,22.9003906-13.934082c0-6.4707031-3.1645508-13.065918-22.2333984-13.065918H33.2080078z"/>
				<path d="M33.2919922,341.6582031c-10.6000977,0-14.0004883,3.2451172-14.0004883,10.300293
					c0,2.5761719,0.793457,5.1503906,2.5,7.8330078h-7.6367188c-1.484375-2.8969727-2.1962891-5.6289062-2.1962891-8.6665039
					c0-8.7460938,4.6503906-16,22.6665039-16h12.5c20.0913086,0,28.3334961,5.7661133,28.3334961,17.1660156
					c0,8.0239258-5.6816406,14.0356445-14.9667969,16.0039062v0.199707
					c11.8867188,1.8232422,18.2998047,8.3120117,18.2998047,18.1298828c0,14.34375-9.3632812,21.5004883-30.6665039,21.5004883
					H31.4584961v-70.1665039h8v63.6328125h10c14.7958984,0,21.4667969-4.8632812,21.4667969-15.6337891
					c0-9.4731445-6.8666992-13.8994141-24.800293-13.8994141h-6.6665039v-6.3999023H46.125
					c15.5048828,0,21.800293-4.3427734,21.800293-12.3671875c0-6.7167969-3.7373047-11.6328125-19.4667969-11.6328125H33.2919922z"
					/>
				<path d="M33.375,493.9248047c-10.1083984,0-12.5,2.4501953-12.5,9.4501953c0,2.53125,0.706543,5.03125,2.25,7.75H12.8974609
					c-1.3837891-3.0683594-2.0224609-5.8242188-2.0224609-9c0-11.0146484,6.0498047-17,24.5-17h12.75
					c21.0527344,0,29,5.9501953,29,17.4990234c0,7.875-5.8681641,14.1113281-15,15.9003906v0.1992188
					c11.4853516,1.6894531,18,8.390625,18,17.9003906c0,14.2822266-9.1386719,21.5009766-31,21.5009766h-18v-69.25h11v60.4492188h9
					c12.6425781,0,18.2001953-4.1962891,18.2001953-13.7001953c0-8.3222656-5.7207031-12.0996094-23.2001953-12.0996094h-4
					v-8.5996094h4c15.5185547,0,20.7001953-3.7617188,20.7001953-10.8007812
					c0-6.9628906-4.3095703-10.1992188-16.7001953-10.1992188H33.375z"/>
				<path d="M33.4580078,645.9912109c-9.9306641,0-12,2.0849609-12,8.7998047c0,2.4863281,0.6201172,4.9121094,2,7.6669922
					H11.6396484c-1.2827148-3.2392578-1.8481445-6.0185547-1.8481445-9.3330078c0-12.1787109,6.0375977-18,26.3334961-18h12.5
					c21.7519531,0,29.9995117,6.1826172,29.9995117,17.8320312c0,8.0458984-5.8041992,14.2304688-15,15.8994141v0.2001953
					c11.1518555,1.5664062,17.6665039,8.3496094,17.6665039,17.5673828c0,14.3681641-9.0571289,21.5009766-31.6665039,21.5009766
					h-19v-68.1669922h13.8334961v57.2998047h7.5c11.1733398,0,15.9667969-3.6806641,15.9667969-11.9667969
					c0-7.0488281-4.9140625-10.4003906-19.1333008-10.4003906h-4.3334961v-10.3994141h3.6665039
					c13.0410156,0,17.6337891-3.3203125,17.6337891-9.5341797c0-6.0986328-3.793457-8.9658203-14.4672852-8.9658203H33.4580078z"/>
				<path d="M33.5415039,798.0585938c-9.7524414,0-11.5,1.7197266-11.5,8.1494141c0,2.4414062,0.5336914,4.7929688,1.75,7.5839844
					H10.3823242c-1.1816406-3.4111328-1.6738281-6.2148438-1.6738281-9.6669922c0-13.3417969,6.0253906-19,28.1665039-19h12.25
					c22.4521484,0,31,6.4150391,31,18.1660156c0,8.2158203-5.7397461,14.3496094-15,15.8984375v0.2011719
					c10.8183594,1.4433594,17.3334961,8.3085938,17.3334961,17.234375c0,14.4541016-8.9760742,21.5-32.3334961,21.5h-20v-67.0830078
					h16.6669922v54.1494141h6c9.7036133,0,13.7329102-3.1640625,13.7329102-10.2333984
					c0-5.7744141-4.1064453-8.7001953-15.0664062-8.7001953h-4.6665039v-12.1992188H50.125
					c10.5629883,0,14.5668945-2.8798828,14.5668945-8.2675781c0-5.234375-3.277832-7.7324219-12.2333984-7.7324219H33.5415039z"/>
				<path d="M49.125,993.125h4.5c8.234375,0,11.5-2.6474609,11.5-8.5c0-4.5-3.2998047-7-11-7h-5v-14h3
					c8.0849609,0,11.5-2.4384766,11.5-7c0-4.3701172-2.7617188-6.5-10-6.5h-20c-9.5751953,0-11,1.3554688-11,7.5
					c0,2.3964844,0.4467773,4.6728516,1.5,7.5h-15c-1.0810547-3.5820312-1.5-6.4091797-1.5-10c0-14.5048828,6.0136719-20,30-20h12
					c23.1513672,0,32,6.6474609,32,18.5c0,8.3857422-5.6757812,14.4677734-15,15.8974609v0.2011719
					c10.484375,1.3203125,17,8.2685547,17,16.9013672c0,14.5400391-8.8945312,21.5-33,21.5h-21v-66h19.5V993.125z"/>
			</g>
			<g>
				<path d="M145.125,993.125h4.5c8.0556641,0,11.5-2.9970703,11.5-9.5c0-4.9355469-3.2998047-7.5-11-7.5h-5v-14.5h3
					c20.8945312,0,31.5,8.2470703,31.5,22c0,17.3037109-8.65625,24.5-33,24.5h-21v-73h51v15h-31.5V993.125z"/>
				<path d="M143.0415039,845.2910156h5.6665039c9.9707031,0,14.25-3.6386719,14.25-11.3505859
					c0-6.0878906-4.1411133-9.3486328-13.8330078-9.3486328h-6.0834961v-12.5341797h4.4165039
					c20.7299805,0,31.25,8.0478516,31.25,21.8222656c0,16.9970703-8.8491211,24.2451172-32.5,24.2451172h-19.8334961v-73h49
					v12.9326172h-32.3330078V845.2910156z"/>
				<path d="M140.9584961,697.4580078h6.8330078c11.8862305,0,17-4.28125,17-13.2011719
					c0-7.2412109-4.9824219-11.1992188-16.6665039-11.1992188h-7.1665039v-10.5664062h5.8330078
					c20.5654297,0,31,7.8486328,31,21.6425781c0,16.6923828-9.0415039,23.9912109-32,23.9912109H127.125v-73h47v10.8662109
					h-33.1665039V697.4580078z"/>
				<path d="M138.875,549.625h8c13.8007812,0,19.75-4.9238281,19.75-15.0527344c0-8.3935547-5.8242188-13.0478516-19.5-13.0478516
					h-8.25v-8.5996094h7.25c20.4003906,0,30.75,7.6484375,30.75,21.4638672c0,16.3857422-9.234375,23.7363281-31.5,23.7363281h-17.5
					v-73h45v8.7998047h-34V549.625z"/>
				<path d="M136.625,341.6582031v60.1333008h9.3330078c15.715332,0,22.5-5.5551758,22.5-16.8686523
					c0-9.5258789-6.6660156-14.8652344-22.3330078-14.8652344h-9.5v-6.3999023h8.8330078
					c20.2358398,0,30.5,7.3984375,30.5,21.1425781c0,15.9707031-9.4277344,23.3242188-31,23.3242188h-16.3334961v-73h43v6.5336914
					H136.625z"/>
				<path d="M134.375,189.3916016v64.5668945h10.6665039c17.6303711,0,25.2504883-6.1855469,25.2504883-18.6845703
					c0-10.6582031-7.5078125-16.6826172-25.1669922-16.6826172h-10.75v-4.199707h10.4165039
					c20.0712891,0,30.25,7.1479492,30.25,20.8212891c0,15.5556641-9.6201172,22.9121094-30.5,22.9121094H129.375v-73h41v4.2666016
					H134.375z"/>
				<path d="M132.125,37.125h37v-2h-39v73h14c20.1865234,0,30-7.359375,30-22.5c0-13.6025391-10.09375-20.5-30-20.5h-12v2h12
					c19.6503906,0,28,6.7089844,28,18.5c0,13.6835938-8.4550781,20.5-28,20.5h-12V37.125z"/>
			</g>
			<g>
				<path d="M245.125,993.125h4.5c8.0556641,0,11.5-2.9970703,11.5-9.5c0-4.9355469-3.2998047-7.5-11-7.5h-5v-14.5h3
					c20.8945312,0,31.5,8.2470703,31.5,22c0,17.3037109-8.65625,24.5-33,24.5h-21v-73h19.5V993.125z"/>
				<path d="M243.0410156,845.2910156h5.6669922c9.9707031,0,14.25-3.6386719,14.25-11.3505859
					c0-6.0878906-4.1416016-9.3486328-13.8334961-9.3486328h-6.0834961v-12.5341797h4.4169922
					c20.7294922,0,31.25,8.0478516,31.25,21.8222656c0,16.9970703-8.8486328,24.2451172-32.5,24.2451172h-19.8334961v-73h16.6665039
					V845.2910156z"/>
				<path d="M240.9584961,697.4580078h6.8330078c11.8857422,0,17.0004883-4.28125,17.0004883-13.2011719
					c0-7.2412109-4.9829102-11.1992188-16.6669922-11.1992188h-7.1665039v-10.5664062h5.8330078
					c20.5654297,0,31,7.8486328,31,21.6425781c0,16.6923828-9.0415039,23.9912109-32,23.9912109H227.125v-73h13.8334961V697.4580078
					z"/>
				<path d="M238.875,549.625h8c13.8007812,0,19.75-4.9238281,19.75-15.0527344c0-8.3935547-5.8242188-13.0478516-19.5-13.0478516
					h-8.25v-8.5996094h7.25c20.4003906,0,30.75,7.6484375,30.75,21.4638672c0,16.3857422-9.234375,23.7363281-31.5,23.7363281h-17.5
					v-73h11V549.625z"/>
				<path d="M236.6245117,335.1245117v66.6669922h9.3334961c15.715332,0,22.5-5.5551758,22.5-16.8686523
					c0-9.5258789-6.6660156-14.8652344-22.3334961-14.8652344h-9.5v-6.3999023h8.8334961
					c20.2358398,0,30.5,7.3984375,30.5,21.1425781c0,15.9707031-9.4272461,23.3242188-31,23.3242188h-16.3334961v-73H236.6245117z"
					/>
				<path d="M234.375,185.125v68.8334961h10.6669922c17.6298828,0,25.2495117-6.1855469,25.2495117-18.6845703
					c0-10.6582031-7.5078125-16.6826172-25.1665039-16.6826172h-10.75v-4.199707h10.4169922
					c20.0708008,0,30.25,7.1479492,30.25,20.8212891c0,15.5556641-9.6206055,22.9121094-30.5,22.9121094H229.375v-73H234.375z"/>
				<path d="M232.125,35.125h-2v73h14c20.1865234,0,30-7.359375,30-22.5c0-13.6025391-10.09375-20.5-30-20.5h-12v2h12
					c19.6503906,0,28,6.7089844,28,18.5c0,13.6835938-8.4550781,20.5-28,20.5h-12V35.125z"/>
			</g>
		</g>
	</svg>
