<?xml version="1.0" encoding="utf-8"?>
<!-- Generator: Adobe Illustrator 11 Build 225, SVG Export Plug-In . SVG Version: 6.0.0 Build 78)  -->
<!DOCTYPE svg PUBLIC "-//W3C//DTD SVG 1.0//EN"    "http://www.w3.org/TR/2001/REC-SVG-20010904/DTD/svg10.dtd" [
	<!ENTITY ns_flows "http://ns.adobe.com/Flows/1.0/">
	<!ENTITY ns_svg "http://www.w3.org/2000/svg">
	<!ENTITY ns_xlink "http://www.w3.org/1999/xlink">
]>
<svg  xmlns="&ns_svg;" xmlns:xlink="&ns_xlink;" xmlns:a="http://ns.adobe.com/AdobeSVGViewerExtensions/3.0/"
	 width="200.25" height="1050.25" viewBox="0 0 200.25 1050.25" overflow="visible" enable-background="new 0 0 200.25 1050.25"
	 xml:space="preserve">
	<metadata>
		<x:xmpmeta  x:xmptk="XMP toolkit 3.0-29, framework 1.6" xmlns:x="adobe:ns:meta/">
			<rdf:RDF  xmlns:rdf="http://www.w3.org/1999/02/22-rdf-syntax-ns#" xmlns:iX="http://ns.adobe.com/iX/1.0/">
				<rdf:Description  rdf:about="" xmlns:pdf="http://ns.adobe.com/pdf/1.3/"></rdf:Description>
				<rdf:Description  rdf:about="" xmlns:tiff="http://ns.adobe.com/tiff/1.0/"></rdf:Description>
				<rdf:Description  rdf:about="" xmlns:xap="http://ns.adobe.com/xap/1.0/" xmlns:xapGImg="http://ns.adobe.com/xap/1.0/g/img/">
					<xap:CreateDate>2005-10-18T08:31:30Z</xap:CreateDate>
					<xap:ModifyDate>2005-10-18T08:31:30Z</xap:ModifyDate>
					<xap:CreatorTool>Illustrator</xap:CreatorTool>
					<xap:Thumbnails>
						<rdf:Alt>
							<rdf:li  rdf:parseType="Resource">
								<xapGImg:format>JPEG</xapGImg:format>
								<xapGImg:width>172</xapGImg:width>
								<xapGImg:height>256</xapGImg:height>
								<xapGImg:image>/9j/4AAQSkZJRgABAgEASABIAAD/7QAsUGhvdG9zaG9wIDMuMAA4QklNA+0AAAAAABAASAAAAAEA
AQBIAAAAAQAB/+4ADkFkb2JlAGTAAAAAAf/bAIQABgQEBAUEBgUFBgkGBQYJCwgGBggLDAoKCwoK
DBAMDAwMDAwQDA4PEA8ODBMTFBQTExwbGxscHx8fHx8fHx8fHwEHBwcNDA0YEBAYGhURFRofHx8f
Hx8fHx8fHx8fHx8fHx8fHx8fHx8fHx8fHx8fHx8fHx8fHx8fHx8fHx8fHx8f/8AAEQgBAACsAwER
AAIRAQMRAf/EAaIAAAAHAQEBAQEAAAAAAAAAAAQFAwIGAQAHCAkKCwEAAgIDAQEBAQEAAAAAAAAA
AQACAwQFBgcICQoLEAACAQMDAgQCBgcDBAIGAnMBAgMRBAAFIRIxQVEGE2EicYEUMpGhBxWxQiPB
UtHhMxZi8CRygvElQzRTkqKyY3PCNUQnk6OzNhdUZHTD0uIIJoMJChgZhJRFRqS0VtNVKBry4/PE
1OT0ZXWFlaW1xdXl9WZ2hpamtsbW5vY3R1dnd4eXp7fH1+f3OEhYaHiImKi4yNjo+Ck5SVlpeYmZ
qbnJ2en5KjpKWmp6ipqqusra6voRAAICAQIDBQUEBQYECAMDbQEAAhEDBCESMUEFURNhIgZxgZEy
obHwFMHR4SNCFVJicvEzJDRDghaSUyWiY7LCB3PSNeJEgxdUkwgJChgZJjZFGidkdFU38qOzwygp
0+PzhJSktMTU5PRldYWVpbXF1eX1RlZmdoaWprbG1ub2R1dnd4eXp7fH1+f3OEhYaHiImKi4yNjo
+DlJWWl5iZmpucnZ6fkqOkpaanqKmqq6ytrq+v/aAAwDAQACEQMRAD8A9U4q7FXYq7FXYq7FXYq7
FXYqhtT1Kx0vTbvU7+UQWNjDJc3c5BISKFC8jkKCfhVSdhiqJxV2KuxV2KuxV2KuxV2KuxV2KuxV
2KsW/Kx3f8uvLruxZmsYSWJqSePjirKcVdirzfyzp2tRXXlUz21yiwXmvtdGRJAESW4mMBkqNg6k
FK9R0xV6RirsVedfmP5ovob/AEXTItC1SZf0zaFbiBbb0rj0Fa6KRFp1ev7mvxKv2T2xVS0PzfqF
z+Y+tyny3q6RtZ6VYlGW0pAUlu5mkkpcmgZbpfs1NF6Yq9KxV4n5/i0vWNG/MyPX72WTW9L0+/fS
NGeeSGKGzSwLw3MNurIk3qPyLSsGofg2pTFXp2ieStJ0PUGu9KmvLeB42jk01rqaazLFgwlEMzSC
NxxpWMrWp5V2oqn2KvPrfyx5b81ec/Nb+ZbGDWJNLubax020vY1mit7V7C3ufUhjkDKryTzSgyqO
R4ha/DiqWadrmpxeU18r6HdSSalf6pqOkaBfuxleHT7S5dJrss1eS2UdYkLV5OIwftYq9J0jS7LS
dLtNLskKWdlCkECkliEjUKOTHdjtuTuTirEvzIt7CbUfLia/H63lGW5kg1SJ/wDeY3MyBbH62vRo
DJySjVT1GTl2xVBeWtN8s2v5jPD5KtIbLSbGxuIPMSaeixaebxpYTaxCOICE3MapMXKjkqkBvtCi
r0XFWN6Tb3qefPMU8kUi2ctnpi28rKwjZ0N16gRj8JK8l5U8RXFWSYq7FXYqxr8tLS6s/IGgWt3D
Jb3MNlEk0EqlJEYLurKwBB+eKslxV2KuxV2KuxV5r5x8weY285+V7WPyvdyrZajeXVs63NiouFis
Lm15JymBUcbrlR6H6dsVXeR9c8wXXnHzTLN5buoIp9St7ae4e4s3W3EGn254twmZm+KQmkYYb+NQ
FXpGKsG/OfRtE1T8sfNM1/ZW95NYaRqM1nLNGkjwTR2sjB42YEowKjcYqutbW68q+bdH0mz1C4vN
D1tbmJdOvZXupLSW2i9YSw3Epeb0So9NkdmAJTjx3BVZvirHvMnk3ynqkzarq0TwzwQlJ763urix
c26VcpNLbSQGSJak8XJXrtirzvStPubufRLrTuegWnmeU2Oki2VYpbLy9Y28lzFDCGBEU17IgkkI
HII1PtICFWY6XBf+XvPNroiald6hpGr6fdXkUN9K1zLbXFjLbxsUmespjlW7FQ7EKyjjTliqjqum
nzr5k1fQNTmkj8r6OsEN3pcLGJr+e4jE5NxIhEn1dI2VRGpAduXOqjjiqVfpf/lVWlS6NexmTy3F
DO3le/RSWWRVaRNMuAo+KVj8Nu/WX7J+MVdVn3lu31G38vaXb6nK0+pQ2kEd9MxqzzrEolYkdSzg
nFUxxV2KuxV2KoXStP8A0dpttY/WZ7z6tGI/rV2/qzycf2pHoOTHuaYqisVdirsVdirsVS+60S1u
dasNXkeQXOnR3EUEYI9Mi69PmWBBPIeiONCOpxV2k6JaaXJqEkDyO+pXb3twZCD+8dEjovELRQkS
gfrxVMMVYL57/K601zR/MK6Ncz6TrGtWVzBKYbiSKzuJpoDEpuoKSxEGoDusfqce9aYqnmh+S9L0
q/bVGnutS1d4zAdR1Cdp5ViJDNHEvwxRKzKCwjReRpXoMVT7FUs8yeX7PzBpMmk3skqWVw0Zuo4S
q+tEjh2gclW/dyheEgFCVJFcVWeYvLVlrlnBBLLNZ3FnMtzp9/aMqT206KyCSIusifYdkKurKykg
gg4qhdA8oDTdTm1i/wBTuta1maEWwvbwQp6VuG5mKGK3jhjRWajMeJZiBU7CirWteTo77VBrGn6l
eaJq/pLBNd2JhYTxRlmjjnhuI54ZAhduLcQ4qaMMVS+4/LHTtVP/ADtepXvmZFVhFa3xhitY2deP
Nbe0itkLqCeDycmU7qQcVZLo2nNpml2untd3F/8AVYxELu8ZXuJAuwMjosYZqbcqVPU1O+KozFXY
q7FXYq7FXYq7FXYq7FXYq7FXYq7FXYq7FXYq7FXYq7FXYq7FXYq7FXYq7FXYqkPkXzhY+cPK9p5h
sYZbe1u3nRIZ+PqA21xJbtXiWG7REjfpiqfYq7FWIaT+ZelanJpKRWs6HV9U1DR4OfD4ZdNS4eR2
ox+BhaNxpvuK4qy/FXYqkvmnzVZ+XYdNkuopJv0nqVppUCxcaiW9lEaseRHwr9pqb0xV0Pmqzm85
XflVIZDd2dhBqM1xQeiFuJZIkjrWvP8AclunTFU6xV5t+ZP5y6d5bttd03RrS81jzJpWnzXc6Wds
09tYt6LSQyX0paJEj25MA3Lj26YqmHkX807HzHJZ6Ze6bqWj63cWouUg1C0aCKdVVTJJbyqZYnSr
VHx1p2xVnOKsK1/8yLm08xXHl7y95evfMup6fDHcasLSS3gitUmBMSPLcSRqZXUcljXfjviqZaL5
+8uap5Qk81iV7TS7ZJ31AXS+nLatalluIp034vEyEECvtUUxVMPLOtNrmgWGsGzmsBfwrOlpc8RM
iPunMKWAJWhpXbFUr87+frHyr+jrb6ldarrOszNBpOkWKq087xrzkasjIiRxru7s2wxVAaB+ZU91
5kt/LXmLy/e+WtZvYZLjTY7l7e4guUgoZVintZJU5orBmVqbYqzbFUqs/MVrdeZdU0BInW50q2s7
qaU04Mt806oFoa1X6q1ajuMVTXFXYq7FXmv/ADjj/wCSd0X/AIz6l/3U7nFXpWKuxVhGi/ljBpcm
jOuoNL+h9X1LWVBjC+o2ppcoYj8R4iP659rvx6CuKs3xV2KvH/ze8r3955o8nxJ5k1WFNU8wQtHZ
xmyEFqLW0nm9W35WzSeoGjFPUZ13O3Siqh5O8n6lL+bnnB2826zI2jx6PbtKzWBe4VopLow3FLQL
wHqCgjCNRjU7iir2fFXhX5laB548paV+Y99pNhBrnlfzZZXdzfkTLb3unytYtBLKQ44TwhV5cVIc
dKeKrOPyt/Mjyx5g02z0O3eaz17T7G3N1pF/C9tciMRqvqorikkZ7MhI3HjirPcVeaTS+ZPJ3n7z
Nqi+Xr3XtG8zfVLq3m0sQvNBc2lqlq8E8cskJ4usSsrgkCtDirz71VhS70Xzg66Vo/6Ul82efIEb
6wkbX1wG0zRf3QYyySlUllVF+ILt9rFXtHlf8w/LPmS9uNPsJLiDU7WNZ5tOv7aeyufRc0WZYrlI
2aMnbktRX5jFWGfnlf2+mXnljW9KuBL560q6kfQNDRHml1CG4QR3lt6cQZ0Vo1B9UjihUVxVD/l5
qF75+19fzI1uWLT7Py8t5YaZ5ajLPcWUrEJdy6gzLGwnZI6CPjRVodzuVXqWia1put6RZ6xpc31j
Tr+JLi0n4unOOQVVuLhXFR2IriqDsfLiWnmvV/MInLvqtrY2jW/GgjFi1wwYNXfn9a6U2piqc4q7
FXYqwz8nbLRrH8vNNttG+uDTklvTD+ko1iuqtezNJzRdgPULcPFaHFWZ4q7FXYq7FXYq8e87fl89
5+anlDhq2uehdSave3Ekd7KEtStuqqsDdIAxuOAUdV26A4q3+WXkF083+b9Wm1TWh9V1xILcT3kt
LqO1s7ejXAP9+tWKgn9kU7Yq9gxV5J+b3n++sPK3nPQtW8t6lDbXGl30Ol63axG8splls2VTO8NW
tmDsQfUWlBy5UxVL/Kj3/nLzj5C1jT9CvLDSfKWnzi91rUbdrT6011ZC3jt7VXpJKgYmQuV47be6
r2vFUl85+Y/8OeWr7V0tZb64gQLaWMCs8k9xIQkMSqtT8UjAE9hv2xV5hrfkrUfLHlfyxrWoQNrO
oWPmGLzF50e2iMrySzRSxyXEcagu62byp6aqPsJWm2KprYa/pvnf82NB1fyys1xpPl/T79dU1gwS
QQyPfeiILRGlVGkZTE0jACi7b1JGKofVNVg8k/nFrPmXzPa3B0PW9Os7XSddigluYrI2xf6xay+i
sjxCZ2WSvHiaexoqw38xtU/xNf3Wp/k1DqF55j1K0msvMc1vaywadPZmB1DTyXIgQ3cdR6DIS37J
22xV7V+W91os/kbRU0ZZotPtLSG0iguo2huIvq6CIxzRtusi8fi8eoJG+KskxV2KuxV2KuxV2Kux
V2KuxV2KuxV2KuxVD6jp9lqOn3On30K3FleRPb3UD/ZkilUo6N7MpIxVUt7eG2t4reBBHBCixxRj
oqKKKB8gMVVMVdirsVdirsVdirsVdirsVdirsVdirsVdirsVdirsVdirsVdiqncXFvbW8tzcypBb
wI0k00jBEREHJmZmoAoAqScVdb3Fvc28VzbSpPbzoskM0bB0dHHJWVlqCpBqCMVVMVdirsVdirsV
dirsVdirsVdirsVeS/8AOM/mLXde8h6hea1fz6jdR6xdwJPcOZHESLHxQFv2RU0GKvWsVdirwGy8
3+aH0by9K2q3JkuPzIl0udzK1XsRJdAWzb7xfAvw9NsVe/Yq7FXhH57fnh5Z0i80zy5p3mCWx1ux
12w/xBHCl3GYtPoZLgtIkfGROLJVY2LGuw2xVBaT/wA5F+R7z86LmX/E0x8qTaVBY6ZAYbwQyajJ
chmYQ+jVW4njzdR86Yq+hMVfOH5leaPPfnTUvzM0HTdaTy/5b8laVM17YpBHLc6lztZXdWdzyjjP
plSU7EbEnZVln5I+XPzP03RPKV7N5og1byde6RbSy6TdWqxXNoJLRWgjtp46l1QlVPqH7I6VNcVe
x4q8bvrXzF5//NrzX5ebzNqfl7Q/KFvp6W9voswtZri41CA3Bmml4uzKlOPDp0/yuSqA8v8A5ueY
dJ/LDXP0lMNb82aTr135U0OQKofUryNlW2fiKA7SVbxCnvir1byNomraJ5V07TtZ1KbVtXjj5ahq
E7mRpJ3JeTiT0RWPFB/KBirz/wDPfzL5hs9Z8k+WtO1p/Lem+Zr2e31TXIVHqxCJYzFCkjCkbTNI
QG67eFcVSRG8xfl/+cflLyppnmvVfNOn+YI7k6tpeszre3FrHEnKO5WYKjIpPLt0Ujwoq94xVgGm
6vqkn5463pL3UraZBoNlcQ2ZY+ksz3MqtIF6BmVQCcVZ/irsVdirxj/nFGCeH8utSWaNo2Ot3pCu
CpoVi33xV7PirsVU/qtsAAIkor+oo4jZ/wCYf5XviqpirsVfOf5x/m15bn8/eTtONrqXHy5r0txq
I+pyfvGs1aMG32rN8VT8O1N8Vd+XP5teW7v88PON/wDVtTCeYJNG07SlNnIPTKQmKQ3Ip+6HqsCC
x+zvir6MxV5B+fH5ReTda8t+YvOBjmsPMenaTeTG/sZTC06wWzMIblaMsiMq8G25Fdq0xViX5V+b
vzB8mXv5d+XPMF7DrflXzppcLaHKIxFdWDx2scv1c8f7yNBKiVbcjeooVKr6MxVgfm38odM13zGf
MthrOqeW9cmtxZ3t5pE6wm4gX7Kyq6SAsv7LChH0CirwuN00Z7TW/JlqlxpOnasnlT8vpL9jLHd6
xqLML/WLhl4mT+7McbD4fADjTFXrGleYPzJ8qfmN5f8AK3m/V7XzHpvmqG6+pahFaJYSW11ZRes8
bIjOro6bKTuT4U3VSj83J7/8yPNz/k7pMVtbwW1vFqnmDW7qP1Xtk5KYls46r+9PMVavRiPHFWK+
WtQtvyS1PzLYecbcSa7f211eaB55l9SY6ksUfNbSV5GkMcqsi/ADRjT/ACSyr3D8rdY1/Wvy90HW
Nf4fpbUbRLq49NPTWkxLx0Xt+7ZcVZOIohIZQiiQjiXoORA7VxVdirsVdirHvI/l7zBoOkzWeua/
J5ju5LmSeO+mhEDJE4XjDxDy1CUO9e+KshxV2KuxV2KuxVifmDyIdZ8/eVPNjX3op5WW/Edh6XL1
21CAQFjLzHDgFrTia+2Ku8meQv8ADeu+atXa9F5L5mvxfFBD6XoKqcEi5c5PUp/Nt8sVZZiryH8z
PyV1XUrfzNqnlHzDqWnajrdpcfX9CWVJbG/la2MQj4TlVhaUKsZfl8I6UxVr8p/yNfQ30DzJ5r1O
81bzLpemw2tjY3Lp9W0wGARvBAsZdWMYrHz5UPXrvir1/FUk866Fqmv+V9R0XTNT/Q11qERg/SIi
9do43NJOCc4viZKqG5fDWuKsf8y/lFoWq/l9YeTdPnk0iLR2t59Fv4AGktrm1NY56HiHYkty3Fan
cHfFUD5c/LDzQfOdh5u87eZF17UdGt5bfRbe2tFs4ITcrwnmYBn5ySJ8PYfhRV3nX8pNS1LzhF52
8o+YZPLPmgW31O8m9BLu3uoAQVSWF2UbUG+/QbVFcVSbW/yM80edikH5jecpNU0m3YyW2k6ZZxWE
YmKFFleQmZ3K8jQH+JGKs/8AIHlzXvLflu30bWdb/T8ln+6tb9rf6tL6CgBEl/ezCRlG3Pao6iu5
VZHirsVdirsVdirsVdirsVdirsVdirsVdirsVdirsVdirsVdirsVdirsVdirsVdirsVY75N/MPyf
5zivJfLWofX49Pl+r3bejPDwkIrx/fJHXp1FRirIsVdirD3/ADc/L1NNn1JtWpZW2qnQJpfq9z8O
pChMHH0uR6j4wOH+VirMMVdiqR+bvO3ljyhYW9/5ivfqVpd3KWVvJ6Usxe4lVmRAsKSNuI23pTFW
/wDGnlr/ABd/hD65/wA7ELX6+bH05f8Aeblw5+rw9L7X7PKvtiqd4qw38x/zW8oeQ9KubjVb+3Gq
LbS3Gn6Q0vCe5dFYxxqFWRkWR14cytBiqD/Lf86vI3nmysls9StrfXbiFZLjQ2mrPFIV5PGnNYjL
w7si4qz7FWE+evzl/LzyPfQ6f5h1P0b+eMzJaQxS3EgiFf3jrEr8F+E/a8MVT7y75v8ALXmPQI/M
GjahFdaPKrOLsEoqhPt+oHCtGVp8QYCmKu8p+bvL/m3Rk1ry/cteaZK7xxXJimhDtGeLcRMkbMA2
3ICmKqHnPz55S8l6WNT8y6jHp9qzcIuQZ5JH68Y40DO58aDbvirHPJv5+flX5v1dNH0XWQ+pygmC
2nhmtzLQVIjMqqrNQfZrXFXoWKpOnm7y8/myTykt3XzBFZ/pJ7L05drUyCL1PU4+l9tgOPLl7Yqn
GKuxV2KvnX/nDb/jlecv+2qv/EGxV9FYq7FXhE35D+b38p6jo4vNP+s3fnVvNEbmSb0xZEKPTY+j
X1vh+zTj/lYq93xV2KvmX/nJaz/Mq680eV9KfU9OOiatr1qvlyz4OJorlQsSyXLBfiRXnP2a7HFU
t8t6X+dV5/zkJ5h9PV9I/wAT6Tpttb6nfNA/1VrWcQTKkKcOQk4kfER44q+rMVfHX5z6Vc+V/wAy
/O+u+bvLs2taT5i0y4tfLmshBNDaXM1sIrdjy+BGiYcd6Mv2kr3Venf84/W35Ma9ofla+0yLT288
6BZILoxJ9XvBKYTBM8qUjM4o5HMhgDShrir3fFXz1rfmGy/Lj/nIPzJ5n816fctovmHTrWLRtVgg
e4VHhiijkt/h+yZHiO3+rXY1xV5/5cutdPlK58hWkbeXG8/6vd6xcLcARDTPLYCCSaQNxEYlETIl
aBlX/KU4q+mfIPmL8t59Nt/L3k3V7C9g0m3SKOzs7iOV0hjAQOyqeRqerdyfHFXl/wDzlTotxajy
p5/Vba8tPKd6HvNJu3VFuEmliYBA+zEmHiygE0NaGhxVjUGqy/nZ+Z/lrzboel/oXyh5ImS51LXL
z045ZZImjuTA3FiOKekAN6KrMxpUDFX0zYajp+o2kd5p9zFeWctfSubd1ljbixVuLoSpowIPvirD
LfyHq8f53XPntprc6RNoA0hYAz/WfXF0k/Irw4cOKdeda9sVZ3irsVdirxP/AJxi0nynp2neZ18u
+YH1+OXUA9272Ulj6MnE/uwJHk5/6wpir2zFXYq7FXYq7FXyv+cHlP8AMm4/OXyjpjecPVk1TUL6
+8u1tYwNLRGEiDr++4ooX4v5ffFVP8pPJ35lah+b3nS7h85cLzRb+yttevjZof0kiM4aIA0EXFbf
iePiDir6sxV4T+cP566Fpll528j69pt9pl1cabd2uh37xM9te/WLMopVgAV/fOVrQrtUkdMVeP8A
5XQaZ5j/ADK/LiTyNpU9teaDZ25846nGhhgdo1pKWptVkqhY7yFqb9Sq+1sVSvzT5k0vyx5d1DX9
Vk9Ow02Fp5jtU8fsoterOxCqO5OKvlrzz5W8y3n5N63+ZWtwyfprzdf2d3qNvGSWttBV/wDR7dR2
WvpOfbjy3BxVPmu/y11D87Py1P5UxWwkt47l9bfS4vSRbIxKIxc0UDnx9QNz+LcA7lcVU/zfv9Jt
P+cjtGm/MqN5PIUdoDpAmR5LL1uHxNJGgYPSc/GKHbhy+HFWG/mpr/lHRfMN7e/k1rf1mTzTaXNp
5i8uWMEslv6ckL8riKihFKhmai7oakfCSMVfQX/ONl75al/KDQbLQ79b36hEU1BRUPDdzO1xNG6n
cUeU8T0I3GKvT8VdirsVdiqC0zRNF0pZV0uwtrBZ25zLbQxwh2/mbgFqfc4qjcVdirsVdirsVQs+
k6VPfwahPZQS39qCLW7eJGmiDAhhHIRyWtd6HFXWmlaXZT3M9nZwW094/qXcsMaRvM+/xSMoBdtz
ucVRWKpf5g0LTdf0S+0bUo/VsdQgltp1GzcJkMbFTvxajGh7Yqt8t+XdL8uaFZaJpcZjsbCJIIFY
8m4oAoLN+01BucVTLFUNqOmabqVq1pqNpDe2jkF7e4jWWMlTUEo4ZTQ4qrvDE8TQuitEylGjIBUq
RQqQdqUxVL9H8seWtFaVtG0mz0xp95zZ28UBc9fj9NV5fTiqI1HStL1O2NrqVnBfWxIJguY0lSo6
Hi4YYqhdF8q+V9C5foTR7HS+Y4v9StobeorWh9JV774qq6Z5e0DSXmk0vTbWwe4p9Ye1gjhMnGpH
MxqvKnI9cVR+KuxV2KuxV2KuxV2KuxV2KuxV2KuxV2KuxV2KuxV2KuxV2KuxV2KuxV2KuxV2KuxV
4l/zjf8Amx5v8/X3m6HzDJBImjy2iWXoRCKgma5D8qE8v7lcVe24q7FXzNq35+fmFa+SPPOsRTWw
vdA8xLpWnkwKVFsZHWjrX4moo3xV9JWEzz2NtNJ9uWJHamwqygnFVfFXiH/OQv56P5Os7PT/ACpq
1j/iT68kOpWsvGZ4IDEzVkjr8HxMhqcVQR/5yL05vztGip5h01PIMdl6kl+SnBrn0q8BcFqfaYfd
TFXvmKvnj82Pz585yecNU/L38vtGivb2ytpf0rf3BPwKsXOZogJIlQRK1Obtu2wXpVVjv/OM/n/8
2Y7bR9Jm0JtX8o6nezR/4gZ5XmgcAtJ6snKUBV4fCrotenLfFX1Tirwvzt+YX5r67+bt7+XP5dzW
OlyaLZJe6jqN+nqczIkbhRVJQF/0iNQAla1NaYqv8hf85CzS/lZ5h8x+cYIodY8rTvY3UcB4pdTk
AQKg+LizueDUqBTlsNgqz38oNQ886r5HstY86NENW1Ot1FawxeiILaQAwxstSSxX4zXcVp1GKsN/
5yD/ADj8yeSrjQvLvlW2hk1/zC5WK7uhWKJeaxIFBKqXZ36seKgbg12VYXqn5tfnl+WPm/QrD8xZ
tM1rSNbahaxULIiBlSQoVSA84zIpoyEN0B7hV9NYq8vufzB8xx/85CWvkZXi/QMujm/dPTHq+sC4
r6nWnwjbFXqGKuxV2KvmD/nC3/jqfmF/xnsP+J3uKvp/FXYqxWb8rPy9msNQ0+XQrZ7LVbkX2oQE
NxmuQSfVff7VWOKsojjSONY4xxRAFVR0AAoBiq7FXxp/zkZq35N6j+ZGjfo9ka/j1aWDz5c+neKU
S2lhgZWDJR6KkorBX7PeoxVLfJsf5Aal+emsW93FE3ke9hitfLVrwvwr3shto1oAPWWrerUy0Xf5
Yq+3cVfM/wDzkX+T1xo82s/mx5W1qXTL5I1/S1kKgSCbhbOY3U7c1Yc0cENuajpirGfyI/NHzX+X
N55b8j+Z9HRPL/mgwXmj36keqqamV9KXkrNG8ZZl5KeLJvXwxV9fYq8f8/fkl5mvvPz+fPInmb/D
mv3lsLPU/UhE0cyKqoGFeQHwRoKFTuoYEHFXz1qWm6T5Zvr7TZZZPMflnyTeLqPmac0jj1TXpyIY
bSv7zjFFxYNy5GgmP7SjFXtXlr8+vzDtPNXlfSvP3la30nTfOIRdEvLSRiweUqIxIheXvLGGU8Sv
IH2xVJf+csNV8u+Yb3R/IOm6XNq/n95Fl057dgn1VJ6ckdmBD+qqVK7BQA5YU3VeaaLqC6B+YWqX
n51ve33mzy3YGfyzaX0nOyuZrWNngjaRQ9RIygxsPhZq8qtsVX1Z+UHn698++R7XzPd6cNLN3LMk
NushlVkhkMfMMVTqysOnbFU+byp5cbzInmZrCI69HB9VTUaH1RDueFa0p8RxVNsVdirsVefflVpP
5q6fca23nu406eGZ4TpA0+OOMqqmX1fV4RQ12aOla98Veg4q7FXYq7FXYq8U/MP8hovMX5qeWfMF
jpOlRaBaStc+Y4jFEkl5K8pkYyxiJhPyp8XqHepxVZ+Wv5BQaF+Y3mzzBrej6TLpV5dCbyxbRxxy
/VEWd3VkjaJVgYLwpw6dMVe3Yq+bP+cgvye8/GLzT5p8ueYbq603WBA+reVxHI5l9P0oU9JY+auV
EakVQMAPtHFVP8p/+cdvNN9qXlXzn581s3Uek2dlLo2iBZA8EcKLJbQTeosfp+iackVTVq1Piq+l
8VSTzsnmqTyrqUPlQwr5gmhMVhLcsUijdyFMpIV941JZRTcgV2xV5ev/ADjpbf8AKjJfIS3SRa7d
smoXeqHkyPqIYOSx+0Y6D0gaVp8VK4qkuh/lB+cPmHzb5PvvzCu9Ng0nyKyPpy6eWaa5kiaNkZ6i
g5G3j5H4dhstSTiqYfm5+R3nTU/zCs/zH/L/AFW3svMVsiLNb3dQpaNDEHjbjKp5RHgyOtKd96Yq
xfzL+R356/mheWZ8/ajo+l2mnq6wSWkIlnJYD+QKSrEbgygDqFxV6l+Rnlr8yPKflpfLHm1NPmst
OHHSb2xkYuYyxJiljMcfStQ/U999yq9LxV2KuxV2KuxV2KuxV2KuxV2KuxV2KuxV2KuxV2KuxV2K
uxV2KuxV2KuxV2KuxV2KpPo3nLyhrd1LZ6Lrmn6ndwKXnt7O6huJEUEKWdI2ZlHI03xVOMVdiqRH
z75GWG+mPmLTBDpciw6nKb23420kjFESdudImZ0ZQGpUgjFU4tLu1vLWG8s5o7m0uY1mt7iFg8ck
bgMjo6kqyspqCOuKquKpdrfmTy7oNvHc65qlnpVvK/pxTX08VsjPQnirSsgJoCaYqpnzZ5WGrw6K
dZsRrNwokt9N+sw/WZEKlwyQ8vUYFAWqB03xVNcVQeraxpmkWMl9qVzFa20SlmkmdIwaAmgLlRXb
xxVin5W/m95X/MnTru+0KO5thZTehLb3qwpMfhVuapFLN8HxUqT1xVm+KpP5h84+U/LcccnmDWLP
SlmqIfrc8cJenXgHILU70xVH6dqem6nZRX2m3cN9ZTjlDdW0iyxOK0qroWVvoOKobRvMvlzXBOdE
1Wz1QWzBLk2VxFcCNzWiv6TNxO3Q4qiNT1bS9Ks3vtUvILCyi/vLq6kSGJf9Z3KqPvxVJ9C/MXyF
r939S0XzFp2o3m5Ftb3MUkpA3JCBuRA8QMVZFiqXv5h0CPWY9DfU7Rdalj9WLS2njF00YBPNYC3q
FaKd6dsVTDFXYq7FXx//AM4d/wDk0/NP/MBL/wBRkeKvsDFXYq+Sbn8nPzLfy1+bVouhym48w6tY
3OjR+pDW4ihvrmWR1+Og4pIp+KnXFX0r+XWm32l/l95Y0y/iMF9Y6TY213ASCUlhtkSRCVJHwspG
xxVkOKvjb/nLrzH59vfMVv5d1TS4rby5DdNJ5evUR1lu2EMay8mMjI3BpqbIuKsZtvNf5wT/AJ7R
63B5cgk896ZB6Q0MRzGGONbP0N4zPz/uZeX971P0Yq+67V5ntonmXhMyKZUHQMR8Q798VfD358ag
dV/Py+07z1fXdl5csnEVr6C8zDbG3DxNCh5D97JQuwBO52NOOKph/wA4uflZpnmbUrbzSuuGz1Xy
7qkcsmlIVLT20apIp+FlkVWkqpJBVgCMVfauKvkP80/8ID/nKC9P5oer/hH6hEdP5+sY+H1NePH0
P3nD6z6v2f2+u2KsQ/Ln8xde8ufldr3lzQTPLqXmvVI9P8tQA/GnqJwupU8HKvDGN/tGo+ycVfWf
5O+RNI8ieSbPy5aSxT38Y9fV5o2DGS7kA9VjTfitOC1H2QO+KvFf+c19M8xyx+XNRVJpfLFsZUvB
EfgjuZGXi0goQC6VVGNabjvuq8h842PkPV/OPlu0/JKy1Aai8cTyqzSl1vOSshUysxVoqEyOD6Y6
g0BOKvv23EwgjE5DTBVErL0LU+Ijp3xV49qnknzTN/zk7pHm6OwdvLtvpL202ock4LKY5wE48ufW
Rf2cVeyYq7FXYq+af+cZvJelaH+YPmC8s/NOl65LPaSI9nYNMZYgblG5P6kca0BHHY9cVfS2KuxV
2KuxV2Kvib/nIA/m5f8A5taTpGsNDJI2pS/4IgU24/cXN4I7Yycehb04wTLvtviqG/Ln/ldWofnr
rF7p7QTebrSRovMshNrwWBJ44LhU5fu6jgF+DfbFX3Fir5P/AOcpPzO8i6suv+TLjSCPNOiy2q6Z
rJjR+SN6cs8Yk2kjoJGHHdWpWvTFXjXkwQw/mR5L/wACz3j6nI1h9d5DiVvWb/S44+NOUHD7XLty
rVd8VforirH/ADnoHkbUNLlvvN2m2N7YaZHJcPPfwxyiGNF5yMGcEqKLvTrir5B1mz1TzD5V83/m
7ZWn6H0iwMWj+TbK2jWFLa0e4WKaSJY+KpRJWUlducj03XFUq0+Dy35V1P8AK3WvIetyXXmfVWT/
ABFaxzCQxzPNCvoPEgDKJDJIhRvtBQe9Sqzj/nKLzfq99+amneSdb1CfR/Iw+pyXbwgkSxzPWa5Z
QP3npbqq7gFa0rirzzz2dH/LjXr1Py082RatoXmLT5rO7hjkEs0UUq8XjmdFVK1PKNlow3BFPtKv
pL/nERrE/lOPS1Fb6/mvp7jUYeZeS3duMUcbhviHKOFWHY12xV7ZirsVdirsVYr5U/K3yD5S1K51
Py7pEen314hiuZ0eVy6M4cikjuPtKDsMVZVirsVdirsVdirHta/L7ydrfmHTvMeqaZHda1pPA6de
M0gaIxuZEoqsENHNdxirtC/L3yboOu6lr+kaZHa6xrDO+pXitIzStLIZXJDsyjk55fCBirIcVYJ+
bP5Q+XvzF0J7G7WGz1Osf1fWhbxzXMSI4dkRiUbi4FCOWKon8uvyp8oeRtKtLfTLC2OqQwLBdayI
ES5uCAAzM/xMORFSvKmKsyxVLvMXl3RvMej3Gjazb/W9MugouLYu6BwrBwCY2RqclHfFVOy8q+XL
Hy4nlq20+FNBSE2w04ryhMLV5IytXlyqeVevfFWM+WPyL/KjyxrS63onl6K21OMsYrhpbif0y1am
NJpJEQ79VAxVOfOH5d+SfOVvHB5m0iDUlhqIZJAyyxg9Qk0ZSRQe4DYqx7Q/+ce/ya0S6+tWPle2
aahWt0894oBFDRLqSZR160xVNvKn5T/l95S1KXUvLekLpl5MhjmeGWfi6E14tG0jIRXcfDt2xVlu
KuxV2KuxV2KuxV2KuxV2KuxV2KuxV2KuxV2KuxV2KuxV2KuxV2KuxV2KuxV2KuxV4F+UP/OSWt+e
vzEbyrd6NbWduI7mT6zFJIz1g6Cjbb4q99xV2KvnaT/nKDXkt/zAl/QlqT5OkjS2HqSfvw+orZfv
PD4X5bd8Vev/AJW+cbnzn5B0jzNc26Wk+pRu728RLIpSV49i2/7FcVZViryL8+fz1b8trbTRplva
6pf3k0kdzaySkNCsaKwLBCWBPMUriqRRf85KXb/mnpHk36np/wCj72G0e+1T6yeMTz2i3MoBNE+A
txFTX6cVe9AhgCDUHcEdCMVeL/m9/wA5PeWvy/1l9AtdOk1vW4AjXcKyi3gh9RQyq0pWUl+LBuIT
6cVeV/kx/wA5ReY5fOkmnebmu9XttduYbXSYYFgrayzTFFWnGIup9RVJ5V26HFX15irw382v+cid
Y8ted18jeT/L51/zAkaSXKn1Hozxev6UcMI5uRDRy3LYYqmf5Yf85F6B5t8j655k1e3/AEPL5aRZ
NWhD+ohSRWMTRMQpJlaNlVOvLbeoxVNvyP8AzJ80fmHoN35g1XSIdJ0tpjDpQjd5JJglfVdiwUcV
NFBHUhulMVQX55fn3pv5YxWdpHYnVNc1BGlgtS/pRRxKePqSvRm3bZVA3odxiry+w/5zE806Zqlt
H5z8nmx067pLHJD60Ewt2PwyxpcDjMPkVBxV9P2F7a39jb31pIJbW7iSe3lHRo5FDIwr4qcVeZ+Y
Pzh1LS/zx0T8uY9PhkstVt1nkv2dxKhZJmoFHw/7pH34q9TxV2KuxV8Qf84sf+T5f/jBf4q+38Vd
iryR/wDnGXyG0XmqI3+qcfN7q+pH1besZS7W9Hof6P8AD+8Wnxcvh998VZ/5J8oab5O8rWHlrTJZ
prHTkZIJLlkaUh5GkPMosandz0UYqnmKvhH/AJyhsvKJ/Mu5v9E1pdQ1C/nlj1u1pRbKe29O3EZN
PFGr8sVYxpfk38vrz805fLkvmUw+Ug8iQeYCq1k4xVSi9Pjl+HFX6I2sAt7aKAHkIkVAx6kKKVxV
8Z/85Lfl75o8l/mEfzKsZYpNM1DUIZbSZwkjwXyx+oI5IZAVdT6DMpoRTY+6rGPyN/Mfy35b8+TX
XnHRkvV1i6t7iLUCi+pYXHqNIlzGjDlxPrVPFgePTl0xV974q+dfzX/Jv80Y/wA3E/Mz8upbefUZ
kUSwTtGjQyLa/UyQJv3bo8I8ag9sVfPWreXtW8qTXvkbVL9Y3uJLfUPOL2pEwgitgzQwepVVkkHr
livLi0jRrXkMVe9+Qf8AnK3yJZHR/LX+G7rQfLahbLT9QeRZUREPBXkUIvf+8ZWYg+OKpb/zmrZ+
TZE0e8k1H0vN8KGOHTUXn6tkzkl5CP7rg/LgT9rcUNKqq8L1Hzhq/n3UbFPPmum3stAsTFB+5rO6
QgVhiVQqtcTUHxSso23PQFV9sfkf+YXlvzn5NVvLmn3WnaVobR6TBDd8C3G3gj4gFGcGiMoxVF6r
+UXlvU/zL038w57m8XWtLiEFvbxvELVlVZFq6GJpCf3x6SDtirN8VdirsVeBflDpX5m2/wCYjTa/
+X+h+X9J9O5A1fT7G0t7nkfsL6sUjvR/2tt8Ve+4q7FXYq7FXYq+UPzh/wCccdV1L827K78t6Nc3
GgaxOl55jv8A6xFRJ7u9ka64CQqyhIiGFAeuKoT8vf8AnF+8m/NPWE8yaNd2Xku1e6k0Sczx85PT
ulForGN3aphJY1HbFX11ir40/wCcs/JHnvTdbvvNN5qKz+UtavrZLexjlkAiuYrRo4vUt2+DkIop
KOpPU9K4qhfy/wD+cd/zO893/l/XPNsiW3lhLSy+qzyyxSyyaZFEpt4YIYS/ENHQfvOJFSSCdiq+
1cVSfzjqWuab5Y1G80HT21XWo4T+j7BSq+pO3wpyLsg4KTybfoDTfFXz35Z/5xx8zXn5SebH134P
zD81OLhjcOrFBb3K3KxO6ErW4kQs5rTdf5cVefwfk5+eHm208qeSNX8vDSNH8tPdxrqsnBQsV5OJ
Z3dldllKlaJ6Y3792xVnH/OSX5E+f9c88jzp5Vtl1WKSGAXFmGjE0UtuOIKxykLIjKqmgqa12pir
B/NX5X/n9+aHmKK/1fylbaXfpCIp78KlmkqoPgM3KRy7CnEFVrTboBRV7B/zjRYfmZ5P05/KHmfy
jJY6Y0slxbaxE8DUlfd1uVWVmYHiAjqNtgRTcKvfMVdirsVdirsVdirsVdirsVdirsVdirsVU57e
3nQJPEkqA1CuoYV6VocVXoiIioihUUAKoFAANgABireKuxV2KuxV2KuxV2KuxV2KuxV2Kv8A/9k=
									</xapGImg:image>
							</rdf:li>
						</rdf:Alt>
					</xap:Thumbnails>
				</rdf:Description>
				<rdf:Description  rdf:about="" xmlns:dc="http://purl.org/dc/elements/1.1/">
					<dc:format>image/svg+xml</dc:format>
				</rdf:Description>
			</rdf:RDF>
		</x:xmpmeta>
<?xpacket begin='﻿' id='W5M0MpCehiHzreSzNTczkc9d'?><x:xmpmeta xmlns:x='adobe:ns:meta/' x:xmptk='XMP toolkit 3.0-29, framework 1.6'>
<rdf:RDF xmlns:rdf='http://www.w3.org/1999/02/22-rdf-syntax-ns#' xmlns:iX='http://ns.adobe.com/iX/1.0/'>

 <rdf:Description rdf:about='uuid:9d22d810-0df1-11de-88b2-001124740a56'
  xmlns:pdf='http://ns.adobe.com/pdf/1.3/'>
 </rdf:Description>

 <rdf:Description rdf:about='uuid:9d22d810-0df1-11de-88b2-001124740a56'
  xmlns:tiff='http://ns.adobe.com/tiff/1.0/'>
 </rdf:Description>

 <rdf:Description rdf:about='uuid:9d22d810-0df1-11de-88b2-001124740a56'
  xmlns:xap='http://ns.adobe.com/xap/1.0/'
  xmlns:xapGImg='http://ns.adobe.com/xap/1.0/g/img/'>
  <xap:CreateDate>2005-10-18T08:31:30Z</xap:CreateDate>
  <xap:ModifyDate>2009-03-11T04:05:44Z</xap:ModifyDate>
  <xap:CreatorTool>Illustrator</xap:CreatorTool>
  <xap:MetadataDate>2009-03-10T17:20:29+09:00</xap:MetadataDate>
  <xap:Thumbnails>
   <rdf:Alt>
    <rdf:li rdf:parseType='Resource'>
     <xapGImg:format>JPEG</xapGImg:format>
     <xapGImg:width>52</xapGImg:width>
     <xapGImg:height>256</xapGImg:height>
     <xapGImg:image>/9j/4AAQSkZJRgABAgEASABIAAD/7QAsUGhvdG9zaG9wIDMuMAA4QklNA+0AAAAAABAASAAAAAEA&#xA;AQBIAAAAAQAB/+4ADkFkb2JlAGTAAAAAAf/bAIQABgQEBAUEBgUFBgkGBQYJCwgGBggLDAoKCwoK&#xA;DBAMDAwMDAwQDA4PEA8ODBMTFBQTExwbGxscHx8fHx8fHx8fHwEHBwcNDA0YEBAYGhURFRofHx8f&#xA;Hx8fHx8fHx8fHx8fHx8fHx8fHx8fHx8fHx8fHx8fHx8fHx8fHx8fHx8fHx8f/8AAEQgBAAA0AwER&#xA;AAIRAQMRAf/EAaIAAAAHAQEBAQEAAAAAAAAAAAQFAwIGAQAHCAkKCwEAAgIDAQEBAQEAAAAAAAAA&#xA;AQACAwQFBgcICQoLEAACAQMDAgQCBgcDBAIGAnMBAgMRBAAFIRIxQVEGE2EicYEUMpGhBxWxQiPB&#xA;UtHhMxZi8CRygvElQzRTkqKyY3PCNUQnk6OzNhdUZHTD0uIIJoMJChgZhJRFRqS0VtNVKBry4/PE&#xA;1OT0ZXWFlaW1xdXl9WZ2hpamtsbW5vY3R1dnd4eXp7fH1+f3OEhYaHiImKi4yNjo+Ck5SVlpeYmZ&#xA;qbnJ2en5KjpKWmp6ipqqusra6voRAAICAQIDBQUEBQYECAMDbQEAAhEDBCESMUEFURNhIgZxgZEy&#xA;obHwFMHR4SNCFVJicvEzJDRDghaSUyWiY7LCB3PSNeJEgxdUkwgJChgZJjZFGidkdFU38qOzwygp&#xA;0+PzhJSktMTU5PRldYWVpbXF1eX1RlZmdoaWprbG1ub2R1dnd4eXp7fH1+f3OEhYaHiImKi4yNjo&#xA;+DlJWWl5iZmpucnZ6fkqOkpaanqKmqq6ytrq+v/aAAwDAQACEQMRAD8A9KaVpWlnS7MmzgJMEdT6&#xA;afyD2xVFfonSv+WKD/kUn9MVd+idK/5YoP8AkUn9MVS3y1pWlny5pRNnASbO3JJjT/fS+2Kpl+id&#xA;K/5YoP8AkUn9MVd+idK/5YoP+RSf0xVBenH/AIR9PiPT/R/HhQcePo0pTwxVKfNMMc/knT4JRyhn&#xA;u9FilSpAZJNQtVdTTsykg4qwu68neUbexk1IQ/U9QHmIWUM8VxNbubZr4JNHyjdDRLUyvUbrx5Ai&#xA;mKvQfIl5Pd+Xlle4kvLcXFylhezGrz2iTutvIWoOdYwOL/tijb1qVUp1S3hufJPlq2nXnBPNpUc0&#xA;dSAyM0dVNOxxVJNI/LHQ77Q7++0v1tL19dQ1VLXULW5uYP7jUZ44Y5RFInOLhEqEdeP2SDvirIfI&#xA;OvaldwxWuoytci6sbfVNNuZQizmC4FJLef0wqNLbPRWZVAIZf2uRxVO/+mV/6Mf+ZOKpV5i/5RDS&#xA;v+Y7Qv8AupWmKsN8yeRvJ+qeVPM+t3+kWc2rabfahfW168KGZpLWVnjjd6c3R+AQrXp0oQCFWc+T&#xA;zLBc65pIupbyz0u8WKzkncyyxpLbRTmB5WJeT02l+EsS3EgGtK4qgLv/AJRLyp/zE6T/AMSjxVFe&#xA;WdRs9M8q6lqN7IIrS01HW5p5DvxSPU7pmNB12GKpR+XiT3F5ZhlH+4DSYtPvXXdBqN2Unu4FYH4v&#xA;q/oxg9aFqVqGxVlX/TK/9GP/ADJxVTm0a31jyzaWM8ksKFbSdJYGCyJJbPHPEykhhtJGvbFUkk/K&#xA;rSp6pdavq9xaPM1zNZG8MUUkzP6nNvQWJ6h/iHxbEAjpirKtL0rT9KsksrCEQ26EsFqzMzMSzO7u&#xA;Wd3ZjVmYkk7k4qk9potvq/k7R7aaWWD04LOeKaBgsiSQojoQSGHUdxiqV/8AKpPL0tY9Qv8AVdRt&#xA;DO90LKa+ljtxPJM1w0np23oAkysX+KtD0xVl9hp9jp1nDZWFvHaWduoSC3hURxoo7KqgAYqgf+mV&#xA;/wCjH/mTiqhpU/mP9F2dLGzI9COhN5KP2B/y7YqivrHmX/lgs/8ApMl/7JcVd9Y8y/8ALBZ/9Jkv&#xA;/ZLiqW+Wp/Mf+HNK42NmV+p2/Em7lBI9Jeo+rHFUy+seZf8Algs/+kyX/slxV31jzL/ywWf/AEmS&#xA;/wDZLiqjWf8AwfXgvr/o+vp8jw5+h058a0r34/RiqhqPmGHy/wCU7TUpbWe9/wB4bWK0tfS9aSa9&#xA;mitYVX1pIYhWWZalnAAxVjx/OBYyDceUtdhhF8dLecjTZFS77RMIb6V/iNFUhaMxCipIxVmei61p&#xA;utabFqOnSmW2lLL8StG6vGxSSOSNwro6OpVlYAgihxVJo9dGieS9Hu/qVxqMkkNlbw2dp6IleSZU&#xA;RQDcSW8Q3O/JxiqTTfnBbWlqL7U/K+u2GmCeW1l1BorO5iilgma3kEgsrq6kUCVCgPCjHpWoxVmW&#xA;ja3pOtWCX+l3KXVq5ZOaVBV0NHR1YBkdTsysAQeoxVD/APTK/wDRj/zJxVIPOv8AyhGj/wDbV8tf&#xA;91mxxV595m13zPY2OrRWHlyTU9Mi82Jd3V+LqCFVe1vLe4gjIYl1DzxIryMvFFqTir0j8s5IpNCu&#xA;pHl56rLfXE2twGJ4Db3kzCVoPSk+JQiOnEn7a0f9rFVK7/5RLyp/zE6T/wASjxVGeVbG1v8AyvqN&#xA;jeRrNaXeo63BcQsKq8cmp3SupHgVNMVYr+V00qX+iSAktrvluC71Nv8Aft3YPFbi5am3qSxz0c9w&#xA;i+AxVnf/AEyv/Rj/AMycVSHzpHO/kTTXhgmuTb3+gXMkVtFJcS+lb6pZzTOsUSvI3CONmPFTsMVY&#xA;ZqmuO/lHzfocWja3LeeY76+htPT0jUVCQXyiL6y0jwKiiMEtQnlUdMVegeTrPVXvNa13UrRtOfWL&#xA;iNrbT3ZWljt7eFYY2n4FkEshDMVUnivFa1BxVA6izx+SfLdwIZ50t5dLmmS2hluZBGhQswihWSQh&#xA;RuaLirHR541ax8u3mlaD5f1q71+8vtUa0ZtMu7aCFbq/nlinea7jt4T+7kV1TnuaKxTdgqyT8vfK&#xA;eoaXGL/VY1t7oWVtpenacjiUWen2YIiieUbSTOW5Sso41ooqF5FVPf8Aplf+jH/mTiqL0n/jlWX/&#xA;ABgi/wCIDFUXirsVSzyx/wAo1pP/ADB2/wDyaXFUzxV2KpT/ANMr/wBGP/MnFVDSvL9gdLsyZbze&#xA;CM7X14P2B4S4qiv8PWH+/bz/AKTrz/qrirv8PWH+/bz/AKTrz/qriqW+WtAsW8uaUxlvKmztyaXt&#xA;4BvEvYS0xVMv8PWH+/bz/pOvP+quKu/w9Yf79vP+k68/6q4qo+in+DvRq3D9HcK82509Cn2686+9&#xA;a4qkvnK4vYfImnizupbKW5vNDs2ubduEqxXepWlvNwahoWilZa++KsEudO80W0NzqNn5z1qGSDzL&#xA;Boi27y29wjW9xeQ23JVngl/eR+vz3qvFSKb1xV6R+X+tanqmjXI1OeG7u9OvrrTnv7dfTjuRaymM&#xA;TBKsEY9HVSQHBp4YqlGuSXv+DvKVra3k9j9eudNtZ57V/Tl9KSL4lVqGlaYqw/SdD/MS48u67reg&#xA;+ctVfVdO1fVbe3027+q3VtPb6deTQRwASwF0keOIDmG+128FWcfl353vNcT6jqoiOofU7bU7K+tl&#xA;ZLe+0+8BMNxHGzO0TqQUlj5NxalCQwxVP/8Aplf+jH/mTiqQedf+UI0f/tq+Wv8Aus2OKvNvO3ka&#xA;x1Ly15w8zTalqVvN5f1e/wBRW1t7yWK3dbZFMiiIMFWVouao60PI71FVKr0r8t0uNK/S3k+R4Z4P&#xA;LksMVhcwxR25a1uYRNGs0UISISoSwZkVQ2zcQScVQ2sf8o15G/7aGlf8mjirvy3vrXT/ACv5jv7u&#xA;QQ2lpr/mKe4lY0VI49TuXdiT2CiuKpF+VcUj6v5fhEfpyaH5Tgg1SMUpDcalJDcRW7UH95HHbMWF&#xA;dgw8Rir0T/plf+jH/mTiqC1by+2v+UbTT0umsZVbT7yC6VFkKS2NxDdx/A2zAvAAR4YqxS6/KPzJ&#xA;eWt7YXHnS5XTNSumvL+1hsbRDLIzq5BdxJ8JKCq04noQQSCqzbyz5X0/y9aTQWsk1zPdzNdX9/dy&#xA;ercXE7KqGSV6KK8EVQFAVVAAAGKpTJ5dm13yd5fit71tPubNbK9t7lY1lpJDEKAo+xB5YqxhfyT1&#xA;i4tbrTNT8638uhXl9cajcadaW1pa+pNdXDXMgklKTMyGRz8HT7sVeg+XfLWjeXdPNjpUHpRPI008&#xA;js0s00z7vNNLIWkkkbuzEnFVv/TK/wDRj/zJxVQ0rVb8aXZgaNeECCPcPZ7/AADxuMVRX6Wv/wDq&#xA;y3n/AAdn/wBlGKu/S1//ANWW8/4Oz/7KMVS3y1qt8PLmlAaPeMBZ24DB7Oh/dLuK3AOKpl+lr/8A&#xA;6st5/wAHZ/8AZRirv0tf/wDVlvP+Ds/+yjFVH1H/AMH+p6Tc/wBH8vRqvOvoV415ca9vtU98VWXH&#xA;mDSNA8tWeoarObe04W0IcJJKxkm4xxoqRK7szuwUADFWOv8Ant+VcV0bWfWmt51domW4s72EB0FW&#xA;UmSFQCo3O+wxVmunalp+p2MN/p1zFeWNyoe3uoHWSN1PdXUkEYqklt5h0nQfJ2j3mqTNDA9vaQRl&#xA;I5ZnaSSIcVWOFZHJNOwxVJI/z6/KRr1rKTzDHaTq7xsLyC5tEDxtwdTJcRRICrCh32xVnVtdW11b&#xA;x3NrKk9vMoeKaJg6Op6MrLUEH2xVLv8Aplf+jH/mTirFfzB/5RDyx/23PLn/AHUrbFXl/mvzzYaL&#xA;NqthcaZqdyyee4L9ru1spZYVW1a2n9JJqCNp5vSMaxhq/FU0HVV6j+Sgim8o3OqQm2jh1nUrzUY9&#xA;PtJFljsxPJ/vMzJRfUTjWUACjlsVXax/yjXkb/toaV/yaOKoDyp5Z03zN5F8z6LqCBobrzB5gVJP&#xA;24pf0pcenNGeqyRtRlYdDiqT/kteSWt7o0Fuoh03zZ5ci197CMBYLfUIHhhvHgQUWNLk3aOUUUDA&#xA;nvir07/plf8Aox/5k4qxD8zLu1s/I3l68vJo7a0ttZ8vTXFxMwSOONNQt2d3diFVVUVJPTFXm3mL&#xA;8xPITeQ/zD0tNdsZ9R1zWrlNGhgnjmd5JY7cQXC+mWpGki8/U6fDtvtir1L8t0kvdc81eZrezmsd&#xA;F1y5tn02O4ia3lnNvbiKa8MLhXQTNQLyUFgnKm+KobzRqOn6d5O8l32oXMVnZW99pTz3Vw6xRRr6&#xA;R+J3chVHzOKsG0v86vKGg+Utes9L1KLUvMt/reuvo1jZcrpmNzqM7QTt9XWWkXFxJUbsv2AxIBVZ&#xA;d+UPlTVLdrXWNQs5tOtNN0i30Dy/YXQCXX1WGjz3VzGC3pSXMqIfTrVVUV3OKs6/6ZX/AKMf+ZOK&#xA;ojToYZtHs45o1kjMEVUcBhsg7HFVeGwsYH5wW8UT0pyRFU08KgYqr4qlPl6CCfyvpKTRrKn1O3PF&#xA;wGFREvY4qmMFtb26lYIkiUmpVFCgnx2xVVxVKf8Aplf+jH/mTiqhpWlX50uzI1m8AMEewSz2+AeN&#xA;viqK/RN//wBXq8/4Cz/7J8Vd+ib/AP6vV5/wFn/2T4qlvlrSr4+XNKI1i8UGztyFCWdB+6XYVtyc&#xA;VTL9E3//AFerz/gLP/snxV36Jv8A/q9Xn/AWf/ZPiqj6b/4P9P1W5/o/j61F519CnKnHjXv9mnti&#xA;qSecdc1rSPJmkyaNLDBqF7eaTpsdxcRGeOMX1zDbM5iV4i/ESVpzGKsAv/Ov50WKXF3FqmiXlvZ+&#xA;YY/Ls6S6dcQ1M7Qxx3HwXbtx9S4UMo3A3HLpir0v8vvNl/5j0q9OqWSWGr6TfT6XqcEMhmgNxbhS&#xA;XhkIVjG6yKw5Co6HpiqReaPMPmDRvJnk6PQpoLa91i80zSzc3MLXCRpcwnk/pLJCWIKj9sYqw0+e&#xA;vz4h0TW/MNmdE1vT/L+o6hp9/ZG0uba4aLTp2ie4h4Tyg/CnMpUkCoHI0xV6P+X35iQea4p7a5sz&#xA;peuWccM9zYGQTRvb3K87e6tp1CrNBKo2agIOzAHFU6/6ZX/ox/5k4qxX8wf+UQ8sf9tzy5/3UrbF&#xA;XlHn3y55wuNK84eY9L8yyadpnl7zPNqFxpaW0Mh5W8duTdJI1GaSFTzWNvhJXqpocVeofk1Fc6Nb&#xA;ax5M1C0ji1XQLhZbvUYZJJU1AX6mZb1jMzyiWQhhIrMaEbHjSiqD87/8o1+Wn/be0T/k0+Kor8rZ&#xA;rOHy75zmvafU4/MvmF7nlTj6S3chete3GuKsX/JsP+nPI8RBN3a+RF/SLAGix3F1btYo+/2uMcxW&#xA;vavjir1v/plf+jH/AJk4qkfm7y7rOveS9MttFltotTtLnTNRtjeep6BaxniuQr+mC9G9Om2KsAvv&#xA;yy/OzUtI13RLnUvLtrpnmO+e+1JoY76SUiT0w8K8jGBG4hCsPtUJ+LFXpXknybN5f/SN7qOpPrGv&#xA;6zMs+qak8awKxiT04ooYVLCOKJNlXkT1JJriqR+ZfK2v+YPJPlL9Ay2kWpaRc6bqkX171PQb6tCf&#xA;gb0gX3LjpirDB+UX5z3+j6v5dvvMOjaTomt6ld6lqLafBdXFxKL6YzTW5MzQqIqnjQbldiSKgqvT&#xA;vInkDSvKFncrbzS32p6g6y6rqtzx9e4dF4oKIFRI41+GONAFQbDFUy/6ZX/ox/5k4qoaV5gsBpdm&#xA;DFebQRjaxvD+wPCLFUV/iGw/31ef9IN5/wBUsVd/iGw/31ef9IN5/wBUsVS3y1r9ivlzSlMV5UWd&#xA;uDSyvCNol7iKmKpl/iGw/wB9Xn/SDef9UsVd/iGw/wB9Xn/SDef9UsVUfWT/AAd61G4fo7nTg3On&#xA;oV+xTnX2pXFVSPVdL0vQbO61O8gsbUQwqZ7mRIYwzIKDk5UVOKoe28+eRrqYQ23mLTJ5ieIjjvLd&#xA;2J8KK5OKp4CCKjcHocVSLS9X0nSvKWk3WqXsFhbG1tkE9zKkKcjECF5OVFTTpiqrp/nPyfqVz9V0&#xA;7XdPvbkmggt7uCWSp7cUcnFU5xVKf+mV/wCjH/mTirz386oYZ/y+8swTxrLDLrWhpLE4DKytOgZW&#xA;U7EEdRirxvzk35Q6bf67peq22m22sR+eIpI1NuoaHSI4bVrjmI0JMBUSgRd3Pwjlir3L8gop18l3&#xA;c0UVxb+XrvU7q48q2l2xeWHSX4egnxFmVeYkZFJJCkbnFUD+YNra3flL8uLW7hS4tptc0VJoJVDo&#xA;6mJwVZWBBB8DirD7H8mfJXm3yP50H6LtrXWrPzBrw0nUYIkjkia3un9CJuAHOEcQvptsB9mh3xVP&#xA;fyN8xalbXOk6HLdTXmg+YNCj13QvrLvNLZyxukN7YiZyzSRI8itFyNVXY4q9V/6ZX/ox/wCZOKvP&#xA;/wA5mVfIXldmIVV1zQyzHYAC4Tc4q89853HlJvJP5oTXctmdcTzRLJ5fdmiNz9Z+rWPpGDl8RFa8&#xA;qbceVdq4qz78kG0x9f8AOsnloKvkprmyGmC2qLA34gb9JGyHT0vU9P7Pw1rTbFVbz26R+WPy1eRg&#xA;iLr2iFmY0AHpPuScVYxY/mh5X8n+RPPM1zqNsdWm8w6+umad6qetNLLeSLEeFaiPkQWf7IHfFUX+&#xA;RGk3OoXmla1HDJH5c8taDHoOjXUqNF9fuZXSa+vYUcKwh5RKkZI+Lc+wVetf9Mr/ANGP/MnFVGfy&#xA;9oXmDy1aadrdhBqNi0ULtbXKCSMsqDieLbVGKpRF+TP5TRSLInlDSOS7jlZwsPuZSMVZdbWtta28&#xA;dvaxJBbxDjFDEoRFUdlVaADFWPweWvL/AJi8maRYa7p8Gp2QtraUW9yiyJzWEBW4ttUBjiqhYflL&#xA;+V+n3C3Nn5U0qK4Q1SUWcJZSO6kqeJ+WKsrAAFBsB0GKpV/0yv8A0Y/8ycVUNKg8x/ouzpfWYHoR&#xA;0Bs5T+wP+XnFUV9X8y/8t9n/ANIcv/ZVirvq/mX/AJb7P/pDl/7KsVS3y1B5j/w5pXG+swv1O34g&#xA;2kpIHpL1P1kYqmX1fzL/AMt9n/0hy/8AZVirvq/mX/lvs/8ApDl/7KsVUaT/AOD6c19f9H09TieH&#xA;P0OvDlWle3L6cVY/55866h5Q8kaXqOnWEepXt1PYafb2sspgQvdkRqTIFelCfDFWAzfn5+ZVjNcG&#xA;98gwTWtrqyeX55bfVYxx1CRY3SP44fssJlAYgLU7sMVep+RPPNh5v0q4u4LW40+8sLmSx1TTLxQs&#xA;9tdRAF434llIowZWBoQfoxVjvmnzxq/lPyX5PbR9Mi1XUdbubDSLe2nmNuge4tXdWMgWTvDTp3xV&#xA;hTf85FefLCx1LVdW/L8vomkajNpOp6jY6jHIILi2f05OUbRK3DkRRzxX3xV6n5C/Mby752sJrnSm&#xA;lhurRhHqOmXaeldW0jCoWWOp6j7LKSD44qmX/TK/9GP/ADJxVgH5yf8AKCeVv+25oX/UQmKvIvzE&#xA;X8yIV84aro/6NPlTRvOi39/64ma5S6ihtAksipVWtY+UbME+OoNarir1j/nH269Gy8xaHqsVxF51&#xA;tb/695qe5aKQTz36Bori3eEBDA8cXwKBtTFVn5if8cP8pf8AwJdF/wCoOfFVv5cW9nc+UPzPt74A&#xA;2U3mXzGlyG6emzUetf8AJxVjP5MMy+b/ACLOpK32oeRv9yqKPtw2tzFHZSyUO7caoGI6bV7Yq9v/&#xA;AOmV/wCjH/mTirD/AMzvLvmDXPIeixaDZrf39jfaZqH1VpUg5x2jrK49SQhRUDFXnOs+W/zw1Ly7&#xA;5w8v2/k2C0g836s2oXF5Lqls5ht5I7eN4VRAasRbfb7V+zir1D8tfI+vaNe6x5i8z3NtP5i136tH&#xA;LBYh/qtpa2aFILeFpf3jU5kux6n78VSnz1oHmbVfJ/kG68vaeuqXeh6npmrTWbTx23OG3tJVYCSX&#xA;4QeUijFXn7eUv+chLvQvM/lfT9AstDsvNOr6hqV5qdzqEUrrb6hIGe2QW4kYfD8LPxNRWgGKvVPy&#xA;u/K8+UEn1DU70an5ivIILSW5RPTt7e0tU4QWdpGSSkMY8d2O7b4qyj/plf8Aox/5k4q3pWq6WNLs&#xA;wbyAEQR1HqJ/IPfFUV+ltK/5bYP+Rqf1xV36W0r/AJbYP+Rqf1xVLfLWq6WPLmlA3kAIs7cEGRP9&#xA;9L74qmX6W0r/AJbYP+Rqf1xV36W0r/ltg/5Gp/XFUF6kf+EfU5D0/wBH8udRx4+jWtfDFX//2Q==</xapGImg:image>
    </rdf:li>
   </rdf:Alt>
  </xap:Thumbnails>
 </rdf:Description>

 <rdf:Description rdf:about='uuid:9d22d810-0df1-11de-88b2-001124740a56'
  xmlns:xapMM='http://ns.adobe.com/xap/1.0/mm/'>
  <xapMM:DocumentID>uuid:831aaf18-81ce-11da-9137-001124808cba</xapMM:DocumentID>
 </rdf:Description>

 <rdf:Description rdf:about='uuid:9d22d810-0df1-11de-88b2-001124740a56'
  xmlns:dc='http://purl.org/dc/elements/1.1/'>
  <dc:format>image/svg+xml</dc:format>
 </rdf:Description>

</rdf:RDF>
</x:xmpmeta>
                                                                                                                                                                                                                                                                                                                                                                                                                                                                                                                                                                                                                                                                                                                                                                                                                                                                                                                                                                                                                                                                                                                                                                                                                                                                                                                                                                                                                                                                                                                                                                                                                                                                                                                                                                                                                                                                                                                                                                                                                                                                                                                                <?xpacket end='w'?>
			</metadata>
		<g id="レイヤー1">
			<g>
				<rect x="0.125" y="0.125" fill="none" stroke="#000000" stroke-width="0.25" width="100" height="150"/> 
				<rect x="0.125" y="150.125" fill="none" stroke="#000000" stroke-width="0.25" width="100" height="150"/> 
				<rect x="0.125" y="300.125" fill="none" stroke="#000000" stroke-width="0.25" width="100" height="150"/> 
				<rect x="0.125" y="450.125" fill="none" stroke="#000000" stroke-width="0.25" width="100" height="150"/> 
				<rect x="0.125" y="600.125" fill="none" stroke="#000000" stroke-width="0.25" width="100" height="150"/> 
				<rect x="0.125" y="750.125" fill="none" stroke="#000000" stroke-width="0.25" width="100" height="150"/> 
				<rect x="0.125" y="900.125" fill="none" stroke="#000000" stroke-width="0.25" width="100" height="150"/> 
				<rect x="100.125" y="0.125" fill="none" stroke="#000000" stroke-width="0.25" width="100" height="150"/> 
				<rect x="100.125" y="150.125" fill="none" stroke="#000000" stroke-width="0.25" width="100" height="150"/> 
				<rect x="100.125" y="300.125" fill="none" stroke="#000000" stroke-width="0.25" width="100" height="150"/> 
				<rect x="100.125" y="450.125" fill="none" stroke="#000000" stroke-width="0.25" width="100" height="150"/> 
				<rect x="100.125" y="600.125" fill="none" stroke="#000000" stroke-width="0.25" width="100" height="150"/> 
				<rect x="100.125" y="750.125" fill="none" stroke="#000000" stroke-width="0.25" width="100" height="150"/> 
				<rect x="100.125" y="900.125" fill="none" stroke="#000000" stroke-width="0.25" width="100" height="150"/> 
			</g>
			<g>
				<g>
					<path d="M25.625,35.125v73h23c20.1875,0,30-7.0322266,30-21.5h-2c0,13.3037109-8.8974609,19.5-28,19.5h-21v-69h20
						c22.4082031,0,25,8.2753906,25,14.5c0,9.9951172-8.5234375,15.75-24,15.75v1.5c18.8417969,0,28,5.9746094,28,17.75h2
						c0-10.4335938-6.2109375-16.4980469-18.9003906-18.5888672v-0.2001953C69.3173828,65.5097656,74.625,59.9462891,74.625,51.625
						c0-11.1025391-8.8320312-16.5-27-16.5H25.625z"/>
					<path d="M64.625,87.125c0-12.2060547-7.8808594-19.5-15.5-19.5v1c3.4570312,0,11.5-1.7050781,11.5-17.5
						c0-10.4296875-5.0703125-15.5-15.5-15.5v1.5c8.9980469,0,13.5,4.1523438,13.5,14c0,11.078125-3.9589844,16-9.5,16h-7.5v-31h-2
						v71h2v-38h7.5c7.0361328,0,13.5,7.2519531,13.5,18c0,13.9257812-5.2519531,19-16.5,19v1.5
						C58.9199219,107.625,64.625,101.3027344,64.625,87.125z"/>
				</g>
				<g>
					<path d="M76.5415039,236.625c0,12.6479492-8.7016602,18.8334961-28.2504883,18.8334961H27.8745117v-67.6669922h19.4169922
						c21.9711914,0,25.2495117,7.6088867,25.2495117,13.8330078c0,9.6894531-8.2734375,15.375-23.3330078,15.375v2.25
						C67.6494141,219.2495117,76.5415039,225.2294922,76.5415039,236.625h2.6665039
						c0-10.4179688-6.059082-16.4785156-18.4384766-18.5859375v-0.2001953
						c9.3222656-2.3398438,14.4384766-7.8803711,14.4384766-16.2143555c0-10.949707-8.8583984-16.5-27.9165039-16.5H25.2080078v73
						h23.0830078c20.9702148,0,30.9169922-7.1665039,30.9169922-21.4995117H76.5415039z"/>
					<path d="M64.875,237.1245117c0-12.0727539-7.9384766-19.5415039-15.8334961-19.5415039v1
						c4.2231445,0,11.8330078-2.3701172,11.8330078-17.4584961c0-10.0600586-5.0986328-14.9995117-15.6665039-14.9995117v1.6665039
						c8.6743164,0,13,3.9970703,13,13.3330078c0,10.9902344-3.8037109,15.6669922-9.6665039,15.6669922h-6.3334961v-30.6669922
						h-2.6669922V257.125h2.6669922v-37.6669922h6.3334961c7.3745117,0,13.6665039,6.9580078,13.6665039,17.6665039
						c0,13.4013672-5.0839844,18.3339844-16,18.3339844V257.125C59.1181641,257.125,64.875,250.9482422,64.875,237.1245117z"/>
				</g>
				<g>
					<path d="M76.4584961,386.625c0,11.9926758-8.5053711,18.1665039-28.5,18.1665039H28.125v-66.3330078h18.8334961
						c21.5336914,0,25.5,6.9423828,25.5,13.1665039c0,9.3833008-8.0244141,15-22.6669922,15v3
						C67.8330078,369.625,76.4584961,375.6098633,76.4584961,386.625h3.3330078
						c0-10.4018555-5.9067383-16.4575195-17.9765625-18.5820312v-0.2006836
						c9.0517578-2.3525391,13.9765625-7.8706055,13.9765625-16.2172852c0-10.7973633-8.8837891-16.5-28.8330078-16.5H24.7919922v73
						h23.1665039c21.7519531,0,31.8330078-7.3017578,31.8330078-21.5H76.4584961z"/>
					<path d="M65.125,387.125c0-11.9399414-7.9951172-19.5834961-16.1665039-19.5834961v1.0004883
						c4.9892578,0,12.1665039-3.0361328,12.1665039-17.4169922c0-9.6899414-5.1274414-14.5-15.8330078-14.5v1.8334961
						c8.3500977,0,12.5,3.8422852,12.5,12.6665039c0,10.9018555-3.6479492,15.3334961-9.8334961,15.3334961h-5.1669922V336.125
						h-3.3330078v71h3.3330078v-37.3334961h5.1669922c7.7124023,0,13.8330078,6.6635742,13.8330078,17.3334961
						c0,12.8754883-4.9150391,17.6665039-15.5,17.6665039V406.625C59.3168945,406.625,65.125,400.59375,65.125,387.125z"/>
				</g>
				<g>
					<path d="M76.375,536.625c0,11.3369141-8.3095703,17.5-28.75,17.5h-19.25v-65h18.25c21.0966797,0,25.75,6.2763672,25.75,12.5
						c0,9.0771484-7.7744141,14.625-22,14.625V520C68.015625,520,76.375,525.9902344,76.375,536.625h4
						c0-10.3857422-5.7548828-16.4375-17.5146484-18.5791016v-0.2001953C71.6416016,515.4794922,76.375,509.984375,76.375,501.625
						c0-10.6445312-8.9101562-16.5-29.75-16.5h-22.25v73h23.25c22.5341797,0,32.75-7.4365234,32.75-21.5H76.375z"/>
					<path d="M65.375,537.125c0-11.8066406-8.0527344-19.625-16.5-19.625v1c5.7558594,0,12.5-3.7011719,12.5-17.375
						c0-9.3203125-5.15625-14-16-14v2c8.0263672,0,12,3.6875,12,12c0,10.8134766-3.4921875,15-10,15h-4v-30h-4v71h4v-37h4
						c8.0507812,0,14,6.3691406,14,17c0,12.3505859-4.7470703,17-15,17v2C59.515625,556.125,65.375,550.2392578,65.375,537.125z"/>
				</g>
				<g>
					<path d="M76.2910156,686.625c0,10.6806641-8.1132812,16.8330078-28.9995117,16.8330078H28.6245117v-63.6669922h17.6669922
						c20.659668,0,26,5.6103516,26,11.8339844c0,8.7705078-7.5249023,14.25-21.3334961,14.25v4.5
						C68.1982422,670.375,76.2910156,676.3710938,76.2910156,686.625h4.6669922
						c0-10.3701172-5.6030273-16.4179688-17.0527344-18.5761719v-0.1992188
						c8.5112305-2.3808594,13.0527344-7.8535156,13.0527344-16.2246094c0-10.4921875-8.9360352-16.5-30.6665039-16.5H23.9580078v73
						h23.3334961c23.3164062,0,33.6665039-7.5712891,33.6665039-21.5H76.2910156z"/>
					<path d="M65.625,687.125c0-11.6738281-8.1103516-19.6669922-16.8334961-19.6669922v1
						c6.5219727,0,12.8330078-4.3662109,12.8330078-17.3330078c0-8.9511719-5.1850586-13.5-16.1665039-13.5v2.1660156
						c7.7026367,0,11.5,3.5332031,11.5,11.3339844c0,10.7255859-3.3364258,14.6660156-10.1665039,14.6660156h-2.8334961V636.125
						h-4.6665039v71h4.6665039v-36.6669922h2.8334961c8.3891602,0,14.1665039,6.0751953,14.1665039,16.6669922
						c0,11.8251953-4.5786133,16.3330078-14.5,16.3330078V705.625C59.7148438,705.625,65.625,699.8847656,65.625,687.125z"/>
				</g>
				<g>
					<path d="M76.2084961,836.625c0,10.0253906-7.9179688,16.1669922-29.25,16.1669922H28.875v-62.3339844h17.0834961
						c20.222168,0,26.25,4.9433594,26.25,11.1669922c0,8.4648438-7.2753906,13.875-20.6665039,13.875v5.25
						C68.3813477,820.75,76.2084961,826.7509766,76.2084961,836.625h5.3334961
						c0-10.3544922-5.4511719-16.3974609-16.5913086-18.5722656v-0.2001953
						c8.2412109-2.3935547,12.5908203-7.84375,12.5908203-16.2275391c0-10.3388672-8.9619141-16.5-31.5830078-16.5H23.5415039v73
						h23.4169922c24.0986328,0,34.5834961-7.7060547,34.5834961-21.5H76.2084961z"/>
					<path d="M65.875,837.125c0-11.5400391-8.1674805-19.7080078-17.1665039-19.7080078v1
						c7.2880859,0,13.1665039-5.0332031,13.1665039-17.2919922c0-8.5810547-5.2133789-13-16.3334961-13v2.3330078
						c7.3789062,0,11,3.3779297,11,10.6669922c0,10.6376953-3.1801758,14.3330078-10.3330078,14.3330078h-1.6669922V786.125
						h-5.3330078v71h5.3330078v-36.3330078h1.6669922c8.7280273,0,14.3330078,5.78125,14.3330078,16.3330078
						c0,11.2998047-4.4101562,15.6669922-14,15.6669922V855.125C59.9140625,855.125,65.875,849.5292969,65.875,837.125z"/>
				</g>
				<g>
					<path d="M76.125,986.625c0,9.3691406-7.7216797,15.5-29.5,15.5h-17.5v-61h16.5c19.7851562,0,26.5,4.2763672,26.5,10.5
						c0,8.1591797-7.0253906,13.5-20,13.5v6C68.5644531,971.125,76.125,977.1318359,76.125,986.625h6
						c0-10.3388672-5.2988281-16.3779297-16.1289062-18.5693359v-0.1992188
						C73.9667969,965.4492188,78.125,960.0214844,78.125,951.625c0-10.1865234-8.9882812-16.5-32.5-16.5h-22.5v73h23.5
						c24.8808594,0,35.5-7.8408203,35.5-21.5H76.125z"/>
					<path d="M66.125,987.125c0-11.4072266-8.2246094-19.75-17.5-19.75v1c8.0546875,0,13.5-5.6982422,13.5-17.25
						c0-8.2109375-5.2421875-12.5-16.5-12.5v2.5c7.0546875,0,10.5,3.2226562,10.5,10c0,10.5498047-3.0244141,14-10.5,14h-0.5v-29h-6
						v71h6v-36h0.5c9.0664062,0,14.5,5.4873047,14.5,16c0,10.7744141-4.2421875,15-13.5,15v2.5
						C60.1132812,1004.625,66.125,999.1748047,66.125,987.125z"/>
				</g>
			</g>
			<g>
				<g>
					<path d="M124.625,106.125v-69h14.9814453c27.2177734,0,41.0185547,11.2714844,41.0185547,33.5h2
						c0-23.2246094-14.8759766-35.5-43.0185547-35.5H122.625v73h16.9814453c27.7412109,0,43.0185547-13.3183594,43.0185547-37.5h-2
						c0,22.8925781-14.5673828,35.5-41.0185547,35.5H124.625z"/>
					<rect x="136.625" y="36.125" width="2" height="71"/> 
					<path d="M139.6064453,107.625c18.4423828,0,29.0185547-13.4804688,29.0185547-36.9863281
						c0-28.9394531-15.7802734-35.0136719-29.0185547-35.0136719v1.5c17.9277344,0,27.0185547,11.2714844,27.0185547,33.5
						c0,22.8925781-9.5957031,35.5-27.0185547,35.5V107.625z"/>
				</g>
				<g>
					<path d="M124.7915039,255.4584961v-67.6669922h14.597168c27.2519531,0,41.0693359,11.046875,41.0693359,32.8330078h2.6665039
						c0-23.2246094-15.1235352-35.5-43.7358398-35.5h-17.2641602v73h17.2641602c28.2041016,0,43.7358398-13.3183594,43.7358398-37.5
						h-2.6665039c0,23.4165039-15.8842773,34.8339844-41.0693359,34.8339844H124.7915039z"/>
					<rect x="136.4580078" y="186.4580078" width="2.6665039" height="70.3334961"/> 
					<path d="M139.3886719,187.7915039c17.7407227,0,26.7363281,11.046875,26.7363281,32.8330078
						c0,23.4165039-10.2919922,34.8339844-26.7363281,34.8339844v2c16.9384766,0,29.4023438-11.8178711,29.4023438-36.8154297
						c0-29.0527344-16.4204102-34.8515625-29.4023438-34.8515625V187.7915039z"/>
				</g>
				<g>
					<path d="M124.9584961,404.7915039v-66.3330078h14.2138672c27.284668,0,41.1191406,10.8227539,41.1191406,32.1665039H183.625
						c0-23.2246094-15.371582-35.5-44.4526367-35.5H121.625v73h17.5473633c28.6660156,0,44.4526367-13.3183594,44.4526367-37.5
						h-3.3334961c0,23.9399414-17.2011719,34.1665039-41.1191406,34.1665039H124.9584961z"/>
					<rect x="136.2919922" y="336.7915039" width="3.3330078" height="69.6669922"/> 
					<path d="M139.1723633,338.4584961c17.5527344,0,26.4526367,10.8227539,26.4526367,32.1665039
						c0,23.9399414-10.9868164,34.1665039-26.4526367,34.1665039v2.5c15.4335938,0,29.7861328-10.1542969,29.7861328-36.6435547
						c0-29.1655273-17.0610352-34.6894531-29.7861328-34.6894531V338.4584961z"/>
				</g>
				<g>
					<path d="M125.125,554.125v-65h13.8300781c27.3183594,0,41.1699219,10.5986328,41.1699219,31.5h4
						c0-23.2246094-15.6191406-35.5-45.1699219-35.5H121.125v73h17.8300781c29.1289062,0,45.1699219-13.3183594,45.1699219-37.5h-4
						c0,24.4638672-18.5185547,33.5-41.1699219,33.5H125.125z"/>
					<rect x="136.125" y="487.125" width="4" height="69"/> 
					<path d="M138.9550781,489.125c17.3652344,0,26.1699219,10.5986328,26.1699219,31.5
						c0,24.4638672-11.6826172,33.5-26.1699219,33.5v3c13.9296875,0,30.1699219-8.4912109,30.1699219-36.4726562
						c0-29.2783203-17.7011719-34.5273438-30.1699219-34.5273438V489.125z"/>
				</g>
				<g>
					<path d="M125.2910156,703.4580078v-63.6669922h13.4467773c27.3520508,0,41.2202148,10.3740234,41.2202148,30.8339844h4.6665039
						c0-23.2246094-15.8666992-35.5-45.8867188-35.5h-18.1132812v73h18.1132812c29.5913086,0,45.8867188-13.3183594,45.8867188-37.5
						h-4.6665039c0,24.9873047-19.8359375,32.8330078-41.2202148,32.8330078H125.2910156z"/>
					<rect x="135.9580078" y="637.4580078" width="4.6665039" height="68.3339844"/> 
					<path d="M138.737793,639.7910156c17.1772461,0,25.887207,10.3740234,25.887207,30.8339844
						c0,24.9873047-12.378418,32.8330078-25.887207,32.8330078v3.5c12.4257812,0,30.5537109-6.828125,30.5537109-36.3007812
						c0-29.3925781-18.3417969-34.3662109-30.5537109-34.3662109V639.7910156z"/>
				</g>
				<g>
					<path d="M125.4584961,852.7919922v-62.3339844h13.0629883c27.3847656,0,41.2705078,10.1494141,41.2705078,30.1669922H185.125
						c0-23.2246094-16.1152344-35.5-46.6035156-35.5H120.125v73h18.3964844c30.0537109,0,46.6035156-13.3183594,46.6035156-37.5
						h-5.3330078c0,25.5117188-21.1533203,32.1669922-41.2705078,32.1669922H125.4584961z"/>
					<rect x="135.7915039" y="787.7919922" width="5.3334961" height="67.6660156"/> 
					<path d="M138.5214844,790.4580078c16.9887695,0,25.6035156,10.1494141,25.6035156,30.1669922
						c0,25.5117188-13.0737305,32.1669922-25.6035156,32.1669922v4c10.9213867,0,30.9370117-5.1669922,30.9370117-36.1308594
						c0-29.5048828-18.9824219-34.203125-30.9370117-34.203125V790.4580078z"/>
				</g>
				<g>
					<path d="M125.625,1002.125v-61h12.6796875c27.4179688,0,41.3203125,9.9248047,41.3203125,29.5h6
						c0-23.2246094-16.3632812-35.5-47.3203125-35.5H119.625v73h18.6796875c30.515625,0,47.3203125-13.3183594,47.3203125-37.5h-6
						c0,26.0351562-22.4707031,31.5-41.3203125,31.5H125.625z"/>
					<rect x="135.625" y="938.125" width="6" height="67"/> 
					<path d="M138.3046875,941.125c16.8007812,0,25.3203125,9.9248047,25.3203125,29.5
						c0,26.0351562-13.7695312,31.5-25.3203125,31.5v4.5c9.4169922,0,31.3203125-3.5039062,31.3203125-35.9589844
						c0-29.6191406-19.6230469-34.0410156-31.3203125-34.0410156V941.125z"/>
				</g>
			</g>
		</g>
	</svg>
