<?xml version="1.0" encoding="utf-8"?>
<!-- Generator: Adobe Illustrator 11 Build 225, SVG Export Plug-In . SVG Version: 6.0.0 Build 78)  -->
<!DOCTYPE svg PUBLIC "-//W3C//DTD SVG 1.0//EN"    "http://www.w3.org/TR/2001/REC-SVG-20010904/DTD/svg10.dtd" [
	<!ENTITY ns_flows "http://ns.adobe.com/Flows/1.0/">
	<!ENTITY ns_svg "http://www.w3.org/2000/svg">
	<!ENTITY ns_xlink "http://www.w3.org/1999/xlink">
]>
<svg  xmlns="&ns_svg;" xmlns:xlink="&ns_xlink;" xmlns:a="http://ns.adobe.com/AdobeSVGViewerExtensions/3.0/"
	 width="200.25" height="1050.25" viewBox="0 0 200.25 1050.25" overflow="visible" enable-background="new 0 0 200.25 1050.25"
	 xml:space="preserve">
	<metadata>
		<x:xmpmeta  x:xmptk="XMP toolkit 3.0-29, framework 1.6" xmlns:x="adobe:ns:meta/">
			<rdf:RDF  xmlns:iX="http://ns.adobe.com/iX/1.0/" xmlns:rdf="http://www.w3.org/1999/02/22-rdf-syntax-ns#">
				<rdf:Description  rdf:about="" xmlns:pdf="http://ns.adobe.com/pdf/1.3/"></rdf:Description>
				<rdf:Description  rdf:about="" xmlns:tiff="http://ns.adobe.com/tiff/1.0/"></rdf:Description>
				<rdf:Description  rdf:about="" xmlns:xapGImg="http://ns.adobe.com/xap/1.0/g/img/" xmlns:xap="http://ns.adobe.com/xap/1.0/">
					<xap:CreateDate>2005-10-18T08:31:30Z</xap:CreateDate>
					<xap:ModifyDate>2005-10-18T08:31:30Z</xap:ModifyDate>
					<xap:CreatorTool>Illustrator</xap:CreatorTool>
					<xap:Thumbnails>
						<rdf:Alt>
							<rdf:li  rdf:parseType="Resource">
								<xapGImg:format>JPEG</xapGImg:format>
								<xapGImg:width>172</xapGImg:width>
								<xapGImg:height>256</xapGImg:height>
								<xapGImg:image>/9j/4AAQSkZJRgABAgEASABIAAD/7QAsUGhvdG9zaG9wIDMuMAA4QklNA+0AAAAAABAASAAAAAEA
AQBIAAAAAQAB/+4ADkFkb2JlAGTAAAAAAf/bAIQABgQEBAUEBgUFBgkGBQYJCwgGBggLDAoKCwoK
DBAMDAwMDAwQDA4PEA8ODBMTFBQTExwbGxscHx8fHx8fHx8fHwEHBwcNDA0YEBAYGhURFRofHx8f
Hx8fHx8fHx8fHx8fHx8fHx8fHx8fHx8fHx8fHx8fHx8fHx8fHx8fHx8fHx8f/8AAEQgBAACsAwER
AAIRAQMRAf/EAaIAAAAHAQEBAQEAAAAAAAAAAAQFAwIGAQAHCAkKCwEAAgIDAQEBAQEAAAAAAAAA
AQACAwQFBgcICQoLEAACAQMDAgQCBgcDBAIGAnMBAgMRBAAFIRIxQVEGE2EicYEUMpGhBxWxQiPB
UtHhMxZi8CRygvElQzRTkqKyY3PCNUQnk6OzNhdUZHTD0uIIJoMJChgZhJRFRqS0VtNVKBry4/PE
1OT0ZXWFlaW1xdXl9WZ2hpamtsbW5vY3R1dnd4eXp7fH1+f3OEhYaHiImKi4yNjo+Ck5SVlpeYmZ
qbnJ2en5KjpKWmp6ipqqusra6voRAAICAQIDBQUEBQYECAMDbQEAAhEDBCESMUEFURNhIgZxgZEy
obHwFMHR4SNCFVJicvEzJDRDghaSUyWiY7LCB3PSNeJEgxdUkwgJChgZJjZFGidkdFU38qOzwygp
0+PzhJSktMTU5PRldYWVpbXF1eX1RlZmdoaWprbG1ub2R1dnd4eXp7fH1+f3OEhYaHiImKi4yNjo
+DlJWWl5iZmpucnZ6fkqOkpaanqKmqq6ytrq+v/aAAwDAQACEQMRAD8A9U4q7FXYq7FXYq7FXYq7
FXYqhtT1Kx0vTbvU7+UQWNjDJc3c5BISKFC8jkKCfhVSdhiqJxV2KuxV2KuxV2KuxV2KuxV2KuxV
2KsW/Kx3f8uvLruxZmsYSWJqSePjirKcVdirzfyzp2tRXXlUz21yiwXmvtdGRJAESW4mMBkqNg6k
FK9R0xV6RirsVedfmP5ovob/AEXTItC1SZf0zaFbiBbb0rj0Fa6KRFp1ev7mvxKv2T2xVS0PzfqF
z+Y+tyny3q6RtZ6VYlGW0pAUlu5mkkpcmgZbpfs1NF6Yq9KxV4n5/i0vWNG/MyPX72WTW9L0+/fS
NGeeSGKGzSwLw3MNurIk3qPyLSsGofg2pTFXp2ieStJ0PUGu9KmvLeB42jk01rqaazLFgwlEMzSC
NxxpWMrWp5V2oqn2KvPrfyx5b81ec/Nb+ZbGDWJNLubax020vY1mit7V7C3ufUhjkDKryTzSgyqO
R4ha/DiqWadrmpxeU18r6HdSSalf6pqOkaBfuxleHT7S5dJrss1eS2UdYkLV5OIwftYq9J0jS7LS
dLtNLskKWdlCkECkliEjUKOTHdjtuTuTirEvzIt7CbUfLia/H63lGW5kg1SJ/wDeY3MyBbH62vRo
DJySjVT1GTl2xVBeWtN8s2v5jPD5KtIbLSbGxuIPMSaeixaebxpYTaxCOICE3MapMXKjkqkBvtCi
r0XFWN6Tb3qefPMU8kUi2ctnpi28rKwjZ0N16gRj8JK8l5U8RXFWSYq7FXYqxr8tLS6s/IGgWt3D
Jb3MNlEk0EqlJEYLurKwBB+eKslxV2KuxV2KuxV5r5x8weY285+V7WPyvdyrZajeXVs63NiouFis
Lm15JymBUcbrlR6H6dsVXeR9c8wXXnHzTLN5buoIp9St7ae4e4s3W3EGn254twmZm+KQmkYYb+NQ
FXpGKsG/OfRtE1T8sfNM1/ZW95NYaRqM1nLNGkjwTR2sjB42YEowKjcYqutbW68q+bdH0mz1C4vN
D1tbmJdOvZXupLSW2i9YSw3Epeb0So9NkdmAJTjx3BVZvirHvMnk3ynqkzarq0TwzwQlJ763urix
c26VcpNLbSQGSJak8XJXrtirzvStPubufRLrTuegWnmeU2Oki2VYpbLy9Y28lzFDCGBEU17IgkkI
HII1PtICFWY6XBf+XvPNroiald6hpGr6fdXkUN9K1zLbXFjLbxsUmespjlW7FQ7EKyjjTliqjqum
nzr5k1fQNTmkj8r6OsEN3pcLGJr+e4jE5NxIhEn1dI2VRGpAduXOqjjiqVfpf/lVWlS6NexmTy3F
DO3le/RSWWRVaRNMuAo+KVj8Nu/WX7J+MVdVn3lu31G38vaXb6nK0+pQ2kEd9MxqzzrEolYkdSzg
nFUxxV2KuxV2KoXStP8A0dpttY/WZ7z6tGI/rV2/qzycf2pHoOTHuaYqisVdirsVdirsVS+60S1u
dasNXkeQXOnR3EUEYI9Mi69PmWBBPIeiONCOpxV2k6JaaXJqEkDyO+pXb3twZCD+8dEjovELRQkS
gfrxVMMVYL57/K601zR/MK6Ncz6TrGtWVzBKYbiSKzuJpoDEpuoKSxEGoDusfqce9aYqnmh+S9L0
q/bVGnutS1d4zAdR1Cdp5ViJDNHEvwxRKzKCwjReRpXoMVT7FUs8yeX7PzBpMmk3skqWVw0Zuo4S
q+tEjh2gclW/dyheEgFCVJFcVWeYvLVlrlnBBLLNZ3FnMtzp9/aMqT206KyCSIusifYdkKurKykg
gg4qhdA8oDTdTm1i/wBTuta1maEWwvbwQp6VuG5mKGK3jhjRWajMeJZiBU7CirWteTo77VBrGn6l
eaJq/pLBNd2JhYTxRlmjjnhuI54ZAhduLcQ4qaMMVS+4/LHTtVP/ADtepXvmZFVhFa3xhitY2deP
Nbe0itkLqCeDycmU7qQcVZLo2nNpml2untd3F/8AVYxELu8ZXuJAuwMjosYZqbcqVPU1O+KozFXY
q7FXYq7FXYq7FXYq7FXYq7FXYq7FXYq7FXYq7FXYq7FXYq7FXYq7FXYq7FXYqkPkXzhY+cPK9p5h
sYZbe1u3nRIZ+PqA21xJbtXiWG7REjfpiqfYq7FWIaT+ZelanJpKRWs6HV9U1DR4OfD4ZdNS4eR2
ox+BhaNxpvuK4qy/FXYqkvmnzVZ+XYdNkuopJv0nqVppUCxcaiW9lEaseRHwr9pqb0xV0Pmqzm85
XflVIZDd2dhBqM1xQeiFuJZIkjrWvP8AclunTFU6xV5t+ZP5y6d5bttd03RrS81jzJpWnzXc6Wds
09tYt6LSQyX0paJEj25MA3Lj26YqmHkX807HzHJZ6Ze6bqWj63cWouUg1C0aCKdVVTJJbyqZYnSr
VHx1p2xVnOKsK1/8yLm08xXHl7y95evfMup6fDHcasLSS3gitUmBMSPLcSRqZXUcljXfjviqZaL5
+8uap5Qk81iV7TS7ZJ31AXS+nLatalluIp034vEyEECvtUUxVMPLOtNrmgWGsGzmsBfwrOlpc8RM
iPunMKWAJWhpXbFUr87+frHyr+jrb6ldarrOszNBpOkWKq087xrzkasjIiRxru7s2wxVAaB+ZU91
5kt/LXmLy/e+WtZvYZLjTY7l7e4guUgoZVintZJU5orBmVqbYqzbFUqs/MVrdeZdU0BInW50q2s7
qaU04Mt806oFoa1X6q1ajuMVTXFXYq7FXmv/ADjj/wCSd0X/AIz6l/3U7nFXpWKuxVhGi/ljBpcm
jOuoNL+h9X1LWVBjC+o2ppcoYj8R4iP659rvx6CuKs3xV2KvH/ze8r3955o8nxJ5k1WFNU8wQtHZ
xmyEFqLW0nm9W35WzSeoGjFPUZ13O3Siqh5O8n6lL+bnnB2826zI2jx6PbtKzWBe4VopLow3FLQL
wHqCgjCNRjU7iir2fFXhX5laB548paV+Y99pNhBrnlfzZZXdzfkTLb3unytYtBLKQ44TwhV5cVIc
dKeKrOPyt/Mjyx5g02z0O3eaz17T7G3N1pF/C9tciMRqvqorikkZ7MhI3HjirPcVeaTS+ZPJ3n7z
Nqi+Xr3XtG8zfVLq3m0sQvNBc2lqlq8E8cskJ4usSsrgkCtDirz71VhS70Xzg66Vo/6Ul82efIEb
6wkbX1wG0zRf3QYyySlUllVF+ILt9rFXtHlf8w/LPmS9uNPsJLiDU7WNZ5tOv7aeyufRc0WZYrlI
2aMnbktRX5jFWGfnlf2+mXnljW9KuBL560q6kfQNDRHml1CG4QR3lt6cQZ0Vo1B9UjihUVxVD/l5
qF75+19fzI1uWLT7Py8t5YaZ5ajLPcWUrEJdy6gzLGwnZI6CPjRVodzuVXqWia1put6RZ6xpc31j
Tr+JLi0n4unOOQVVuLhXFR2IriqDsfLiWnmvV/MInLvqtrY2jW/GgjFi1wwYNXfn9a6U2piqc4q7
FXYqwz8nbLRrH8vNNttG+uDTklvTD+ko1iuqtezNJzRdgPULcPFaHFWZ4q7FXYq7FXYq8e87fl89
5+anlDhq2uehdSave3Ekd7KEtStuqqsDdIAxuOAUdV26A4q3+WXkF083+b9Wm1TWh9V1xILcT3kt
LqO1s7ejXAP9+tWKgn9kU7Yq9gxV5J+b3n++sPK3nPQtW8t6lDbXGl30Ol63axG8splls2VTO8NW
tmDsQfUWlBy5UxVL/Kj3/nLzj5C1jT9CvLDSfKWnzi91rUbdrT6011ZC3jt7VXpJKgYmQuV47be6
r2vFUl85+Y/8OeWr7V0tZb64gQLaWMCs8k9xIQkMSqtT8UjAE9hv2xV5hrfkrUfLHlfyxrWoQNrO
oWPmGLzF50e2iMrySzRSxyXEcagu62byp6aqPsJWm2KprYa/pvnf82NB1fyys1xpPl/T79dU1gwS
QQyPfeiILRGlVGkZTE0jACi7b1JGKofVNVg8k/nFrPmXzPa3B0PW9Os7XSddigluYrI2xf6xay+i
sjxCZ2WSvHiaexoqw38xtU/xNf3Wp/k1DqF55j1K0msvMc1vaywadPZmB1DTyXIgQ3cdR6DIS37J
22xV7V+W91os/kbRU0ZZotPtLSG0iguo2huIvq6CIxzRtusi8fi8eoJG+KskxV2KuxV2KuxV2Kux
V2KuxV2KuxV2KuxVD6jp9lqOn3On30K3FleRPb3UD/ZkilUo6N7MpIxVUt7eG2t4reBBHBCixxRj
oqKKKB8gMVVMVdirsVdirsVdirsVdirsVdirsVdirsVdirsVdirsVdirsVdiqncXFvbW8tzcypBb
wI0k00jBEREHJmZmoAoAqScVdb3Fvc28VzbSpPbzoskM0bB0dHHJWVlqCpBqCMVVMVdirsVdirsV
dirsVdirsVdirsVeS/8AOM/mLXde8h6hea1fz6jdR6xdwJPcOZHESLHxQFv2RU0GKvWsVdirwGy8
3+aH0by9K2q3JkuPzIl0udzK1XsRJdAWzb7xfAvw9NsVe/Yq7FXhH57fnh5Z0i80zy5p3mCWx1ux
12w/xBHCl3GYtPoZLgtIkfGROLJVY2LGuw2xVBaT/wA5F+R7z86LmX/E0x8qTaVBY6ZAYbwQyajJ
chmYQ+jVW4njzdR86Yq+hMVfOH5leaPPfnTUvzM0HTdaTy/5b8laVM17YpBHLc6lztZXdWdzyjjP
plSU7EbEnZVln5I+XPzP03RPKV7N5og1byde6RbSy6TdWqxXNoJLRWgjtp46l1QlVPqH7I6VNcVe
x4q8bvrXzF5//NrzX5ebzNqfl7Q/KFvp6W9voswtZri41CA3Bmml4uzKlOPDp0/yuSqA8v8A5ueY
dJ/LDXP0lMNb82aTr135U0OQKofUryNlW2fiKA7SVbxCnvir1byNomraJ5V07TtZ1KbVtXjj5ahq
E7mRpJ3JeTiT0RWPFB/KBirz/wDPfzL5hs9Z8k+WtO1p/Lem+Zr2e31TXIVHqxCJYzFCkjCkbTNI
QG67eFcVSRG8xfl/+cflLyppnmvVfNOn+YI7k6tpeszre3FrHEnKO5WYKjIpPLt0Ujwoq94xVgGm
6vqkn5463pL3UraZBoNlcQ2ZY+ksz3MqtIF6BmVQCcVZ/irsVdirxj/nFGCeH8utSWaNo2Ot3pCu
CpoVi33xV7PirsVU/qtsAAIkor+oo4jZ/wCYf5XviqpirsVfOf5x/m15bn8/eTtONrqXHy5r0txq
I+pyfvGs1aMG32rN8VT8O1N8Vd+XP5teW7v88PON/wDVtTCeYJNG07SlNnIPTKQmKQ3Ip+6HqsCC
x+zvir6MxV5B+fH5ReTda8t+YvOBjmsPMenaTeTG/sZTC06wWzMIblaMsiMq8G25Fdq0xViX5V+b
vzB8mXv5d+XPMF7DrflXzppcLaHKIxFdWDx2scv1c8f7yNBKiVbcjeooVKr6MxVgfm38odM13zGf
MthrOqeW9cmtxZ3t5pE6wm4gX7Kyq6SAsv7LChH0CirwuN00Z7TW/JlqlxpOnasnlT8vpL9jLHd6
xqLML/WLhl4mT+7McbD4fADjTFXrGleYPzJ8qfmN5f8AK3m/V7XzHpvmqG6+pahFaJYSW11ZRes8
bIjOro6bKTuT4U3VSj83J7/8yPNz/k7pMVtbwW1vFqnmDW7qP1Xtk5KYls46r+9PMVavRiPHFWK+
WtQtvyS1PzLYecbcSa7f211eaB55l9SY6ksUfNbSV5GkMcqsi/ADRjT/ACSyr3D8rdY1/Wvy90HW
Nf4fpbUbRLq49NPTWkxLx0Xt+7ZcVZOIohIZQiiQjiXoORA7VxVdirsVdirHvI/l7zBoOkzWeua/
J5ju5LmSeO+mhEDJE4XjDxDy1CUO9e+KshxV2KuxV2KuxVifmDyIdZ8/eVPNjX3op5WW/Edh6XL1
21CAQFjLzHDgFrTia+2Ku8meQv8ADeu+atXa9F5L5mvxfFBD6XoKqcEi5c5PUp/Nt8sVZZiryH8z
PyV1XUrfzNqnlHzDqWnajrdpcfX9CWVJbG/la2MQj4TlVhaUKsZfl8I6UxVr8p/yNfQ30DzJ5r1O
81bzLpemw2tjY3Lp9W0wGARvBAsZdWMYrHz5UPXrvir1/FUk866Fqmv+V9R0XTNT/Q11qERg/SIi
9do43NJOCc4viZKqG5fDWuKsf8y/lFoWq/l9YeTdPnk0iLR2t59Fv4AGktrm1NY56HiHYkty3Fan
cHfFUD5c/LDzQfOdh5u87eZF17UdGt5bfRbe2tFs4ITcrwnmYBn5ySJ8PYfhRV3nX8pNS1LzhF52
8o+YZPLPmgW31O8m9BLu3uoAQVSWF2UbUG+/QbVFcVSbW/yM80edikH5jecpNU0m3YyW2k6ZZxWE
YmKFFleQmZ3K8jQH+JGKs/8AIHlzXvLflu30bWdb/T8ln+6tb9rf6tL6CgBEl/ezCRlG3Pao6iu5
VZHirsVdirsVdirsVdirsVdirsVdirsVdirsVdirsVdirsVdirsVdirsVdirsVdirsVY75N/MPyf
5zivJfLWofX49Pl+r3bejPDwkIrx/fJHXp1FRirIsVdirD3/ADc/L1NNn1JtWpZW2qnQJpfq9z8O
pChMHH0uR6j4wOH+VirMMVdiqR+bvO3ljyhYW9/5ivfqVpd3KWVvJ6Usxe4lVmRAsKSNuI23pTFW
/wDGnlr/ABd/hD65/wA7ELX6+bH05f8Aeblw5+rw9L7X7PKvtiqd4qw38x/zW8oeQ9KubjVb+3Gq
LbS3Gn6Q0vCe5dFYxxqFWRkWR14cytBiqD/Lf86vI3nmysls9StrfXbiFZLjQ2mrPFIV5PGnNYjL
w7si4qz7FWE+evzl/LzyPfQ6f5h1P0b+eMzJaQxS3EgiFf3jrEr8F+E/a8MVT7y75v8ALXmPQI/M
GjahFdaPKrOLsEoqhPt+oHCtGVp8QYCmKu8p+bvL/m3Rk1ry/cteaZK7xxXJimhDtGeLcRMkbMA2
3ICmKqHnPz55S8l6WNT8y6jHp9qzcIuQZ5JH68Y40DO58aDbvirHPJv5+flX5v1dNH0XWQ+pygmC
2nhmtzLQVIjMqqrNQfZrXFXoWKpOnm7y8/myTykt3XzBFZ/pJ7L05drUyCL1PU4+l9tgOPLl7Yqn
GKuxV2KvnX/nDb/jlecv+2qv/EGxV9FYq7FXhE35D+b38p6jo4vNP+s3fnVvNEbmSb0xZEKPTY+j
X1vh+zTj/lYq93xV2KvmX/nJaz/Mq680eV9KfU9OOiatr1qvlyz4OJorlQsSyXLBfiRXnP2a7HFU
t8t6X+dV5/zkJ5h9PV9I/wAT6Tpttb6nfNA/1VrWcQTKkKcOQk4kfER44q+rMVfHX5z6Vc+V/wAy
/O+u+bvLs2taT5i0y4tfLmshBNDaXM1sIrdjy+BGiYcd6Mv2kr3Venf84/W35Ma9ofla+0yLT288
6BZILoxJ9XvBKYTBM8qUjM4o5HMhgDShrir3fFXz1rfmGy/Lj/nIPzJ5n816fctovmHTrWLRtVgg
e4VHhiijkt/h+yZHiO3+rXY1xV5/5cutdPlK58hWkbeXG8/6vd6xcLcARDTPLYCCSaQNxEYlETIl
aBlX/KU4q+mfIPmL8t59Nt/L3k3V7C9g0m3SKOzs7iOV0hjAQOyqeRqerdyfHFXl/wDzlTotxajy
p5/Vba8tPKd6HvNJu3VFuEmliYBA+zEmHiygE0NaGhxVjUGqy/nZ+Z/lrzboel/oXyh5ImS51LXL
z045ZZImjuTA3FiOKekAN6KrMxpUDFX0zYajp+o2kd5p9zFeWctfSubd1ljbixVuLoSpowIPvirD
LfyHq8f53XPntprc6RNoA0hYAz/WfXF0k/Irw4cOKdeda9sVZ3irsVdirxP/AJxi0nynp2neZ18u
+YH1+OXUA9272Ulj6MnE/uwJHk5/6wpir2zFXYq7FXYq7FXyv+cHlP8AMm4/OXyjpjecPVk1TUL6
+8u1tYwNLRGEiDr++4ooX4v5ffFVP8pPJ35lah+b3nS7h85cLzRb+yttevjZof0kiM4aIA0EXFbf
iePiDir6sxV4T+cP566Fpll528j69pt9pl1cabd2uh37xM9te/WLMopVgAV/fOVrQrtUkdMVeP8A
5XQaZ5j/ADK/LiTyNpU9teaDZ25846nGhhgdo1pKWptVkqhY7yFqb9Sq+1sVSvzT5k0vyx5d1DX9
Vk9Ow02Fp5jtU8fsoterOxCqO5OKvlrzz5W8y3n5N63+ZWtwyfprzdf2d3qNvGSWttBV/wDR7dR2
WvpOfbjy3BxVPmu/y11D87Py1P5UxWwkt47l9bfS4vSRbIxKIxc0UDnx9QNz+LcA7lcVU/zfv9Jt
P+cjtGm/MqN5PIUdoDpAmR5LL1uHxNJGgYPSc/GKHbhy+HFWG/mpr/lHRfMN7e/k1rf1mTzTaXNp
5i8uWMEslv6ckL8riKihFKhmai7oakfCSMVfQX/ONl75al/KDQbLQ79b36hEU1BRUPDdzO1xNG6n
cUeU8T0I3GKvT8VdirsVdiqC0zRNF0pZV0uwtrBZ25zLbQxwh2/mbgFqfc4qjcVdirsVdirsVQs+
k6VPfwahPZQS39qCLW7eJGmiDAhhHIRyWtd6HFXWmlaXZT3M9nZwW094/qXcsMaRvM+/xSMoBdtz
ucVRWKpf5g0LTdf0S+0bUo/VsdQgltp1GzcJkMbFTvxajGh7Yqt8t+XdL8uaFZaJpcZjsbCJIIFY
8m4oAoLN+01BucVTLFUNqOmabqVq1pqNpDe2jkF7e4jWWMlTUEo4ZTQ4qrvDE8TQuitEylGjIBUq
RQqQdqUxVL9H8seWtFaVtG0mz0xp95zZ28UBc9fj9NV5fTiqI1HStL1O2NrqVnBfWxIJguY0lSo6
Hi4YYqhdF8q+V9C5foTR7HS+Y4v9StobeorWh9JV774qq6Z5e0DSXmk0vTbWwe4p9Ye1gjhMnGpH
MxqvKnI9cVR+KuxV2KuxV2KuxV2KuxV2KuxV2KuxV2KuxV2KuxV2KuxV2KuxV2KuxV2KuxV2KuxV
4l/zjf8Amx5v8/X3m6HzDJBImjy2iWXoRCKgma5D8qE8v7lcVe24q7FXzNq35+fmFa+SPPOsRTWw
vdA8xLpWnkwKVFsZHWjrX4moo3xV9JWEzz2NtNJ9uWJHamwqygnFVfFXiH/OQv56P5Os7PT/ACpq
1j/iT68kOpWsvGZ4IDEzVkjr8HxMhqcVQR/5yL05vztGip5h01PIMdl6kl+SnBrn0q8BcFqfaYfd
TFXvmKvnj82Pz585yecNU/L38vtGivb2ytpf0rf3BPwKsXOZogJIlQRK1Obtu2wXpVVjv/OM/n/8
2Y7bR9Jm0JtX8o6nezR/4gZ5XmgcAtJ6snKUBV4fCrotenLfFX1Tirwvzt+YX5r67+bt7+XP5dzW
OlyaLZJe6jqN+nqczIkbhRVJQF/0iNQAla1NaYqv8hf85CzS/lZ5h8x+cYIodY8rTvY3UcB4pdTk
AQKg+LizueDUqBTlsNgqz38oNQ886r5HstY86NENW1Ot1FawxeiILaQAwxstSSxX4zXcVp1GKsN/
5yD/ADj8yeSrjQvLvlW2hk1/zC5WK7uhWKJeaxIFBKqXZ36seKgbg12VYXqn5tfnl+WPm/QrD8xZ
tM1rSNbahaxULIiBlSQoVSA84zIpoyEN0B7hV9NYq8vufzB8xx/85CWvkZXi/QMujm/dPTHq+sC4
r6nWnwjbFXqGKuxV2KvmD/nC3/jqfmF/xnsP+J3uKvp/FXYqxWb8rPy9msNQ0+XQrZ7LVbkX2oQE
NxmuQSfVff7VWOKsojjSONY4xxRAFVR0AAoBiq7FXxp/zkZq35N6j+ZGjfo9ka/j1aWDz5c+neKU
S2lhgZWDJR6KkorBX7PeoxVLfJsf5Aal+emsW93FE3ke9hitfLVrwvwr3shto1oAPWWrerUy0Xf5
Yq+3cVfM/wDzkX+T1xo82s/mx5W1qXTL5I1/S1kKgSCbhbOY3U7c1Yc0cENuajpirGfyI/NHzX+X
N55b8j+Z9HRPL/mgwXmj36keqqamV9KXkrNG8ZZl5KeLJvXwxV9fYq8f8/fkl5mvvPz+fPInmb/D
mv3lsLPU/UhE0cyKqoGFeQHwRoKFTuoYEHFXz1qWm6T5Zvr7TZZZPMflnyTeLqPmac0jj1TXpyIY
bSv7zjFFxYNy5GgmP7SjFXtXlr8+vzDtPNXlfSvP3la30nTfOIRdEvLSRiweUqIxIheXvLGGU8Sv
IH2xVJf+csNV8u+Yb3R/IOm6XNq/n95Fl057dgn1VJ6ckdmBD+qqVK7BQA5YU3VeaaLqC6B+YWqX
n51ve33mzy3YGfyzaX0nOyuZrWNngjaRQ9RIygxsPhZq8qtsVX1Z+UHn698++R7XzPd6cNLN3LMk
NushlVkhkMfMMVTqysOnbFU+byp5cbzInmZrCI69HB9VTUaH1RDueFa0p8RxVNsVdirsVefflVpP
5q6fca23nu406eGZ4TpA0+OOMqqmX1fV4RQ12aOla98Veg4q7FXYq7FXYq8U/MP8hovMX5qeWfMF
jpOlRaBaStc+Y4jFEkl5K8pkYyxiJhPyp8XqHepxVZ+Wv5BQaF+Y3mzzBrej6TLpV5dCbyxbRxxy
/VEWd3VkjaJVgYLwpw6dMVe3Yq+bP+cgvye8/GLzT5p8ueYbq603WBA+reVxHI5l9P0oU9JY+auV
EakVQMAPtHFVP8p/+cdvNN9qXlXzn581s3Uek2dlLo2iBZA8EcKLJbQTeosfp+iackVTVq1Piq+l
8VSTzsnmqTyrqUPlQwr5gmhMVhLcsUijdyFMpIV941JZRTcgV2xV5ev/ADjpbf8AKjJfIS3SRa7d
smoXeqHkyPqIYOSx+0Y6D0gaVp8VK4qkuh/lB+cPmHzb5PvvzCu9Ng0nyKyPpy6eWaa5kiaNkZ6i
g5G3j5H4dhstSTiqYfm5+R3nTU/zCs/zH/L/AFW3svMVsiLNb3dQpaNDEHjbjKp5RHgyOtKd96Yq
xfzL+R356/mheWZ8/ajo+l2mnq6wSWkIlnJYD+QKSrEbgygDqFxV6l+Rnlr8yPKflpfLHm1NPmst
OHHSb2xkYuYyxJiljMcfStQ/U999yq9LxV2KuxV2KuxV2KuxV2KuxV2KuxV2KuxV2KuxV2KuxV2K
uxV2KuxV2KuxV2KuxV2KpPo3nLyhrd1LZ6Lrmn6ndwKXnt7O6huJEUEKWdI2ZlHI03xVOMVdiqRH
z75GWG+mPmLTBDpciw6nKb23420kjFESdudImZ0ZQGpUgjFU4tLu1vLWG8s5o7m0uY1mt7iFg8ck
bgMjo6kqyspqCOuKquKpdrfmTy7oNvHc65qlnpVvK/pxTX08VsjPQnirSsgJoCaYqpnzZ5WGrw6K
dZsRrNwokt9N+sw/WZEKlwyQ8vUYFAWqB03xVNcVQeraxpmkWMl9qVzFa20SlmkmdIwaAmgLlRXb
xxVin5W/m95X/MnTru+0KO5thZTehLb3qwpMfhVuapFLN8HxUqT1xVm+KpP5h84+U/LcccnmDWLP
SlmqIfrc8cJenXgHILU70xVH6dqem6nZRX2m3cN9ZTjlDdW0iyxOK0qroWVvoOKobRvMvlzXBOdE
1Wz1QWzBLk2VxFcCNzWiv6TNxO3Q4qiNT1bS9Ks3vtUvILCyi/vLq6kSGJf9Z3KqPvxVJ9C/MXyF
r939S0XzFp2o3m5Ftb3MUkpA3JCBuRA8QMVZFiqXv5h0CPWY9DfU7Rdalj9WLS2njF00YBPNYC3q
FaKd6dsVTDFXYq7FXx//AM4d/wDk0/NP/MBL/wBRkeKvsDFXYq+Sbn8nPzLfy1+bVouhym48w6tY
3OjR+pDW4ihvrmWR1+Og4pIp+KnXFX0r+XWm32l/l95Y0y/iMF9Y6TY213ASCUlhtkSRCVJHwspG
xxVkOKvjb/nLrzH59vfMVv5d1TS4rby5DdNJ5evUR1lu2EMay8mMjI3BpqbIuKsZtvNf5wT/AJ7R
63B5cgk896ZB6Q0MRzGGONbP0N4zPz/uZeX971P0Yq+67V5ntonmXhMyKZUHQMR8Q798VfD358ag
dV/Py+07z1fXdl5csnEVr6C8zDbG3DxNCh5D97JQuwBO52NOOKph/wA4uflZpnmbUrbzSuuGz1Xy
7qkcsmlIVLT20apIp+FlkVWkqpJBVgCMVfauKvkP80/8ID/nKC9P5oer/hH6hEdP5+sY+H1NePH0
P3nD6z6v2f2+u2KsQ/Ln8xde8ufldr3lzQTPLqXmvVI9P8tQA/GnqJwupU8HKvDGN/tGo+ycVfWf
5O+RNI8ieSbPy5aSxT38Y9fV5o2DGS7kA9VjTfitOC1H2QO+KvFf+c19M8xyx+XNRVJpfLFsZUvB
EfgjuZGXi0goQC6VVGNabjvuq8h842PkPV/OPlu0/JKy1Aai8cTyqzSl1vOSshUysxVoqEyOD6Y6
g0BOKvv23EwgjE5DTBVErL0LU+Ijp3xV49qnknzTN/zk7pHm6OwdvLtvpL202ock4LKY5wE48ufW
Rf2cVeyYq7FXYq+af+cZvJelaH+YPmC8s/NOl65LPaSI9nYNMZYgblG5P6kca0BHHY9cVfS2KuxV
2KuxV2Kvib/nIA/m5f8A5taTpGsNDJI2pS/4IgU24/cXN4I7Yycehb04wTLvtviqG/Ln/ldWofnr
rF7p7QTebrSRovMshNrwWBJ44LhU5fu6jgF+DfbFX3Fir5P/AOcpPzO8i6suv+TLjSCPNOiy2q6Z
rJjR+SN6cs8Yk2kjoJGHHdWpWvTFXjXkwQw/mR5L/wACz3j6nI1h9d5DiVvWb/S44+NOUHD7XLty
rVd8VforirH/ADnoHkbUNLlvvN2m2N7YaZHJcPPfwxyiGNF5yMGcEqKLvTrir5B1mz1TzD5V83/m
7ZWn6H0iwMWj+TbK2jWFLa0e4WKaSJY+KpRJWUlducj03XFUq0+Dy35V1P8AK3WvIetyXXmfVWT/
ABFaxzCQxzPNCvoPEgDKJDJIhRvtBQe9Sqzj/nKLzfq99+amneSdb1CfR/Iw+pyXbwgkSxzPWa5Z
QP3npbqq7gFa0rirzzz2dH/LjXr1Py082RatoXmLT5rO7hjkEs0UUq8XjmdFVK1PKNlow3BFPtKv
pL/nERrE/lOPS1Fb6/mvp7jUYeZeS3duMUcbhviHKOFWHY12xV7ZirsVdirsVYr5U/K3yD5S1K51
Py7pEen314hiuZ0eVy6M4cikjuPtKDsMVZVirsVdirsVdirHta/L7ydrfmHTvMeqaZHda1pPA6de
M0gaIxuZEoqsENHNdxirtC/L3yboOu6lr+kaZHa6xrDO+pXitIzStLIZXJDsyjk55fCBirIcVYJ+
bP5Q+XvzF0J7G7WGz1Osf1fWhbxzXMSI4dkRiUbi4FCOWKon8uvyp8oeRtKtLfTLC2OqQwLBdayI
ES5uCAAzM/xMORFSvKmKsyxVLvMXl3RvMej3Gjazb/W9MugouLYu6BwrBwCY2RqclHfFVOy8q+XL
Hy4nlq20+FNBSE2w04ryhMLV5IytXlyqeVevfFWM+WPyL/KjyxrS63onl6K21OMsYrhpbif0y1am
NJpJEQ79VAxVOfOH5d+SfOVvHB5m0iDUlhqIZJAyyxg9Qk0ZSRQe4DYqx7Q/+ce/ya0S6+tWPle2
aahWt0894oBFDRLqSZR160xVNvKn5T/l95S1KXUvLekLpl5MhjmeGWfi6E14tG0jIRXcfDt2xVlu
KuxV2KuxV2KuxV2KuxV2KuxV2KuxV2KuxV2KuxV2KuxV2KuxV2KuxV2KuxV2KuxV4F+UP/OSWt+e
vzEbyrd6NbWduI7mT6zFJIz1g6Cjbb4q99xV2KvnaT/nKDXkt/zAl/QlqT5OkjS2HqSfvw+orZfv
PD4X5bd8Vev/AJW+cbnzn5B0jzNc26Wk+pRu728RLIpSV49i2/7FcVZViryL8+fz1b8trbTRplva
6pf3k0kdzaySkNCsaKwLBCWBPMUriqRRf85KXb/mnpHk36np/wCj72G0e+1T6yeMTz2i3MoBNE+A
txFTX6cVe9AhgCDUHcEdCMVeL/m9/wA5PeWvy/1l9AtdOk1vW4AjXcKyi3gh9RQyq0pWUl+LBuIT
6cVeV/kx/wA5ReY5fOkmnebmu9XttduYbXSYYFgrayzTFFWnGIup9RVJ5V26HFX15irw382v+cid
Y8ted18jeT/L51/zAkaSXKn1Hozxev6UcMI5uRDRy3LYYqmf5Yf85F6B5t8j655k1e3/AEPL5aRZ
NWhD+ohSRWMTRMQpJlaNlVOvLbeoxVNvyP8AzJ80fmHoN35g1XSIdJ0tpjDpQjd5JJglfVdiwUcV
NFBHUhulMVQX55fn3pv5YxWdpHYnVNc1BGlgtS/pRRxKePqSvRm3bZVA3odxiry+w/5zE806Zqlt
H5z8nmx067pLHJD60Ewt2PwyxpcDjMPkVBxV9P2F7a39jb31pIJbW7iSe3lHRo5FDIwr4qcVeZ+Y
Pzh1LS/zx0T8uY9PhkstVt1nkv2dxKhZJmoFHw/7pH34q9TxV2KuxV8Qf84sf+T5f/jBf4q+38Vd
iryR/wDnGXyG0XmqI3+qcfN7q+pH1besZS7W9Hof6P8AD+8Wnxcvh998VZ/5J8oab5O8rWHlrTJZ
prHTkZIJLlkaUh5GkPMosandz0UYqnmKvhH/AJyhsvKJ/Mu5v9E1pdQ1C/nlj1u1pRbKe29O3EZN
PFGr8sVYxpfk38vrz805fLkvmUw+Ug8iQeYCq1k4xVSi9Pjl+HFX6I2sAt7aKAHkIkVAx6kKKVxV
8Z/85Lfl75o8l/mEfzKsZYpNM1DUIZbSZwkjwXyx+oI5IZAVdT6DMpoRTY+6rGPyN/Mfy35b8+TX
XnHRkvV1i6t7iLUCi+pYXHqNIlzGjDlxPrVPFgePTl0xV974q+dfzX/Jv80Y/wA3E/Mz8upbefUZ
kUSwTtGjQyLa/UyQJv3bo8I8ag9sVfPWreXtW8qTXvkbVL9Y3uJLfUPOL2pEwgitgzQwepVVkkHr
livLi0jRrXkMVe9+Qf8AnK3yJZHR/LX+G7rQfLahbLT9QeRZUREPBXkUIvf+8ZWYg+OKpb/zmrZ+
TZE0e8k1H0vN8KGOHTUXn6tkzkl5CP7rg/LgT9rcUNKqq8L1Hzhq/n3UbFPPmum3stAsTFB+5rO6
QgVhiVQqtcTUHxSso23PQFV9sfkf+YXlvzn5NVvLmn3WnaVobR6TBDd8C3G3gj4gFGcGiMoxVF6r
+UXlvU/zL038w57m8XWtLiEFvbxvELVlVZFq6GJpCf3x6SDtirN8VdirsVeBflDpX5m2/wCYjTa/
+X+h+X9J9O5A1fT7G0t7nkfsL6sUjvR/2tt8Ve+4q7FXYq7FXYq+UPzh/wCccdV1L827K78t6Nc3
GgaxOl55jv8A6xFRJ7u9ka64CQqyhIiGFAeuKoT8vf8AnF+8m/NPWE8yaNd2Xku1e6k0Sczx85PT
ulForGN3aphJY1HbFX11ir40/wCcs/JHnvTdbvvNN5qKz+UtavrZLexjlkAiuYrRo4vUt2+DkIop
KOpPU9K4qhfy/wD+cd/zO893/l/XPNsiW3lhLSy+qzyyxSyyaZFEpt4YIYS/ENHQfvOJFSSCdiq+
1cVSfzjqWuab5Y1G80HT21XWo4T+j7BSq+pO3wpyLsg4KTybfoDTfFXz35Z/5xx8zXn5SebH134P
zD81OLhjcOrFBb3K3KxO6ErW4kQs5rTdf5cVefwfk5+eHm208qeSNX8vDSNH8tPdxrqsnBQsV5OJ
Z3dldllKlaJ6Y3792xVnH/OSX5E+f9c88jzp5Vtl1WKSGAXFmGjE0UtuOIKxykLIjKqmgqa12pir
B/NX5X/n9+aHmKK/1fylbaXfpCIp78KlmkqoPgM3KRy7CnEFVrTboBRV7B/zjRYfmZ5P05/KHmfy
jJY6Y0slxbaxE8DUlfd1uVWVmYHiAjqNtgRTcKvfMVdirsVdirsVdirsVdirsVdirsVdirsVU57e
3nQJPEkqA1CuoYV6VocVXoiIioihUUAKoFAANgABireKuxV2KuxV2KuxV2KuxV2KuxV2Kv8A/9k=
									</xapGImg:image>
							</rdf:li>
						</rdf:Alt>
					</xap:Thumbnails>
				</rdf:Description>
				<rdf:Description  rdf:about="" xmlns:dc="http://purl.org/dc/elements/1.1/">
					<dc:format>image/svg+xml</dc:format>
				</rdf:Description>
			</rdf:RDF>
		</x:xmpmeta>
<?xpacket begin='﻿' id='W5M0MpCehiHzreSzNTczkc9d'?><x:xmpmeta xmlns:x='adobe:ns:meta/' x:xmptk='XMP toolkit 3.0-29, framework 1.6'>
<rdf:RDF xmlns:rdf='http://www.w3.org/1999/02/22-rdf-syntax-ns#' xmlns:iX='http://ns.adobe.com/iX/1.0/'>

 <rdf:Description rdf:about='uuid:6d92e9d6-0f9b-11de-8173-001124740a56'
  xmlns:pdf='http://ns.adobe.com/pdf/1.3/'>
 </rdf:Description>

 <rdf:Description rdf:about='uuid:6d92e9d6-0f9b-11de-8173-001124740a56'
  xmlns:tiff='http://ns.adobe.com/tiff/1.0/'>
 </rdf:Description>

 <rdf:Description rdf:about='uuid:6d92e9d6-0f9b-11de-8173-001124740a56'
  xmlns:xap='http://ns.adobe.com/xap/1.0/'
  xmlns:xapGImg='http://ns.adobe.com/xap/1.0/g/img/'>
  <xap:CreateDate>2005-10-18T08:31:30Z</xap:CreateDate>
  <xap:ModifyDate>2009-03-13T06:52:44Z</xap:ModifyDate>
  <xap:CreatorTool>Illustrator</xap:CreatorTool>
  <xap:MetadataDate>2009-03-12T15:39:09+09:00</xap:MetadataDate>
  <xap:Thumbnails>
   <rdf:Alt>
    <rdf:li rdf:parseType='Resource'>
     <xapGImg:format>JPEG</xapGImg:format>
     <xapGImg:width>52</xapGImg:width>
     <xapGImg:height>256</xapGImg:height>
     <xapGImg:image>/9j/4AAQSkZJRgABAgEASABIAAD/7QAsUGhvdG9zaG9wIDMuMAA4QklNA+0AAAAAABAASAAAAAEA&#xA;AQBIAAAAAQAB/+4ADkFkb2JlAGTAAAAAAf/bAIQABgQEBAUEBgUFBgkGBQYJCwgGBggLDAoKCwoK&#xA;DBAMDAwMDAwQDA4PEA8ODBMTFBQTExwbGxscHx8fHx8fHx8fHwEHBwcNDA0YEBAYGhURFRofHx8f&#xA;Hx8fHx8fHx8fHx8fHx8fHx8fHx8fHx8fHx8fHx8fHx8fHx8fHx8fHx8fHx8f/8AAEQgBAAA0AwER&#xA;AAIRAQMRAf/EAaIAAAAHAQEBAQEAAAAAAAAAAAQFAwIGAQAHCAkKCwEAAgIDAQEBAQEAAAAAAAAA&#xA;AQACAwQFBgcICQoLEAACAQMDAgQCBgcDBAIGAnMBAgMRBAAFIRIxQVEGE2EicYEUMpGhBxWxQiPB&#xA;UtHhMxZi8CRygvElQzRTkqKyY3PCNUQnk6OzNhdUZHTD0uIIJoMJChgZhJRFRqS0VtNVKBry4/PE&#xA;1OT0ZXWFlaW1xdXl9WZ2hpamtsbW5vY3R1dnd4eXp7fH1+f3OEhYaHiImKi4yNjo+Ck5SVlpeYmZ&#xA;qbnJ2en5KjpKWmp6ipqqusra6voRAAICAQIDBQUEBQYECAMDbQEAAhEDBCESMUEFURNhIgZxgZEy&#xA;obHwFMHR4SNCFVJicvEzJDRDghaSUyWiY7LCB3PSNeJEgxdUkwgJChgZJjZFGidkdFU38qOzwygp&#xA;0+PzhJSktMTU5PRldYWVpbXF1eX1RlZmdoaWprbG1ub2R1dnd4eXp7fH1+f3OEhYaHiImKi4yNjo&#xA;+DlJWWl5iZmpucnZ6fkqOkpaanqKmqq6ytrq+v/aAAwDAQACEQMRAD8A9KaVpWlnS7MmzgJMEdT6&#xA;afyD2xVFfonSv+WKD/kUn9MVd+idK/5YoP8AkUn9MVS3y1pWlny5pRNnASbO3JJjT/fS+2Kpl+id&#xA;K/5YoP8AkUn9MVd+idK/5YoP+RSf0xVBenH/AIR9PiPT/R/HhQcePo0pTwxVK/NChvICRmvGRbGN&#xA;wCRVXnhVht4qaYqxLUfIPlV7fzvfLbmzvdJmY6dewyyxNbiPSra4XjxYDgJZGYqdjU1xVl/k+a6h&#xA;1HUdJa4murO2t7K6ga4keeWGS7EpltmmkLSPw9JXHqMWo9K0piqE1aNZfy60aF94p5dChmWpHKOW&#xA;9tUdDTsysQfbFWMaz5R8vp5a82X8EL21/pF7NLpctvPNA4khgieGANE6sVlkPDh35bb0xVm/k24m&#xA;9bWtN+uyajZ6Xe/VrS7mb1JAphjkeB5esrQu5Xk3xdmJYElVH/8ATK/9GP8AzJxVKvM3/KCQ/wDb&#xA;v/6iIcVSdvJcfmPXfNaXur6hDpv6UhWXSrWSGK3l/wBxdlX1SIjM4YGhQycT/LirNNG0PTNHtWtt&#xA;PiMaSSGaeR3eWWWVgA0kssheSRyFA5OxNAB2xVjepf8AKA6B/wAxPl//ALqFpirC/MPkfSdV1+81&#xA;PVJ71tOfXDZ3EUd3cJDbXEsUC2V7FAH9HmtxxiYMhVg9WB44q9G8jXMTaAlj9WgsrrSZHsL6ztUE&#xA;UMc8J3aOMfYSZGWZB/K4xVF/9Mr/ANGP/MnFVr6Tbat5Yg0+5Z0imggJeI8XVk4urKSDuGUHpiqt&#xA;omhQaSl16c891Nez/Wbm4uWV5HkEUcI+yqCgjhUbDFUyxVj1lpFvq/kvS7K4eSJDb2MySwsFkSS3&#xA;9OeJlJDCqyRqdxiqrD5Q0tdF1DSLh5ry31RpHvZZ3BldpVCFg6BOJAUcSo2Ir1xVU0Py1b6Rd312&#xA;t5dXlxqHpG4e6dG3hUopARIxXiQCe4A8MVXf9Mr/ANGP/MnFVDSp/Mf6Ls6WNmR6EdCbyUfsD/l2&#xA;xVFfWPMv/LBZ/wDSZL/2S4q76x5l/wCWCz/6TJf+yXFUt8tT+Y/8OaVxsbMr9Tt+JN3KCR6S9R9W&#xA;OKpl9Y8y/wDLBZ/9Jkv/AGS4q76x5l/5YLP/AKTJf+yXFVGs/wDg+vBfX/R9fT5Hhz9Dpz41pXvx&#xA;+jFVK+1630Dyeur3EMtxFa20LGC3CGVywVFVPUaNKksPtMBirHLn83jaxalPdeUNdht9GnW21Wf/&#xA;AHFyLbu0EVzWQRX8jcFhuEdnAKqDuRQ0VZboHmTTNcgmkszIkttJ6N3aXETwXEMnEMFkikCsKqwZ&#xA;T0YbqSMVS+DWo9F8jaZfvbTXhFvYQRWlt6XqyS3Jit4kQzPDGKySruzge+KpJc/m2bOGa5vfKOu2&#xA;9pa3K2d1c002ZIpm40Di3vpnC/vF+PjxFeuKst0HzBpWu2TXenSs6RyNBPFJG8M0MyU5xTQyhJI3&#xA;Wo+FlBoQehGKqf8A0yv/AEY/8ycVY/58/wDJXz/8YLP/AJOxYqxXW/OGn6XP+ZmjrbXd/rN/fBbK&#xA;xtbO6ug5m0HT4lLvBFKqry+1+1ToCaAqst8hafqJ1DUdaurSawt7i00/TbGC6AW5li08TE3U6Atw&#xA;aVrkqFY8uKDkAdsVdqX/ACgOgf8AMT5f/wC6haYqwPz156t7Ow86eUo9K1K9vtUluRJPa2/KKGzl&#xA;gghuLkSMyBjbrJyPH7J48ioNQq9I8l2l5K+p+YroRRHzBJDc21tBIsypbx26RQs0qfu5JJFXkzJ8&#xA;NKKC3HkVUx/6ZX/ox/5k4qkfna3uZ/yznitoJbmY29qywQRvNKwWSNjxjjDOxoK0AxVV8iPJcan5&#xA;wv8A6vc29tfazHNZm7t57V5I00jT4GdY7hIn4+rC6149QcVZbirDNTEv/KvNGkjhln9CTRLiSO3i&#xA;knk9OC8tZZGWOJXduKIWIUE0GKpRc2l7caXqHmbTbG6Oo6TrMmqadbyW00FxcW4gjiuoUhmWKQ+v&#xA;B6ioCN3CnsMVTb8t7oxHWNEitbyLS9OuvW0ee7s7mzU2l5WX0E+sxxFvq8vqRgKNo+GKp9/0yv8A&#xA;0Y/8ycVRek/8cqy/4wRf8QGKovFXYqlnlj/lGtJ/5g7f/k0uKpnirsVSn/plf+jH/mTiqhpXl+wO&#xA;l2ZMt5vBGdr68H7A8JcVRX+HrD/ft5/0nXn/AFVxV3+HrD/ft5/0nXn/AFVxVLfLWgWLeXNKYy3l&#xA;TZ25NL28A3iXsJaYqmX+HrD/AH7ef9J15/1VxV3+HrD/AH7ef9J15/1VxVR9FP8AB3o1bh+juFeb&#xA;c6ehT7dedfetcVY/+YOoahp/5XSXOn3MlndhNPjS5hPGRBLcwRvxO9CUcjFWH6poPmqO28+alpnn&#xA;TWra68rzNHpsEs1vNbPHHpNpfsJlmherNJO45V2FNjShVZr5A1/XLq+v9G1i5W/ktbTT9TstREaw&#xA;SyWupCYIlxHGfTE0clq4JQKpUqeI3xVQ8w3F7D+WmjCzupbKW5n8v2bXNu3CVYrvULO3m4NQ0LRS&#xA;stffFWCahb+b7Xy3501+x846xBceVtSuY4IZHtriOS0tI4ZnjKTwyVlZWYK3jTYioKr03yXq2ty3&#xA;WsaFrc8V7qGhzxR/pGBBCtxDcQrNE0kILCOValXANDswpyoFUz/6ZX/ox/5k4qxX8zv/ACU0n/br&#xA;/wCoy3xVJb/yl5r80ar5/wBJ0/zBBo+i3erww6jD9Ra4uZkbRNOEqC4+sxLHHJGQpAi5dfi32VZ3&#xA;5U8o2/l+O6la7m1LU9QdJL/UbngHkMacI0SOJUjiijXZI0UAb9SSSqkPmT/yXHl3/toeV/8Aur2O&#xA;KvLdc8v+aNW17WbGPzHNpXlnVfNF1ZtDHBBJHHqaRW89m1zzX1JYJmj9Ix8gOfDrXFXr/wCVh05v&#xA;K5eC2a11L61PHr8csr3Ex1KF/SuGkmk+OSpQGNj/ALr4UAWgxVOv+mV/6Mf+ZOKoDW/LSeZfI66K&#xA;1y1oLmG1ZblFDsjQPHMp4tsfijGKojyr5butF/Ss15qDale6veC+ubhokgAZbWC0VVRKigjtV+nF&#xA;U9xVikvl9tf8g6Vp6XTWMqx6XeQXSoshSWxmgu4/gbZgXgAI8MVQsH5aRnyvrmi32py3Vzrl4+oy&#xA;aksaRPDdn0zFLEi1UGGSBHX3GKo7yn5Qv9E1XWdSu9XbUpdaeCaeP0I7dFmgj9H1FVCfieNUVv8A&#xA;VGKpj/0yv/Rj/wAycVUNK1W/Gl2YGjXhAgj3D2e/wDxuMVRX6Wv/APqy3n/B2f8A2UYq79LX/wD1&#xA;Zbz/AIOz/wCyjFUt8tarfDy5pQGj3jAWduAwezof3S7itwDiqZfpa/8A+rLef8HZ/wDZRirv0tf/&#xA;APVlvP8Ag7P/ALKMVUfUf/B/qek3P9H8vRqvOvoV415ca9vtU98VdLrml6H5Wh1TVJ/q9hbwQetN&#xA;xd6c+KL8KBmNWYDYYqxu7/PT8rrK4+r3usPayhxEwnsr6ILIyq4RmeBQrcXVqE9CD0OKsu0TXtE1&#xA;3T01HRr6DUbGQkLcW0iyJyHVSVJow7g7jFUstNc0zQ/JOm6lqcxgs47WyjZ1R5W5z+nDEqpGruxe&#xA;SRVAA6nFUmn/ADw/K62bjda19V/e/Vy1xa3kKiYCpjZpIVVWoehOKsx0zVNN1Sxhv9Muob2xuF5Q&#xA;XVu6yxOvSquhIOKoP/plf+jH/mTirFfzO/8AJTSf9uv/AKjLfFWLedvNPlHS9E/NvT9av7WO6vro&#xA;x2mnSyxieaSbQNPjh9ONiGP7z9rotK1FK4qnX5StDf8AmHzBrumDno15aaXbPqCKVgv9StUmF5dQ&#xA;khea0eOMyAUcr1NMVTLzJ/5Ljy7/ANtDyv8A91exxV5b548++StM8r/mH5b1LUoIvMGo69cDTLVq&#xA;mSKVktvRumoD6awuvqczT7O2+2KvU/yysZBqfmjWrXT5NK0DWbyGbSbGaI27uY4Fjnu/q7BWh+sS&#xA;CoDKGPHkR8WKsm/6ZX/ox/5k4qxL81JYofyhnmmdY4o1015JHIVVVby3JZidgAMVU/I9h5H8zeY/&#xA;OXmGC20zWydZijs9YRLe7+BNG09WWK4Af4VfkCFbY1xV6MAFAAFANgB0AxV575vu7Wz/ACu0S8vJ&#xA;o7a0trzyzNcXEzBI4401WxZ3d2IVVVRUk9MVYE0ejXNhr/5gWH1fVbLR/Mt4dQeEpcQ3eh3UFvHf&#xA;xkrzSVESk47VTFWbfk15l0aZNZ8oadq9vrEHlu4A0u7t7iO6D6ZdAyWqmRGerW/xQH2RT3GKs0/6&#xA;ZX/ox/5k4qidNiil0e0jlRZI2gi5IwBB+AdQcVRMFvbwIUgiSJCalUUKK+NBiqpiqU+XYYpvK+lR&#xA;yoskbWdvyRwGBpEp3BxVMY7W2iiMUcSJE1eUaqAprsagbYq1BZ2duSYII4i2zFEVSR70GKpf/wBM&#xA;r/0Y/wDMnFVDStKvzpdmRrN4AYI9glnt8A8bfFUV+ib/AP6vV5/wFn/2T4q79E3/AP1erz/gLP8A&#xA;7J8VS3y1pV8fLmlEaxeKDZ25ChLOg/dLsK25OKpl+ib/AP6vV5/wFn/2T4q79E3/AP1erz/gLP8A&#xA;7J8VUfTf/B/p+q3P9H8fWovOvoU5U48a9/s09sVSDz/5k1fy5+WX6W0dok1GP9GwQPcRmWNfrd3b&#xA;2zMyBoy1EmJHxDfFWCal5w/O61svON9Zanot8vku4KXUEmnTQm4gjtI7yV043b0YJIQErvT7Qrir&#xA;PPy889avrl5f6Nr9nBa6zp8FrerNZu72t1Z3ys0E8QkAkjNY2V433BHU1xVS8wa5rWkfl7oEmjSw&#xA;wahezaNpsdxcRGeOMX08NszmJXiL8RJWnMYqwfWfO3516VoPmHzBBqOi6jaeWNRlstQtpNOuIWe3&#xA;hWJpLhPTupD8Im5FPBep6Yq9K8j+bdT1ibVdJ1zT003zFoUscWoQwSGa2kSdPUguLeQqjFJFr8LD&#xA;kpBBxVNP+mV/6Mf+ZOKsK/OH/wAk8f8AjPof/dTtMVYVqNj+Y+t6t+aPlnypp9j9T1fUkt7/AFe9&#xA;u2iMSTadbRzRRwpDKxZojs9dq/ZNMVemfl95I1TQ7i/1jXbqC613Uora1aOzR0tLW0slZYLeD1C0&#xA;jAeozM7ULE9BTFUr84/8oD5P/wC2v5Z/7qFriryfzlN+ZGoat5g8naOumRaB5m8xXsIuLz1w813b&#xA;W8FwbCSRDxjW5jjotN2oy8lxV6/+TMVpd6Bd+ZZLqe98w65cE+YZLlFhkhu7P/RmsxAhIiS34FVW&#xA;pJ+1U1xVlf8A0yv/AEY/8ycVSDzz5W1TzT+Wv6F0uWCDUJhp09vJdc/RDWlzBc0f0wzUIhptirf5&#xA;ceVvM+jT+YtQ8yS2Umo69frfFNO9X0UVbaK3C/vgGr+5rirNMVYLr3l3Wde/LzQ7bRZbaLU7R9I1&#xA;G2N56noFrGWG5Cv6YL0b06bYqlA/LLzRfeSdcstUvLKDzTf6ude0y9svW+r215F6LW5HqD1KcoKP&#xA;1+EnFUx/Ljyp560TX/Md/r8umfUtdmivVs9MNxwivFQRTSBZ1/3eqqzfF9oe+Ksq/wCmV/6Mf+ZO&#xA;KqGleYLAaXZgxXm0EY2sbw/sDwixVFf4hsP99Xn/AEg3n/VLFXf4hsP99Xn/AEg3n/VLFUt8ta/Y&#xA;r5c0pTFeVFnbg0srwjaJe4ipiqZf4hsP99Xn/SDef9UsVd/iGw/31ef9IN5/1SxVR9ZP8HetRuH6&#xA;O504Nzp6FfsU519qVxVWg1HT9O8v215qFzFZ2cUEPq3Nw6xRryCqvJ3IUVYgD3xVBx/mD5CklWGP&#xA;zJpTyv8AZjW9tyx+QD1xVPUdHRXRgyMAVYGoIPQg4qkmlarpel+UdKutTvILG1FpbKZ7mRIYwzRL&#xA;QcnKipxVu388+SbmUQ2/mDTZpW+zHHeQOx+QDk4qnYIIqNwehxVKv+mV/wCjH/mTirCPzljjl/Jp&#xA;45FDxvNoiujAFWU6naAgg9QcVed+Z/JX5fny1+clzfaTYQPpd0x0i4WCKN4Jxplu9vHCyrVQ9wwH&#xA;AbNX3xVl35Jw2unebvMei6G1PL1vY6ZcXVmjs9vaavOkhu4YQeSpUKrSRhvhO1B0CqM/MW3t7nyF&#xA;5FtrmJJ7efW/Lkc0Mih0dHuIgyspqCCDQg4q8v8AOvlf8vl8kfmS0+n6fBrlt5oeDy2Fjhjn9Uw2&#xA;Pp28IoC0bFm5R/ZoWPvir1P8k2tItW84af5duWu/INjeW0Xl2T1GnhSYwlr+G2lfkWhSXjxoxWpN&#xA;MVZ9/wBMr/0Y/wDMnFWFfnEQv5OsSaAT6IST0A/SdpirGtE/Kz8vPPPnnz5qPmHT/wBKSWuswpau&#xA;Lq5jjCiwtm+xBLHG3xE7kHFXr2geXNB8u6ZHpeh2EGnafFUpb26BF5Hqxp9pjTdjucVee/mA6J5H&#xA;8gu7BUXXfLZZiaAAXEVSTiryfzP5H8pXuu+Y/PmrWSahplj5vm0vzCCzFf0Xd2lpGs6lWBVrWebm&#xA;GTehNagYq9k/JbVZbey1byNeXC3N95OuRaW9wvGs+mzr6thO3ABeRjqj0/aXffFWZf8ATK/9GP8A&#xA;zJxVa+iaRrfliDS9Ys4r/TriCD17S4QSRvw4uvJTsaOoI98VXeXfKflry1ay2ugaZbaXbTP6ssNr&#xA;GsSs9AvIhQN6ADFU2xVjlt5e0LzB5L0rTtbsINRsWtbV2trlBJGWWJeJ4ttUYqraf5F8m6dod1oN&#xA;jotnbaLfF2vNOjhRYJWkVUYulOJJVFH0Yqt8u+QfJXlq4lufL+iWel3E6enNLawpEzpXlxYqBUVG&#xA;Kon/AKZX/ox/5k4qoaVB5j/RdnS+swPQjoDZyn9gf8vOKor6v5l/5b7P/pDl/wCyrFXfV/Mv/LfZ&#xA;/wDSHL/2VYqlvlqDzH/hzSuN9ZhfqdvxBtJSQPSXqfrIxVMvq/mX/lvs/wDpDl/7KsVd9X8y/wDL&#xA;fZ/9Icv/AGVYqo0n/wAH05r6/wCj6epxPDn6HXhyrSvbl9OKpP5z823flL8uf09Z2aX91bpYQw2k&#xA;khhR3uriG2FZAr8aetXpirzi/wDz7/M/TB5gnu/INvcWnlaRItce21QVh9SNZVYAwlnUK4JKqaYq&#xA;9E/Lz8zbPze97YzadcaLr2mLDJfaVdFHPpXC84ZoZoyUmicdGX7ulVUL5i836n5W/L/y9d6XYR6l&#xA;qF/JpmmWtrNKYEMl7wiQtIFegDEdsVYHc/8AOQf5iadpmr6vf+Q4JtK0LUm0fVp7bVFBguUMYLEP&#xA;DvH+/UculepGKvUfIn5gab5ugvUjtbnTNX0qVbfV9GvkEdzbSOvJOQBYMki7o4NGGKpn/wBMr/0Y&#xA;/wDMnFWFfnD/AOSeP/GfQ/8Aup2mKvMPNWu+Yl1j83fK3l/y1qWt6h5guYLUXdrCHtLeOXT44pDL&#xA;ITs/BiVWm/iMVemflT5T81Ra3qHmvzNZppVzcWFnpGmaSsqTyxWdkGPqXEkf7sySu3Liv2Rtiql5&#xA;9/5QnyB/23vLX/UTFirxXzV5t8yt/j38utG8vzag/mfzVqUhvkkROcdsltJc21urD45/TjB+TbKT&#xA;ir2z8joLjV7fWPzDvLi3e983vb1sbTn6VnBpyvBFbM0gR2lQs3qEqN+m2Ks7/wCmV/6Mf+ZOKsY/&#xA;MjQda138rG03RLYXmpt+jJ4LZpEhDi1vLe4ceo9FX4Im64qoflZonmu11zzjrfmHS10iTX763ubW&#xA;zFxFdFUitlhNXi26p4Yq9ExV5t5y0TzBqv5feVW0KyGo3+mXujap9TaVIPUjsnSZ1EknwqSFpirE&#xA;E/LLz3e+T/MOoPp0el+cv8WP5r8uWpuIpgrcIB6TzIQvGRUkRgadq7Yqyb8pNG88aT5o81NqmgjR&#xA;PLmtXC6pY2wu4Lr0b2QBLpQYiDxmIEg+EAUIxVnn/TK/9GP/ADJxVvStV0saXZg3kAIgjqPUT+Qe&#xA;+Kor9LaV/wAtsH/I1P64q79LaV/y2wf8jU/riqW+WtV0seXNKBvIARZ24IMif76X3xVMv0tpX/Lb&#xA;B/yNT+uKu/S2lf8ALbB/yNT+uKoL1I/8I+pyHp/o/lzqOPH0a1r4Yq//2Q==</xapGImg:image>
    </rdf:li>
   </rdf:Alt>
  </xap:Thumbnails>
 </rdf:Description>

 <rdf:Description rdf:about='uuid:6d92e9d6-0f9b-11de-8173-001124740a56'
  xmlns:xapMM='http://ns.adobe.com/xap/1.0/mm/'>
  <xapMM:DocumentID>uuid:831aaf18-81ce-11da-9137-001124808cba</xapMM:DocumentID>
 </rdf:Description>

 <rdf:Description rdf:about='uuid:6d92e9d6-0f9b-11de-8173-001124740a56'
  xmlns:dc='http://purl.org/dc/elements/1.1/'>
  <dc:format>image/svg+xml</dc:format>
 </rdf:Description>

</rdf:RDF>
</x:xmpmeta>
                                                                                                                                                                                                                                                                                                                                                                                                                                                                                                                                                                                                                                                                                                                                                                                                                                                                                                                                                                                                                                                                                                                                                                                                                                                                                                                                                                                                                                                                                                                                                                                                                                                                                                                                                                                                                                                                                                                                                                                                                                                                                                                                <?xpacket end='w'?>
			</metadata>
		<g id="レイヤー1">
			<g>
				<rect x="0.125" y="0.125" fill="none" stroke="#000000" stroke-width="0.25" width="100" height="150"/> 
				<rect x="0.125" y="150.125" fill="none" stroke="#000000" stroke-width="0.25" width="100" height="150"/> 
				<rect x="0.125" y="300.125" fill="none" stroke="#000000" stroke-width="0.25" width="100" height="150"/> 
				<rect x="0.125" y="450.125" fill="none" stroke="#000000" stroke-width="0.25" width="100" height="150"/> 
				<rect x="0.125" y="600.125" fill="none" stroke="#000000" stroke-width="0.25" width="100" height="150"/> 
				<rect x="0.125" y="750.125" fill="none" stroke="#000000" stroke-width="0.25" width="100" height="150"/> 
				<rect x="0.125" y="900.125" fill="none" stroke="#000000" stroke-width="0.25" width="100" height="150"/> 
				<rect x="100.125" y="0.125" fill="none" stroke="#000000" stroke-width="0.25" width="100" height="150"/> 
				<rect x="100.125" y="150.125" fill="none" stroke="#000000" stroke-width="0.25" width="100" height="150"/> 
				<rect x="100.125" y="300.125" fill="none" stroke="#000000" stroke-width="0.25" width="100" height="150"/> 
				<rect x="100.125" y="450.125" fill="none" stroke="#000000" stroke-width="0.25" width="100" height="150"/> 
				<rect x="100.125" y="600.125" fill="none" stroke="#000000" stroke-width="0.25" width="100" height="150"/> 
				<rect x="100.125" y="750.125" fill="none" stroke="#000000" stroke-width="0.25" width="100" height="150"/> 
				<rect x="100.125" y="900.125" fill="none" stroke="#000000" stroke-width="0.25" width="100" height="150"/> 
			</g>
			<g>
				<g>
					<path d="M43.625,108.125v-72h-2v70h-12v-69h16.0673828c27.3320312,0,32.9326172,6.9960938,32.9326172,17.5
						c0,9.0791016-3.6064453,19.5-31.7275391,19.5H43.625v2h3.2724609c23.0107422,0,33.7275391-6.8320312,33.7275391-21.5
						c0-13.8505859-10.1210938-19.5-34.9326172-19.5H27.625v73H43.625z"/>
					<path d="M46.3847656,75.625C64.5273438,75.625,66.625,63.6542969,66.625,54.6494141
						C66.625,45.2421875,64.1386719,35.625,45.6923828,35.625v1.5c15.7128906,0,18.9326172,6.9960938,18.9326172,17.5
						c0,9.0791016-2.0732422,19.5-18.2402344,19.5V75.625z"/>
				</g>
				<g>
					<path d="M44.125,258.1245117v-71.6665039h-2.6669922v69.0004883H29.7915039v-67.6669922h16.222168
						c27.3911133,0,32.4443359,7.0649414,32.4443359,17.0830078c0,8.4853516-3.0053711,19.0834961-31.4394531,19.0834961H44.125
						V226.625h2.8935547c23.269043,0,34.105957-6.9033203,34.105957-21.7504883c0-14.0195312-10.1728516-19.75-35.1108398-19.75
						H27.1245117v73H44.125z"/>
					<path d="M46.5913086,225.9580078c17.3300781,0,20.199707-11.1772461,20.199707-21.0517578
						c0-8.6459961-2.0712891-19.1147461-20.7773438-19.1147461v2c15.2480469,0,18.1113281,7.0649414,18.1113281,17.0830078
						c0,8.4853516-1.7280273,19.0834961-17.5336914,19.0834961V225.9580078z"/>
				</g>
				<g>
					<path d="M44.625,408.125v-71.3334961h-3.3334961v68H29.9584961v-66.3330078h16.3779297
						c27.4492188,0,31.9550781,7.1342773,31.9550781,16.6665039c0,7.8916016-2.4038086,18.6665039-31.1508789,18.6665039H44.625
						V377.125h2.515625c23.5268555,0,34.484375-6.9746094,34.484375-22c0-14.1884766-10.2246094-20-35.2885742-20H26.625v73H44.625z
						"/>
					<path d="M46.7983398,376.2915039c16.5180664,0,20.1601562-10.3837891,20.1601562-21.1279297
						c0-7.8842773-1.6577148-19.2050781-20.6220703-19.2050781v2.5c14.7817383,0,17.2885742,7.1342773,17.2885742,16.6665039
						c0,7.8916016-1.3823242,18.6665039-16.8266602,18.6665039V376.2915039z"/>
				</g>
				<g>
					<path d="M45.125,558.125v-71h-4v67h-11v-65h16.5332031c27.5078125,0,31.4667969,7.203125,31.4667969,16.25
						c0,7.2978516-1.8027344,18.25-30.8632812,18.25H45.125v4h2.1367188c23.7851562,0,34.8632812-7.0458984,34.8632812-22.25
						c0-14.3574219-10.2763672-20.25-35.4667969-20.25H26.125v73H45.125z"/>
					<path d="M47.0048828,526.625c15.7060547,0,20.1201172-9.5908203,20.1201172-21.2041016
						c0-7.1230469-1.2431641-19.2958984-20.4667969-19.2958984v3c14.3164062,0,16.4667969,7.203125,16.4667969,16.25
						c0,7.2978516-1.0371094,18.25-16.1201172,18.25V526.625z"/>
				</g>
				<g>
					<path d="M45.625,708.125v-70.6669922h-4.6669922v66H30.2915039v-63.6669922h16.6884766
						c27.5664062,0,30.9780273,7.2724609,30.9780273,15.8339844c0,6.7041016-1.2021484,17.8330078-30.5756836,17.8330078H45.625
						V678.125h1.7573242c24.0439453,0,35.2421875-7.1171875,35.2421875-22.5c0-14.5263672-10.328125-20.5-35.6445312-20.5
						H25.6245117v73H45.625z"/>
					<path d="M47.2109375,676.9580078c14.8945312,0,20.0805664-8.796875,20.0805664-21.2792969
						c0-6.3632812-0.8286133-19.3876953-20.3115234-19.3876953v3.5c13.8510742,0,15.6450195,7.2724609,15.6450195,15.8339844
						c0,6.7041016-0.6914062,17.8330078-15.4140625,17.8330078V676.9580078z"/>
				</g>
				<g>
					<path d="M46.125,858.125v-70.3330078h-5.3334961v65H30.4584961v-62.3339844h16.8442383
						c27.625,0,30.4892578,7.3417969,30.4892578,15.4169922c0,6.1113281-0.6010742,17.4169922-30.2880859,17.4169922H46.125V828.625
						h1.3789062c24.3022461,0,35.6210938-7.1875,35.6210938-22.75c0-14.6953125-10.3798828-20.75-35.8222656-20.75H25.125v73H46.125
						z"/>
					<path d="M47.418457,827.2919922c14.0830078,0,20.0400391-8.0039062,20.0400391-21.3564453
						c0-5.6015625-0.4145508-19.4775391-20.1557617-19.4775391v4C60.6875,790.4580078,62.125,797.7998047,62.125,805.875
						c0,6.1113281-0.3457031,17.4169922-14.706543,17.4169922V827.2919922z"/>
				</g>
				<g>
					<path d="M47.625,979.125c24.5605469,0,36-7.2587891,36-23c0-14.8642578-10.4316406-21-36-21h-23v73h22v-70h-6v64h-10v-61h17
						c27.6835938,0,30,7.4101562,30,15c0,5.5175781,0,17-30,17h-1v6H47.625z"/>
					<path d="M47.625,977.625c13.2714844,0,20-7.2099609,20-21.4316406c0-4.8408203,0-19.5683594-20-19.5683594v4.5
						c12.9189453,0,14,7.4101562,14,15c0,5.5175781,0,17-14,17V977.625z"/>
				</g>
			</g>
			<g>
				<path d="M144.4746094,37.125c10.8056641,0,16.6503906,5.6494141,16.6503906,16.5c0,11.7158203-6.1503906,16.9824219-20,17v2
					c4.2382812,0,7.0478516,2.1738281,12.5693359,14.8388672L162.703125,108.125H180.125l-9.5351562-21.1474609
					c-4.8554688-10.765625-8.0820312-13.8818359-13.6132812-15.2587891v-0.2001953
					C167.7324219,69.78125,177.125,65.2753906,177.125,53.625c0-11.3730469-10.1230469-18.5-32.6503906-18.5H125.125v73h16v-72h-2
					v70h-12v-69H144.4746094c13.9824219,0,30.6503906,2.8632812,30.6503906,16.5c0,10.8759766-9.5263672,17.2353516-31,17.25v1.5
					c15.8623047,0,18.3291016,1.4238281,24.6416016,15.4248047L177.0292969,106.125h-13.015625l-8.4863281-19.4609375
					c-4.6123047-10.5800781-7.8554688-14.2119141-10.9179688-14.8876953
					C157.2226562,70.9960938,163.125,65.1757812,163.125,53.6191406c0-11.6074219-6.6230469-17.9941406-18.6503906-17.9941406
					V37.125z"/>
				<path d="M141.4580078,258.1245117v-71.6665039h-2.6665039v69.0004883h-11.6669922v-67.6669922h17.125
					c14.0092773,0,30.7084961,2.7998047,30.7084961,16.1342773c0,10.7368164-9.2988281,17.0600586-30.5,17.0742188v1.9580078
					c15.7866211,0,18.2607422,1.4160156,24.4077148,15.105957l7.8154297,17.3945312H164.03125l-8.1831055-18.8969727
					c-4.3369141-10.0053711-7.3154297-13.4526367-10.2578125-14.3740234
					c11.9692383-1.0273438,17.7011719-6.9741211,17.7011719-18.2670898c0-11.6352539-6.828125-18.1289062-19.0419922-18.1289062v2
					c10.6772461,0,16.375,5.5390625,16.375,16.1342773c0,11.4882812-5.9731445,16.6821289-19.1665039,16.6987305v2.6669922
					c4.1333008,0.2260742,6.7646484,2.3842773,11.9389648,14.3198242l8.8740234,20.5131836h18.5205078l-9.4907227-21.1469727
					c-4.5751953-10.1796875-7.7397461-13.359375-12.9462891-14.8530273v-0.2001953
					c10.5961914-1.996582,19.2705078-6.8022461,19.2705078-17.9985352c0-11.5439453-10.3173828-18.8012695-33.3754883-18.8012695
					h-19.7915039v73H141.4580078z"/>
				<path d="M141.7919922,408.125v-71.3334961h-3.3334961v68H127.125v-66.3330078h16.8999023
					c14.0356445,0,30.7666016,2.7363281,30.7666016,15.769043c0,10.5976562-9.0703125,16.8842773-29.9995117,16.8974609v2.4169922
					c15.7109375,0,18.1918945,1.4082031,24.1733398,14.7866211l7.3686523,16.4628906h-12.284668l-7.8798828-18.3320312
					c-4.0610352-9.4306641-6.7749023-12.6928711-9.597168-13.8603516
					c11.324707-1.2744141,16.8862305-7.347168,16.8862305-18.3769531c0-11.6635742-7.0327148-18.2636719-19.4335938-18.2636719v2.5
					c10.5488281,0,16.1000977,5.4291992,16.1000977,15.769043c0,11.2607422-5.7963867,16.3818359-18.3330078,16.3974609v3.3334961
					c4.0283203,0.4521484,6.480957,2.5947266,11.3081055,13.8007812L161.8398438,408.125h19.6186523l-9.4462891-21.1474609
					c-4.2954102-9.5932617-7.3969727-12.8369141-12.2792969-14.4467773v-0.199707
					C170.1694336,370.074707,178.125,364.9692383,178.125,354.2275391c0-11.7158203-10.5112305-19.1025391-34.1000977-19.1025391
					h-20.2333984v73H141.7919922z"/>
				<path d="M143.7998047,489.125c10.4208984,0,15.8251953,5.3193359,15.8251953,15.4033203
					c0,11.0332031-5.6191406,16.0820312-17.5,16.0966797v4c3.9238281,0.6787109,6.1982422,2.8056641,10.6777344,13.2822266
					L161.4082031,558.125H182.125l-9.4013672-21.1474609c-4.015625-9.0068359-7.0546875-12.3144531-11.6123047-14.0410156
					v-0.1992188c10.2763672-2.515625,17.5136719-7.9208984,17.5136719-18.2089844
					c0-11.8867188-10.7050781-19.4033203-34.8251953-19.4033203H123.125v73h19v-71h-4v67h-11v-65H143.7998047
					c14.0625,0,30.8251953,2.6728516,30.8251953,15.4033203c0,10.4589844-8.8427734,16.7089844-29.5,16.7216797v2.875
					c15.6357422,0,18.1240234,1.4003906,23.9394531,14.4677734l6.921875,15.5322266h-11.9189453l-7.5771484-17.7675781
					c-3.7851562-8.8564453-6.234375-11.9335938-8.9365234-13.3466797
					C158.234375,521.4892578,163.625,515.2900391,163.625,504.5234375c0-11.6914062-7.2373047-18.3984375-19.8251953-18.3984375
					V489.125z"/>
				<path d="M142.4580078,708.125v-70.6669922h-4.6665039v66h-10.6669922v-63.6669922h16.4501953
					c14.0893555,0,30.8833008,2.6103516,30.8833008,15.0380859c0,10.3203125-8.6147461,16.5332031-29,16.5458984v3.3330078
					c15.5600586,0,18.0556641,1.3925781,23.7050781,14.1484375l6.4755859,14.6015625h-11.5537109l-7.2744141-17.203125
					c-3.5097656-8.2822266-5.6933594-11.1738281-8.2758789-12.8330078
					c10.0361328-1.7685547,15.2568359-8.09375,15.2568359-18.5976562c0-11.71875-7.4418945-18.5332031-20.2167969-18.5332031v3.5
					c10.2929688,0,15.5498047,5.2099609,15.5498047,15.0380859c0,10.8056641-5.4418945,15.7822266-16.6665039,15.7958984v4.6669922
					c3.8188477,0.9042969,5.9150391,3.015625,10.046875,12.7626953L160.9765625,708.125h21.8144531l-9.3564453-21.1474609
					c-3.7353516-8.4208984-6.7124023-11.7919922-10.9453125-13.6347656v-0.2001953
					c10.1162109-2.7734375,16.6357422-8.4794922,16.6357422-18.3134766c0-12.0576172-10.8994141-19.7041016-35.550293-19.7041016
					h-21.1166992v73H142.4580078z"/>
				<path d="M142.7915039,858.125v-70.3330078h-5.3330078v65H127.125v-62.3339844h16.2250977
					c14.1157227,0,30.9414062,2.5458984,30.9414062,14.6728516c0,10.1806641-8.3867188,16.3574219-28.5,16.3691406v3.7919922
					c15.484375,0,17.9882812,1.3837891,23.4716797,13.8291016l6.0283203,13.6708984h-11.1879883l-6.9711914-16.6386719
					c-3.234375-7.7080078-5.1533203-10.4150391-7.6157227-12.3193359
					c9.3911133-2.015625,14.4418945-8.4667969,14.4418945-18.7080078c0-11.7460938-7.6464844-18.6679688-20.6083984-18.6679688v4
					c10.1650391,0,15.2749023,5.0996094,15.2749023,14.6728516c0,10.5771484-5.2651367,15.4814453-15.8334961,15.4941406v5.3330078
					c3.7143555,1.1318359,5.6313477,3.2275391,9.4165039,12.2441406L160.5454102,858.125h22.9130859l-9.3125-21.1474609
					c-3.4555664-7.8339844-6.3696289-11.2685547-10.277832-13.2285156v-0.2001953
					c9.956543-3.0332031,15.7568359-9.0380859,15.7568359-18.4179688c0-12.2304688-11.0927734-20.0058594-36.2749023-20.0058594
					h-21.5581055v73H142.7915039z"/>
				<path d="M143.125,941.125c10.0371094,0,15,4.9892578,15,14.3066406c0,10.3496094-5.0878906,15.1816406-15,15.1933594v6
					c3.609375,1.3583984,5.3476562,3.4384766,8.7851562,11.7246094l8.2041016,19.7753906H184.125l-9.2675781-21.1474609
					c-3.1757812-7.2480469-6.0273438-10.7460938-9.6113281-12.8222656v-0.2001953
					c9.796875-3.2919922,14.8789062-9.5976562,14.8789062-18.5234375c0-12.4013672-11.2871094-20.3066406-37-20.3066406h-22v73h22
					v-70h-6v64h-10v-61H143.125c14.1425781,0,31,2.4824219,31,14.3066406c0,10.0419922-8.1591797,16.1816406-28,16.1933594v4.25
					c15.4082031,0,17.9199219,1.3759766,23.2373047,13.5107422l5.5820312,12.7392578h-10.8232422l-6.6679688-16.0742188
					c-2.9589844-7.1328125-4.6123047-9.6552734-6.9550781-11.8056641
					c8.7460938-2.2626953,13.6269531-8.8398438,13.6269531-18.8173828c0-11.7744141-7.8505859-18.8027344-21-18.8027344V941.125z"/>
			</g>
		</g>
	</svg>
