<?xml version="1.0" encoding="utf-8"?>
<!-- Generator: Adobe Illustrator 11 Build 225, SVG Export Plug-In . SVG Version: 6.0.0 Build 78)  -->
<!DOCTYPE svg PUBLIC "-//W3C//DTD SVG 1.0//EN"    "http://www.w3.org/TR/2001/REC-SVG-20010904/DTD/svg10.dtd" [
	<!ENTITY ns_flows "http://ns.adobe.com/Flows/1.0/">
	<!ENTITY ns_svg "http://www.w3.org/2000/svg">
	<!ENTITY ns_xlink "http://www.w3.org/1999/xlink">
]>
<svg  xmlns="&ns_svg;" xmlns:xlink="&ns_xlink;" xmlns:a="http://ns.adobe.com/AdobeSVGViewerExtensions/3.0/"
	 width="200.25" height="1050.25" viewBox="0 0 200.25 1050.25" overflow="visible" enable-background="new 0 0 200.25 1050.25"
	 xml:space="preserve">
	<metadata>
		<x:xmpmeta  x:xmptk="XMP toolkit 3.0-29, framework 1.6" xmlns:x="adobe:ns:meta/">
			<rdf:RDF  xmlns:rdf="http://www.w3.org/1999/02/22-rdf-syntax-ns#" xmlns:iX="http://ns.adobe.com/iX/1.0/">
				<rdf:Description  rdf:about="" xmlns:pdf="http://ns.adobe.com/pdf/1.3/"></rdf:Description>
				<rdf:Description  rdf:about="" xmlns:tiff="http://ns.adobe.com/tiff/1.0/"></rdf:Description>
				<rdf:Description  rdf:about="" xmlns:xap="http://ns.adobe.com/xap/1.0/" xmlns:xapGImg="http://ns.adobe.com/xap/1.0/g/img/">
					<xap:CreateDate>2005-10-18T08:31:30Z</xap:CreateDate>
					<xap:ModifyDate>2005-10-18T08:31:30Z</xap:ModifyDate>
					<xap:CreatorTool>Illustrator</xap:CreatorTool>
					<xap:Thumbnails>
						<rdf:Alt>
							<rdf:li  rdf:parseType="Resource">
								<xapGImg:format>JPEG</xapGImg:format>
								<xapGImg:width>172</xapGImg:width>
								<xapGImg:height>256</xapGImg:height>
								<xapGImg:image>/9j/4AAQSkZJRgABAgEASABIAAD/7QAsUGhvdG9zaG9wIDMuMAA4QklNA+0AAAAAABAASAAAAAEA
AQBIAAAAAQAB/+4ADkFkb2JlAGTAAAAAAf/bAIQABgQEBAUEBgUFBgkGBQYJCwgGBggLDAoKCwoK
DBAMDAwMDAwQDA4PEA8ODBMTFBQTExwbGxscHx8fHx8fHx8fHwEHBwcNDA0YEBAYGhURFRofHx8f
Hx8fHx8fHx8fHx8fHx8fHx8fHx8fHx8fHx8fHx8fHx8fHx8fHx8fHx8fHx8f/8AAEQgBAACsAwER
AAIRAQMRAf/EAaIAAAAHAQEBAQEAAAAAAAAAAAQFAwIGAQAHCAkKCwEAAgIDAQEBAQEAAAAAAAAA
AQACAwQFBgcICQoLEAACAQMDAgQCBgcDBAIGAnMBAgMRBAAFIRIxQVEGE2EicYEUMpGhBxWxQiPB
UtHhMxZi8CRygvElQzRTkqKyY3PCNUQnk6OzNhdUZHTD0uIIJoMJChgZhJRFRqS0VtNVKBry4/PE
1OT0ZXWFlaW1xdXl9WZ2hpamtsbW5vY3R1dnd4eXp7fH1+f3OEhYaHiImKi4yNjo+Ck5SVlpeYmZ
qbnJ2en5KjpKWmp6ipqqusra6voRAAICAQIDBQUEBQYECAMDbQEAAhEDBCESMUEFURNhIgZxgZEy
obHwFMHR4SNCFVJicvEzJDRDghaSUyWiY7LCB3PSNeJEgxdUkwgJChgZJjZFGidkdFU38qOzwygp
0+PzhJSktMTU5PRldYWVpbXF1eX1RlZmdoaWprbG1ub2R1dnd4eXp7fH1+f3OEhYaHiImKi4yNjo
+DlJWWl5iZmpucnZ6fkqOkpaanqKmqq6ytrq+v/aAAwDAQACEQMRAD8A9U4q7FXYq7FXYq7FXYq7
FXYqhtT1Kx0vTbvU7+UQWNjDJc3c5BISKFC8jkKCfhVSdhiqJxV2KuxV2KuxV2KuxV2KuxV2KuxV
2KsW/Kx3f8uvLruxZmsYSWJqSePjirKcVdirzfyzp2tRXXlUz21yiwXmvtdGRJAESW4mMBkqNg6k
FK9R0xV6RirsVedfmP5ovob/AEXTItC1SZf0zaFbiBbb0rj0Fa6KRFp1ev7mvxKv2T2xVS0PzfqF
z+Y+tyny3q6RtZ6VYlGW0pAUlu5mkkpcmgZbpfs1NF6Yq9KxV4n5/i0vWNG/MyPX72WTW9L0+/fS
NGeeSGKGzSwLw3MNurIk3qPyLSsGofg2pTFXp2ieStJ0PUGu9KmvLeB42jk01rqaazLFgwlEMzSC
NxxpWMrWp5V2oqn2KvPrfyx5b81ec/Nb+ZbGDWJNLubax020vY1mit7V7C3ufUhjkDKryTzSgyqO
R4ha/DiqWadrmpxeU18r6HdSSalf6pqOkaBfuxleHT7S5dJrss1eS2UdYkLV5OIwftYq9J0jS7LS
dLtNLskKWdlCkECkliEjUKOTHdjtuTuTirEvzIt7CbUfLia/H63lGW5kg1SJ/wDeY3MyBbH62vRo
DJySjVT1GTl2xVBeWtN8s2v5jPD5KtIbLSbGxuIPMSaeixaebxpYTaxCOICE3MapMXKjkqkBvtCi
r0XFWN6Tb3qefPMU8kUi2ctnpi28rKwjZ0N16gRj8JK8l5U8RXFWSYq7FXYqxr8tLS6s/IGgWt3D
Jb3MNlEk0EqlJEYLurKwBB+eKslxV2KuxV2KuxV5r5x8weY285+V7WPyvdyrZajeXVs63NiouFis
Lm15JymBUcbrlR6H6dsVXeR9c8wXXnHzTLN5buoIp9St7ae4e4s3W3EGn254twmZm+KQmkYYb+NQ
FXpGKsG/OfRtE1T8sfNM1/ZW95NYaRqM1nLNGkjwTR2sjB42YEowKjcYqutbW68q+bdH0mz1C4vN
D1tbmJdOvZXupLSW2i9YSw3Epeb0So9NkdmAJTjx3BVZvirHvMnk3ynqkzarq0TwzwQlJ763urix
c26VcpNLbSQGSJak8XJXrtirzvStPubufRLrTuegWnmeU2Oki2VYpbLy9Y28lzFDCGBEU17IgkkI
HII1PtICFWY6XBf+XvPNroiald6hpGr6fdXkUN9K1zLbXFjLbxsUmespjlW7FQ7EKyjjTliqjqum
nzr5k1fQNTmkj8r6OsEN3pcLGJr+e4jE5NxIhEn1dI2VRGpAduXOqjjiqVfpf/lVWlS6NexmTy3F
DO3le/RSWWRVaRNMuAo+KVj8Nu/WX7J+MVdVn3lu31G38vaXb6nK0+pQ2kEd9MxqzzrEolYkdSzg
nFUxxV2KuxV2KoXStP8A0dpttY/WZ7z6tGI/rV2/qzycf2pHoOTHuaYqisVdirsVdirsVS+60S1u
dasNXkeQXOnR3EUEYI9Mi69PmWBBPIeiONCOpxV2k6JaaXJqEkDyO+pXb3twZCD+8dEjovELRQkS
gfrxVMMVYL57/K601zR/MK6Ncz6TrGtWVzBKYbiSKzuJpoDEpuoKSxEGoDusfqce9aYqnmh+S9L0
q/bVGnutS1d4zAdR1Cdp5ViJDNHEvwxRKzKCwjReRpXoMVT7FUs8yeX7PzBpMmk3skqWVw0Zuo4S
q+tEjh2gclW/dyheEgFCVJFcVWeYvLVlrlnBBLLNZ3FnMtzp9/aMqT206KyCSIusifYdkKurKykg
gg4qhdA8oDTdTm1i/wBTuta1maEWwvbwQp6VuG5mKGK3jhjRWajMeJZiBU7CirWteTo77VBrGn6l
eaJq/pLBNd2JhYTxRlmjjnhuI54ZAhduLcQ4qaMMVS+4/LHTtVP/ADtepXvmZFVhFa3xhitY2deP
Nbe0itkLqCeDycmU7qQcVZLo2nNpml2untd3F/8AVYxELu8ZXuJAuwMjosYZqbcqVPU1O+KozFXY
q7FXYq7FXYq7FXYq7FXYq7FXYq7FXYq7FXYq7FXYq7FXYq7FXYq7FXYq7FXYqkPkXzhY+cPK9p5h
sYZbe1u3nRIZ+PqA21xJbtXiWG7REjfpiqfYq7FWIaT+ZelanJpKRWs6HV9U1DR4OfD4ZdNS4eR2
ox+BhaNxpvuK4qy/FXYqkvmnzVZ+XYdNkuopJv0nqVppUCxcaiW9lEaseRHwr9pqb0xV0Pmqzm85
XflVIZDd2dhBqM1xQeiFuJZIkjrWvP8AclunTFU6xV5t+ZP5y6d5bttd03RrS81jzJpWnzXc6Wds
09tYt6LSQyX0paJEj25MA3Lj26YqmHkX807HzHJZ6Ze6bqWj63cWouUg1C0aCKdVVTJJbyqZYnSr
VHx1p2xVnOKsK1/8yLm08xXHl7y95evfMup6fDHcasLSS3gitUmBMSPLcSRqZXUcljXfjviqZaL5
+8uap5Qk81iV7TS7ZJ31AXS+nLatalluIp034vEyEECvtUUxVMPLOtNrmgWGsGzmsBfwrOlpc8RM
iPunMKWAJWhpXbFUr87+frHyr+jrb6ldarrOszNBpOkWKq087xrzkasjIiRxru7s2wxVAaB+ZU91
5kt/LXmLy/e+WtZvYZLjTY7l7e4guUgoZVintZJU5orBmVqbYqzbFUqs/MVrdeZdU0BInW50q2s7
qaU04Mt806oFoa1X6q1ajuMVTXFXYq7FXmv/ADjj/wCSd0X/AIz6l/3U7nFXpWKuxVhGi/ljBpcm
jOuoNL+h9X1LWVBjC+o2ppcoYj8R4iP659rvx6CuKs3xV2KvH/ze8r3955o8nxJ5k1WFNU8wQtHZ
xmyEFqLW0nm9W35WzSeoGjFPUZ13O3Siqh5O8n6lL+bnnB2826zI2jx6PbtKzWBe4VopLow3FLQL
wHqCgjCNRjU7iir2fFXhX5laB548paV+Y99pNhBrnlfzZZXdzfkTLb3unytYtBLKQ44TwhV5cVIc
dKeKrOPyt/Mjyx5g02z0O3eaz17T7G3N1pF/C9tciMRqvqorikkZ7MhI3HjirPcVeaTS+ZPJ3n7z
Nqi+Xr3XtG8zfVLq3m0sQvNBc2lqlq8E8cskJ4usSsrgkCtDirz71VhS70Xzg66Vo/6Ul82efIEb
6wkbX1wG0zRf3QYyySlUllVF+ILt9rFXtHlf8w/LPmS9uNPsJLiDU7WNZ5tOv7aeyufRc0WZYrlI
2aMnbktRX5jFWGfnlf2+mXnljW9KuBL560q6kfQNDRHml1CG4QR3lt6cQZ0Vo1B9UjihUVxVD/l5
qF75+19fzI1uWLT7Py8t5YaZ5ajLPcWUrEJdy6gzLGwnZI6CPjRVodzuVXqWia1put6RZ6xpc31j
Tr+JLi0n4unOOQVVuLhXFR2IriqDsfLiWnmvV/MInLvqtrY2jW/GgjFi1wwYNXfn9a6U2piqc4q7
FXYqwz8nbLRrH8vNNttG+uDTklvTD+ko1iuqtezNJzRdgPULcPFaHFWZ4q7FXYq7FXYq8e87fl89
5+anlDhq2uehdSave3Ekd7KEtStuqqsDdIAxuOAUdV26A4q3+WXkF083+b9Wm1TWh9V1xILcT3kt
LqO1s7ejXAP9+tWKgn9kU7Yq9gxV5J+b3n++sPK3nPQtW8t6lDbXGl30Ol63axG8splls2VTO8NW
tmDsQfUWlBy5UxVL/Kj3/nLzj5C1jT9CvLDSfKWnzi91rUbdrT6011ZC3jt7VXpJKgYmQuV47be6
r2vFUl85+Y/8OeWr7V0tZb64gQLaWMCs8k9xIQkMSqtT8UjAE9hv2xV5hrfkrUfLHlfyxrWoQNrO
oWPmGLzF50e2iMrySzRSxyXEcagu62byp6aqPsJWm2KprYa/pvnf82NB1fyys1xpPl/T79dU1gwS
QQyPfeiILRGlVGkZTE0jACi7b1JGKofVNVg8k/nFrPmXzPa3B0PW9Os7XSddigluYrI2xf6xay+i
sjxCZ2WSvHiaexoqw38xtU/xNf3Wp/k1DqF55j1K0msvMc1vaywadPZmB1DTyXIgQ3cdR6DIS37J
22xV7V+W91os/kbRU0ZZotPtLSG0iguo2huIvq6CIxzRtusi8fi8eoJG+KskxV2KuxV2KuxV2Kux
V2KuxV2KuxV2KuxVD6jp9lqOn3On30K3FleRPb3UD/ZkilUo6N7MpIxVUt7eG2t4reBBHBCixxRj
oqKKKB8gMVVMVdirsVdirsVdirsVdirsVdirsVdirsVdirsVdirsVdirsVdiqncXFvbW8tzcypBb
wI0k00jBEREHJmZmoAoAqScVdb3Fvc28VzbSpPbzoskM0bB0dHHJWVlqCpBqCMVVMVdirsVdirsV
dirsVdirsVdirsVeS/8AOM/mLXde8h6hea1fz6jdR6xdwJPcOZHESLHxQFv2RU0GKvWsVdirwGy8
3+aH0by9K2q3JkuPzIl0udzK1XsRJdAWzb7xfAvw9NsVe/Yq7FXhH57fnh5Z0i80zy5p3mCWx1ux
12w/xBHCl3GYtPoZLgtIkfGROLJVY2LGuw2xVBaT/wA5F+R7z86LmX/E0x8qTaVBY6ZAYbwQyajJ
chmYQ+jVW4njzdR86Yq+hMVfOH5leaPPfnTUvzM0HTdaTy/5b8laVM17YpBHLc6lztZXdWdzyjjP
plSU7EbEnZVln5I+XPzP03RPKV7N5og1byde6RbSy6TdWqxXNoJLRWgjtp46l1QlVPqH7I6VNcVe
x4q8bvrXzF5//NrzX5ebzNqfl7Q/KFvp6W9voswtZri41CA3Bmml4uzKlOPDp0/yuSqA8v8A5ueY
dJ/LDXP0lMNb82aTr135U0OQKofUryNlW2fiKA7SVbxCnvir1byNomraJ5V07TtZ1KbVtXjj5ahq
E7mRpJ3JeTiT0RWPFB/KBirz/wDPfzL5hs9Z8k+WtO1p/Lem+Zr2e31TXIVHqxCJYzFCkjCkbTNI
QG67eFcVSRG8xfl/+cflLyppnmvVfNOn+YI7k6tpeszre3FrHEnKO5WYKjIpPLt0Ujwoq94xVgGm
6vqkn5463pL3UraZBoNlcQ2ZY+ksz3MqtIF6BmVQCcVZ/irsVdirxj/nFGCeH8utSWaNo2Ot3pCu
CpoVi33xV7PirsVU/qtsAAIkor+oo4jZ/wCYf5XviqpirsVfOf5x/m15bn8/eTtONrqXHy5r0txq
I+pyfvGs1aMG32rN8VT8O1N8Vd+XP5teW7v88PON/wDVtTCeYJNG07SlNnIPTKQmKQ3Ip+6HqsCC
x+zvir6MxV5B+fH5ReTda8t+YvOBjmsPMenaTeTG/sZTC06wWzMIblaMsiMq8G25Fdq0xViX5V+b
vzB8mXv5d+XPMF7DrflXzppcLaHKIxFdWDx2scv1c8f7yNBKiVbcjeooVKr6MxVgfm38odM13zGf
MthrOqeW9cmtxZ3t5pE6wm4gX7Kyq6SAsv7LChH0CirwuN00Z7TW/JlqlxpOnasnlT8vpL9jLHd6
xqLML/WLhl4mT+7McbD4fADjTFXrGleYPzJ8qfmN5f8AK3m/V7XzHpvmqG6+pahFaJYSW11ZRes8
bIjOro6bKTuT4U3VSj83J7/8yPNz/k7pMVtbwW1vFqnmDW7qP1Xtk5KYls46r+9PMVavRiPHFWK+
WtQtvyS1PzLYecbcSa7f211eaB55l9SY6ksUfNbSV5GkMcqsi/ADRjT/ACSyr3D8rdY1/Wvy90HW
Nf4fpbUbRLq49NPTWkxLx0Xt+7ZcVZOIohIZQiiQjiXoORA7VxVdirsVdirHvI/l7zBoOkzWeua/
J5ju5LmSeO+mhEDJE4XjDxDy1CUO9e+KshxV2KuxV2KuxVifmDyIdZ8/eVPNjX3op5WW/Edh6XL1
21CAQFjLzHDgFrTia+2Ku8meQv8ADeu+atXa9F5L5mvxfFBD6XoKqcEi5c5PUp/Nt8sVZZiryH8z
PyV1XUrfzNqnlHzDqWnajrdpcfX9CWVJbG/la2MQj4TlVhaUKsZfl8I6UxVr8p/yNfQ30DzJ5r1O
81bzLpemw2tjY3Lp9W0wGARvBAsZdWMYrHz5UPXrvir1/FUk866Fqmv+V9R0XTNT/Q11qERg/SIi
9do43NJOCc4viZKqG5fDWuKsf8y/lFoWq/l9YeTdPnk0iLR2t59Fv4AGktrm1NY56HiHYkty3Fan
cHfFUD5c/LDzQfOdh5u87eZF17UdGt5bfRbe2tFs4ITcrwnmYBn5ySJ8PYfhRV3nX8pNS1LzhF52
8o+YZPLPmgW31O8m9BLu3uoAQVSWF2UbUG+/QbVFcVSbW/yM80edikH5jecpNU0m3YyW2k6ZZxWE
YmKFFleQmZ3K8jQH+JGKs/8AIHlzXvLflu30bWdb/T8ln+6tb9rf6tL6CgBEl/ezCRlG3Pao6iu5
VZHirsVdirsVdirsVdirsVdirsVdirsVdirsVdirsVdirsVdirsVdirsVdirsVdirsVY75N/MPyf
5zivJfLWofX49Pl+r3bejPDwkIrx/fJHXp1FRirIsVdirD3/ADc/L1NNn1JtWpZW2qnQJpfq9z8O
pChMHH0uR6j4wOH+VirMMVdiqR+bvO3ljyhYW9/5ivfqVpd3KWVvJ6Usxe4lVmRAsKSNuI23pTFW
/wDGnlr/ABd/hD65/wA7ELX6+bH05f8Aeblw5+rw9L7X7PKvtiqd4qw38x/zW8oeQ9KubjVb+3Gq
LbS3Gn6Q0vCe5dFYxxqFWRkWR14cytBiqD/Lf86vI3nmysls9StrfXbiFZLjQ2mrPFIV5PGnNYjL
w7si4qz7FWE+evzl/LzyPfQ6f5h1P0b+eMzJaQxS3EgiFf3jrEr8F+E/a8MVT7y75v8ALXmPQI/M
GjahFdaPKrOLsEoqhPt+oHCtGVp8QYCmKu8p+bvL/m3Rk1ry/cteaZK7xxXJimhDtGeLcRMkbMA2
3ICmKqHnPz55S8l6WNT8y6jHp9qzcIuQZ5JH68Y40DO58aDbvirHPJv5+flX5v1dNH0XWQ+pygmC
2nhmtzLQVIjMqqrNQfZrXFXoWKpOnm7y8/myTykt3XzBFZ/pJ7L05drUyCL1PU4+l9tgOPLl7Yqn
GKuxV2KvnX/nDb/jlecv+2qv/EGxV9FYq7FXhE35D+b38p6jo4vNP+s3fnVvNEbmSb0xZEKPTY+j
X1vh+zTj/lYq93xV2KvmX/nJaz/Mq680eV9KfU9OOiatr1qvlyz4OJorlQsSyXLBfiRXnP2a7HFU
t8t6X+dV5/zkJ5h9PV9I/wAT6Tpttb6nfNA/1VrWcQTKkKcOQk4kfER44q+rMVfHX5z6Vc+V/wAy
/O+u+bvLs2taT5i0y4tfLmshBNDaXM1sIrdjy+BGiYcd6Mv2kr3Venf84/W35Ma9ofla+0yLT288
6BZILoxJ9XvBKYTBM8qUjM4o5HMhgDShrir3fFXz1rfmGy/Lj/nIPzJ5n816fctovmHTrWLRtVgg
e4VHhiijkt/h+yZHiO3+rXY1xV5/5cutdPlK58hWkbeXG8/6vd6xcLcARDTPLYCCSaQNxEYlETIl
aBlX/KU4q+mfIPmL8t59Nt/L3k3V7C9g0m3SKOzs7iOV0hjAQOyqeRqerdyfHFXl/wDzlTotxajy
p5/Vba8tPKd6HvNJu3VFuEmliYBA+zEmHiygE0NaGhxVjUGqy/nZ+Z/lrzboel/oXyh5ImS51LXL
z045ZZImjuTA3FiOKekAN6KrMxpUDFX0zYajp+o2kd5p9zFeWctfSubd1ljbixVuLoSpowIPvirD
LfyHq8f53XPntprc6RNoA0hYAz/WfXF0k/Irw4cOKdeda9sVZ3irsVdirxP/AJxi0nynp2neZ18u
+YH1+OXUA9272Ulj6MnE/uwJHk5/6wpir2zFXYq7FXYq7FXyv+cHlP8AMm4/OXyjpjecPVk1TUL6
+8u1tYwNLRGEiDr++4ooX4v5ffFVP8pPJ35lah+b3nS7h85cLzRb+yttevjZof0kiM4aIA0EXFbf
iePiDir6sxV4T+cP566Fpll528j69pt9pl1cabd2uh37xM9te/WLMopVgAV/fOVrQrtUkdMVeP8A
5XQaZ5j/ADK/LiTyNpU9teaDZ25846nGhhgdo1pKWptVkqhY7yFqb9Sq+1sVSvzT5k0vyx5d1DX9
Vk9Ow02Fp5jtU8fsoterOxCqO5OKvlrzz5W8y3n5N63+ZWtwyfprzdf2d3qNvGSWttBV/wDR7dR2
WvpOfbjy3BxVPmu/y11D87Py1P5UxWwkt47l9bfS4vSRbIxKIxc0UDnx9QNz+LcA7lcVU/zfv9Jt
P+cjtGm/MqN5PIUdoDpAmR5LL1uHxNJGgYPSc/GKHbhy+HFWG/mpr/lHRfMN7e/k1rf1mTzTaXNp
5i8uWMEslv6ckL8riKihFKhmai7oakfCSMVfQX/ONl75al/KDQbLQ79b36hEU1BRUPDdzO1xNG6n
cUeU8T0I3GKvT8VdirsVdiqC0zRNF0pZV0uwtrBZ25zLbQxwh2/mbgFqfc4qjcVdirsVdirsVQs+
k6VPfwahPZQS39qCLW7eJGmiDAhhHIRyWtd6HFXWmlaXZT3M9nZwW094/qXcsMaRvM+/xSMoBdtz
ucVRWKpf5g0LTdf0S+0bUo/VsdQgltp1GzcJkMbFTvxajGh7Yqt8t+XdL8uaFZaJpcZjsbCJIIFY
8m4oAoLN+01BucVTLFUNqOmabqVq1pqNpDe2jkF7e4jWWMlTUEo4ZTQ4qrvDE8TQuitEylGjIBUq
RQqQdqUxVL9H8seWtFaVtG0mz0xp95zZ28UBc9fj9NV5fTiqI1HStL1O2NrqVnBfWxIJguY0lSo6
Hi4YYqhdF8q+V9C5foTR7HS+Y4v9StobeorWh9JV774qq6Z5e0DSXmk0vTbWwe4p9Ye1gjhMnGpH
MxqvKnI9cVR+KuxV2KuxV2KuxV2KuxV2KuxV2KuxV2KuxV2KuxV2KuxV2KuxV2KuxV2KuxV2KuxV
4l/zjf8Amx5v8/X3m6HzDJBImjy2iWXoRCKgma5D8qE8v7lcVe24q7FXzNq35+fmFa+SPPOsRTWw
vdA8xLpWnkwKVFsZHWjrX4moo3xV9JWEzz2NtNJ9uWJHamwqygnFVfFXiH/OQv56P5Os7PT/ACpq
1j/iT68kOpWsvGZ4IDEzVkjr8HxMhqcVQR/5yL05vztGip5h01PIMdl6kl+SnBrn0q8BcFqfaYfd
TFXvmKvnj82Pz585yecNU/L38vtGivb2ytpf0rf3BPwKsXOZogJIlQRK1Obtu2wXpVVjv/OM/n/8
2Y7bR9Jm0JtX8o6nezR/4gZ5XmgcAtJ6snKUBV4fCrotenLfFX1Tirwvzt+YX5r67+bt7+XP5dzW
OlyaLZJe6jqN+nqczIkbhRVJQF/0iNQAla1NaYqv8hf85CzS/lZ5h8x+cYIodY8rTvY3UcB4pdTk
AQKg+LizueDUqBTlsNgqz38oNQ886r5HstY86NENW1Ot1FawxeiILaQAwxstSSxX4zXcVp1GKsN/
5yD/ADj8yeSrjQvLvlW2hk1/zC5WK7uhWKJeaxIFBKqXZ36seKgbg12VYXqn5tfnl+WPm/QrD8xZ
tM1rSNbahaxULIiBlSQoVSA84zIpoyEN0B7hV9NYq8vufzB8xx/85CWvkZXi/QMujm/dPTHq+sC4
r6nWnwjbFXqGKuxV2KvmD/nC3/jqfmF/xnsP+J3uKvp/FXYqxWb8rPy9msNQ0+XQrZ7LVbkX2oQE
NxmuQSfVff7VWOKsojjSONY4xxRAFVR0AAoBiq7FXxp/zkZq35N6j+ZGjfo9ka/j1aWDz5c+neKU
S2lhgZWDJR6KkorBX7PeoxVLfJsf5Aal+emsW93FE3ke9hitfLVrwvwr3shto1oAPWWrerUy0Xf5
Yq+3cVfM/wDzkX+T1xo82s/mx5W1qXTL5I1/S1kKgSCbhbOY3U7c1Yc0cENuajpirGfyI/NHzX+X
N55b8j+Z9HRPL/mgwXmj36keqqamV9KXkrNG8ZZl5KeLJvXwxV9fYq8f8/fkl5mvvPz+fPInmb/D
mv3lsLPU/UhE0cyKqoGFeQHwRoKFTuoYEHFXz1qWm6T5Zvr7TZZZPMflnyTeLqPmac0jj1TXpyIY
bSv7zjFFxYNy5GgmP7SjFXtXlr8+vzDtPNXlfSvP3la30nTfOIRdEvLSRiweUqIxIheXvLGGU8Sv
IH2xVJf+csNV8u+Yb3R/IOm6XNq/n95Fl057dgn1VJ6ckdmBD+qqVK7BQA5YU3VeaaLqC6B+YWqX
n51ve33mzy3YGfyzaX0nOyuZrWNngjaRQ9RIygxsPhZq8qtsVX1Z+UHn698++R7XzPd6cNLN3LMk
NushlVkhkMfMMVTqysOnbFU+byp5cbzInmZrCI69HB9VTUaH1RDueFa0p8RxVNsVdirsVefflVpP
5q6fca23nu406eGZ4TpA0+OOMqqmX1fV4RQ12aOla98Veg4q7FXYq7FXYq8U/MP8hovMX5qeWfMF
jpOlRaBaStc+Y4jFEkl5K8pkYyxiJhPyp8XqHepxVZ+Wv5BQaF+Y3mzzBrej6TLpV5dCbyxbRxxy
/VEWd3VkjaJVgYLwpw6dMVe3Yq+bP+cgvye8/GLzT5p8ueYbq603WBA+reVxHI5l9P0oU9JY+auV
EakVQMAPtHFVP8p/+cdvNN9qXlXzn581s3Uek2dlLo2iBZA8EcKLJbQTeosfp+iackVTVq1Piq+l
8VSTzsnmqTyrqUPlQwr5gmhMVhLcsUijdyFMpIV941JZRTcgV2xV5ev/ADjpbf8AKjJfIS3SRa7d
smoXeqHkyPqIYOSx+0Y6D0gaVp8VK4qkuh/lB+cPmHzb5PvvzCu9Ng0nyKyPpy6eWaa5kiaNkZ6i
g5G3j5H4dhstSTiqYfm5+R3nTU/zCs/zH/L/AFW3svMVsiLNb3dQpaNDEHjbjKp5RHgyOtKd96Yq
xfzL+R356/mheWZ8/ajo+l2mnq6wSWkIlnJYD+QKSrEbgygDqFxV6l+Rnlr8yPKflpfLHm1NPmst
OHHSb2xkYuYyxJiljMcfStQ/U999yq9LxV2KuxV2KuxV2KuxV2KuxV2KuxV2KuxV2KuxV2KuxV2K
uxV2KuxV2KuxV2KuxV2KpPo3nLyhrd1LZ6Lrmn6ndwKXnt7O6huJEUEKWdI2ZlHI03xVOMVdiqRH
z75GWG+mPmLTBDpciw6nKb23420kjFESdudImZ0ZQGpUgjFU4tLu1vLWG8s5o7m0uY1mt7iFg8ck
bgMjo6kqyspqCOuKquKpdrfmTy7oNvHc65qlnpVvK/pxTX08VsjPQnirSsgJoCaYqpnzZ5WGrw6K
dZsRrNwokt9N+sw/WZEKlwyQ8vUYFAWqB03xVNcVQeraxpmkWMl9qVzFa20SlmkmdIwaAmgLlRXb
xxVin5W/m95X/MnTru+0KO5thZTehLb3qwpMfhVuapFLN8HxUqT1xVm+KpP5h84+U/LcccnmDWLP
SlmqIfrc8cJenXgHILU70xVH6dqem6nZRX2m3cN9ZTjlDdW0iyxOK0qroWVvoOKobRvMvlzXBOdE
1Wz1QWzBLk2VxFcCNzWiv6TNxO3Q4qiNT1bS9Ks3vtUvILCyi/vLq6kSGJf9Z3KqPvxVJ9C/MXyF
r939S0XzFp2o3m5Ftb3MUkpA3JCBuRA8QMVZFiqXv5h0CPWY9DfU7Rdalj9WLS2njF00YBPNYC3q
FaKd6dsVTDFXYq7FXx//AM4d/wDk0/NP/MBL/wBRkeKvsDFXYq+Sbn8nPzLfy1+bVouhym48w6tY
3OjR+pDW4ihvrmWR1+Og4pIp+KnXFX0r+XWm32l/l95Y0y/iMF9Y6TY213ASCUlhtkSRCVJHwspG
xxVkOKvjb/nLrzH59vfMVv5d1TS4rby5DdNJ5evUR1lu2EMay8mMjI3BpqbIuKsZtvNf5wT/AJ7R
63B5cgk896ZB6Q0MRzGGONbP0N4zPz/uZeX971P0Yq+67V5ntonmXhMyKZUHQMR8Q798VfD358ag
dV/Py+07z1fXdl5csnEVr6C8zDbG3DxNCh5D97JQuwBO52NOOKph/wA4uflZpnmbUrbzSuuGz1Xy
7qkcsmlIVLT20apIp+FlkVWkqpJBVgCMVfauKvkP80/8ID/nKC9P5oer/hH6hEdP5+sY+H1NePH0
P3nD6z6v2f2+u2KsQ/Ln8xde8ufldr3lzQTPLqXmvVI9P8tQA/GnqJwupU8HKvDGN/tGo+ycVfWf
5O+RNI8ieSbPy5aSxT38Y9fV5o2DGS7kA9VjTfitOC1H2QO+KvFf+c19M8xyx+XNRVJpfLFsZUvB
EfgjuZGXi0goQC6VVGNabjvuq8h842PkPV/OPlu0/JKy1Aai8cTyqzSl1vOSshUysxVoqEyOD6Y6
g0BOKvv23EwgjE5DTBVErL0LU+Ijp3xV49qnknzTN/zk7pHm6OwdvLtvpL202ock4LKY5wE48ufW
Rf2cVeyYq7FXYq+af+cZvJelaH+YPmC8s/NOl65LPaSI9nYNMZYgblG5P6kca0BHHY9cVfS2KuxV
2KuxV2Kvib/nIA/m5f8A5taTpGsNDJI2pS/4IgU24/cXN4I7Yycehb04wTLvtviqG/Ln/ldWofnr
rF7p7QTebrSRovMshNrwWBJ44LhU5fu6jgF+DfbFX3Fir5P/AOcpPzO8i6suv+TLjSCPNOiy2q6Z
rJjR+SN6cs8Yk2kjoJGHHdWpWvTFXjXkwQw/mR5L/wACz3j6nI1h9d5DiVvWb/S44+NOUHD7XLty
rVd8VforirH/ADnoHkbUNLlvvN2m2N7YaZHJcPPfwxyiGNF5yMGcEqKLvTrir5B1mz1TzD5V83/m
7ZWn6H0iwMWj+TbK2jWFLa0e4WKaSJY+KpRJWUlducj03XFUq0+Dy35V1P8AK3WvIetyXXmfVWT/
ABFaxzCQxzPNCvoPEgDKJDJIhRvtBQe9Sqzj/nKLzfq99+amneSdb1CfR/Iw+pyXbwgkSxzPWa5Z
QP3npbqq7gFa0rirzzz2dH/LjXr1Py082RatoXmLT5rO7hjkEs0UUq8XjmdFVK1PKNlow3BFPtKv
pL/nERrE/lOPS1Fb6/mvp7jUYeZeS3duMUcbhviHKOFWHY12xV7ZirsVdirsVYr5U/K3yD5S1K51
Py7pEen314hiuZ0eVy6M4cikjuPtKDsMVZVirsVdirsVdirHta/L7ydrfmHTvMeqaZHda1pPA6de
M0gaIxuZEoqsENHNdxirtC/L3yboOu6lr+kaZHa6xrDO+pXitIzStLIZXJDsyjk55fCBirIcVYJ+
bP5Q+XvzF0J7G7WGz1Osf1fWhbxzXMSI4dkRiUbi4FCOWKon8uvyp8oeRtKtLfTLC2OqQwLBdayI
ES5uCAAzM/xMORFSvKmKsyxVLvMXl3RvMej3Gjazb/W9MugouLYu6BwrBwCY2RqclHfFVOy8q+XL
Hy4nlq20+FNBSE2w04ryhMLV5IytXlyqeVevfFWM+WPyL/KjyxrS63onl6K21OMsYrhpbif0y1am
NJpJEQ79VAxVOfOH5d+SfOVvHB5m0iDUlhqIZJAyyxg9Qk0ZSRQe4DYqx7Q/+ce/ya0S6+tWPle2
aahWt0894oBFDRLqSZR160xVNvKn5T/l95S1KXUvLekLpl5MhjmeGWfi6E14tG0jIRXcfDt2xVlu
KuxV2KuxV2KuxV2KuxV2KuxV2KuxV2KuxV2KuxV2KuxV2KuxV2KuxV2KuxV2KuxV4F+UP/OSWt+e
vzEbyrd6NbWduI7mT6zFJIz1g6Cjbb4q99xV2KvnaT/nKDXkt/zAl/QlqT5OkjS2HqSfvw+orZfv
PD4X5bd8Vev/AJW+cbnzn5B0jzNc26Wk+pRu728RLIpSV49i2/7FcVZViryL8+fz1b8trbTRplva
6pf3k0kdzaySkNCsaKwLBCWBPMUriqRRf85KXb/mnpHk36np/wCj72G0e+1T6yeMTz2i3MoBNE+A
txFTX6cVe9AhgCDUHcEdCMVeL/m9/wA5PeWvy/1l9AtdOk1vW4AjXcKyi3gh9RQyq0pWUl+LBuIT
6cVeV/kx/wA5ReY5fOkmnebmu9XttduYbXSYYFgrayzTFFWnGIup9RVJ5V26HFX15irw382v+cid
Y8ted18jeT/L51/zAkaSXKn1Hozxev6UcMI5uRDRy3LYYqmf5Yf85F6B5t8j655k1e3/AEPL5aRZ
NWhD+ohSRWMTRMQpJlaNlVOvLbeoxVNvyP8AzJ80fmHoN35g1XSIdJ0tpjDpQjd5JJglfVdiwUcV
NFBHUhulMVQX55fn3pv5YxWdpHYnVNc1BGlgtS/pRRxKePqSvRm3bZVA3odxiry+w/5zE806Zqlt
H5z8nmx067pLHJD60Ewt2PwyxpcDjMPkVBxV9P2F7a39jb31pIJbW7iSe3lHRo5FDIwr4qcVeZ+Y
Pzh1LS/zx0T8uY9PhkstVt1nkv2dxKhZJmoFHw/7pH34q9TxV2KuxV8Qf84sf+T5f/jBf4q+38Vd
iryR/wDnGXyG0XmqI3+qcfN7q+pH1besZS7W9Hof6P8AD+8Wnxcvh998VZ/5J8oab5O8rWHlrTJZ
prHTkZIJLlkaUh5GkPMosandz0UYqnmKvhH/AJyhsvKJ/Mu5v9E1pdQ1C/nlj1u1pRbKe29O3EZN
PFGr8sVYxpfk38vrz805fLkvmUw+Ug8iQeYCq1k4xVSi9Pjl+HFX6I2sAt7aKAHkIkVAx6kKKVxV
8Z/85Lfl75o8l/mEfzKsZYpNM1DUIZbSZwkjwXyx+oI5IZAVdT6DMpoRTY+6rGPyN/Mfy35b8+TX
XnHRkvV1i6t7iLUCi+pYXHqNIlzGjDlxPrVPFgePTl0xV974q+dfzX/Jv80Y/wA3E/Mz8upbefUZ
kUSwTtGjQyLa/UyQJv3bo8I8ag9sVfPWreXtW8qTXvkbVL9Y3uJLfUPOL2pEwgitgzQwepVVkkHr
livLi0jRrXkMVe9+Qf8AnK3yJZHR/LX+G7rQfLahbLT9QeRZUREPBXkUIvf+8ZWYg+OKpb/zmrZ+
TZE0e8k1H0vN8KGOHTUXn6tkzkl5CP7rg/LgT9rcUNKqq8L1Hzhq/n3UbFPPmum3stAsTFB+5rO6
QgVhiVQqtcTUHxSso23PQFV9sfkf+YXlvzn5NVvLmn3WnaVobR6TBDd8C3G3gj4gFGcGiMoxVF6r
+UXlvU/zL038w57m8XWtLiEFvbxvELVlVZFq6GJpCf3x6SDtirN8VdirsVeBflDpX5m2/wCYjTa/
+X+h+X9J9O5A1fT7G0t7nkfsL6sUjvR/2tt8Ve+4q7FXYq7FXYq+UPzh/wCccdV1L827K78t6Nc3
GgaxOl55jv8A6xFRJ7u9ka64CQqyhIiGFAeuKoT8vf8AnF+8m/NPWE8yaNd2Xku1e6k0Sczx85PT
ulForGN3aphJY1HbFX11ir40/wCcs/JHnvTdbvvNN5qKz+UtavrZLexjlkAiuYrRo4vUt2+DkIop
KOpPU9K4qhfy/wD+cd/zO893/l/XPNsiW3lhLSy+qzyyxSyyaZFEpt4YIYS/ENHQfvOJFSSCdiq+
1cVSfzjqWuab5Y1G80HT21XWo4T+j7BSq+pO3wpyLsg4KTybfoDTfFXz35Z/5xx8zXn5SebH134P
zD81OLhjcOrFBb3K3KxO6ErW4kQs5rTdf5cVefwfk5+eHm208qeSNX8vDSNH8tPdxrqsnBQsV5OJ
Z3dldllKlaJ6Y3792xVnH/OSX5E+f9c88jzp5Vtl1WKSGAXFmGjE0UtuOIKxykLIjKqmgqa12pir
B/NX5X/n9+aHmKK/1fylbaXfpCIp78KlmkqoPgM3KRy7CnEFVrTboBRV7B/zjRYfmZ5P05/KHmfy
jJY6Y0slxbaxE8DUlfd1uVWVmYHiAjqNtgRTcKvfMVdirsVdirsVdirsVdirsVdirsVdirsVU57e
3nQJPEkqA1CuoYV6VocVXoiIioihUUAKoFAANgABireKuxV2KuxV2KuxV2KuxV2KuxV2Kv8A/9k=
									</xapGImg:image>
							</rdf:li>
						</rdf:Alt>
					</xap:Thumbnails>
				</rdf:Description>
				<rdf:Description  rdf:about="" xmlns:dc="http://purl.org/dc/elements/1.1/">
					<dc:format>image/svg+xml</dc:format>
				</rdf:Description>
			</rdf:RDF>
		</x:xmpmeta>
<?xpacket begin='﻿' id='W5M0MpCehiHzreSzNTczkc9d'?><x:xmpmeta xmlns:x='adobe:ns:meta/' x:xmptk='XMP toolkit 3.0-29, framework 1.6'>
<rdf:RDF xmlns:rdf='http://www.w3.org/1999/02/22-rdf-syntax-ns#' xmlns:iX='http://ns.adobe.com/iX/1.0/'>

 <rdf:Description rdf:about='uuid:70b558ce-1892-11de-b1f8-001124740a56'
  xmlns:pdf='http://ns.adobe.com/pdf/1.3/'>
 </rdf:Description>

 <rdf:Description rdf:about='uuid:70b558ce-1892-11de-b1f8-001124740a56'
  xmlns:tiff='http://ns.adobe.com/tiff/1.0/'>
 </rdf:Description>

 <rdf:Description rdf:about='uuid:70b558ce-1892-11de-b1f8-001124740a56'
  xmlns:xap='http://ns.adobe.com/xap/1.0/'
  xmlns:xapGImg='http://ns.adobe.com/xap/1.0/g/img/'>
  <xap:CreateDate>2005-10-18T08:31:30Z</xap:CreateDate>
  <xap:ModifyDate>2009-03-24T16:41:04Z</xap:ModifyDate>
  <xap:CreatorTool>Illustrator</xap:CreatorTool>
  <xap:MetadataDate>2009-03-24T13:17:24+09:00</xap:MetadataDate>
  <xap:Thumbnails>
   <rdf:Alt>
    <rdf:li rdf:parseType='Resource'>
     <xapGImg:format>JPEG</xapGImg:format>
     <xapGImg:width>52</xapGImg:width>
     <xapGImg:height>256</xapGImg:height>
     <xapGImg:image>/9j/4AAQSkZJRgABAgEASABIAAD/7QAsUGhvdG9zaG9wIDMuMAA4QklNA+0AAAAAABAASAAAAAEA&#xA;AQBIAAAAAQAB/+4ADkFkb2JlAGTAAAAAAf/bAIQABgQEBAUEBgUFBgkGBQYJCwgGBggLDAoKCwoK&#xA;DBAMDAwMDAwQDA4PEA8ODBMTFBQTExwbGxscHx8fHx8fHx8fHwEHBwcNDA0YEBAYGhURFRofHx8f&#xA;Hx8fHx8fHx8fHx8fHx8fHx8fHx8fHx8fHx8fHx8fHx8fHx8fHx8fHx8fHx8f/8AAEQgBAAA0AwER&#xA;AAIRAQMRAf/EAaIAAAAHAQEBAQEAAAAAAAAAAAQFAwIGAQAHCAkKCwEAAgIDAQEBAQEAAAAAAAAA&#xA;AQACAwQFBgcICQoLEAACAQMDAgQCBgcDBAIGAnMBAgMRBAAFIRIxQVEGE2EicYEUMpGhBxWxQiPB&#xA;UtHhMxZi8CRygvElQzRTkqKyY3PCNUQnk6OzNhdUZHTD0uIIJoMJChgZhJRFRqS0VtNVKBry4/PE&#xA;1OT0ZXWFlaW1xdXl9WZ2hpamtsbW5vY3R1dnd4eXp7fH1+f3OEhYaHiImKi4yNjo+Ck5SVlpeYmZ&#xA;qbnJ2en5KjpKWmp6ipqqusra6voRAAICAQIDBQUEBQYECAMDbQEAAhEDBCESMUEFURNhIgZxgZEy&#xA;obHwFMHR4SNCFVJicvEzJDRDghaSUyWiY7LCB3PSNeJEgxdUkwgJChgZJjZFGidkdFU38qOzwygp&#xA;0+PzhJSktMTU5PRldYWVpbXF1eX1RlZmdoaWprbG1ub2R1dnd4eXp7fH1+f3OEhYaHiImKi4yNjo&#xA;+DlJWWl5iZmpucnZ6fkqOkpaanqKmqq6ytrq+v/aAAwDAQACEQMRAD8A9IWVlodvolvc3MFrDBFb&#xA;I8s0iRqiqEBLMzAAAeJxVKh5s/LsoJlaF7Qiov0tJHs6eP1pYjBT354qntlbeXr61iu7KK0urSZe&#xA;UNxCsUkbqe6utVI+WKoDy/YaNF5W02ee2t0jSxgeWV0QKqiFSzMxGwHUk4qgv8Vfl4y+pG0M9sOt&#xA;7BaSTWo9zcxxNBT35+PgcVTuxg8uahax3lhHZ3dpKKxXEAikjYeKulVP0Yqo+nH/AIR9PiPT/R/H&#xA;hQcePo0pTwxVj+gWMfme4W/1Eevo2kFLXSrFt4ZLq3VRPdyr0do5qxRBvsFGYbsOKqtoUnnrVdFt&#xA;dUh1ixie6T1Bbzae8kagk0WqXMLV96/RiqB0+4/R62nma0t0sob2/bTfMunwMTbtcfWmsBeRD4Rz&#xA;Fyi8noC0RJfdVoqu8tWUXmiO2XUAJtC0OC0t4dPYAxXF6LaKd55h/uxYRKqRodg4ZiCQhVVGaDJ5&#xA;51PRLXVIdWsEa6T1BbTWEjooqaKGjuYm7U5b/LFUDDdLBZWXnuwgWy+uSRx+ZrCBudvPG0v1d7pS&#xA;FXk8D0kE3EF4gQw+xxVZV/0yv/Rj/wAycVSb8uJ1gsLzRJTS8sLmS4K9OcGoyNewyqP5f3zRV/mR&#xA;sVQXkzyrHe+VNOe51XUjBLFy+qxXTW6KCx+FWtxFKB/s8VTHzXbWdroul+XNOhWN728s7eztU2Cw&#xA;wTpcXD/KOCJ2qerUHVsVQf5YTLbWVzosvw3EIgv4AdjJbX0CSLKPECcSx/7H3xVKNM8g2+reQbOW&#xA;0ur2PUmh9aCKXUL5rGSRWLCKe0MxgaCSnFk4bKdqHFU41vVtP1X8v7ez06IW7eYETSLSwACtA0tY&#xA;bmLioops40lLgfZ9M4qyD/plf+jH/mTiqDl8upqNhpl7bXMmnava26LbahBxLcGVS0UqOCksTEbo&#xA;3zUq1GCrRX8wwhhEmkM/Rb307kD/AFja8z/wPr/TiqI0XyyLO+l1bULptT1udPSe9dRGkUNeXo20&#xA;QqIouW5FWZtubNQUVQFt5ct9V8vaDdxzyWOrWVnD9R1K34+pGHiTnGysGSSJ+I5xuCDQHZgrBVXV&#xA;PzCjT0TLpNw3T656dzD9Jtw8v3et92Kq2j+WXt9QOr6teNqmtFGijuSnowwROQWitYAziNWKgsSz&#xA;O1ByYgABVX/6ZX/ox/5k4qoaVP5j/RdnSxsyPQjoTeSj9gf8u2Kor6x5l/5YLP8A6TJf+yXFXfWP&#xA;Mv8AywWf/SZL/wBkuKpb5an8x/4c0rjY2ZX6nb8SbuUEj0l6j6scVTL6x5l/5YLP/pMl/wCyXFXf&#xA;WPMv/LBZ/wDSZL/2S4qo1n/wfXgvr/o+vp8jw5+h058a0r34/RiqSap53bSo9J0HR7B9a80X1ok1&#xA;vpsbiKOKBVCtc3c5DCGEN8NaFmbZVJxVLIte/MKRF/52fygL1mAGmpDcyD3QXP11GJrtX6v9GKp3&#xA;5Y87XN7qsnl3zDp/6F8zwxGdbUSevbXUCkK09nPxT1EDEclZVdKio6HFUJJ5zTRdC8vaXYWUmseY&#xA;9RsoTYaTAyofTSJQ888rVWCBCQGcg7mihjtiqAh178w7j7PmTyjDeOwEemJFc3O/8n1kXkBJ7VFv&#xA;9GKpx5e8630utf4b8z6eNH8wsjy2fpyGeyvoo6epJaTFY2JStXidQ6g13G+Kpx/0yv8A0Y/8ycVY&#xA;n+T8S3Nv5g16YctQvtUms3dhRkttMpZ28XsoEbSDx5k98VeefltrH5Wv+Wmn2GteXJtb1NPrayQR&#xA;6Dd3rSs11KQsdwLZoWJWm/q0HiKYqyGPQdZ0P8qvJ99qwa38weXdUspLdZZOckVtfaiLT6m8tWrS&#xA;yuhEdyOSjwxVOfycijvpdf12ccr717bSYWO/pWdjYwFIkJ3AaaaSVvdvbFXm3lDzF+Xlj+VOmxeY&#xA;/JNxqzM9xbC9l02L6rJLcXkiRj6/PwijBYqvqM44nvtirN9Y8v6v5e/JTRZtZm9bzH5Tezv4bkOZ&#xA;WSSK4UGASHdwbeRrck/aBxV6P/0yv/Rj/wAycVYNY6h/yr7U57zUUZfJXmH0b19SRSyadqLQpFML&#xA;mlSlvccFcSfZR+XKgYHFU7/LKysPLX5dadZ3Gq2V1bWYmZ9St5lNqRLM8wIkNB9mQYqlc2qL+Ynm&#xA;HTrbRwZvJmiXaahqOsgfuL67tW5W1rak/wB7HHMBLJKtVqoUE1NFUHpt2/kKaLXrqN38neYbWym1&#xA;S5jVpP0fqEVrHB9YlRQT9XnhjjV3A+Blq2zVCqY+S/LPl9fyfj8tanqVjqekTW91Dd31tMr2zR3U&#xA;sknJJDsCqyCh7EYqkHl99V846ToPlIXiavpGhSwP5n8zW4Y2d8dPk52tpbyOB6zyNHG9yyVVaFeR&#xA;LYq9M/6ZX/ox/wCZOKorSgG0mzBFQbeMEHoRwGKpG/5Wflm979ebyppBu61MxsbepateR+D7Vf2u&#xA;uKsmjjjijWONQkaAKiKAFVQKAADoBiqXeWQD5a0kHcGyt6j/AJ5LiqV3H5Xflrc3pvrjyppEt4SW&#xA;ad7G3ZmY/tMSnxH3OKskihihiSKFFjijAVI0AVVUbAADYDFUs/6ZX/ox/wCZOKqGleX7A6XZky3m&#xA;8EZ2vrwfsDwlxVSdfKaXZs31Z1uw3A251S4EnL+Xh6/KuKo//D1h/v28/wCk68/6q4qlvlrQLFvL&#xA;mlMZbyps7cml7eAbxL2EtMVXzDylBcm1m1dorkEKYH1W4WTkeg4metcVR/8Ah6w/37ef9J15/wBV&#xA;cVUfRT/B3o1bh+juFebc6ehT7dedfetcVecTfpn8x9fm8q2t/Ppnkny7Bbw+YLiyf07jUL2WFZPq&#xA;STDeOKKMj1uO5J4+4VYF5dh0fW/Kb6hpH5F6bfeXo3mj+tJqNs98wtnMchUywJcs1UO3qVPapxVk&#xA;/wCXnmqPy+/le+0a9vL78sPO0pstLt9ScyXWkalydEtxKxdmhleJo1UseLDY7/EqmJudd89anaeR&#xA;9I1CbSfLehafYy+bNStGMd1PNcwB4bCCUf3amP45XG+/Hbuq8+8pS6HrHkb9O6Z+Ren3nlsrKZbv&#xA;9JW9xfcICyysvrwLcswKno9T2xVl/k/XYfKMXlnzB5duru5/KnzdLHZjTb5mlm0a8nYxwmKR2dhb&#xA;tKvpOpYhT8QJruq9h/6ZX/ox/wCZOKvP/wAh5I7SXzroc7U1S316bUJYm2Y22pQxTWsn+qUBUf6u&#xA;KsF/Jbyt+aGs/lssOi+cLfQtDubrUIxEmnLcXcYNzIshSZpUFWNaGlV7bjFWU+efKmj+VvIHkr8v&#xA;NFLyTza3p0Wm8yrTkw3X127ujtT4QHZyBQcvoxVF/kZNDZ6v5w0O4ATUzc2WqpXrJZ3mn26xMtft&#xA;BHhdWp0OKvG/JHl/8y2/5xul1nQvNM8ejwC7kuvLMFtBG8lqk7i6Ed8FadWZOT9D4Yq9Q87yeVpv&#xA;yE8u6L5RjCWnmC40i08uWyku4ka7iuHLGvLnGIpDIx6NWuKvWv8Aplf+jH/mTirEvMP5fahqD6V5&#xA;r8p6gmi+cbOzjt/rMqGS1vLWgf6reRggsnLdXX4l7dqKpVo99+cGh2I0XS/y50e1jRnK3drqyxWP&#xA;qSMXaQW/1f1qMxqR1xVOvJ35e6zF5hfzl511CLVvNbRG3sorZWSw06B/tx2iP8RZ/wBuV/iI22Fa&#xA;qoTVvy9uta0vy55k8u6j+g/OWl6fDFZ6jw9SGe3eNWa0u4tvUhZtx3Q/EMVSzRZvza8v6Qvl2x/L&#xA;fRBaqHX1rHVEt9PJkJLt9VkgaUKxNStSTXFUb+Xn5RXOlapa+YPMklm+oafHLFoWh6XEYdK0pLg1&#xA;n+rI3xvLKSecrUO9KUpirOf+mV/6Mf8AmTiqhpWq340uzA0a8IEEe4ez3+AeNxiqK/S1/wD9WW8/&#xA;4Oz/AOyjFXfpa/8A+rLef8HZ/wDZRiqW+WtVvh5c0oDR7xgLO3AYPZ0P7pdxW4BxVMv0tf8A/Vlv&#xA;P+Ds/wDsoxV36Wv/APqy3n/B2f8A2UYqo+o/+D/U9Juf6P5ejVedfQrxry417fap74qkXmv8zfK/&#xA;kXy3ptxrEskt3dxRx6dpdqvq3d1JxUcIYqiu5G5IH4Yqxkfmz+brw/Xovykvjph3V5NTto7zhStT&#xA;ZGP1Q3+TirLPy+/NLyx54guV04zWerWDcNT0W+T0L22fpSSI9q7cht267YqhtX/MXyt5F8h6Pqev&#xA;3DIJrW3is7SFfUubiX0l/dwxinI+5oB3IxVjcf5t/m1cwG/s/wApb9tMHxB7jUra3uynj9TeP1eV&#xA;P2cVZR+Xv5seWvOr3VlbJcaZr+nbaloOox+jeQ9uXA15JU9R7VpUYqn/AP0yv/Rj/wAycVeTfk9p&#xA;sXmz8wvNXnnVUFxLoN3/AIa8vxvutqtlGBcPGDWjSGQHl13bxxV4V+XY8q3f5W695j1/z9qOjeb9&#xA;PnuF0e0h1QxzSCO3ieCltVpnDzOyFlp8xQ4qz+yv9btvK/5W/m7qLmHzLPqEeja7ccSr3+mXU0sU&#xA;ck6gDmyxRKVNDWobstFWYflTp0fmz8z9Y8yasonTyhaafo/l63fdYGe2ElxOF6c2Y7N4H2GKvBvK&#xA;F95Pk/LDU9a1XzxrGnefraScaNY2t5NWRljX6uvpqrNSSRirMHFBvir1jXIPNOmfl5+Xv5ra3HJb&#xA;+edFureDWZGURzXWmXdw0IhuAaEu0TJ9rcFm79FX0B/0yv8A0Y/8ycVeNeX9Zt/yn/MTULfXj9V8&#xA;m+emh1LTdYYH0LfUmjAuIZ3AonqN8QY7AUr+0Qqs/wCce/yR0nQfJlzc+etB0q61Rr6S5s76cWt8&#xA;oszBD6bLN+8QKJFcjfbr3xVF+Y9csvzV/MLQfKXlgrd+VfKd9DrHmPV4aG1aW2B+rWcLr8L8iTy4&#xA;mlNx9nFUJo+rD8q/PQ1XWA0Xkfz3Z2DnVKExWWqQW4QpMR9hJlq3I/qVqKpD5N/5x9lvf+cf9W0j&#xA;U7GwHmeeea/0XVIZLecngsbQhbuMsojkKMh+KgDE4qrWuu+YPzOt/KH5bSqLufQ57e7/ADA1aCRL&#xA;i2CWLssMAuIy0cklzxDNx6N/qtRV9Af9Mr/0Y/8AMnFVraLpOteWYNN1ezhv7C4t4lmtbhFkjYcB&#xA;SqsDuOx7YqwE/wDOL/5MFzTRplt2f1GtBe3ghJ6/Y9X28cVei6B5d0Ly9pkel6HYQ6dp8VSltboE&#xA;Wp6safaY92O5xVB6Xpem6p5M0/T9StYr2xuLG3Se2nRZI3UxLsysCDirB5f+cYfyZkkcjRpooJW5&#xA;yWkV7eJCx2r8Al2rTt9GKvQPLnlby75Z01NM0DToNNsUNfRt0CgtSnJz9p2NN2Yk4q1/0yv/AEY/&#xA;8ycVUNK0q/Ol2ZGs3gBgj2CWe3wDxt8VRX6Jv/8Aq9Xn/AWf/ZPirv0Tf/8AV6vP+As/+yfFUt8t&#xA;aVfHy5pRGsXig2duQoSzoP3S7CtuTiqZfom//wCr1ef8BZ/9k+Ku/RN//wBXq8/4Cz/7J8VUfTf/&#xA;AAf6fqtz/R/H1qLzr6FOVOPGvf7NPbFXlXm3zz5z17XY/wAvfINyumvpmnw3XmrzIyCU2cUkQZIb&#xA;dTRTMyb/AKitGIVeMWPmn8oby0a/uNd/MZLlW4zeYnliMaTkjcmOSan2vs1rTvWmKvYPyy/MzX9J&#xA;1/SPLPmXVl8y+XPM8bSeS/OSr6bTmPZ7W6U7iVT8PxfEG2Na/CqqeafP3m+9m0j8u/IEiWurx6Tb&#xA;3/mLXnUSLp1oYVIVEbZpnUgqD4inUsqrxqx82flFe2v6Q1PXvzFkuQwWfzA0sKxJNtSnpyz8KVBC&#xA;1J/DFXrf5e/mN5i8t61oOka/rY81+SPN1U8p+b2RknW4DcRaXYb4uZb4AW+Ll9IRV7L/ANMr/wBG&#xA;P/MnFXjv5EGNJvzVhuABqo1eeSWtOf1SSJjaV/yePLjiryP8k0/N/Vvyk8weVfJ+gWV5omsXdzb3&#xA;us3dxHGYZJ7aCKaNYi6uSsXFlbiRU9yKYqz7zn5DbyP+WH5ZeUjcJceZ4vNFnJazRV/3ollkklMf&#xA;IBvTQyKtSPAkYqm/5HNHH5h/M63u9tYKWEp5V5GzayY21K70Cn8Rirwbylr35m6Z+QXmOLSbOyfy&#xA;Rd6k9trF8ys99FLPDbo4RTIEEZX01rwJBbr4KvYvPej+XdJ/5xy8j6ToN0+oGfUtOl0G4YKk8lzd&#xA;TPcOyoC3A/vZBxDfD0rir6A/6ZX/AKMf+ZOKvL/On5b+bINTs/zA/Lx4j5glsYrTXdDuG4W+p2wj&#xA;CgcqqFmVQACWGwG4p8SrHvIPnK+8haHL5f0H8ofMlrdTztdS21XuLQ3DokTH69IGAWkS/s0xVlPk&#xA;nyB521/zpD+Yf5lLDbX9gjxeW/LVs4khsFk2eWRwWV5mHcE+O1FVVUL5p/LPzLcLoXn3yFNDB5rt&#xA;9KhstQ0+4PG21KzaJf3MjAji4/ZY+244g4qxDQ9Si8u+SNT8hj8m/Maw6q0j39jE0l3ZvNJGkTMt&#xA;/wDFwFIVIIHwkVGKp5+VH5MeYW1XSNc83WqaRovl0yv5T8mrO14LSSdzIZ7iZ2blJyPIAdDQ/DTj&#xA;ir2X/plf+jH/AJk4qoaV5gsBpdmDFebQRjaxvD+wPCLFUV/iGw/31ef9IN5/1SxV3+IbD/fV5/0g&#xA;3n/VLFUt8ta/Yr5c0pTFeVFnbg0srwjaJe4ipiqZf4hsP99Xn/SDef8AVLFXf4hsP99Xn/SDef8A&#xA;VLFVH1k/wd61G4fo7nTg3OnoV+xTnX2pXFULqnnDy15T8q22reYdQi06xSGJfUlJqzcAeMaKC7t/&#xA;kqCcVedj/nKnyM0Ru49C8xSaSDQ6wmnqbSg/a5+ryp/sa4q9K8neefKnnLShqnlvUY9QtK8JClVe&#xA;N6V4SxuFdG9mGKoVfM/l/wAs+RNP1fXr6LT9Ogs7b1LiY0FTEtFVRVnY9lUEnFWA/wDQ03kd0a5t&#xA;NC8xXulp9rVrfTwbUAftc2lVqbfy4q9C8kfmH5P876adQ8talHfQxkLcRgFJoWI2WWJwrr0NDSh7&#xA;E4qjf+mV/wCjH/mTirwryzo8P5mfmB5j8x6+gutC8iJ+iPL+mSjlD9dhjrcTyI3wuVdKiooar/KM&#xA;VYB5S89/ntrH5b6557h8+Jaw+XpvSbT7q2tqTBY0eiOYyvJufFU47nviqc+Vtdu9K/wJ+b9hbx6X&#xA;D5ovzoHnPTbRfTs7h2mkjjvFhGyt+7Z2ptyG32mqqmtrYf8AKy/N2s3Oqt63lr8uNJgi0zTGo0Mu&#xA;pNal2mlQ1D8HjYFTsaKDtyBVYF5c/M7847v8vNU83J+YVvYtok6W8OiXEForzqFQj0QY9/t0C8O3&#xA;XFWUWupahpOheSvz0trSPSdQ1G8/RvnGytk9C3vrWWZ4xdCL7Kswi5E9CxVh03VfTf8A0yv/AEY/&#xA;8ycVeG+Q9Xj8h/mF5t8m62fq9t5yrrnlq8faOee5jPrW4b+cueKg91p+0tVWI/kD/wA426J5g8v3&#xA;15+YGh6nY6jBe+nbW9yJ7HnAI0avBlRmBYsOQxVmv5gxaFr3m7yX+TvkyGNdP0C/h1XXltTWKztr&#xA;Ov7l2Ff3j+o1eRrzK13OKpNoWoJ+X/nHzLomrj0NK/MHR4b/AEC+faN71bQpLbV6B3kkIA6/Y/mG&#xA;KvMvL3/OPGu6n+UWv61c6Hqll5y0y8VtPsJoJonurThH6iLBInJyOTlSgqSKYq9A1XzZqP5jeWPI&#xA;n5VPYS23ml7mCTzdazW7QfU7TTiVZ5Y2VQhmTjKqgU7bchir6R/6ZX/ox/5k4qk3mX8vPKXnnynZ&#xA;6V5ksVuoVhja3mB4TQuYwOcUg3U+PY9wcVYOP+cddSjh/R8H5k+aItFHwpYi7+IRUp6YkFBT/YU9&#xA;sVZ95A/LPyd5D017Hy7ZegZiGu7yVjJczsP2pZW3Psooo7AVxVQvPI/lfzn5B0zR/Mdil7ZNaW7o&#xA;CSrxyCEASRupDIwr1B9jtirCI/8AnHO/toDp+n/mP5ntNFPwiwW6qVj7orjiFFNtlpirOPy8/Kvy&#xA;b5AspoPL9qwuLohr3UbhvVupyOnqSEDb/JUBa70riqc/9Mr/ANGP/MnFVDSoPMf6Ls6X1mB6EdAb&#xA;OU/sD/l5xVFfV/Mv/LfZ/wDSHL/2VYq76v5l/wCW+z/6Q5f+yrFUt8tQeY/8OaVxvrML9Tt+INpK&#xA;SB6S9T9ZGKpl9X8y/wDLfZ/9Icv/AGVYq76v5l/5b7P/AKQ5f+yrFVGk/wDg+nNfX/R9PU4nhz9D&#xA;rw5VpXty+nFXmH5g/nFrWlXNh5I8i2Ueo+bnsEu7+5nqbXTbURBjNPx78PioelV2YsFKrzODztrF&#xA;0Vuj+f8AbRay+62n6MdLEP8AymR0RAvu0P0Yq9Q/K/8AODzDN5kj8jfmBFbR+YLmH6zoWtaewew1&#xA;S34lucLqePIqpYFaA7iikUKql53/ADh1Hy7pmg+UfKFkmq+c77TIrkrIf9HsbVIOTXFxQjoqkhaj&#xA;bc9gyrzK2886xehLy7/P62tdXbcWcOlyfUlbqFMjJCvH3aLFXpf5b/nF5mg8z2fkn8wxaS32px+r&#xA;5c806cytYamg/lZaJzNNuIXwKg05KvVf+mV/6Mf+ZOKvCfybht7g/nJqlw3qax9burNiw+NLOCKU&#xA;W4B/lYCnvxGKvnryMYLryJ5g0a28j3HmTXdQliTT9Zt4HlNkaCoDRo7cj2Worir13WfJ2teTPyn/&#xA;ACpbVEMHmyx8zxNaQVDSQw3kkk7Q0Xr8UcZZexNMVT78oIo7vXPzc1O+AbV4LG3soWb7SWYs5AgW&#xA;u/F1gj/4EYq+bNJ1rT7PyBrOn3HleO+udQuYVtPM8nIGzZKO0MZCULOq9PUG3Y4q9585+V4/LP8A&#xA;zjZ5Eube+i1DW7HVba+0S+t68TLevJcejEzgNxAoTUD4krQdMVfTX/TK/wDRj/zJxV4l548mecfK&#xA;GtXHn3yXYyavpHmLTktPN/l+3/v2/c8Fu7dQDyZQa7KSDy6hm4qsX/Jz81vyV/LHQtQs7W/1m8vt&#xA;QnSWTTLixCXSyKnD014N6RNT3fFWa+VtE86/ml+YGmee/NulyaB5U8uky+WNDuKi4muGIZbqZTRl&#xA;pxVtwOi8ajkxVS7zt5F86aFPZ/mH5FtDqS6po0On+bdBj/vbiD6uqCeFaHlIqAfZBIIBowLDFXmu&#xA;gaz+Q+l/lnr/AJM1HUdbiutYngnmtJ7BRe29xblSoj4kxGpFPiYVB7Yqyz8n/wAtPN3mq68uNrsF&#xA;5Yflx5PmkutAsdTUR3l5O8plR5YwB+7VjUV24/CtQSQq+j/+mV/6Mf8AmTirelarpY0uzBvIARBH&#xA;Ueon8g98VVzf6IZhMbm2MwHES84+QXw5VrTFV/6W0r/ltg/5Gp/XFUt8tarpY8uaUDeQAiztwQZE&#xA;/wB9L74qjzqGiNKsrXNsZUBCyF4+QB6gGtcVX/pbSv8Altg/5Gp/XFUF6kf+EfU5D0/0fy51HHj6&#xA;Na18MVf/2Q==</xapGImg:image>
    </rdf:li>
   </rdf:Alt>
  </xap:Thumbnails>
 </rdf:Description>

 <rdf:Description rdf:about='uuid:70b558ce-1892-11de-b1f8-001124740a56'
  xmlns:xapMM='http://ns.adobe.com/xap/1.0/mm/'>
  <xapMM:DocumentID>uuid:831aaf18-81ce-11da-9137-001124808cba</xapMM:DocumentID>
 </rdf:Description>

 <rdf:Description rdf:about='uuid:70b558ce-1892-11de-b1f8-001124740a56'
  xmlns:dc='http://purl.org/dc/elements/1.1/'>
  <dc:format>image/svg+xml</dc:format>
 </rdf:Description>

</rdf:RDF>
</x:xmpmeta>
                                                                                                                                                                                                                                                                                                                                                                                                                                                                                                                                                                                                                                                                                                                                                                                                                                                                                                                                                                                                                                                                                                                                                                                                                                                                                                                                                                                                                                                                                                                                                                                                                                                                                                                                                                                                                                                                                                                                                                                                                                                                                                                                <?xpacket end='w'?>
			</metadata>
		<g id="レイヤー1">
			<g>
				<rect x="0.125" y="0.125" fill="none" stroke="#000000" stroke-width="0.25" width="100" height="150"/> 
				<rect x="0.125" y="150.125" fill="none" stroke="#000000" stroke-width="0.25" width="100" height="150"/> 
				<rect x="0.125" y="300.125" fill="none" stroke="#000000" stroke-width="0.25" width="100" height="150"/> 
				<rect x="0.125" y="450.125" fill="none" stroke="#000000" stroke-width="0.25" width="100" height="150"/> 
				<rect x="0.125" y="600.125" fill="none" stroke="#000000" stroke-width="0.25" width="100" height="150"/> 
				<rect x="0.125" y="750.125" fill="none" stroke="#000000" stroke-width="0.25" width="100" height="150"/> 
				<rect x="0.125" y="900.125" fill="none" stroke="#000000" stroke-width="0.25" width="100" height="150"/> 
				<rect x="100.125" y="0.125" fill="none" stroke="#000000" stroke-width="0.25" width="100" height="150"/> 
				<rect x="100.125" y="150.125" fill="none" stroke="#000000" stroke-width="0.25" width="100" height="150"/> 
				<rect x="100.125" y="300.125" fill="none" stroke="#000000" stroke-width="0.25" width="100" height="150"/> 
				<rect x="100.125" y="450.125" fill="none" stroke="#000000" stroke-width="0.25" width="100" height="150"/> 
				<rect x="100.125" y="600.125" fill="none" stroke="#000000" stroke-width="0.25" width="100" height="150"/> 
				<rect x="100.125" y="750.125" fill="none" stroke="#000000" stroke-width="0.25" width="100" height="150"/> 
				<rect x="100.125" y="900.125" fill="none" stroke="#000000" stroke-width="0.25" width="100" height="150"/> 
			</g>
			<g>
				<g>
					<path d="M50.125,1017.625c25.4052734,0,46-20.59375,46-46c0-25.4042969-20.5947266-46-46-46s-46,20.5957031-46,46
						C4.125,997.03125,24.7197266,1017.625,50.125,1017.625v-9c-20.4018555,0-37-16.5976562-37-37s16.5981445-37,37-37
						s37,16.5976562,37,37s-16.5981445,37-37,37V1017.625z"/>
					<path d="M46.4951172,970.8945312v10.5849609h5.0703125c15.4672852,0,23.3999023-6.5693359,23.3999023-19.3457031
						c0-11.390625-8.1054688-17.1542969-28.0800781-17.1542969H31.2851562v53.2900391h15.2099609v-42.3408203h3.5102539
						c7.7231445,0,10.5297852,2.1298828,10.5297852,6.9355469c0,5.3027344-3.7260742,8.0302734-10.5297852,8.0302734H46.4951172z"/>
				</g>
				<g>
					<path d="M50.1245117,867.4580078c25.3134766,0,45.8334961-20.5195312,45.8334961-45.8330078
						s-20.5200195-45.8339844-45.8334961-45.8339844c-25.3129883,0-45.8330078,20.5205078-45.8330078,45.8339844
						S24.8115234,867.4580078,50.1245117,867.4580078v-8.5c-20.5854492,0-37.3330078-16.7470703-37.3330078-37.3330078
						s16.7475586-37.3339844,37.3330078-37.3339844c20.5859375,0,37.3334961,16.7480469,37.3334961,37.3339844
						s-16.7475586,37.3330078-37.3334961,37.3330078V867.4580078z"/>
					<path d="M45.7080078,821.1210938V830.75h5.8500977c15.2910156,0,23.0537109-6.4394531,23.0537109-18.9404297
						c0-11.15625-7.8925781-16.8300781-27.0405273-16.8300781H31.9716797v53.2900391h13.7363281v-43.3466797h4.4633789
						c8.1923828,0,11.3447266,2.4121094,11.3447266,7.6171875c0,5.6464844-3.9829102,8.5810547-11.3447266,8.5810547H45.7080078z"/>
				</g>
				<g>
					<path d="M50.125,717.2919922c25.2211914,0,45.6669922-20.4453125,45.6669922-45.6669922
						S75.3461914,625.9580078,50.125,625.9580078S4.4584961,646.4033203,4.4584961,671.625
						S24.9038086,717.2919922,50.125,717.2919922v-8c-20.7695312,0-37.6665039-16.8974609-37.6665039-37.6669922
						S29.3554688,633.9580078,50.125,633.9580078S87.7919922,650.8554688,87.7919922,671.625
						S70.8945312,709.2919922,50.125,709.2919922V717.2919922z"/>
					<path d="M44.9213867,671.3486328v8.671875h6.6298828c15.1147461,0,22.7070312-6.3085938,22.7070312-18.5351562
						c0-10.921875-7.6791992-16.5048828-26-16.5048828H32.6582031v53.2900391h12.2631836v-44.3535156h5.4169922
						c8.6616211,0,12.1591797,2.6953125,12.1591797,8.2998047c0,5.9892578-4.2387695,9.1318359-12.1591797,9.1318359H44.9213867z"/>
				</g>
				<g>
					<path d="M50.125,567.125c25.1289062,0,45.5-20.3710938,45.5-45.5c0-25.1298828-20.3710938-45.5-45.5-45.5
						c-25.1293945,0-45.5,20.3701172-45.5,45.5C4.625,546.7539062,24.9956055,567.125,50.125,567.125v-7.5
						c-20.953125,0-38-17.046875-38-38s17.046875-38,38-38s38,17.046875,38,38s-17.046875,38-38,38V567.125z"/>
					<path d="M44.1347656,521.5751953v7.7158203h7.409668c14.9384766,0,22.3603516-6.1787109,22.3603516-18.1298828
						c0-10.6875-7.4658203-16.1806641-24.9599609-16.1806641H33.3447266v53.2900391h10.7900391v-45.359375h6.3701172
						c9.1303711,0,12.9736328,2.9785156,12.9736328,8.9814453c0,6.3330078-4.4951172,9.6826172-12.9736328,9.6826172H44.1347656z"/>
				</g>
				<g>
					<path d="M50.1245117,416.9580078c25.0371094,0,45.3334961-20.2963867,45.3334961-45.3330078
						c0-25.0375977-20.2963867-45.3334961-45.3334961-45.3334961S4.7915039,346.5874023,4.7915039,371.625
						C4.7915039,396.6616211,25.0874023,416.9580078,50.1245117,416.9580078v-5.6669922
						c-21.8720703,0-39.6665039-17.7939453-39.6665039-39.6660156c0-21.8725586,17.7944336-39.6669922,39.6665039-39.6669922
						S89.7915039,349.7524414,89.7915039,371.625c0,21.8720703-17.7949219,39.6660156-39.6669922,39.6660156V416.9580078z"/>
					<path d="M41.8979492,372.0195312v5.8105469c0.4936523,0,8.8061523,0,8.8061523,0
						c15.371582,0,22.8408203-5.7817383,22.8408203-17.3183594c0-10.4951172-7.3583984-15.5317383-24.8569336-15.5317383H34.0380859
						v53.2900391h7.8598633v-47.3364258c0.4887695,0,7.8300781,0,7.8300781,0
						c12.3530273,0,16.1987305,3.6162109,16.1987305,10.065918c0,6.347168-3.8222656,11.0200195-15.9155273,11.0200195
						C50.0112305,372.0195312,42.3916016,372.0195312,41.8979492,372.0195312z"/>
				</g>
				<g>
					<path d="M50.125,266.7915039c24.9448242,0,45.1665039-20.2216797,45.1665039-45.1665039
						S75.0698242,176.4584961,50.125,176.4584961S4.9584961,196.6801758,4.9584961,221.625
						S25.1801758,266.7915039,50.125,266.7915039v-3.8330078c-22.7910156,0-41.3330078-18.5415039-41.3330078-41.3334961
						c0-22.7915039,18.5419922-41.3334961,41.3330078-41.3334961S91.4584961,198.8334961,91.4584961,221.625
						c0,22.7919922-18.5424805,41.3334961-41.3334961,41.3334961V266.7915039z"/>
					<path d="M39.6616211,222.4648438v3.9047852c0.9873047,0,10.203125,0,10.203125,0
						c15.8041992,0,23.3203125-5.3842773,23.3203125-16.5068359c0-10.3027344-7.2495117-14.8828125-24.753418-14.8828125H34.7314453
						v53.2900391h4.9301758V198.956543c0.9770508,0,9.2900391,0,9.2900391,0
						c15.5756836,0,19.4248047,4.253418,19.4248047,11.1503906c0,6.3613281-3.1503906,12.3579102-18.8583984,12.3579102
						C49.5180664,222.4648438,40.6489258,222.4648438,39.6616211,222.4648438z"/>
				</g>
				<g>
					<path d="M50.125,116.625c24.8525391,0,45-20.1474609,45-45s-20.1474609-45-45-45s-45,20.1474609-45,45
						S25.2724609,116.625,50.125,116.625v-2c-23.7099609,0-43-19.2890625-43-43s19.2900391-43,43-43s43,19.2890625,43,43
						s-19.2900391,43-43,43V116.625z"/>
					<path d="M37.4248047,46.9794922c1.4658203,0,10.75,0,10.75,0c18.7988281,0,22.6503906,4.890625,22.6503906,12.234375
						c0,6.3759766-2.4775391,13.6953125-21.800293,13.6953125c0,0-10.1191406,0-11.6000977,0v2
						c1.480957,0,11.6000977,0,11.6000977,0c16.2373047,0,23.800293-4.9873047,23.800293-15.6953125
						c0-10.1103516-7.1416016-14.234375-24.6503906-14.234375h-12.75v53.2900391h2V46.9794922z"/>
				</g>
			</g>
			<g>
				<g>
					<path d="M150.125,1017.625c25.4052734,0,46-20.59375,46-46c0-25.4042969-20.5947266-46-46-46s-46,20.5957031-46,46
						C104.125,997.03125,124.7197266,1017.625,150.125,1017.625v-9c-20.4023438,0-37-16.5976562-37-37s16.5976562-37,37-37
						s37,16.5976562,37,37s-16.5976562,37-37,37V1017.625z"/>
					<path d="M149.0058594,955.9306641c6.3056641,0,8.5791016,1.8271484,8.5791016,6.2050781
						c0,4.2509766-3.2666016,6.9345703-8.5791016,6.9345703h-4.2910156V979.65625h3.5097656
						c2.9462891,0,4.5292969,1.4013672,5.6943359,4.7441406l4.8369141,13.8701172h15.9892578l-5.6162109-14.5996094
						c-1.8574219-4.8291016-3.7734375-7.1083984-6.8632812-8.6884766v-0.1464844
						c6.3164062-2.2041016,10.9199219-8.0595703,10.9199219-14.1601562c0-10.4375-7.2148438-15.6953125-24.9609375-15.6953125
						h-18.71875v53.2900391h15.2089844v-42.3398438H149.0058594z"/>
				</g>
				<g>
					<path d="M150.125,867.4580078c25.3125,0,45.8330078-20.5195312,45.8330078-45.8330078
						S175.4375,775.7910156,150.125,775.7910156c-25.3134766,0-45.8339844,20.5205078-45.8339844,45.8339844
						S124.8115234,867.4580078,150.125,867.4580078v-8.5c-20.5859375,0-37.3339844-16.7470703-37.3339844-37.3330078
						s16.7480469-37.3339844,37.3339844-37.3339844s37.3330078,16.7480469,37.3330078,37.3339844
						S170.7109375,858.9580078,150.125,858.9580078V867.4580078z"/>
					<path d="M148.6552734,804.9238281c7.3476562,0,10.0004883,2.0693359,10.0004883,6.7246094
						c0,4.7939453-3.6152344,7.6474609-10.347168,7.6484375h-4.3774414v9.6289062h3.7695312
						c3.9321289,0,5.519043,1.2988281,6.9077148,5.0683594l5.2006836,14.2763672h14.4121094l-5.8413086-14.84375
						c-1.8798828-4.7851562-3.8427734-7.1787109-6.7246094-8.6875v-0.1464844
						c6.4799805-2.1621094,11.0063477-7.8759766,11.0063477-14.2421875c0-10.1748047-7.1235352-15.3701172-24.7871094-15.3701172
						h-17.6791992v53.2900391h13.7358398v-43.3466797H148.6552734z"/>
				</g>
				<g>
					<path d="M150.125,717.2919922c25.2211914,0,45.6665039-20.4453125,45.6665039-45.6669922
						S175.3461914,625.9580078,150.125,625.9580078S104.4584961,646.4033203,104.4584961,671.625
						S124.9038086,717.2919922,150.125,717.2919922v-8c-20.7695312,0-37.6665039-16.8974609-37.6665039-37.6669922
						s16.8969727-37.6669922,37.6665039-37.6669922s37.6665039,16.8974609,37.6665039,37.6669922
						S170.8945312,709.2919922,150.125,709.2919922V717.2919922z"/>
					<path d="M148.3056641,653.9179688c8.3891602,0,11.421875,2.3115234,11.421875,7.2441406
						c0,5.3349609-3.9638672,8.3603516-12.1162109,8.3613281h-4.4628906v8.6728516h4.0292969
						c4.9179688,0,6.5083008,1.1962891,8.1210938,5.3925781l5.5639648,14.6806641h12.8354492l-6.0668945-15.0859375
						c-1.9013672-4.7412109-3.9111328-7.2490234-6.5864258-8.6884766v-0.1464844
						c6.644043-2.1181641,11.09375-7.6923828,11.09375-14.3222656c0-9.9121094-7.0327148-15.0458984-24.6137695-15.0458984
						h-16.6401367v53.2890625h12.2636719v-44.3515625H148.3056641z"/>
				</g>
				<g>
					<path d="M150.125,567.125c25.1289062,0,45.5-20.3710938,45.5-45.5c0-25.1298828-20.3710938-45.5-45.5-45.5
						s-45.5,20.3701172-45.5,45.5C104.625,546.7539062,124.9960938,567.125,150.125,567.125v-7.5c-20.953125,0-38-17.046875-38-38
						s17.046875-38,38-38s38,17.046875,38,38s-17.046875,38-38,38V567.125z"/>
					<path d="M147.9550781,502.9111328c9.4316406,0,12.84375,2.5546875,12.84375,7.7636719
						c0,5.8779297-4.3125,9.0732422-13.8847656,9.0751953h-4.5488281v7.7158203h4.2890625
						c5.9033203,0,7.4980469,1.09375,9.3339844,5.7177734l5.9277344,15.0859375h11.2587891l-6.2919922-15.3291016
						c-1.9238281-4.6982422-3.9804688-7.3203125-6.4482422-8.6884766v-0.1464844
						c6.8076172-2.0761719,11.1806641-7.5087891,11.1806641-14.4033203c0-9.6503906-6.9414062-14.7216797-24.4404297-14.7216797
						h-15.6005859v53.2890625h10.7910156v-45.3583984H147.9550781z"/>
				</g>
				<g>
					<path d="M150.125,416.9580078c25.0366211,0,45.3330078-20.2963867,45.3330078-45.3330078
						c0-25.0375977-20.2963867-45.3334961-45.3330078-45.3334961c-25.0371094,0-45.3334961,20.2958984-45.3334961,45.3334961
						C104.7915039,396.6616211,125.0878906,416.9580078,150.125,416.9580078v-5.6669922
						c-21.8720703,0-39.6669922-17.7939453-39.6669922-39.6660156c0-21.8725586,17.7949219-39.6669922,39.6669922-39.6669922
						s39.6660156,17.7944336,39.6660156,39.6669922c0,21.8720703-17.7939453,39.6660156-39.6660156,39.6660156V416.9580078z"/>
					<path d="M147.1030273,350.9335938c11.2973633,0,16.112793,2.8857422,16.112793,8.690918
						c0,7.0004883-4.9311523,10.4116211-16.8066406,10.4169922h-6.3325195v5.8100586h6.1591797
						c7.1914062,0,8.7133789,0.9501953,11.7636719,7.5541992l6.4433594,14.8632812h8.2563477l-6.8447266-15.3320312
						c-2.6918945-5.8510742-4.6210938-8.1699219-7.3027344-9.4282227v-0.1459961
						c8.0751953-1.9067383,12.5415039-6.9741211,12.5415039-14.3867188c0-8.996582-7.0581055-13.9960938-24.5102539-13.9960938
						h-14.3671875v53.2890625h7.8608398v-47.3354492H147.1030273z"/>
				</g>
				<g>
					<path d="M150.125,266.7915039c24.9448242,0,45.1665039-20.2216797,45.1665039-45.1665039
						S175.0698242,176.4584961,150.125,176.4584961S104.9584961,196.6801758,104.9584961,221.625
						S125.1801758,266.7915039,150.125,266.7915039v-3.8330078c-22.7910156,0-41.3334961-18.5415039-41.3334961-41.3334961
						c0-22.7915039,18.5424805-41.3334961,41.3334961-41.3334961s41.3334961,18.5419922,41.3334961,41.3334961
						c0,22.7919922-18.5424805,41.3334961-41.3334961,41.3334961V266.7915039z"/>
					<path d="M146.2519531,198.956543c13.1635742,0,19.3813477,3.2167969,19.3813477,9.6181641
						c0,8.1230469-5.5493164,11.75-19.7280273,11.7587891h-8.1166992v3.9052734h8.0297852
						c8.4794922,0,9.9291992,0.8051758,14.1928711,9.3901367l6.9594727,14.640625h5.2543945l-7.3989258-15.3354492
						c-3.4594727-7.0029297-5.2612305-9.019043-8.15625-10.1679688v-0.1450195
						c9.3432617-1.7373047,13.9023438-6.4399414,13.9023438-14.3706055c0-8.3427734-7.1757812-13.2705078-24.5800781-13.2705078
						h-13.1337891v53.2895508h4.9301758V198.956543H146.2519531z"/>
				</g>
				<g>
					<path d="M150.125,116.625c24.8525391,0,45-20.1474609,45-45s-20.1474609-45-45-45s-45,20.1474609-45,45
						S125.2724609,116.625,150.125,116.625v-2c-23.7099609,0-43-19.2890625-43-43s19.2900391-43,43-43s43,19.2890625,43,43
						s-19.2900391,43-43,43V116.625z"/>
					<path d="M145.4003906,46.9794922c15.0292969,0,22.6503906,3.5478516,22.6503906,10.5449219
						c0,9.2460938-6.1679688,13.0888672-22.6503906,13.1005859H135.5v2h9.9003906
						c9.7675781,0,11.1445312,0.6611328,16.6220703,11.2265625l7.4755859,14.4179688H171.75l-7.9521484-15.3388672
						c-4.2275391-8.1552734-5.9013672-9.8681641-9.0107422-10.9072266v-0.1445312
						c10.6113281-1.5683594,15.2636719-5.9052734,15.2636719-14.3544922c0-7.6884766-7.2929688-12.5449219-24.6503906-12.5449219
						H133.5v53.2900391h2V46.9794922H145.4003906z"/>
				</g>
			</g>
		</g>
	</svg>
